G04*
G04 #@! TF.GenerationSoftware,Altium Limited,Altium Designer,23.6.0 (18)*
G04*
G04 Layer_Color=32896*
%FSLAX44Y44*%
%MOMM*%
G71*
G04*
G04 #@! TF.SameCoordinates,CC53E28F-54C9-42A3-9587-E9B5384F7771*
G04*
G04*
G04 #@! TF.FilePolarity,Positive*
G04*
G01*
G75*
%ADD10C,0.1000*%
%ADD13C,0.2500*%
%ADD14C,0.2000*%
G36*
X295969Y116209D02*
X295591Y116149D01*
X295452Y116050D01*
X295392Y115871D01*
X295432Y112649D01*
X295491Y112589D01*
X295809Y112509D01*
X296148Y112450D01*
X296346Y112410D01*
X296585Y112370D01*
X296983Y112290D01*
X297222Y112251D01*
X297620Y112171D01*
X297858Y112131D01*
X298057Y112092D01*
X298296Y112052D01*
X298495Y112012D01*
X298654Y111972D01*
X298773Y111893D01*
X298873Y111634D01*
X299668Y109645D01*
X299768Y109307D01*
X299728Y109227D01*
X299529Y108949D01*
X299489Y108869D01*
X299091Y108312D01*
X299052Y108233D01*
X298654Y107676D01*
X298614Y107596D01*
X298216Y107039D01*
X298176Y106960D01*
X297978Y106681D01*
X298017Y106443D01*
X300305Y104155D01*
X300424Y104115D01*
X301140Y104593D01*
X301419Y104792D01*
X301498Y104831D01*
X302055Y105229D01*
X302135Y105269D01*
X302413Y105468D01*
X302493Y105508D01*
X302572Y105587D01*
X302652Y105627D01*
X302931Y105826D01*
X303129Y105906D01*
X304442Y105269D01*
X304542Y105368D01*
X304581Y105528D01*
X304741Y105886D01*
X304820Y106085D01*
X304939Y106363D01*
X305099Y106761D01*
X305218Y107039D01*
X305298Y107238D01*
X305417Y107517D01*
X305576Y107914D01*
X305695Y108193D01*
X305775Y108392D01*
X305894Y108670D01*
X306053Y109068D01*
X306173Y109347D01*
X306252Y109546D01*
X306372Y109824D01*
X306451Y110023D01*
X306570Y110302D01*
X306809Y110898D01*
X306670Y111077D01*
X306392Y111236D01*
X305894Y111614D01*
X305715Y111793D01*
X305636Y111833D01*
X305576Y111893D01*
X305536Y111972D01*
X305377Y112131D01*
X305337Y112211D01*
X305258Y112290D01*
X305218Y112370D01*
X305059Y112609D01*
X304860Y113046D01*
X304741Y113444D01*
X304661Y113922D01*
X304621Y114200D01*
X304661Y114916D01*
X304701Y115035D01*
X304760Y115294D01*
X304800Y115453D01*
X305059Y116030D01*
X305397Y116527D01*
X305496Y116666D01*
X305914Y117084D01*
X305994Y117124D01*
X306073Y117204D01*
X306153Y117243D01*
X306232Y117323D01*
X306988Y117681D01*
X307267Y117760D01*
X307585Y117840D01*
X308102Y117880D01*
X308858Y117840D01*
X308977Y117800D01*
X309136Y117760D01*
X309395Y117661D01*
X309713Y117542D01*
X310111Y117303D01*
X310350Y117144D01*
X310409Y117084D01*
X310489Y117044D01*
X310947Y116587D01*
X310986Y116507D01*
X311265Y116110D01*
X311503Y115592D01*
X311663Y115035D01*
X311702Y114638D01*
X311742Y114359D01*
X311682Y113743D01*
X311643Y113544D01*
X311603Y113385D01*
X311444Y112947D01*
X311265Y112569D01*
X311106Y112330D01*
X311066Y112251D01*
X310947Y112131D01*
X310907Y112052D01*
X310370Y111515D01*
X310290Y111475D01*
X309733Y111077D01*
X309654Y111037D01*
X309554Y110938D01*
X309614Y110719D01*
X309753Y110381D01*
X309872Y110103D01*
X309952Y109904D01*
X310071Y109625D01*
X310230Y109227D01*
X310350Y108949D01*
X310429Y108750D01*
X310549Y108471D01*
X310708Y108074D01*
X310827Y107795D01*
X310907Y107596D01*
X311026Y107318D01*
X311106Y107119D01*
X311225Y106840D01*
X311384Y106443D01*
X311503Y106164D01*
X311583Y105965D01*
X311702Y105687D01*
X311782Y105488D01*
X311901Y105289D01*
X312001Y105269D01*
X312438Y105508D01*
X313274Y105906D01*
X313771Y105567D01*
X314248Y105249D01*
X314547Y105030D01*
X314626Y104991D01*
X314905Y104792D01*
X314984Y104752D01*
X315064Y104672D01*
X315144Y104633D01*
X315422Y104434D01*
X315501Y104394D01*
X315860Y104155D01*
X315959Y104135D01*
X316178Y104275D01*
X318346Y106443D01*
X318386Y106602D01*
X318346Y106721D01*
X317948Y107278D01*
X317908Y107358D01*
X317511Y107914D01*
X317471Y107994D01*
X317272Y108273D01*
X317232Y108352D01*
X317153Y108432D01*
X317113Y108511D01*
X316914Y108790D01*
X316874Y108869D01*
X316595Y109267D01*
X316635Y109546D01*
X316794Y109904D01*
X317511Y111694D01*
X317670Y111972D01*
X318266Y112092D01*
X318505Y112131D01*
X318903Y112211D01*
X319142Y112251D01*
X319340Y112290D01*
X319579Y112330D01*
X319977Y112410D01*
X320216Y112450D01*
X320415Y112489D01*
X320653Y112529D01*
X320812Y112569D01*
X320932Y112649D01*
X320892Y116070D01*
X320832Y116130D01*
X320156Y116249D01*
X319997Y116289D01*
X319718Y116328D01*
X319559Y116368D01*
X319082Y116448D01*
X318923Y116488D01*
X318644Y116527D01*
X318485Y116567D01*
X318008Y116647D01*
X317849Y116686D01*
X317590Y116746D01*
X317511Y116826D01*
X316556Y119053D01*
X316516Y119213D01*
X316556Y119372D01*
X316954Y119929D01*
X316993Y120008D01*
X317391Y120565D01*
X317431Y120645D01*
X317630Y120923D01*
X317670Y121003D01*
X317749Y121082D01*
X317789Y121162D01*
X317988Y121440D01*
X318028Y121520D01*
X318386Y122037D01*
X318346Y122236D01*
X316019Y124563D01*
X315820Y124523D01*
X315541Y124325D01*
X315462Y124285D01*
X315382Y124205D01*
X315303Y124165D01*
X315024Y123967D01*
X314945Y123927D01*
X314388Y123529D01*
X314308Y123489D01*
X313751Y123091D01*
X313671Y123052D01*
X313115Y122654D01*
X312796Y122694D01*
X312438Y122853D01*
X311842Y123091D01*
X311563Y123211D01*
X311165Y123370D01*
X310887Y123489D01*
X310608Y123648D01*
X310549Y123827D01*
X310509Y124106D01*
X310469Y124265D01*
X310429Y124543D01*
X310389Y124703D01*
X310310Y125180D01*
X310270Y125339D01*
X310230Y125618D01*
X310191Y125777D01*
X310111Y126254D01*
X310071Y126413D01*
X309992Y126890D01*
X309872Y127089D01*
X306511Y127109D01*
X306372Y126970D01*
X306312Y126552D01*
X306272Y126353D01*
X306232Y126115D01*
X306153Y125717D01*
X306113Y125478D01*
X306033Y125080D01*
X305994Y124842D01*
X305954Y124643D01*
X305914Y124404D01*
X305835Y124006D01*
X305795Y123768D01*
X305735Y123628D01*
X305675Y123569D01*
X305278Y123410D01*
X304999Y123290D01*
X304402Y123052D01*
X304124Y122932D01*
X303726Y122773D01*
X303448Y122654D01*
X303209Y122694D01*
X302931Y122892D01*
X302851Y122932D01*
X302294Y123330D01*
X302214Y123370D01*
X301657Y123768D01*
X301578Y123807D01*
X301021Y124205D01*
X300941Y124245D01*
X300464Y124563D01*
X300305Y124523D01*
X297978Y122196D01*
X298017Y121958D01*
X298097Y121878D01*
X298137Y121798D01*
X298336Y121520D01*
X298375Y121440D01*
X298773Y120883D01*
X298813Y120804D01*
X299211Y120247D01*
X299251Y120167D01*
X299648Y119610D01*
X299688Y119531D01*
X299847Y119292D01*
X299808Y119053D01*
X299648Y118695D01*
X298932Y117025D01*
X298773Y116746D01*
X298614Y116706D01*
X298375Y116666D01*
X297978Y116587D01*
X297739Y116547D01*
X297341Y116468D01*
X297102Y116428D01*
X296903Y116388D01*
X296665Y116348D01*
X296267Y116269D01*
X296028Y116229D01*
X296008Y116209D01*
X295969D01*
D02*
G37*
D10*
X146750Y195249D02*
G03*
X146750Y195249I-500J0D01*
G01*
X208552Y236954D02*
G03*
X208552Y236954I-500J0D01*
G01*
X244700Y196600D02*
G03*
X244700Y196600I-500J0D01*
G01*
X214750Y207750D02*
G03*
X214750Y207750I-500J0D01*
G01*
X145300Y237500D02*
G03*
X145300Y237500I-500J0D01*
G01*
X383800Y170000D02*
G03*
X383800Y170000I-100J0D01*
G01*
X271900Y200600D02*
Y228400D01*
X289700D01*
X271900Y200600D02*
X289700D01*
Y228400D01*
X128000Y169250D02*
X149000D01*
X128000D02*
Y190250D01*
X149000D01*
Y169250D02*
Y190250D01*
X146250Y198749D02*
Y214249D01*
X130750Y198749D02*
Y214249D01*
X229852Y257954D02*
X232552D01*
X211552D02*
X214252D01*
X229852Y236954D02*
X232552D01*
X211552D02*
X214252D01*
X237754Y196072D02*
X239254D01*
X259254D02*
X260754D01*
X237754Y173072D02*
X239254D01*
X259254D02*
X260754D01*
X237754Y192372D02*
Y196072D01*
Y173072D02*
Y176772D01*
X260754Y192372D02*
Y196072D01*
Y173072D02*
Y176772D01*
X189750Y186750D02*
X190700D01*
X209800D02*
X210750D01*
X189750Y207750D02*
X190700D01*
X209800D02*
X210750D01*
X379645Y168749D02*
X399645D01*
X379645Y148749D02*
Y168749D01*
Y148749D02*
X399645D01*
Y168749D01*
X144000Y131700D02*
X150000D01*
X145500Y133700D02*
X147000Y131700D01*
X148500Y133700D01*
X145500D02*
X148500D01*
X172500Y133750D02*
X178500D01*
X174000Y135750D02*
X175500Y133750D01*
X177000Y135750D01*
X174000D02*
X177000D01*
X440500Y238598D02*
Y233600D01*
X437168D01*
X435502D02*
X433835D01*
X434669D01*
Y236932D01*
X435502D01*
X428004D02*
X430503D01*
X431336Y236099D01*
Y234433D01*
X430503Y233600D01*
X428004D01*
X423839D02*
X425505D01*
X426338Y234433D01*
Y236099D01*
X425505Y236932D01*
X423839D01*
X423006Y236099D01*
Y235266D01*
X426338D01*
X421340Y233600D02*
Y236932D01*
X418840D01*
X418007Y236099D01*
Y233600D01*
X416341D02*
X413842D01*
X413009Y234433D01*
X413842Y235266D01*
X415508D01*
X416341Y236099D01*
X415508Y236932D01*
X413009D01*
X408844Y233600D02*
X410510D01*
X411343Y234433D01*
Y236099D01*
X410510Y236932D01*
X408844D01*
X408011Y236099D01*
Y235266D01*
X411343D01*
X403012Y238598D02*
Y233600D01*
X405511D01*
X406344Y234433D01*
Y236099D01*
X405511Y236932D01*
X403012D01*
X396348D02*
Y234433D01*
X395515Y233600D01*
X393016D01*
Y236932D01*
X391349Y233600D02*
Y236932D01*
X388850D01*
X388017Y236099D01*
Y233600D01*
X383019Y238598D02*
Y233600D01*
X385518D01*
X386351Y234433D01*
Y236099D01*
X385518Y236932D01*
X383019D01*
X378853Y233600D02*
X380520D01*
X381353Y234433D01*
Y236099D01*
X380520Y236932D01*
X378853D01*
X378020Y236099D01*
Y235266D01*
X381353D01*
X376354Y236932D02*
Y233600D01*
Y235266D01*
X375521Y236099D01*
X374688Y236932D01*
X373855D01*
X363025Y237765D02*
X363858Y238598D01*
X365524D01*
X366358Y237765D01*
Y234433D01*
X365524Y233600D01*
X363858D01*
X363025Y234433D01*
X358027Y238598D02*
X361359D01*
Y233600D01*
X358027D01*
X361359Y236099D02*
X359693D01*
X356361Y233600D02*
Y238598D01*
X353862D01*
X353029Y237765D01*
Y236099D01*
X353862Y235266D01*
X356361D01*
X354695D02*
X353029Y233600D01*
X351362D02*
Y238598D01*
X348030Y233600D01*
Y238598D01*
X346364Y236099D02*
X343032D01*
X338867Y238598D02*
X340533D01*
X341366Y237765D01*
Y234433D01*
X340533Y233600D01*
X338867D01*
X338033Y234433D01*
Y237765D01*
X338867Y238598D01*
X336367D02*
Y233600D01*
Y236099D01*
X333035D01*
Y238598D01*
Y233600D01*
X331369Y238598D02*
Y233600D01*
X328037D01*
X326371Y236099D02*
X323038D01*
X318040Y237765D02*
X318873Y238598D01*
X320539D01*
X321372Y237765D01*
Y236932D01*
X320539Y236099D01*
X318873D01*
X318040Y235266D01*
Y234433D01*
X318873Y233600D01*
X320539D01*
X321372Y234433D01*
X316374Y236099D02*
X313042D01*
X308043Y233600D02*
X311376D01*
X308043Y236932D01*
Y237765D01*
X308876Y238598D01*
X310543D01*
X311376Y237765D01*
X306377Y233600D02*
Y234433D01*
X305544D01*
Y233600D01*
X306377D01*
X302212Y237765D02*
X301379Y238598D01*
X299713D01*
X298880Y237765D01*
Y234433D01*
X299713Y233600D01*
X301379D01*
X302212Y234433D01*
Y237765D01*
X297213Y236099D02*
X293881D01*
X295547Y237765D02*
Y234433D01*
X437168Y247831D02*
X438001Y248664D01*
X439667D01*
X440500Y247831D01*
Y246998D01*
X439667Y246165D01*
X438001D01*
X437168Y245332D01*
Y244499D01*
X438001Y243666D01*
X439667D01*
X440500Y244499D01*
X434669Y247831D02*
Y246998D01*
X435502D01*
X433835D01*
X434669D01*
Y244499D01*
X433835Y243666D01*
X430503Y246998D02*
X428837D01*
X428004Y246165D01*
Y243666D01*
X430503D01*
X431336Y244499D01*
X430503Y245332D01*
X428004D01*
X426338Y243666D02*
Y246998D01*
X423839D01*
X423006Y246165D01*
Y243666D01*
X421340D02*
X419674D01*
X420507D01*
Y246998D01*
X421340D01*
X417174Y243666D02*
X414675D01*
X413842Y244499D01*
X414675Y245332D01*
X416341D01*
X417174Y246165D01*
X416341Y246998D01*
X413842D01*
X412176Y243666D02*
X410510D01*
X411343D01*
Y248664D01*
X412176D01*
X407178Y246998D02*
X405511D01*
X404678Y246165D01*
Y243666D01*
X407178D01*
X408011Y244499D01*
X407178Y245332D01*
X404678D01*
X403012Y246998D02*
Y244499D01*
X402179Y243666D01*
X401346Y244499D01*
X400513Y243666D01*
X399680Y244499D01*
Y246998D01*
X398014Y243666D02*
X395515D01*
X394682Y244499D01*
X395515Y245332D01*
X397181D01*
X398014Y246165D01*
X397181Y246998D01*
X394682D01*
X393016Y243666D02*
Y248664D01*
Y245332D02*
X390516Y246998D01*
X393016Y245332D02*
X390516Y243666D01*
X388017D02*
X386351D01*
X387184D01*
Y246998D01*
X388017D01*
X383019Y242833D02*
X382186Y243666D01*
Y244499D01*
X383019D01*
Y243666D01*
X382186D01*
X383019Y242833D01*
X383852Y242000D01*
X378853Y248664D02*
Y243666D01*
X377187Y245332D01*
X375521Y243666D01*
Y248664D01*
X371356Y243666D02*
X373022D01*
X373855Y244499D01*
Y246165D01*
X373022Y246998D01*
X371356D01*
X370523Y246165D01*
Y245332D01*
X373855D01*
X368857Y248664D02*
Y243666D01*
X366357D01*
X365524Y244499D01*
Y245332D01*
Y246165D01*
X366357Y246998D01*
X368857D01*
X361359Y243666D02*
X363025D01*
X363858Y244499D01*
Y246165D01*
X363025Y246998D01*
X361359D01*
X360526Y246165D01*
Y245332D01*
X363858D01*
X358860Y246998D02*
Y243666D01*
Y245332D01*
X358027Y246165D01*
X357194Y246998D01*
X356361D01*
X353862Y243666D02*
X352196D01*
X353029D01*
Y246998D01*
X353862D01*
X349696Y243666D02*
Y246998D01*
X347197D01*
X346364Y246165D01*
Y243666D01*
X343032Y242000D02*
X342199D01*
X341366Y242833D01*
Y246998D01*
X343865D01*
X344698Y246165D01*
Y244499D01*
X343865Y243666D01*
X341366D01*
X438834Y223000D02*
X438001D01*
X437168Y223833D01*
Y227998D01*
X439667D01*
X440500Y227165D01*
Y225499D01*
X439667Y224666D01*
X437168D01*
X435502D02*
X433835D01*
X434669D01*
Y227998D01*
X435502D01*
X430503Y228831D02*
Y227998D01*
X431336D01*
X429670D01*
X430503D01*
Y225499D01*
X429670Y224666D01*
X427171Y229664D02*
Y224666D01*
Y227165D01*
X426338Y227998D01*
X424672D01*
X423839Y227165D01*
Y224666D01*
X422173Y227998D02*
Y225499D01*
X421340Y224666D01*
X418840D01*
Y227998D01*
X417174Y229664D02*
Y224666D01*
X414675D01*
X413842Y225499D01*
Y226332D01*
Y227165D01*
X414675Y227998D01*
X417174D01*
X412176Y224666D02*
Y225499D01*
X411343D01*
Y224666D01*
X412176D01*
X404678Y227998D02*
X407178D01*
X408011Y227165D01*
Y225499D01*
X407178Y224666D01*
X404678D01*
X402179D02*
X400513D01*
X399680Y225499D01*
Y227165D01*
X400513Y227998D01*
X402179D01*
X403012Y227165D01*
Y225499D01*
X402179Y224666D01*
X398014D02*
Y227998D01*
X397181D01*
X396348Y227165D01*
Y224666D01*
Y227165D01*
X395515Y227998D01*
X394682Y227165D01*
Y224666D01*
X393016D02*
X389683Y227998D01*
X388017Y229664D02*
X386351D01*
X387184D01*
Y224666D01*
X388017D01*
X386351D01*
X383852D02*
Y229664D01*
X382186Y227998D01*
X380520Y229664D01*
Y224666D01*
X375521Y228831D02*
X376354Y229664D01*
X378020D01*
X378853Y228831D01*
Y227998D01*
X378020Y227165D01*
X376354D01*
X375521Y226332D01*
Y225499D01*
X376354Y224666D01*
X378020D01*
X378853Y225499D01*
X373855Y227165D02*
X370523D01*
X368857Y224666D02*
Y227998D01*
X367191Y229664D01*
X365524Y227998D01*
Y224666D01*
Y227165D01*
X368857D01*
X360526Y228831D02*
X361359Y229664D01*
X363025D01*
X363858Y228831D01*
Y227998D01*
X363025Y227165D01*
X361359D01*
X360526Y226332D01*
Y225499D01*
X361359Y224666D01*
X363025D01*
X363858Y225499D01*
X358860Y227165D02*
X355528D01*
X353862Y229664D02*
Y224666D01*
X350529D01*
X348863Y229664D02*
Y225499D01*
X348030Y224666D01*
X346364D01*
X345531Y225499D01*
Y229664D01*
X343865D02*
Y224666D01*
Y227165D01*
X340533D01*
Y229664D01*
Y224666D01*
X338867D02*
X335534Y227998D01*
X331369Y229664D02*
X333035D01*
X333868Y228831D01*
Y225499D01*
X333035Y224666D01*
X331369D01*
X330536Y225499D01*
Y228831D01*
X331369Y229664D01*
X328870Y223000D02*
Y227998D01*
X326371D01*
X325538Y227165D01*
Y225499D01*
X326371Y224666D01*
X328870D01*
X321372D02*
X323038D01*
X323871Y225499D01*
Y227165D01*
X323038Y227998D01*
X321372D01*
X320539Y227165D01*
Y226332D01*
X323871D01*
X318873Y224666D02*
Y227998D01*
X316374D01*
X315541Y227165D01*
Y224666D01*
X313875D02*
Y227998D01*
X312209Y229664D01*
X310543Y227998D01*
Y224666D01*
Y227165D01*
X313875D01*
X308876Y229664D02*
X305544Y224666D01*
Y229664D02*
X308876Y224666D01*
X300546Y229664D02*
X303878D01*
Y224666D01*
X300546D01*
X303878Y227165D02*
X302212D01*
X295547Y228831D02*
X296380Y229664D01*
X298046D01*
X298880Y228831D01*
Y227998D01*
X298046Y227165D01*
X296380D01*
X295547Y226332D01*
Y225499D01*
X296380Y224666D01*
X298046D01*
X298880Y225499D01*
X440500Y255665D02*
X438834Y252333D01*
X437168Y255665D01*
X435502Y252333D02*
X433835D01*
X434669D01*
Y257331D01*
X435502Y256498D01*
X431336Y252333D02*
Y253166D01*
X430503D01*
Y252333D01*
X431336D01*
X427171Y256498D02*
X426338Y257331D01*
X424672D01*
X423839Y256498D01*
Y253166D01*
X424672Y252333D01*
X426338D01*
X427171Y253166D01*
Y256498D01*
X413842Y252333D02*
X417174D01*
X413842Y255665D01*
Y256498D01*
X414675Y257331D01*
X416341D01*
X417174Y256498D01*
X412176D02*
X411343Y257331D01*
X409677D01*
X408844Y256498D01*
Y253166D01*
X409677Y252333D01*
X411343D01*
X412176Y253166D01*
Y256498D01*
X403845Y252333D02*
X407178D01*
X403845Y255665D01*
Y256498D01*
X404678Y257331D01*
X406344D01*
X407178Y256498D01*
X402179D02*
X401346Y257331D01*
X399680D01*
X398847Y256498D01*
Y255665D01*
X399680Y254832D01*
X400513D01*
X399680D01*
X398847Y253999D01*
Y253166D01*
X399680Y252333D01*
X401346D01*
X402179Y253166D01*
X269900Y224400D02*
Y225233D01*
X270733D01*
Y224400D01*
X269900D01*
X152100Y190250D02*
Y191083D01*
X151267D01*
Y190250D01*
X152100D01*
X312800Y146298D02*
Y141300D01*
X309468D01*
X304469D02*
X307802D01*
X304469Y144632D01*
Y145465D01*
X305303Y146298D01*
X306969D01*
X307802Y145465D01*
X324760Y133498D02*
Y128500D01*
X322261D01*
X321428Y129333D01*
Y132665D01*
X322261Y133498D01*
X324760D01*
X319762Y128500D02*
X318095D01*
X318929D01*
Y133498D01*
X319762Y132665D01*
X274500Y119198D02*
X272834D01*
X273667D01*
Y114200D01*
X274500D01*
X272834D01*
X267002Y118365D02*
X267836Y119198D01*
X269502D01*
X270335Y118365D01*
Y115033D01*
X269502Y114200D01*
X267836D01*
X267002Y115033D01*
X265336Y119198D02*
X262004D01*
Y118365D01*
X265336Y115033D01*
Y114200D01*
X158900Y132000D02*
X153902D01*
Y129501D01*
X154735Y128668D01*
X156401D01*
X157234Y129501D01*
Y132000D01*
Y130334D02*
X158900Y128668D01*
Y123669D02*
Y127002D01*
X155568Y123669D01*
X154735D01*
X153902Y124502D01*
Y126169D01*
X154735Y127002D01*
Y122003D02*
X153902Y121170D01*
Y119504D01*
X154735Y118671D01*
X158067D01*
X158900Y119504D01*
Y121170D01*
X158067Y122003D01*
X154735D01*
X326600Y184100D02*
Y189098D01*
X324101D01*
X323268Y188265D01*
Y186599D01*
X324101Y185766D01*
X326600D01*
X324934D02*
X323268Y184100D01*
X319102D02*
Y189098D01*
X321602Y186599D01*
X318269D01*
X141800Y167098D02*
X138468D01*
X140134D01*
Y162100D01*
X136802D02*
X135135D01*
X135969D01*
Y167098D01*
X136802Y166265D01*
X285000Y234526D02*
X281668Y229527D01*
Y234526D02*
X285000Y229527D01*
X280002D02*
X278335D01*
X279169D01*
Y234526D01*
X280002Y233693D01*
X314900Y162600D02*
X309902D01*
Y160101D01*
X310735Y159268D01*
X312401D01*
X313234Y160101D01*
Y162600D01*
Y160934D02*
X314900Y159268D01*
X309902Y154269D02*
X310735Y155935D01*
X312401Y157602D01*
X314067D01*
X314900Y156769D01*
Y155103D01*
X314067Y154269D01*
X313234D01*
X312401Y155103D01*
Y157602D01*
X338500Y162700D02*
X333502D01*
Y160201D01*
X334335Y159368D01*
X336001D01*
X336834Y160201D01*
Y162700D01*
Y161034D02*
X338500Y159368D01*
X333502Y154369D02*
Y157702D01*
X336001D01*
X335168Y156035D01*
Y155203D01*
X336001Y154369D01*
X337667D01*
X338500Y155203D01*
Y156869D01*
X337667Y157702D01*
X367000Y204000D02*
X362002D01*
Y201501D01*
X362835Y200668D01*
X364501D01*
X365334Y201501D01*
Y204000D01*
Y202334D02*
X367000Y200668D01*
Y195669D02*
Y199002D01*
X363668Y195669D01*
X362835D01*
X362002Y196502D01*
Y198169D01*
X362835Y199002D01*
X367000Y191504D02*
X362002D01*
X364501Y194003D01*
Y190671D01*
X353200Y144500D02*
Y149498D01*
X350701D01*
X349868Y148665D01*
Y146999D01*
X350701Y146166D01*
X353200D01*
X344869Y148665D02*
X345703Y149498D01*
X347369D01*
X348202Y148665D01*
Y147832D01*
X347369Y146999D01*
X345703D01*
X344869Y146166D01*
Y145333D01*
X345703Y144500D01*
X347369D01*
X348202Y145333D01*
X372900Y187400D02*
X367902D01*
Y184901D01*
X368735Y184068D01*
X370401D01*
X371234Y184901D01*
Y187400D01*
Y185734D02*
X372900Y184068D01*
Y179069D02*
Y182402D01*
X369568Y179069D01*
X368735D01*
X367902Y179902D01*
Y181569D01*
X368735Y182402D01*
Y177403D02*
X367902Y176570D01*
Y174904D01*
X368735Y174071D01*
X369568D01*
X370401Y174904D01*
Y175737D01*
Y174904D01*
X371234Y174071D01*
X372067D01*
X372900Y174904D01*
Y176570D01*
X372067Y177403D01*
X385635Y194768D02*
X384802Y195601D01*
Y197267D01*
X385635Y198100D01*
X388967D01*
X389800Y197267D01*
Y195601D01*
X388967Y194768D01*
X389800Y190602D02*
X384802D01*
X387301Y193102D01*
Y189769D01*
X385635Y188103D02*
X384802Y187270D01*
Y185604D01*
X385635Y184771D01*
X386468D01*
X387301Y185604D01*
Y186437D01*
Y185604D01*
X388134Y184771D01*
X388967D01*
X389800Y185604D01*
Y187270D01*
X388967Y188103D01*
X366185Y163737D02*
X365352Y164570D01*
Y166236D01*
X366185Y167069D01*
X369517D01*
X370350Y166236D01*
Y164570D01*
X369517Y163737D01*
X370350Y159572D02*
X365352D01*
X367851Y162071D01*
Y158739D01*
X370350Y154573D02*
X365352D01*
X367851Y157073D01*
Y153741D01*
X393672Y186811D02*
Y185145D01*
Y185978D01*
X398670D01*
Y186811D01*
Y185145D01*
X394505Y179313D02*
X393672Y180146D01*
Y181812D01*
X394505Y182646D01*
X397837D01*
X398670Y181812D01*
Y180146D01*
X397837Y179313D01*
X398670Y177647D02*
Y175981D01*
Y176814D01*
X393672D01*
X394505Y177647D01*
X398670Y170150D02*
Y173482D01*
X395338Y170150D01*
X394505D01*
X393672Y170983D01*
Y172649D01*
X394505Y173482D01*
X351295Y209750D02*
Y214748D01*
X348795D01*
X347962Y213915D01*
Y212249D01*
X348795Y211416D01*
X351295D01*
X349628D02*
X347962Y209750D01*
X346296Y213915D02*
X345463Y214748D01*
X343797D01*
X342964Y213915D01*
Y213082D01*
X343797Y212249D01*
X344630D01*
X343797D01*
X342964Y211416D01*
Y210583D01*
X343797Y209750D01*
X345463D01*
X346296Y210583D01*
X330900Y202200D02*
Y207198D01*
X328401D01*
X327568Y206365D01*
Y204699D01*
X328401Y203866D01*
X330900D01*
X329234D02*
X327568Y202200D01*
X322569D02*
X325902D01*
X322569Y205532D01*
Y206365D01*
X323402Y207198D01*
X325069D01*
X325902Y206365D01*
X396235Y213968D02*
X395402Y214801D01*
Y216467D01*
X396235Y217300D01*
X399567D01*
X400400Y216467D01*
Y214801D01*
X399567Y213968D01*
X400400Y209802D02*
X395402D01*
X397901Y212302D01*
Y208969D01*
X400400Y207303D02*
Y205637D01*
Y206470D01*
X395402D01*
X396235Y207303D01*
X415035Y208368D02*
X414202Y209201D01*
Y210867D01*
X415035Y211700D01*
X418367D01*
X419200Y210867D01*
Y209201D01*
X418367Y208368D01*
X419200Y204202D02*
X414202D01*
X416701Y206702D01*
Y203369D01*
X419200Y198371D02*
Y201703D01*
X415868Y198371D01*
X415035D01*
X414202Y199204D01*
Y200870D01*
X415035Y201703D01*
X410968Y137065D02*
X411801Y137898D01*
X413467D01*
X414300Y137065D01*
Y133733D01*
X413467Y132900D01*
X411801D01*
X410968Y133733D01*
X409302Y137065D02*
X408469Y137898D01*
X406802D01*
X405969Y137065D01*
Y136232D01*
X406802Y135399D01*
X407635D01*
X406802D01*
X405969Y134566D01*
Y133733D01*
X406802Y132900D01*
X408469D01*
X409302Y133733D01*
X400971Y137898D02*
X404303D01*
Y135399D01*
X402637Y136232D01*
X401804D01*
X400971Y135399D01*
Y133733D01*
X401804Y132900D01*
X403470D01*
X404303Y133733D01*
X413835Y114568D02*
X413002Y115401D01*
Y117067D01*
X413835Y117900D01*
X417167D01*
X418000Y117067D01*
Y115401D01*
X417167Y114568D01*
X413835Y112902D02*
X413002Y112069D01*
Y110402D01*
X413835Y109569D01*
X414668D01*
X415501Y110402D01*
Y111236D01*
Y110402D01*
X416334Y109569D01*
X417167D01*
X418000Y110402D01*
Y112069D01*
X417167Y112902D01*
X413002Y107903D02*
Y104571D01*
X413835D01*
X417167Y107903D01*
X418000D01*
X407235Y182768D02*
X406402Y183601D01*
Y185267D01*
X407235Y186100D01*
X410567D01*
X411400Y185267D01*
Y183601D01*
X410567Y182768D01*
X407235Y181102D02*
X406402Y180269D01*
Y178603D01*
X407235Y177769D01*
X408068D01*
X408901Y178603D01*
Y179436D01*
Y178603D01*
X409734Y177769D01*
X410567D01*
X411400Y178603D01*
Y180269D01*
X410567Y181102D01*
Y176103D02*
X411400Y175270D01*
Y173604D01*
X410567Y172771D01*
X407235D01*
X406402Y173604D01*
Y175270D01*
X407235Y176103D01*
X408068D01*
X408901Y175270D01*
Y172771D01*
X421035Y135368D02*
X420202Y136201D01*
Y137867D01*
X421035Y138700D01*
X424367D01*
X425200Y137867D01*
Y136201D01*
X424367Y135368D01*
X421035Y133702D02*
X420202Y132869D01*
Y131202D01*
X421035Y130369D01*
X421868D01*
X422701Y131202D01*
Y132036D01*
Y131202D01*
X423534Y130369D01*
X424367D01*
X425200Y131202D01*
Y132869D01*
X424367Y133702D01*
X421035Y128703D02*
X420202Y127870D01*
Y126204D01*
X421035Y125371D01*
X421868D01*
X422701Y126204D01*
Y127037D01*
Y126204D01*
X423534Y125371D01*
X424367D01*
X425200Y126204D01*
Y127870D01*
X424367Y128703D01*
X421035Y150168D02*
X420202Y151001D01*
Y152667D01*
X421035Y153500D01*
X424367D01*
X425200Y152667D01*
Y151001D01*
X424367Y150168D01*
X421035Y148502D02*
X420202Y147669D01*
Y146003D01*
X421035Y145169D01*
X421868D01*
X422701Y146003D01*
Y146835D01*
Y146003D01*
X423534Y145169D01*
X424367D01*
X425200Y146003D01*
Y147669D01*
X424367Y148502D01*
X420202Y140171D02*
X421035Y141837D01*
X422701Y143503D01*
X424367D01*
X425200Y142670D01*
Y141004D01*
X424367Y140171D01*
X423534D01*
X422701Y141004D01*
Y143503D01*
X408268Y127065D02*
X409101Y127898D01*
X410767D01*
X411600Y127065D01*
Y123733D01*
X410767Y122900D01*
X409101D01*
X408268Y123733D01*
X406602Y127065D02*
X405769Y127898D01*
X404102D01*
X403269Y127065D01*
Y126232D01*
X404102Y125399D01*
X404935D01*
X404102D01*
X403269Y124566D01*
Y123733D01*
X404102Y122900D01*
X405769D01*
X406602Y123733D01*
X401603Y127065D02*
X400770Y127898D01*
X399104D01*
X398271Y127065D01*
Y126232D01*
X399104Y125399D01*
X398271Y124566D01*
Y123733D01*
X399104Y122900D01*
X400770D01*
X401603Y123733D01*
Y124566D01*
X400770Y125399D01*
X401603Y126232D01*
Y127065D01*
X400770Y125399D02*
X399104D01*
X422235Y168868D02*
X421402Y169701D01*
Y171367D01*
X422235Y172200D01*
X425567D01*
X426400Y171367D01*
Y169701D01*
X425567Y168868D01*
X426400Y164702D02*
X421402D01*
X423901Y167202D01*
Y163869D01*
X422235Y162203D02*
X421402Y161370D01*
Y159704D01*
X422235Y158871D01*
X425567D01*
X426400Y159704D01*
Y161370D01*
X425567Y162203D01*
X422235D01*
X436135Y120868D02*
X435302Y121701D01*
Y123367D01*
X436135Y124200D01*
X439467D01*
X440300Y123367D01*
Y121701D01*
X439467Y120868D01*
X436135Y119202D02*
X435302Y118369D01*
Y116702D01*
X436135Y115869D01*
X436968D01*
X437801Y116702D01*
Y117535D01*
Y116702D01*
X438634Y115869D01*
X439467D01*
X440300Y116702D01*
Y118369D01*
X439467Y119202D01*
X440300Y111704D02*
X435302D01*
X437801Y114203D01*
Y110871D01*
X204200Y170900D02*
Y175898D01*
X201701D01*
X200868Y175065D01*
Y173399D01*
X201701Y172566D01*
X204200D01*
X202534D02*
X200868Y170900D01*
X199202D02*
X197535D01*
X198369D01*
Y175898D01*
X199202Y175065D01*
X195036D02*
X194203Y175898D01*
X192537D01*
X191704Y175065D01*
Y171733D01*
X192537Y170900D01*
X194203D01*
X195036Y171733D01*
Y175065D01*
X219200Y217400D02*
Y222398D01*
X216701D01*
X215868Y221565D01*
Y219899D01*
X216701Y219066D01*
X219200D01*
X217534D02*
X215868Y217400D01*
X214202Y218233D02*
X213369Y217400D01*
X211702D01*
X210869Y218233D01*
Y221565D01*
X211702Y222398D01*
X213369D01*
X214202Y221565D01*
Y220732D01*
X213369Y219899D01*
X210869D01*
X433235Y148468D02*
X432402Y149301D01*
Y150967D01*
X433235Y151800D01*
X436567D01*
X437400Y150967D01*
Y149301D01*
X436567Y148468D01*
X433235Y146802D02*
X432402Y145969D01*
Y144303D01*
X433235Y143469D01*
X434068D01*
X434901Y144303D01*
Y145135D01*
Y144303D01*
X435734Y143469D01*
X436567D01*
X437400Y144303D01*
Y145969D01*
X436567Y146802D01*
X437400Y138471D02*
Y141803D01*
X434068Y138471D01*
X433235D01*
X432402Y139304D01*
Y140970D01*
X433235Y141803D01*
X427735Y215768D02*
X426902Y216601D01*
Y218267D01*
X427735Y219100D01*
X431067D01*
X431900Y218267D01*
Y216601D01*
X431067Y215768D01*
X427735Y214102D02*
X426902Y213269D01*
Y211602D01*
X427735Y210769D01*
X428568D01*
X429401Y211602D01*
Y212435D01*
Y211602D01*
X430234Y210769D01*
X431067D01*
X431900Y211602D01*
Y213269D01*
X431067Y214102D01*
X431900Y209103D02*
Y207437D01*
Y208270D01*
X426902D01*
X427735Y209103D01*
X436435Y209668D02*
X435602Y210501D01*
Y212167D01*
X436435Y213000D01*
X439767D01*
X440600Y212167D01*
Y210501D01*
X439767Y209668D01*
X436435Y208002D02*
X435602Y207169D01*
Y205502D01*
X436435Y204669D01*
X437268D01*
X438101Y205502D01*
Y206336D01*
Y205502D01*
X438934Y204669D01*
X439767D01*
X440600Y205502D01*
Y207169D01*
X439767Y208002D01*
X436435Y203003D02*
X435602Y202170D01*
Y200504D01*
X436435Y199671D01*
X439767D01*
X440600Y200504D01*
Y202170D01*
X439767Y203003D01*
X436435D01*
X207300Y214298D02*
X205634D01*
X206467D01*
Y209300D01*
X207300D01*
X205634D01*
X199802Y213465D02*
X200636Y214298D01*
X202302D01*
X203135Y213465D01*
Y210133D01*
X202302Y209300D01*
X200636D01*
X199802Y210133D01*
X198136Y213465D02*
X197303Y214298D01*
X195637D01*
X194804Y213465D01*
Y212632D01*
X195637Y211799D01*
X196470D01*
X195637D01*
X194804Y210966D01*
Y210133D01*
X195637Y209300D01*
X197303D01*
X198136Y210133D01*
X178235Y176268D02*
X177402Y177101D01*
Y178767D01*
X178235Y179600D01*
X181567D01*
X182400Y178767D01*
Y177101D01*
X181567Y176268D01*
X182400Y174602D02*
Y172936D01*
Y173769D01*
X177402D01*
X178235Y174602D01*
X177402Y167104D02*
Y170436D01*
X179901D01*
X179068Y168770D01*
Y167937D01*
X179901Y167104D01*
X181567D01*
X182400Y167937D01*
Y169603D01*
X181567Y170436D01*
X169635Y175968D02*
X168802Y176801D01*
Y178467D01*
X169635Y179300D01*
X172967D01*
X173800Y178467D01*
Y176801D01*
X172967Y175968D01*
X173800Y174302D02*
Y172635D01*
Y173469D01*
X168802D01*
X169635Y174302D01*
X173800Y167637D02*
X168802D01*
X171301Y170136D01*
Y166804D01*
X139768Y234965D02*
X140601Y235798D01*
X142267D01*
X143100Y234965D01*
Y231633D01*
X142267Y230800D01*
X140601D01*
X139768Y231633D01*
X134769Y230800D02*
X138102D01*
X134769Y234132D01*
Y234965D01*
X135602Y235798D01*
X137269D01*
X138102Y234965D01*
X133103D02*
X132270Y235798D01*
X130604D01*
X129771Y234965D01*
Y231633D01*
X130604Y230800D01*
X132270D01*
X133103Y231633D01*
Y234965D01*
X202335Y269068D02*
X201502Y269901D01*
Y271567D01*
X202335Y272400D01*
X205667D01*
X206500Y271567D01*
Y269901D01*
X205667Y269068D01*
X206500Y267402D02*
Y265735D01*
Y266569D01*
X201502D01*
X202335Y267402D01*
X201502Y263236D02*
Y259904D01*
X202335D01*
X205667Y263236D01*
X206500D01*
X178168Y269465D02*
X179001Y270298D01*
X180667D01*
X181500Y269465D01*
Y266133D01*
X180667Y265300D01*
X179001D01*
X178168Y266133D01*
X176502Y265300D02*
X174835D01*
X175669D01*
Y270298D01*
X176502Y269465D01*
X172336Y266133D02*
X171503Y265300D01*
X169837D01*
X169004Y266133D01*
Y269465D01*
X169837Y270298D01*
X171503D01*
X172336Y269465D01*
Y268632D01*
X171503Y267799D01*
X169004D01*
X178968Y221265D02*
X179801Y222098D01*
X181467D01*
X182300Y221265D01*
Y217933D01*
X181467Y217100D01*
X179801D01*
X178968Y217933D01*
X177302Y217100D02*
X175636D01*
X176469D01*
Y222098D01*
X177302Y221265D01*
X173136D02*
X172303Y222098D01*
X170637D01*
X169804Y221265D01*
Y220432D01*
X170637Y219599D01*
X169804Y218766D01*
Y217933D01*
X170637Y217100D01*
X172303D01*
X173136Y217933D01*
Y218766D01*
X172303Y219599D01*
X173136Y220432D01*
Y221265D01*
X172303Y219599D02*
X170637D01*
X191700Y264500D02*
X186702D01*
Y262001D01*
X187535Y261168D01*
X189201D01*
X190034Y262001D01*
Y264500D01*
Y262834D02*
X191700Y261168D01*
Y259502D02*
Y257836D01*
Y258669D01*
X186702D01*
X187535Y259502D01*
X186702Y252004D02*
X187535Y253670D01*
X189201Y255336D01*
X190867D01*
X191700Y254503D01*
Y252837D01*
X190867Y252004D01*
X190034D01*
X189201Y252837D01*
Y255336D01*
X192180Y245640D02*
X187182D01*
Y243141D01*
X188015Y242308D01*
X189681D01*
X190514Y243141D01*
Y245640D01*
Y243974D02*
X192180Y242308D01*
Y240642D02*
Y238976D01*
Y239809D01*
X187182D01*
X188015Y240642D01*
X187182Y233144D02*
Y236476D01*
X189681D01*
X188848Y234810D01*
Y233977D01*
X189681Y233144D01*
X191347D01*
X192180Y233977D01*
Y235643D01*
X191347Y236476D01*
X230418Y273415D02*
X231251Y274248D01*
X232917D01*
X233750Y273415D01*
Y270083D01*
X232917Y269250D01*
X231251D01*
X230418Y270083D01*
X225419Y269250D02*
X228752D01*
X225419Y272582D01*
Y273415D01*
X226252Y274248D01*
X227919D01*
X228752Y273415D01*
X223753D02*
X222920Y274248D01*
X221254D01*
X220421Y273415D01*
Y272582D01*
X221254Y271749D01*
X222087D01*
X221254D01*
X220421Y270916D01*
Y270083D01*
X221254Y269250D01*
X222920D01*
X223753Y270083D01*
X208176Y227865D02*
X209009Y228698D01*
X210675D01*
X211508Y227865D01*
Y224533D01*
X210675Y223700D01*
X209009D01*
X208176Y224533D01*
X203178Y223700D02*
X206510D01*
X203178Y227032D01*
Y227865D01*
X204011Y228698D01*
X205677D01*
X206510Y227865D01*
X201511Y223700D02*
X199845D01*
X200678D01*
Y228698D01*
X201511Y227865D01*
X244435Y238968D02*
X243602Y239801D01*
Y241467D01*
X244435Y242300D01*
X247767D01*
X248600Y241467D01*
Y239801D01*
X247767Y238968D01*
X248600Y233969D02*
Y237302D01*
X245268Y233969D01*
X244435D01*
X243602Y234802D01*
Y236469D01*
X244435Y237302D01*
X248600Y228971D02*
Y232303D01*
X245268Y228971D01*
X244435D01*
X243602Y229804D01*
Y231470D01*
X244435Y232303D01*
X228314Y235248D02*
X226648D01*
X227481D01*
Y230250D01*
X228314D01*
X226648D01*
X220816Y234415D02*
X221649Y235248D01*
X223315D01*
X224148Y234415D01*
Y231083D01*
X223315Y230250D01*
X221649D01*
X220816Y231083D01*
X215818Y235248D02*
X217484Y234415D01*
X219150Y232749D01*
Y231083D01*
X218317Y230250D01*
X216651D01*
X215818Y231083D01*
Y231916D01*
X216651Y232749D01*
X219150D01*
X251200Y217400D02*
Y222398D01*
X248701D01*
X247868Y221565D01*
Y219899D01*
X248701Y219066D01*
X251200D01*
X249534D02*
X247868Y217400D01*
X246202Y221565D02*
X245369Y222398D01*
X243703D01*
X242869Y221565D01*
Y220732D01*
X243703Y219899D01*
X242869Y219066D01*
Y218233D01*
X243703Y217400D01*
X245369D01*
X246202Y218233D01*
Y219066D01*
X245369Y219899D01*
X246202Y220732D01*
Y221565D01*
X245369Y219899D02*
X243703D01*
X229200Y183800D02*
X224202D01*
Y181301D01*
X225035Y180468D01*
X226701D01*
X227534Y181301D01*
Y183800D01*
Y182134D02*
X229200Y180468D01*
X224202Y178802D02*
Y175469D01*
X225035D01*
X228367Y178802D01*
X229200D01*
X232168Y204415D02*
X233001Y205248D01*
X234667D01*
X235500Y204415D01*
Y201083D01*
X234667Y200250D01*
X233001D01*
X232168Y201083D01*
X230502Y200250D02*
X228836D01*
X229669D01*
Y205248D01*
X230502Y204415D01*
X226336D02*
X225503Y205248D01*
X223837D01*
X223004Y204415D01*
Y203582D01*
X223837Y202749D01*
X224670D01*
X223837D01*
X223004Y201916D01*
Y201083D01*
X223837Y200250D01*
X225503D01*
X226336Y201083D01*
X230768Y168365D02*
X231601Y169198D01*
X233267D01*
X234100Y168365D01*
Y165033D01*
X233267Y164200D01*
X231601D01*
X230768Y165033D01*
X229102Y164200D02*
X227435D01*
X228269D01*
Y169198D01*
X229102Y168365D01*
X221604Y164200D02*
X224936D01*
X221604Y167532D01*
Y168365D01*
X222437Y169198D01*
X224103D01*
X224936Y168365D01*
X243700Y153949D02*
Y158947D01*
X241201D01*
X240368Y158114D01*
Y156448D01*
X241201Y155615D01*
X243700D01*
X242034D02*
X240368Y153949D01*
X238702D02*
X237036D01*
X237869D01*
Y158947D01*
X238702Y158114D01*
X234536D02*
X233703Y158947D01*
X232037D01*
X231204Y158114D01*
Y157281D01*
X232037Y156448D01*
X231204Y155615D01*
Y154782D01*
X232037Y153949D01*
X233703D01*
X234536Y154782D01*
Y155615D01*
X233703Y156448D01*
X234536Y157281D01*
Y158114D01*
X233703Y156448D02*
X232037D01*
X171700Y123000D02*
X166702D01*
Y120501D01*
X167535Y119668D01*
X169201D01*
X170034Y120501D01*
Y123000D01*
Y121334D02*
X171700Y119668D01*
Y118002D02*
Y116335D01*
Y117169D01*
X166702D01*
X167535Y118002D01*
X166702Y113836D02*
Y110504D01*
X167535D01*
X170867Y113836D01*
X171700D01*
X166202Y144382D02*
X171200D01*
Y141050D01*
X166202Y136052D02*
Y139384D01*
X171200D01*
Y136052D01*
X168701Y139384D02*
Y137718D01*
X166202Y134386D02*
X171200D01*
Y131887D01*
X170367Y131053D01*
X167035D01*
X166202Y131887D01*
Y134386D01*
X171200Y126888D02*
X166202D01*
X168701Y129387D01*
Y126055D01*
X243100Y140500D02*
Y145498D01*
X240601D01*
X239768Y144665D01*
Y142999D01*
X240601Y142166D01*
X243100D01*
X241434D02*
X239768Y140500D01*
X234769D02*
X238102D01*
X234769Y143832D01*
Y144665D01*
X235602Y145498D01*
X237269D01*
X238102Y144665D01*
X233103Y140500D02*
X231437D01*
X232270D01*
Y145498D01*
X233103Y144665D01*
X243600Y120100D02*
Y125098D01*
X241101D01*
X240268Y124265D01*
Y122599D01*
X241101Y121766D01*
X243600D01*
X241934D02*
X240268Y120100D01*
X238602D02*
X236936D01*
X237769D01*
Y125098D01*
X238602Y124265D01*
X234436Y120933D02*
X233603Y120100D01*
X231937D01*
X231104Y120933D01*
Y124265D01*
X231937Y125098D01*
X233603D01*
X234436Y124265D01*
Y123432D01*
X233603Y122599D01*
X231104D01*
X335072Y263450D02*
X335905D01*
X337571Y261784D01*
X335905Y260118D01*
X335072D01*
X337571Y261784D02*
X340070D01*
Y255119D02*
Y258452D01*
X336738Y255119D01*
X335905D01*
X335072Y255952D01*
Y257619D01*
X335905Y258452D01*
X292168Y275215D02*
X293001Y276048D01*
X294667D01*
X295500Y275215D01*
Y271883D01*
X294667Y271050D01*
X293001D01*
X292168Y271883D01*
X290502Y275215D02*
X289669Y276048D01*
X288002D01*
X287169Y275215D01*
Y274382D01*
X288002Y273549D01*
X287169Y272716D01*
Y271883D01*
X288002Y271050D01*
X289669D01*
X290502Y271883D01*
Y272716D01*
X289669Y273549D01*
X290502Y274382D01*
Y275215D01*
X289669Y273549D02*
X288002D01*
X301185Y249258D02*
X300352Y250091D01*
Y251757D01*
X301185Y252590D01*
X304517D01*
X305350Y251757D01*
Y250091D01*
X304517Y249258D01*
X300352Y247592D02*
Y244259D01*
X301185D01*
X304517Y247592D01*
X305350D01*
X339100Y188100D02*
X334102D01*
Y185601D01*
X334935Y184768D01*
X336601D01*
X337434Y185601D01*
Y188100D01*
Y186434D02*
X339100Y184768D01*
Y183102D02*
Y181436D01*
Y182269D01*
X334102D01*
X334935Y183102D01*
X349535Y166968D02*
X348702Y167801D01*
Y169467D01*
X349535Y170300D01*
X352867D01*
X353700Y169467D01*
Y167801D01*
X352867Y166968D01*
X348702Y161969D02*
X349535Y163636D01*
X351201Y165302D01*
X352867D01*
X353700Y164469D01*
Y162802D01*
X352867Y161969D01*
X352034D01*
X351201Y162802D01*
Y165302D01*
X114250Y178749D02*
X109252D01*
Y176250D01*
X110085Y175417D01*
X111751D01*
X112584Y176250D01*
Y178749D01*
Y177083D02*
X114250Y175417D01*
Y173751D02*
Y172085D01*
Y172918D01*
X109252D01*
X110085Y173751D01*
X114250Y167086D02*
X109252D01*
X111751Y169586D01*
Y166253D01*
X160500Y171322D02*
X155502D01*
Y168823D01*
X156335Y167990D01*
X158001D01*
X158834Y168823D01*
Y171322D01*
Y169656D02*
X160500Y167990D01*
Y166324D02*
Y164657D01*
Y165491D01*
X155502D01*
X156335Y166324D01*
Y162158D02*
X155502Y161325D01*
Y159659D01*
X156335Y158826D01*
X157168D01*
X158001Y159659D01*
Y160492D01*
Y159659D01*
X158834Y158826D01*
X159667D01*
X160500Y159659D01*
Y161325D01*
X159667Y162158D01*
X160500Y225900D02*
Y230898D01*
X158001D01*
X157168Y230065D01*
Y228399D01*
X158001Y227566D01*
X160500D01*
X158834D02*
X157168Y225900D01*
X155502D02*
X153835D01*
X154669D01*
Y230898D01*
X155502Y230065D01*
X148004Y225900D02*
X151336D01*
X148004Y229232D01*
Y230065D01*
X148837Y230898D01*
X150503D01*
X151336Y230065D01*
X162000Y210907D02*
X157002D01*
Y208408D01*
X157835Y207575D01*
X159501D01*
X160334Y208408D01*
Y210907D01*
Y209241D02*
X162000Y207575D01*
Y205909D02*
Y204242D01*
Y205075D01*
X157002D01*
X157835Y205909D01*
X162000Y201743D02*
Y200077D01*
Y200910D01*
X157002D01*
X157835Y201743D01*
X123002Y212950D02*
Y211284D01*
Y212117D01*
X128000D01*
Y212950D01*
Y211284D01*
X123835Y205452D02*
X123002Y206285D01*
Y207952D01*
X123835Y208785D01*
X127167D01*
X128000Y207952D01*
Y206285D01*
X127167Y205452D01*
X128000Y201287D02*
X123002D01*
X125501Y203786D01*
Y200454D01*
X138868Y228465D02*
X139701Y229298D01*
X141367D01*
X142200Y228465D01*
Y225133D01*
X141367Y224300D01*
X139701D01*
X138868Y225133D01*
X137202Y224300D02*
X135535D01*
X136369D01*
Y229298D01*
X137202Y228465D01*
X129704Y229298D02*
X131370Y228465D01*
X133036Y226799D01*
Y225133D01*
X132203Y224300D01*
X130537D01*
X129704Y225133D01*
Y225966D01*
X130537Y226799D01*
X133036D01*
X165300Y265748D02*
X163634D01*
X164467D01*
Y260750D01*
X165300D01*
X163634D01*
X157802Y264915D02*
X158636Y265748D01*
X160302D01*
X161135Y264915D01*
Y261583D01*
X160302Y260750D01*
X158636D01*
X157802Y261583D01*
X152804Y265748D02*
X156136D01*
Y263249D01*
X154470Y264082D01*
X153637D01*
X152804Y263249D01*
Y261583D01*
X153637Y260750D01*
X155303D01*
X156136Y261583D01*
X262502Y184300D02*
Y182634D01*
Y183467D01*
X267500D01*
Y184300D01*
Y182634D01*
X263335Y176802D02*
X262502Y177635D01*
Y179302D01*
X263335Y180135D01*
X266667D01*
X267500Y179302D01*
Y177635D01*
X266667Y176802D01*
X267500Y171804D02*
Y175136D01*
X264168Y171804D01*
X263335D01*
X262502Y172637D01*
Y174303D01*
X263335Y175136D01*
X137752Y145100D02*
X142750D01*
Y141768D01*
X137752Y136769D02*
Y140102D01*
X142750D01*
Y136769D01*
X140251Y140102D02*
Y138435D01*
X137752Y135103D02*
X142750D01*
Y132604D01*
X141917Y131771D01*
X138585D01*
X137752Y132604D01*
Y135103D01*
Y126773D02*
Y130105D01*
X140251D01*
X139418Y128439D01*
Y127606D01*
X140251Y126773D01*
X141917D01*
X142750Y127606D01*
Y129272D01*
X141917Y130105D01*
X209499Y163998D02*
X207833D01*
X208666D01*
Y159000D01*
X209499D01*
X207833D01*
X202002Y163165D02*
X202835Y163998D01*
X204501D01*
X205334Y163165D01*
Y159833D01*
X204501Y159000D01*
X202835D01*
X202002Y159833D01*
X200336Y163165D02*
X199503Y163998D01*
X197836D01*
X197003Y163165D01*
Y162332D01*
X197836Y161499D01*
X197003Y160666D01*
Y159833D01*
X197836Y159000D01*
X199503D01*
X200336Y159833D01*
Y160666D01*
X199503Y161499D01*
X200336Y162332D01*
Y163165D01*
X199503Y161499D02*
X197836D01*
X174168Y161365D02*
X175001Y162198D01*
X176667D01*
X177500Y161365D01*
Y158033D01*
X176667Y157200D01*
X175001D01*
X174168Y158033D01*
X169169Y157200D02*
X172502D01*
X169169Y160532D01*
Y161365D01*
X170002Y162198D01*
X171669D01*
X172502Y161365D01*
X167503Y158033D02*
X166670Y157200D01*
X165004D01*
X164171Y158033D01*
Y161365D01*
X165004Y162198D01*
X166670D01*
X167503Y161365D01*
Y160532D01*
X166670Y159699D01*
X164171D01*
X262268Y142365D02*
X263101Y143198D01*
X264767D01*
X265600Y142365D01*
Y139033D01*
X264767Y138200D01*
X263101D01*
X262268Y139033D01*
X257269Y138200D02*
X260602D01*
X257269Y141532D01*
Y142365D01*
X258102Y143198D01*
X259769D01*
X260602Y142365D01*
X255603D02*
X254770Y143198D01*
X253104D01*
X252271Y142365D01*
Y141532D01*
X253104Y140699D01*
X252271Y139866D01*
Y139033D01*
X253104Y138200D01*
X254770D01*
X255603Y139033D01*
Y139866D01*
X254770Y140699D01*
X255603Y141532D01*
Y142365D01*
X254770Y140699D02*
X253104D01*
X251868Y116665D02*
X252701Y117498D01*
X254367D01*
X255200Y116665D01*
Y113333D01*
X254367Y112500D01*
X252701D01*
X251868Y113333D01*
X246869Y112500D02*
X250202D01*
X246869Y115832D01*
Y116665D01*
X247703Y117498D01*
X249369D01*
X250202Y116665D01*
X245203Y117498D02*
X241871D01*
Y116665D01*
X245203Y113333D01*
Y112500D01*
X262251Y160065D02*
X263084Y160898D01*
X264750D01*
X265583Y160065D01*
Y156733D01*
X264750Y155900D01*
X263084D01*
X262251Y156733D01*
X257253Y155900D02*
X260585D01*
X257253Y159232D01*
Y160065D01*
X258086Y160898D01*
X259752D01*
X260585Y160065D01*
X252254Y160898D02*
X253920Y160065D01*
X255587Y158399D01*
Y156733D01*
X254753Y155900D01*
X253087D01*
X252254Y156733D01*
Y157566D01*
X253087Y158399D01*
X255587D01*
X329168Y147465D02*
X330001Y148298D01*
X331667D01*
X332500Y147465D01*
Y144133D01*
X331667Y143300D01*
X330001D01*
X329168Y144133D01*
X324169Y143300D02*
X327502D01*
X324169Y146632D01*
Y147465D01*
X325002Y148298D01*
X326669D01*
X327502Y147465D01*
X320004Y143300D02*
Y148298D01*
X322503Y145799D01*
X319171D01*
X290374Y166887D02*
X291207Y167720D01*
X292873D01*
X293706Y166887D01*
Y163555D01*
X292873Y162722D01*
X291207D01*
X290374Y163555D01*
X285376Y162722D02*
X288708D01*
X285376Y166054D01*
Y166887D01*
X286209Y167720D01*
X287875D01*
X288708Y166887D01*
X280377Y167720D02*
X283710D01*
Y165221D01*
X282043Y166054D01*
X281210D01*
X280377Y165221D01*
Y163555D01*
X281210Y162722D01*
X282876D01*
X283710Y163555D01*
D13*
X285500Y134000D02*
G03*
X285500Y134000I-500J0D01*
G01*
X186248Y161532D02*
G03*
X186248Y161532I-1250J0D01*
G01*
D14*
X291300Y140400D02*
X292300D01*
X291300Y147400D02*
X292300D01*
X286700Y159450D02*
X287700D01*
X286700Y152450D02*
X287700D01*
X438720Y163400D02*
Y164400D01*
X431720Y163400D02*
Y164400D01*
X248754Y199250D02*
X249754D01*
X248754Y206250D02*
X249754D01*
X245750Y163050D02*
X246750D01*
X245750Y170050D02*
X246750D01*
X181500Y233716D02*
Y234716D01*
X174500Y233716D02*
Y234716D01*
X183498Y155032D02*
X190249D01*
X183498Y148282D02*
Y155032D01*
X220749D02*
X227498D01*
Y148282D02*
Y155032D01*
X220749Y111032D02*
X227498D01*
Y117782D01*
X183498Y111032D02*
X190249D01*
X183498D02*
Y117782D01*
X166050Y258500D02*
X169800D01*
X148800D02*
X152550D01*
X166050Y237500D02*
X169800D01*
X148800D02*
X152550D01*
X169800Y258250D02*
Y258500D01*
Y237500D02*
Y237750D01*
X148800Y258250D02*
Y258500D01*
Y237500D02*
Y237750D01*
X316500Y255500D02*
Y262500D01*
X331500Y255500D02*
Y262500D01*
X434502Y275329D02*
X437834D01*
X439500Y273662D01*
Y266998D01*
X437834Y265332D01*
X434502D01*
X432836Y266998D01*
Y273662D01*
X434502Y275329D01*
X429503Y261999D02*
Y271996D01*
X424505D01*
X422839Y270330D01*
Y266998D01*
X424505Y265332D01*
X429503D01*
X414508D02*
X417840D01*
X419506Y266998D01*
Y270330D01*
X417840Y271996D01*
X414508D01*
X412842Y270330D01*
Y268664D01*
X419506D01*
X409510Y265332D02*
Y271996D01*
X404511D01*
X402845Y270330D01*
Y265332D01*
X399513D02*
Y271996D01*
X396181Y275329D01*
X392848Y271996D01*
Y265332D01*
Y270330D01*
X399513D01*
X389516Y275329D02*
X382852Y265332D01*
Y275329D02*
X389516Y265332D01*
X372855Y275329D02*
X379519D01*
Y265332D01*
X372855D01*
X379519Y270330D02*
X376187D01*
X362858Y273662D02*
X364524Y275329D01*
X367856D01*
X369523Y273662D01*
Y271996D01*
X367856Y270330D01*
X364524D01*
X362858Y268664D01*
Y266998D01*
X364524Y265332D01*
X367856D01*
X369523Y266998D01*
M02*
