G04*
G04 #@! TF.GenerationSoftware,Altium Limited,Altium Designer,23.6.0 (18)*
G04*
G04 Layer_Color=128*
%FSLAX44Y44*%
%MOMM*%
G71*
G04*
G04 #@! TF.SameCoordinates,CC53E28F-54C9-42A3-9587-E9B5384F7771*
G04*
G04*
G04 #@! TF.FilePolarity,Positive*
G04*
G01*
G75*
%ADD96C,0.1270*%
D96*
X273600Y263398D02*
X282600D01*
X278100Y258898D02*
Y267898D01*
X303600Y263398D02*
X312600D01*
X308100Y258898D02*
Y267898D01*
X105400Y190000D02*
X115400D01*
X110400Y185000D02*
Y195000D01*
X268600Y190000D02*
X278600D01*
X273600Y185000D02*
Y195000D01*
X273800Y204500D02*
X277800D01*
X275800Y202500D02*
Y206500D01*
X273800Y224500D02*
X277800D01*
X275800Y222500D02*
Y226500D01*
X273800Y214500D02*
X277800D01*
X275800Y212500D02*
Y216500D01*
X283800Y214500D02*
X287800D01*
X285800Y212500D02*
Y216500D01*
X283800Y224500D02*
X287800D01*
X285800Y222500D02*
Y226500D01*
X283800Y204500D02*
X287800D01*
X285800Y202500D02*
Y206500D01*
X398999Y230000D02*
X400999D01*
X399999Y229000D02*
Y231000D01*
X306499Y115000D02*
X308499D01*
X307499Y114000D02*
Y116000D01*
X426499Y225000D02*
X428499D01*
X427499Y224000D02*
Y226000D01*
X386499Y235000D02*
X388499D01*
X387499Y234000D02*
Y236000D01*
X436499Y225000D02*
X438499D01*
X437499Y224000D02*
Y226000D01*
X386499Y245000D02*
X388499D01*
X387499Y244000D02*
Y246000D01*
X381499Y255000D02*
X383499D01*
X382499Y254000D02*
Y256000D01*
X264000Y140000D02*
X266000D01*
X265000Y139000D02*
Y141000D01*
X388999Y260000D02*
X390999D01*
X389999Y259000D02*
Y261000D01*
X371499Y255000D02*
X373499D01*
X372499Y254000D02*
Y256000D01*
X391499Y225000D02*
X393499D01*
X392499Y224000D02*
Y226000D01*
X398999Y220000D02*
X400999D01*
X399999Y219000D02*
Y221000D01*
X406499Y225000D02*
X408499D01*
X407499Y224000D02*
Y226000D01*
X416499Y225000D02*
X418499D01*
X417499Y224000D02*
Y226000D01*
X337461Y267209D02*
X339461D01*
X338461Y266209D02*
Y268209D01*
X352130Y270503D02*
X354130D01*
X353130Y269503D02*
Y271503D01*
X347506Y265879D02*
X349506D01*
X348506Y264879D02*
Y266879D01*
X343071Y261071D02*
X345071D01*
X344071Y260072D02*
Y262071D01*
X342126Y254600D02*
X344126D01*
X343126Y253600D02*
Y255600D01*
X357966Y260493D02*
X359966D01*
X358966Y259493D02*
Y261493D01*
X323850Y155336D02*
X325850D01*
X324850Y154336D02*
Y156336D01*
X305900Y132200D02*
X307900D01*
X306900Y131200D02*
Y133200D01*
X310143Y127957D02*
X312143D01*
X311143Y126957D02*
Y128957D01*
X178340Y204940D02*
X180340D01*
X179340Y203940D02*
Y205940D01*
X334179Y235283D02*
X336179D01*
X335179Y234283D02*
Y236283D01*
X340179Y236009D02*
X342179D01*
X341179Y235009D02*
Y237009D01*
X277900Y180800D02*
X279900D01*
X278900Y179800D02*
Y181800D01*
X275600Y164040D02*
X277600D01*
X276600Y163040D02*
Y165040D01*
X272200Y154300D02*
X274200D01*
X273200Y153300D02*
Y155300D01*
X263500Y159100D02*
X265499D01*
X264499Y158100D02*
Y160100D01*
X284300Y191500D02*
X286300D01*
X285300Y190500D02*
Y192500D01*
X261763Y232011D02*
X263763D01*
X262763Y231011D02*
Y233011D01*
X287200Y124254D02*
X289200D01*
X288200Y123254D02*
Y125254D01*
X253583Y144382D02*
X255583D01*
X254583Y143382D02*
Y145382D01*
X320162Y131032D02*
X322162D01*
X321162Y130032D02*
Y132032D01*
X290800Y141300D02*
X292800D01*
X291800Y140300D02*
Y142300D01*
X326400Y145500D02*
X328400D01*
X327400Y144500D02*
Y146500D01*
X312260Y156350D02*
X314260D01*
X313260Y155350D02*
Y157350D01*
X295690Y164040D02*
X297690D01*
X296690Y163040D02*
Y165040D01*
X289690Y164040D02*
X291690D01*
X290690Y163040D02*
Y165040D01*
X303561Y167070D02*
X305560D01*
X304561Y166070D02*
Y168070D01*
X308410Y151690D02*
X310410D01*
X309410Y150690D02*
Y152690D01*
X356778Y147000D02*
X358778D01*
X357778Y146000D02*
Y148000D01*
X363699Y152100D02*
X365699D01*
X364699Y151100D02*
Y153100D01*
X309745Y167070D02*
X311745D01*
X310745Y166070D02*
Y168070D01*
X328564Y167072D02*
X330564D01*
X329564Y166072D02*
Y168072D01*
X324516Y225572D02*
X326516D01*
X325516Y224572D02*
Y226572D01*
X328399Y237999D02*
X330399D01*
X329399Y236999D02*
Y239000D01*
X240700Y144300D02*
X242700D01*
X241700Y143300D02*
Y145300D01*
X232261Y197260D02*
X234261D01*
X233261Y196260D02*
Y198260D01*
X256251Y213250D02*
X258251D01*
X257251Y212250D02*
Y214250D01*
X369200Y186700D02*
X371200D01*
X370200Y185700D02*
Y187700D01*
X356544Y188176D02*
X358545D01*
X357545Y187176D02*
Y189177D01*
X381500Y193500D02*
X383500D01*
X382500Y192500D02*
Y194500D01*
X369682Y176514D02*
X371682D01*
X370681Y175514D02*
Y177514D01*
X377000Y200000D02*
X379000D01*
X378000Y199000D02*
Y201000D01*
X391600Y205200D02*
X393600D01*
X392600Y204200D02*
Y206200D01*
X430100Y108500D02*
X432100D01*
X431100Y107500D02*
Y109500D01*
X423300Y108500D02*
X425300D01*
X424300Y107500D02*
Y109500D01*
X407200Y125700D02*
X409200D01*
X408200Y124700D02*
Y126700D01*
X421500Y127006D02*
X423500D01*
X422500Y126006D02*
Y128006D01*
X380300Y180500D02*
X382300D01*
X381300Y179500D02*
Y181500D01*
X383250Y200000D02*
X385250D01*
X384250Y199000D02*
Y201000D01*
X398000Y214000D02*
X400000D01*
X399000Y213000D02*
Y215000D01*
X403000Y209639D02*
X405000D01*
X404000Y208640D02*
Y210639D01*
X403180Y196304D02*
X405180D01*
X404180Y195305D02*
Y197304D01*
X407200Y188350D02*
X409200D01*
X408200Y187350D02*
Y189350D01*
X408790Y194170D02*
X410790D01*
X409790Y193170D02*
Y195170D01*
X428250Y209750D02*
X430250D01*
X429250Y208750D02*
Y210750D01*
X397750Y189250D02*
X399750D01*
X398750Y188250D02*
Y190250D01*
X380700Y174500D02*
X382700D01*
X381700Y173500D02*
Y175500D01*
X377100Y169700D02*
X379100D01*
X378100Y168700D02*
Y170700D01*
X359470Y161400D02*
X361470D01*
X360470Y160400D02*
Y162400D01*
X388650Y155690D02*
X390650D01*
X389650Y154690D02*
Y156690D01*
X353099Y155440D02*
X355099D01*
X354099Y154440D02*
Y156440D01*
X367550Y170509D02*
X369550D01*
X368550Y169510D02*
Y171509D01*
X420200Y139800D02*
X422200D01*
X421200Y138800D02*
Y140800D01*
X420200Y133500D02*
X422200D01*
X421200Y132500D02*
Y134500D01*
X400100Y133300D02*
X402100D01*
X401100Y132300D02*
Y134300D01*
X399280Y125500D02*
X401280D01*
X400280Y124500D02*
Y126500D01*
X401800Y141600D02*
X403800D01*
X402800Y140600D02*
Y142600D01*
X420100Y149700D02*
X422100D01*
X421100Y148700D02*
Y150700D01*
X423600Y165500D02*
X425600D01*
X424600Y164500D02*
Y166500D01*
X417000Y156100D02*
X419000D01*
X418000Y155100D02*
Y157100D01*
X349545Y167070D02*
X351545D01*
X350545Y166070D02*
Y168070D01*
X333834Y157059D02*
X335834D01*
X334834Y156059D02*
Y158059D01*
X261220Y189120D02*
X263220D01*
X262220Y188120D02*
Y190120D01*
X245250Y164310D02*
X247250D01*
X246250Y163310D02*
Y165310D01*
X433690Y187130D02*
X435690D01*
X434690Y186130D02*
Y188130D01*
X318868Y234898D02*
X320868D01*
X319868Y233898D02*
Y235898D01*
X297000Y240500D02*
X299000D01*
X298000Y239500D02*
Y241500D01*
X207749Y160350D02*
X209748D01*
X208748Y159350D02*
Y161350D01*
X201250Y160250D02*
X203250D01*
X202250Y159250D02*
Y161250D01*
X420500Y181250D02*
X422500D01*
X421500Y180250D02*
Y182250D01*
X315170Y256900D02*
X317170D01*
X316170Y255900D02*
Y257900D01*
X434220Y178820D02*
X436220D01*
X435220Y177820D02*
Y179820D01*
X395430Y148430D02*
X397430D01*
X396430Y147430D02*
Y149430D01*
X334840Y150890D02*
X336840D01*
X335840Y149890D02*
Y151890D01*
X360822Y228522D02*
X362822D01*
X361822Y227522D02*
Y229522D01*
X412250Y205750D02*
X414250D01*
X413250Y204750D02*
Y206750D01*
X437900Y201000D02*
X439900D01*
X438900Y200000D02*
Y202000D01*
X428270Y189890D02*
X430270D01*
X429270Y188890D02*
Y190890D01*
X237851Y263010D02*
X239851D01*
X238851Y262010D02*
Y264010D01*
X211800Y267500D02*
X213800D01*
X212800Y266500D02*
Y268500D01*
X211900Y261500D02*
X213900D01*
X212900Y260500D02*
Y262500D01*
X177255Y198731D02*
X179255D01*
X178255Y197731D02*
Y199731D01*
X156680Y170260D02*
X158680D01*
X157680Y169260D02*
Y171260D01*
X137530Y193710D02*
X139530D01*
X138530Y192710D02*
Y194710D01*
X214249Y106490D02*
X216248D01*
X215249Y105490D02*
Y107490D01*
X413740Y181150D02*
X415740D01*
X414740Y180150D02*
Y182150D01*
X337750Y125000D02*
X339750D01*
X338750Y124000D02*
Y126000D01*
X167600Y127900D02*
X169600D01*
X168600Y126900D02*
Y128900D01*
X152646Y128100D02*
X154646D01*
X153645Y127100D02*
Y129100D01*
X167450Y136550D02*
X169450D01*
X168450Y135550D02*
Y137550D01*
X361720Y255436D02*
X363720D01*
X362720Y254436D02*
Y256437D01*
X361720Y249436D02*
X363720D01*
X362720Y248437D02*
Y250436D01*
X361900Y243437D02*
X363900D01*
X362900Y242437D02*
Y244436D01*
X190750Y146000D02*
X192750D01*
X191750Y145000D02*
Y147000D01*
X303795Y188287D02*
X305795D01*
X304795Y187287D02*
Y189287D01*
X303795Y204357D02*
X305795D01*
X304795Y203357D02*
Y205357D01*
X319009Y173072D02*
X321009D01*
X320009Y172072D02*
Y174072D01*
X319009Y188287D02*
X321009D01*
X320009Y187287D02*
Y189287D01*
X319009Y204357D02*
X321009D01*
X320009Y203357D02*
Y205357D01*
X319009Y219572D02*
X321009D01*
X320009Y218572D02*
Y220572D01*
X335080Y173072D02*
X337080D01*
X336080Y172072D02*
Y174072D01*
X335080Y188287D02*
X337080D01*
X336080Y187287D02*
Y189287D01*
X335080Y204357D02*
X337080D01*
X336080Y203357D02*
Y205357D01*
X335080Y219572D02*
X337080D01*
X336080Y218572D02*
Y220572D01*
X350294Y188287D02*
X352295D01*
X351295Y187287D02*
Y189287D01*
X350294Y204357D02*
X352295D01*
X351295Y203357D02*
Y205357D01*
X204499Y125533D02*
X206499D01*
X205499Y124533D02*
Y126533D01*
X204499Y140533D02*
X206499D01*
X205499Y139533D02*
Y141533D01*
X196999Y133033D02*
X198999D01*
X197999Y132033D02*
Y134033D01*
X211999Y133033D02*
X213999D01*
X212999Y132033D02*
Y134033D01*
X291300Y233750D02*
X293300D01*
X292300Y232750D02*
Y234750D01*
X409220Y105779D02*
X411220D01*
X410220Y104779D02*
Y106779D01*
X236500Y108000D02*
X238500D01*
X237500Y107000D02*
Y109000D01*
X236500Y116750D02*
X238500D01*
X237500Y115750D02*
Y117750D01*
X218750Y177840D02*
X220750D01*
X219750Y176840D02*
Y178840D01*
X214150Y182670D02*
X216150D01*
X215150Y181670D02*
Y183670D01*
X218750Y187500D02*
X220750D01*
X219750Y186500D02*
Y188500D01*
X174250Y145500D02*
X176250D01*
X175250Y144500D02*
Y146500D01*
X165249Y145500D02*
X167248D01*
X166248Y144500D02*
Y146500D01*
X273400Y233750D02*
X275400D01*
X274400Y232750D02*
Y234750D01*
X401000Y155000D02*
X403000D01*
X402000Y154000D02*
Y156000D01*
X255250Y264750D02*
X257250D01*
X256250Y263750D02*
Y265750D01*
X261763Y238262D02*
X263763D01*
X262763Y237262D02*
Y239262D01*
X224000Y191250D02*
X226000D01*
X225000Y190250D02*
Y192250D01*
X244782Y238262D02*
X246782D01*
X245782Y237262D02*
Y239262D01*
X244782Y232011D02*
X246782D01*
X245782Y231011D02*
Y233011D01*
X292750Y273250D02*
X294750D01*
X293750Y272250D02*
Y274250D01*
X218750Y234500D02*
X220750D01*
X219750Y233500D02*
Y235500D01*
X223500Y229960D02*
X225500D01*
X224500Y228960D02*
Y230960D01*
X194250Y229960D02*
X196250D01*
X195250Y228960D02*
Y230960D01*
X188400Y234500D02*
X190400D01*
X189400Y233500D02*
Y235500D01*
X297000Y254500D02*
X299000D01*
X298000Y253500D02*
Y255500D01*
X322250Y261000D02*
X324250D01*
X323250Y260000D02*
Y262000D01*
X290750Y254500D02*
X292750D01*
X291750Y253500D02*
Y255500D01*
X297000Y247500D02*
X299000D01*
X298000Y246500D02*
Y248500D01*
X290750Y247500D02*
X292750D01*
X291750Y246500D02*
Y248500D01*
X290750Y240500D02*
X292750D01*
X291750Y239500D02*
Y241500D01*
X184750Y248750D02*
X186750D01*
X185750Y247750D02*
Y249750D01*
X184750Y255000D02*
X186750D01*
X185750Y254000D02*
Y256000D01*
X203750Y213250D02*
X205750D01*
X204750Y212250D02*
Y214250D01*
X207749Y118690D02*
X209748D01*
X208748Y117690D02*
Y119690D01*
M02*
