G04*
G04 #@! TF.GenerationSoftware,Altium Limited,Altium Designer,23.6.0 (18)*
G04*
G04 Layer_Color=2752767*
%FSLAX44Y44*%
%MOMM*%
G71*
G04*
G04 #@! TF.SameCoordinates,CC53E28F-54C9-42A3-9587-E9B5384F7771*
G04*
G04*
G04 #@! TF.FilePolarity,Positive*
G04*
G01*
G75*
%ADD95C,0.1693*%
%ADD96C,0.1270*%
D95*
X283180Y263398D02*
G03*
X283180Y263398I-5080J0D01*
G01*
X313180D02*
G03*
X313180Y263398I-5080J0D01*
G01*
D96*
X105320Y184920D02*
X107860Y190000D01*
X105320Y195080D01*
X110400Y192540D01*
X115480Y195080D01*
X112940Y190000D01*
X115480Y184920D01*
X110400Y187460D01*
X105320Y184920D01*
X268520D02*
X271060Y190000D01*
X268520Y195080D01*
X273600Y192540D01*
X278680Y195080D01*
X276140Y190000D01*
X278680Y184920D01*
X273600Y187460D01*
X268520Y184920D01*
X275800Y199420D02*
X270720Y209580D01*
X280880D01*
X275800Y199420D01*
Y219420D02*
X270720Y229580D01*
X280880D01*
X275800Y219420D01*
Y209420D02*
X270720Y219580D01*
X280880D01*
X275800Y209420D01*
X285800D02*
X280720Y219580D01*
X290880D01*
X285800Y209420D01*
Y219420D02*
X280720Y229580D01*
X290880D01*
X285800Y219420D01*
Y199420D02*
X280720Y209580D01*
X290880D01*
X285800Y199420D01*
X394919Y224919D02*
Y235079D01*
X405079D01*
Y224919D01*
X394919D01*
X302419Y109920D02*
Y120080D01*
X312579D01*
Y109920D01*
X302419D01*
X422419Y219919D02*
Y230079D01*
X432579D01*
Y219919D01*
X422419D01*
X382419Y229919D02*
Y240079D01*
X392579D01*
Y229919D01*
X382419D01*
X432419Y219919D02*
Y230079D01*
X442579D01*
Y219919D01*
X432419D01*
X382419Y239919D02*
Y250079D01*
X392579D01*
Y239919D01*
X382419D01*
X377419Y249919D02*
Y260079D01*
X387579D01*
Y249919D01*
X377419D01*
X259919Y134920D02*
Y145080D01*
X270079D01*
Y134920D01*
X259919D01*
X384919Y254919D02*
Y265079D01*
X395079D01*
Y254919D01*
X384919D01*
X367419Y249919D02*
Y260079D01*
X377579D01*
Y249919D01*
X367419D01*
X387419Y219919D02*
Y230079D01*
X397579D01*
Y219919D01*
X387419D01*
X394919Y214920D02*
Y225080D01*
X405079D01*
Y214920D01*
X394919D01*
X402419Y219919D02*
Y230079D01*
X412579D01*
Y219919D01*
X402419D01*
X412419D02*
Y230079D01*
X422579D01*
Y219919D01*
X412419D01*
X333381Y262129D02*
Y272289D01*
X343541D01*
Y262129D01*
X333381D01*
X348050Y265423D02*
Y275583D01*
X358210D01*
Y265423D01*
X348050D01*
X343426Y260799D02*
Y270959D01*
X353586D01*
Y260799D01*
X343426D01*
X338991Y255991D02*
Y266152D01*
X349151D01*
Y255991D01*
X338991D01*
X338046Y249520D02*
Y259680D01*
X348206D01*
Y249520D01*
X338046D01*
X353886Y255413D02*
Y265573D01*
X364046D01*
Y255413D01*
X353886D01*
X319770Y150256D02*
Y160416D01*
X329930D01*
Y150256D01*
X319770D01*
X301820Y127120D02*
Y137280D01*
X311980D01*
Y127120D01*
X301820D01*
X306063Y122877D02*
Y133037D01*
X316223D01*
Y122877D01*
X306063D01*
X174260Y199860D02*
Y210020D01*
X184420D01*
Y199860D01*
X174260D01*
X330099Y230203D02*
Y240363D01*
X340259D01*
Y230203D01*
X330099D01*
X336099Y230929D02*
Y241089D01*
X346259D01*
Y230929D01*
X336099D01*
X273820Y175720D02*
Y185880D01*
X283980D01*
Y175720D01*
X273820D01*
X271520Y158960D02*
Y169120D01*
X281680D01*
Y158960D01*
X271520D01*
X268120Y149220D02*
Y159380D01*
X278280D01*
Y149220D01*
X268120D01*
X259419Y154020D02*
Y164180D01*
X269580D01*
Y154020D01*
X259419D01*
X280220Y186420D02*
Y196580D01*
X290380D01*
Y186420D01*
X280220D01*
X257683Y226931D02*
Y237091D01*
X267843D01*
Y226931D01*
X257683D01*
X283120Y119174D02*
Y129334D01*
X293280D01*
Y119174D01*
X283120D01*
X249503Y139302D02*
Y149462D01*
X259663D01*
Y139302D01*
X249503D01*
X316082Y125952D02*
Y136112D01*
X326242D01*
Y125952D01*
X316082D01*
X286720Y136220D02*
Y146380D01*
X296880D01*
Y136220D01*
X286720D01*
X322320Y140420D02*
Y150580D01*
X332480D01*
Y140420D01*
X322320D01*
X308180Y151270D02*
Y161430D01*
X318340D01*
Y151270D01*
X308180D01*
X291610Y158960D02*
Y169120D01*
X301770D01*
Y158960D01*
X291610D01*
X285610D02*
Y169120D01*
X295770D01*
Y158960D01*
X285610D01*
X299480Y161990D02*
Y172150D01*
X309641D01*
Y161990D01*
X299480D01*
X304330Y146610D02*
Y156770D01*
X314490D01*
Y146610D01*
X304330D01*
X352698Y141920D02*
Y152080D01*
X362858D01*
Y141920D01*
X352698D01*
X359619Y147020D02*
Y157180D01*
X369779D01*
Y147020D01*
X359619D01*
X305665Y161990D02*
Y172150D01*
X315825D01*
Y161990D01*
X305665D01*
X324484Y161992D02*
Y172152D01*
X334644D01*
Y161992D01*
X324484D01*
X320436Y220492D02*
Y230652D01*
X330596D01*
Y220492D01*
X320436D01*
X324319Y232920D02*
Y243079D01*
X334479D01*
Y232920D01*
X324319D01*
X236620Y139220D02*
Y149380D01*
X246780D01*
Y139220D01*
X236620D01*
X228181Y192180D02*
Y202340D01*
X238341D01*
Y192180D01*
X228181D01*
X252171Y208170D02*
Y218330D01*
X262331D01*
Y208170D01*
X252171D01*
X365120Y181620D02*
Y191780D01*
X375280D01*
Y181620D01*
X365120D01*
X352464Y183097D02*
Y193256D01*
X362625D01*
Y183097D01*
X352464D01*
X377420Y188420D02*
Y198580D01*
X387580D01*
Y188420D01*
X377420D01*
X365602Y171434D02*
Y181594D01*
X375761D01*
Y171434D01*
X365602D01*
X372920Y194920D02*
Y205080D01*
X383080D01*
Y194920D01*
X372920D01*
X387520Y200120D02*
Y210280D01*
X397680D01*
Y200120D01*
X387520D01*
X426020Y103420D02*
Y113580D01*
X436180D01*
Y103420D01*
X426020D01*
X419220D02*
Y113580D01*
X429380D01*
Y103420D01*
X419220D01*
X403120Y120620D02*
Y130780D01*
X413280D01*
Y120620D01*
X403120D01*
X417420Y121926D02*
Y132086D01*
X427580D01*
Y121926D01*
X417420D01*
X376220Y175420D02*
Y185580D01*
X386380D01*
Y175420D01*
X376220D01*
X379170Y194920D02*
Y205080D01*
X389330D01*
Y194920D01*
X379170D01*
X393920Y208920D02*
Y219080D01*
X404080D01*
Y208920D01*
X393920D01*
X398920Y204559D02*
Y214720D01*
X409080D01*
Y204559D01*
X398920D01*
X399100Y191224D02*
Y201385D01*
X409260D01*
Y191224D01*
X399100D01*
X403120Y183270D02*
Y193430D01*
X413280D01*
Y183270D01*
X403120D01*
X404710Y189090D02*
Y199250D01*
X414870D01*
Y189090D01*
X404710D01*
X424170Y204670D02*
Y214830D01*
X434330D01*
Y204670D01*
X424170D01*
X393670Y184170D02*
Y194330D01*
X403830D01*
Y184170D01*
X393670D01*
X376620Y169420D02*
Y179580D01*
X386780D01*
Y169420D01*
X376620D01*
X373020Y164620D02*
Y174780D01*
X383180D01*
Y164620D01*
X373020D01*
X355390Y156320D02*
Y166480D01*
X365550D01*
Y156320D01*
X355390D01*
X384570Y150610D02*
Y160770D01*
X394730D01*
Y150610D01*
X384570D01*
X349019Y150360D02*
Y160520D01*
X359179D01*
Y150360D01*
X349019D01*
X363470Y165429D02*
Y175590D01*
X373630D01*
Y165429D01*
X363470D01*
X416120Y134720D02*
Y144880D01*
X426280D01*
Y134720D01*
X416120D01*
Y128420D02*
Y138580D01*
X426280D01*
Y128420D01*
X416120D01*
X396020Y128220D02*
Y138380D01*
X406180D01*
Y128220D01*
X396020D01*
X395200Y120420D02*
Y130580D01*
X405360D01*
Y120420D01*
X395200D01*
X397720Y136520D02*
Y146680D01*
X407880D01*
Y136520D01*
X397720D01*
X416020Y144620D02*
Y154780D01*
X426180D01*
Y144620D01*
X416020D01*
X419520Y160420D02*
Y170580D01*
X429680D01*
Y160420D01*
X419520D01*
X412920Y151020D02*
Y161180D01*
X423080D01*
Y151020D01*
X412920D01*
X345465Y161990D02*
Y172150D01*
X355625D01*
Y161990D01*
X345465D01*
X329754Y151979D02*
Y162139D01*
X339914D01*
Y151979D01*
X329754D01*
X257140Y184040D02*
Y194200D01*
X267300D01*
Y184040D01*
X257140D01*
X241170Y159230D02*
Y169390D01*
X251330D01*
Y159230D01*
X241170D01*
X429610Y182050D02*
Y192210D01*
X439770D01*
Y182050D01*
X429610D01*
X314788Y229818D02*
Y239978D01*
X324948D01*
Y229818D01*
X314788D01*
X292920Y235420D02*
Y245580D01*
X303080D01*
Y235420D01*
X292920D01*
X203668Y155270D02*
Y165430D01*
X213829D01*
Y155270D01*
X203668D01*
X197170Y155170D02*
Y165330D01*
X207330D01*
Y155170D01*
X197170D01*
X416420Y176170D02*
Y186330D01*
X426580D01*
Y176170D01*
X416420D01*
X311090Y251820D02*
Y261980D01*
X321250D01*
Y251820D01*
X311090D01*
X430140Y173740D02*
Y183900D01*
X440300D01*
Y173740D01*
X430140D01*
X391350Y143350D02*
Y153510D01*
X401510D01*
Y143350D01*
X391350D01*
X330760Y145810D02*
Y155970D01*
X340920D01*
Y145810D01*
X330760D01*
X356742Y223442D02*
Y233602D01*
X366902D01*
Y223442D01*
X356742D01*
X408170Y200670D02*
Y210830D01*
X418330D01*
Y200670D01*
X408170D01*
X433820Y195920D02*
Y206080D01*
X443980D01*
Y195920D01*
X433820D01*
X424190Y184810D02*
Y194970D01*
X434350D01*
Y184810D01*
X424190D01*
X233771Y257930D02*
Y268090D01*
X243931D01*
Y257930D01*
X233771D01*
X207720Y262420D02*
Y272580D01*
X217880D01*
Y262420D01*
X207720D01*
X207820Y256420D02*
Y266580D01*
X217980D01*
Y256420D01*
X207820D01*
X173175Y193651D02*
Y203811D01*
X183335D01*
Y193651D01*
X173175D01*
X152600Y165180D02*
Y175340D01*
X162760D01*
Y165180D01*
X152600D01*
X133450Y188630D02*
Y198790D01*
X143610D01*
Y188630D01*
X133450D01*
X210168Y101410D02*
Y111570D01*
X220329D01*
Y101410D01*
X210168D01*
X409660Y176070D02*
Y186230D01*
X419820D01*
Y176070D01*
X409660D01*
X333670Y119920D02*
Y130080D01*
X343830D01*
Y119920D01*
X333670D01*
X163520Y122820D02*
Y132980D01*
X173680D01*
Y122820D01*
X163520D01*
X148566Y123020D02*
Y133180D01*
X158726D01*
Y123020D01*
X148566D01*
X163370Y131470D02*
Y141630D01*
X173530D01*
Y131470D01*
X163370D01*
X357640Y250357D02*
Y260516D01*
X367800D01*
Y250357D01*
X357640D01*
Y244356D02*
Y254517D01*
X367800D01*
Y244356D01*
X357640D01*
X357820Y238356D02*
Y248517D01*
X367980D01*
Y238356D01*
X357820D01*
X186670Y140920D02*
Y151080D01*
X196830D01*
Y140920D01*
X186670D01*
X299715Y183207D02*
Y193367D01*
X309875D01*
Y183207D01*
X299715D01*
Y199277D02*
Y209437D01*
X309875D01*
Y199277D01*
X299715D01*
X314930Y167992D02*
Y178152D01*
X325089D01*
Y167992D01*
X314930D01*
Y183207D02*
Y193367D01*
X325089D01*
Y183207D01*
X314930D01*
Y199277D02*
Y209437D01*
X325089D01*
Y199277D01*
X314930D01*
Y214492D02*
Y224652D01*
X325089D01*
Y214492D01*
X314930D01*
X331000Y167992D02*
Y178152D01*
X341160D01*
Y167992D01*
X331000D01*
Y183207D02*
Y193367D01*
X341160D01*
Y183207D01*
X331000D01*
Y199277D02*
Y209437D01*
X341160D01*
Y199277D01*
X331000D01*
Y214492D02*
Y224652D01*
X341160D01*
Y214492D01*
X331000D01*
X346214Y183207D02*
Y193367D01*
X356375D01*
Y183207D01*
X346214D01*
Y199277D02*
Y209437D01*
X356375D01*
Y199277D01*
X346214D01*
X200419Y120453D02*
Y130613D01*
X210579D01*
Y120453D01*
X200419D01*
Y135453D02*
Y145613D01*
X210579D01*
Y135453D01*
X200419D01*
X192919Y127953D02*
Y138113D01*
X203079D01*
Y127953D01*
X192919D01*
X207919D02*
Y138113D01*
X218079D01*
Y127953D01*
X207919D01*
X287220Y228670D02*
Y238830D01*
X297380D01*
Y228670D01*
X287220D01*
X405140Y100699D02*
Y110859D01*
X415300D01*
Y100699D01*
X405140D01*
X232420Y102920D02*
Y113080D01*
X242580D01*
Y102920D01*
X232420D01*
Y111670D02*
Y121830D01*
X242580D01*
Y111670D01*
X232420D01*
X214670Y172760D02*
Y182920D01*
X224830D01*
Y172760D01*
X214670D01*
X210070Y177590D02*
Y187750D01*
X220230D01*
Y177590D01*
X210070D01*
X214670Y182420D02*
Y192580D01*
X224830D01*
Y182420D01*
X214670D01*
X170170Y140420D02*
Y150580D01*
X180330D01*
Y140420D01*
X170170D01*
X161168D02*
Y150580D01*
X171329D01*
Y140420D01*
X161168D01*
X269320Y228670D02*
Y238830D01*
X279480D01*
Y228670D01*
X269320D01*
X396920Y149920D02*
Y160080D01*
X407080D01*
Y149920D01*
X396920D01*
X251170Y259670D02*
Y269830D01*
X261330D01*
Y259670D01*
X251170D01*
X257683Y233182D02*
Y243342D01*
X267843D01*
Y233182D01*
X257683D01*
X219920Y186170D02*
Y196330D01*
X230080D01*
Y186170D01*
X219920D01*
X240702Y233182D02*
Y243342D01*
X250862D01*
Y233182D01*
X240702D01*
Y226931D02*
Y237091D01*
X250862D01*
Y226931D01*
X240702D01*
X288670Y268170D02*
Y278330D01*
X298830D01*
Y268170D01*
X288670D01*
X214670Y229420D02*
Y239580D01*
X224830D01*
Y229420D01*
X214670D01*
X219420Y224880D02*
Y235040D01*
X229580D01*
Y224880D01*
X219420D01*
X190170D02*
Y235040D01*
X200330D01*
Y224880D01*
X190170D01*
X184320Y229420D02*
Y239580D01*
X194480D01*
Y229420D01*
X184320D01*
X292920Y249420D02*
Y259580D01*
X303080D01*
Y249420D01*
X292920D01*
X318170Y255920D02*
Y266080D01*
X328330D01*
Y255920D01*
X318170D01*
X286670Y249420D02*
Y259580D01*
X296830D01*
Y249420D01*
X286670D01*
X292920Y242420D02*
Y252580D01*
X303080D01*
Y242420D01*
X292920D01*
X286670D02*
Y252580D01*
X296830D01*
Y242420D01*
X286670D01*
Y235420D02*
Y245580D01*
X296830D01*
Y235420D01*
X286670D01*
X180670Y243670D02*
Y253830D01*
X190830D01*
Y243670D01*
X180670D01*
Y249920D02*
Y260080D01*
X190830D01*
Y249920D01*
X180670D01*
X199670Y208170D02*
Y218330D01*
X209830D01*
Y208170D01*
X199670D01*
X203668Y113610D02*
Y123770D01*
X213829D01*
Y113610D01*
X203668D01*
M02*
