G04*
G04 #@! TF.GenerationSoftware,Altium Limited,Altium Designer,23.6.0 (18)*
G04*
G04 Layer_Physical_Order=1*
G04 Layer_Color=255*
%FSLAX44Y44*%
%MOMM*%
G71*
G04*
G04 #@! TF.SameCoordinates,CC53E28F-54C9-42A3-9587-E9B5384F7771*
G04*
G04*
G04 #@! TF.FilePolarity,Positive*
G04*
G01*
G75*
%ADD11C,0.1500*%
%ADD12C,0.2540*%
%ADD19R,0.7000X1.5000*%
%ADD20R,1.0000X0.8000*%
%ADD21R,1.0000X0.6000*%
%ADD22R,1.3500X0.9500*%
%ADD23R,0.5200X0.5200*%
%ADD24R,0.5200X0.5200*%
%ADD25R,0.4500X0.7200*%
%ADD26R,0.4500X0.5500*%
%ADD27R,0.4000X1.3500*%
%ADD28R,1.2000X1.9000*%
%ADD29R,1.6000X1.9000*%
%ADD30R,2.1000X2.0000*%
%ADD31C,0.2200*%
G04:AMPARAMS|DCode=32|XSize=0.24mm|YSize=0.6mm|CornerRadius=0.0504mm|HoleSize=0mm|Usage=FLASHONLY|Rotation=0.000|XOffset=0mm|YOffset=0mm|HoleType=Round|Shape=RoundedRectangle|*
%AMROUNDEDRECTD32*
21,1,0.2400,0.4992,0,0,0.0*
21,1,0.1392,0.6000,0,0,0.0*
1,1,0.1008,0.0696,-0.2496*
1,1,0.1008,-0.0696,-0.2496*
1,1,0.1008,-0.0696,0.2496*
1,1,0.1008,0.0696,0.2496*
%
%ADD32ROUNDEDRECTD32*%
%ADD33R,0.4500X0.2500*%
G04:AMPARAMS|DCode=34|XSize=0.24mm|YSize=0.6mm|CornerRadius=0.0504mm|HoleSize=0mm|Usage=FLASHONLY|Rotation=270.000|XOffset=0mm|YOffset=0mm|HoleType=Round|Shape=RoundedRectangle|*
%AMROUNDEDRECTD34*
21,1,0.2400,0.4992,0,0,270.0*
21,1,0.1392,0.6000,0,0,270.0*
1,1,0.1008,-0.2496,-0.0696*
1,1,0.1008,-0.2496,0.0696*
1,1,0.1008,0.2496,0.0696*
1,1,0.1008,0.2496,-0.0696*
%
%ADD34ROUNDEDRECTD34*%
%ADD35R,0.8700X0.8700*%
%ADD36R,0.5000X0.6000*%
%ADD37R,0.7300X0.7400*%
%ADD38R,0.7500X0.8500*%
%ADD39R,0.7200X0.7200*%
%ADD40R,0.6750X0.2500*%
%ADD41R,0.2500X0.6750*%
%ADD42R,1.8000X0.6800*%
%ADD43R,0.6800X1.8000*%
%ADD44R,0.6200X0.6200*%
%ADD45R,0.6000X0.5000*%
G04:AMPARAMS|DCode=46|XSize=5.15mm|YSize=5.15mm|CornerRadius=0.0515mm|HoleSize=0mm|Usage=FLASHONLY|Rotation=270.000|XOffset=0mm|YOffset=0mm|HoleType=Round|Shape=RoundedRectangle|*
%AMROUNDEDRECTD46*
21,1,5.1500,5.0470,0,0,270.0*
21,1,5.0470,5.1500,0,0,270.0*
1,1,0.1030,-2.5235,-2.5235*
1,1,0.1030,-2.5235,2.5235*
1,1,0.1030,2.5235,2.5235*
1,1,0.1030,2.5235,-2.5235*
%
%ADD46ROUNDEDRECTD46*%
%ADD48C,1.3500*%
%ADD49C,0.6500*%
%ADD50C,0.2809*%
%ADD51C,0.5000*%
%ADD52C,0.3989*%
%ADD53C,0.4000*%
%ADD54C,0.5000*%
G36*
X381691Y276370D02*
X380921Y275100D01*
X375200D01*
Y273463D01*
X372887D01*
Y275000D01*
X362687D01*
Y273532D01*
X360480D01*
X360332Y273471D01*
X360174Y273502D01*
X359396Y273347D01*
X359247Y273248D01*
X359117Y273222D01*
X359006Y273148D01*
X358830Y273113D01*
X358171Y272672D01*
X358081Y272539D01*
X357933Y272477D01*
X346410Y260955D01*
X346349Y260806D01*
X346215Y260717D01*
X345774Y260057D01*
X345739Y259881D01*
X345666Y259771D01*
X345640Y259641D01*
X345540Y259492D01*
X345385Y258714D01*
X345417Y258556D01*
X345355Y258407D01*
Y257187D01*
X345195D01*
Y255852D01*
X345126Y255686D01*
Y253186D01*
X345195Y253021D01*
Y245852D01*
X345126Y245686D01*
Y243186D01*
X345028Y242955D01*
X343925Y242518D01*
X339457Y246986D01*
Y257017D01*
X339282Y257895D01*
X338785Y258639D01*
X334802Y262622D01*
X334058Y263119D01*
X333489Y264527D01*
X333607Y264766D01*
X333916Y265677D01*
X333916Y265677D01*
X333916Y265678D01*
X334440Y266462D01*
X334450Y266477D01*
X334875Y267339D01*
X334876Y267339D01*
X335100Y267676D01*
X335316Y267999D01*
X335316Y267999D01*
X335316Y267999D01*
X335951Y268722D01*
X336068Y268898D01*
X336100D01*
Y268946D01*
X336485Y269522D01*
X336848Y269841D01*
X337142Y270223D01*
X343350Y276432D01*
X381659Y276432D01*
X381691Y276370D01*
D02*
G37*
G36*
X250100Y256941D02*
Y246898D01*
X263100D01*
Y256030D01*
X263998Y256928D01*
X274100Y256919D01*
Y238400D01*
X266304D01*
X266060Y239627D01*
X265286Y240785D01*
X264128Y241558D01*
X262763Y241830D01*
X261397Y241558D01*
X260240Y240785D01*
X259466Y239627D01*
X259222Y238400D01*
X249323Y238400D01*
X249079Y239627D01*
X248305Y240785D01*
X247148Y241558D01*
X245782Y241830D01*
X244416Y241558D01*
X243259Y240785D01*
X242485Y239627D01*
X242241Y238400D01*
X182700Y238400D01*
Y256104D01*
X183598Y257001D01*
X250100Y256941D01*
D02*
G37*
G36*
X302250Y257495D02*
X302250Y237250D01*
X292645D01*
X292300Y237319D01*
X291150Y237850D01*
Y237850D01*
X279962D01*
X279962Y256078D01*
X280058Y256091D01*
X281882Y256847D01*
X283449Y258049D01*
X283987Y258750D01*
X301000Y258750D01*
X302250Y257495D01*
D02*
G37*
G36*
X362687Y264800D02*
X371387D01*
Y262500D01*
X394250D01*
X394250Y236250D01*
X441432D01*
Y217500D01*
X399345Y217500D01*
X399000Y217569D01*
X398655Y217500D01*
X379750D01*
Y226500D01*
X383250D01*
Y239000D01*
X366750D01*
Y230681D01*
X366277Y230164D01*
X365552Y229797D01*
X365019Y230037D01*
X364346Y231045D01*
X363188Y231819D01*
X361822Y232091D01*
X360457Y231819D01*
X359554Y231216D01*
X358644Y231519D01*
X358284Y231778D01*
Y232818D01*
X358128Y233600D01*
X357839Y234034D01*
Y238548D01*
X358767Y239476D01*
X358767Y239476D01*
X359264Y240220D01*
X359439Y241098D01*
X360457Y241686D01*
X360895D01*
Y247187D01*
X353395D01*
X352800Y248210D01*
Y257155D01*
X360695Y265050D01*
X362687D01*
Y264800D01*
D02*
G37*
G36*
X351234Y138922D02*
X351409Y138044D01*
X351906Y137300D01*
X357750Y131456D01*
Y103568D01*
X340430D01*
X340430Y114000D01*
X340396Y114174D01*
X340413Y114350D01*
X340317Y115325D01*
X340165Y115827D01*
X340063Y116341D01*
X339316Y118143D01*
X338543Y119301D01*
X337163Y120681D01*
X336005Y121454D01*
X334203Y122201D01*
X333689Y122303D01*
X333187Y122455D01*
X332212Y122551D01*
X331862Y122517D01*
X331512Y122551D01*
X330537Y122455D01*
X330035Y122303D01*
X329521Y122201D01*
X327719Y121454D01*
X326561Y120681D01*
X325181Y119301D01*
X324408Y118143D01*
X323661Y116341D01*
X323559Y115827D01*
X323407Y115325D01*
X323311Y114350D01*
X323328Y114174D01*
X323293Y114000D01*
Y103568D01*
X293030D01*
Y114000D01*
X292996Y114174D01*
X293013Y114350D01*
X292917Y115325D01*
X292765Y115827D01*
X292663Y116341D01*
X291916Y118143D01*
X291143Y119301D01*
X289763Y120681D01*
X288605Y121454D01*
X286803Y122201D01*
X286289Y122303D01*
X285787Y122455D01*
X284812Y122551D01*
X284462Y122517D01*
X284112Y122551D01*
X283137Y122455D01*
X282635Y122303D01*
X282121Y122201D01*
X280319Y121454D01*
X279161Y120681D01*
X277781Y119301D01*
X277008Y118143D01*
X276261Y116341D01*
X276159Y115827D01*
X276007Y115325D01*
X275911Y114350D01*
X275928Y114174D01*
X275893Y114000D01*
Y103568D01*
X259000D01*
Y148250D01*
X266500D01*
X296776Y148250D01*
X297024Y148201D01*
X298118Y147107D01*
Y142625D01*
X298162Y142404D01*
Y133125D01*
X302572D01*
X303331Y132200D01*
X303603Y130834D01*
X304377Y129677D01*
X305534Y128903D01*
X306900Y128631D01*
X307574Y127957D01*
X307846Y126592D01*
X308619Y125434D01*
X309777Y124660D01*
X311143Y124389D01*
X312508Y124660D01*
X313666Y125434D01*
X314440Y126592D01*
X314637Y127586D01*
X316161Y129109D01*
X316193Y129157D01*
X316415Y129216D01*
X317662Y129071D01*
X318278Y128148D01*
X319601Y127264D01*
X321162Y126954D01*
X322723Y127264D01*
X324046Y128148D01*
X324930Y129471D01*
X325240Y131032D01*
Y141307D01*
X324930Y142868D01*
X324662Y143269D01*
Y148250D01*
X351234Y148250D01*
Y138922D01*
D02*
G37*
D11*
X178255Y198731D02*
X214873D01*
X325516Y225572D02*
X325530Y225587D01*
Y230308D01*
X325545Y230322D01*
X335179Y235283D02*
X335362Y235100D01*
X337163Y246036D02*
X345545Y237654D01*
X337163Y246036D02*
Y257017D01*
X340862Y235692D02*
X341179Y236009D01*
X350545Y230322D02*
Y239500D01*
X357545Y188176D02*
X357867Y188499D01*
X361722D01*
X362045Y188822D01*
X300412Y142625D02*
X301662Y141375D01*
X298094Y150375D02*
X300412Y148057D01*
Y142625D02*
Y148057D01*
X297625Y150375D02*
X298094D01*
X294000Y154000D02*
X297625Y150375D01*
X294000Y154000D02*
Y154500D01*
X304500Y156350D02*
X313260D01*
X303000Y154850D02*
X304500Y156350D01*
X303000Y154500D02*
Y154850D01*
X293672Y173450D02*
X294044Y173822D01*
X285500Y171100D02*
X287850Y173450D01*
X293672D01*
X256103Y199000D02*
X293867D01*
X296690Y164040D02*
X300095D01*
X296680D02*
X296690D01*
X313260Y156350D02*
Y157027D01*
X304561Y166393D02*
Y167070D01*
X353528Y148760D02*
X358968Y154200D01*
X353528Y138922D02*
Y148760D01*
X357778Y147000D02*
X358150D01*
X364699Y152100D02*
X365178Y151621D01*
X329564Y166395D02*
Y167072D01*
X345545Y230322D02*
Y237654D01*
X329399Y237323D02*
Y237999D01*
X399000Y203625D02*
Y214000D01*
Y201500D02*
Y203625D01*
X241024Y144300D02*
X241700D01*
X240040Y145283D02*
X241024Y144300D01*
X203532Y145283D02*
X240040D01*
X217652Y201510D02*
X253594D01*
X372306Y180900D02*
X374931Y178274D01*
X369188Y180900D02*
X372306D01*
X366716Y183372D02*
X369188Y180900D01*
X362495Y183372D02*
X366716D01*
X374931Y174754D02*
Y178274D01*
X370005Y176514D02*
X370681D01*
X399000Y214000D02*
X415675D01*
X403514Y196304D02*
X404180D01*
X415432Y210000D02*
X422932Y202500D01*
X424175Y205500D02*
X427980D01*
X415675Y214000D02*
X424175Y205500D01*
X426738Y202500D02*
X433350Y195888D01*
X422932Y202500D02*
X426738D01*
X427980Y205500D02*
X437866Y195614D01*
X373849Y173671D02*
X374931Y174754D01*
X368619Y177900D02*
X370005Y176514D01*
X362967Y177900D02*
X368619D01*
X355994Y161400D02*
X360470D01*
X359280Y154200D02*
X364720Y159640D01*
X358968Y154200D02*
X359280D01*
X365178Y151621D02*
X366229D01*
X363845Y168822D02*
X364720Y167947D01*
Y159640D02*
Y167947D01*
X373849Y161551D02*
Y173671D01*
X368265Y170509D02*
X368550D01*
X373849Y161551D02*
X376500Y158900D01*
X421100Y149700D02*
X421200Y149600D01*
X429850D01*
X432500Y146950D01*
X362045Y178822D02*
X362967Y177900D01*
X362045Y183822D02*
X362495Y183372D01*
X365402Y173372D02*
X368265Y170509D01*
X362495Y173372D02*
X365402D01*
X334894Y157059D02*
X335189Y157354D01*
X291795Y168372D02*
X292245Y168822D01*
X291795Y165821D02*
Y168372D01*
X292245Y168822D02*
X294044D01*
X253594Y201510D02*
X256103Y199000D01*
X293867D02*
X294044Y198822D01*
X214873Y198731D02*
X217652Y201510D01*
X304561Y166393D02*
X305095Y165859D01*
Y162772D02*
Y165859D01*
Y162772D02*
X305545Y162322D01*
X310615Y167070D02*
X310645Y167040D01*
X300545Y162322D02*
Y163590D01*
X300095Y164040D02*
X300545Y163590D01*
X371650Y146200D02*
X376500D01*
X333180Y261000D02*
X337163Y257017D01*
X335362Y230505D02*
Y235100D01*
Y230505D02*
X335545Y230322D01*
X340862Y230639D02*
Y235692D01*
X340545Y230322D02*
X340862Y230639D01*
X329399Y237323D02*
X330545Y236178D01*
Y230322D02*
Y236178D01*
X319868Y234898D02*
X320206Y234560D01*
Y230660D02*
Y234560D01*
Y230660D02*
X320545Y230322D01*
X366229Y151621D02*
X371650Y146200D01*
X353528Y138922D02*
X371650Y120800D01*
X355545Y161850D02*
Y162322D01*
Y161850D02*
X355994Y161400D01*
X362045Y168822D02*
X363845D01*
X371650Y133500D02*
X376500D01*
X371650Y120800D02*
X376500D01*
X421978Y183216D02*
X424612Y185850D01*
X421500Y181250D02*
X421978Y181728D01*
Y183216D01*
X425811Y186500D02*
X426000D01*
X424612Y185850D02*
X425160D01*
X425811Y186500D01*
X329564Y166395D02*
X330095Y165865D01*
Y162772D02*
Y165865D01*
Y162772D02*
X330545Y162322D01*
X362045Y173822D02*
X362495Y173372D01*
X400500Y199318D02*
X403514Y196304D01*
X400500Y199318D02*
Y200000D01*
X399000Y201500D02*
X400500Y200000D01*
X434134Y180583D02*
X435220Y179496D01*
Y178820D02*
Y179496D01*
X434000Y182500D02*
X434134Y182366D01*
Y180583D02*
Y182366D01*
X358150Y147000D02*
X371650Y133500D01*
X377682Y214750D02*
X380500Y211932D01*
Y211250D02*
X383500Y208250D01*
X380500Y211250D02*
Y211932D01*
X368318Y214750D02*
X377682D01*
X367390Y213822D02*
X368318Y214750D01*
X362045Y213822D02*
X367390D01*
X370072Y218822D02*
X373000Y221750D01*
X362045Y218822D02*
X370072D01*
X335189Y157354D02*
Y161967D01*
X335545Y162322D01*
X350545D02*
Y167070D01*
X315095Y158861D02*
Y161872D01*
X315545Y162322D01*
X313260Y157027D02*
X315095Y158861D01*
X310645Y162422D02*
Y167040D01*
X310545Y162322D02*
X310645Y162422D01*
X323250Y261000D02*
X333180D01*
X371000Y228750D02*
X375000Y232750D01*
X362045Y223822D02*
X363845D01*
X368772Y228750D02*
X371000D01*
X363845Y223822D02*
X368772Y228750D01*
X361595Y223372D02*
X362045Y223822D01*
X356795Y211985D02*
Y220659D01*
Y211985D02*
X358408Y210372D01*
X358695D02*
X360245Y208822D01*
X356795Y220659D02*
X359508Y223372D01*
X361595D01*
X358408Y210372D02*
X358695D01*
X360245Y208822D02*
X362045D01*
X404000Y203625D02*
Y209639D01*
X404361Y210000D01*
X437866Y194634D02*
Y195614D01*
Y194634D02*
X438000Y194500D01*
X404361Y210000D02*
X415432D01*
X433350Y195340D02*
Y195888D01*
Y195340D02*
X434000Y194690D01*
Y194500D02*
Y194690D01*
X157680Y170260D02*
Y174560D01*
X138530Y193710D02*
X157680Y174560D01*
X199499Y141250D02*
X203532Y145283D01*
X153645Y128100D02*
X166796Y141250D01*
X349000Y241100D02*
X350545Y239500D01*
X349000Y241100D02*
Y244381D01*
X348945Y244436D02*
X349000Y244381D01*
X357145Y241098D02*
Y244436D01*
X355545Y239498D02*
X357145Y241098D01*
X355545Y230322D02*
Y239498D01*
X244500Y272000D02*
X251750Y264750D01*
X256250D01*
X166796Y141250D02*
X199499D01*
X237500Y108000D02*
X243500D01*
X237500Y116750D02*
X243500D01*
D12*
X252500Y108000D02*
Y134547D01*
X275803Y180521D02*
X279574D01*
X279943Y180152D01*
X283970D01*
X285300Y178822D01*
X415019Y181429D02*
Y185980D01*
X414740Y181150D02*
X415019Y181429D01*
X415039Y186000D02*
X416625D01*
X415019Y185980D02*
X415039Y186000D01*
X179340Y204940D02*
X187650Y213250D01*
X422500Y127006D02*
X422779Y126727D01*
X369250Y199850D02*
X370580Y198520D01*
X369250Y199850D02*
Y199950D01*
X398821Y125221D02*
X400001D01*
X391800Y118200D02*
X398821Y125221D01*
X391800Y112600D02*
Y118200D01*
X400001Y125221D02*
X400280Y125500D01*
X238851Y263006D02*
X238853Y263005D01*
X243745D01*
X288293Y230520D02*
X292411Y226402D01*
Y223892D02*
Y226402D01*
Y223892D02*
X292481Y223822D01*
X294044D01*
X285600Y154500D02*
X294000D01*
X273200Y154300D02*
X278600D01*
X278800Y154500D01*
X249813Y154531D02*
X275803Y180521D01*
X276600Y164040D02*
Y171000D01*
X276500Y171100D02*
X276600Y171000D01*
X285300Y178822D02*
X294044D01*
X249813Y137234D02*
Y154531D01*
X285300Y186822D02*
Y191500D01*
X408200Y187955D02*
X408980Y187175D01*
X407921Y188071D02*
X408200Y188350D01*
X406610Y188071D02*
X407921D01*
X404000Y185460D02*
X406610Y188071D01*
X408200Y187955D02*
Y188350D01*
X408980Y183395D02*
Y187175D01*
Y183395D02*
X409000Y183375D01*
X404000D02*
Y185460D01*
X381300Y180500D02*
Y180648D01*
X379230Y182718D02*
X381300Y180648D01*
X379230Y182718D02*
Y184170D01*
X377900Y185500D02*
X379230Y184170D01*
X287050Y233750D02*
X292300D01*
X249813Y137234D02*
X252500Y134547D01*
X288280Y230520D02*
X288293D01*
X287050Y231750D02*
X288280Y230520D01*
X287050Y231750D02*
Y233750D01*
X335840Y150890D02*
X336235D01*
X337435Y152090D01*
X339446D01*
X340776Y153420D01*
X346146Y156050D02*
X348776Y153420D01*
X369921Y186979D02*
X370200Y186700D01*
X377900Y193500D02*
X382500D01*
X378000Y200000D02*
Y200395D01*
X427650Y120800D02*
X432500D01*
X384250Y200000D02*
X384645D01*
X385625Y200980D01*
X391355D01*
X398750Y189250D02*
X398980Y189020D01*
X353704Y155440D02*
X354099D01*
X375480Y202915D02*
Y205770D01*
Y202915D02*
X378000Y200395D01*
X421200Y133500D02*
X421479Y133779D01*
X406630Y105779D02*
X410220D01*
X404500Y107909D02*
Y112600D01*
Y107909D02*
X406630Y105779D01*
X424600Y165500D02*
X424770Y165330D01*
Y161780D02*
Y165330D01*
X426900Y159650D02*
X432500D01*
X424770Y161780D02*
X426900Y159650D01*
X369921Y186979D02*
Y191279D01*
X369350Y191850D02*
X369921Y191279D01*
X346146Y156050D02*
Y157167D01*
X353014Y154750D02*
X353704Y155440D01*
X350106Y154750D02*
X353014D01*
X348776Y153420D02*
X350106Y154750D01*
X345545Y162322D02*
X345615Y162252D01*
Y157699D02*
Y162252D01*
Y157699D02*
X346146Y157167D01*
X370580Y198520D02*
X371797D01*
X428991Y190169D02*
X429270Y189890D01*
X434690Y187130D02*
X434969Y186851D01*
X436176D02*
X436527Y186500D01*
X434969Y186851D02*
X436176D01*
X436527Y186500D02*
X438000D01*
X427804Y190169D02*
X428991D01*
X427473Y190500D02*
X427804Y190169D01*
X426000Y190500D02*
X427473D01*
X421479Y133779D02*
X432029D01*
X432500Y134250D01*
X186310Y118690D02*
X208748D01*
X375487Y194830D02*
X376570D01*
X377900Y193500D01*
X371797Y198520D02*
X375487Y194830D01*
X412971Y205471D02*
X413250Y205750D01*
X409020Y205471D02*
X412971D01*
X243745Y263005D02*
X243750Y263000D01*
X362115Y203752D02*
X365448D01*
X187650Y213250D02*
X204750D01*
X422779Y125670D02*
Y126727D01*
X168450Y136550D02*
X186310Y118690D01*
X391355Y200980D02*
X391375Y201000D01*
X274400Y233750D02*
X279050D01*
X398980Y183395D02*
Y189020D01*
Y183395D02*
X399000Y183375D01*
X409000Y205451D02*
X409020Y205471D01*
X409000Y203625D02*
Y205451D01*
X373000Y208250D02*
X375480Y205770D01*
X365448Y203752D02*
X369250Y199950D01*
X362045Y203822D02*
X362115Y203752D01*
X422779Y125670D02*
X427650Y120800D01*
D19*
X315600Y245898D02*
D03*
X285600D02*
D03*
X270600D02*
D03*
D20*
X256600Y252398D02*
D03*
X329600D02*
D03*
D21*
X256600Y273398D02*
D03*
X329600D02*
D03*
D22*
X375000Y248750D02*
D03*
Y232750D02*
D03*
D23*
X369350Y191850D02*
D03*
Y199850D02*
D03*
X377900Y185500D02*
D03*
Y193500D02*
D03*
X285300Y186822D02*
D03*
Y178822D02*
D03*
D24*
X340776Y153420D02*
D03*
X348776D02*
D03*
X279050Y233750D02*
D03*
X287050D02*
D03*
D25*
X278800Y154500D02*
D03*
X285600D02*
D03*
D26*
X294000D02*
D03*
X303000D02*
D03*
D27*
X308162Y141375D02*
D03*
X314662D02*
D03*
X295162D02*
D03*
X301662D02*
D03*
X321162D02*
D03*
D28*
X299662Y114625D02*
D03*
X316662D02*
D03*
D29*
X267162D02*
D03*
X349162D02*
D03*
D30*
X277162Y138125D02*
D03*
X339162D02*
D03*
D31*
X426000Y194500D02*
D03*
X430000D02*
D03*
X434000D02*
D03*
X438000D02*
D03*
X426000Y190500D02*
D03*
X438000D02*
D03*
X426000Y186500D02*
D03*
X438000D02*
D03*
X426000Y182500D02*
D03*
X430000D02*
D03*
X434000D02*
D03*
X438000D02*
D03*
D32*
X350545Y230322D02*
D03*
X355545Y162322D02*
D03*
X350545D02*
D03*
X345545D02*
D03*
X340545D02*
D03*
X335545D02*
D03*
X330545D02*
D03*
X325545D02*
D03*
X320545D02*
D03*
X315545D02*
D03*
X310545D02*
D03*
X305545D02*
D03*
X300545D02*
D03*
Y230322D02*
D03*
X305545D02*
D03*
X310545D02*
D03*
X315545D02*
D03*
X320545D02*
D03*
X325545D02*
D03*
X330545D02*
D03*
X335545D02*
D03*
X340545D02*
D03*
X345545D02*
D03*
X355545D02*
D03*
D33*
X357145Y244436D02*
D03*
Y249436D02*
D03*
Y254436D02*
D03*
X348945Y244436D02*
D03*
Y249436D02*
D03*
Y254436D02*
D03*
D34*
X362045Y223822D02*
D03*
Y218822D02*
D03*
Y213822D02*
D03*
Y208822D02*
D03*
Y203822D02*
D03*
Y198822D02*
D03*
Y193822D02*
D03*
Y188822D02*
D03*
Y183822D02*
D03*
Y178822D02*
D03*
Y173822D02*
D03*
Y168822D02*
D03*
X294044D02*
D03*
Y173822D02*
D03*
Y178822D02*
D03*
Y183822D02*
D03*
Y188822D02*
D03*
Y193822D02*
D03*
Y198822D02*
D03*
Y203822D02*
D03*
Y208822D02*
D03*
Y213822D02*
D03*
Y218822D02*
D03*
Y223822D02*
D03*
D35*
X408850Y269900D02*
D03*
X408596Y250600D02*
D03*
X428150D02*
D03*
Y269900D02*
D03*
D36*
X243500Y108000D02*
D03*
X252500D02*
D03*
X243500Y116750D02*
D03*
X252500D02*
D03*
D37*
X390650Y269900D02*
D03*
X380350D02*
D03*
D38*
X383500Y208250D02*
D03*
X373000D02*
D03*
Y221750D02*
D03*
X383500D02*
D03*
D39*
X367787Y269900D02*
D03*
Y259900D02*
D03*
D40*
X391375Y201000D02*
D03*
Y196000D02*
D03*
Y191000D02*
D03*
Y186000D02*
D03*
X416625D02*
D03*
Y191000D02*
D03*
Y196000D02*
D03*
Y201000D02*
D03*
D41*
X399000Y183375D02*
D03*
X404000D02*
D03*
X409000D02*
D03*
Y203625D02*
D03*
X404000D02*
D03*
X399000D02*
D03*
D42*
X376500Y159650D02*
D03*
Y146950D02*
D03*
Y134250D02*
D03*
Y121550D02*
D03*
X432500D02*
D03*
Y134250D02*
D03*
Y146950D02*
D03*
Y159650D02*
D03*
D43*
X391800Y112600D02*
D03*
X404500D02*
D03*
X417200D02*
D03*
Y168600D02*
D03*
X404500D02*
D03*
X391800D02*
D03*
D44*
X285500Y171100D02*
D03*
X276500D02*
D03*
D45*
X244000Y263000D02*
D03*
Y272000D02*
D03*
D46*
X328045Y196322D02*
D03*
D48*
X110400Y190000D02*
D03*
X273600D02*
D03*
D49*
X275800Y204500D02*
D03*
Y224500D02*
D03*
Y214500D02*
D03*
X285800D02*
D03*
Y224500D02*
D03*
Y204500D02*
D03*
D50*
X308162Y136625D02*
Y141375D01*
X307128Y135591D02*
X308162Y136625D01*
X306900Y132200D02*
X307128Y132428D01*
Y135591D01*
X314067Y140779D02*
X314662Y141375D01*
X314067Y131203D02*
Y140779D01*
X311143Y128280D02*
X314067Y131203D01*
X311143Y127957D02*
Y128280D01*
D51*
X321162Y131032D02*
Y141307D01*
D52*
X390650Y269900D02*
X408850D01*
X367757Y269930D02*
X367787Y269900D01*
X380350D01*
X360480Y269930D02*
X367757D01*
X348957Y258407D02*
X360480Y269930D01*
X348957Y254450D02*
Y258407D01*
X348945Y254436D02*
X348957Y254450D01*
D53*
X399999Y230000D02*
D03*
X307499Y115000D02*
D03*
X427499Y225000D02*
D03*
X387499Y235000D02*
D03*
X437499Y225000D02*
D03*
X387499Y245000D02*
D03*
X382499Y255000D02*
D03*
X265000Y140000D02*
D03*
X389999Y260000D02*
D03*
X372499Y255000D02*
D03*
X392499Y225000D02*
D03*
X399999Y220000D02*
D03*
X407499Y225000D02*
D03*
X417499D02*
D03*
X338461Y267209D02*
D03*
X353130Y270503D02*
D03*
X348506Y265879D02*
D03*
X344071Y261071D02*
D03*
X343126Y254600D02*
D03*
X358966Y260493D02*
D03*
X324850Y155336D02*
D03*
X306900Y132200D02*
D03*
X311143Y127957D02*
D03*
X179340Y204940D02*
D03*
X335179Y235283D02*
D03*
X341179Y236009D02*
D03*
X278900Y180800D02*
D03*
X276600Y164040D02*
D03*
X273200Y154300D02*
D03*
X264499Y159100D02*
D03*
X285300Y191500D02*
D03*
X262763Y232011D02*
D03*
X288200Y124254D02*
D03*
X254583Y144382D02*
D03*
X321162Y131032D02*
D03*
X291800Y141300D02*
D03*
X327400Y145500D02*
D03*
X313260Y156350D02*
D03*
X296690Y164040D02*
D03*
X290690D02*
D03*
X304561Y167070D02*
D03*
X309410Y151690D02*
D03*
X357778Y147000D02*
D03*
X364699Y152100D02*
D03*
X310745Y167070D02*
D03*
X329564Y167072D02*
D03*
X325516Y225572D02*
D03*
X329399Y237999D02*
D03*
X241700Y144300D02*
D03*
X233261Y197260D02*
D03*
X257251Y213250D02*
D03*
X370200Y186700D02*
D03*
X357545Y188176D02*
D03*
X382500Y193500D02*
D03*
X370681Y176514D02*
D03*
X378000Y200000D02*
D03*
X392600Y205200D02*
D03*
X431100Y108500D02*
D03*
X424300D02*
D03*
X408200Y125700D02*
D03*
X422500Y127006D02*
D03*
X381300Y180500D02*
D03*
X384250Y200000D02*
D03*
X399000Y214000D02*
D03*
X404000Y209639D02*
D03*
X404180Y196304D02*
D03*
X408200Y188350D02*
D03*
X409790Y194170D02*
D03*
X429250Y209750D02*
D03*
X398750Y189250D02*
D03*
X381700Y174500D02*
D03*
X378100Y169700D02*
D03*
X360470Y161400D02*
D03*
X389650Y155690D02*
D03*
X354099Y155440D02*
D03*
X368550Y170509D02*
D03*
X421200Y139800D02*
D03*
Y133500D02*
D03*
X401100Y133300D02*
D03*
X400280Y125500D02*
D03*
X402800Y141600D02*
D03*
X421100Y149700D02*
D03*
X424600Y165500D02*
D03*
X418000Y156100D02*
D03*
X350545Y167070D02*
D03*
X334834Y157059D02*
D03*
X262220Y189120D02*
D03*
X246250Y164310D02*
D03*
X434690Y187130D02*
D03*
X319868Y234898D02*
D03*
X298000Y240500D02*
D03*
X208748Y160350D02*
D03*
X202250Y160250D02*
D03*
X421500Y181250D02*
D03*
X316170Y256900D02*
D03*
X435220Y178820D02*
D03*
X396430Y148430D02*
D03*
X335840Y150890D02*
D03*
X361822Y228522D02*
D03*
X413250Y205750D02*
D03*
X438900Y201000D02*
D03*
X429270Y189890D02*
D03*
X238851Y263010D02*
D03*
X212800Y267500D02*
D03*
X212900Y261500D02*
D03*
X178255Y198731D02*
D03*
X157680Y170260D02*
D03*
X138530Y193710D02*
D03*
X215249Y106490D02*
D03*
X414740Y181150D02*
D03*
X338750Y125000D02*
D03*
X168600Y127900D02*
D03*
X153645Y128100D02*
D03*
X168450Y136550D02*
D03*
X362720Y255436D02*
D03*
Y249436D02*
D03*
X362900Y243437D02*
D03*
X191750Y146000D02*
D03*
X292300Y233750D02*
D03*
X410220Y105779D02*
D03*
X237500Y108000D02*
D03*
Y116750D02*
D03*
X219750Y177840D02*
D03*
X215150Y182670D02*
D03*
X219750Y187500D02*
D03*
X175250Y145500D02*
D03*
X166248D02*
D03*
X274400Y233750D02*
D03*
X402000Y155000D02*
D03*
X256250Y264750D02*
D03*
X262763Y238262D02*
D03*
X225000Y191250D02*
D03*
X245782Y238262D02*
D03*
Y232011D02*
D03*
X293750Y273250D02*
D03*
X219750Y234500D02*
D03*
X224500Y229960D02*
D03*
X195250D02*
D03*
X189400Y234500D02*
D03*
X298000Y254500D02*
D03*
X323250Y261000D02*
D03*
X291750Y254500D02*
D03*
X298000Y247500D02*
D03*
X291750D02*
D03*
Y240500D02*
D03*
X185750Y248750D02*
D03*
Y255000D02*
D03*
X204750Y213250D02*
D03*
X208748Y118690D02*
D03*
D54*
X304795Y188287D02*
D03*
Y204357D02*
D03*
X320009Y173072D02*
D03*
Y188287D02*
D03*
Y204357D02*
D03*
Y219572D02*
D03*
X336080Y173072D02*
D03*
Y188287D02*
D03*
Y204357D02*
D03*
Y219572D02*
D03*
X351295Y188287D02*
D03*
Y204357D02*
D03*
X205499Y125533D02*
D03*
Y140533D02*
D03*
X197999Y133033D02*
D03*
X212999D02*
D03*
M02*
