G04*
G04 #@! TF.GenerationSoftware,Altium Limited,Altium Designer,23.6.0 (18)*
G04*
G04 Layer_Color=65535*
%FSLAX44Y44*%
%MOMM*%
G71*
G04*
G04 #@! TF.SameCoordinates,CC53E28F-54C9-42A3-9587-E9B5384F7771*
G04*
G04*
G04 #@! TF.FilePolarity,Positive*
G04*
G01*
G75*
%ADD10C,0.1000*%
%ADD11C,0.1500*%
%ADD12C,0.2540*%
%ADD13C,0.2500*%
%ADD14C,0.2000*%
D10*
X273000Y190000D02*
G03*
X273000Y190000I-81000J0D01*
G01*
X423450Y197550D02*
G03*
X423450Y197550I-500J0D01*
G01*
X345545Y258937D02*
G03*
X345545Y258937I-500J0D01*
G01*
X271900Y200600D02*
Y228400D01*
Y200600D02*
X289700D01*
Y228400D01*
X271900D02*
X289700D01*
X352612Y145780D02*
Y150860D01*
X348802D02*
X352612D01*
X263712D02*
X267522D01*
X263712Y145780D02*
Y150860D01*
X352612Y126730D02*
X357692D01*
X352612D02*
Y130540D01*
X263712Y126730D02*
Y130540D01*
X258632Y126730D02*
X263712D01*
X348545Y239937D02*
X357545D01*
X348545Y258937D02*
X357545D01*
X247000Y105000D02*
Y111000D01*
Y108000D02*
X249000Y106500D01*
X247000Y108000D02*
X249000Y109500D01*
Y106500D02*
Y109500D01*
X242500Y266500D02*
X245500D01*
X244000Y268500D02*
X245500Y266500D01*
X242500D02*
X244000Y268500D01*
X241000D02*
X247000D01*
Y113750D02*
Y119750D01*
Y116750D02*
X249000Y115250D01*
X247000Y116750D02*
X249000Y118250D01*
Y115250D02*
Y118250D01*
X269900Y224400D02*
Y225233D01*
X270733D01*
Y224400D01*
X269900D01*
X267300Y157088D02*
Y152090D01*
X269799D01*
X270632Y152923D01*
Y156255D01*
X269799Y157088D01*
X267300D01*
X275631Y152090D02*
X272298D01*
X275631Y155422D01*
Y156255D01*
X274797Y157088D01*
X273131D01*
X272298Y156255D01*
X306200Y152000D02*
Y156998D01*
X308699D01*
X309532Y156165D01*
Y154499D01*
X308699Y153666D01*
X306200D01*
X307866D02*
X309532Y152000D01*
X314531D02*
X311198D01*
X314531Y155332D01*
Y156165D01*
X313697Y156998D01*
X312031D01*
X311198Y156165D01*
X319529Y152000D02*
X316197D01*
X319529Y155332D01*
Y156165D01*
X318696Y156998D01*
X317030D01*
X316197Y156165D01*
X221000Y110748D02*
Y105750D01*
X224332D01*
X229331Y110748D02*
X225998D01*
Y105750D01*
X229331D01*
X225998Y108249D02*
X227665D01*
X230997Y110748D02*
Y105750D01*
X233496D01*
X234329Y106583D01*
Y109915D01*
X233496Y110748D01*
X230997D01*
X239327Y105750D02*
X235995D01*
X239327Y109082D01*
Y109915D01*
X238494Y110748D01*
X236828D01*
X235995Y109915D01*
X239900Y125698D02*
Y120700D01*
X243232D01*
X248231Y125698D02*
X244898D01*
Y120700D01*
X248231D01*
X244898Y123199D02*
X246565D01*
X249897Y125698D02*
Y120700D01*
X252396D01*
X253229Y121533D01*
Y124865D01*
X252396Y125698D01*
X249897D01*
X254895Y120700D02*
X256561D01*
X255728D01*
Y125698D01*
X254895Y124865D01*
X387915Y242918D02*
X388748Y243751D01*
Y245417D01*
X387915Y246250D01*
X384583D01*
X383750Y245417D01*
Y243751D01*
X384583Y242918D01*
X383750Y241252D02*
Y239585D01*
Y240419D01*
X388748D01*
X387915Y241252D01*
X383750Y237086D02*
Y235420D01*
Y236253D01*
X388748D01*
X387915Y237086D01*
X386500Y261248D02*
Y256250D01*
X389832D01*
X391498D02*
X393164D01*
X392331D01*
Y261248D01*
X391498Y260415D01*
X376332D02*
X375499Y261248D01*
X373833D01*
X373000Y260415D01*
Y257083D01*
X373833Y256250D01*
X375499D01*
X376332Y257083D01*
X377998D02*
X378831Y256250D01*
X380498D01*
X381331Y257083D01*
Y260415D01*
X380498Y261248D01*
X378831D01*
X377998Y260415D01*
Y259582D01*
X378831Y258749D01*
X381331D01*
X367000Y108998D02*
X368666D01*
X367833D01*
Y104000D01*
X367000D01*
X368666D01*
X374498Y108165D02*
X373665Y108998D01*
X371998D01*
X371165Y108165D01*
Y104833D01*
X371998Y104000D01*
X373665D01*
X374498Y104833D01*
X376164Y104000D02*
X377830D01*
X376997D01*
Y108998D01*
X376164Y108165D01*
X380329D02*
X381162Y108998D01*
X382828D01*
X383661Y108165D01*
Y104833D01*
X382828Y104000D01*
X381162D01*
X380329Y104833D01*
Y108165D01*
X286865Y195668D02*
X287698Y196501D01*
Y198167D01*
X286865Y199000D01*
X283533D01*
X282700Y198167D01*
Y196501D01*
X283533Y195668D01*
X282700Y190669D02*
Y194002D01*
X286032Y190669D01*
X286865D01*
X287698Y191502D01*
Y193169D01*
X286865Y194002D01*
X341332Y274665D02*
X340499Y275498D01*
X338833D01*
X338000Y274665D01*
Y273832D01*
X338833Y272999D01*
X340499D01*
X341332Y272166D01*
Y271333D01*
X340499Y270500D01*
X338833D01*
X338000Y271333D01*
X342998Y270500D02*
X344664D01*
X343831D01*
Y275498D01*
X342998Y274665D01*
X397750Y214498D02*
X399416D01*
X398583D01*
Y209500D01*
X397750D01*
X399416D01*
X405248Y213665D02*
X404414Y214498D01*
X402748D01*
X401915Y213665D01*
Y210333D01*
X402748Y209500D01*
X404414D01*
X405248Y210333D01*
X406914Y209500D02*
X408580D01*
X407747D01*
Y214498D01*
X406914Y213665D01*
X411079Y209500D02*
X412745D01*
X411912D01*
Y214498D01*
X411079Y213665D01*
X425800Y202498D02*
X427466D01*
X426633D01*
Y197500D01*
X425800D01*
X427466D01*
X433298Y201665D02*
X432464Y202498D01*
X430798D01*
X429965Y201665D01*
Y198333D01*
X430798Y197500D01*
X432464D01*
X433298Y198333D01*
X434964D02*
X435797Y197500D01*
X437463D01*
X438296Y198333D01*
Y201665D01*
X437463Y202498D01*
X435797D01*
X434964Y201665D01*
Y200832D01*
X435797Y199999D01*
X438296D01*
X221750Y274898D02*
Y269900D01*
X225082D01*
X230081Y274898D02*
X226748D01*
Y269900D01*
X230081D01*
X226748Y272399D02*
X228414D01*
X231747Y274898D02*
Y269900D01*
X234246D01*
X235079Y270733D01*
Y274065D01*
X234246Y274898D01*
X231747D01*
X236745Y274065D02*
X237578Y274898D01*
X239244D01*
X240077Y274065D01*
Y273232D01*
X239244Y272399D01*
X238411D01*
X239244D01*
X240077Y271566D01*
Y270733D01*
X239244Y269900D01*
X237578D01*
X236745Y270733D01*
X371165Y184968D02*
X371998Y185801D01*
Y187467D01*
X371165Y188300D01*
X367833D01*
X367000Y187467D01*
Y185801D01*
X367833Y184968D01*
X371998Y179969D02*
Y183302D01*
X369499D01*
X370332Y181635D01*
Y180802D01*
X369499Y179969D01*
X367833D01*
X367000Y180802D01*
Y182469D01*
X367833Y183302D01*
X386065Y190418D02*
X386898Y191251D01*
Y192917D01*
X386065Y193750D01*
X382733D01*
X381900Y192917D01*
Y191251D01*
X382733Y190418D01*
X381900Y186252D02*
X386898D01*
X384399Y188752D01*
Y185419D01*
X331532Y155165D02*
X330699Y155998D01*
X329033D01*
X328200Y155165D01*
Y151833D01*
X329033Y151000D01*
X330699D01*
X331532Y151833D01*
X333198Y155165D02*
X334031Y155998D01*
X335698D01*
X336531Y155165D01*
Y154332D01*
X335698Y153499D01*
X334865D01*
X335698D01*
X336531Y152666D01*
Y151833D01*
X335698Y151000D01*
X334031D01*
X333198Y151833D01*
X271432Y235365D02*
X270599Y236198D01*
X268933D01*
X268100Y235365D01*
Y232033D01*
X268933Y231200D01*
X270599D01*
X271432Y232033D01*
X273098Y231200D02*
X274764D01*
X273931D01*
Y236198D01*
X273098Y235365D01*
X388750Y224248D02*
Y223415D01*
X390416Y221749D01*
X392082Y223415D01*
Y224248D01*
X390416Y221749D02*
Y219250D01*
X393748D02*
X395415D01*
X394581D01*
Y224248D01*
X393748Y223415D01*
X277632Y166038D02*
X276799Y166870D01*
X275133D01*
X274300Y166038D01*
Y162705D01*
X275133Y161872D01*
X276799D01*
X277632Y162705D01*
X279298Y161872D02*
X280965D01*
X280131D01*
Y166870D01*
X279298Y166038D01*
X283464D02*
X284297Y166870D01*
X285963D01*
X286796Y166038D01*
Y162705D01*
X285963Y161872D01*
X284297D01*
X283464Y162705D01*
Y166038D01*
X342748Y260250D02*
X337750D01*
Y257751D01*
X338583Y256918D01*
X339416D01*
X340249Y257751D01*
Y260250D01*
Y257751D01*
X341082Y256918D01*
X341915D01*
X342748Y257751D01*
Y260250D01*
X337750Y255252D02*
X341082D01*
X342748Y253585D01*
X341082Y251919D01*
X337750D01*
X340249D01*
Y255252D01*
X342748Y250253D02*
X337750D01*
Y246921D01*
X342748Y245255D02*
X338583D01*
X337750Y244422D01*
Y242756D01*
X338583Y241923D01*
X342748D01*
X337750Y240257D02*
X342748D01*
X337750Y236924D01*
X342748D01*
X402250Y237250D02*
Y240582D01*
X403916Y242248D01*
X405582Y240582D01*
Y237250D01*
Y239749D01*
X402250D01*
X407248Y237250D02*
Y242248D01*
X410581Y237250D01*
Y242248D01*
X412247D02*
X415579D01*
X413913D01*
Y237250D01*
X359248Y144818D02*
X355083D01*
X354250Y143985D01*
Y142319D01*
X355083Y141486D01*
X359248D01*
X358415Y136487D02*
X359248Y137320D01*
Y138987D01*
X358415Y139820D01*
X357582D01*
X356749Y138987D01*
Y137320D01*
X355916Y136487D01*
X355083D01*
X354250Y137320D01*
Y138987D01*
X355083Y139820D01*
X359248Y134821D02*
X354250D01*
Y132322D01*
X355083Y131489D01*
X355916D01*
X356749Y132322D01*
Y134821D01*
Y132322D01*
X357582Y131489D01*
X358415D01*
X359248Y132322D01*
Y134821D01*
X118802Y183200D02*
X123800D01*
Y185699D01*
X122967Y186532D01*
X122134D01*
X121301Y185699D01*
Y183200D01*
Y185699D01*
X120468Y186532D01*
X119635D01*
X118802Y185699D01*
Y183200D01*
X123800Y188198D02*
X120468D01*
X118802Y189865D01*
X120468Y191531D01*
X123800D01*
X121301D01*
Y188198D01*
X118802Y193197D02*
Y196529D01*
Y194863D01*
X123800D01*
X320300Y240298D02*
X321966D01*
X321133D01*
Y235300D01*
X320300D01*
X321966D01*
X327798Y239465D02*
X326964Y240298D01*
X325298D01*
X324465Y239465D01*
Y236133D01*
X325298Y235300D01*
X326964D01*
X327798Y236133D01*
X329464Y235300D02*
X331130D01*
X330297D01*
Y240298D01*
X329464Y239465D01*
D11*
X321910Y150000D02*
G03*
X321910Y150000I-750J0D01*
G01*
D12*
X360100Y236700D02*
G03*
X360100Y236700I-100J0D01*
G01*
X277638Y182540D02*
Y175875D01*
X280971Y179208D02*
X274306D01*
D13*
X392044Y206400D02*
G03*
X392044Y206400I-1044J0D01*
G01*
X372450Y166300D02*
G03*
X372450Y166300I-1250J0D01*
G01*
D14*
X380750Y240250D02*
Y241250D01*
X369250Y240250D02*
Y241250D01*
X359544Y233572D02*
X365294D01*
Y227822D02*
Y233572D01*
Y159072D02*
Y162072D01*
X362295Y159072D02*
X365294D01*
X290795D02*
X293795D01*
X290795D02*
Y162072D01*
Y233572D02*
X293795D01*
X290795Y230572D02*
Y233572D01*
X434500Y167050D02*
Y170600D01*
X424600D02*
X434500D01*
X374500Y110600D02*
X384400D01*
X424600D02*
X434500D01*
Y114150D01*
X374500Y167050D02*
Y170600D01*
Y110600D02*
Y114150D01*
Y170600D02*
X384400D01*
M02*
