G04*
G04 #@! TF.GenerationSoftware,Altium Limited,Altium Designer,23.6.0 (18)*
G04*
G04 Layer_Color=16711935*
%FSLAX44Y44*%
%MOMM*%
G71*
G04*
G04 #@! TF.SameCoordinates,CC53E28F-54C9-42A3-9587-E9B5384F7771*
G04*
G04*
G04 #@! TF.FilePolarity,Positive*
G04*
G01*
G75*
%ADD10C,0.1000*%
D10*
X357795Y223072D02*
G03*
X357795Y223072I-3000J0D01*
G01*
X198999Y144532D02*
G03*
X198999Y144532I-5000J0D01*
G01*
X223552Y244954D02*
G03*
X223552Y244954I-4000J0D01*
G01*
X250754Y187072D02*
G03*
X250754Y187072I-4000J0D01*
G01*
X208750Y199250D02*
G03*
X208750Y199250I-4000J0D01*
G01*
X161300Y246000D02*
G03*
X161300Y246000I-4000J0D01*
G01*
X403000Y197000D02*
G03*
X403000Y197000I-5000J0D01*
G01*
X300300Y139150D02*
Y148650D01*
X283300Y139150D02*
Y148650D01*
X300300D01*
X283300Y139150D02*
X300300D01*
X316050Y161500D02*
X321550D01*
X316050Y151000D02*
X321550D01*
X316050D02*
Y161500D01*
X321550Y151000D02*
Y161500D01*
X326800D02*
X332300D01*
X326800Y151000D02*
X332300D01*
X326800D02*
Y161500D01*
X332300Y151000D02*
Y161500D01*
X342000Y216500D02*
Y222000D01*
X352500Y216500D02*
Y222000D01*
X342000Y216500D02*
X352500D01*
X342000Y222000D02*
X352500D01*
X330149Y208450D02*
Y213950D01*
X319649Y208450D02*
Y213950D01*
X330149D01*
X319649Y208450D02*
X330149D01*
X340176Y177250D02*
X345676D01*
X340176Y187750D02*
X345676D01*
Y177250D02*
Y187750D01*
X340176Y177250D02*
Y187750D01*
X325550Y177650D02*
Y183150D01*
X315050Y177650D02*
Y183150D01*
X325550D01*
X315050Y177650D02*
X325550D01*
X367750Y251750D02*
X382250D01*
X367750Y229750D02*
X382250D01*
Y251750D01*
X367750Y229750D02*
Y251750D01*
X298250Y270550D02*
Y276550D01*
X309250Y270550D02*
Y276550D01*
X298250Y270550D02*
X309250D01*
X298250Y276550D02*
X309250D01*
X306500Y254000D02*
X312500D01*
X306500Y243000D02*
X312500D01*
X306500D02*
Y254000D01*
X312500Y243000D02*
Y254000D01*
X348245Y183500D02*
X354245D01*
X348245Y172500D02*
X354245D01*
X348245D02*
Y183500D01*
X354245Y172500D02*
Y183500D01*
X366350Y190350D02*
X372350D01*
X366350Y201350D02*
X372350D01*
X366350Y190350D02*
Y201350D01*
X372350Y190350D02*
Y201350D01*
X374900Y184000D02*
X380900D01*
X374900Y195000D02*
X380900D01*
X374900Y184000D02*
Y195000D01*
X380900Y184000D02*
Y195000D01*
X339276Y150420D02*
Y156420D01*
X350276Y150420D02*
Y156420D01*
X339276D02*
X350276D01*
X339276Y150420D02*
X350276D01*
X282300Y188322D02*
X288300D01*
X282300Y177322D02*
X288300D01*
Y188322D01*
X282300Y177322D02*
Y188322D01*
X277550Y230750D02*
Y236750D01*
X288550Y230750D02*
Y236750D01*
X277550D02*
X288550D01*
X277550Y230750D02*
X288550D01*
X116250Y169499D02*
X121750D01*
X116250Y179999D02*
X121750D01*
Y169499D02*
Y179999D01*
X116250Y169499D02*
Y179999D01*
X155000Y186999D02*
X160500D01*
X155000Y176499D02*
X160500D01*
X155000D02*
Y186999D01*
X160500Y176499D02*
Y186999D01*
X150750Y217500D02*
Y223000D01*
X161250Y217500D02*
Y223000D01*
X150750Y217500D02*
X161250D01*
X150750Y223000D02*
X161250D01*
X149500Y201499D02*
X155000D01*
X149500Y211999D02*
X155000D01*
Y201499D02*
Y211999D01*
X149500Y201499D02*
Y211999D01*
X130500Y217249D02*
Y223249D01*
X141500Y217249D02*
Y223249D01*
X130500Y217249D02*
X141500D01*
X130500Y223249D02*
X141500D01*
X174250Y260750D02*
X180250D01*
X174250Y249750D02*
X180250D01*
X174250D02*
Y260750D01*
X180250Y249750D02*
Y260750D01*
X232250Y261750D02*
Y267750D01*
X221250Y261750D02*
Y267750D01*
X232250D01*
X221250Y261750D02*
X232250D01*
X136100Y251000D02*
X142100D01*
X136100Y240000D02*
X142100D01*
X136100D02*
Y251000D01*
X142100Y240000D02*
Y251000D01*
X277200Y157500D02*
X287200D01*
X277200Y151500D02*
X287200D01*
X277200D02*
Y157500D01*
X287200Y151500D02*
Y157500D01*
X326900Y134032D02*
X336900D01*
X326900Y128032D02*
X336900D01*
Y134032D01*
X326900Y128032D02*
Y134032D01*
X295950Y151200D02*
Y160700D01*
X278450Y151200D02*
Y160700D01*
X295950D01*
X278450Y151200D02*
X295950D01*
X253083Y148600D02*
Y154600D01*
X264083Y148600D02*
Y154600D01*
X253083Y148600D02*
X264083D01*
X253083Y154600D02*
X264083D01*
X331162Y136750D02*
Y142750D01*
X320162Y136750D02*
Y142750D01*
X331162D01*
X320162Y136750D02*
X331162D01*
X274550Y137300D02*
X278300Y133550D01*
Y120300D02*
Y137300D01*
X263300Y120300D02*
X278300D01*
X263300D02*
Y137300D01*
X278300D01*
X430470Y155150D02*
X439970D01*
X430470Y172650D02*
X439970D01*
Y155150D02*
Y172650D01*
X430470Y155150D02*
Y172650D01*
X240504Y198000D02*
Y207500D01*
X258004Y198000D02*
Y207500D01*
X240504Y198000D02*
X258004D01*
X240504Y207500D02*
X258004D01*
X237500Y161800D02*
Y171300D01*
X255000Y161800D02*
Y171300D01*
X237500Y161800D02*
X255000D01*
X237500Y171300D02*
X255000D01*
X173250Y225466D02*
X182750D01*
X173250Y242966D02*
X182750D01*
Y225466D02*
Y242966D01*
X173250Y225466D02*
Y242966D01*
X293250Y151750D02*
Y157250D01*
X303750Y151750D02*
Y157250D01*
X293250D02*
X303750D01*
X293250Y151750D02*
X303750D01*
X159950Y119450D02*
X165450D01*
X159950Y129950D02*
X165450D01*
Y119450D02*
Y129950D01*
X159950Y119450D02*
Y129950D01*
X242500Y134232D02*
Y139732D01*
X232000Y134232D02*
Y139732D01*
X242500D01*
X232000Y134232D02*
X242500D01*
Y126032D02*
Y131532D01*
X232000Y126032D02*
Y131532D01*
X242500D01*
X232000Y126032D02*
X242500D01*
X232250Y147000D02*
Y152500D01*
X242750Y147000D02*
Y152500D01*
X232250Y147000D02*
X242750D01*
X232250Y152500D02*
X242750D01*
X172750Y111809D02*
X178250D01*
X172750Y122309D02*
X178250D01*
Y111809D02*
Y122309D01*
X172750Y111809D02*
Y122309D01*
X252504Y210500D02*
Y216000D01*
X242004Y210500D02*
Y216000D01*
X252504D01*
X242004Y210500D02*
X252504D01*
X220658D02*
Y216000D01*
X210158Y210500D02*
Y216000D01*
X220658D01*
X210158Y210500D02*
X220658D01*
X355518Y191900D02*
X361017D01*
X355518Y202400D02*
X361017D01*
Y191900D02*
Y202400D01*
X355518Y191900D02*
Y202400D01*
X360910Y174990D02*
X366410D01*
X360910Y185490D02*
X366410D01*
Y174990D02*
Y185490D01*
X360910Y174990D02*
Y185490D01*
X192950Y247000D02*
X198450D01*
X192950Y236500D02*
X198450D01*
X192950D02*
Y247000D01*
X198450Y236500D02*
Y247000D01*
X201000Y257200D02*
X207000D01*
X201000Y246200D02*
X207000D01*
X201000D02*
Y257200D01*
X207000Y246200D02*
Y257200D01*
X192950Y263750D02*
X198450D01*
X192950Y253250D02*
X198450D01*
X192950D02*
Y263750D01*
X198450Y253250D02*
Y263750D01*
X230506Y185590D02*
X236006D01*
X230506Y175090D02*
X236006D01*
X230506D02*
Y185590D01*
X236006Y175090D02*
Y185590D01*
X419500Y112000D02*
X425500D01*
X419500Y123000D02*
X425500D01*
Y112000D02*
Y123000D01*
X419500Y112000D02*
Y123000D01*
X413500Y196050D02*
X419500D01*
X413500Y185050D02*
X419500D01*
X413500D02*
Y196050D01*
X419500Y185050D02*
Y196050D01*
X394800Y203500D02*
X400800D01*
X394800Y192500D02*
X400800D01*
X394800D02*
Y203500D01*
X400800Y192500D02*
Y203500D01*
X371100Y155449D02*
X377100D01*
X371100Y166449D02*
X377100D01*
Y155449D02*
Y166449D01*
X371100Y155449D02*
Y166449D01*
X384145Y182500D02*
X390145D01*
X384145Y171500D02*
X390145D01*
X384145D02*
Y182500D01*
X390145Y171500D02*
Y182500D01*
X415000Y159700D02*
X421000D01*
X415000Y170700D02*
X421000D01*
Y159700D02*
Y170700D01*
X415000Y159700D02*
Y170700D01*
X410376Y116000D02*
Y122000D01*
X399375Y116000D02*
Y122000D01*
X410376D01*
X399375Y116000D02*
X410376D01*
X413219Y140100D02*
X419219D01*
X413219Y151100D02*
X419219D01*
Y140100D02*
Y151100D01*
X413219Y140100D02*
Y151100D01*
X176609Y182125D02*
X182610D01*
X176609Y193125D02*
X182610D01*
Y182125D02*
Y193125D01*
X176609Y182125D02*
Y193125D01*
X168069Y181750D02*
X174069D01*
X168069Y192750D02*
X174069D01*
Y181750D02*
Y192750D01*
X168069Y181750D02*
Y192750D01*
X348162Y120800D02*
X353882D01*
Y110220D02*
Y120800D01*
X348162Y110220D02*
X353882D01*
X348162Y120800D02*
Y145800D01*
Y95800D02*
Y110220D01*
X268162Y95800D02*
Y110220D01*
Y120800D02*
Y145800D01*
X262442Y110220D02*
X268162D01*
X262442D02*
Y120800D01*
X268162D01*
X348162Y95800D02*
X351162Y92800D01*
Y89800D02*
Y92800D01*
X265162Y89800D02*
X351162D01*
X265162D02*
Y92800D01*
X268162Y95800D01*
Y145800D02*
X348162D01*
X268162D02*
X348162D01*
X424000Y180500D02*
Y196500D01*
X440000Y180500D02*
Y196500D01*
X424000D02*
X440000D01*
X424000Y180500D02*
X440000D01*
X348545Y240937D02*
X357545D01*
X348545Y257936D02*
X357545D01*
Y240937D02*
Y257936D01*
X348545Y240937D02*
Y257936D01*
X130750Y198749D02*
X146250D01*
X130750Y214249D02*
X146250D01*
Y198749D02*
Y214249D01*
X130750Y198749D02*
Y214249D01*
X292295Y160572D02*
Y232072D01*
X363795Y160572D02*
Y232072D01*
X292295Y160572D02*
X363795D01*
X292295Y232072D02*
X363795D01*
X195000Y183300D02*
X205500D01*
X195000Y177800D02*
X205500D01*
Y183300D01*
X195000Y177800D02*
Y183300D01*
X225998Y112532D02*
Y153532D01*
X184998Y112532D02*
Y153532D01*
Y112532D02*
X225998D01*
X184998Y153532D02*
X225998D01*
X211552Y257954D02*
X232552D01*
X211552Y236954D02*
X232552D01*
Y257954D01*
X211552Y236954D02*
Y257954D01*
X238754Y195072D02*
X259754D01*
X238754Y174072D02*
X259754D01*
X238754D02*
Y195072D01*
X259754Y174072D02*
Y195072D01*
X187750Y187250D02*
X212750D01*
X187750Y207250D02*
X212750D01*
X187750Y187250D02*
Y207250D01*
X212750Y187250D02*
Y207250D01*
X149300Y258000D02*
X169300D01*
X149300Y238000D02*
X169300D01*
Y258000D01*
X149300Y238000D02*
Y258000D01*
X380000Y266900D02*
X391000D01*
X380000Y272900D02*
X391000D01*
Y266900D02*
Y272900D01*
X380000Y266900D02*
Y272900D01*
X316500Y275000D02*
X331500D01*
X316500Y243000D02*
Y275000D01*
Y243000D02*
X331500D01*
Y275000D01*
X370787Y259400D02*
Y270400D01*
X364787Y259400D02*
Y270400D01*
X370787D01*
X364787Y259400D02*
X370787D01*
X410649Y140100D02*
Y151100D01*
X404649Y140100D02*
Y151100D01*
Y140100D02*
X410649D01*
X404649Y151100D02*
X410649D01*
X389000Y181000D02*
Y206000D01*
X419000Y181000D02*
Y206000D01*
X389000D02*
X419000D01*
X389000Y181000D02*
X419000D01*
X374500Y110600D02*
Y170600D01*
Y110600D02*
X434500D01*
Y170600D01*
X374500D02*
X434500D01*
X245500Y120182D02*
Y131182D01*
X251500Y120182D02*
Y131182D01*
X245500D02*
X251500D01*
X245500Y120182D02*
X251500D01*
Y134882D02*
Y145882D01*
X245500Y134882D02*
Y145882D01*
Y134882D02*
X251500D01*
X245500Y145882D02*
X251500D01*
X165249Y155782D02*
X176248D01*
X165249Y149782D02*
X176248D01*
Y155782D01*
X165249Y149782D02*
Y155782D01*
X275500Y168100D02*
X286500D01*
X275500Y174100D02*
X286500D01*
Y168100D02*
Y174100D01*
X275500Y168100D02*
Y174100D01*
X236676Y231454D02*
Y242454D01*
X242676Y231454D02*
Y242454D01*
X236676D02*
X242676D01*
X236676Y231454D02*
X242676D01*
X201850Y231500D02*
Y242500D01*
X207850Y231500D02*
Y242500D01*
X201850D02*
X207850D01*
X201850Y231500D02*
X207850D01*
X435900Y186250D02*
Y197250D01*
X441900Y186250D02*
Y197250D01*
X435900D02*
X441900D01*
X435900Y186250D02*
X441900D01*
X426250Y194375D02*
Y205375D01*
X432250Y194375D02*
Y205375D01*
X426250D02*
X432250D01*
X426250Y194375D02*
X432250D01*
X434100Y112000D02*
Y123000D01*
X428100Y112000D02*
Y123000D01*
Y112000D02*
X434100D01*
X428100Y123000D02*
X434100D01*
X411750Y159700D02*
Y170700D01*
X405750Y159700D02*
Y170700D01*
Y159700D02*
X411750D01*
X405750Y170700D02*
X411750D01*
X399375Y113450D02*
X410376D01*
X399375Y107450D02*
X410376D01*
Y113450D01*
X399375Y107450D02*
Y113450D01*
M02*
