G04*
G04 #@! TF.GenerationSoftware,Altium Limited,Altium Designer,23.6.0 (18)*
G04*
G04 Layer_Color=255*
%FSLAX44Y44*%
%MOMM*%
G71*
G04*
G04 #@! TF.SameCoordinates,CC53E28F-54C9-42A3-9587-E9B5384F7771*
G04*
G04*
G04 #@! TF.FilePolarity,Positive*
G04*
G01*
G75*
%ADD23R,0.5200X0.5200*%
%ADD24R,0.5200X0.5200*%
%ADD25R,0.4500X0.7200*%
%ADD26R,0.4500X0.5500*%
%ADD44R,0.6200X0.6200*%
%ADD45R,0.6000X0.5000*%
%ADD48C,1.3500*%
%ADD49C,0.6500*%
%ADD62R,0.7000X0.9000*%
%ADD63R,0.8500X0.3000*%
%ADD64R,0.5500X0.4500*%
%ADD65O,0.8500X0.3000*%
%ADD66R,0.9000X0.7000*%
%ADD67R,1.5000X4.0000*%
%ADD68R,0.4200X0.4200*%
%ADD69R,1.0000X0.8000*%
%ADD70R,0.2800X0.8500*%
%ADD71R,0.2800X0.7500*%
%ADD72R,0.5500X0.6500*%
%ADD73O,0.6500X0.3000*%
%ADD74O,0.3000X0.6500*%
%ADD75R,2.1000X2.1000*%
%ADD76R,1.0000X1.6000*%
%ADD77R,0.4500X0.3000*%
%ADD78R,0.3000X0.3000*%
%ADD79R,1.6000X0.6000*%
%ADD80R,1.3000X1.4000*%
%ADD81R,0.6500X0.2000*%
%ADD82R,0.6100X1.4200*%
%ADD83R,0.7000X0.2500*%
%ADD84R,1.8000X1.0000*%
%ADD85R,0.2750X0.2500*%
%ADD86R,0.2750X0.2500*%
D23*
X309500Y252500D02*
D03*
Y244500D02*
D03*
X351245Y182000D02*
D03*
Y174000D02*
D03*
X177250Y259250D02*
D03*
Y251250D02*
D03*
X139100Y249500D02*
D03*
Y241500D02*
D03*
X204000Y255700D02*
D03*
Y247700D02*
D03*
X422500Y113500D02*
D03*
Y121500D02*
D03*
X416500Y194550D02*
D03*
Y186550D02*
D03*
X397800Y202000D02*
D03*
Y194000D02*
D03*
X374100Y156949D02*
D03*
Y164949D02*
D03*
X387145Y181000D02*
D03*
Y173000D02*
D03*
X418000Y161200D02*
D03*
Y169200D02*
D03*
X416219Y141600D02*
D03*
Y149600D02*
D03*
X179610Y183625D02*
D03*
Y191625D02*
D03*
X171068Y183250D02*
D03*
Y191250D02*
D03*
X407649Y141600D02*
D03*
Y149600D02*
D03*
X248500Y129682D02*
D03*
Y121682D02*
D03*
Y136382D02*
D03*
Y144382D02*
D03*
X239676Y240954D02*
D03*
Y232954D02*
D03*
X204850Y241000D02*
D03*
Y233000D02*
D03*
X438900Y195750D02*
D03*
Y187750D02*
D03*
X429250Y203875D02*
D03*
Y195875D02*
D03*
X431100Y113500D02*
D03*
Y121500D02*
D03*
X408750Y161200D02*
D03*
Y169200D02*
D03*
D24*
X299750Y273550D02*
D03*
X307750D02*
D03*
X132000Y220249D02*
D03*
X140000D02*
D03*
X230750Y264750D02*
D03*
X222750D02*
D03*
X254583Y151600D02*
D03*
X262583D02*
D03*
X329662Y139750D02*
D03*
X321662D02*
D03*
X408876Y119000D02*
D03*
X400876D02*
D03*
X408876Y110450D02*
D03*
X400876D02*
D03*
D25*
X335300Y131032D02*
D03*
X328500D02*
D03*
D26*
X342750Y219250D02*
D03*
X351750D02*
D03*
X329399Y211200D02*
D03*
X320399D02*
D03*
X324800Y180400D02*
D03*
X315800D02*
D03*
X151500Y220250D02*
D03*
X160500D02*
D03*
X241750Y136982D02*
D03*
X232750D02*
D03*
X241750Y128782D02*
D03*
X232750D02*
D03*
X233000Y149750D02*
D03*
X242000D02*
D03*
X251754Y213250D02*
D03*
X242754D02*
D03*
X219908D02*
D03*
X210908D02*
D03*
D44*
X175249Y152782D02*
D03*
X166248D02*
D03*
D45*
X147000Y128200D02*
D03*
Y137200D02*
D03*
X175500Y130250D02*
D03*
Y139250D02*
D03*
D48*
X110400Y190000D02*
D03*
X273600D02*
D03*
D49*
X275800Y204500D02*
D03*
Y224500D02*
D03*
Y214500D02*
D03*
X285800D02*
D03*
Y224500D02*
D03*
Y204500D02*
D03*
D62*
X298800Y143900D02*
D03*
X284800D02*
D03*
X294200Y155950D02*
D03*
X280200D02*
D03*
X242254Y202750D02*
D03*
X256254D02*
D03*
X239250Y166550D02*
D03*
X253250D02*
D03*
D63*
X277800Y128800D02*
D03*
Y133800D02*
D03*
Y123800D02*
D03*
D64*
X318800Y160750D02*
D03*
Y151750D02*
D03*
X329550Y160750D02*
D03*
Y151750D02*
D03*
X342926Y178000D02*
D03*
Y187000D02*
D03*
X119000Y170249D02*
D03*
Y179249D02*
D03*
X157750Y186249D02*
D03*
Y177249D02*
D03*
X152250Y202249D02*
D03*
Y211249D02*
D03*
X162700Y120200D02*
D03*
Y129200D02*
D03*
X175500Y112559D02*
D03*
Y121559D02*
D03*
X358267Y192650D02*
D03*
Y201650D02*
D03*
X363660Y175740D02*
D03*
Y184740D02*
D03*
X195700Y246250D02*
D03*
Y237250D02*
D03*
Y263000D02*
D03*
Y254000D02*
D03*
X233256Y184840D02*
D03*
Y175840D02*
D03*
D65*
X263800Y133800D02*
D03*
Y128800D02*
D03*
Y123800D02*
D03*
D66*
X435220Y156900D02*
D03*
Y170900D02*
D03*
X178000Y227216D02*
D03*
Y241216D02*
D03*
D67*
X369250Y123500D02*
D03*
X349250D02*
D03*
X389250D02*
D03*
D68*
X149750Y179750D02*
D03*
Y173250D02*
D03*
Y186250D02*
D03*
X127250D02*
D03*
Y173250D02*
D03*
Y179750D02*
D03*
D69*
X138500Y174750D02*
D03*
Y184750D02*
D03*
D70*
X143500Y201749D02*
D03*
D71*
X138500Y201249D02*
D03*
X133500D02*
D03*
X143500Y211749D02*
D03*
X138500D02*
D03*
X133500D02*
D03*
D72*
X205250Y180550D02*
D03*
X195250D02*
D03*
D73*
X185749Y142782D02*
D03*
Y136282D02*
D03*
Y129782D02*
D03*
Y123282D02*
D03*
X225249D02*
D03*
Y129782D02*
D03*
Y136282D02*
D03*
Y142782D02*
D03*
D74*
X195749Y113282D02*
D03*
X202248D02*
D03*
X208748D02*
D03*
X215249D02*
D03*
Y152782D02*
D03*
X208748D02*
D03*
X202248D02*
D03*
X195749D02*
D03*
D75*
X205499Y133032D02*
D03*
D76*
X222052Y247454D02*
D03*
D77*
X231802Y253954D02*
D03*
Y247454D02*
D03*
Y240954D02*
D03*
X212302Y253954D02*
D03*
Y247454D02*
D03*
Y240954D02*
D03*
D78*
X244254Y193372D02*
D03*
X249254D02*
D03*
X254254D02*
D03*
X244254Y175772D02*
D03*
X249254D02*
D03*
X254254D02*
D03*
D79*
X249254Y184572D02*
D03*
D80*
X200250Y197250D02*
D03*
D81*
X188000Y189250D02*
D03*
Y193250D02*
D03*
Y197250D02*
D03*
Y201250D02*
D03*
Y205250D02*
D03*
X212500Y189250D02*
D03*
Y193250D02*
D03*
Y197250D02*
D03*
Y201250D02*
D03*
Y205250D02*
D03*
D82*
X159300Y248000D02*
D03*
D83*
X168550Y253000D02*
D03*
Y248000D02*
D03*
Y243000D02*
D03*
X150050Y253000D02*
D03*
Y248000D02*
D03*
Y243000D02*
D03*
D84*
X324000Y271500D02*
D03*
Y246500D02*
D03*
D85*
X387145Y166379D02*
D03*
X392145D02*
D03*
Y151124D02*
D03*
X387145D02*
D03*
D86*
X397275Y163749D02*
D03*
Y158749D02*
D03*
Y153749D02*
D03*
X382020D02*
D03*
Y158749D02*
D03*
Y163749D02*
D03*
M02*
