G04*
G04 #@! TF.GenerationSoftware,Altium Limited,Altium Designer,23.6.0 (18)*
G04*
G04 Layer_Color=255*
%FSLAX44Y44*%
%MOMM*%
G71*
G04*
G04 #@! TF.SameCoordinates,CC53E28F-54C9-42A3-9587-E9B5384F7771*
G04*
G04*
G04 #@! TF.FilePolarity,Positive*
G04*
G01*
G75*
%ADD19R,0.7000X1.5000*%
%ADD20R,1.0000X0.8000*%
%ADD21R,1.0000X0.6000*%
%ADD22R,1.3500X0.9500*%
%ADD23R,0.5200X0.5200*%
%ADD24R,0.5200X0.5200*%
%ADD25R,0.4500X0.7200*%
%ADD26R,0.4500X0.5500*%
%ADD27R,0.4000X1.3500*%
%ADD28R,1.2000X1.9000*%
%ADD29R,1.6000X1.9000*%
%ADD30R,2.1000X2.0000*%
%ADD31C,0.2200*%
G04:AMPARAMS|DCode=32|XSize=0.24mm|YSize=0.6mm|CornerRadius=0.0504mm|HoleSize=0mm|Usage=FLASHONLY|Rotation=0.000|XOffset=0mm|YOffset=0mm|HoleType=Round|Shape=RoundedRectangle|*
%AMROUNDEDRECTD32*
21,1,0.2400,0.4992,0,0,0.0*
21,1,0.1392,0.6000,0,0,0.0*
1,1,0.1008,0.0696,-0.2496*
1,1,0.1008,-0.0696,-0.2496*
1,1,0.1008,-0.0696,0.2496*
1,1,0.1008,0.0696,0.2496*
%
%ADD32ROUNDEDRECTD32*%
%ADD33R,0.4500X0.2500*%
G04:AMPARAMS|DCode=34|XSize=0.24mm|YSize=0.6mm|CornerRadius=0.0504mm|HoleSize=0mm|Usage=FLASHONLY|Rotation=270.000|XOffset=0mm|YOffset=0mm|HoleType=Round|Shape=RoundedRectangle|*
%AMROUNDEDRECTD34*
21,1,0.2400,0.4992,0,0,270.0*
21,1,0.1392,0.6000,0,0,270.0*
1,1,0.1008,-0.2496,-0.0696*
1,1,0.1008,-0.2496,0.0696*
1,1,0.1008,0.2496,0.0696*
1,1,0.1008,0.2496,-0.0696*
%
%ADD34ROUNDEDRECTD34*%
%ADD35R,0.8700X0.8700*%
%ADD36R,0.5000X0.6000*%
%ADD37R,0.7300X0.7400*%
%ADD38R,0.7500X0.8500*%
%ADD39R,0.7200X0.7200*%
%ADD40R,0.6750X0.2500*%
%ADD41R,0.2500X0.6750*%
%ADD42R,1.8000X0.6800*%
%ADD43R,0.6800X1.8000*%
%ADD44R,0.6200X0.6200*%
%ADD45R,0.6000X0.5000*%
G04:AMPARAMS|DCode=46|XSize=5.15mm|YSize=5.15mm|CornerRadius=0.0515mm|HoleSize=0mm|Usage=FLASHONLY|Rotation=270.000|XOffset=0mm|YOffset=0mm|HoleType=Round|Shape=RoundedRectangle|*
%AMROUNDEDRECTD46*
21,1,5.1500,5.0470,0,0,270.0*
21,1,5.0470,5.1500,0,0,270.0*
1,1,0.1030,-2.5235,-2.5235*
1,1,0.1030,-2.5235,2.5235*
1,1,0.1030,2.5235,2.5235*
1,1,0.1030,2.5235,-2.5235*
%
%ADD46ROUNDEDRECTD46*%
%ADD48C,1.3500*%
%ADD49C,0.6500*%
D19*
X315600Y245898D02*
D03*
X285600D02*
D03*
X270600D02*
D03*
D20*
X256600Y252398D02*
D03*
X329600D02*
D03*
D21*
X256600Y273398D02*
D03*
X329600D02*
D03*
D22*
X375000Y248750D02*
D03*
Y232750D02*
D03*
D23*
X369350Y191850D02*
D03*
Y199850D02*
D03*
X377900Y185500D02*
D03*
Y193500D02*
D03*
X285300Y186822D02*
D03*
Y178822D02*
D03*
D24*
X340776Y153420D02*
D03*
X348776D02*
D03*
X279050Y233750D02*
D03*
X287050D02*
D03*
D25*
X278800Y154500D02*
D03*
X285600D02*
D03*
D26*
X294000D02*
D03*
X303000D02*
D03*
D27*
X308162Y141375D02*
D03*
X314662D02*
D03*
X295162D02*
D03*
X301662D02*
D03*
X321162D02*
D03*
D28*
X299662Y114625D02*
D03*
X316662D02*
D03*
D29*
X267162D02*
D03*
X349162D02*
D03*
D30*
X277162Y138125D02*
D03*
X339162D02*
D03*
D31*
X426000Y194500D02*
D03*
X430000D02*
D03*
X434000D02*
D03*
X438000D02*
D03*
X426000Y190500D02*
D03*
X438000D02*
D03*
X426000Y186500D02*
D03*
X438000D02*
D03*
X426000Y182500D02*
D03*
X430000D02*
D03*
X434000D02*
D03*
X438000D02*
D03*
D32*
X350545Y230322D02*
D03*
X355545Y162322D02*
D03*
X350545D02*
D03*
X345545D02*
D03*
X340545D02*
D03*
X335545D02*
D03*
X330545D02*
D03*
X325545D02*
D03*
X320545D02*
D03*
X315545D02*
D03*
X310545D02*
D03*
X305545D02*
D03*
X300545D02*
D03*
Y230322D02*
D03*
X305545D02*
D03*
X310545D02*
D03*
X315545D02*
D03*
X320545D02*
D03*
X325545D02*
D03*
X330545D02*
D03*
X335545D02*
D03*
X340545D02*
D03*
X345545D02*
D03*
X355545D02*
D03*
D33*
X357145Y244436D02*
D03*
Y249436D02*
D03*
Y254436D02*
D03*
X348945Y244436D02*
D03*
Y249436D02*
D03*
Y254436D02*
D03*
D34*
X362045Y223822D02*
D03*
Y218822D02*
D03*
Y213822D02*
D03*
Y208822D02*
D03*
Y203822D02*
D03*
Y198822D02*
D03*
Y193822D02*
D03*
Y188822D02*
D03*
Y183822D02*
D03*
Y178822D02*
D03*
Y173822D02*
D03*
Y168822D02*
D03*
X294044D02*
D03*
Y173822D02*
D03*
Y178822D02*
D03*
Y183822D02*
D03*
Y188822D02*
D03*
Y193822D02*
D03*
Y198822D02*
D03*
Y203822D02*
D03*
Y208822D02*
D03*
Y213822D02*
D03*
Y218822D02*
D03*
Y223822D02*
D03*
D35*
X408850Y269900D02*
D03*
X408596Y250600D02*
D03*
X428150D02*
D03*
Y269900D02*
D03*
D36*
X243500Y108000D02*
D03*
X252500D02*
D03*
X243500Y116750D02*
D03*
X252500D02*
D03*
D37*
X390650Y269900D02*
D03*
X380350D02*
D03*
D38*
X383500Y208250D02*
D03*
X373000D02*
D03*
Y221750D02*
D03*
X383500D02*
D03*
D39*
X367787Y269900D02*
D03*
Y259900D02*
D03*
D40*
X391375Y201000D02*
D03*
Y196000D02*
D03*
Y191000D02*
D03*
Y186000D02*
D03*
X416625D02*
D03*
Y191000D02*
D03*
Y196000D02*
D03*
Y201000D02*
D03*
D41*
X399000Y183375D02*
D03*
X404000D02*
D03*
X409000D02*
D03*
Y203625D02*
D03*
X404000D02*
D03*
X399000D02*
D03*
D42*
X376500Y159650D02*
D03*
Y146950D02*
D03*
Y134250D02*
D03*
Y121550D02*
D03*
X432500D02*
D03*
Y134250D02*
D03*
Y146950D02*
D03*
Y159650D02*
D03*
D43*
X391800Y112600D02*
D03*
X404500D02*
D03*
X417200D02*
D03*
Y168600D02*
D03*
X404500D02*
D03*
X391800D02*
D03*
D44*
X285500Y171100D02*
D03*
X276500D02*
D03*
D45*
X244000Y263000D02*
D03*
Y272000D02*
D03*
D46*
X328045Y196322D02*
D03*
D48*
X110400Y190000D02*
D03*
X273600D02*
D03*
D49*
X275800Y204500D02*
D03*
Y224500D02*
D03*
Y214500D02*
D03*
X285800D02*
D03*
Y224500D02*
D03*
Y204500D02*
D03*
M02*
