G04*
G04 #@! TF.GenerationSoftware,Altium Limited,Altium Designer,23.6.0 (18)*
G04*
G04 Layer_Color=32768*
%FSLAX44Y44*%
%MOMM*%
G71*
G04*
G04 #@! TF.SameCoordinates,CC53E28F-54C9-42A3-9587-E9B5384F7771*
G04*
G04*
G04 #@! TF.FilePolarity,Positive*
G04*
G01*
G75*
%ADD10C,0.1000*%
%ADD92C,0.0500*%
D10*
X375000Y235750D02*
Y245750D01*
X370000Y240750D02*
X380000D01*
X262162Y88630D02*
Y100000D01*
Y88630D02*
X354162D01*
Y100000D01*
X350162Y128000D02*
Y148000D01*
Y128000D02*
X354162D01*
Y100000D02*
Y128000D01*
X262162Y100000D02*
Y128000D01*
X266162D01*
Y148000D01*
X350162D01*
X308162Y125460D02*
Y130540D01*
X305622Y128000D02*
X310702D01*
X427000Y188500D02*
X437000D01*
X432000Y183500D02*
Y193500D01*
X353045Y244436D02*
Y254436D01*
X348045Y249436D02*
X358045D01*
X138500Y201499D02*
Y211499D01*
X133500Y206499D02*
X143500D01*
X323045Y196322D02*
X333045D01*
X328045Y191322D02*
Y201322D01*
X200499Y133032D02*
X210499D01*
X205499Y128032D02*
Y138032D01*
X222052Y242454D02*
Y252454D01*
X217052Y247454D02*
X227052D01*
X249254Y179572D02*
Y189572D01*
X244254Y184572D02*
X254254D01*
X200250Y192250D02*
Y202250D01*
X195250Y197250D02*
X205250D01*
X159300Y243000D02*
Y253000D01*
X154300Y248000D02*
X164300D01*
X385500Y266900D02*
Y272900D01*
X382500Y269900D02*
X388500D01*
X319000Y259000D02*
X329000D01*
X324000Y254000D02*
Y264000D01*
X399000Y193500D02*
X409000D01*
X404000Y188500D02*
Y198500D01*
X399500Y140600D02*
X409500D01*
X404500Y135600D02*
Y145600D01*
D92*
X303300Y138400D02*
Y149400D01*
X280300Y138400D02*
Y149400D01*
X303300D01*
X280300Y138400D02*
X303300D01*
X287050Y143900D02*
X296550D01*
X291800Y139150D02*
Y148650D01*
X314800Y164250D02*
X322800D01*
X314800Y148250D02*
X322800D01*
X314800D02*
Y164250D01*
X322800Y148250D02*
Y164250D01*
X318800Y153500D02*
Y159000D01*
X316050Y156250D02*
X321550D01*
X325550Y164250D02*
X333550D01*
X325550Y148250D02*
X333550D01*
X325550D02*
Y164250D01*
X333550Y148250D02*
Y164250D01*
X329550Y153500D02*
Y159000D01*
X326800Y156250D02*
X332300D01*
X339250Y215250D02*
Y223250D01*
X355250Y215250D02*
Y223250D01*
X339250Y215250D02*
X355250D01*
X339250Y223250D02*
X355250D01*
X344500Y219250D02*
X350000D01*
X347250Y216500D02*
Y222000D01*
X332899Y207200D02*
Y215200D01*
X316899Y207200D02*
Y215200D01*
X332899D01*
X316899Y207200D02*
X332899D01*
X322149Y211200D02*
X327649D01*
X324899Y208450D02*
Y213950D01*
X338926Y174500D02*
X346926D01*
X338926Y190500D02*
X346926D01*
Y174500D02*
Y190500D01*
X338926Y174500D02*
Y190500D01*
X342926Y179750D02*
Y185250D01*
X340176Y182500D02*
X345676D01*
X328300Y176400D02*
Y184400D01*
X312300Y176400D02*
Y184400D01*
X328300D01*
X312300Y176400D02*
X328300D01*
X317550Y180400D02*
X323050D01*
X320300Y177650D02*
Y183150D01*
X367000Y254750D02*
X383000D01*
X367000Y226750D02*
X383000D01*
Y254750D01*
X367000Y226750D02*
Y254750D01*
X295750Y269550D02*
Y277550D01*
X311750Y269550D02*
Y277550D01*
X295750Y269550D02*
X311750D01*
X295750Y277550D02*
X311750D01*
X300750Y273550D02*
X306750D01*
X303750Y270550D02*
Y276550D01*
X305500Y256500D02*
X313500D01*
X305500Y240500D02*
X313500D01*
X305500D02*
Y256500D01*
X313500Y240500D02*
Y256500D01*
X309500Y245500D02*
Y251500D01*
X306500Y248500D02*
X312500D01*
X347245Y186000D02*
X355245D01*
X347245Y170000D02*
X355245D01*
X347245D02*
Y186000D01*
X355245Y170000D02*
Y186000D01*
X351245Y175000D02*
Y181000D01*
X348245Y178000D02*
X354245D01*
X365350Y187850D02*
X373350D01*
X365350Y203850D02*
X373350D01*
X365350Y187850D02*
Y203850D01*
X373350Y187850D02*
Y203850D01*
X369350Y192850D02*
Y198850D01*
X366350Y195850D02*
X372350D01*
X373900Y181500D02*
X381900D01*
X373900Y197500D02*
X381900D01*
X373900Y181500D02*
Y197500D01*
X381900Y181500D02*
Y197500D01*
X377900Y186500D02*
Y192500D01*
X374900Y189500D02*
X380900D01*
X336776Y149420D02*
Y157420D01*
X352776Y149420D02*
Y157420D01*
X336776D02*
X352776D01*
X336776Y149420D02*
X352776D01*
X341776Y153420D02*
X347776D01*
X344776Y150420D02*
Y156420D01*
X281300Y190822D02*
X289300D01*
X281300Y174822D02*
X289300D01*
Y190822D01*
X281300Y174822D02*
Y190822D01*
X285300Y179822D02*
Y185822D01*
X282300Y182822D02*
X288300D01*
X275050Y229750D02*
Y237750D01*
X291050Y229750D02*
Y237750D01*
X275050D02*
X291050D01*
X275050Y229750D02*
X291050D01*
X280050Y233750D02*
X286050D01*
X283050Y230750D02*
Y236750D01*
X115000Y166749D02*
X123000D01*
X115000Y182749D02*
X123000D01*
Y166749D02*
Y182749D01*
X115000Y166749D02*
Y182749D01*
X119000Y171999D02*
Y177499D01*
X116250Y174749D02*
X121750D01*
X153750Y189749D02*
X161750D01*
X153750Y173749D02*
X161750D01*
X153750D02*
Y189749D01*
X161750Y173749D02*
Y189749D01*
X157750Y178999D02*
Y184499D01*
X155000Y181749D02*
X160500D01*
X148000Y216250D02*
Y224250D01*
X164000Y216250D02*
Y224250D01*
X148000Y216250D02*
X164000D01*
X148000Y224250D02*
X164000D01*
X153250Y220250D02*
X158750D01*
X156000Y217500D02*
Y223000D01*
X148250Y198749D02*
X156250D01*
X148250Y214749D02*
X156250D01*
Y198749D02*
Y214749D01*
X148250Y198749D02*
Y214749D01*
X152250Y203999D02*
Y209499D01*
X149500Y206749D02*
X155000D01*
X128000Y216249D02*
Y224249D01*
X144000Y216249D02*
Y224249D01*
X128000Y216249D02*
X144000D01*
X128000Y224249D02*
X144000D01*
X133000Y220249D02*
X139000D01*
X136000Y217249D02*
Y223249D01*
X173250Y263250D02*
X181250D01*
X173250Y247250D02*
X181250D01*
X173250D02*
Y263250D01*
X181250Y247250D02*
Y263250D01*
X177250Y252250D02*
Y258250D01*
X174250Y255250D02*
X180250D01*
X234750Y260750D02*
Y268750D01*
X218750Y260750D02*
Y268750D01*
X234750D01*
X218750Y260750D02*
X234750D01*
X223750Y264750D02*
X229750D01*
X226750Y261750D02*
Y267750D01*
X135100Y253500D02*
X143100D01*
X135100Y237500D02*
X143100D01*
X135100D02*
Y253500D01*
X143100Y237500D02*
Y253500D01*
X139100Y242500D02*
Y248500D01*
X136100Y245500D02*
X142100D01*
X282200Y151500D02*
Y157500D01*
X279200Y154500D02*
X285200D01*
X274200Y160500D02*
X290200D01*
X274200Y148500D02*
X290200D01*
X274200D02*
Y160500D01*
X290200Y148500D02*
Y160500D01*
X331900Y128032D02*
Y134032D01*
X328900Y131032D02*
X334900D01*
X323900Y137032D02*
X339900D01*
X323900Y125032D02*
X339900D01*
Y137032D01*
X323900Y125032D02*
Y137032D01*
X298700Y150450D02*
Y161450D01*
X275700Y150450D02*
Y161450D01*
X298700D01*
X275700Y150450D02*
X298700D01*
X282450Y155950D02*
X291950D01*
X287200Y151200D02*
Y160700D01*
X250583Y147600D02*
Y155600D01*
X266583Y147600D02*
Y155600D01*
X250583Y147600D02*
X266583D01*
X250583Y155600D02*
X266583D01*
X255583Y151600D02*
X261583D01*
X258583Y148600D02*
Y154600D01*
X333662Y135750D02*
Y143750D01*
X317662Y135750D02*
Y143750D01*
X333662D01*
X317662Y135750D02*
X333662D01*
X322662Y139750D02*
X328662D01*
X325662Y136750D02*
Y142750D01*
X284550Y117550D02*
Y140050D01*
X257050Y117550D02*
X284550D01*
X257050D02*
Y140050D01*
X284550D01*
X429720Y152400D02*
X440720D01*
X429720Y175400D02*
X440720D01*
Y152400D02*
Y175400D01*
X429720Y152400D02*
Y175400D01*
X435220Y159150D02*
Y168650D01*
X430470Y163900D02*
X439970D01*
X237754Y197250D02*
Y208250D01*
X260754Y197250D02*
Y208250D01*
X237754Y197250D02*
X260754D01*
X237754Y208250D02*
X260754D01*
X244504Y202750D02*
X254004D01*
X249254Y198000D02*
Y207500D01*
X234750Y161050D02*
Y172050D01*
X257750Y161050D02*
Y172050D01*
X234750Y161050D02*
X257750D01*
X234750Y172050D02*
X257750D01*
X241500Y166550D02*
X251000D01*
X246250Y161800D02*
Y171300D01*
X172500Y222716D02*
X183500D01*
X172500Y245716D02*
X183500D01*
Y222716D02*
Y245716D01*
X172500Y222716D02*
Y245716D01*
X178000Y229466D02*
Y238966D01*
X173250Y234216D02*
X182750D01*
X290500Y150500D02*
Y158500D01*
X306500Y150500D02*
Y158500D01*
X290500D02*
X306500D01*
X290500Y150500D02*
X306500D01*
X295750Y154500D02*
X301250D01*
X298500Y151750D02*
Y157250D01*
X158700Y116700D02*
X166700D01*
X158700Y132700D02*
X166700D01*
Y116700D02*
Y132700D01*
X158700Y116700D02*
Y132700D01*
X162700Y121950D02*
Y127450D01*
X159950Y124700D02*
X165450D01*
X245250Y132982D02*
Y140982D01*
X229250Y132982D02*
Y140982D01*
X245250D01*
X229250Y132982D02*
X245250D01*
X234500Y136982D02*
X240000D01*
X237250Y134232D02*
Y139732D01*
X245250Y124782D02*
Y132782D01*
X229250Y124782D02*
Y132782D01*
X245250D01*
X229250Y124782D02*
X245250D01*
X234500Y128782D02*
X240000D01*
X237250Y126032D02*
Y131532D01*
X229500Y145750D02*
Y153750D01*
X245500Y145750D02*
Y153750D01*
X229500Y145750D02*
X245500D01*
X229500Y153750D02*
X245500D01*
X234750Y149750D02*
X240250D01*
X237500Y147000D02*
Y152500D01*
X171500Y109059D02*
X179500D01*
X171500Y125059D02*
X179500D01*
Y109059D02*
Y125059D01*
X171500Y109059D02*
Y125059D01*
X175500Y114309D02*
Y119809D01*
X172750Y117059D02*
X178250D01*
X255254Y209250D02*
Y217250D01*
X239254Y209250D02*
Y217250D01*
X255254D01*
X239254Y209250D02*
X255254D01*
X244504Y213250D02*
X250004D01*
X247254Y210500D02*
Y216000D01*
X223408Y209250D02*
Y217250D01*
X207408Y209250D02*
Y217250D01*
X223408D01*
X207408Y209250D02*
X223408D01*
X212658Y213250D02*
X218158D01*
X215408Y210500D02*
Y216000D01*
X354267Y189150D02*
X362267D01*
X354267Y205150D02*
X362267D01*
Y189150D02*
Y205150D01*
X354267Y189150D02*
Y205150D01*
X358267Y194400D02*
Y199900D01*
X355518Y197150D02*
X361017D01*
X359660Y172240D02*
X367660D01*
X359660Y188240D02*
X367660D01*
Y172240D02*
Y188240D01*
X359660Y172240D02*
Y188240D01*
X363660Y177490D02*
Y182990D01*
X360910Y180240D02*
X366410D01*
X191700Y249750D02*
X199700D01*
X191700Y233750D02*
X199700D01*
X191700D02*
Y249750D01*
X199700Y233750D02*
Y249750D01*
X195700Y239000D02*
Y244500D01*
X192950Y241750D02*
X198450D01*
X200000Y259700D02*
X208000D01*
X200000Y243700D02*
X208000D01*
X200000D02*
Y259700D01*
X208000Y243700D02*
Y259700D01*
X204000Y248700D02*
Y254700D01*
X201000Y251700D02*
X207000D01*
X191700Y266500D02*
X199700D01*
X191700Y250500D02*
X199700D01*
X191700D02*
Y266500D01*
X199700Y250500D02*
Y266500D01*
X195700Y255750D02*
Y261250D01*
X192950Y258500D02*
X198450D01*
X229256Y188340D02*
X237256D01*
X229256Y172340D02*
X237256D01*
X229256D02*
Y188340D01*
X237256Y172340D02*
Y188340D01*
X233256Y177590D02*
Y183090D01*
X230506Y180340D02*
X236006D01*
X418500Y109500D02*
X426500D01*
X418500Y125500D02*
X426500D01*
Y109500D02*
Y125500D01*
X418500Y109500D02*
Y125500D01*
X422500Y114500D02*
Y120500D01*
X419500Y117500D02*
X425500D01*
X412500Y198550D02*
X420500D01*
X412500Y182550D02*
X420500D01*
X412500D02*
Y198550D01*
X420500Y182550D02*
Y198550D01*
X416500Y187550D02*
Y193550D01*
X413500Y190550D02*
X419500D01*
X393800Y206000D02*
X401800D01*
X393800Y190000D02*
X401800D01*
X393800D02*
Y206000D01*
X401800Y190000D02*
Y206000D01*
X397800Y195000D02*
Y201000D01*
X394800Y198000D02*
X400800D01*
X370100Y152949D02*
X378100D01*
X370100Y168949D02*
X378100D01*
Y152949D02*
Y168949D01*
X370100Y152949D02*
Y168949D01*
X374100Y157949D02*
Y163949D01*
X371100Y160949D02*
X377100D01*
X383145Y185000D02*
X391145D01*
X383145Y169000D02*
X391145D01*
X383145D02*
Y185000D01*
X391145Y169000D02*
Y185000D01*
X387145Y174000D02*
Y180000D01*
X384145Y177000D02*
X390145D01*
X414000Y157200D02*
X422000D01*
X414000Y173200D02*
X422000D01*
Y157200D02*
Y173200D01*
X414000Y157200D02*
Y173200D01*
X418000Y162200D02*
Y168200D01*
X415000Y165200D02*
X421000D01*
X412876Y115000D02*
Y123000D01*
X396875Y115000D02*
Y123000D01*
X412876D01*
X396875Y115000D02*
X412876D01*
X401875Y119000D02*
X407876D01*
X404875Y116000D02*
Y122000D01*
X412219Y137600D02*
X420219D01*
X412219Y153600D02*
X420219D01*
Y137600D02*
Y153600D01*
X412219Y137600D02*
Y153600D01*
X416219Y142600D02*
Y148600D01*
X413219Y145600D02*
X419219D01*
X175609Y179625D02*
X183610D01*
X175609Y195625D02*
X183610D01*
Y179625D02*
Y195625D01*
X175609Y179625D02*
Y195625D01*
X179610Y184625D02*
Y190625D01*
X176609Y187625D02*
X182610D01*
X167068Y179250D02*
X175068D01*
X167068Y195250D02*
X175068D01*
Y179250D02*
Y195250D01*
X167068Y179250D02*
Y195250D01*
X171068Y184250D02*
Y190250D01*
X168069Y187250D02*
X174069D01*
X421500Y178000D02*
Y199000D01*
X442500Y178000D02*
Y199000D01*
X421500D02*
X442500D01*
X421500Y178000D02*
X442500D01*
X345495Y239937D02*
X360595D01*
X345495Y258937D02*
X360595D01*
Y239937D02*
Y258937D01*
X345495Y239937D02*
Y258937D01*
X129500Y195649D02*
X147500D01*
X129500Y217349D02*
X147500D01*
Y195649D02*
Y217349D01*
X129500Y195649D02*
Y217349D01*
X289795Y234572D02*
X366295D01*
X289795Y158072D02*
Y234572D01*
Y158072D02*
X366295D01*
Y234572D01*
X200250Y177800D02*
Y183300D01*
X197500Y180550D02*
X203000D01*
X190750Y185550D02*
X209750D01*
X190750Y175550D02*
X209750D01*
Y185550D01*
X190750Y175550D02*
Y185550D01*
X229499Y109032D02*
Y157032D01*
X181499Y109032D02*
Y157032D01*
Y109032D02*
X229499D01*
X181499Y157032D02*
X229499D01*
X211002Y258954D02*
X233102D01*
X211002Y235954D02*
X233102D01*
Y258954D01*
X211002Y235954D02*
Y258954D01*
X237754Y195622D02*
X260754D01*
X237754Y173522D02*
X260754D01*
X237754D02*
Y195622D01*
X260754Y173522D02*
Y195622D01*
X186900Y186250D02*
X213600D01*
X186900Y208250D02*
X213600D01*
X186900Y186250D02*
Y208250D01*
X213600Y186250D02*
Y208250D01*
X145550Y259500D02*
X173050D01*
X145550Y236500D02*
X173050D01*
Y259500D01*
X145550Y236500D02*
Y259500D01*
X374500Y263900D02*
X396500D01*
X374500Y275900D02*
X396500D01*
Y263900D02*
Y275900D01*
X374500Y263900D02*
Y275900D01*
X314000Y277500D02*
X334000D01*
X314000Y240500D02*
Y277500D01*
Y240500D02*
X334000D01*
Y277500D01*
X364787Y264900D02*
X370787D01*
X367787Y261900D02*
Y267900D01*
X376787Y250900D02*
Y278900D01*
X358787Y250900D02*
Y278900D01*
X376787D01*
X358787Y250900D02*
X376787D01*
X404649Y145600D02*
X410649D01*
X407649Y142600D02*
Y148600D01*
X411649Y137600D02*
Y153600D01*
X403649Y137600D02*
Y153600D01*
Y137600D02*
X411649D01*
X403649Y153600D02*
X411649D01*
X387000Y179000D02*
Y208000D01*
X421000Y179000D02*
Y208000D01*
X387000D02*
X421000D01*
X387000Y179000D02*
X421000D01*
X366500Y102600D02*
Y178600D01*
X442500Y102600D02*
Y178600D01*
X366500D02*
X442500D01*
X366500Y102600D02*
X442500D01*
X245500Y125682D02*
X251500D01*
X248500Y122682D02*
Y128682D01*
X244500Y117682D02*
Y133682D01*
X252500Y117682D02*
Y133682D01*
X244500D02*
X252500D01*
X244500Y117682D02*
X252500D01*
X245500Y140382D02*
X251500D01*
X248500Y137382D02*
Y143382D01*
X252500Y132382D02*
Y148382D01*
X244500Y132382D02*
Y148382D01*
Y132382D02*
X252500D01*
X244500Y148382D02*
X252500D01*
X170749Y149782D02*
Y155782D01*
X167749Y152782D02*
X173748D01*
X160249Y158782D02*
X181248D01*
X160249Y146782D02*
X181248D01*
Y158782D01*
X160249Y146782D02*
Y158782D01*
X281000Y168100D02*
Y174100D01*
X278000Y171100D02*
X284000D01*
X270500Y165100D02*
X291500D01*
X270500Y177100D02*
X291500D01*
Y165100D02*
Y177100D01*
X270500Y165100D02*
Y177100D01*
X236676Y236954D02*
X242676D01*
X239676Y233954D02*
Y239954D01*
X235676Y228954D02*
Y244954D01*
X243676Y228954D02*
Y244954D01*
X235676D02*
X243676D01*
X235676Y228954D02*
X243676D01*
X201850Y237000D02*
X207850D01*
X204850Y234000D02*
Y240000D01*
X200850Y229000D02*
Y245000D01*
X208850Y229000D02*
Y245000D01*
X200850D02*
X208850D01*
X200850Y229000D02*
X208850D01*
X435900Y191750D02*
X441900D01*
X438900Y188750D02*
Y194750D01*
X434900Y183750D02*
Y199750D01*
X442900Y183750D02*
Y199750D01*
X434900D02*
X442900D01*
X434900Y183750D02*
X442900D01*
X426250Y199875D02*
X432250D01*
X429250Y196875D02*
Y202875D01*
X425250Y191875D02*
Y207875D01*
X433250Y191875D02*
Y207875D01*
X425250D02*
X433250D01*
X425250Y191875D02*
X433250D01*
X428100Y117500D02*
X434100D01*
X431100Y114500D02*
Y120500D01*
X435100Y109500D02*
Y125500D01*
X427100Y109500D02*
Y125500D01*
Y109500D02*
X435100D01*
X427100Y125500D02*
X435100D01*
X405750Y165200D02*
X411750D01*
X408750Y162200D02*
Y168200D01*
X412750Y157200D02*
Y173200D01*
X404750Y157200D02*
Y173200D01*
Y157200D02*
X412750D01*
X404750Y173200D02*
X412750D01*
X404875Y107450D02*
Y113450D01*
X401875Y110450D02*
X407876D01*
X396875Y114450D02*
X412876D01*
X396875Y106450D02*
X412876D01*
Y114450D01*
X396875Y106450D02*
Y114450D01*
M02*
