G04*
G04 #@! TF.GenerationSoftware,Altium Limited,Altium Designer,23.6.0 (18)*
G04*
G04 Layer_Physical_Order=2*
G04 Layer_Color=32768*
%FSLAX44Y44*%
%MOMM*%
G71*
G04*
G04 #@! TF.SameCoordinates,CC53E28F-54C9-42A3-9587-E9B5384F7771*
G04*
G04*
G04 #@! TF.FilePolarity,Negative*
G04*
G01*
G75*
%ADD55C,0.7000*%
%ADD56C,0.4000*%
%ADD57C,1.5000*%
%ADD58C,1.6000*%
%ADD59C,1.0000*%
%ADD60C,0.8000*%
G36*
X184750Y259000D02*
X191649Y259000D01*
X192465Y259000D01*
X193972Y258376D01*
X195126Y257222D01*
X195750Y255715D01*
X195749Y254899D01*
X195750Y254899D01*
X195750Y248750D01*
X195750Y247954D01*
X195141Y246484D01*
X194016Y245359D01*
X192546Y244750D01*
X191750Y244750D01*
X191750D01*
X184750Y244750D01*
X183954Y244750D01*
X182484Y245359D01*
X181359Y246484D01*
X180750Y247954D01*
X180750Y248750D01*
Y248750D01*
X180750Y255000D01*
Y255795D01*
X181359Y257266D01*
X182484Y258391D01*
X183954Y259000D01*
X184750Y259000D01*
X184750Y259000D01*
D02*
G37*
G36*
X290799Y224340D02*
X290800Y204390D01*
X290800Y203363D01*
X290014Y201465D01*
X288561Y200012D01*
X286663Y199226D01*
X285636Y199226D01*
X285636D01*
X275974Y199226D01*
X274944D01*
X273043Y200014D01*
X271588Y201469D01*
X270800Y203371D01*
X270800Y204400D01*
Y204400D01*
X270800Y214300D01*
X270800Y215300D01*
X271566Y217149D01*
X272981Y218564D01*
X274829Y219330D01*
X275830Y219330D01*
Y219330D01*
X276800Y219426D01*
X278591Y220168D01*
X279962Y221539D01*
X280704Y223330D01*
X280800Y224300D01*
X280800D01*
Y225298D01*
X281564Y227143D01*
X282976Y228556D01*
X284821Y229320D01*
X285820D01*
X286811Y229320D01*
X288641Y228562D01*
X290042Y227161D01*
X290800Y225331D01*
X290799Y224340D01*
X290799Y224340D01*
D02*
G37*
G36*
X302000Y254468D02*
X302000Y240500D01*
X302000Y239704D01*
X301391Y238234D01*
X300266Y237109D01*
X298796Y236500D01*
X298000Y236500D01*
Y236500D01*
X291732D01*
X290940Y236500D01*
X289476Y237106D01*
X288356Y238226D01*
X287750Y239690D01*
X287750Y240482D01*
Y240482D01*
X287750Y254468D01*
Y255270D01*
X288364Y256752D01*
X289498Y257886D01*
X290980Y258500D01*
X291782Y258500D01*
X291782Y258500D01*
X297968Y258500D01*
X298770Y258500D01*
X300252Y257886D01*
X301386Y256752D01*
X302000Y255270D01*
X302000Y254468D01*
X302000Y254468D01*
D02*
G37*
D55*
X190000Y280000D02*
G03*
X190000Y100000I0J-90000D01*
G01*
X336862Y114000D02*
G03*
X331862Y119000I-5000J0D01*
G01*
X331862D02*
G03*
X326862Y114000I0J-5000D01*
G01*
X289462D02*
G03*
X284462Y119000I-5000J0D01*
G01*
D02*
G03*
X279462Y114000I0J-5000D01*
G01*
X190000Y100000D02*
X248162D01*
X190000Y280000D02*
Y280000D01*
X445000Y280000D01*
Y100000D02*
Y280000D01*
X336862Y100000D02*
X445000D01*
X336862Y114000D02*
X336862Y100000D01*
X331862Y119000D02*
X331862D01*
X326862Y114000D02*
X326862D01*
X326862Y100000D02*
Y114000D01*
X289462Y100000D02*
X326862D01*
X289462D02*
Y114000D01*
X289462D02*
X289462D01*
X279462Y100000D02*
Y114000D01*
X248162Y100000D02*
X279462D01*
D56*
X284462Y119000D02*
G03*
X279462Y114000I0J-5000D01*
G01*
X289462D02*
G03*
X284462Y119000I-5000J0D01*
G01*
X331862D02*
G03*
X326862Y114000I0J-5000D01*
G01*
X336862D02*
G03*
X331862Y119000I-5000J0D01*
G01*
X190000Y280000D02*
G03*
X190000Y100000I0J-90000D01*
G01*
X248162D01*
X336862D02*
X445000D01*
X336862Y114000D02*
X336862Y100000D01*
X331862Y119000D02*
X331862D01*
X326862Y114000D02*
X326862D01*
X326862Y100000D02*
Y114000D01*
X289462Y100000D02*
X326862D01*
X289462D02*
Y114000D01*
X289462D02*
X289462D01*
X279462Y100000D02*
Y114000D01*
X248162Y100000D02*
X279462D01*
X445000D02*
Y280000D01*
X190000Y280000D02*
Y280000D01*
X445000Y280000D01*
D57*
X278100Y263398D02*
D03*
X308100D02*
D03*
D58*
X110400Y190000D02*
D03*
X273600D02*
D03*
D59*
X275800Y204500D02*
D03*
Y214500D02*
D03*
X285800D02*
D03*
Y224500D02*
D03*
Y204500D02*
D03*
D60*
X324850Y155336D02*
D03*
X306900Y132200D02*
D03*
X311143Y127957D02*
D03*
X179340Y204940D02*
D03*
X335179Y235283D02*
D03*
X341179Y236009D02*
D03*
X278900Y180800D02*
D03*
X264499Y159100D02*
D03*
X262763Y232011D02*
D03*
X321162Y131032D02*
D03*
X313260Y156350D02*
D03*
X296690Y164040D02*
D03*
X290690D02*
D03*
X304561Y167070D02*
D03*
X309410Y151690D02*
D03*
X357778Y147000D02*
D03*
X364699Y152100D02*
D03*
X310745Y167070D02*
D03*
X329564Y167072D02*
D03*
X325516Y225572D02*
D03*
X329399Y237999D02*
D03*
X241700Y144300D02*
D03*
X233261Y197260D02*
D03*
X257251Y213250D02*
D03*
X357545Y188176D02*
D03*
X382500Y193500D02*
D03*
X370681Y176514D02*
D03*
X422500Y127006D02*
D03*
X399000Y214000D02*
D03*
X404000Y209639D02*
D03*
X404180Y196304D02*
D03*
X398750Y189250D02*
D03*
X381700Y174500D02*
D03*
X378100Y169700D02*
D03*
X360470Y161400D02*
D03*
X354099Y155440D02*
D03*
X368550Y170509D02*
D03*
X400280Y125500D02*
D03*
X421100Y149700D02*
D03*
X424600Y165500D02*
D03*
X350545Y167070D02*
D03*
X334834Y157059D02*
D03*
X262220Y189120D02*
D03*
X246250Y164310D02*
D03*
X434690Y187130D02*
D03*
X319868Y234898D02*
D03*
X298000Y240500D02*
D03*
X202250Y160250D02*
D03*
X435220Y178820D02*
D03*
X396430Y148430D02*
D03*
X361822Y228522D02*
D03*
X413250Y205750D02*
D03*
X429270Y189890D02*
D03*
X238851Y263010D02*
D03*
X178255Y198731D02*
D03*
X157680Y170260D02*
D03*
X138530Y193710D02*
D03*
X215249Y106490D02*
D03*
X414740Y181150D02*
D03*
X168600Y127900D02*
D03*
X153645Y128100D02*
D03*
X168450Y136550D02*
D03*
X191750Y146000D02*
D03*
X292300Y233750D02*
D03*
X237500Y108000D02*
D03*
Y116750D02*
D03*
X175250Y145500D02*
D03*
X256250Y264750D02*
D03*
X262763Y238262D02*
D03*
X225000Y191250D02*
D03*
X245782Y238262D02*
D03*
Y232011D02*
D03*
X298000Y254500D02*
D03*
X323250Y261000D02*
D03*
X291750Y254500D02*
D03*
X298000Y247500D02*
D03*
X291750D02*
D03*
Y240500D02*
D03*
X185750Y248750D02*
D03*
Y255000D02*
D03*
X204750Y213250D02*
D03*
X208748Y118690D02*
D03*
M02*
