G04*
G04 #@! TF.GenerationSoftware,Altium Limited,Altium Designer,23.6.0 (18)*
G04*
G04 Layer_Physical_Order=4*
G04 Layer_Color=16711680*
%FSLAX44Y44*%
%MOMM*%
G71*
G04*
G04 #@! TF.SameCoordinates,CC53E28F-54C9-42A3-9587-E9B5384F7771*
G04*
G04*
G04 #@! TF.FilePolarity,Positive*
G04*
G01*
G75*
%ADD11C,0.1500*%
%ADD12C,0.2540*%
%ADD14C,0.2000*%
%ADD23R,0.5200X0.5200*%
%ADD24R,0.5200X0.5200*%
%ADD25R,0.4500X0.7200*%
%ADD26R,0.4500X0.5500*%
%ADD44R,0.6200X0.6200*%
%ADD45R,0.6000X0.5000*%
%ADD48C,1.3500*%
%ADD49C,0.6500*%
%ADD51C,0.5000*%
%ADD53C,0.4000*%
%ADD54C,0.5000*%
%ADD62R,0.7000X0.9000*%
%ADD63R,0.8500X0.3000*%
%ADD64R,0.5500X0.4500*%
%ADD65O,0.8500X0.3000*%
%ADD66R,0.9000X0.7000*%
%ADD67R,1.5000X4.0000*%
%ADD68R,0.4200X0.4200*%
%ADD69R,1.0000X0.8000*%
%ADD70R,0.2800X0.8500*%
%ADD71R,0.2800X0.7500*%
%ADD72R,0.5500X0.6500*%
%ADD73O,0.6500X0.3000*%
%ADD74O,0.3000X0.6500*%
%ADD75R,2.1000X2.1000*%
%ADD76R,1.0000X1.6000*%
%ADD77R,0.4500X0.3000*%
%ADD78R,0.3000X0.3000*%
%ADD79R,1.6000X0.6000*%
%ADD80R,1.3000X1.4000*%
%ADD81R,0.6500X0.2000*%
%ADD82R,0.6100X1.4200*%
%ADD83R,0.7000X0.2500*%
%ADD84R,1.8000X1.0000*%
%ADD85R,0.2750X0.2500*%
%ADD86R,0.2750X0.2500*%
%ADD87C,0.2841*%
G36*
X187750Y246324D02*
X175416Y246324D01*
X166200Y246338D01*
X166200Y249321D01*
X173200D01*
X174450Y250571D01*
Y253126D01*
X175348Y254024D01*
X183700Y254024D01*
Y257000D01*
X187750D01*
Y246324D01*
D02*
G37*
G36*
X226650Y268850D02*
Y260650D01*
X227992D01*
Y236428D01*
X242254D01*
Y232215D01*
X242213Y232011D01*
X242254Y231807D01*
Y228124D01*
X225046D01*
X224892Y228060D01*
X224729Y228092D01*
X224500Y228047D01*
X224271Y228092D01*
X224108Y228060D01*
X223954Y228124D01*
X195796D01*
X195642Y228060D01*
X195479Y228092D01*
X195250Y228047D01*
X195021Y228092D01*
X194858Y228060D01*
X194704Y228124D01*
X184000D01*
X182852Y227648D01*
X182376Y226500D01*
Y223840D01*
X173624D01*
Y226500D01*
X173148Y227648D01*
X172000Y228124D01*
X158250D01*
X157770Y227925D01*
X156500Y228502D01*
X156500Y255273D01*
X165477Y264250D01*
X198250Y264250D01*
Y259750D01*
X181000D01*
Y256500D01*
X172250D01*
Y252648D01*
X171352Y251750D01*
X162500Y251750D01*
Y236200D01*
X191450D01*
Y233500D01*
X199950D01*
Y236200D01*
X216054D01*
Y252486D01*
X210000Y252500D01*
Y255500D01*
Y269800D01*
X225878D01*
X226650Y268850D01*
D02*
G37*
G36*
X214431Y250750D02*
Y237824D01*
X199950D01*
X199652Y237700D01*
X191749D01*
X191450Y237824D01*
X190631D01*
X189400Y238069D01*
X188169Y237824D01*
X165250D01*
X165250Y243802D01*
X166148Y244700D01*
X191450Y244700D01*
Y242500D01*
X199950D01*
Y244700D01*
X201190D01*
X201190Y250750D01*
X214431Y250750D01*
D02*
G37*
G36*
X272213Y258750D02*
X272751Y258049D01*
X274318Y256847D01*
X276142Y256091D01*
X278100Y255833D01*
X280058Y256091D01*
X281882Y256847D01*
X283449Y258049D01*
X283987Y258750D01*
X302213Y258750D01*
X302250Y258702D01*
Y237250D01*
X292645D01*
X292300Y237319D01*
X291955Y237250D01*
X275397Y237250D01*
Y237250D01*
X274400Y237319D01*
X274160Y237271D01*
X273034Y237047D01*
X271877Y236273D01*
X271103Y235116D01*
X270831Y233750D01*
X271103Y232384D01*
X271877Y231227D01*
X273034Y230453D01*
X273953Y230270D01*
Y228975D01*
X273947Y228974D01*
X272376Y227924D01*
X271326Y226353D01*
X270957Y224500D01*
X271326Y222646D01*
X272376Y221075D01*
X273677Y220205D01*
X273779Y219739D01*
Y219260D01*
X273677Y218794D01*
X272376Y217924D01*
X271326Y216353D01*
X270957Y214500D01*
X271222Y213166D01*
X268678Y210622D01*
X268181Y209877D01*
X268006Y209000D01*
Y208750D01*
Y202221D01*
X268181Y201343D01*
X268678Y200599D01*
X271899Y197378D01*
X272644Y196881D01*
X273521Y196706D01*
X273901D01*
Y188170D01*
X266568Y188170D01*
X265789Y189120D01*
X265517Y190486D01*
X264743Y191643D01*
X263586Y192417D01*
X262220Y192689D01*
X260854Y192417D01*
X259697Y191643D01*
X258923Y190486D01*
X258651Y189120D01*
X258612Y189072D01*
X256728D01*
X256362Y189224D01*
X252750D01*
X252750Y207852D01*
X253648Y208750D01*
X262750Y208750D01*
Y217500D01*
X204500D01*
X203587Y216587D01*
X203384Y216547D01*
X202227Y215773D01*
X201453Y214616D01*
X201413Y214413D01*
X192750Y205750D01*
X192250D01*
Y205250D01*
X191250Y204250D01*
X188043D01*
X187770Y204304D01*
X187770Y204304D01*
X184365D01*
X182705Y205964D01*
X182637Y206306D01*
X181863Y207463D01*
X180706Y208237D01*
X179340Y208509D01*
X177974Y208237D01*
X176817Y207463D01*
X176043Y206306D01*
X175857Y205372D01*
X175500Y204250D01*
X175500D01*
Y200907D01*
X174958Y200097D01*
X174687Y198731D01*
X174958Y197365D01*
X175500Y196555D01*
Y188170D01*
X164250D01*
Y207000D01*
X158250D01*
Y226500D01*
X172000D01*
Y222216D01*
X184000D01*
Y226500D01*
X194704D01*
X195250Y226391D01*
X195796Y226500D01*
X223954D01*
X224500Y226391D01*
X225046Y226500D01*
X265750D01*
Y230182D01*
X266060Y230646D01*
X266331Y232011D01*
X266060Y233377D01*
X265750Y233841D01*
Y236432D01*
X266060Y236896D01*
X266331Y238262D01*
X266060Y239627D01*
X265750Y240091D01*
X265750Y258750D01*
X272213D01*
D02*
G37*
G36*
X315559Y235800D02*
X316299Y234898D01*
X316571Y233532D01*
X317344Y232375D01*
X318502Y231601D01*
X319868Y231329D01*
X321233Y231601D01*
X322391Y232375D01*
X323165Y233532D01*
X323437Y234898D01*
X324177Y235800D01*
X326660Y235800D01*
X326876Y235476D01*
X327472Y235078D01*
Y229886D01*
X326202Y229004D01*
X325516Y229141D01*
X324150Y228869D01*
X322992Y228096D01*
X322219Y226938D01*
X321947Y225572D01*
X322177Y224416D01*
X322020Y224138D01*
X321754Y223834D01*
X321224Y223409D01*
X320009Y223650D01*
X318449Y223340D01*
X317126Y222456D01*
X316242Y221133D01*
X315931Y219572D01*
X316242Y218011D01*
X317126Y216688D01*
X318449Y215804D01*
X320009Y215494D01*
X321570Y215804D01*
X322893Y216688D01*
X323778Y218011D01*
X324088Y219572D01*
X323778Y221133D01*
X324602Y222186D01*
X325516Y222004D01*
X326202Y222140D01*
X327472Y221259D01*
Y215450D01*
X325649D01*
Y206950D01*
X330678D01*
X330899Y206906D01*
X331561D01*
X332256Y205636D01*
X332001Y204357D01*
X332312Y202796D01*
X333196Y201473D01*
X334519Y200589D01*
X336080Y200279D01*
X337640Y200589D01*
X338963Y201473D01*
X339847Y202796D01*
X340158Y204357D01*
X339904Y205636D01*
X340598Y206906D01*
X346776D01*
X347471Y205636D01*
X347216Y204357D01*
X347527Y202796D01*
X348411Y201473D01*
X349734Y200589D01*
X351295Y200279D01*
X352855Y200589D01*
X354178Y201473D01*
X355062Y202796D01*
X355373Y204357D01*
X355118Y205636D01*
X355813Y206906D01*
X361056D01*
Y206640D01*
X361230Y205762D01*
X361728Y205018D01*
X366500Y200245D01*
X366500Y179490D01*
X359410D01*
X358514Y180389D01*
Y184801D01*
X358910Y184880D01*
X360068Y185653D01*
X360841Y186811D01*
X361113Y188176D01*
X361707Y188900D01*
X362517D01*
Y196400D01*
X354017D01*
Y192626D01*
X353059Y192113D01*
X352747Y192076D01*
X351295Y192365D01*
X349734Y192055D01*
X348411Y191171D01*
X347527Y189848D01*
X347216Y188287D01*
X347399Y187370D01*
X347145Y186100D01*
X347145D01*
X347145Y186100D01*
Y181750D01*
X338676D01*
Y180694D01*
X328550D01*
Y184650D01*
X327054D01*
Y190254D01*
X327054Y190255D01*
X326879Y191133D01*
X326382Y191877D01*
X326382Y191877D01*
X320599Y197659D01*
X319855Y198157D01*
X318977Y198331D01*
X307347D01*
X306297Y199381D01*
X306673Y200802D01*
X307678Y201473D01*
X308563Y202796D01*
X308873Y204357D01*
X308563Y205918D01*
X307678Y207241D01*
X306355Y208125D01*
X304795Y208435D01*
X303234Y208125D01*
X302520Y207648D01*
X301250Y208327D01*
Y211344D01*
X301075Y212222D01*
X300578Y212966D01*
X290378Y223166D01*
X290643Y224500D01*
X290274Y226353D01*
X290259Y226376D01*
Y235626D01*
X291955D01*
X292109Y235690D01*
X292272Y235658D01*
X292300Y235663D01*
X292328Y235658D01*
X292491Y235690D01*
X292645Y235626D01*
X302250D01*
X302669Y235800D01*
X315559D01*
D02*
G37*
G36*
X360300Y235800D02*
X366500Y229600D01*
X366500Y216294D01*
X348450D01*
X346500Y218244D01*
Y223500D01*
X342244D01*
X337473Y228271D01*
Y232607D01*
X337702Y232760D01*
X338188Y233486D01*
X338656D01*
X339813Y232712D01*
X341179Y232441D01*
X342545Y232712D01*
X343702Y233486D01*
X344476Y234644D01*
X344706Y235800D01*
X360300Y235800D01*
D02*
G37*
G36*
X264126Y240091D02*
X264250Y239792D01*
Y236731D01*
X264126Y236432D01*
Y233841D01*
X264250Y233542D01*
Y230480D01*
X264126Y230182D01*
Y228124D01*
X243878D01*
Y231807D01*
X243844Y231888D01*
X243846Y231898D01*
X243824Y232011D01*
X243846Y232124D01*
X243844Y232135D01*
X243878Y232215D01*
Y236428D01*
X243776Y236672D01*
Y237054D01*
X243760D01*
Y238250D01*
X229616D01*
Y249000D01*
X264126D01*
X264126Y240091D01*
D02*
G37*
G36*
X245760Y196250D02*
Y188170D01*
X246330Y187600D01*
X256362D01*
X257260Y186702D01*
X257260Y181590D01*
X237600Y181590D01*
X228750Y181590D01*
Y171093D01*
X241852D01*
X242750Y170195D01*
X242750Y164654D01*
X242682Y164310D01*
X242750Y163965D01*
Y162100D01*
X215400Y162100D01*
X213000Y164500D01*
X162500Y164500D01*
Y171750D01*
Y173852D01*
X162000D01*
Y180999D01*
X155971D01*
X155750Y181043D01*
X154500D01*
Y184000D01*
X147500D01*
Y204500D01*
X161000D01*
Y186250D01*
X184750D01*
X184750Y190250D01*
X191750Y190250D01*
X192250Y190750D01*
X192750D01*
Y191250D01*
X193750Y192250D01*
Y198500D01*
X206750D01*
Y190250D01*
X206431Y189931D01*
X206352Y189898D01*
X201754Y185300D01*
X201000D01*
Y184500D01*
Y184048D01*
X200876Y183750D01*
Y174374D01*
X201000Y174075D01*
Y172750D01*
X224250D01*
Y187066D01*
X225000Y187681D01*
X226366Y187953D01*
X227523Y188727D01*
X228297Y189884D01*
X228569Y191250D01*
X228297Y192616D01*
X227579Y193691D01*
X227674Y194125D01*
X228032Y194961D01*
X230588D01*
X230738Y194736D01*
X231896Y193963D01*
X233261Y193691D01*
X234627Y193963D01*
X235785Y194736D01*
X236558Y195894D01*
X236830Y197260D01*
X236558Y198625D01*
X235785Y199783D01*
X234627Y200557D01*
X233261Y200828D01*
X231896Y200557D01*
X230738Y199783D01*
X230582Y199549D01*
X224250D01*
Y206250D01*
X245760Y206250D01*
X245760Y196250D01*
D02*
G37*
G36*
X135000Y204352D02*
Y197335D01*
X131835Y197335D01*
X124783Y190283D01*
X123852Y189897D01*
X123832Y189850D01*
X123650D01*
Y189410D01*
X123376Y188749D01*
Y183999D01*
X123650Y183339D01*
Y182650D01*
X124338D01*
X125000Y182376D01*
X129500D01*
Y176850D01*
X123650D01*
Y176750D01*
X115750D01*
X115750Y183706D01*
X116284Y184116D01*
X117606Y185839D01*
X118438Y187846D01*
X118721Y190000D01*
X118506Y191631D01*
X132125Y205250D01*
X134102Y205250D01*
X135000Y204352D01*
D02*
G37*
G36*
X221630Y190250D02*
X221703Y189884D01*
X222477Y188727D01*
X222500Y188711D01*
X222500Y174374D01*
X202500D01*
Y183750D01*
X207500Y188750D01*
X208250D01*
Y189291D01*
X209209Y190250D01*
X221630Y190250D01*
D02*
G37*
G36*
X143500Y175499D02*
X152000D01*
Y170749D01*
X133500D01*
Y183999D01*
X125000D01*
Y188749D01*
X143500D01*
Y175499D01*
D02*
G37*
G36*
X134750Y208000D02*
X132125D01*
X130624Y206499D01*
X130600D01*
Y206475D01*
X115250Y191125D01*
Y185436D01*
X115126Y185274D01*
X114762Y184994D01*
X114705Y184897D01*
X114602Y184854D01*
X114402Y184371D01*
X114140Y183918D01*
X114169Y183810D01*
X114126Y183706D01*
X114126Y176750D01*
X114602Y175602D01*
X114750Y175541D01*
Y175499D01*
X114850D01*
X115750Y175126D01*
X123650D01*
X123891Y175226D01*
X129500D01*
Y166750D01*
X113750D01*
X104700Y175800D01*
X104401Y177302D01*
X103568Y185754D01*
Y194246D01*
X104041Y199041D01*
X128500Y223500D01*
X134750D01*
Y208000D01*
D02*
G37*
G36*
X398700Y164102D02*
Y162611D01*
X398565Y162477D01*
X398022Y162369D01*
X397278Y161871D01*
X396906Y161499D01*
X394400D01*
Y155999D01*
X398700D01*
Y152550D01*
X395919Y152545D01*
X395020Y153442D01*
Y153874D01*
X392604D01*
X392230Y153949D01*
X392230Y153949D01*
X392145D01*
X391772Y153874D01*
X384270D01*
Y152522D01*
X373411Y152500D01*
X371500Y154412D01*
Y160000D01*
X383500D01*
Y160999D01*
X384895D01*
Y163629D01*
X386772D01*
X387145Y163555D01*
X387519Y163629D01*
X395020D01*
Y165000D01*
X397802Y165000D01*
X398700Y164102D01*
D02*
G37*
G36*
X288300Y177200D02*
X288300Y166653D01*
X288167Y166563D01*
X287393Y165406D01*
X287121Y164040D01*
X287393Y162674D01*
X288167Y161517D01*
X288300Y161427D01*
X288300Y141644D01*
X288231Y141300D01*
X288300Y140955D01*
Y139400D01*
X270650Y139400D01*
X261550Y148500D01*
X258683D01*
Y155700D01*
X251020D01*
X249750Y156666D01*
Y163965D01*
X249819Y164310D01*
X249750Y164655D01*
X249750Y170988D01*
X249762Y171000D01*
X252750D01*
Y177200D01*
X288300Y177200D01*
D02*
G37*
%LPC*%
G36*
X320009Y208435D02*
X318449Y208125D01*
X317126Y207241D01*
X316242Y205918D01*
X315931Y204357D01*
X316242Y202796D01*
X317126Y201473D01*
X318449Y200589D01*
X320009Y200279D01*
X321570Y200589D01*
X322893Y201473D01*
X323778Y202796D01*
X324088Y204357D01*
X323778Y205918D01*
X322893Y207241D01*
X321570Y208125D01*
X320009Y208435D01*
D02*
G37*
G36*
X336080Y192365D02*
X334519Y192055D01*
X333196Y191171D01*
X332312Y189848D01*
X332001Y188287D01*
X332312Y186726D01*
X333196Y185403D01*
X334519Y184519D01*
X336080Y184209D01*
X337640Y184519D01*
X338963Y185403D01*
X339847Y186726D01*
X340158Y188287D01*
X339847Y189848D01*
X338963Y191171D01*
X337640Y192055D01*
X336080Y192365D01*
D02*
G37*
G36*
X276600Y167609D02*
X275234Y167337D01*
X274077Y166563D01*
X273303Y165406D01*
X273031Y164040D01*
X273303Y162674D01*
X274077Y161517D01*
X275234Y160743D01*
X276600Y160471D01*
X277966Y160743D01*
X279123Y161517D01*
X279897Y162674D01*
X280169Y164040D01*
X279897Y165406D01*
X279123Y166563D01*
X277966Y167337D01*
X276600Y167609D01*
D02*
G37*
G36*
X273200Y157869D02*
X271834Y157597D01*
X270677Y156823D01*
X269903Y155666D01*
X269631Y154300D01*
X269903Y152934D01*
X270677Y151777D01*
X271834Y151003D01*
X273200Y150731D01*
X274566Y151003D01*
X275723Y151777D01*
X276497Y152934D01*
X276769Y154300D01*
X276497Y155666D01*
X275723Y156823D01*
X274566Y157597D01*
X273200Y157869D01*
D02*
G37*
%LPD*%
D11*
X324850Y155336D02*
X325464D01*
X329050Y151750D01*
X175500Y121559D02*
Y130250D01*
X360470Y162076D02*
X361660Y163267D01*
Y174240D01*
X363160Y175740D01*
X363660D01*
X343126Y178300D02*
X344926Y176500D01*
X350545Y167070D02*
Y174700D01*
X285800Y224222D02*
X286077D01*
X324759Y179940D02*
Y190255D01*
X318977Y196037D02*
X324759Y190255D01*
X306397Y196037D02*
X318977D01*
X306762Y193037D02*
X310745Y189055D01*
X298956Y203479D02*
X306397Y196037D01*
X305154Y193037D02*
X306762D01*
X310745Y167200D02*
Y189055D01*
X329256Y166764D02*
X329564Y167072D01*
X319300Y160750D02*
X325314Y166764D01*
X318800Y160750D02*
X319300D01*
X333262Y157538D02*
X334416D01*
X330050Y160750D02*
X333262Y157538D01*
X329550Y160750D02*
X330050D01*
X334967Y239533D02*
X337655D01*
X324000Y246500D02*
X328000D01*
X322000Y244500D02*
X324000Y246500D01*
X309500Y244500D02*
X322000D01*
X335179Y227321D02*
Y235283D01*
X337655Y239533D02*
X341179Y236009D01*
X162700Y129200D02*
X164000Y127900D01*
X168600D01*
X176000Y112559D02*
X182223Y118782D01*
X198498D01*
X175500Y112559D02*
X176000D01*
X171818Y108059D02*
X192275D01*
X162700Y117177D02*
X171818Y108059D01*
X192275D02*
X195749Y111532D01*
X357545Y188176D02*
Y192705D01*
Y187500D02*
Y188176D01*
X360470Y161400D02*
Y162076D01*
X328000Y246500D02*
X334967Y239533D01*
X295956Y202236D02*
X305154Y193037D01*
X296690Y164050D02*
Y170698D01*
X299000Y172630D02*
Y194949D01*
X296000Y171388D02*
Y192640D01*
Y171388D02*
X296690Y170698D01*
X285900Y204222D02*
X286579Y203543D01*
X289641Y199000D02*
X296000Y192640D01*
X286077Y224222D02*
X298956Y211344D01*
Y203479D02*
Y211344D01*
X286579Y203543D02*
X290406D01*
X310615Y167070D02*
X310745Y167200D01*
X275523Y214222D02*
X275800D01*
X277328Y199000D02*
X280328Y196000D01*
X286811D01*
X290690Y192120D01*
Y164040D02*
Y192120D01*
X286077Y214222D02*
X295956Y204344D01*
X276348Y204222D02*
X281571Y199000D01*
X299000Y172630D02*
X304561Y167070D01*
X290406Y203543D02*
X299000Y194949D01*
X281571Y199000D02*
X289641D01*
X273521Y199000D02*
X277328D01*
X275800Y204222D02*
X276348D01*
X296680Y164040D02*
X296690Y164050D01*
X270300Y202221D02*
Y209000D01*
X275523Y214222D01*
X270300Y202221D02*
X273521Y199000D01*
X295956Y202236D02*
Y204344D01*
X285900Y214222D02*
X286077D01*
X246250Y164310D02*
Y170732D01*
X248504Y172986D01*
Y175022D02*
X249254Y175772D01*
X248504Y172986D02*
Y175022D01*
X435220Y170900D02*
Y178820D01*
X309410Y151690D02*
X309470Y151750D01*
X318800D01*
X313260Y156350D02*
Y163575D01*
X360449Y150339D02*
Y155410D01*
Y150339D02*
X362500Y148289D01*
Y129250D02*
Y148289D01*
X368949Y153718D02*
X374433Y148234D01*
X361888Y160922D02*
X368949Y153860D01*
X374433Y148234D02*
X377016D01*
X343250Y218250D02*
Y219250D01*
X335179Y227321D02*
X343250Y219250D01*
X392000Y166879D02*
X392145D01*
X325314Y166764D02*
X329256D01*
X315259Y180360D02*
X315300Y180400D01*
X315259Y165574D02*
Y180360D01*
X324759Y179940D02*
X326300Y178400D01*
X342526D01*
X342926Y178000D01*
X363350Y207900D02*
X382323D01*
X363350Y206640D02*
Y207900D01*
X382323D02*
X384062Y209639D01*
X348745Y176500D02*
X350545Y174700D01*
X362050Y209200D02*
X363350Y207900D01*
X329399Y210700D02*
Y211200D01*
Y210700D02*
X330899Y209200D01*
X329399Y237999D02*
X329766Y237633D01*
Y211566D02*
Y237633D01*
X329399Y211200D02*
X329766Y211566D01*
X330899Y209200D02*
X362050D01*
X347500Y214000D02*
X399000D01*
X241700Y144300D02*
Y149450D01*
X242000Y149750D01*
X329050Y151750D02*
X329550D01*
X251754Y213250D02*
X257251D01*
X242754Y212750D02*
Y213250D01*
Y212750D02*
X244254Y211250D01*
X249254Y193372D02*
Y207432D01*
X244254Y211250D02*
X245436D01*
X249254Y207432D01*
X233257Y197255D02*
X233261Y197260D01*
X313260Y163575D02*
X315259Y165574D01*
X195749Y111532D02*
Y113282D01*
X363350Y206640D02*
X380740Y189250D01*
X387277D01*
X392145Y166879D02*
Y184382D01*
X387277Y189250D02*
X392145Y184382D01*
X384062Y209639D02*
X404000D01*
X356220Y186175D02*
X357545Y187500D01*
X403900Y196024D02*
X404180Y196304D01*
X403900Y164567D02*
Y196024D01*
X360470Y161400D02*
X360948Y160922D01*
X356220Y159640D02*
Y186175D01*
Y159640D02*
X360449Y155410D01*
X360948Y160922D02*
X361888D01*
X368949Y153718D02*
Y153860D01*
X389250Y123500D02*
Y136000D01*
X377016Y148234D02*
X389250Y136000D01*
X416319Y149700D02*
X421100D01*
X416219Y149600D02*
X416319Y149700D01*
X407649Y149600D02*
X416219D01*
X399582Y160249D02*
X403900Y164567D01*
X344926Y176500D02*
X348745D01*
X362500Y129250D02*
X369250Y122500D01*
X323250Y261000D02*
Y272250D01*
X202249Y160249D02*
X202250Y160250D01*
X343250Y218250D02*
X347500Y214000D01*
X398900Y160249D02*
X399582D01*
X397400Y158749D02*
X398900Y160249D01*
X397275Y158749D02*
X397400D01*
X334416Y157538D02*
X334894Y157059D01*
X178932Y198731D02*
X180188Y197475D01*
X178255Y198731D02*
X178932D01*
X180188Y197475D02*
X187775D01*
X138515Y193725D02*
X138530Y193710D01*
X157680Y176679D02*
X157750Y176749D01*
X157680Y170260D02*
Y176679D01*
X138515Y193725D02*
Y201234D01*
X138500Y201249D02*
X138515Y201234D01*
X150751Y178749D02*
X155750D01*
X157750Y176749D01*
X149750Y179750D02*
X150751Y178749D01*
X198498Y118782D02*
X202248Y115032D01*
X162700Y117177D02*
Y120200D01*
X147100Y128100D02*
X153645D01*
X147000Y128200D02*
X147100Y128100D01*
X187775Y197475D02*
X188000Y197250D01*
X191750Y140534D02*
Y146000D01*
X202248Y113282D02*
Y115032D01*
X202249Y152783D02*
Y160249D01*
X187498Y136282D02*
X191750Y140534D01*
X185749Y136282D02*
X187498D01*
X212500Y197250D02*
X212505Y197255D01*
X233257D01*
X224324Y191250D02*
X225000D01*
X222323Y193250D02*
X224324Y191250D01*
X212500Y193250D02*
X222323D01*
X322250Y273250D02*
X323250Y272250D01*
X202248Y152782D02*
X202249Y152783D01*
X225249Y142782D02*
X227032D01*
X234000Y149750D01*
X307750Y273250D02*
X322250D01*
D12*
X231506Y253954D02*
X231802D01*
X231276Y254184D02*
X231506Y253954D01*
X231276Y254184D02*
Y264224D01*
X230750Y264750D02*
X231276Y264224D01*
X147371Y136829D02*
X169124D01*
X260926Y123800D02*
X277800D01*
X258808Y121682D02*
X260926Y123800D01*
X248500Y121682D02*
X258808D01*
X277800Y123800D02*
X278027Y124027D01*
X287973D02*
X288200Y124254D01*
X278027Y124027D02*
X287973D01*
X169124Y136829D02*
X170315Y138020D01*
X174270D01*
X175500Y139250D01*
X414740Y181150D02*
Y181545D01*
X415170Y181975D01*
Y185220D01*
X416500Y186550D01*
X377821Y169421D02*
X378100Y169700D01*
X377369Y169421D02*
X377821D01*
X376767Y168819D02*
X377369Y169421D01*
X376767Y167617D02*
Y168819D01*
X374100Y164949D02*
X376767Y167617D01*
X374100Y164949D02*
X375300Y163749D01*
X382020D01*
X381700Y174500D02*
X381979Y174221D01*
X385925D01*
X387145Y173000D01*
X197999Y125533D02*
X205499D01*
X179340Y204940D02*
X179735D01*
X291800Y141300D02*
X292079Y141579D01*
Y153329D01*
X294200Y155450D01*
X398471Y189529D02*
X398750Y189250D01*
X398471Y189529D02*
Y193329D01*
X397800Y194000D02*
X398471Y193329D01*
X420805Y139800D02*
X421200D01*
X420335Y140270D02*
X420805Y139800D01*
X417549Y140270D02*
X420335D01*
X416219Y141600D02*
X417549Y140270D01*
X409940Y106059D02*
X410220Y105779D01*
X409940Y106059D02*
Y109385D01*
X408876Y110450D02*
X409940Y109385D01*
X254583Y144382D02*
Y151600D01*
X248500Y144382D02*
X254583D01*
X336280Y127470D02*
X338750Y125000D01*
X336280Y127470D02*
Y130052D01*
X335300Y131032D02*
X336280Y130052D01*
X262220Y161379D02*
X264499Y159100D01*
X262220Y161379D02*
Y189120D01*
X244186Y175840D02*
X244254Y175772D01*
X233256Y175840D02*
X244186D01*
X418000Y156100D02*
X434420D01*
X435220Y156900D01*
X381300Y180500D02*
X381550Y180750D01*
X386895D01*
X387145Y181000D01*
X327400Y145105D02*
Y145500D01*
Y145105D02*
X328332Y144173D01*
Y141580D02*
Y144173D01*
Y141580D02*
X330162Y139750D01*
X387145Y166379D02*
Y173000D01*
X392600Y205200D02*
X392879Y204921D01*
X203150Y254850D02*
X204000Y255700D01*
X195700Y246250D02*
Y254000D01*
X204000Y255700D02*
Y263617D01*
X195700Y254000D02*
X196550Y254850D01*
X203150D01*
X152280Y255047D02*
X165252Y268020D01*
X199598D02*
X204000Y263617D01*
X165252Y268020D02*
X199598D01*
X431100Y108500D02*
Y113500D01*
X424300Y108500D02*
Y108895D01*
X423830Y109365D02*
X424300Y108895D01*
X423830Y109365D02*
Y112170D01*
X422500Y113500D02*
X423830Y112170D01*
X422500Y121500D02*
X431100D01*
X422500D02*
Y127006D01*
X394879Y204921D02*
X397800Y202000D01*
X392879Y204921D02*
X394879D01*
X409790Y194170D02*
X416120D01*
X416500Y194550D01*
X429250Y203875D02*
Y209750D01*
X408200Y125700D02*
X408479Y125421D01*
Y119396D02*
Y125421D01*
Y119396D02*
X408876Y119000D01*
X400280Y125105D02*
Y125500D01*
Y125105D02*
X400826Y124559D01*
Y119050D02*
Y124559D01*
Y119050D02*
X400876Y119000D01*
Y110450D02*
Y119000D01*
X402800Y141600D02*
X407649D01*
X419330Y167870D02*
X421835D01*
X424205Y165500D01*
X418000Y169200D02*
X419330Y167870D01*
X424205Y165500D02*
X424600D01*
X418000Y156100D02*
Y161200D01*
X418000Y161200D01*
X402000Y155000D02*
X402279Y155279D01*
X402829D01*
X408750Y161200D01*
Y169200D02*
X418000D01*
X350919Y187912D02*
X351295Y188287D01*
X350919Y182375D02*
Y187912D01*
X350545Y182000D02*
X350919Y182375D01*
X429260Y189900D02*
X429270Y189890D01*
X434690Y187130D02*
X434969Y187409D01*
X438559D01*
X438900Y187750D01*
X429260Y189900D02*
Y195865D01*
X429250Y195875D02*
X429260Y195865D01*
X315775Y256900D02*
X316170D01*
X312705Y253830D02*
X315775Y256900D01*
X309500Y252500D02*
X310830Y253830D01*
X293750Y273250D02*
X293900Y273400D01*
X299600D01*
X208748Y113282D02*
Y118690D01*
X396151Y148709D02*
X396430Y148430D01*
X394645Y148709D02*
X396151D01*
X310830Y253830D02*
X312705D01*
X392230Y151124D02*
X394645Y148709D01*
X392145Y151124D02*
X392230D01*
X216897Y201480D02*
X218908Y203491D01*
Y213250D01*
X212730Y201480D02*
X216897D01*
X212500Y201250D02*
X212730Y201480D01*
X438900Y195750D02*
Y201000D01*
X152280Y253020D02*
Y255047D01*
X150050Y253000D02*
X152260D01*
X152280Y253020D01*
X180250Y192125D02*
X181375Y193250D01*
X188000D01*
X179735Y204940D02*
X183195Y201480D01*
X187770D02*
X188000Y201250D01*
X183195Y201480D02*
X187770D01*
X215249Y106490D02*
Y113282D01*
X346750Y125000D02*
X349250Y122500D01*
X338750Y125000D02*
X346750D01*
X140620Y248980D02*
X146860D01*
X146510Y241670D02*
X147820Y242980D01*
X139100Y240500D02*
X140270Y241670D01*
X146510D01*
X146860Y248980D02*
X147820Y248020D01*
X139100Y250500D02*
X140620Y248980D01*
X147000Y137200D02*
X147371Y136829D01*
X195749Y123282D02*
X197999Y125533D01*
X185749Y123282D02*
X195749D01*
X208748Y152782D02*
Y160250D01*
X166248Y145500D02*
Y152782D01*
X204750Y213250D02*
X211908D01*
X211908Y213250D01*
X299600Y273400D02*
X299750Y273250D01*
X151000Y220250D02*
X151000Y220250D01*
X140500Y220250D02*
X151000D01*
X138630Y218379D02*
X140500Y220250D01*
X143500Y211749D02*
X152250D01*
X138500D02*
X138630Y211879D01*
Y218379D01*
D14*
X175250Y145500D02*
Y152781D01*
X175249Y152782D02*
X175250Y152781D01*
X175249Y152782D02*
X195749D01*
D23*
X309500Y252500D02*
D03*
Y244500D02*
D03*
X351245Y182000D02*
D03*
Y174000D02*
D03*
X177250Y259250D02*
D03*
Y251250D02*
D03*
X139100Y249500D02*
D03*
Y241500D02*
D03*
X204000Y255700D02*
D03*
Y247700D02*
D03*
X422500Y113500D02*
D03*
Y121500D02*
D03*
X416500Y194550D02*
D03*
Y186550D02*
D03*
X397800Y202000D02*
D03*
Y194000D02*
D03*
X374100Y156949D02*
D03*
Y164949D02*
D03*
X387145Y181000D02*
D03*
Y173000D02*
D03*
X418000Y161200D02*
D03*
Y169200D02*
D03*
X416219Y141600D02*
D03*
Y149600D02*
D03*
X179610Y183625D02*
D03*
Y191625D02*
D03*
X171068Y183250D02*
D03*
Y191250D02*
D03*
X407649Y141600D02*
D03*
Y149600D02*
D03*
X248500Y129682D02*
D03*
Y121682D02*
D03*
Y136382D02*
D03*
Y144382D02*
D03*
X239676Y240954D02*
D03*
Y232954D02*
D03*
X204850Y241000D02*
D03*
Y233000D02*
D03*
X438900Y195750D02*
D03*
Y187750D02*
D03*
X429250Y203875D02*
D03*
Y195875D02*
D03*
X431100Y113500D02*
D03*
Y121500D02*
D03*
X408750Y161200D02*
D03*
Y169200D02*
D03*
D24*
X299750Y273550D02*
D03*
X307750D02*
D03*
X132000Y220249D02*
D03*
X140000D02*
D03*
X230750Y264750D02*
D03*
X222750D02*
D03*
X254583Y151600D02*
D03*
X262583D02*
D03*
X329662Y139750D02*
D03*
X321662D02*
D03*
X408876Y119000D02*
D03*
X400876D02*
D03*
X408876Y110450D02*
D03*
X400876D02*
D03*
D25*
X335300Y131032D02*
D03*
X328500D02*
D03*
D26*
X342750Y219250D02*
D03*
X351750D02*
D03*
X329399Y211200D02*
D03*
X320399D02*
D03*
X324800Y180400D02*
D03*
X315800D02*
D03*
X151500Y220250D02*
D03*
X160500D02*
D03*
X241750Y136982D02*
D03*
X232750D02*
D03*
X241750Y128782D02*
D03*
X232750D02*
D03*
X233000Y149750D02*
D03*
X242000D02*
D03*
X251754Y213250D02*
D03*
X242754D02*
D03*
X219908D02*
D03*
X210908D02*
D03*
D44*
X175249Y152782D02*
D03*
X166248D02*
D03*
D45*
X147000Y128200D02*
D03*
Y137200D02*
D03*
X175500Y130250D02*
D03*
Y139250D02*
D03*
D48*
X110400Y190000D02*
D03*
X273600D02*
D03*
D49*
X275800Y204500D02*
D03*
Y224500D02*
D03*
Y214500D02*
D03*
X285800D02*
D03*
Y224500D02*
D03*
Y204500D02*
D03*
D51*
X321562Y138429D02*
Y139750D01*
X298800Y143900D02*
X317512D01*
X321662Y139750D01*
X321162Y131032D02*
Y138029D01*
Y131032D02*
X328500D01*
X321162Y138029D02*
X321562Y138429D01*
D53*
X399999Y230000D02*
D03*
X307499Y115000D02*
D03*
X427499Y225000D02*
D03*
X387499Y235000D02*
D03*
X437499Y225000D02*
D03*
X387499Y245000D02*
D03*
X382499Y255000D02*
D03*
X265000Y140000D02*
D03*
X389999Y260000D02*
D03*
X372499Y255000D02*
D03*
X392499Y225000D02*
D03*
X399999Y220000D02*
D03*
X407499Y225000D02*
D03*
X417499D02*
D03*
X338461Y267209D02*
D03*
X353130Y270503D02*
D03*
X348506Y265879D02*
D03*
X344071Y261071D02*
D03*
X343126Y254600D02*
D03*
X358966Y260493D02*
D03*
X324850Y155336D02*
D03*
X306900Y132200D02*
D03*
X311143Y127957D02*
D03*
X179340Y204940D02*
D03*
X335179Y235283D02*
D03*
X341179Y236009D02*
D03*
X278900Y180800D02*
D03*
X276600Y164040D02*
D03*
X273200Y154300D02*
D03*
X264499Y159100D02*
D03*
X285300Y191500D02*
D03*
X262763Y232011D02*
D03*
X288200Y124254D02*
D03*
X254583Y144382D02*
D03*
X321162Y131032D02*
D03*
X291800Y141300D02*
D03*
X327400Y145500D02*
D03*
X313260Y156350D02*
D03*
X296690Y164040D02*
D03*
X290690D02*
D03*
X304561Y167070D02*
D03*
X309410Y151690D02*
D03*
X357778Y147000D02*
D03*
X364699Y152100D02*
D03*
X310745Y167070D02*
D03*
X329564Y167072D02*
D03*
X325516Y225572D02*
D03*
X329399Y237999D02*
D03*
X241700Y144300D02*
D03*
X233261Y197260D02*
D03*
X257251Y213250D02*
D03*
X370200Y186700D02*
D03*
X357545Y188176D02*
D03*
X382500Y193500D02*
D03*
X370681Y176514D02*
D03*
X378000Y200000D02*
D03*
X392600Y205200D02*
D03*
X431100Y108500D02*
D03*
X424300D02*
D03*
X408200Y125700D02*
D03*
X422500Y127006D02*
D03*
X381300Y180500D02*
D03*
X384250Y200000D02*
D03*
X399000Y214000D02*
D03*
X404000Y209639D02*
D03*
X404180Y196304D02*
D03*
X408200Y188350D02*
D03*
X409790Y194170D02*
D03*
X429250Y209750D02*
D03*
X398750Y189250D02*
D03*
X381700Y174500D02*
D03*
X378100Y169700D02*
D03*
X360470Y161400D02*
D03*
X389650Y155690D02*
D03*
X354099Y155440D02*
D03*
X368550Y170509D02*
D03*
X421200Y139800D02*
D03*
Y133500D02*
D03*
X401100Y133300D02*
D03*
X400280Y125500D02*
D03*
X402800Y141600D02*
D03*
X421100Y149700D02*
D03*
X424600Y165500D02*
D03*
X418000Y156100D02*
D03*
X350545Y167070D02*
D03*
X334834Y157059D02*
D03*
X262220Y189120D02*
D03*
X246250Y164310D02*
D03*
X434690Y187130D02*
D03*
X319868Y234898D02*
D03*
X298000Y240500D02*
D03*
X208748Y160350D02*
D03*
X202250Y160250D02*
D03*
X421500Y181250D02*
D03*
X316170Y256900D02*
D03*
X435220Y178820D02*
D03*
X396430Y148430D02*
D03*
X335840Y150890D02*
D03*
X361822Y228522D02*
D03*
X413250Y205750D02*
D03*
X438900Y201000D02*
D03*
X429270Y189890D02*
D03*
X238851Y263010D02*
D03*
X212800Y267500D02*
D03*
X212900Y261500D02*
D03*
X178255Y198731D02*
D03*
X157680Y170260D02*
D03*
X138530Y193710D02*
D03*
X215249Y106490D02*
D03*
X414740Y181150D02*
D03*
X338750Y125000D02*
D03*
X168600Y127900D02*
D03*
X153645Y128100D02*
D03*
X168450Y136550D02*
D03*
X362720Y255436D02*
D03*
Y249436D02*
D03*
X362900Y243437D02*
D03*
X191750Y146000D02*
D03*
X292300Y233750D02*
D03*
X410220Y105779D02*
D03*
X237500Y108000D02*
D03*
Y116750D02*
D03*
X219750Y177840D02*
D03*
X215150Y182670D02*
D03*
X219750Y187500D02*
D03*
X175250Y145500D02*
D03*
X166248D02*
D03*
X274400Y233750D02*
D03*
X402000Y155000D02*
D03*
X256250Y264750D02*
D03*
X262763Y238262D02*
D03*
X225000Y191250D02*
D03*
X245782Y238262D02*
D03*
Y232011D02*
D03*
X293750Y273250D02*
D03*
X219750Y234500D02*
D03*
X224500Y229960D02*
D03*
X195250D02*
D03*
X189400Y234500D02*
D03*
X298000Y254500D02*
D03*
X323250Y261000D02*
D03*
X291750Y254500D02*
D03*
X298000Y247500D02*
D03*
X291750D02*
D03*
Y240500D02*
D03*
X185750Y248750D02*
D03*
Y255000D02*
D03*
X204750Y213250D02*
D03*
X208748Y118690D02*
D03*
D54*
X304795Y188287D02*
D03*
Y204357D02*
D03*
X320009Y173072D02*
D03*
Y188287D02*
D03*
Y204357D02*
D03*
Y219572D02*
D03*
X336080Y173072D02*
D03*
Y188287D02*
D03*
Y204357D02*
D03*
Y219572D02*
D03*
X351295Y188287D02*
D03*
Y204357D02*
D03*
X205499Y125533D02*
D03*
Y140533D02*
D03*
X197999Y133033D02*
D03*
X212999D02*
D03*
D62*
X298800Y143900D02*
D03*
X284800D02*
D03*
X294200Y155950D02*
D03*
X280200D02*
D03*
X242254Y202750D02*
D03*
X256254D02*
D03*
X239250Y166550D02*
D03*
X253250D02*
D03*
D63*
X277800Y128800D02*
D03*
Y133800D02*
D03*
Y123800D02*
D03*
D64*
X318800Y160750D02*
D03*
Y151750D02*
D03*
X329550Y160750D02*
D03*
Y151750D02*
D03*
X342926Y178000D02*
D03*
Y187000D02*
D03*
X119000Y170249D02*
D03*
Y179249D02*
D03*
X157750Y186249D02*
D03*
Y177249D02*
D03*
X152250Y202249D02*
D03*
Y211249D02*
D03*
X162700Y120200D02*
D03*
Y129200D02*
D03*
X175500Y112559D02*
D03*
Y121559D02*
D03*
X358267Y192650D02*
D03*
Y201650D02*
D03*
X363660Y175740D02*
D03*
Y184740D02*
D03*
X195700Y246250D02*
D03*
Y237250D02*
D03*
Y263000D02*
D03*
Y254000D02*
D03*
X233256Y184840D02*
D03*
Y175840D02*
D03*
D65*
X263800Y133800D02*
D03*
Y128800D02*
D03*
Y123800D02*
D03*
D66*
X435220Y156900D02*
D03*
Y170900D02*
D03*
X178000Y227216D02*
D03*
Y241216D02*
D03*
D67*
X369250Y123500D02*
D03*
X349250D02*
D03*
X389250D02*
D03*
D68*
X149750Y179750D02*
D03*
Y173250D02*
D03*
Y186250D02*
D03*
X127250D02*
D03*
Y173250D02*
D03*
Y179750D02*
D03*
D69*
X138500Y174750D02*
D03*
Y184750D02*
D03*
D70*
X143500Y201749D02*
D03*
D71*
X138500Y201249D02*
D03*
X133500D02*
D03*
X143500Y211749D02*
D03*
X138500D02*
D03*
X133500D02*
D03*
D72*
X205250Y180550D02*
D03*
X195250D02*
D03*
D73*
X185749Y142782D02*
D03*
Y136282D02*
D03*
Y129782D02*
D03*
Y123282D02*
D03*
X225249D02*
D03*
Y129782D02*
D03*
Y136282D02*
D03*
Y142782D02*
D03*
D74*
X195749Y113282D02*
D03*
X202248D02*
D03*
X208748D02*
D03*
X215249D02*
D03*
Y152782D02*
D03*
X208748D02*
D03*
X202248D02*
D03*
X195749D02*
D03*
D75*
X205499Y133032D02*
D03*
D76*
X222052Y247454D02*
D03*
D77*
X231802Y253954D02*
D03*
Y247454D02*
D03*
Y240954D02*
D03*
X212302Y253954D02*
D03*
Y247454D02*
D03*
Y240954D02*
D03*
D78*
X244254Y193372D02*
D03*
X249254D02*
D03*
X254254D02*
D03*
X244254Y175772D02*
D03*
X249254D02*
D03*
X254254D02*
D03*
D79*
X249254Y184572D02*
D03*
D80*
X200250Y197250D02*
D03*
D81*
X188000Y189250D02*
D03*
Y193250D02*
D03*
Y197250D02*
D03*
Y201250D02*
D03*
Y205250D02*
D03*
X212500Y189250D02*
D03*
Y193250D02*
D03*
Y197250D02*
D03*
Y201250D02*
D03*
Y205250D02*
D03*
D82*
X159300Y248000D02*
D03*
D83*
X168550Y253000D02*
D03*
Y248000D02*
D03*
Y243000D02*
D03*
X150050Y253000D02*
D03*
Y248000D02*
D03*
Y243000D02*
D03*
D84*
X324000Y271500D02*
D03*
Y246500D02*
D03*
D85*
X387145Y166379D02*
D03*
X392145D02*
D03*
Y151124D02*
D03*
X387145D02*
D03*
D86*
X397275Y163749D02*
D03*
Y158749D02*
D03*
Y153749D02*
D03*
X382020D02*
D03*
Y158749D02*
D03*
Y163749D02*
D03*
D87*
X310921Y127736D02*
X311143Y127957D01*
X309748Y127736D02*
X310921D01*
X306454Y124442D02*
X309748Y127736D01*
X297249Y124442D02*
X306454D01*
X292516Y129175D02*
X297249Y124442D01*
X283714Y129175D02*
X292516D01*
X283419Y128879D02*
X283714Y129175D01*
X277880Y128879D02*
X283419D01*
X277800Y128800D02*
X277880Y128879D01*
X306678Y131978D02*
X306900Y132200D01*
X306678Y130805D02*
Y131978D01*
X304656Y128783D02*
X306678Y130805D01*
X299047Y128783D02*
X304656D01*
X294314Y133516D02*
X299047Y128783D01*
X282964Y133516D02*
X294314D01*
X282760Y133721D02*
X282964Y133516D01*
X277880Y133721D02*
X282760D01*
X277800Y133800D02*
X277880Y133721D01*
X248200Y136682D02*
X248500Y136382D01*
X242050Y136682D02*
X248200D01*
X241750Y136982D02*
X242050Y136682D01*
X248050Y129232D02*
X248500Y129682D01*
X242200Y129232D02*
X248050D01*
X241750Y128782D02*
X242200Y129232D01*
X263770Y128830D02*
X263800Y128800D01*
X259768Y128830D02*
X263770D01*
X259109Y129489D02*
X259768Y128830D01*
X257198Y129489D02*
X259109D01*
X256543Y130144D02*
X257198Y129489D01*
X248962Y130144D02*
X256543D01*
X248500Y129682D02*
X248962Y130144D01*
X263770Y133830D02*
X263800Y133800D01*
X258996Y133830D02*
X263770D01*
X258341Y134485D02*
X258996Y133830D01*
X253027Y134485D02*
X258341D01*
X252309Y135203D02*
X253027Y134485D01*
X249680Y135203D02*
X252309D01*
X248500Y136382D02*
X249680Y135203D01*
X231750Y129782D02*
X232750Y128782D01*
X225249Y129782D02*
X231750D01*
X232050Y136282D02*
X232750Y136982D01*
X225249Y136282D02*
X232050D01*
M02*
