G04*
G04 #@! TF.GenerationSoftware,Altium Limited,Altium Designer,23.6.0 (18)*
G04*
G04 Layer_Physical_Order=3*
G04 Layer_Color=16737945*
%FSLAX44Y44*%
%MOMM*%
G71*
G04*
G04 #@! TF.SameCoordinates,CC53E28F-54C9-42A3-9587-E9B5384F7771*
G04*
G04*
G04 #@! TF.FilePolarity,Positive*
G04*
G01*
G75*
%ADD11C,0.1500*%
%ADD12C,0.2540*%
%ADD48C,1.3500*%
%ADD61C,0.4500*%
G36*
X340200Y276432D02*
D01*
Y272163D01*
X340014Y271876D01*
X338988Y271185D01*
X338950Y271185D01*
X338461Y271217D01*
X337938Y271183D01*
X337750Y271145D01*
X337424Y271081D01*
X336927Y270912D01*
X336457Y270680D01*
X336021Y270389D01*
X335627Y270043D01*
X335281Y269649D01*
X334990Y269213D01*
X334758Y268743D01*
X334589Y268246D01*
X334524Y267920D01*
X334487Y267732D01*
X334453Y267209D01*
X334487Y266685D01*
X334524Y266497D01*
X334589Y266171D01*
X334758Y265675D01*
X334990Y265204D01*
X335281Y264768D01*
X335627Y264374D01*
X336021Y264028D01*
X336457Y263737D01*
X336927Y263505D01*
X337424Y263337D01*
X337750Y263272D01*
X337938Y263234D01*
X338461Y263200D01*
X338950Y263232D01*
X338988Y263232D01*
X340014Y262541D01*
X340200Y262255D01*
Y262181D01*
X340200Y262181D01*
Y262112D01*
X340200Y262112D01*
Y262111D01*
X340199Y262109D01*
X340135Y261783D01*
X340097Y261595D01*
X340063Y261071D01*
X340097Y260548D01*
X340135Y260360D01*
X340199Y260034D01*
X340200Y260032D01*
Y260031D01*
X340200Y260031D01*
Y257421D01*
X340200Y257421D01*
Y257330D01*
X339946Y257041D01*
X339655Y256604D01*
X339423Y256134D01*
X339254Y255638D01*
X339189Y255312D01*
X339152Y255123D01*
X339117Y254600D01*
X339152Y254077D01*
X339189Y253889D01*
X339254Y253563D01*
X339423Y253066D01*
X339655Y252596D01*
X339946Y252160D01*
X340291Y251766D01*
X340686Y251420D01*
X341122Y251129D01*
X341592Y250897D01*
X342089Y250728D01*
X342603Y250626D01*
X343126Y250592D01*
X343649Y250626D01*
X344164Y250728D01*
X344660Y250897D01*
X345020Y251074D01*
X379894Y216200D01*
X394231Y216200D01*
X394427Y216078D01*
X395105Y215072D01*
X395111Y214950D01*
X395026Y214523D01*
X394991Y214000D01*
X395026Y213477D01*
X395128Y212963D01*
X395297Y212466D01*
X395528Y211996D01*
X395820Y211560D01*
X396166Y211166D01*
X396560Y210820D01*
X396996Y210529D01*
X397466Y210297D01*
X397962Y210128D01*
X398477Y210026D01*
X398763Y210007D01*
X399686Y209731D01*
X400026Y209116D01*
X400128Y208602D01*
X400297Y208106D01*
X400528Y207635D01*
X400820Y207199D01*
X401166Y206805D01*
X401560Y206459D01*
X401996Y206168D01*
X402466Y205936D01*
X402962Y205768D01*
X403477Y205665D01*
X404000Y205631D01*
X404523Y205665D01*
X405037Y205768D01*
X405534Y205936D01*
X406004Y206168D01*
X406440Y206459D01*
X406834Y206805D01*
X407180Y207199D01*
X407472Y207635D01*
X407704Y208106D01*
X407872Y208602D01*
X407974Y209116D01*
X408009Y209639D01*
X407974Y210163D01*
X407872Y210677D01*
X407704Y211173D01*
X407472Y211644D01*
X407180Y212080D01*
X406834Y212474D01*
X406440Y212820D01*
X406004Y213111D01*
X405534Y213343D01*
X405037Y213512D01*
X404523Y213614D01*
X404237Y213633D01*
X403314Y213909D01*
X402974Y214523D01*
X402889Y214950D01*
X402895Y215072D01*
X403573Y216078D01*
X403769Y216200D01*
X441432Y216200D01*
Y205605D01*
X440889Y205115D01*
X440182Y204789D01*
X439938Y204872D01*
X439423Y204974D01*
X438900Y205009D01*
X438377Y204974D01*
X437863Y204872D01*
X437366Y204704D01*
X436896Y204471D01*
X436460Y204180D01*
X436065Y203834D01*
X435720Y203440D01*
X435429Y203004D01*
X435197Y202534D01*
X435028Y202038D01*
X434926Y201523D01*
X434891Y201000D01*
X434926Y200477D01*
X435028Y199963D01*
X435197Y199466D01*
X435429Y198996D01*
X435720Y198560D01*
X436065Y198165D01*
X436460Y197820D01*
X436896Y197528D01*
X437366Y197297D01*
X437863Y197128D01*
X438377Y197026D01*
X438900Y196991D01*
X439423Y197026D01*
X439938Y197128D01*
X440182Y197211D01*
X440889Y196885D01*
X441432Y196395D01*
Y103568D01*
X432905D01*
X432634Y104797D01*
X433104Y105028D01*
X433540Y105320D01*
X433935Y105666D01*
X434280Y106060D01*
X434571Y106496D01*
X434803Y106966D01*
X434972Y107463D01*
X435074Y107977D01*
X435109Y108500D01*
X435074Y109023D01*
X434972Y109537D01*
X434803Y110034D01*
X434571Y110504D01*
X434280Y110940D01*
X433935Y111334D01*
X433540Y111680D01*
X433104Y111972D01*
X432634Y112204D01*
X432137Y112372D01*
X431623Y112474D01*
X431100Y112509D01*
X430577Y112474D01*
X430062Y112372D01*
X429566Y112204D01*
X429096Y111972D01*
X428660Y111680D01*
X428552Y111586D01*
X428135Y111334D01*
X427265D01*
X426848Y111586D01*
X426740Y111680D01*
X426304Y111972D01*
X425834Y112204D01*
X425337Y112372D01*
X424823Y112474D01*
X424300Y112509D01*
X423777Y112474D01*
X423262Y112372D01*
X422766Y112204D01*
X422296Y111972D01*
X421860Y111680D01*
X421465Y111334D01*
X421120Y110940D01*
X420829Y110504D01*
X420597Y110034D01*
X420428Y109537D01*
X420326Y109023D01*
X420291Y108500D01*
X420326Y107977D01*
X420428Y107463D01*
X420597Y106966D01*
X420829Y106496D01*
X421120Y106060D01*
X421465Y105666D01*
X421860Y105320D01*
X422296Y105028D01*
X422766Y104797D01*
X422495Y103568D01*
X414983D01*
X414781Y103698D01*
X414108Y104718D01*
X414107Y104818D01*
X414194Y105256D01*
X414228Y105779D01*
X414194Y106302D01*
X414092Y106817D01*
X413923Y107313D01*
X413691Y107783D01*
X413400Y108219D01*
X413054Y108614D01*
X412660Y108959D01*
X412224Y109251D01*
X411754Y109483D01*
X411257Y109651D01*
X410743Y109753D01*
X410220Y109788D01*
X409697Y109753D01*
X409182Y109651D01*
X408686Y109483D01*
X408215Y109251D01*
X407780Y108959D01*
X407385Y108614D01*
X407040Y108219D01*
X406748Y107783D01*
X406516Y107313D01*
X406348Y106817D01*
X406245Y106302D01*
X406211Y105779D01*
X406245Y105256D01*
X406333Y104818D01*
X406332Y104718D01*
X405659Y103698D01*
X405456Y103568D01*
X356000D01*
X356000Y142059D01*
X356216Y142371D01*
X357250Y143027D01*
X357255Y143026D01*
X357778Y142992D01*
X358301Y143026D01*
X358816Y143128D01*
X359312Y143297D01*
X359782Y143528D01*
X360219Y143820D01*
X360613Y144165D01*
X360958Y144560D01*
X361250Y144996D01*
X361482Y145466D01*
X361650Y145962D01*
X361753Y146477D01*
X361787Y147000D01*
X361753Y147523D01*
X361699Y147790D01*
X362278Y148365D01*
X362785Y148584D01*
X363165Y148396D01*
X363662Y148228D01*
X364176Y148125D01*
X364699Y148091D01*
X365223Y148125D01*
X365737Y148228D01*
X366233Y148396D01*
X366704Y148628D01*
X367140Y148919D01*
X367534Y149265D01*
X367879Y149659D01*
X368171Y150095D01*
X368403Y150566D01*
X368571Y151062D01*
X368674Y151576D01*
X368708Y152100D01*
X368674Y152623D01*
X368630Y152839D01*
X374896Y159104D01*
X374896Y159104D01*
X375126Y159374D01*
X375311Y159676D01*
X375446Y160003D01*
X375529Y160347D01*
X375557Y160700D01*
X375557Y160701D01*
Y173084D01*
X375557Y173084D01*
X375529Y173437D01*
X375446Y173781D01*
X375311Y174109D01*
X375126Y174410D01*
X374896Y174680D01*
X374896Y174680D01*
X374438Y175137D01*
X374553Y175477D01*
X374656Y175991D01*
X374690Y176514D01*
X374656Y177037D01*
X374553Y177551D01*
X374385Y178048D01*
X374153Y178518D01*
X373862Y178954D01*
X373516Y179349D01*
X373122Y179694D01*
X372686Y179986D01*
X372215Y180217D01*
X371719Y180386D01*
X371205Y180488D01*
X370681Y180523D01*
X370158Y180488D01*
X369644Y180386D01*
X369147Y180217D01*
X368677Y179986D01*
X368241Y179694D01*
X367847Y179349D01*
X367501Y178954D01*
X367210Y178518D01*
X366978Y178048D01*
X366810Y177551D01*
X366707Y177037D01*
X366673Y176514D01*
X366707Y175991D01*
X366810Y175477D01*
X366814Y175464D01*
X366996Y174339D01*
X366546Y173981D01*
X366110Y173690D01*
X365715Y173344D01*
X365370Y172950D01*
X365078Y172514D01*
X364846Y172043D01*
X364678Y171547D01*
X364576Y171033D01*
X364541Y170509D01*
X364576Y169986D01*
X364678Y169472D01*
X364846Y168976D01*
X365078Y168505D01*
X365370Y168069D01*
X365715Y167675D01*
X366110Y167329D01*
X366293Y167207D01*
Y163822D01*
X365369Y162910D01*
X364855Y162920D01*
X364038Y163210D01*
X363941Y163404D01*
X363650Y163840D01*
X363304Y164235D01*
X362910Y164580D01*
X362474Y164872D01*
X362004Y165103D01*
X361507Y165272D01*
X360993Y165374D01*
X360470Y165409D01*
X359947Y165374D01*
X359432Y165272D01*
X358936Y165103D01*
X358466Y164872D01*
X358030Y164580D01*
X357635Y164235D01*
X357290Y163840D01*
X356998Y163404D01*
X356767Y162934D01*
X356598Y162437D01*
X356496Y161923D01*
X356461Y161400D01*
X356496Y160877D01*
X356598Y160362D01*
X356767Y159866D01*
X356998Y159396D01*
X357290Y158960D01*
X357635Y158566D01*
X358030Y158220D01*
X358466Y157928D01*
X358660Y157832D01*
X358950Y157015D01*
X358963Y156367D01*
X356182Y153587D01*
X355952Y153317D01*
X355767Y153015D01*
X355632Y152688D01*
X355549Y152344D01*
X355521Y151991D01*
Y150303D01*
X355338Y150180D01*
X354944Y149834D01*
X354598Y149440D01*
X354307Y149004D01*
X354088Y148561D01*
X347250Y148561D01*
Y162976D01*
X347427Y163165D01*
X348500Y163625D01*
X348540Y163598D01*
X349011Y163367D01*
X349507Y163198D01*
X350021Y163096D01*
X350545Y163061D01*
X351068Y163096D01*
X351582Y163198D01*
X352079Y163367D01*
X352549Y163598D01*
X352985Y163890D01*
X353379Y164235D01*
X353725Y164630D01*
X354016Y165066D01*
X354248Y165536D01*
X354417Y166033D01*
X354519Y166547D01*
X354553Y167070D01*
X354519Y167593D01*
X354438Y168000D01*
X354459Y168167D01*
X354546Y168292D01*
X355250Y169250D01*
X355250Y169250D01*
X355250Y169250D01*
Y183454D01*
X355443Y183712D01*
X356500Y184307D01*
X356507Y184305D01*
X357021Y184202D01*
X357545Y184168D01*
X358068Y184202D01*
X358582Y184305D01*
X359078Y184473D01*
X359549Y184705D01*
X359985Y184996D01*
X360379Y185342D01*
X360725Y185736D01*
X361016Y186172D01*
X361248Y186642D01*
X361417Y187139D01*
X361519Y187653D01*
X361553Y188176D01*
X361519Y188700D01*
X361417Y189214D01*
X361248Y189711D01*
X361016Y190181D01*
X360725Y190617D01*
X360379Y191011D01*
X359985Y191357D01*
X359549Y191648D01*
X359078Y191880D01*
X358582Y192048D01*
X358068Y192151D01*
X357545Y192185D01*
X357021Y192151D01*
X356507Y192048D01*
X356011Y191880D01*
X355540Y191648D01*
X355104Y191357D01*
X354356Y191176D01*
X353735Y191467D01*
X353299Y191759D01*
X352829Y191991D01*
X352332Y192159D01*
X351818Y192261D01*
X351295Y192296D01*
X350771Y192261D01*
X350257Y192159D01*
X349761Y191991D01*
X349290Y191759D01*
X348854Y191467D01*
X348460Y191122D01*
X348114Y190727D01*
X347823Y190291D01*
X347591Y189821D01*
X347423Y189325D01*
X347320Y188810D01*
X347286Y188287D01*
X346113Y187600D01*
X341261D01*
X340088Y188287D01*
X340054Y188810D01*
X339952Y189325D01*
X339783Y189821D01*
X339551Y190291D01*
X339260Y190727D01*
X338914Y191122D01*
X338520Y191467D01*
X338084Y191759D01*
X337614Y191991D01*
X337117Y192159D01*
X336603Y192261D01*
X336080Y192296D01*
X335556Y192261D01*
X335042Y192159D01*
X334546Y191991D01*
X334075Y191759D01*
X333639Y191467D01*
X333245Y191122D01*
X332899Y190727D01*
X332608Y190291D01*
X332376Y189821D01*
X332208Y189325D01*
X332105Y188810D01*
X332093Y188622D01*
X330968Y187943D01*
X330017Y188348D01*
Y222517D01*
X329989Y222870D01*
X329906Y223214D01*
X329771Y223541D01*
X329585Y223843D01*
X329355Y224112D01*
X329355Y224113D01*
X329272Y224195D01*
X329388Y224535D01*
X329490Y225049D01*
X329524Y225572D01*
X329490Y226096D01*
X329388Y226610D01*
X329219Y227106D01*
X328987Y227577D01*
X328696Y228013D01*
X328350Y228407D01*
X327956Y228752D01*
X327520Y229044D01*
X327050Y229276D01*
X326553Y229444D01*
X326039Y229547D01*
X325516Y229581D01*
X324992Y229547D01*
X324478Y229444D01*
X323982Y229276D01*
X323511Y229044D01*
X323075Y228752D01*
X322681Y228407D01*
X322335Y228013D01*
X322044Y227577D01*
X321812Y227106D01*
X321644Y226610D01*
X321541Y226096D01*
X321507Y225572D01*
X321541Y225049D01*
X321644Y224535D01*
X321447Y224175D01*
X320820Y223576D01*
X320689Y223515D01*
X320533Y223546D01*
X320009Y223581D01*
X319486Y223546D01*
X318972Y223444D01*
X318766Y223374D01*
X317984Y223748D01*
X317516Y224196D01*
Y229355D01*
X319128Y230967D01*
X319345Y230924D01*
X319868Y230889D01*
X320391Y230924D01*
X320905Y231026D01*
X321402Y231195D01*
X321872Y231427D01*
X322308Y231718D01*
X322702Y232064D01*
X323048Y232458D01*
X323135Y232587D01*
X324091Y232842D01*
X324688Y232802D01*
X325836Y231654D01*
X326105Y231424D01*
X326407Y231239D01*
X326734Y231103D01*
X327079Y231020D01*
X327432Y230993D01*
X331367D01*
X331720Y231020D01*
X332064Y231103D01*
X332392Y231239D01*
X332693Y231424D01*
X332963Y231654D01*
X333142Y231833D01*
X333175Y231812D01*
X333645Y231580D01*
X334142Y231411D01*
X334656Y231309D01*
X335179Y231275D01*
X335702Y231309D01*
X336217Y231411D01*
X336713Y231580D01*
X337183Y231812D01*
X337619Y232103D01*
X338013Y232449D01*
X338596Y232754D01*
X339175Y232538D01*
X339645Y232306D01*
X340141Y232137D01*
X340656Y232035D01*
X341179Y232001D01*
X341702Y232035D01*
X342216Y232137D01*
X342713Y232306D01*
X343183Y232538D01*
X343619Y232829D01*
X344013Y233175D01*
X344359Y233569D01*
X344650Y234005D01*
X344883Y234475D01*
X345051Y234972D01*
X345153Y235486D01*
X345188Y236009D01*
X345153Y236532D01*
X345051Y237047D01*
X344883Y237543D01*
X344650Y238013D01*
X344359Y238449D01*
X344013Y238844D01*
X343619Y239189D01*
X343183Y239481D01*
X342713Y239713D01*
X342216Y239881D01*
X341702Y239984D01*
X341179Y240018D01*
X340656Y239984D01*
X340141Y239881D01*
X339645Y239713D01*
X339175Y239481D01*
X338739Y239189D01*
X338345Y238844D01*
X338218Y238777D01*
X337888Y238284D01*
X337183Y238755D01*
X337183Y238755D01*
X336713Y238986D01*
X336217Y239155D01*
X335891Y239220D01*
X335702Y239257D01*
X335179Y239292D01*
X334656Y239257D01*
X333618Y239051D01*
X333591Y239086D01*
X333571Y239083D01*
X332873Y240000D01*
X332871Y240004D01*
X332579Y240440D01*
X332234Y240834D01*
X331840Y241180D01*
X331404Y241471D01*
X330933Y241703D01*
X330437Y241871D01*
X330111Y241936D01*
X329922Y241974D01*
X329399Y242008D01*
X328876Y241974D01*
X328793Y241957D01*
X328660Y241931D01*
X326347Y244244D01*
X326111Y244445D01*
X325964Y244543D01*
X325775Y244659D01*
X325448Y244795D01*
X325233Y244846D01*
X325060Y244881D01*
X324751Y244905D01*
X316658D01*
X316349Y244881D01*
X316175Y244846D01*
X315960Y244795D01*
X315633Y244659D01*
X315445Y244543D01*
X315297Y244445D01*
X315062Y244244D01*
X307664Y236846D01*
X307463Y236610D01*
X307364Y236463D01*
X307249Y236275D01*
X307113Y235947D01*
X307062Y235732D01*
X307027Y235558D01*
X307003Y235250D01*
Y209122D01*
X306874Y208919D01*
X305857Y208236D01*
X305764Y208243D01*
X305600Y208275D01*
X305318Y208331D01*
X304795Y208366D01*
X304271Y208331D01*
X304083Y208294D01*
X303757Y208229D01*
X303261Y208061D01*
X302790Y207829D01*
X302354Y207537D01*
X301960Y207192D01*
X301614Y206797D01*
X301323Y206361D01*
X301091Y205891D01*
X300923Y205395D01*
X300858Y205069D01*
X300820Y204880D01*
X300786Y204357D01*
X300820Y203834D01*
X300858Y203646D01*
X300923Y203320D01*
X301091Y202823D01*
X301323Y202353D01*
X301614Y201917D01*
X301960Y201523D01*
X302354Y201177D01*
X302790Y200886D01*
X303261Y200654D01*
X303757Y200485D01*
X304083Y200420D01*
X304271Y200383D01*
X304795Y200349D01*
X305318Y200383D01*
X305506Y200420D01*
X305832Y200485D01*
X306038Y200555D01*
X306820Y200182D01*
X307230Y199788D01*
X307250Y199776D01*
Y199769D01*
X307288Y199733D01*
Y192911D01*
X307250Y192876D01*
Y192868D01*
X307230Y192856D01*
X306820Y192463D01*
X306038Y192089D01*
X305832Y192159D01*
X305506Y192224D01*
X305318Y192261D01*
X304795Y192296D01*
X304271Y192261D01*
X304083Y192224D01*
X303757Y192159D01*
X303261Y191991D01*
X302790Y191759D01*
X302354Y191467D01*
X301960Y191122D01*
X301614Y190727D01*
X301323Y190291D01*
X301091Y189821D01*
X300923Y189325D01*
X300858Y188999D01*
X300820Y188810D01*
X300786Y188287D01*
X300820Y187764D01*
X300858Y187576D01*
X300923Y187250D01*
X301000Y187022D01*
Y186860D01*
X301027Y186726D01*
X301911Y185403D01*
X301973Y184772D01*
X301000Y183799D01*
Y183747D01*
X295260Y178007D01*
X255706D01*
X237193Y196520D01*
X237219Y196654D01*
X237236Y196737D01*
X237270Y197260D01*
X237236Y197783D01*
X237198Y197971D01*
X237133Y198297D01*
X236965Y198794D01*
X236733Y199264D01*
X236442Y199700D01*
X236096Y200094D01*
X235702Y200440D01*
X235266Y200731D01*
X234795Y200963D01*
X234299Y201132D01*
X233973Y201196D01*
X233785Y201234D01*
X233261Y201268D01*
X232738Y201234D01*
X232550Y201196D01*
X232224Y201132D01*
X231727Y200963D01*
X231257Y200731D01*
X230821Y200440D01*
X230427Y200094D01*
X230081Y199700D01*
X229790Y199264D01*
X229558Y198794D01*
X229389Y198297D01*
X229325Y197971D01*
X229287Y197783D01*
X229253Y197260D01*
X229287Y196737D01*
X229325Y196548D01*
X229389Y196222D01*
X229558Y195726D01*
X229790Y195255D01*
X230081Y194819D01*
X230136Y194757D01*
X229736Y193665D01*
X229592Y193507D01*
X228303D01*
X228180Y193690D01*
X227834Y194084D01*
X227440Y194430D01*
X227004Y194722D01*
X226534Y194953D01*
X226038Y195122D01*
X225711Y195187D01*
X225523Y195224D01*
X225000Y195259D01*
X224477Y195224D01*
X224289Y195187D01*
X223962Y195122D01*
X223466Y194953D01*
X222996Y194722D01*
X222560Y194430D01*
X222166Y194084D01*
X221820Y193690D01*
X221528Y193254D01*
X221297Y192784D01*
X221216Y192547D01*
X221136Y192327D01*
X220940Y191342D01*
X220273Y191474D01*
X219750Y191509D01*
X219227Y191474D01*
X219039Y191437D01*
X218713Y191372D01*
X218216Y191203D01*
X217746Y190972D01*
X217310Y190680D01*
X216915Y190334D01*
X216570Y189940D01*
X216278Y189504D01*
X216047Y189034D01*
X215878Y188538D01*
X215813Y188211D01*
X215776Y188023D01*
X215764Y187840D01*
X215738Y187495D01*
X215257Y186827D01*
X215179Y186804D01*
X215150Y186748D01*
X214370Y186593D01*
X214112Y186542D01*
X213616Y186374D01*
X213146Y186141D01*
X212710Y185850D01*
X212316Y185504D01*
X211970Y185110D01*
X211679Y184674D01*
X211447Y184204D01*
X211278Y183708D01*
X211213Y183382D01*
X211176Y183193D01*
X211141Y182670D01*
X211176Y182147D01*
X211213Y181959D01*
X211278Y181632D01*
X211447Y181136D01*
X211679Y180666D01*
X211970Y180230D01*
X212316Y179835D01*
X212710Y179490D01*
X213146Y179198D01*
X213616Y178967D01*
X214112Y178798D01*
X214403Y178740D01*
X215150Y178592D01*
X215179Y178536D01*
X215257Y178514D01*
X215738Y177845D01*
X215764Y177500D01*
X215776Y177317D01*
X215982Y176279D01*
X216420Y175624D01*
X215741Y174354D01*
X213741D01*
X212863Y174179D01*
X212119Y173682D01*
X202680Y164243D01*
X202250Y164328D01*
X200689Y164018D01*
X199366Y163134D01*
X199000Y162586D01*
D01*
X198778Y162254D01*
X198547Y161784D01*
X198378Y161287D01*
X198313Y160961D01*
X198276Y160773D01*
X198241Y160250D01*
X198276Y159727D01*
X198313Y159538D01*
X198378Y159213D01*
X198547Y158716D01*
X198778Y158246D01*
X199000Y157914D01*
D01*
X199366Y157366D01*
X200689Y156482D01*
X202250Y156172D01*
X203811Y156482D01*
X204629Y157029D01*
X204949Y157142D01*
X205760Y156623D01*
X205917Y155155D01*
X199056Y148294D01*
X199000D01*
Y148257D01*
X195053D01*
X194930Y148440D01*
X194585Y148834D01*
X194190Y149180D01*
X193754Y149472D01*
X193284Y149703D01*
X192787Y149872D01*
X192461Y149937D01*
X192273Y149974D01*
X191750Y150009D01*
X191250Y149976D01*
X191233Y149976D01*
X190189Y149768D01*
X188866Y148884D01*
X187982Y147561D01*
X187672Y146000D01*
X187982Y144439D01*
X188866Y143116D01*
X190189Y142232D01*
X191750Y141922D01*
X193311Y142232D01*
X194634Y143116D01*
X195028Y143706D01*
X197051D01*
X197537Y142533D01*
X185198Y130194D01*
X171878D01*
X171484Y130784D01*
X170308Y131569D01*
X170195Y132032D01*
X170191Y132086D01*
X170254Y132944D01*
X171334Y133666D01*
X172218Y134989D01*
X172528Y136550D01*
X172218Y138111D01*
X171334Y139434D01*
X170011Y140318D01*
X168450Y140628D01*
X168193Y140577D01*
X167809Y141732D01*
X169132Y142616D01*
X170016Y143939D01*
X170327Y145500D01*
X170016Y147061D01*
X169132Y148384D01*
X167809Y149268D01*
X166248Y149578D01*
X164688Y149268D01*
X163365Y148384D01*
X162481Y147061D01*
X162170Y145500D01*
X162481Y143939D01*
X163365Y142616D01*
X164688Y141732D01*
X166248Y141422D01*
X166506Y141473D01*
X166889Y140318D01*
X165566Y139434D01*
X164682Y138111D01*
X164372Y136550D01*
X164682Y134989D01*
X165566Y133666D01*
X166742Y132880D01*
X166855Y132418D01*
X166859Y132365D01*
X166796Y131506D01*
X165716Y130784D01*
X164832Y129461D01*
X164522Y127900D01*
X164832Y126339D01*
X165716Y125016D01*
X167039Y124132D01*
X168600Y123822D01*
X170161Y124132D01*
X171484Y125016D01*
X171878Y125606D01*
X186149D01*
X187027Y125781D01*
X187771Y126278D01*
X193023Y131531D01*
X194444Y131155D01*
X195115Y130149D01*
X196439Y129265D01*
X197999Y128955D01*
X199560Y129265D01*
X200883Y130149D01*
X201767Y131472D01*
X202078Y133033D01*
X201767Y134594D01*
X200883Y135917D01*
X199878Y136589D01*
X199502Y138009D01*
X200523Y139031D01*
X201944Y138655D01*
X202615Y137649D01*
X203939Y136765D01*
X204012Y136751D01*
X204917Y135276D01*
X204905Y135216D01*
X204905Y135216D01*
Y130756D01*
X204905Y130756D01*
X203957Y129305D01*
X203939Y129301D01*
X202615Y128417D01*
X201731Y127094D01*
X201421Y125533D01*
X201731Y123972D01*
X202615Y122649D01*
X203939Y121765D01*
X204403Y121673D01*
X204988Y120262D01*
X204981Y120251D01*
X204670Y118690D01*
X204981Y117129D01*
X205865Y115806D01*
X207188Y114922D01*
X208748Y114612D01*
X210309Y114922D01*
X211632Y115806D01*
X212516Y117129D01*
X212827Y118690D01*
X212725Y119202D01*
X212766Y119244D01*
X212766Y119244D01*
X213379Y120160D01*
X213594Y121241D01*
Y127716D01*
X213594Y127716D01*
X213582Y127776D01*
X214487Y129251D01*
X214560Y129265D01*
X214686Y129349D01*
X215806Y128751D01*
Y120957D01*
X215981Y120079D01*
X216478Y119335D01*
X218750Y117063D01*
Y103568D01*
X185754D01*
X177303Y104401D01*
X168974Y106058D01*
X160847Y108523D01*
X153001Y111772D01*
X145512Y115776D01*
X138451Y120494D01*
X131886Y125881D01*
X125881Y131886D01*
X124149Y133997D01*
X120462Y138501D01*
X115703Y145661D01*
X111678Y153259D01*
X108427Y161219D01*
X105982Y169462D01*
X104367Y177907D01*
X103912Y182979D01*
X105127Y183647D01*
X106239Y182794D01*
X108246Y181962D01*
X110400Y181679D01*
X112554Y181962D01*
X114561Y182794D01*
X116284Y184116D01*
X117606Y185839D01*
X118438Y187846D01*
X118721Y190000D01*
X118438Y192154D01*
X117606Y194161D01*
X116284Y195884D01*
X114561Y197206D01*
X112554Y198038D01*
X110400Y198321D01*
X108246Y198038D01*
X106239Y197206D01*
X105046Y196291D01*
X103836Y196963D01*
X104401Y202697D01*
X106058Y211026D01*
X108523Y219153D01*
X111772Y226999D01*
X115776Y234488D01*
X120494Y241549D01*
X125881Y248114D01*
X131886Y254119D01*
X138451Y259506D01*
X145512Y264224D01*
X153001Y268228D01*
X160847Y271477D01*
X168974Y273942D01*
X177303Y275599D01*
X185754Y276432D01*
X190000Y276432D01*
D01*
X289600Y276432D01*
X290159Y275462D01*
X290242Y275182D01*
X290046Y274784D01*
X289878Y274287D01*
X289813Y273962D01*
X289775Y273773D01*
X289741Y273250D01*
X289775Y272727D01*
X289813Y272539D01*
X289878Y272213D01*
X290046Y271716D01*
X290278Y271246D01*
X290569Y270810D01*
X290915Y270415D01*
X291309Y270070D01*
X291745Y269778D01*
X292216Y269547D01*
X292712Y269378D01*
X293038Y269313D01*
X293227Y269276D01*
X293750Y269241D01*
X294273Y269276D01*
X294461Y269313D01*
X294787Y269378D01*
X295284Y269547D01*
X295754Y269778D01*
X296190Y270070D01*
X296584Y270415D01*
X296930Y270810D01*
X297221Y271246D01*
X297453Y271716D01*
X297622Y272213D01*
X297687Y272539D01*
X297724Y272727D01*
X297758Y273250D01*
X297724Y273773D01*
X297687Y273962D01*
X297622Y274287D01*
X297453Y274784D01*
X297257Y275182D01*
X297341Y275462D01*
X297899Y276432D01*
X317500D01*
X340200D01*
D01*
D02*
G37*
G36*
X345626Y148561D02*
X346102Y147413D01*
X347250Y146938D01*
X352500Y146938D01*
X352500Y103568D01*
X340430D01*
X340430Y114000D01*
X340396Y114174D01*
X340413Y114350D01*
X340317Y115325D01*
X340165Y115827D01*
X340063Y116341D01*
X339316Y118143D01*
X338543Y119301D01*
X337163Y120681D01*
X336005Y121454D01*
X334203Y122201D01*
X333689Y122303D01*
X333187Y122455D01*
X332212Y122551D01*
X331862Y122517D01*
X331512Y122551D01*
X330537Y122455D01*
X330035Y122303D01*
X329521Y122201D01*
X327719Y121454D01*
X326561Y120681D01*
X325181Y119301D01*
X324408Y118143D01*
X323661Y116341D01*
X323559Y115827D01*
X323407Y115325D01*
X323311Y114350D01*
X323328Y114174D01*
X323293Y114000D01*
Y103568D01*
X293030D01*
Y114000D01*
X292996Y114174D01*
X293013Y114350D01*
X292917Y115325D01*
X292765Y115827D01*
X292663Y116341D01*
X291916Y118143D01*
X291143Y119301D01*
X289763Y120681D01*
X288605Y121454D01*
X286803Y122201D01*
X286289Y122303D01*
X285787Y122455D01*
X284812Y122551D01*
X284462Y122517D01*
X284112Y122551D01*
X283137Y122455D01*
X282635Y122303D01*
X282121Y122201D01*
X280319Y121454D01*
X279161Y120681D01*
X277781Y119301D01*
X277008Y118143D01*
X276261Y116341D01*
X276159Y115827D01*
X276007Y115325D01*
X275911Y114350D01*
X275928Y114174D01*
X275893Y114000D01*
Y103568D01*
X240354D01*
X239968Y104838D01*
X240384Y105116D01*
X241268Y106439D01*
X241578Y108000D01*
X241268Y109561D01*
X240384Y110884D01*
X239154Y111706D01*
X239081Y112375D01*
X239154Y113044D01*
X240384Y113866D01*
X241268Y115189D01*
X241578Y116750D01*
X241268Y118311D01*
X240384Y119634D01*
X239061Y120518D01*
X237500Y120828D01*
X235939Y120518D01*
X234616Y119634D01*
X234222Y119044D01*
X227500D01*
X223394Y123150D01*
Y138381D01*
X231852Y146838D01*
X237174D01*
X237874Y145568D01*
X237622Y144300D01*
X237932Y142739D01*
X238816Y141416D01*
X240139Y140532D01*
X241700Y140222D01*
X243261Y140532D01*
X244584Y141416D01*
X245468Y142739D01*
X245778Y144300D01*
X245526Y145568D01*
X246226Y146838D01*
X260385D01*
X262745Y144478D01*
X263490Y143981D01*
X264368Y143806D01*
X315614D01*
X316492Y143981D01*
X317236Y144478D01*
X322758Y150000D01*
X345626D01*
Y148561D01*
D02*
G37*
%LPC*%
G36*
X212800Y271509D02*
X212277Y271474D01*
X212089Y271437D01*
X211763Y271372D01*
X211266Y271203D01*
X210796Y270972D01*
X210360Y270680D01*
X209965Y270334D01*
X209620Y269940D01*
X209328Y269504D01*
X209097Y269034D01*
X208928Y268538D01*
X208863Y268211D01*
X208826Y268023D01*
X208791Y267500D01*
X208826Y266977D01*
X208863Y266789D01*
X208928Y266462D01*
X209097Y265966D01*
X209328Y265496D01*
X209620Y265060D01*
X210065Y264335D01*
X209720Y263940D01*
X209429Y263504D01*
X209197Y263034D01*
X209028Y262537D01*
X208963Y262211D01*
X208926Y262023D01*
X208891Y261500D01*
X208926Y260977D01*
X208963Y260788D01*
X209028Y260462D01*
X209197Y259966D01*
X209429Y259496D01*
X209720Y259060D01*
X210065Y258666D01*
X210460Y258320D01*
X210896Y258029D01*
X211366Y257797D01*
X211863Y257628D01*
X212188Y257563D01*
X212377Y257526D01*
X212900Y257491D01*
X213423Y257526D01*
X213612Y257563D01*
X213937Y257628D01*
X214434Y257797D01*
X214904Y258029D01*
X215340Y258320D01*
X215735Y258666D01*
X216080Y259060D01*
X216371Y259496D01*
X216604Y259966D01*
X216772Y260462D01*
X216837Y260788D01*
X216874Y260977D01*
X216909Y261500D01*
X216874Y262023D01*
X216837Y262211D01*
X216772Y262537D01*
X216604Y263034D01*
X216371Y263504D01*
X216080Y263940D01*
X215634Y264666D01*
X215980Y265060D01*
X216271Y265496D01*
X216504Y265966D01*
X216672Y266462D01*
X216737Y266789D01*
X216774Y266977D01*
X216809Y267500D01*
X216774Y268023D01*
X216737Y268211D01*
X216672Y268538D01*
X216504Y269034D01*
X216271Y269504D01*
X215980Y269940D01*
X215634Y270334D01*
X215240Y270680D01*
X214804Y270972D01*
X214334Y271203D01*
X213838Y271372D01*
X213512Y271437D01*
X213323Y271474D01*
X212800Y271509D01*
D02*
G37*
G36*
X298000Y258509D02*
X297477Y258474D01*
X297288Y258437D01*
X296963Y258372D01*
X296466Y258203D01*
X295996Y257971D01*
X295560Y257680D01*
X294875Y257437D01*
X294190Y257680D01*
X293754Y257971D01*
X293284Y258203D01*
X292787Y258372D01*
X292461Y258437D01*
X292273Y258474D01*
X291750Y258509D01*
X291227Y258474D01*
X291038Y258437D01*
X290713Y258372D01*
X290216Y258203D01*
X289746Y257971D01*
X289310Y257680D01*
X288916Y257334D01*
X288570Y256940D01*
X288279Y256504D01*
X288046Y256034D01*
X287878Y255537D01*
X287813Y255212D01*
X287776Y255023D01*
X287741Y254500D01*
X287776Y253977D01*
X287813Y253789D01*
X287878Y253463D01*
X288046Y252966D01*
X288279Y252496D01*
X288570Y252060D01*
X288775Y251826D01*
X288916Y251524D01*
X288915Y250475D01*
X288775Y250174D01*
X288570Y249940D01*
X288278Y249504D01*
X288046Y249034D01*
X287878Y248537D01*
X287813Y248211D01*
X287776Y248023D01*
X287741Y247500D01*
X287776Y246977D01*
X287813Y246788D01*
X287878Y246462D01*
X288046Y245966D01*
X288278Y245496D01*
X288570Y245060D01*
X288775Y244826D01*
X288915Y244524D01*
Y243475D01*
X288775Y243174D01*
X288570Y242940D01*
X288278Y242504D01*
X288046Y242034D01*
X287878Y241537D01*
X287813Y241211D01*
X287776Y241023D01*
X287741Y240500D01*
X287776Y239977D01*
X287813Y239788D01*
X287878Y239462D01*
X288046Y238966D01*
X288278Y238496D01*
X288570Y238060D01*
X288915Y237665D01*
X289310Y237320D01*
X289746Y237028D01*
X290216Y236796D01*
X290712Y236628D01*
X291038Y236563D01*
X291227Y236526D01*
X291750Y236491D01*
X292273Y236526D01*
X292461Y236563D01*
X292787Y236628D01*
X293284Y236796D01*
X293754Y237028D01*
X294190Y237320D01*
X294875Y237562D01*
X295560Y237320D01*
X295996Y237028D01*
X296466Y236796D01*
X296962Y236628D01*
X297288Y236563D01*
X297477Y236526D01*
X298000Y236491D01*
X298523Y236526D01*
X298711Y236563D01*
X299037Y236628D01*
X299534Y236796D01*
X300004Y237028D01*
X300440Y237320D01*
X300834Y237665D01*
X301180Y238060D01*
X301471Y238496D01*
X301703Y238966D01*
X301872Y239462D01*
X301937Y239788D01*
X301974Y239977D01*
X302008Y240500D01*
X301974Y241023D01*
X301937Y241211D01*
X301872Y241537D01*
X301703Y242034D01*
X301471Y242504D01*
X301180Y242940D01*
X300975Y243174D01*
X300834Y243475D01*
Y244524D01*
X300975Y244826D01*
X301180Y245060D01*
X301471Y245496D01*
X301703Y245966D01*
X301872Y246462D01*
X301937Y246788D01*
X301974Y246977D01*
X302008Y247500D01*
X301974Y248023D01*
X301937Y248211D01*
X301872Y248537D01*
X301703Y249034D01*
X301471Y249504D01*
X301180Y249940D01*
X300975Y250174D01*
X300834Y250476D01*
X300835Y251525D01*
X300975Y251826D01*
X301180Y252060D01*
X301472Y252496D01*
X301703Y252966D01*
X301872Y253463D01*
X301937Y253789D01*
X301974Y253977D01*
X302009Y254500D01*
X301974Y255023D01*
X301937Y255212D01*
X301872Y255537D01*
X301703Y256034D01*
X301472Y256504D01*
X301180Y256940D01*
X300835Y257334D01*
X300440Y257680D01*
X300004Y257971D01*
X299534Y258203D01*
X299037Y258372D01*
X298711Y258437D01*
X298523Y258474D01*
X298000Y258509D01*
D02*
G37*
G36*
X308100Y270907D02*
X307425Y270874D01*
X307061Y270826D01*
X306635Y270763D01*
X305920Y270584D01*
X305400Y270397D01*
X305060Y270257D01*
X304560Y270020D01*
X303928Y269641D01*
X303583Y269385D01*
X303291Y269161D01*
X302790Y268708D01*
X302337Y268207D01*
X302113Y267916D01*
X301856Y267570D01*
X301478Y266938D01*
X301241Y266438D01*
X301101Y266098D01*
X300914Y265578D01*
X300735Y264863D01*
X300672Y264437D01*
X300624Y264073D01*
X300591Y263398D01*
X300624Y262723D01*
X300672Y262359D01*
X300735Y261933D01*
X300914Y261218D01*
X301101Y260698D01*
X301241Y260358D01*
X301478Y259858D01*
X301856Y259226D01*
X302113Y258880D01*
X302337Y258589D01*
X302790Y258088D01*
X303291Y257635D01*
X303583Y257411D01*
X303928Y257155D01*
X304560Y256776D01*
X305060Y256539D01*
X305400Y256399D01*
X305920Y256212D01*
X306635Y256033D01*
X307061Y255970D01*
X307425Y255922D01*
X308100Y255889D01*
X308775Y255922D01*
X309139Y255970D01*
X309565Y256033D01*
X310280Y256212D01*
X310800Y256399D01*
X310889Y256435D01*
X310895Y256432D01*
X310973Y256461D01*
X311125Y256450D01*
X312235Y255894D01*
X312340Y255738D01*
X312466Y255366D01*
X312698Y254896D01*
X312990Y254460D01*
X313335Y254066D01*
X313729Y253720D01*
X314165Y253429D01*
X314636Y253197D01*
X315132Y253028D01*
X315458Y252963D01*
X315647Y252926D01*
X316170Y252892D01*
X316693Y252926D01*
X316881Y252963D01*
X317207Y253028D01*
X317704Y253197D01*
X318174Y253429D01*
X318610Y253720D01*
X319004Y254066D01*
X319350Y254460D01*
X319641Y254896D01*
X319873Y255366D01*
X320042Y255863D01*
X320107Y256189D01*
X320144Y256377D01*
X320168Y256745D01*
X320715Y257203D01*
X321395Y257455D01*
X321716Y257297D01*
X322212Y257128D01*
X322538Y257063D01*
X322727Y257026D01*
X323250Y256991D01*
X323773Y257026D01*
X323961Y257063D01*
X324287Y257128D01*
X324784Y257297D01*
X325254Y257528D01*
X325690Y257820D01*
X326085Y258165D01*
X326430Y258560D01*
X326721Y258996D01*
X326953Y259466D01*
X327122Y259963D01*
X327187Y260289D01*
X327224Y260477D01*
X327259Y261000D01*
X327224Y261523D01*
X327187Y261712D01*
X327122Y262038D01*
X326953Y262534D01*
X326721Y263004D01*
X326430Y263440D01*
X326085Y263834D01*
X325690Y264180D01*
X325254Y264471D01*
X324784Y264703D01*
X324287Y264872D01*
X323961Y264937D01*
X323773Y264974D01*
X323250Y265009D01*
X322727Y264974D01*
X322538Y264937D01*
X322212Y264872D01*
X321716Y264703D01*
X321246Y264471D01*
X320810Y264180D01*
X320415Y263834D01*
X320070Y263440D01*
X319778Y263004D01*
X319547Y262534D01*
X319378Y262038D01*
X319313Y261712D01*
X319276Y261523D01*
X319252Y261155D01*
X318705Y260697D01*
X318025Y260445D01*
X317704Y260604D01*
X317207Y260772D01*
X316881Y260837D01*
X316693Y260874D01*
X316479Y260888D01*
X316380Y260985D01*
X316087Y261122D01*
X315894Y261457D01*
X315742Y261604D01*
X315487Y262083D01*
X315487Y262084D01*
X315528Y262359D01*
X315576Y262723D01*
X315609Y263398D01*
X315576Y264073D01*
X315528Y264437D01*
X315465Y264863D01*
X315286Y265578D01*
X315099Y266098D01*
X314959Y266438D01*
X314722Y266938D01*
X314343Y267570D01*
X314087Y267916D01*
X313863Y268207D01*
X313410Y268708D01*
X312909Y269161D01*
X312617Y269385D01*
X312272Y269641D01*
X311640Y270020D01*
X311140Y270257D01*
X310800Y270397D01*
X310280Y270584D01*
X309565Y270763D01*
X309139Y270826D01*
X308775Y270874D01*
X308100Y270907D01*
D02*
G37*
G36*
X278100D02*
X277425Y270874D01*
X277061Y270826D01*
X276635Y270763D01*
X275920Y270584D01*
X275400Y270397D01*
X275060Y270257D01*
X274560Y270020D01*
X273928Y269641D01*
X273583Y269385D01*
X273291Y269161D01*
X272790Y268708D01*
X272337Y268207D01*
X272113Y267916D01*
X271856Y267570D01*
X271478Y266938D01*
X271241Y266438D01*
X271101Y266098D01*
X270914Y265578D01*
X270735Y264863D01*
X270672Y264437D01*
X270624Y264073D01*
X270591Y263398D01*
X270624Y262723D01*
X270672Y262359D01*
X270735Y261933D01*
X270914Y261218D01*
X271101Y260698D01*
X271241Y260358D01*
X271478Y259858D01*
X271856Y259226D01*
X272113Y258880D01*
X272337Y258589D01*
X272790Y258088D01*
X273291Y257635D01*
X273583Y257411D01*
X273928Y257155D01*
X274560Y256776D01*
X275060Y256539D01*
X275400Y256399D01*
X275920Y256212D01*
X276635Y256033D01*
X277061Y255970D01*
X277425Y255922D01*
X278100Y255889D01*
X278775Y255922D01*
X279139Y255970D01*
X279565Y256033D01*
X280280Y256212D01*
X280800Y256399D01*
X281140Y256539D01*
X281640Y256776D01*
X282272Y257155D01*
X282617Y257411D01*
X282909Y257635D01*
X283410Y258088D01*
X283863Y258589D01*
X284087Y258880D01*
X284343Y259226D01*
X284722Y259858D01*
X284959Y260358D01*
X285099Y260698D01*
X285286Y261218D01*
X285465Y261933D01*
X285528Y262359D01*
X285576Y262723D01*
X285609Y263398D01*
X285576Y264073D01*
X285528Y264437D01*
X285465Y264863D01*
X285286Y265578D01*
X285099Y266098D01*
X284959Y266438D01*
X284722Y266938D01*
X284343Y267570D01*
X284087Y267916D01*
X283863Y268207D01*
X283410Y268708D01*
X282909Y269161D01*
X282617Y269385D01*
X282272Y269641D01*
X281640Y270020D01*
X281140Y270257D01*
X280800Y270397D01*
X280280Y270584D01*
X279565Y270763D01*
X279139Y270826D01*
X278775Y270874D01*
X278100Y270907D01*
D02*
G37*
G36*
X256250Y268759D02*
X255727Y268724D01*
X255539Y268687D01*
X255212Y268622D01*
X254716Y268453D01*
X254246Y268221D01*
X253810Y267930D01*
X253416Y267584D01*
X253070Y267190D01*
X252778Y266754D01*
X252547Y266284D01*
X252378Y265788D01*
X252313Y265462D01*
X252276Y265273D01*
X252241Y264750D01*
X252276Y264227D01*
X252313Y264039D01*
X252378Y263713D01*
X252547Y263216D01*
X252778Y262746D01*
X253070Y262310D01*
X253416Y261915D01*
X253810Y261570D01*
X254246Y261278D01*
X254494Y261156D01*
Y252978D01*
X253244Y252460D01*
X242850Y262854D01*
X242860Y263010D01*
X242826Y263533D01*
X242788Y263721D01*
X242723Y264047D01*
X242555Y264544D01*
X242323Y265014D01*
X242032Y265450D01*
X241686Y265844D01*
X241292Y266190D01*
X240856Y266481D01*
X240385Y266713D01*
X239889Y266882D01*
X239563Y266947D01*
X239375Y266984D01*
X238851Y267018D01*
X238328Y266984D01*
X238140Y266947D01*
X237814Y266882D01*
X237317Y266713D01*
X236847Y266481D01*
X236411Y266190D01*
X236017Y265844D01*
X235671Y265450D01*
X235380Y265014D01*
X235148Y264544D01*
X234979Y264047D01*
X234915Y263721D01*
X234877Y263533D01*
X234843Y263010D01*
X234877Y262487D01*
X234915Y262298D01*
X234979Y261972D01*
X235148Y261476D01*
X235380Y261005D01*
X235671Y260569D01*
X236017Y260175D01*
X236411Y259830D01*
X236847Y259538D01*
X237317Y259306D01*
X237814Y259138D01*
X238140Y259073D01*
X238328Y259035D01*
X238843Y259002D01*
X249152Y248693D01*
Y202269D01*
X249182Y201888D01*
X249224Y201676D01*
X249288Y201410D01*
X249455Y201007D01*
X249598Y200774D01*
X249718Y200594D01*
X249966Y200304D01*
X258907Y191362D01*
X258748Y191124D01*
X258517Y190654D01*
X258348Y190158D01*
X258283Y189832D01*
X258246Y189643D01*
X258211Y189120D01*
X258246Y188597D01*
X258283Y188409D01*
X258348Y188083D01*
X258517Y187586D01*
X258748Y187116D01*
X259040Y186680D01*
X259386Y186285D01*
X259780Y185940D01*
X260216Y185648D01*
X260686Y185417D01*
X261182Y185248D01*
X261509Y185183D01*
X261697Y185146D01*
X262220Y185111D01*
X262743Y185146D01*
X262931Y185183D01*
X263258Y185248D01*
X263754Y185417D01*
X264224Y185648D01*
X264660Y185940D01*
X264908Y186157D01*
X265765Y186165D01*
X266348Y186000D01*
X266403Y185961D01*
X266732Y185411D01*
X267013Y185032D01*
X267260Y184710D01*
X267759Y184159D01*
X268310Y183661D01*
X268632Y183413D01*
X269011Y183132D01*
X269706Y182715D01*
X270256Y182456D01*
X270630Y182300D01*
X271202Y182096D01*
X271989Y181899D01*
X272457Y181829D01*
X272858Y181777D01*
X273600Y181740D01*
X274342Y181777D01*
X274743Y181829D01*
X275211Y181899D01*
X275998Y182096D01*
X276570Y182300D01*
X276944Y182456D01*
X277494Y182715D01*
X278189Y183132D01*
X278568Y183413D01*
X278890Y183661D01*
X279441Y184159D01*
X279939Y184710D01*
X280187Y185032D01*
X280468Y185411D01*
X280885Y186106D01*
X281145Y186656D01*
X281299Y187030D01*
X281504Y187602D01*
X281560Y187824D01*
X281629Y187889D01*
X282751Y188282D01*
X282946Y188262D01*
X283296Y188029D01*
X283766Y187797D01*
X284263Y187628D01*
X284589Y187563D01*
X284777Y187526D01*
X285300Y187491D01*
X285823Y187526D01*
X286012Y187563D01*
X286338Y187628D01*
X286834Y187797D01*
X287304Y188029D01*
X287740Y188320D01*
X288134Y188666D01*
X288480Y189060D01*
X288771Y189496D01*
X289003Y189966D01*
X289172Y190462D01*
X289237Y190788D01*
X289274Y190977D01*
X289309Y191500D01*
X289274Y192023D01*
X289237Y192211D01*
X289172Y192537D01*
X289003Y193034D01*
X288771Y193504D01*
X288480Y193940D01*
X288134Y194335D01*
X287740Y194680D01*
X287304Y194972D01*
X286834Y195203D01*
X286338Y195372D01*
X286012Y195437D01*
X285823Y195474D01*
X285300Y195509D01*
X284777Y195474D01*
X284589Y195437D01*
X284263Y195372D01*
X283766Y195203D01*
X283296Y194972D01*
X282860Y194680D01*
X282465Y194335D01*
X282201Y194033D01*
X281479Y193957D01*
X280791Y194085D01*
X280759Y194103D01*
X280468Y194589D01*
X280187Y194968D01*
X279939Y195290D01*
X279441Y195841D01*
X278890Y196339D01*
X278568Y196587D01*
X278189Y196868D01*
X277494Y197285D01*
X276944Y197544D01*
X276570Y197700D01*
X275998Y197904D01*
X275211Y198101D01*
X274743Y198171D01*
X274342Y198223D01*
X273600Y198260D01*
X272858Y198223D01*
X272457Y198171D01*
X271989Y198101D01*
X271202Y197904D01*
X270630Y197700D01*
X270256Y197544D01*
X269706Y197285D01*
X269011Y196868D01*
X268632Y196587D01*
X268310Y196339D01*
X267759Y195841D01*
X267260Y195290D01*
X267013Y194968D01*
X266732Y194589D01*
X266315Y193894D01*
X266056Y193344D01*
X266054Y193340D01*
X266053Y193340D01*
X266017Y193264D01*
X265660Y193180D01*
X264833Y193232D01*
X264679Y193267D01*
X264553Y193473D01*
X264433Y193654D01*
X264185Y193944D01*
X254709Y203419D01*
Y208650D01*
X254755Y208691D01*
Y208696D01*
X254772Y208706D01*
X255274Y209152D01*
X255959Y209464D01*
X256214Y209378D01*
X256540Y209313D01*
X256728Y209276D01*
X257251Y209241D01*
X257775Y209276D01*
X257963Y209313D01*
X258289Y209378D01*
X258785Y209547D01*
X259256Y209778D01*
X259692Y210070D01*
X260086Y210415D01*
X260432Y210810D01*
X260723Y211246D01*
X260955Y211716D01*
X261123Y212213D01*
X261188Y212539D01*
X261226Y212727D01*
X261260Y213250D01*
X261226Y213773D01*
X261188Y213962D01*
X261123Y214287D01*
X260955Y214784D01*
X260723Y215254D01*
X260432Y215690D01*
X260086Y216084D01*
X259692Y216430D01*
X259256Y216721D01*
X259008Y216844D01*
Y261848D01*
X259084Y261915D01*
X259430Y262310D01*
X259722Y262746D01*
X259953Y263216D01*
X260122Y263713D01*
X260187Y264039D01*
X260224Y264227D01*
X260259Y264750D01*
X260224Y265273D01*
X260187Y265462D01*
X260122Y265788D01*
X259953Y266284D01*
X259722Y266754D01*
X259430Y267190D01*
X259084Y267584D01*
X258690Y267930D01*
X258254Y268221D01*
X257784Y268453D01*
X257288Y268622D01*
X256961Y268687D01*
X256773Y268724D01*
X256250Y268759D01*
D02*
G37*
G36*
X185750Y259079D02*
X184189Y258768D01*
X182866Y257884D01*
X181982Y256561D01*
X181672Y255000D01*
X181982Y253439D01*
X182383Y252839D01*
X182770Y251875D01*
X182383Y250911D01*
X181982Y250311D01*
X181672Y248750D01*
X181982Y247189D01*
X182866Y245866D01*
X184189Y244982D01*
X185750Y244672D01*
X187311Y244982D01*
X188634Y245866D01*
X189518Y247189D01*
X189828Y248750D01*
X189518Y250311D01*
X189117Y250911D01*
X188731Y251875D01*
X189117Y252839D01*
X189518Y253439D01*
X189828Y255000D01*
X189518Y256561D01*
X188634Y257884D01*
X187311Y258768D01*
X185750Y259079D01*
D02*
G37*
G36*
X219750Y238509D02*
X219227Y238474D01*
X219039Y238437D01*
X218713Y238372D01*
X218216Y238204D01*
X217746Y237971D01*
X217310Y237680D01*
X216915Y237334D01*
X216570Y236940D01*
X216278Y236504D01*
X216047Y236034D01*
X215878Y235537D01*
X215813Y235212D01*
X215776Y235023D01*
X215742Y234500D01*
X215776Y233977D01*
X215813Y233789D01*
X215878Y233463D01*
X216047Y232966D01*
X216278Y232496D01*
X216570Y232060D01*
X216915Y231665D01*
X217310Y231320D01*
X217746Y231028D01*
X218216Y230797D01*
X218713Y230628D01*
X219039Y230563D01*
X219227Y230526D01*
X219750Y230491D01*
X220387Y230035D01*
X220402Y229969D01*
X220422Y229960D01*
X220563Y229249D01*
X220628Y228923D01*
X220797Y228426D01*
X221028Y227956D01*
X221320Y227520D01*
X221665Y227125D01*
X222060Y226780D01*
X222496Y226488D01*
X222966Y226257D01*
X223463Y226088D01*
X223789Y226023D01*
X223977Y225986D01*
X224500Y225951D01*
X225023Y225986D01*
X225212Y226023D01*
X225537Y226088D01*
X226034Y226257D01*
X226504Y226488D01*
X226940Y226780D01*
X227334Y227125D01*
X227680Y227520D01*
X227971Y227956D01*
X228204Y228426D01*
X228372Y228923D01*
X228437Y229249D01*
X228474Y229437D01*
X228509Y229960D01*
X228474Y230483D01*
X228437Y230672D01*
X228372Y230998D01*
X228204Y231494D01*
X227971Y231964D01*
X227680Y232400D01*
X227334Y232794D01*
X226940Y233140D01*
X226504Y233431D01*
X226034Y233663D01*
X225537Y233832D01*
X225212Y233897D01*
X225023Y233934D01*
X224500Y233969D01*
X223863Y234425D01*
X223848Y234491D01*
X223828Y234500D01*
X223687Y235212D01*
X223622Y235537D01*
X223454Y236034D01*
X223221Y236504D01*
X222930Y236940D01*
X222584Y237334D01*
X222190Y237680D01*
X221754Y237971D01*
X221284Y238204D01*
X220788Y238372D01*
X220462Y238437D01*
X220273Y238474D01*
X219750Y238509D01*
D02*
G37*
G36*
X189400Y238578D02*
X187839Y238268D01*
X186516Y237384D01*
X185632Y236061D01*
X185322Y234500D01*
X185632Y232939D01*
X186516Y231616D01*
X187839Y230732D01*
X189400Y230422D01*
X189992Y230539D01*
X191150Y229970D01*
X191245Y229592D01*
X191327Y229180D01*
X191378Y228923D01*
X191546Y228426D01*
X191779Y227956D01*
X192070Y227520D01*
X192416Y227125D01*
X192810Y226780D01*
X193246Y226488D01*
X193716Y226257D01*
X194212Y226088D01*
X194538Y226023D01*
X194727Y225986D01*
X195250Y225951D01*
X195773Y225986D01*
X195961Y226023D01*
X196287Y226088D01*
X196784Y226257D01*
X197254Y226488D01*
X197690Y226780D01*
X198085Y227125D01*
X198430Y227520D01*
X198722Y227956D01*
X198953Y228426D01*
X199122Y228923D01*
X199187Y229249D01*
X199224Y229437D01*
X199259Y229960D01*
X199224Y230483D01*
X199187Y230672D01*
X199122Y230998D01*
X198953Y231494D01*
X198722Y231964D01*
X198430Y232400D01*
X198085Y232794D01*
X197690Y233140D01*
X197254Y233431D01*
X196784Y233663D01*
X196287Y233832D01*
X195961Y233897D01*
X195773Y233934D01*
X195250Y233969D01*
X194727Y233934D01*
X194658Y233921D01*
D01*
X194623Y233914D01*
X193953Y234237D01*
X193853Y234316D01*
X193499Y234490D01*
X193414Y234834D01*
X193384Y234871D01*
X193374Y235023D01*
X193337Y235212D01*
X193272Y235537D01*
X193103Y236034D01*
X192871Y236504D01*
X192580Y236940D01*
X192234Y237334D01*
X191840Y237680D01*
X191404Y237971D01*
X190934Y238203D01*
X190438Y238372D01*
X190239Y238412D01*
X189400Y238578D01*
D02*
G37*
G36*
X336080Y223581D02*
X335556Y223546D01*
X335042Y223444D01*
X334546Y223276D01*
X334075Y223044D01*
X333639Y222752D01*
X333245Y222407D01*
X332899Y222012D01*
X332608Y221576D01*
X332376Y221106D01*
X332208Y220610D01*
X332105Y220095D01*
X332071Y219572D01*
X332105Y219049D01*
X332208Y218535D01*
X332376Y218038D01*
X332608Y217568D01*
X332899Y217132D01*
X333245Y216738D01*
X333639Y216392D01*
X334075Y216101D01*
X334546Y215869D01*
X335042Y215700D01*
X335556Y215598D01*
X336080Y215564D01*
X336603Y215598D01*
X337117Y215700D01*
X337614Y215869D01*
X338084Y216101D01*
X338520Y216392D01*
X338914Y216738D01*
X339260Y217132D01*
X339551Y217568D01*
X339783Y218038D01*
X339952Y218535D01*
X340054Y219049D01*
X340088Y219572D01*
X340054Y220095D01*
X339952Y220610D01*
X339783Y221106D01*
X339551Y221576D01*
X339260Y222012D01*
X338914Y222407D01*
X338520Y222752D01*
X338084Y223044D01*
X337614Y223276D01*
X337117Y223444D01*
X336603Y223546D01*
X336080Y223581D01*
D02*
G37*
G36*
X204750Y217259D02*
X204227Y217224D01*
X204039Y217187D01*
X203713Y217122D01*
X203216Y216953D01*
X202746Y216721D01*
X202310Y216430D01*
X201915Y216084D01*
X201570Y215690D01*
X201278Y215254D01*
X201047Y214784D01*
X200878Y214287D01*
X200813Y213962D01*
X200776Y213773D01*
X200741Y213250D01*
X200776Y212727D01*
X200813Y212539D01*
X200878Y212213D01*
X201047Y211716D01*
X201278Y211246D01*
X201570Y210810D01*
X201915Y210415D01*
X202310Y210070D01*
X202746Y209778D01*
X203216Y209547D01*
X203713Y209378D01*
X204039Y209313D01*
X204227Y209276D01*
X204750Y209241D01*
X205273Y209276D01*
X205462Y209313D01*
X205788Y209378D01*
X206284Y209547D01*
X206754Y209778D01*
X207190Y210070D01*
X207584Y210415D01*
X207930Y210810D01*
X208221Y211246D01*
X208454Y211716D01*
X208622Y212213D01*
X208687Y212539D01*
X208724Y212727D01*
X208759Y213250D01*
X208724Y213773D01*
X208687Y213962D01*
X208622Y214287D01*
X208454Y214784D01*
X208221Y215254D01*
X207930Y215690D01*
X207584Y216084D01*
X207190Y216430D01*
X206754Y216721D01*
X206284Y216953D01*
X205788Y217122D01*
X205462Y217187D01*
X205273Y217224D01*
X204750Y217259D01*
D02*
G37*
G36*
X429250Y213759D02*
X428727Y213724D01*
X428213Y213622D01*
X427716Y213453D01*
X427246Y213221D01*
X426810Y212930D01*
X426415Y212584D01*
X426070Y212190D01*
X425779Y211754D01*
X425546Y211284D01*
X425378Y210788D01*
X425276Y210273D01*
X425241Y209750D01*
X425276Y209227D01*
X425378Y208713D01*
X425546Y208216D01*
X425779Y207746D01*
X426070Y207310D01*
X426415Y206915D01*
X426810Y206570D01*
X427246Y206278D01*
X427716Y206047D01*
X428213Y205878D01*
X428727Y205776D01*
X429250Y205741D01*
X429773Y205776D01*
X430288Y205878D01*
X430784Y206047D01*
X431254Y206278D01*
X431690Y206570D01*
X432085Y206915D01*
X432430Y207310D01*
X432721Y207746D01*
X432953Y208216D01*
X433122Y208713D01*
X433224Y209227D01*
X433259Y209750D01*
X433224Y210273D01*
X433122Y210788D01*
X432953Y211284D01*
X432721Y211754D01*
X432430Y212190D01*
X432085Y212584D01*
X431690Y212930D01*
X431254Y213221D01*
X430784Y213453D01*
X430288Y213622D01*
X429773Y213724D01*
X429250Y213759D01*
D02*
G37*
G36*
X384250Y204009D02*
X383727Y203974D01*
X383213Y203872D01*
X382716Y203703D01*
X382246Y203472D01*
X381810Y203180D01*
X381125Y202938D01*
X380440Y203180D01*
X380004Y203472D01*
X379534Y203703D01*
X379038Y203872D01*
X378523Y203974D01*
X378000Y204009D01*
X377477Y203974D01*
X376963Y203872D01*
X376466Y203703D01*
X375996Y203472D01*
X375560Y203180D01*
X375165Y202834D01*
X374820Y202440D01*
X374529Y202004D01*
X374297Y201534D01*
X374128Y201038D01*
X374026Y200523D01*
X373991Y200000D01*
X374026Y199477D01*
X374128Y198962D01*
X374297Y198466D01*
X374529Y197996D01*
X374820Y197560D01*
X375165Y197166D01*
X375560Y196820D01*
X375996Y196528D01*
X376466Y196297D01*
X376963Y196128D01*
X377477Y196026D01*
X378000Y195991D01*
X378523Y196026D01*
X379038Y196128D01*
X379534Y196297D01*
X380004Y196528D01*
X380440Y196820D01*
X381125Y197062D01*
X381810Y196820D01*
X382246Y196528D01*
X382716Y196297D01*
X383213Y196128D01*
X383727Y196026D01*
X384250Y195991D01*
X384773Y196026D01*
X385288Y196128D01*
X385784Y196297D01*
X386254Y196528D01*
X386690Y196820D01*
X387085Y197166D01*
X387430Y197560D01*
X387721Y197996D01*
X387953Y198466D01*
X388122Y198962D01*
X388224Y199477D01*
X388259Y200000D01*
X388224Y200523D01*
X388122Y201038D01*
X387953Y201534D01*
X387721Y202004D01*
X387430Y202440D01*
X387085Y202834D01*
X386690Y203180D01*
X386254Y203472D01*
X385784Y203703D01*
X385288Y203872D01*
X384773Y203974D01*
X384250Y204009D01*
D02*
G37*
G36*
X392600Y209209D02*
X392077Y209174D01*
X391562Y209072D01*
X391066Y208903D01*
X390596Y208671D01*
X390160Y208380D01*
X389766Y208034D01*
X389420Y207640D01*
X389128Y207204D01*
X388897Y206734D01*
X388728Y206238D01*
X388626Y205723D01*
X388591Y205200D01*
X388626Y204677D01*
X388728Y204163D01*
X388897Y203666D01*
X389128Y203196D01*
X389420Y202760D01*
X389766Y202365D01*
X390160Y202020D01*
X390596Y201728D01*
X391066Y201497D01*
X391562Y201328D01*
X392077Y201226D01*
X392600Y201191D01*
X393123Y201226D01*
X393638Y201328D01*
X394134Y201497D01*
X394604Y201728D01*
X395040Y202020D01*
X395434Y202365D01*
X395780Y202760D01*
X396072Y203196D01*
X396303Y203666D01*
X396472Y204163D01*
X396574Y204677D01*
X396609Y205200D01*
X396574Y205723D01*
X396472Y206238D01*
X396303Y206734D01*
X396072Y207204D01*
X395780Y207640D01*
X395434Y208034D01*
X395040Y208380D01*
X394604Y208671D01*
X394134Y208903D01*
X393638Y209072D01*
X393123Y209174D01*
X392600Y209209D01*
D02*
G37*
G36*
X351295Y208366D02*
X350771Y208331D01*
X350257Y208229D01*
X349761Y208061D01*
X349290Y207829D01*
X348854Y207537D01*
X348460Y207192D01*
X348114Y206797D01*
X347823Y206361D01*
X347591Y205891D01*
X347423Y205395D01*
X347320Y204880D01*
X347286Y204357D01*
X347320Y203834D01*
X347423Y203320D01*
X347591Y202823D01*
X347823Y202353D01*
X348114Y201917D01*
X348460Y201523D01*
X348854Y201177D01*
X349290Y200886D01*
X349761Y200654D01*
X350257Y200485D01*
X350771Y200383D01*
X351295Y200349D01*
X351818Y200383D01*
X352332Y200485D01*
X352829Y200654D01*
X353299Y200886D01*
X353735Y201177D01*
X354129Y201523D01*
X354475Y201917D01*
X354766Y202353D01*
X354998Y202823D01*
X355167Y203320D01*
X355269Y203834D01*
X355303Y204357D01*
X355269Y204880D01*
X355167Y205395D01*
X354998Y205891D01*
X354766Y206361D01*
X354475Y206797D01*
X354129Y207192D01*
X353735Y207537D01*
X353299Y207829D01*
X352829Y208061D01*
X352332Y208229D01*
X351818Y208331D01*
X351295Y208366D01*
D02*
G37*
G36*
X336080D02*
X335556Y208331D01*
X335042Y208229D01*
X334546Y208061D01*
X334075Y207829D01*
X333639Y207537D01*
X333245Y207192D01*
X332899Y206797D01*
X332608Y206361D01*
X332376Y205891D01*
X332208Y205395D01*
X332105Y204880D01*
X332071Y204357D01*
X332105Y203834D01*
X332208Y203320D01*
X332376Y202823D01*
X332608Y202353D01*
X332899Y201917D01*
X333245Y201523D01*
X333639Y201177D01*
X334075Y200886D01*
X334546Y200654D01*
X335042Y200485D01*
X335556Y200383D01*
X336080Y200349D01*
X336603Y200383D01*
X337117Y200485D01*
X337614Y200654D01*
X338084Y200886D01*
X338520Y201177D01*
X338914Y201523D01*
X339260Y201917D01*
X339551Y202353D01*
X339783Y202823D01*
X339952Y203320D01*
X340054Y203834D01*
X340088Y204357D01*
X340054Y204880D01*
X339952Y205395D01*
X339783Y205891D01*
X339551Y206361D01*
X339260Y206797D01*
X338914Y207192D01*
X338520Y207537D01*
X338084Y207829D01*
X337614Y208061D01*
X337117Y208229D01*
X336603Y208331D01*
X336080Y208366D01*
D02*
G37*
G36*
X274400Y237759D02*
X273877Y237724D01*
X273689Y237687D01*
X273363Y237622D01*
X272866Y237453D01*
X272396Y237222D01*
X271960Y236930D01*
X271565Y236584D01*
X271220Y236190D01*
X270928Y235754D01*
X270697Y235284D01*
X270528Y234788D01*
X270463Y234462D01*
X270426Y234273D01*
X270391Y233750D01*
X270426Y233227D01*
X270463Y233039D01*
X270528Y232713D01*
X270697Y232216D01*
X270928Y231746D01*
X271220Y231310D01*
X271565Y230916D01*
X271960Y230570D01*
X272396Y230278D01*
X272866Y230047D01*
X272897Y230036D01*
X273102Y228923D01*
X273091Y228798D01*
X273064Y228689D01*
X273015Y228654D01*
X273015Y228652D01*
X272964Y228618D01*
X272678Y228415D01*
X272259Y228041D01*
X271885Y227622D01*
X271681Y227335D01*
X271526Y227103D01*
X271288Y226672D01*
X271073Y226154D01*
X270937Y225681D01*
X270882Y225407D01*
X270824Y225060D01*
X270792Y224500D01*
X270824Y223939D01*
X270882Y223592D01*
X270937Y223318D01*
X271073Y222846D01*
X271288Y222327D01*
X271526Y221897D01*
X271681Y221664D01*
X271885Y221377D01*
X272259Y220958D01*
X272678Y220584D01*
X272964Y220381D01*
X273140Y220263D01*
Y220257D01*
X273237Y220203D01*
X273348Y219866D01*
Y219133D01*
X273237Y218796D01*
X273140Y218743D01*
Y218736D01*
X272964Y218618D01*
X272678Y218415D01*
X272259Y218041D01*
X271885Y217622D01*
X271681Y217335D01*
X271526Y217103D01*
X271288Y216672D01*
X271073Y216154D01*
X270937Y215681D01*
X270882Y215407D01*
X270824Y215060D01*
X270792Y214500D01*
X270824Y213939D01*
X270882Y213592D01*
X270937Y213318D01*
X271073Y212846D01*
X271288Y212327D01*
X271526Y211897D01*
X271681Y211664D01*
X271885Y211377D01*
X272259Y210958D01*
X272678Y210584D01*
X272964Y210381D01*
X273140Y210263D01*
Y210257D01*
X273237Y210203D01*
X273348Y209866D01*
Y209133D01*
X273237Y208796D01*
X273140Y208743D01*
Y208736D01*
X272964Y208618D01*
X272678Y208415D01*
X272259Y208041D01*
X271885Y207622D01*
X271681Y207335D01*
X271526Y207103D01*
X271288Y206672D01*
X271073Y206154D01*
X270937Y205681D01*
X270882Y205407D01*
X270824Y205060D01*
X270792Y204500D01*
X270824Y203939D01*
X270882Y203592D01*
X270937Y203318D01*
X271073Y202846D01*
X271288Y202327D01*
X271526Y201897D01*
X271681Y201664D01*
X271885Y201377D01*
X272259Y200958D01*
X272678Y200584D01*
X272964Y200381D01*
X273197Y200225D01*
X273627Y199988D01*
X274146Y199773D01*
X274618Y199637D01*
X274893Y199582D01*
X275239Y199523D01*
X275800Y199492D01*
X276361Y199523D01*
X276707Y199582D01*
X276982Y199637D01*
X277454Y199773D01*
X277973Y199988D01*
X278403Y200225D01*
X278636Y200381D01*
X278922Y200584D01*
X279341Y200958D01*
X279715Y201377D01*
X279919Y201664D01*
X280036Y201840D01*
X280043D01*
X280096Y201937D01*
X280433Y202047D01*
X281167D01*
X281504Y201937D01*
X281557Y201840D01*
X281564D01*
X281681Y201664D01*
X281885Y201377D01*
X282259Y200958D01*
X282678Y200584D01*
X282964Y200381D01*
X283197Y200225D01*
X283627Y199988D01*
X284146Y199773D01*
X284618Y199637D01*
X284893Y199582D01*
X285239Y199523D01*
X285800Y199492D01*
X286361Y199523D01*
X286707Y199582D01*
X286982Y199637D01*
X287454Y199773D01*
X287973Y199988D01*
X288403Y200225D01*
X288636Y200381D01*
X288922Y200584D01*
X289341Y200958D01*
X289715Y201377D01*
X289919Y201664D01*
X290074Y201897D01*
X290312Y202327D01*
X290527Y202846D01*
X290663Y203318D01*
X290718Y203592D01*
X290776Y203939D01*
X290808Y204500D01*
X290776Y205060D01*
X290718Y205407D01*
X290663Y205681D01*
X290527Y206154D01*
X290312Y206672D01*
X290074Y207103D01*
X289919Y207335D01*
X289715Y207622D01*
X289341Y208041D01*
X288922Y208415D01*
X288636Y208618D01*
X288460Y208736D01*
Y208743D01*
X288363Y208796D01*
X288252Y209133D01*
Y209866D01*
X288363Y210203D01*
X288460Y210257D01*
Y210263D01*
X288636Y210381D01*
X288922Y210584D01*
X289341Y210958D01*
X289715Y211377D01*
X289919Y211664D01*
X290074Y211897D01*
X290312Y212327D01*
X290527Y212846D01*
X290663Y213318D01*
X290718Y213592D01*
X290776Y213939D01*
X290808Y214500D01*
X290776Y215060D01*
X290718Y215407D01*
X290663Y215681D01*
X290527Y216154D01*
X290312Y216672D01*
X290074Y217103D01*
X289919Y217335D01*
X289715Y217622D01*
X289341Y218041D01*
X288922Y218415D01*
X288636Y218618D01*
X288460Y218736D01*
Y218743D01*
X288363Y218796D01*
X288252Y219133D01*
Y219866D01*
X288363Y220203D01*
X288460Y220257D01*
Y220263D01*
X288636Y220381D01*
X288922Y220584D01*
X289341Y220958D01*
X289715Y221377D01*
X289919Y221664D01*
X290074Y221897D01*
X290312Y222327D01*
X290527Y222846D01*
X290663Y223318D01*
X290718Y223592D01*
X290776Y223939D01*
X290808Y224500D01*
X290776Y225060D01*
X290718Y225407D01*
X290663Y225681D01*
X290527Y226154D01*
X290312Y226672D01*
X290074Y227103D01*
X289919Y227335D01*
X289715Y227622D01*
X289341Y228041D01*
X288922Y228415D01*
X288636Y228618D01*
X288403Y228774D01*
X287973Y229012D01*
X287454Y229226D01*
X286982Y229363D01*
X286707Y229417D01*
X286361Y229476D01*
X285800Y229508D01*
X285239Y229476D01*
X284893Y229417D01*
X284618Y229363D01*
X284146Y229226D01*
X283627Y229012D01*
X283197Y228774D01*
X282964Y228618D01*
X282678Y228415D01*
X282259Y228041D01*
X281885Y227622D01*
X281681Y227335D01*
X281564Y227159D01*
X281557D01*
X281504Y227062D01*
X281167Y226952D01*
X280433D01*
X280096Y227062D01*
X280043Y227159D01*
X280036D01*
X279919Y227335D01*
X279715Y227622D01*
X279341Y228041D01*
X278922Y228415D01*
X278636Y228618D01*
X278403Y228774D01*
X277973Y229012D01*
X277454Y229226D01*
X277192Y229302D01*
X276923Y230103D01*
X276929Y230647D01*
X277234Y230916D01*
X277580Y231310D01*
X277871Y231746D01*
X278104Y232216D01*
X278272Y232713D01*
X278337Y233039D01*
X278374Y233227D01*
X278409Y233750D01*
X278374Y234273D01*
X278337Y234462D01*
X278272Y234788D01*
X278104Y235284D01*
X277871Y235754D01*
X277580Y236190D01*
X277234Y236584D01*
X276840Y236930D01*
X276404Y237222D01*
X275934Y237453D01*
X275438Y237622D01*
X275112Y237687D01*
X274923Y237724D01*
X274400Y237759D01*
D02*
G37*
G36*
X179340Y209018D02*
X177779Y208708D01*
X176456Y207824D01*
X175572Y206501D01*
X175262Y204940D01*
X175572Y203379D01*
X176325Y202252D01*
X175371Y201615D01*
X174487Y200292D01*
X174177Y198731D01*
X174487Y197170D01*
X175371Y195847D01*
X176695Y194963D01*
X178255Y194653D01*
X179816Y194963D01*
X181139Y195847D01*
X182023Y197170D01*
X182334Y198731D01*
X182023Y200292D01*
X181270Y201419D01*
X182224Y202056D01*
X183108Y203379D01*
X183418Y204940D01*
X183108Y206501D01*
X182224Y207824D01*
X180901Y208708D01*
X179340Y209018D01*
D02*
G37*
G36*
X138530Y197788D02*
X136969Y197478D01*
X135646Y196594D01*
X134762Y195271D01*
X134452Y193710D01*
X134762Y192149D01*
X135646Y190826D01*
X136969Y189942D01*
X138530Y189632D01*
X140091Y189942D01*
X141414Y190826D01*
X142298Y192149D01*
X142608Y193710D01*
X142298Y195271D01*
X141414Y196594D01*
X140091Y197478D01*
X138530Y197788D01*
D02*
G37*
G36*
X404180Y200313D02*
X403657Y200279D01*
X403143Y200177D01*
X402646Y200008D01*
X402176Y199776D01*
X401740Y199485D01*
X401346Y199139D01*
X401000Y198745D01*
X400709Y198309D01*
X400477Y197838D01*
X400308Y197342D01*
X400206Y196828D01*
X400172Y196304D01*
X400206Y195781D01*
X400308Y195267D01*
X400477Y194771D01*
X400709Y194300D01*
X401000Y193864D01*
X401346Y193470D01*
X401740Y193124D01*
X402176Y192833D01*
X402646Y192601D01*
X403143Y192432D01*
X403657Y192330D01*
X404180Y192296D01*
X404703Y192330D01*
X404797Y192349D01*
X405370Y191188D01*
X405365Y191185D01*
X405020Y190790D01*
X404729Y190354D01*
X404496Y189884D01*
X404328Y189387D01*
X404226Y188873D01*
X404191Y188350D01*
X404226Y187827D01*
X404328Y187313D01*
X404496Y186816D01*
X404729Y186346D01*
X405020Y185910D01*
X405365Y185515D01*
X405760Y185170D01*
X406196Y184879D01*
X406666Y184646D01*
X407163Y184478D01*
X407677Y184376D01*
X408200Y184341D01*
X408723Y184376D01*
X409238Y184478D01*
X409734Y184646D01*
X410204Y184879D01*
X410640Y185170D01*
X411035Y185515D01*
X411380Y185910D01*
X411671Y186346D01*
X411903Y186816D01*
X412072Y187313D01*
X412174Y187827D01*
X412209Y188350D01*
X412174Y188873D01*
X412072Y189387D01*
X411903Y189884D01*
X411795Y190698D01*
X412230Y190990D01*
X412625Y191335D01*
X412970Y191730D01*
X413262Y192166D01*
X413494Y192636D01*
X413662Y193132D01*
X413764Y193647D01*
X413799Y194170D01*
X413764Y194693D01*
X413662Y195207D01*
X413494Y195704D01*
X413262Y196174D01*
X412970Y196610D01*
X412625Y197004D01*
X412230Y197350D01*
X411795Y197641D01*
X411324Y197873D01*
X410828Y198042D01*
X410313Y198144D01*
X409790Y198178D01*
X409267Y198144D01*
X408753Y198042D01*
X408256Y197873D01*
X407652Y198309D01*
X407360Y198745D01*
X407015Y199139D01*
X406620Y199485D01*
X406185Y199776D01*
X405714Y200008D01*
X405218Y200177D01*
X404703Y200279D01*
X404180Y200313D01*
D02*
G37*
G36*
X370200Y190709D02*
X369677Y190674D01*
X369162Y190572D01*
X368666Y190403D01*
X368196Y190172D01*
X367760Y189880D01*
X367365Y189534D01*
X367020Y189140D01*
X366729Y188704D01*
X366497Y188234D01*
X366328Y187738D01*
X366226Y187223D01*
X366191Y186700D01*
X366226Y186177D01*
X366328Y185662D01*
X366497Y185166D01*
X366729Y184696D01*
X367020Y184260D01*
X367365Y183866D01*
X367760Y183520D01*
X368196Y183228D01*
X368666Y182997D01*
X369162Y182828D01*
X369677Y182726D01*
X370200Y182691D01*
X370723Y182726D01*
X371237Y182828D01*
X371734Y182997D01*
X372204Y183228D01*
X372640Y183520D01*
X373035Y183866D01*
X373380Y184260D01*
X373671Y184696D01*
X373903Y185166D01*
X374072Y185662D01*
X374174Y186177D01*
X374209Y186700D01*
X374174Y187223D01*
X374072Y187738D01*
X373903Y188234D01*
X373671Y188704D01*
X373380Y189140D01*
X373035Y189534D01*
X372640Y189880D01*
X372204Y190172D01*
X371734Y190403D01*
X371237Y190572D01*
X370723Y190674D01*
X370200Y190709D01*
D02*
G37*
G36*
X421500Y185259D02*
X420977Y185224D01*
X420462Y185122D01*
X419966Y184953D01*
X419496Y184722D01*
X419060Y184430D01*
X418666Y184084D01*
X418320Y183690D01*
X418028Y183254D01*
X417797Y182784D01*
X417628Y182288D01*
X417526Y181773D01*
X417491Y181250D01*
X417526Y180727D01*
X417628Y180212D01*
X417797Y179716D01*
X418028Y179246D01*
X418320Y178810D01*
X418666Y178416D01*
X419060Y178070D01*
X419496Y177778D01*
X419966Y177547D01*
X420462Y177378D01*
X420977Y177276D01*
X421500Y177241D01*
X422023Y177276D01*
X422537Y177378D01*
X423034Y177547D01*
X423504Y177778D01*
X423940Y178070D01*
X424334Y178416D01*
X424680Y178810D01*
X424972Y179246D01*
X425203Y179716D01*
X425372Y180212D01*
X425474Y180727D01*
X425509Y181250D01*
X425474Y181773D01*
X425372Y182288D01*
X425203Y182784D01*
X424972Y183254D01*
X424680Y183690D01*
X424334Y184084D01*
X423940Y184430D01*
X423504Y184722D01*
X423034Y184953D01*
X422537Y185122D01*
X422023Y185224D01*
X421500Y185259D01*
D02*
G37*
G36*
X381300Y184509D02*
X380777Y184474D01*
X380262Y184372D01*
X379766Y184203D01*
X379296Y183972D01*
X378860Y183680D01*
X378465Y183335D01*
X378120Y182940D01*
X377828Y182504D01*
X377597Y182034D01*
X377428Y181537D01*
X377326Y181023D01*
X377291Y180500D01*
X377326Y179977D01*
X377428Y179463D01*
X377597Y178966D01*
X377828Y178496D01*
X378120Y178060D01*
X378465Y177666D01*
X378860Y177320D01*
X379296Y177029D01*
X379766Y176796D01*
X380262Y176628D01*
X380777Y176526D01*
X381300Y176491D01*
X381823Y176526D01*
X382337Y176628D01*
X382834Y176796D01*
X383304Y177029D01*
X383740Y177320D01*
X384134Y177666D01*
X384480Y178060D01*
X384771Y178496D01*
X385003Y178966D01*
X385172Y179463D01*
X385274Y179977D01*
X385309Y180500D01*
X385274Y181023D01*
X385172Y181537D01*
X385003Y182034D01*
X384771Y182504D01*
X384480Y182940D01*
X384134Y183335D01*
X383740Y183680D01*
X383304Y183972D01*
X382834Y184203D01*
X382337Y184372D01*
X381823Y184474D01*
X381300Y184509D01*
D02*
G37*
G36*
X435220Y182829D02*
X434697Y182794D01*
X434183Y182692D01*
X433686Y182523D01*
X433216Y182292D01*
X432780Y182000D01*
X432385Y181654D01*
X432040Y181260D01*
X431749Y180824D01*
X431517Y180354D01*
X431348Y179858D01*
X431246Y179343D01*
X431211Y178820D01*
X431246Y178297D01*
X431348Y177782D01*
X431517Y177286D01*
X431749Y176816D01*
X432040Y176380D01*
X432385Y175986D01*
X432780Y175640D01*
X433216Y175348D01*
X433686Y175117D01*
X434183Y174948D01*
X434697Y174846D01*
X435220Y174811D01*
X435743Y174846D01*
X436258Y174948D01*
X436754Y175117D01*
X437224Y175348D01*
X437660Y175640D01*
X438055Y175986D01*
X438400Y176380D01*
X438691Y176816D01*
X438923Y177286D01*
X439092Y177782D01*
X439194Y178297D01*
X439229Y178820D01*
X439194Y179343D01*
X439092Y179858D01*
X438923Y180354D01*
X438691Y180824D01*
X438400Y181260D01*
X438055Y181654D01*
X437660Y182000D01*
X437224Y182292D01*
X436754Y182523D01*
X436258Y182692D01*
X435743Y182794D01*
X435220Y182829D01*
D02*
G37*
G36*
X157680Y174338D02*
X156119Y174028D01*
X154796Y173144D01*
X153912Y171821D01*
X153602Y170260D01*
X153912Y168699D01*
X154796Y167376D01*
X156119Y166492D01*
X157680Y166182D01*
X159241Y166492D01*
X160564Y167376D01*
X161448Y168699D01*
X161758Y170260D01*
X161448Y171821D01*
X160564Y173144D01*
X159241Y174028D01*
X157680Y174338D01*
D02*
G37*
G36*
X389650Y159699D02*
X389127Y159664D01*
X388612Y159562D01*
X388116Y159394D01*
X387646Y159162D01*
X387210Y158870D01*
X386815Y158525D01*
X386470Y158130D01*
X386178Y157694D01*
X385946Y157224D01*
X385778Y156728D01*
X385676Y156213D01*
X385641Y155690D01*
X385676Y155167D01*
X385778Y154653D01*
X385946Y154156D01*
X386178Y153686D01*
X386470Y153250D01*
X386815Y152856D01*
X387210Y152510D01*
X387646Y152219D01*
X388116Y151987D01*
X388612Y151818D01*
X389127Y151716D01*
X389650Y151682D01*
X390173Y151716D01*
X390687Y151818D01*
X391184Y151987D01*
X391654Y152219D01*
X392090Y152510D01*
X392484Y152856D01*
X392830Y153250D01*
X393121Y153686D01*
X393353Y154156D01*
X393522Y154653D01*
X393624Y155167D01*
X393658Y155690D01*
X393624Y156213D01*
X393522Y156728D01*
X393353Y157224D01*
X393121Y157694D01*
X392830Y158130D01*
X392484Y158525D01*
X392090Y158870D01*
X391654Y159162D01*
X391184Y159394D01*
X390687Y159562D01*
X390173Y159664D01*
X389650Y159699D01*
D02*
G37*
G36*
X402000Y159009D02*
X401477Y158974D01*
X400962Y158872D01*
X400466Y158703D01*
X399996Y158472D01*
X399560Y158180D01*
X399165Y157835D01*
X398820Y157440D01*
X398529Y157004D01*
X398297Y156534D01*
X398128Y156038D01*
X398026Y155523D01*
X397991Y155000D01*
X398026Y154477D01*
X398128Y153963D01*
X398297Y153466D01*
X398529Y152996D01*
X398820Y152560D01*
X399165Y152166D01*
X399560Y151820D01*
X399996Y151529D01*
X400466Y151297D01*
X400962Y151128D01*
X401477Y151026D01*
X402000Y150991D01*
X402523Y151026D01*
X403037Y151128D01*
X403534Y151297D01*
X404004Y151529D01*
X404440Y151820D01*
X404835Y152166D01*
X405180Y152560D01*
X405471Y152996D01*
X405704Y153466D01*
X405872Y153963D01*
X405974Y154477D01*
X406009Y155000D01*
X405974Y155523D01*
X405872Y156038D01*
X405704Y156534D01*
X405471Y157004D01*
X405180Y157440D01*
X404835Y157835D01*
X404440Y158180D01*
X404004Y158472D01*
X403534Y158703D01*
X403037Y158872D01*
X402523Y158974D01*
X402000Y159009D01*
D02*
G37*
G36*
X418000Y160109D02*
X417477Y160074D01*
X416963Y159972D01*
X416466Y159803D01*
X415996Y159572D01*
X415560Y159280D01*
X415165Y158934D01*
X414820Y158540D01*
X414529Y158104D01*
X414297Y157634D01*
X414128Y157137D01*
X414026Y156623D01*
X413991Y156100D01*
X414026Y155577D01*
X414128Y155063D01*
X414297Y154566D01*
X414529Y154096D01*
X414820Y153660D01*
X415165Y153265D01*
X415560Y152920D01*
X415996Y152628D01*
X416466Y152396D01*
X416581Y152358D01*
X416621Y152333D01*
X417106Y151646D01*
X417287Y150910D01*
X417228Y150737D01*
X417126Y150223D01*
X417091Y149700D01*
X417126Y149177D01*
X417228Y148663D01*
X417397Y148166D01*
X417629Y147696D01*
X417920Y147260D01*
X418265Y146866D01*
X418660Y146520D01*
X419096Y146229D01*
X419566Y145997D01*
X420062Y145828D01*
X420577Y145726D01*
X421100Y145691D01*
X421623Y145726D01*
X422137Y145828D01*
X422634Y145997D01*
X423104Y146229D01*
X423540Y146520D01*
X423935Y146866D01*
X424280Y147260D01*
X424571Y147696D01*
X424803Y148166D01*
X424972Y148663D01*
X425074Y149177D01*
X425109Y149700D01*
X425074Y150223D01*
X424972Y150737D01*
X424803Y151234D01*
X424571Y151704D01*
X424280Y152140D01*
X423935Y152535D01*
X423540Y152880D01*
X423104Y153172D01*
X422634Y153404D01*
X422519Y153442D01*
X422479Y153467D01*
X421994Y154154D01*
X421813Y154890D01*
X421872Y155063D01*
X421974Y155577D01*
X422009Y156100D01*
X421974Y156623D01*
X421872Y157137D01*
X421703Y157634D01*
X421471Y158104D01*
X421180Y158540D01*
X420835Y158934D01*
X420440Y159280D01*
X420004Y159572D01*
X419534Y159803D01*
X419038Y159972D01*
X418523Y160074D01*
X418000Y160109D01*
D02*
G37*
G36*
X402800Y145609D02*
X402277Y145574D01*
X401763Y145472D01*
X401266Y145303D01*
X400796Y145071D01*
X400360Y144780D01*
X399966Y144434D01*
X399620Y144040D01*
X399328Y143604D01*
X399097Y143134D01*
X398928Y142638D01*
X398826Y142123D01*
X398791Y141600D01*
X398826Y141077D01*
X398928Y140562D01*
X399097Y140066D01*
X399328Y139596D01*
X399620Y139160D01*
X399966Y138765D01*
X400280Y138490D01*
X400287Y138113D01*
X400112Y137379D01*
X400006Y137153D01*
X399566Y137003D01*
X399096Y136771D01*
X398660Y136480D01*
X398265Y136135D01*
X397920Y135740D01*
X397629Y135304D01*
X397397Y134834D01*
X397228Y134338D01*
X397126Y133823D01*
X397091Y133300D01*
X397126Y132777D01*
X397228Y132262D01*
X397397Y131766D01*
X397629Y131296D01*
X397920Y130860D01*
X398265Y130465D01*
X398660Y130120D01*
X399096Y129829D01*
X399566Y129597D01*
X400062Y129428D01*
X400577Y129326D01*
X401100Y129291D01*
X401623Y129326D01*
X402137Y129428D01*
X402634Y129597D01*
X403104Y129829D01*
X403540Y130120D01*
X403935Y130465D01*
X404280Y130860D01*
X404571Y131296D01*
X404804Y131766D01*
X404972Y132262D01*
X405074Y132777D01*
X405109Y133300D01*
X405074Y133823D01*
X404972Y134338D01*
X404804Y134834D01*
X404571Y135304D01*
X404280Y135740D01*
X403935Y136135D01*
X403620Y136410D01*
X403613Y136787D01*
X403788Y137521D01*
X403894Y137747D01*
X404334Y137896D01*
X404804Y138128D01*
X405240Y138420D01*
X405634Y138765D01*
X405980Y139160D01*
X406272Y139596D01*
X406503Y140066D01*
X406672Y140562D01*
X406774Y141077D01*
X406809Y141600D01*
X406774Y142123D01*
X406672Y142638D01*
X406503Y143134D01*
X406272Y143604D01*
X405980Y144040D01*
X405634Y144434D01*
X405240Y144780D01*
X404804Y145071D01*
X404334Y145303D01*
X403838Y145472D01*
X403323Y145574D01*
X402800Y145609D01*
D02*
G37*
G36*
X153645Y132178D02*
X152085Y131868D01*
X150762Y130984D01*
X149878Y129661D01*
X149567Y128100D01*
X149878Y126539D01*
X150762Y125216D01*
X152085Y124332D01*
X153645Y124022D01*
X155206Y124332D01*
X156529Y125216D01*
X157414Y126539D01*
X157724Y128100D01*
X157414Y129661D01*
X156529Y130984D01*
X155206Y131868D01*
X153645Y132178D01*
D02*
G37*
G36*
X421200Y143808D02*
X420677Y143774D01*
X420163Y143672D01*
X419666Y143503D01*
X419196Y143271D01*
X418760Y142980D01*
X418366Y142634D01*
X418020Y142240D01*
X417729Y141804D01*
X417496Y141334D01*
X417328Y140837D01*
X417226Y140323D01*
X417191Y139800D01*
X417226Y139277D01*
X417328Y138762D01*
X417496Y138266D01*
X417729Y137795D01*
X418020Y137360D01*
X418259Y136650D01*
X418020Y135940D01*
X417729Y135504D01*
X417496Y135034D01*
X417328Y134537D01*
X417226Y134023D01*
X417191Y133500D01*
X417226Y132977D01*
X417328Y132463D01*
X417496Y131966D01*
X417729Y131496D01*
X418020Y131060D01*
X418366Y130666D01*
X418760Y130320D01*
X419145Y129719D01*
X419029Y129010D01*
X418797Y128540D01*
X418628Y128044D01*
X418526Y127529D01*
X418492Y127006D01*
X418526Y126483D01*
X418628Y125969D01*
X418797Y125472D01*
X419029Y125002D01*
X419320Y124566D01*
X419666Y124172D01*
X420060Y123826D01*
X420496Y123535D01*
X420966Y123303D01*
X421463Y123134D01*
X421977Y123032D01*
X422500Y122998D01*
X423023Y123032D01*
X423538Y123134D01*
X424034Y123303D01*
X424504Y123535D01*
X424940Y123826D01*
X425335Y124172D01*
X425680Y124566D01*
X425972Y125002D01*
X426203Y125472D01*
X426372Y125969D01*
X426474Y126483D01*
X426509Y127006D01*
X426474Y127529D01*
X426372Y128044D01*
X426203Y128540D01*
X425972Y129010D01*
X425680Y129446D01*
X425335Y129841D01*
X424940Y130186D01*
X424555Y130787D01*
X424672Y131496D01*
X424903Y131966D01*
X425072Y132463D01*
X425174Y132977D01*
X425209Y133500D01*
X425174Y134023D01*
X425072Y134537D01*
X424903Y135034D01*
X424672Y135504D01*
X424380Y135940D01*
X424141Y136650D01*
X424380Y137360D01*
X424672Y137795D01*
X424903Y138266D01*
X425072Y138762D01*
X425174Y139277D01*
X425209Y139800D01*
X425174Y140323D01*
X425072Y140837D01*
X424903Y141334D01*
X424672Y141804D01*
X424380Y142240D01*
X424035Y142634D01*
X423640Y142980D01*
X423204Y143271D01*
X422734Y143503D01*
X422238Y143672D01*
X421723Y143774D01*
X421200Y143808D01*
D02*
G37*
G36*
X408200Y129709D02*
X407677Y129674D01*
X407163Y129572D01*
X406666Y129403D01*
X406196Y129171D01*
X405760Y128880D01*
X405365Y128534D01*
X405020Y128140D01*
X404729Y127704D01*
X404496Y127234D01*
X404328Y126737D01*
X404226Y126223D01*
X404191Y125700D01*
X404226Y125177D01*
X404328Y124663D01*
X404496Y124166D01*
X404729Y123696D01*
X405020Y123260D01*
X405365Y122865D01*
X405760Y122520D01*
X406196Y122228D01*
X406666Y121997D01*
X407163Y121828D01*
X407677Y121726D01*
X408200Y121691D01*
X408723Y121726D01*
X409238Y121828D01*
X409734Y121997D01*
X410204Y122228D01*
X410640Y122520D01*
X411035Y122865D01*
X411380Y123260D01*
X411671Y123696D01*
X411903Y124166D01*
X412072Y124663D01*
X412174Y125177D01*
X412209Y125700D01*
X412174Y126223D01*
X412072Y126737D01*
X411903Y127234D01*
X411671Y127704D01*
X411380Y128140D01*
X411035Y128534D01*
X410640Y128880D01*
X410204Y129171D01*
X409734Y129403D01*
X409238Y129572D01*
X408723Y129674D01*
X408200Y129709D01*
D02*
G37*
G36*
X321162Y135110D02*
X319601Y134800D01*
X318278Y133916D01*
X317394Y132593D01*
X317084Y131032D01*
X317394Y129471D01*
X318278Y128148D01*
X319601Y127264D01*
X321162Y126954D01*
X322723Y127264D01*
X324046Y128148D01*
X324930Y129471D01*
X325240Y131032D01*
X324930Y132593D01*
X324046Y133916D01*
X322723Y134800D01*
X321162Y135110D01*
D02*
G37*
G36*
X306900Y136278D02*
X305339Y135968D01*
X304016Y135084D01*
X303132Y133761D01*
X302822Y132200D01*
X303132Y130639D01*
X304016Y129316D01*
X305339Y128432D01*
X305844Y128332D01*
X306939Y127996D01*
X307274Y126901D01*
X307375Y126397D01*
X308259Y125073D01*
X309582Y124189D01*
X311143Y123879D01*
X312703Y124189D01*
X314027Y125073D01*
X314911Y126397D01*
X315221Y127957D01*
X314911Y129518D01*
X314027Y130841D01*
X312703Y131725D01*
X312199Y131826D01*
X311104Y132161D01*
X310768Y133256D01*
X310668Y133761D01*
X309784Y135084D01*
X308461Y135968D01*
X306900Y136278D01*
D02*
G37*
%LPD*%
D11*
X229659Y152133D02*
X266767D01*
X218100Y120957D02*
Y140574D01*
X229659Y152133D01*
X230901Y149132D02*
X261335D01*
X221100Y139331D02*
X230901Y149132D01*
X221100Y122200D02*
Y139331D01*
X219531Y152600D02*
X231241Y164310D01*
X210849Y152600D02*
X219531D01*
X218289Y155600D02*
X231749Y169060D01*
X209606Y155600D02*
X218289D01*
X231241Y164310D02*
X246250D01*
X231749Y169060D02*
X248733D01*
X315614Y146100D02*
X324850Y155336D01*
X327760Y174105D02*
Y222517D01*
X325516Y224760D02*
X327760Y222517D01*
X325516Y224760D02*
Y225572D01*
X306458Y149550D02*
X308598Y151690D01*
X269350Y149550D02*
X306458D01*
X202250Y160569D02*
X213741Y172060D01*
X202250Y160250D02*
Y160569D01*
X333400Y235283D02*
X335179D01*
X261335Y149132D02*
X264368Y146100D01*
X308598Y151690D02*
X309410D01*
X266767Y152133D02*
X269350Y149550D01*
X253944Y163850D02*
X270073D01*
X274632Y159290D01*
X252286Y169750D02*
X300523D01*
X253528Y172750D02*
X297437D01*
X254771Y175750D02*
X296195D01*
X309482Y159290D02*
X312512Y162320D01*
X264368Y146100D02*
X315614D01*
X233261Y197260D02*
X254771Y175750D01*
X296195D02*
X303982Y183537D01*
X235028Y191250D02*
X253528Y172750D01*
X297437D02*
X305224Y180537D01*
X249976Y172060D02*
X252286Y169750D01*
X300523D02*
X308310Y177537D01*
X256751Y213751D02*
Y264249D01*
X256250Y264750D02*
X256751Y264249D01*
Y213751D02*
X257251Y213250D01*
X331367Y233249D02*
X333400Y235283D01*
X218100Y120957D02*
X231057Y108000D01*
X357778Y147000D02*
Y151991D01*
X364699Y152100D02*
X373300Y160700D01*
X308310Y177537D02*
X315977D01*
X324759Y186320D01*
X305224Y180537D02*
X308005D01*
X306762Y183537D02*
X309545Y186320D01*
X315975Y162320D02*
X327760Y174105D01*
X312512Y162320D02*
X315975D01*
X303982Y183537D02*
X306762D01*
X274632Y159290D02*
X309482D01*
X248733Y169060D02*
X253944Y163850D01*
X324634Y236048D02*
X327432Y233249D01*
X324634Y236048D02*
Y236850D01*
X321835Y239648D02*
X324634Y236850D01*
X317900Y239648D02*
X321835D01*
X327432Y233249D02*
X331367D01*
X324751Y242648D02*
X329399Y237999D01*
X231057Y108000D02*
X237500D01*
X226550Y116750D02*
X237500D01*
X221100Y122200D02*
X226550Y116750D01*
X370681Y175702D02*
Y176514D01*
Y175702D02*
X373300Y173084D01*
X357778Y151991D02*
X368550Y162762D01*
X373300Y160700D02*
Y173084D01*
X368550Y162762D02*
Y170509D01*
X225000Y191250D02*
X235028D01*
X308005Y180537D02*
X312545Y185077D01*
X213741Y172060D02*
X249976D01*
X312260Y234007D02*
X317900Y239648D01*
X312545Y185077D02*
Y209400D01*
X315259Y215825D02*
Y230290D01*
X186149Y127900D02*
X210849Y152600D01*
X200006Y146000D02*
X209606Y155600D01*
X316658Y242648D02*
X324751D01*
X309545Y186320D02*
Y208157D01*
X309260Y208442D02*
Y235250D01*
Y208442D02*
X309545Y208157D01*
X191750Y146000D02*
X200006D01*
X168600Y127900D02*
X186149D01*
X312260Y209685D02*
X312545Y209400D01*
X315259Y215825D02*
X324759Y206325D01*
X315259Y230290D02*
X319868Y234898D01*
X324759Y186320D02*
Y206325D01*
X312260Y209685D02*
Y234007D01*
X309260Y235250D02*
X316658Y242648D01*
D12*
X207729Y130756D02*
Y135216D01*
X231553Y159040D02*
X264440D01*
X251931Y202269D02*
Y249844D01*
X238851Y262923D02*
Y263010D01*
Y262923D02*
X251931Y249844D01*
Y202269D02*
X262220Y191979D01*
X264440Y159040D02*
X264499Y159100D01*
X262220Y189120D02*
Y191979D01*
X207729Y135216D02*
X231553Y159040D01*
X210769Y121241D02*
Y127716D01*
X208748Y118690D02*
Y119220D01*
X207729Y130756D02*
X210769Y127716D01*
X208748Y119220D02*
X210769Y121241D01*
D48*
X110400Y190000D02*
D03*
X273600D02*
D03*
D61*
X324850Y155336D02*
D03*
X335179Y235283D02*
D03*
X264499Y159100D02*
D03*
X309410Y151690D02*
D03*
X357778Y147000D02*
D03*
X364699Y152100D02*
D03*
X325516Y225572D02*
D03*
X329399Y237999D02*
D03*
X233261Y197260D02*
D03*
X257251Y213250D02*
D03*
X370681Y176514D02*
D03*
X368550Y170509D02*
D03*
X262220Y189120D02*
D03*
X246250Y164310D02*
D03*
X319868Y234898D02*
D03*
X202250Y160250D02*
D03*
X238851Y263010D02*
D03*
X168600Y127900D02*
D03*
X191750Y146000D02*
D03*
X237500Y108000D02*
D03*
Y116750D02*
D03*
X256250Y264750D02*
D03*
X225000Y191250D02*
D03*
X208748Y118690D02*
D03*
M02*
