M48
;Layer_Color=9474304
;FILE_FORMAT=4:4
METRIC,LZ
;TYPE=PLATED
T1F00S00C0.2000
T2F00S00C0.4000
T3F00S00C1.0000
%
T01
X00153645Y001281
X001686Y001279
X0016845Y0013655
X00166248Y001455
X0017525
X0019175Y00146
X00205499Y00140533
Y00125533
X00208748Y0011869
X00212999Y00133033
X00197999
X0020225Y0016025
X00208748Y0016035
X0021975Y0017784
X0021515Y0018267
X0021975Y001875
X00225Y0019125
X00233261Y0019726
X0026222Y0018912
X002789Y001808
X002853Y001915
X00304795Y00188287
X00320009
Y00173072
X00310745Y0016707
X00304561Y0016707
X0029669Y0016404
X0029069
X002766
X002732Y001543
X00264499Y001591
X00265Y0014
X00254583Y00144382
X002417Y001443
X0024625Y0016431
X002375Y0011675
Y00108
X00215249Y0010649
X002882Y00124254
X002918Y001413
X003069Y001322
X00311143Y00127957
X00321162Y00131032
X003274Y001455
X0032485Y00155336
X00334834Y00157059
X0033584Y0015089
X0033608Y00173072
X00329564Y00167072
X00350545Y0016707
X00354099Y0015544
X00357778Y00147
X00364699Y001521
X0036047Y001614
X0036855Y00170509
X00370681Y00176514
X003702Y001867
X00357545Y00188176
X00351295Y00188287
X0033608
Y00204357
Y00219572
X00320009
X00325516Y00225572
X00319868Y00234898
X00329399Y00237999
X00335179Y00235283
X00341179Y00236009
X00343126Y002546
X00344071Y00261071
X00348506Y00265879
X0035313Y00270503
X00358966Y00260493
X0036272Y00255436
Y00249436
X003629Y00243437
X00361822Y00228522
X00387499Y00235
Y00245
X00382499Y00255
X00372499
X00389999Y0026
X00392499Y00225
X003926Y002052
X0038425Y002
X00378
X003825Y001935
X003813Y001805
X003817Y001745
X003781Y001697
X0038965Y0015569
X0039643Y0014843
X0033875Y00125
X00307499Y00115
X0030941Y0015169
X0031326Y0015635
X00320009Y00204357
X00304795
X002923Y0023375
X0029175Y002405
X00298
Y002475
X0029175
X0029175Y002545
X00298
X0031617Y002569
X0032325Y00261
X00338461Y00267209
X0029375Y0027325
X0025625Y0026475
X00238851Y0026301
X002129Y002615
X002128Y002675
X0018575Y00255
Y0024875
X001894Y002345
X0019525Y0022996
X0020475Y0021325
X0017934Y0020494
X00178255Y00198731
X0013853Y0019371
X0015768Y0017026
X0021975Y002345
X002245Y0022996
X00245782Y00232011
Y00238262
X00262763
Y00232011
X002744Y0023375
X00257251Y0021325
X00351295Y00204357
X00399Y00214
X00399999Y0022
Y0023
X00407499Y00225
X00417499
X00427499
X00437499
X0042925Y0020975
X004389Y00201
X0043469Y0018713
X0042927Y0018989
X004215Y0018125
X0041474Y0018115
X004082Y0018835
X0040979Y0019417
X0040418Y00196304
X0039875Y0018925
X00404Y00209639
X0041325Y0020575
X0043522Y0017882
X004246Y001655
X00418Y001561
X004211Y001497
X004212Y001398
Y001335
X004225Y00127006
X004082Y001257
X0040028Y001255
X004011Y001333
X004028Y001416
X00402Y00155
X0041022Y00105779
X004243Y001085
X004311
T02
X002758Y002045
X002858
Y002145
X002758
Y002245
X002858
T03
X001104Y0019
X002736
M30
