M48
;Layer_Color=9474304
;FILE_FORMAT=4:4
METRIC,LZ
;TYPE=PLATED
T1F00S00C0.2000
T2F00S00C0.4000
T3F00S00C1.0000
%
T01
X001245Y0018825
X0013075
X00145Y001919
X0014954Y0019775
X0016625Y0020725
X0017456Y0018184
X00180769Y00180755
X0018579Y0014103
X0020924Y0016018
X00234Y00168748
Y0017775
X0024295Y0017095
X002516Y001711
X002514Y00156145
X00246467Y00200499
X00253967Y00207999
X0026081Y00211248
X00246467Y00215499
X00238967Y00207999
X002335Y0019425
X0021925Y0020475
X0021915Y00211248
X0020166Y0022225
X0019683Y0021765
X00192Y0022225
X0018825Y002275
X0018224Y00235761
X0019038Y0026472
X001987Y002814
X00188Y002878
X00191213Y00307295
Y00322509
X00206427
X0021243Y00313245
X0021243Y00307061
X0021546Y0029919
Y0029319
Y002791
X002252Y002757
X002204Y00266999
X002395Y002675
X00235117Y00257083
X002352Y002442
X0021519Y0024875
X0026275Y0024
X002715
X0027301Y00217749
X00255245Y002907
X002382Y002943
X002473Y003094
X00251542Y00313643
X00248468Y00323662
X00234Y003299
X00224164Y0032735
X0022244Y00337334
X0022861Y0033834
X00206427Y0033858
X00212428Y00332064
X0021243Y00353045
X0022406Y00356599
X002325Y00360278
X002274Y00367199
X002181Y0036297
X0020899Y0037105
X00202986Y00373181
X001928Y003727
X00191323Y00360045
X00191213Y00353795
Y0033858
X00175142
X00159928
Y00322509
X00153927Y00328016
X00144602Y00322368
X001415Y00331899
X00144217Y00337679
X0014349Y00343679
X001249Y00345626
X00118428Y00346571
X00113621Y00351006
X00108997Y0035563
X00119006Y00361466
X00124063Y0036522
X00130063
X00136063Y003654
X00150978Y00364322
X001445Y00389999
X001345
X001245Y00384999
Y00374999
X001195Y00392499
X001545Y00394999
X001743Y003951
X001795Y0038675
Y003805
X00186Y00385
X00199Y003838
X00205Y003842
X002098Y003806
X0022381Y0039215
X0022315Y0031576
X0022781Y0031191
X002645Y00309999
X002545Y0034125
X00175142Y00353795
Y00322509
Y00307295
X0014575Y002948
X00139Y0029425
Y003005
X00132
Y0029425
X00125Y0029425
Y003005
X001226Y0031867
X001185Y0032575
X00112291Y00340961
X0010625Y0029625
X0011475Y0025875
X0011649Y00241351
X00118Y002154
X00112Y002153
X00145Y0022225
X0014954Y00227
X00147488Y00248282
X00141238
Y00265263
X00147488
X0014575Y002769
X0016625Y00259751
X00389Y0029625
X00395041Y00340961
X00396371Y00351006
X00391747Y0035563
X0039475Y002153
X0040075Y002154
X0039924Y00241351
X003975Y0025875
X00423988Y00265263
X00430238
X004285Y002769
Y002948
X0042175Y0029425
Y003005
X0041475
Y0029425
X0040775Y0029425
Y003005
X0040535Y0031867
X0040125Y0032575
X00401178Y00346571
X0040765Y00345626
X00406813Y0036522
X00412813
X00418813Y003654
X00433728Y00364322
X00426241Y00343679
X00426967Y00337679
X0042425Y00331899
X00427352Y00322368
X00436677Y00328016
X00442678Y00322509
X00457893
Y00307295
X00473963
Y00322509
X00489178
X0049518Y00313245
X0049518Y00307061
X0049821Y0029919
Y0029319
Y002791
X0050795Y002757
X0050315Y00266999
X0052225Y002675
X00517867Y00257083
X0051795Y002442
X0049794Y0024875
X0048441Y0022225
X0047958Y0021765
X0047475Y0022225
X00471Y002275
X0046499Y00235761
X0047313Y0026472
X0048145Y002814
X0047075Y002878
X00449Y00259751
X00430238Y00248282
X00423988
X0043229Y00227
X0042775Y0022225
X0043229Y0019775
X0042775Y001919
X004135Y0018825
X0040725
X0045731Y0018184
X00463519Y00180755
X00449Y0020725
X00502Y0020475
X005019Y00211248
X00521717Y00207999
X00536717
X0054356Y00211248
X00529217Y00215499
Y00200499
X0051625Y0019425
X0051675Y0017775
Y00168748
X005257Y0017095
X0053435Y001711
X0053415Y00156145
X0049199Y0016018
X0046854Y0014103
X0055576Y00217749
X0055425Y0024
X005455
X00537995Y002907
X0052095Y002943
X0053005Y003094
X00534292Y00313643
X00531218Y00323662
X0051675Y003299
X00506914Y0032735
X00505191Y00337334
X0051136Y0033834
X00489178Y0033858
X00495178Y00332064
X0049518Y00353045
X0050681Y00356599
X0051525Y00360278
X0051015Y00367199
X0050085Y0036297
X0049174Y0037105
X00485736Y00373181
X0047555Y003727
X00474073Y00360045
X00473963Y00353795
Y0033858
X00457893
X00442678
X00457893Y00353795
X0046225Y003805
Y0038675
X0046875Y00385
X0048175Y003838
X0048775Y003842
X0049255Y003806
X0050656Y0039215
X0045705Y003951
X0043725Y00394999
X0042725Y00389999
X0041725
X0040725Y00384999
Y00374999
X00401756Y00361466
X0040225Y00392499
X005059Y0031576
X0051056Y0031191
X0054725Y00309999
X0053725Y0034125
X00677791Y00340961
X00679121Y00351006
X00683928Y00346571
X006904Y00345626
X00689563Y0036522
X00695563
X00701563Y003654
X00716478Y00364322
X00708991Y00343679
X00709717Y00337679
X00707Y00331899
X00710102Y00322368
X00719427Y00328016
X00725428Y00322509
X00740643
Y00307295
X00756713
Y00322509
X00771928
X0077793Y00313245
X0077793Y00307061
X0078096Y0029919
Y0029319
Y002791
X007907Y002757
X007859Y00266999
X0078069Y0024875
X0076716Y0022225
X0076233Y0021765
X007575Y0022225
X0075375Y002275
X0074774Y00235761
X0075588Y0026472
X007642Y002814
X007535Y002878
X0071125Y002948
X007045Y0029425
Y003005
X006975
Y0029425
X006905Y0029425
Y003005
X006881Y0031867
X00684Y0032575
X00684507Y00361466
X00674497Y0035563
X0069Y00374999
Y00384999
X00685Y00392499
X007Y00389999
X0071
X0072Y00394999
X007398Y003951
X00745Y0038675
Y003805
X007515Y00385
X007645Y003838
X007705Y003842
X007753Y003806
X0077449Y0037105
X00768486Y00373181
X007583Y003727
X00756823Y00360045
X00756713Y00353795
Y0033858
X00771928
X00777928Y00332064
X00787941Y00337334
X00789664Y0032735
X0078865Y0031576
X0079331Y0031191
X0078956Y00356599
X007836Y0036297
X007929Y00367199
X0078931Y0039215
X0077793Y00353045
X00740643Y00353795
Y0033858
X00725428
X0071125Y002769
X00712989Y00265263
X00706738
Y00248282
X00712989
X0071504Y00227
X007105Y0022225
X0071504Y0019775
X007105Y001919
X0069625Y0018825
X0069
X006835Y002154
X006775Y002153
X0068199Y00241351
X0068025Y0025875
X0067175Y0029625
X0073175Y00259751
Y0020725
X0074006Y0018184
X00746269Y00180755
X0075129Y0014103
X0077474Y0016018
X0078475Y0020475
X0078465Y00211248
X00804467Y00207999
X00819467
X0082631Y00211248
X00811967Y00215499
Y00200499
X00799Y0019425
X007995Y0017775
Y00168748
X0080845Y0017095
X008171Y001711
X008169Y00156145
X0083851Y00217749
X00837Y0024
X0082825
X008007Y002442
X00800617Y00257083
X00805Y002675
X008037Y002943
X00820745Y002907
X008128Y003094
X00817042Y00313643
X00813968Y00323662
X007995Y003299
X0079411Y0033834
X00798Y00360278
X0082Y0034125
X0083Y00309999
X009545Y0029625
X0097325Y0029425
Y003005
X0098025Y003005
Y0029425
X0098725
Y003005
X00994Y002948
Y002769
X00995739Y00265263
X00989488
Y00248282
X00995739
X0099779Y00227
X0099325Y0022225
X0099779Y0019775
X0099325Y001919
X00979Y0018825
X0097275
X0096625Y002154
X0096025Y002153
X0096474Y00241351
X00963Y0025875
X010145Y00259751
X0103863Y0026472
X0104695Y002814
X0103625Y002878
X01039463Y00307295
Y00322509
X01054678
X0106068Y00313245
X0106068Y00307061
X0106371Y0029919
Y0029319
Y002791
X0107345Y002757
X0106865Y00266999
X0108775Y002675
X01083367Y00257083
X0108345Y002442
X0106344Y0024875
X0104991Y0022225
X0104508Y0021765
X0104025Y0022225
X010365Y002275
X0103049Y00235761
X010145Y0020725
X0102281Y0018184
X01029019Y00180755
X0103404Y0014103
X0105749Y0016018
X0108225Y00168748
Y0017775
X010912Y0017095
X0109985Y001711
X0109965Y00156145
X01094717Y00200499
X01102217Y00207999
X0110906Y00211248
X01094717Y00215499
X01087217Y00207999
X0108175Y0019425
X010675Y0020475
X010674Y00211248
X0112126Y00217749
X0111975Y0024
X01111
X01103496Y002907
X0108645Y002943
X0109555Y003094
X01099793Y00313643
X01096718Y00323662
X0108225Y003299
X01072414Y0032735
X01070691Y00337334
X0107686Y0033834
X01054678Y0033858
X01060678Y00332064
X0106068Y00353045
X0107231Y00356599
X0108075Y00360278
X0107565Y00367199
X0106635Y0036297
X0105724Y0037105
X01051236Y00373181
X0104105Y003727
X01039573Y00360045
X01039463Y00353795
Y0033858
X01023393
X01008178
Y00322509
X01002178Y00328016
X00992852Y00322368
X0098975Y00331899
X00992467Y00337679
X00991741Y00343679
X0097315Y00345626
X00966678Y00346571
X00961871Y00351006
X00957247Y0035563
X00967257Y00361466
X00972313Y0036522
X00978313
X00984313Y003654
X00999228Y00364322
X0099275Y00389999
X0098275
X0097275Y00384999
Y00374999
X0096775Y00392499
X0100275Y00394999
X0102255Y003951
X0102775Y0038675
Y003805
X0103425Y00385
X0104725Y003838
X0105325Y003842
X0105805Y003806
X0107206Y0039215
X010714Y0031576
X0107606Y0031191
X0111275Y00309999
X0110275Y0034125
X01023393Y00353795
Y00322509
Y00307295
X0097085Y0031867
X0096675Y0032575
X00960541Y00340961
X01243291
X01244621Y00351006
X01249428Y00346571
X012559Y00345626
X01255063Y0036522
X01261064
X01267064Y003654
X01281978Y00364322
X01274491Y00343679
X01275217Y00337679
X01272501Y00331899
X01275602Y00322368
X01284928Y00328016
X01290928Y00322509
X01306143
Y00307295
X01322213
Y00322509
X01337428
X0134343Y00313245
X0134343Y00307061
X0134646Y0029919
Y0029319
Y002791
X013562Y002757
X013514Y00266999
X013705Y002675
X01366118Y00257083
X013662Y002442
X0134619Y0024875
X0133266Y0022225
X0132783Y0021765
X01323Y0022225
X0131925Y002275
X0131324Y00235761
X0132138Y0026472
X013297Y002814
X01319Y002878
X0127675Y002948
X0127Y0029425
Y003005
X01263
Y0029425
X01256Y0029425
Y003005
X012536Y0031867
X012495Y0032575
X01250007Y00361466
X01239997Y0035563
X012555Y00374999
Y00384999
X012505Y00392499
X012655Y00389999
X012755
X012855Y00394999
X013053Y003951
X013105Y0038675
Y003805
X01317Y00385
X0133Y003838
X01336Y003842
X013408Y003806
X01339991Y0037105
X01333986Y00373181
X013238Y003727
X01322323Y00360045
X01322213Y00353795
Y0033858
X01337428
X01343428Y00332064
X01353441Y00337334
X0135961Y0033834
X01365Y003299
X01355164Y0032735
X0135415Y0031576
X0135881Y0031191
X013783Y003094
X01382543Y00313643
X01379468Y00323662
X013855Y0034125
X013635Y00360278
X013584Y00367199
X013491Y0036297
X0135506Y00356599
X0134343Y00353045
X01306143Y00353795
Y0033858
X01290928
X0127675Y002769
X01278489Y00265263
X01272238
Y00248282
X01278489
X0128054Y00227
X01276Y0022225
X0128054Y0019775
X01276Y001919
X0126175Y0018825
X012555
X01249Y002154
X01243Y002153
X0124749Y00241351
X0124575Y0025875
X0123725Y0029625
X0129725Y00259751
Y0020725
X0130556Y0018184
X01311769Y00180755
X0131679Y0014103
X0134024Y0016018
X01365Y00168748
Y0017775
X0137395Y0017095
X013826Y001711
X013824Y00156145
X01377467Y00200499
X01384967Y00207999
X0139181Y00211248
X01377467Y00215499
X01369967Y00207999
X013645Y0019425
X0135025Y0020475
X0135015Y00211248
X0140401Y00217749
X014025Y0024
X0139375
X01386246Y002907
X013692Y002943
X013955Y00309999
X0135481Y0039215
X013555Y004045
X0136207Y0039893
X013689Y004053
X013772Y004036
X01385Y0040278
X013848Y004107
X01383494Y00425
X01377Y004237
X013707
X013608Y004236
X013544Y004205
X01345Y004271
X0132925Y00424
X0132935Y0041724
X0132215Y004107
X0131633Y0041229
X01314196Y0040668
X0132125Y0040125
X012965Y004015
X012905Y00402499
X012805
X012855Y00409999
Y00419999
Y00429999
Y00439999
X0130075Y0043175
X013095Y004414
X0132337Y0043719
X0132061Y0043177
X0133168Y0043772
X0130475Y0041575
X0130086Y004065
X01404721Y0041272
X01402Y004268
Y004336
X013824Y00551146
X013826Y005661
X0137395Y0056595
X01365Y00563749
Y0057275
X013645Y0058925
X01369967Y00602999
X01384967
X0139181Y00606249
X01377467Y00610499
Y00595499
X0135025Y0059975
X0135015Y00606249
X0133266Y0061725
X0132783Y0061265
X01323Y0061725
X0131925Y006225
X0131324Y00630761
X0132138Y0065972
X013297Y006764
X01319Y006828
X01322213Y00702295
Y0071751
X01337428
X0134343Y00708245
X0134343Y0070206
X0134646Y0069419
Y0068819
Y006741
X013562Y006707
X013514Y00662
X013705Y00662499
X01366118Y00652083
X013662Y006392
X0134619Y0064375
X0139375Y00635
X014025
X0140401Y00612748
X01386246Y006857
X013692Y006893
X013783Y007044
X01382543Y00708643
X01379468Y00718662
X01365Y007249
X01355164Y0072235
X01353441Y00732334
X0135961Y0073334
X01337428Y0073358
X01343428Y00727064
X0134343Y00748045
X0135506Y00751599
X013635Y00755278
X013584Y00762199
X013491Y0075797
X01339991Y0076605
X01333986Y00768182
X013238Y007677
X01322323Y00755044
X01322213Y00748794
Y0073358
X01306143
X01290928
Y0071751
X01284928Y00723016
X01275602Y00717368
X01272501Y00726899
X01275217Y00732679
X01274491Y00738679
X012559Y00740626
X01249428Y00741571
X01244621Y00746006
X01239997Y0075063
X01250007Y00756466
X01255063Y0076022
X01261064
X01267064Y007604
X01281978Y00759322
X012755Y00784999
X012655
X012555Y00779999
Y00769999
X012505Y00787499
X012855Y00789999
X013053Y007901
X013105Y0078175
Y007755
X01317Y0078
X0133Y007788
X01336Y007792
X013408Y007756
X0135481Y0078715
X0135415Y0071076
X0135881Y0070691
X013955Y00704999
X013855Y0073625
X01306143Y00748794
Y0071751
Y00702295
X0127675Y006898
X0127Y0068925
Y006955
X01263
Y0068925
X01256Y0068925
Y006955
X012536Y0071367
X012495Y0072075
X01243291Y00735961
X0123725Y0069125
X0124575Y0065375
X0124749Y00636351
X01249Y006104
X01243Y006103
X012555Y0058325
X0126175
X01276Y005869
X0128054Y0059275
X0129725Y0060225
X0130556Y0057684
X01311769Y00575755
X0131679Y0053603
X0134024Y0055518
X01276Y0061725
X0128054Y00622
X01278489Y00643282
X01272238
Y00660263
X01278489
X0127675Y006719
X0129725Y00654751
X0111975Y00635
X01111
X0110906Y00606249
X01102217Y00602999
X01087217
X01094717Y00595499
Y00610499
X0112126Y00612748
X010674Y00606249
X010675Y0059975
X0108175Y0058925
X0108225Y0057275
Y00563749
X010912Y0056595
X0109985Y005661
X0109965Y00551146
X0105749Y0055518
X0103404Y0053603
X01029019Y00575755
X0102281Y0057684
X010145Y0060225
X0099779Y0059275
X0099325Y005869
X00979Y0058325
X0097275
X0096625Y006104
X0096025Y006103
X0096474Y00636351
X00963Y0065375
X00989488Y00660263
X00995739
X00994Y006719
Y006898
X0098725Y0068925
Y006955
X0098025
Y0068925
X0097325Y0068925
Y006955
X0097085Y0071367
X0096675Y0072075
X00966678Y00741571
X0097315Y00740626
X00961871Y00746006
X00957247Y0075063
X00967257Y00756466
X00972313Y0076022
X00978313
X00984313Y007604
X00999228Y00759322
X00991741Y00738679
X00992467Y00732679
X0098975Y00726899
X00992852Y00717368
X01002178Y00723016
X01008178Y0071751
X01023393
Y00702295
X01039463
Y0071751
X01054678
X0106068Y00708245
X0106068Y0070206
X0106371Y0069419
Y0068819
Y006741
X0107345Y006707
X0106865Y00662
X0108775Y00662499
X01083367Y00652083
X0108345Y006392
X0106344Y0064375
X0104991Y0061725
X0104508Y0061265
X0104025Y0061725
X010365Y006225
X0103049Y00630761
X0103863Y0065972
X0104695Y006764
X0103625Y006828
X010145Y00654751
X00995739Y00643282
X00989488
X0099779Y00622
X0099325Y0061725
X009545Y0069125
X00960541Y00735961
X0097275Y00769999
Y00779999
X0096775Y00787499
X0098275Y00784999
X0099275
X0100275Y00789999
X0102255Y007901
X0102775Y0078175
Y007755
X0103425Y0078
X0104725Y007788
X0105325Y007792
X0105805Y007756
X0105724Y0076605
X01051236Y00768182
X0104105Y007677
X01039573Y00755044
X01039463Y00748794
Y0073358
X01054678
X01060678Y00727064
X01070691Y00732334
X0107686Y0073334
X0108225Y007249
X01072414Y0072235
X010714Y0071076
X0107606Y0070691
X0109555Y007044
X01099793Y00708643
X01096718Y00718662
X0110275Y0073625
X0108075Y00755278
X0107565Y00762199
X0106635Y0075797
X0107231Y00751599
X0106068Y00748045
X01023393Y00748794
Y0073358
X01008178
X0107206Y0078715
X0108645Y006893
X01103496Y006857
X0111275Y00704999
X0111925Y004336
Y004268
X01121971Y0041272
X0110205Y004107
X0110225Y0040278
X0109445Y004036
X0108615Y004053
X0107932Y0039893
X0107275Y004045
X0107165Y004205
X0107805Y004236
X0108795Y004237
X0109425
X01100744Y00425
X0106225Y004271
X010465Y00424
X010466Y0041724
X010394Y004107
X0103358Y0041229
X01031445Y0040668
X010385Y0040125
X0101375Y004015
X0100775Y00402499
X0099775
X0100275Y00409999
Y00419999
Y00429999
Y00439999
X01018Y0043175
X0102675Y004414
X0104062Y0043719
X0103786Y0043177
X0104893Y0043772
X01022Y0041575
X0101811Y004065
X00839221Y0041272
X008365Y004268
Y004336
X00817994Y00425
X008115Y004237
X008052
X007953Y004236
X0079657Y0039893
X008034Y004053
X008117Y004036
X008195Y0040278
X008193Y004107
X008169Y00551146
X008171Y005661
X0080845Y0056595
X007995Y00563749
Y0057275
X00799Y0058925
X00804467Y00602999
X00819467
X0082631Y00606249
X00811967Y00610499
Y00595499
X0083851Y00612748
X00837Y00635
X0082825
X008007Y006392
X00800617Y00652083
X00805Y00662499
X008037Y006893
X00820745Y006857
X008128Y007044
X00817042Y00708643
X00813968Y00718662
X007995Y007249
X0079411Y0073334
X00798Y00755278
X0082Y0073625
X0083Y00704999
X0079331Y0070691
X0078865Y0071076
X00789664Y0072235
X00787941Y00732334
X00777928Y00727064
X00771928Y0073358
X00756713
Y00748794
X00756823Y00755044
X007583Y007677
X00768486Y00768182
X0077449Y0076605
X007753Y007756
X007705Y007792
X007645Y007788
X007515Y0078
X00745Y0078175
Y007755
X007398Y007901
X0072Y00789999
X0071Y00784999
X007
X0069Y00779999
Y00769999
X00689563Y0076022
X00695563
X00701563Y007604
X00716478Y00759322
X00708991Y00738679
X00709717Y00732679
X00707Y00726899
X00710102Y00717368
X00719427Y00723016
X00725428Y0071751
X00740643
Y00702295
X00756713
Y0071751
X00771928
X0077793Y00708245
X0077793Y0070206
X0078096Y0069419
Y0068819
Y006741
X007907Y006707
X007859Y00662
X0078069Y0064375
X0076716Y0061725
X0076233Y0061265
X007575Y0061725
X0075375Y006225
X0074774Y00630761
X0075588Y0065972
X007642Y006764
X007535Y006828
X0071125Y006898
X007045Y0068925
Y006955
X006975
Y0068925
X006905Y0068925
Y006955
X006881Y0071367
X00684Y0072075
X00683928Y00741571
X006904Y00740626
X00679121Y00746006
X00674497Y0075063
X00684507Y00756466
X00677791Y00735961
X00725428Y0073358
X00740643
Y00748794
X0077793Y00748045
X0078956Y00751599
X007836Y0075797
X007929Y00762199
X0078931Y0078715
X00685Y00787499
X0067175Y0069125
X0068025Y0065375
X0068199Y00636351
X006835Y006104
X006775Y006103
X0069Y0058325
X0069625
X007105Y005869
X0071504Y0059275
X0073175Y0060225
X0074006Y0057684
X00746269Y00575755
X0075129Y0053603
X0077474Y0055518
X0078475Y0059975
X0078465Y00606249
X007105Y0061725
X0071504Y00622
X00712989Y00643282
X00706738
Y00660263
X00712989
X0071125Y006719
X0073175Y00654751
X0055425Y00635
X005455
X0054356Y00606249
X00536717Y00602999
X00521717
X00529217Y00595499
Y00610499
X0055576Y00612748
X005019Y00606249
X00502Y0059975
X0051625Y0058925
X0051675Y0057275
Y00563749
X005257Y0056595
X0053435Y005661
X0053415Y00551146
X0049199Y0055518
X0046854Y0053603
X00463519Y00575755
X0045731Y0057684
X00449Y0060225
X0043229Y0059275
X0042775Y005869
X004135Y0058325
X0040725
X0040075Y006104
X0039924Y00636351
X003975Y0065375
X00423988Y00660263
X00430238
X004285Y006719
Y006898
X0042175Y0068925
Y006955
X0041475
Y0068925
X0040775Y0068925
Y006955
X0040535Y0071367
X0040125Y0072075
X00401178Y00741571
X0040765Y00740626
X00406813Y0076022
X00412813
X00418813Y007604
X00433728Y00759322
X00426241Y00738679
X00426967Y00732679
X0042425Y00726899
X00427352Y00717368
X00436677Y00723016
X00442678Y0071751
X00457893
Y00702295
X00473963
Y0071751
X00489178
X0049518Y00708245
X0049518Y0070206
X0049821Y0069419
Y0068819
Y006741
X0050795Y006707
X0050315Y00662
X0052225Y00662499
X00517867Y00652083
X0051795Y006392
X0049794Y0064375
X0048441Y0061725
X0047958Y0061265
X0047475Y0061725
X00471Y006225
X0046499Y00630761
X0047313Y0065972
X0048145Y006764
X0047075Y006828
X00449Y00654751
X00430238Y00643282
X00423988
X0043229Y00622
X0042775Y0061725
X00442678Y0073358
X00457893
Y00748794
X00473963
X00474073Y00755044
X0047555Y007677
X00485736Y00768182
X0049174Y0076605
X0049255Y007756
X0048775Y007792
X0048175Y007788
X0046875Y0078
X0046225Y0078175
Y007755
X0045705Y007901
X0043725Y00789999
X0042725Y00784999
X0041725
X0040725Y00779999
Y00769999
X00401756Y00756466
X0040225Y00787499
X0050656Y0078715
X0051015Y00762199
X0051525Y00755278
X0050681Y00751599
X0050085Y0075797
X0049518Y00748045
X00489178Y0073358
X00495178Y00727064
X00505191Y00732334
X0051136Y0073334
X0051675Y007249
X00506914Y0072235
X005059Y0071076
X0051056Y0070691
X0053005Y007044
X00534292Y00708643
X00531218Y00718662
X0053725Y0073625
X0054725Y00704999
X00537995Y006857
X0052095Y006893
X00473963Y0073358
X0047512Y0043719
X0047236Y0043177
X00481Y00424
X004811Y0041724
X004739Y004107
X0046808Y0041229
X00465945Y0040668
X00473Y0040125
X0044825Y004015
X0044225Y00402499
X0043225
X0043725Y00409999
Y00419999
Y00429999
Y00439999
X004525Y0043175
X0046125Y004414
X0048343Y0043772
X0049675Y004271
X0050615Y004205
X0051255Y004236
X0052245Y004237
X0052875
X00535244Y00425
X0053655Y004107
X0053675Y0040278
X0052895Y004036
X0052065Y004053
X0051382Y0039893
X0050725Y004045
X0045261Y004065
X004565Y0041575
X00556471Y0041272
X0055375Y004268
Y004336
X0072Y00429999
Y00439999
Y00419999
Y00409999
X00715Y00402499
X00725
X00731Y004015
X0073536Y004065
X0073925Y0041575
X0075083Y0041229
X0075665Y004107
X0075575Y0040125
X00748695Y0040668
X0076385Y0041724
X0076375Y00424
X0076618Y0043772
X0075787Y0043719
X0075511Y0043177
X0073525Y0043175
X00744Y004414
X007795Y004271
X007889Y004205
X0079Y004045
X0027372Y0041272
X00271Y004268
Y004336
X00252493Y00425
X00246Y004237
X002397
X002298Y004236
X002234Y004205
X00214Y004271
X0019825Y00424
X0019835Y0041724
X0019115Y004107
X0018533Y0041229
X00183195Y0040668
X0019025Y0040125
X001655Y004015
X001595Y00402499
X001495
X001545Y00409999
Y00419999
Y00429999
Y00439999
X0016975Y0043175
X001785Y004414
X0019237Y0043719
X0018961Y0043177
X0020068Y0043772
X0017375Y0041575
X0016986Y004065
X002245Y004045
X0023107Y0039893
X002379Y004053
X002462Y004036
X00254Y0040278
X002538Y004107
X002514Y00551146
X002516Y005661
X0024295Y0056595
X00234Y00563749
Y0057275
X002335Y0058925
X00238967Y00602999
X00253967
X0026081Y00606249
X00246467Y00610499
Y00595499
X0021925Y0059975
X0021915Y00606249
X0020166Y0061725
X0019683Y0061265
X00192Y0061725
X0018825Y006225
X0018224Y00630761
X0019038Y0065972
X001987Y006764
X00188Y006828
X00191213Y00702295
Y0071751
X00206427
X0021243Y00708245
X0021243Y0070206
X0021546Y0069419
Y0068819
Y006741
X002252Y006707
X002204Y00662
X002395Y00662499
X00235117Y00652083
X002352Y006392
X0021519Y0064375
X0026275Y00635
X002715
X0027301Y00612748
X00255245Y006857
X002382Y006893
X002473Y007044
X00251542Y00708643
X00248468Y00718662
X00234Y007249
X00224164Y0072235
X0022244Y00732334
X0022861Y0073334
X00206427Y0073358
X00212428Y00727064
X0021243Y00748045
X0022406Y00751599
X002325Y00755278
X002274Y00762199
X002181Y0075797
X0020899Y0076605
X00202986Y00768182
X001928Y007677
X00191323Y00755044
X00191213Y00748794
Y0073358
X00175142
X00159928
Y0071751
X00153927Y00723016
X00144602Y00717368
X001415Y00726899
X00144217Y00732679
X0014349Y00738679
X001249Y00740626
X00118428Y00741571
X00113621Y00746006
X00108997Y0075063
X00119006Y00756466
X00124063Y0076022
X00130063
X00136063Y007604
X00150978Y00759322
X001445Y00784999
X001345
X001245Y00779999
Y00769999
X001195Y00787499
X001545Y00789999
X001743Y007901
X001795Y0078175
Y007755
X00186Y0078
X00199Y007788
X00205Y007792
X002098Y007756
X0022381Y0078715
X0022315Y0071076
X0022781Y0070691
X002645Y00704999
X002545Y0073625
X00175142Y00748794
Y0071751
Y00702295
X0014575Y006898
X00139Y0068925
Y006955
X00132
Y0068925
X00125Y0068925
Y006955
X001226Y0071367
X001185Y0072075
X00112291Y00735961
X0010625Y0069125
X0011475Y0065375
X0011649Y00636351
X00118Y006104
X00112Y006103
X001245Y0058325
X0013075
X00145Y005869
X0014954Y0059275
X0016625Y0060225
X0017456Y0057684
X00180769Y00575755
X0018579Y0053603
X0020924Y0055518
X00145Y0061725
X0014954Y00622
X00147488Y00643282
X00141238
Y00660263
X00147488
X0014575Y006719
X0016625Y00654751
X00389Y0069125
X00395041Y00735961
X00396371Y00746006
X00391747Y0075063
X0039475Y006103
X0027372Y0080772
X00271Y008218
Y008286
X00252493Y0082
X00246Y008187
X002397
X002298Y008186
X002234Y008155
X00214Y008221
X0019825Y00819
X0019835Y0081224
X0019115Y008057
X0018533Y0080729
X00183195Y0080168
X0019025Y0079625
X001655Y007965
X001595Y00797499
X001495
X001545Y00804999
Y00814999
Y00824999
Y00834999
X0016975Y0082675
X001785Y008364
X0019237Y0083219
X0018961Y0082677
X0020068Y0083272
X0017375Y0081075
X0016986Y008015
X002245Y007995
X0023107Y0079393
X002379Y008003
X002462Y007986
X00254Y0079778
X002538Y008057
X002514Y00946145
X002516Y009611
X0024295Y0096095
X00234Y00958748
Y0096775
X002335Y0098425
X00238967Y00997999
X00253967
X0026081Y01001248
X00246467Y01005499
Y00990499
X0021925Y0099475
X0021915Y01001248
X0020166Y0101225
X0019683Y0100765
X00192Y0101225
X0018825Y010175
X0018224Y01025761
X0019038Y0105472
X001987Y010714
X00188Y010778
X00191213Y01097295
Y0111251
X00206427
X0021243Y01103245
X0021243Y0109706
X0021546Y0108919
Y0108319
Y010691
X002252Y010657
X002204Y01057
X002395Y01057499
X00235117Y01047083
X002352Y010342
X0021519Y0103875
X0026275Y0103
X002715
X0027301Y01007748
X00255245Y010807
X002382Y010843
X002473Y010994
X00251542Y01103643
X00248468Y01113662
X00234Y011199
X00224164Y0111735
X0022244Y01127334
X0022861Y0112834
X00206427Y0112858
X00212428Y01122064
X0021243Y01143045
X0022406Y01146599
X002325Y01150278
X002274Y01157199
X002181Y0115297
X0020899Y0116105
X00202986Y01163182
X001928Y011627
X00191323Y01150044
X00191213Y01143794
Y0112858
X00175142
X00159928
Y0111251
X00153927Y01118016
X00144602Y01112368
X001415Y01121899
X00144217Y01127679
X0014349Y01133679
X001249Y01135626
X00118428Y01136571
X00113621Y01141006
X00108997Y0114563
X00119006Y01151466
X00124063Y0115522
X00130063
X00136063Y011554
X00150978Y01154322
X001445Y01179999
X001345
X001245Y01174999
Y01164999
X001195Y01182499
X001545Y01184999
X001743Y011851
X001795Y0117675
Y011705
X00186Y01175
X00199Y011738
X00205Y011742
X002098Y011706
X0022381Y0118215
X0023107Y0118893
X002545Y0113125
X002645Y01099999
X0022781Y0110191
X0022315Y0110576
X00175142Y0111251
Y01097295
X0014575Y010848
X00139Y0108425
Y010905
X00132
Y0108425
X00125Y0108425
Y010905
X001226Y0110867
X001185Y0111575
X00112291Y01130961
X0010625Y0108625
X0011475Y0104875
X0011649Y01031351
X00118Y010054
X00112Y010053
X001245Y0097825
X0013075
X00145Y009819
X0014954Y0098775
X0016625Y0099725
X0017456Y0097184
X00180769Y00970755
X0018579Y0093103
X0020924Y0095018
X00145Y0101225
X0014954Y01017
X00147488Y01038282
X00141238
Y01055263
X00147488
X0014575Y010669
X0016625Y01049751
X00175142Y01143794
X00391747Y0114563
X00396371Y01141006
X00395041Y01130961
X00389Y0108625
X0039475Y010053
X0040075Y010054
X0039924Y01031351
X003975Y0104875
X00423988Y01055263
X00430238
X004285Y010669
Y010848
X0042175Y0108425
Y010905
X0041475
Y0108425
X0040775Y0108425
Y010905
X0040535Y0110867
X0040125Y0111575
X00401178Y01136571
X0040765Y01135626
X00406813Y0115522
X00412813
X00418813Y011554
X00433728Y01154322
X00426241Y01133679
X00426967Y01127679
X0042425Y01121899
X00427352Y01112368
X00436677Y01118016
X00442678Y0111251
X00457893
Y01097295
X00473963
Y0111251
X00489178
X0049518Y01103245
X0049518Y0109706
X0049821Y0108919
Y0108319
Y010691
X0050795Y010657
X0050315Y01057
X0052225Y01057499
X00517867Y01047083
X0051795Y010342
X0049794Y0103875
X0048441Y0101225
X0047958Y0100765
X0047475Y0101225
X00471Y010175
X0046499Y01025761
X0047313Y0105472
X0048145Y010714
X0047075Y010778
X00449Y01049751
X00430238Y01038282
X00423988
X0043229Y01017
X0042775Y0101225
X0043229Y0098775
X0042775Y009819
X004135Y0097825
X0040725
X0045731Y0097184
X00463519Y00970755
X00449Y0099725
X00502Y0099475
X005019Y01001248
X00521717Y00997999
X00536717
X0054356Y01001248
X00529217Y01005499
Y00990499
X0051625Y0098425
X0051675Y0096775
Y00958748
X005257Y0096095
X0053435Y009611
X0053415Y00946145
X0049199Y0095018
X0046854Y0093103
X0046125Y008364
X0047512Y0083219
X0047236Y0082677
X00481Y00819
X004811Y0081224
X004739Y008057
X0046808Y0080729
X00465945Y0080168
X00473Y0079625
X0044825Y007965
X0044225Y00797499
X0043225
X0043725Y00804999
Y00814999
Y00824999
Y00834999
X004525Y0082675
X004565Y0081075
X0045261Y008015
X0050725Y007995
X0051382Y0079393
X0052065Y008003
X0052895Y007986
X0053675Y0079778
X0053655Y008057
X00535244Y0082
X0052875Y008187
X0052245
X0051255Y008186
X0050615Y008155
X0049675Y008221
X0048343Y0083272
X0055375Y008286
Y008218
X00556471Y0080772
X0072Y00804999
Y00814999
Y00824999
Y00834999
X0073525Y0082675
X00744Y008364
X0075787Y0083219
X0075511Y0082677
X0076375Y00819
X0076385Y0081224
X0075665Y008057
X0075083Y0080729
X00748695Y0080168
X0075575Y0079625
X00731Y007965
X00725Y00797499
X00715
X0073536Y008015
X0073925Y0081075
X0076618Y0083272
X007795Y008221
X007889Y008155
X0079Y007995
X0077474Y0095018
X0075129Y0093103
X00746269Y00970755
X0074006Y0097184
X0073175Y0099725
X0071504Y0098775
X007105Y009819
X0069625Y0097825
X0069
X006835Y010054
X006775Y010053
X0068199Y01031351
X0068025Y0104875
X00706738Y01055263
X00712989
X0071125Y010669
Y010848
X007045Y0108425
Y010905
X006975
Y0108425
X006905Y0108425
Y010905
X006881Y0110867
X00684Y0111575
X00683928Y01136571
X006904Y01135626
X00679121Y01141006
X00674497Y0114563
X00684507Y01151466
X00689563Y0115522
X00695563
X00701563Y011554
X00716478Y01154322
X00708991Y01133679
X00709717Y01127679
X00707Y01121899
X00710102Y01112368
X00719427Y01118016
X00725428Y0111251
X00740643
Y01097295
X00756713
Y0111251
X00771928
X0077793Y01103245
X0077793Y0109706
X0078096Y0108919
Y0108319
Y010691
X007907Y010657
X007859Y01057
X0078069Y0103875
X0076716Y0101225
X0076233Y0100765
X007575Y0101225
X0075375Y010175
X0074774Y01025761
X0075588Y0105472
X007642Y010714
X007535Y010778
X0073175Y01049751
X00712989Y01038282
X00706738
X0071504Y01017
X007105Y0101225
X0078465Y01001248
X0078475Y0099475
X0078865Y0110576
X0079331Y0110191
X00789664Y0111735
X00787941Y01127334
X00777928Y01122064
X00771928Y0112858
X00756713
Y01143794
X00756823Y01150044
X007583Y011627
X00768486Y01163182
X0077449Y0116105
X007753Y011706
X007705Y011742
X007645Y011738
X007515Y01175
X00745Y0117675
Y011705
X007398Y011851
X0072Y01184999
X0071Y01179999
X007
X0069Y01174999
Y01164999
X00685Y01182499
X00677791Y01130961
X00725428Y0112858
X00740643
Y01143794
X0077793Y01143045
X0078956Y01146599
X007836Y0115297
X007929Y01157199
X0078931Y0118215
X0067175Y0108625
X0054725Y01099999
X00534292Y01103643
X0053005Y010994
X00531218Y01113662
X0051675Y011199
X00506914Y0111735
X00505191Y01127334
X0051136Y0112834
X00489178Y0112858
X00495178Y01122064
X0049518Y01143045
X0050681Y01146599
X0051525Y01150278
X0051015Y01157199
X0050085Y0115297
X0049174Y0116105
X00485736Y01163182
X0047555Y011627
X00474073Y01150044
X00473963Y01143794
Y0112858
X00457893
X00442678
X00457893Y01143794
X0046225Y011705
Y0117675
X0046875Y01175
X0048175Y011738
X0048775Y011742
X0049255Y011706
X0050656Y0118215
X0051382Y0118893
X0045705Y011851
X0043725Y01184999
X0042725Y01179999
X0041725
X0040725Y01174999
Y01164999
X00401756Y01151466
X0040225Y01182499
X005059Y0110576
X0051056Y0110191
X0052095Y010843
X00537995Y010807
X0053725Y0113125
X005455Y0103
X0055425
X0055576Y01007748
X00804467Y00997999
X00819467
X0082631Y01001248
X00811967Y01005499
Y00990499
X00799Y0098425
X007995Y0096775
Y00958748
X0080845Y0096095
X008171Y009611
X008169Y00946145
X0083851Y01007748
X00837Y0103
X0082825
X008007Y010342
X00800617Y01047083
X00805Y01057499
X008037Y010843
X00820745Y010807
X008128Y010994
X00817042Y01103643
X00813968Y01113662
X007995Y011199
X0079411Y0112834
X00798Y01150278
X0079657Y0118893
X0082Y0113125
X0083Y01099999
X009545Y0108625
X0097325Y0108425
Y010905
X0098025Y010905
Y0108425
X0098725
Y010905
X00994Y010848
Y010669
X00995739Y01055263
X00989488
Y01038282
X00995739
X0099779Y01017
X0099325Y0101225
X0099779Y0098775
X0099325Y009819
X00979Y0097825
X0097275
X0096625Y010054
X0096025Y010053
X0096474Y01031351
X00963Y0104875
X010145Y01049751
X0103863Y0105472
X0104695Y010714
X0103625Y010778
X01039463Y01097295
Y0111251
X01054678
X0106068Y01103245
X0106068Y0109706
X0106371Y0108919
Y0108319
Y010691
X0107345Y010657
X0106865Y01057
X0108775Y01057499
X01083367Y01047083
X0108345Y010342
X0106344Y0103875
X0104991Y0101225
X0104508Y0100765
X0104025Y0101225
X010365Y010175
X0103049Y01025761
X010145Y0099725
X0102281Y0097184
X01029019Y00970755
X0103404Y0093103
X0105749Y0095018
X0108225Y00958748
Y0096775
X010912Y0096095
X0109985Y009611
X0109965Y00946145
X01094717Y00990499
X01102217Y00997999
X0110906Y01001248
X01094717Y01005499
X01087217Y00997999
X0108175Y0098425
X010675Y0099475
X010674Y01001248
X0112126Y01007748
X0111975Y0103
X01111
X01103496Y010807
X0108645Y010843
X0109555Y010994
X01099793Y01103643
X01096718Y01113662
X0108225Y011199
X01072414Y0111735
X01070691Y01127334
X0107686Y0112834
X01054678Y0112858
X01060678Y01122064
X0106068Y01143045
X0107231Y01146599
X0108075Y01150278
X0107565Y01157199
X0106635Y0115297
X0105724Y0116105
X01051236Y01163182
X0104105Y011627
X01039573Y01150044
X01039463Y01143794
Y0112858
X01023393
X01008178
Y0111251
X01002178Y01118016
X00992852Y01112368
X0098975Y01121899
X00992467Y01127679
X00991741Y01133679
X0097315Y01135626
X00966678Y01136571
X00961871Y01141006
X00957247Y0114563
X00967257Y01151466
X00972313Y0115522
X00978313
X00984313Y011554
X00999228Y01154322
X0099275Y01179999
X0098275
X0097275Y01174999
Y01164999
X0096775Y01182499
X0100275Y01184999
X0102255Y011851
X0102775Y0117675
Y011705
X0103425Y01175
X0104725Y011738
X0105325Y011742
X0105805Y011706
X0107206Y0118215
X0107932Y0118893
X0110275Y0113125
X0111275Y01099999
X0107606Y0110191
X010714Y0110576
X01023393Y0111251
Y01097295
Y01143794
X00960541Y01130961
X0096675Y0111575
X0097085Y0110867
X0100275Y00834999
Y00824999
Y00814999
Y00804999
X0099775Y00797499
X0100775
X0101375Y007965
X0101811Y008015
X01022Y0081075
X0103358Y0080729
X010394Y008057
X010385Y0079625
X01031445Y0080168
X010466Y0081224
X010465Y00819
X0104893Y0083272
X0104062Y0083219
X0103786Y0082677
X01018Y0082675
X0102675Y008364
X0106225Y008221
X0107165Y008155
X0107805Y008186
X0108795Y008187
X0109425
X01100744Y0082
X0110205Y008057
X0110225Y0079778
X0109445Y007986
X0108615Y008003
X0107932Y0079393
X0107275Y007995
X01121971Y0080772
X0111925Y008218
Y008286
X008365
Y008218
X00839221Y0080772
X008193Y008057
X008195Y0079778
X008117Y007986
X008034Y008003
X0079657Y0079393
X007953Y008186
X008052Y008187
X008115
X00817994Y0082
X012855Y00824999
Y00834999
Y00814999
Y00804999
X012805Y00797499
X012905
X012965Y007965
X0130086Y008015
X0130475Y0081075
X0131633Y0080729
X0132215Y008057
X0132125Y0079625
X01314196Y0080168
X0132935Y0081224
X0132925Y00819
X0133168Y0083272
X0132337Y0083219
X0132061Y0082677
X0130075Y0082675
X013095Y008364
X01345Y008221
X013544Y008155
X013608Y008186
X013707Y008187
X01377
X01383494Y0082
X013848Y008057
X01385Y0079778
X013772Y007986
X013689Y008003
X0136207Y0079393
X013555Y007995
X01404721Y0080772
X01402Y008218
Y008286
X013824Y00946145
X013826Y009611
X0137395Y0096095
X01365Y00958748
Y0096775
X013645Y0098425
X01369967Y00997999
X01384967
X0139181Y01001248
X01377467Y01005499
Y00990499
X0135025Y0099475
X0135015Y01001248
X0133266Y0101225
X0132783Y0100765
X01323Y0101225
X0131925Y010175
X0131324Y01025761
X0132138Y0105472
X013297Y010714
X01319Y010778
X01322213Y01097295
Y0111251
X01337428
X0134343Y01103245
X0134343Y0109706
X0134646Y0108919
Y0108319
Y010691
X013562Y010657
X013514Y01057
X013705Y01057499
X01366118Y01047083
X013662Y010342
X0134619Y0103875
X0139375Y0103
X014025
X0140401Y01007748
X01386246Y010807
X013692Y010843
X013783Y010994
X01382543Y01103643
X01379468Y01113662
X01365Y011199
X01355164Y0111735
X01353441Y01127334
X0135961Y0112834
X01337428Y0112858
X01343428Y01122064
X0134343Y01143045
X0135506Y01146599
X013635Y01150278
X013584Y01157199
X013491Y0115297
X01339991Y0116105
X01333986Y01163182
X013238Y011627
X01322323Y01150044
X01322213Y01143794
Y0112858
X01306143
X01290928
Y0111251
X01284928Y01118016
X01275602Y01112368
X01272501Y01121899
X01275217Y01127679
X01274491Y01133679
X012559Y01135626
X01249428Y01136571
X01244621Y01141006
X01239997Y0114563
X01250007Y01151466
X01255063Y0115522
X01261064
X01267064Y011554
X01281978Y01154322
X012755Y01179999
X012655
X012555Y01174999
Y01164999
X012505Y01182499
X012855Y01184999
X013053Y011851
X013105Y0117675
Y011705
X01317Y01175
X0133Y011738
X01336Y011742
X013408Y011706
X0135481Y0118215
X0136207Y0118893
X013855Y0113125
X013955Y01099999
X0135881Y0110191
X0135415Y0110576
X01306143Y0111251
Y01097295
X0127675Y010848
X0127Y0108425
Y010905
X01263
Y0108425
X01256Y0108425
Y010905
X012536Y0110867
X012495Y0111575
X01243291Y01130961
X0123725Y0108625
X0124575Y0104875
X0124749Y01031351
X01249Y010054
X01243Y010053
X012555Y0097825
X0126175
X01276Y009819
X0128054Y0098775
X0129725Y0099725
X0130556Y0097184
X01311769Y00970755
X0131679Y0093103
X0134024Y0095018
X01276Y0101225
X0128054Y01017
X01278489Y01038282
X01272238
Y01055263
X01278489
X0127675Y010669
X0129725Y01049751
X01306143Y01143794
X012965Y011915
X012905Y01192499
X012805
X012855Y01199999
Y01209999
Y01219999
Y01229999
X0130075Y0122175
X013095Y012314
X0130932Y0124728
X0131763Y0124781
X0132039Y0125323
X0131175Y01261
X0131165Y0126776
X0131885Y012743
X0132467Y0127271
X01326805Y0127832
X0131975Y0128375
X01324Y013
X013305Y0129825
Y013045
X013357Y012899
X013445Y012835
X013505Y01282501
X013605
X013555Y01290001
X013655Y01295001
X013755
X013855Y01300001
Y01310001
X01385937Y0131978
X01379937
X01373937Y013196
X01359022Y01320678
X0136651Y01341321
X01365783Y01347321
X013685Y01353101
X01365398Y01362632
X01356073Y01356984
X01350072Y01362491
X01334857
Y01377705
X01318788
Y01362491
X01303573
X0129757Y01371755
X0129757Y01377939
X0129454Y0138581
Y0139181
Y014059
X012848Y014093
X012896Y01418
X012705Y014175
X01274883Y01427917
X012748Y014408
X0129481Y0143625
X0130834Y0146275
X0131317Y0146735
X01318Y0146275
X0132175Y014575
X0132776Y01449239
X0131962Y0142028
X013113Y014036
X01322Y013972
X0136425Y013902
X01371Y0139075
Y013845
X01378
Y0139075
X01385Y0139075
Y013845
X013874Y0136633
X013915Y0135925
X01391572Y01338429
X01385101Y01339374
X01396379Y01333994
X01401003Y0132937
X01390994Y01323534
X01397709Y01344039
X01350072Y0134642
X01334857
Y01331205
X01318788
X01318677Y01324955
X013172Y013123
X01307014Y01311819
X0130101Y0131395
X013002Y013044
X01305Y013008
X01311Y013012
X0128619Y0129285
X012855Y012805
X0127893Y0128607
X012721Y012797
X012638Y012814
X01256Y0128222
X012562Y012743
X01257506Y0126
X01264Y012613
X012703
X012802Y012614
X012866Y012645
X01296Y012579
X0134025Y0125325
X013555Y01255001
Y01245001
Y01265001
Y01275001
X0134014Y012785
X0133625Y0126925
X013315Y012436
X0133168Y0122772
X0132337Y0122719
X0132061Y0122177
X0132925Y01214
X0132935Y0120724
X0132215Y012007
X0131633Y0120229
X01314196Y0119668
X0132125Y0119125
X0130086Y011965
X0130475Y0120575
X01345Y012171
X013544Y012105
X013608Y012136
X013707Y012137
X01377
X01383494Y01215
X013848Y012007
X01385Y0119278
X013772Y011936
X013689Y011953
X013555Y011945
X01404721Y0120272
X01402Y012168
Y012236
X013905Y01292501
X0140375Y0138875
X0139525Y0142625
X0139351Y01443649
X01392Y014696
X01398Y014697
X013855Y0149675
X0137925
X01365Y014931
X0136046Y0148725
X0134375Y0147775
X0133544Y0150316
X01329231Y01504245
X0132421Y0154397
X0130076Y0152482
X01276Y01516252
Y0150725
X0126705Y0151405
X012584Y015139
X012586Y01528855
X01263533Y01484501
X01256033Y01477001
X0124919Y01473752
X01263533Y01469501
X01271033Y01477001
X012765Y0149075
X0129075Y0148025
X0129085Y01473752
X0123699Y01467251
X012385Y01445
X0124725
X01254755Y013943
X012718Y013907
X012627Y013756
X01258458Y01371357
X01261532Y01361338
X01276Y013551
X01285836Y0135765
X0128756Y01347666
X0128139Y0134666
X01303573Y0134642
X01297572Y01352936
X0129757Y01331956
X0128594Y01328401
X012775Y01324722
X012826Y01317801
X012919Y0132203
X01318788Y0134642
X0128685Y0136924
X0128219Y0137309
X012455Y01375001
X012555Y0134375
X0123628Y0127228
X01239Y012582
Y012514
X0134375Y01425249
X01362512Y01419737
X01368762
X0136425Y014081
X01362512Y01436718
X01368762
X0136046Y01458
X01365Y0146275
X0111525Y014697
X0110925Y014696
X0111076Y01443649
X011125Y0142625
X01086012Y01419737
X01079762
X010815Y014081
Y013902
X0108825Y0139075
Y013845
X0109525
Y0139075
X0110225Y0139075
Y013845
X0110465Y0136633
X0110875Y0135925
X01108822Y01338429
X0110235Y01339374
X01113629Y01333994
X01118253Y0132937
X01108244Y01323534
X01103187Y0131978
X01097187
X01091187Y013196
X01076272Y01320678
X0108376Y01341321
X01083033Y01347321
X0108575Y01353101
X01082648Y01362632
X01073323Y01356984
X01067322Y01362491
X01052107
Y01377705
X01036037
Y01362491
X01020822
X0101482Y01371755
X0101482Y01377939
X0101179Y0138581
Y0139181
Y014059
X0100205Y014093
X0100685Y01418
X0098775Y014175
X00992133Y01427917
X0099205Y014408
X0101206Y0143625
X0102559Y0146275
X0103042Y0146735
X0103525Y0146275
X01039Y014575
X0104501Y01449239
X0103687Y0142028
X0102855Y014036
X0103925Y013972
X01061Y01425249
X01079762Y01436718
X01086012
X0107771Y01458
X0108225Y0146275
X0107771Y0148725
X0108225Y014931
X010965Y0149675
X0110275
X0105269Y0150316
X01046481Y01504245
X01061Y0147775
X01008Y0148025
X010081Y01473752
X00988283Y01477001
X00973283
X0096644Y01473752
X00980783Y01469501
Y01484501
X0099375Y0149075
X0099325Y0150725
Y01516252
X009843Y0151405
X0097565Y015139
X0097585Y01528855
X0101801Y0152482
X0104146Y0154397
X0095424Y01467251
X0095575Y01445
X009645
X00972005Y013943
X0098905Y013907
X0097995Y013756
X00975708Y01371357
X00978782Y01361338
X0099325Y013551
X01003086Y0135765
X01004809Y01347666
X0099864Y0134666
X01020822Y0134642
X01014822Y01352936
X0101482Y01331956
X0100319Y01328401
X0099475Y01324722
X0099985Y01317801
X0100915Y0132203
X0101826Y0131395
X01024264Y01311819
X0103445Y013123
X01035927Y01324955
X01036037Y01331205
Y0134642
X01052107
X01067322
X01052107Y01331205
X0104775Y013045
Y0129825
X0104125Y013
X0102825Y013012
X0102225Y013008
X0101745Y013044
X0100344Y0129285
X0100275Y012805
X0099618Y0128607
X0098935Y012797
X0098105Y012814
X0097325Y0128222
X0097345Y012743
X00974756Y0126
X0098125Y012613
X0098755
X0099745Y012614
X0100385Y012645
X0101325Y012579
X01029Y01261
X010289Y0126776
X010361Y012743
X0104192Y0127271
X01044055Y0127832
X01037Y0128375
X0105295Y012899
X0106175Y012835
X0106775Y01282501
X0107775
X0107275Y01290001
X0108275Y01295001
X0109275
X0110275Y01300001
Y01310001
X0110775Y01292501
X0107275Y01275001
Y01265001
Y01255001
Y01245001
X010575Y0125325
X0104875Y012436
X0104893Y0122772
X0104062Y0122719
X0103786Y0122177
X010465Y01214
X010466Y0120724
X010394Y012007
X0103358Y0120229
X01031445Y0119668
X010385Y0119125
X0101375Y011915
X0100775Y01192499
X0099775
X0100275Y01199999
Y01209999
Y01219999
Y01229999
X01018Y0122175
X0102675Y012314
X0102657Y0124728
X0103488Y0124781
X0103764Y0125323
X010535Y0126925
X0105739Y012785
X0106225Y012171
X0107165Y012105
X0107805Y012136
X0108795Y012137
X0109425
X01100744Y01215
X0110205Y012007
X0110225Y0119278
X0109445Y011936
X0108615Y011953
X0107275Y011945
X0101811Y011965
X01022Y0120575
X01121971Y0120272
X0111925Y012168
Y012236
X01114959Y01344039
X01121Y0138875
X010041Y0136924
X0099944Y0137309
X0096275Y01375001
X0097275Y0134375
X00953529Y0127228
X0095625Y012582
Y012514
X008365Y012236
Y012168
X00839221Y0120272
X008193Y012007
X008195Y0119278
X008117Y011936
X008034Y011953
X008052Y012137
X008115
X00817994Y01215
X007953Y012136
X00795Y01282501
X008Y01295001
X0081
X0082Y01300001
Y01310001
X00820437Y0131978
X00814437
X00808437Y013196
X00825493Y01323534
X00826072Y01338429
X008196Y01339374
X00830879Y01333994
X00835503Y0132937
X00832209Y01344039
X00826Y0135925
X008219Y0136633
X008195Y013845
Y0139075
X008125Y0139075
Y013845
X008055
Y0139075
X0079875Y013902
Y014081
X00797011Y01419737
X00803262
Y01436718
X00797011
X0079496Y01458
X007995Y0146275
X0079496Y0148725
X007995Y014931
X0081375Y0149675
X0082
X008265Y014696
X008325Y014697
X0082801Y01443649
X0082975Y0142625
X0083825Y0138875
X00799898Y01362632
X00803Y01353101
X00800283Y01347321
X00801009Y01341321
X00825Y01292501
X0079Y01290001
X00785Y01282501
X00779Y012835
X0077464Y012785
X0077075Y0126925
X0075917Y0127271
X0075335Y012743
X0075425Y0128375
X00761305Y0127832
X007702Y012899
X00765Y0129825
Y013045
X007585Y013
X007455Y013012
X007395Y013008
X007347Y013044
X0073551Y0131395
X00741514Y01311819
X007517Y013123
X00753177Y01324955
X00753287Y01331205
Y0134642
X00738072
X00732072Y01352936
X00722059Y01347666
X0071589Y0134666
X007105Y013551
X00720336Y0135765
X0072135Y0136924
X0071669Y0137309
X0073207Y01371755
X0073207Y01377939
X0072904Y0138581
Y0139181
Y014059
X007193Y014093
X007241Y01418
X00705Y014175
X00709383Y01427917
X007093Y014408
X0072931Y0143625
X0074284Y0146275
X0074767Y0146735
X007525Y0146275
X0075625Y014575
X0076226Y01449239
X0075412Y0142028
X007458Y014036
X007565Y013972
X00753287Y01377705
Y01362491
X00738072
X00769357
Y01377705
X00784572Y01362491
X00790573Y01356984
X00784572Y0134642
X00769357
Y01331205
X00793522Y01320678
X0079Y01275001
Y01265001
Y01255001
Y01245001
X0077475Y0125325
X00766Y012436
X0076618Y0122772
X0075787Y0122719
X0075511Y0122177
X0076375Y01214
X0076385Y0120724
X0075665Y012007
X0075083Y0120229
X00748695Y0119668
X0075575Y0119125
X00731Y011915
X00725Y01192499
X00715
X0072Y01199999
Y01209999
Y01219999
Y01229999
X0073525Y0122175
X00744Y012314
X0074382Y0124728
X0075213Y0124781
X0075489Y0125323
X0074625Y01261
X0074615Y0126776
X007305Y012579
X007211Y012645
X007147Y012614
X007048Y012613
X006985
X00692006Y0126
X006907Y012743
X006905Y0128222
X006983Y012814
X007066Y012797
X0071343Y0128607
X0072Y012805
X0072069Y0129285
X007171Y01317801
X00712Y01324722
X0072044Y01328401
X007264Y0132203
X0073207Y01331956
X0069Y0134375
X00696032Y01361338
X00692958Y01371357
X006972Y013756
X0068Y01375001
X00689255Y013943
X007063Y013907
X0068175Y01445
X00673
X0067149Y01467251
X0068369Y01473752
X00690533Y01477001
X00705533
X00698033Y01484501
Y01469501
X0072535Y01473752
X0072525Y0148025
X00711Y0149075
X007105Y0150725
Y01516252
X0070155Y0151405
X006929Y015139
X006931Y01528855
X0073526Y0152482
X0075871Y0154397
X00763731Y01504245
X0076994Y0150316
X0077825Y0147775
Y01425249
X007795Y012171
X007889Y012105
X0079Y011945
X0073536Y011965
X0073925Y0120575
X006735Y012514
Y012582
X00670779Y0127228
X0054225Y01292501
X0053725Y01300001
Y01310001
X00537687Y0131978
X00531687
X00525687Y013196
X00510772Y01320678
X00518259Y01341321
X00517533Y01347321
X0052025Y01353101
X00517148Y01362632
X00507822Y01356984
X00501822Y01362491
X00486607
Y01377705
X00470537
Y01362491
X00455322
X0044932Y01371755
X0044932Y01377939
X0044629Y0138581
Y0139181
Y014059
X0043655Y014093
X0044135Y01418
X0042225Y014175
X00426632Y01427917
X0042655Y014408
X0044656Y0143625
X0046009Y0146275
X0046492Y0146735
X0046975Y0146275
X004735Y014575
X0047951Y01449239
X0047137Y0142028
X0046305Y014036
X0047375Y013972
X00516Y013902
X0052275Y0139075
Y013845
X0052975
Y0139075
X0053675Y0139075
Y013845
X0053915Y0136633
X0054325Y0135925
X00543322Y01338429
X0053685Y01339374
X00548129Y01333994
X00552753Y0132937
X00542743Y01323534
X00549459Y01344039
X00501822Y0134642
X00486607
Y01331205
X00470537
X00470427Y01324955
X0046895Y013123
X00458764Y01311819
X0045276Y0131395
X0045195Y013044
X0045675Y013008
X0046275Y013012
X0047575Y013
X0048225Y0129825
Y013045
X0048745Y012899
X0049625Y012835
X0050225Y01282501
X0051225
X0050725Y01290001
X0051725Y01295001
X0052725
X0050725Y01275001
Y01265001
Y01255001
Y01245001
X00492Y0125325
X0048325Y012436
X0048343Y0122772
X0047512Y0122719
X0047236Y0122177
X00481Y01214
X004811Y0120724
X004739Y012007
X0046808Y0120229
X00465945Y0119668
X00473Y0119125
X0044825Y011915
X0044225Y01192499
X0043225
X0043725Y01199999
Y01209999
Y01219999
Y01229999
X004525Y0122175
X0046125Y012314
X0046107Y0124728
X0046938Y0124781
X0047214Y0125323
X004635Y01261
X004634Y0126776
X004706Y012743
X0047642Y0127271
X00478555Y0127832
X004715Y0128375
X0049189Y012785
X00488Y0126925
X0044775Y012579
X0043835Y012645
X0043195Y012614
X0042205Y012613
X0041575
X00409256Y0126
X0040795Y012743
X0040775Y0128222
X0041555Y012814
X0042385Y012797
X0043068Y0128607
X0043725Y012805
X0043794Y0129285
X0043435Y01317801
X0042925Y01324722
X0043769Y01328401
X0044365Y0132203
X0044932Y01331956
X00455322Y0134642
X00449322Y01352936
X00439309Y01347666
X0043314Y0134666
X0042775Y013551
X00437586Y0135765
X004386Y0136924
X0043394Y0137309
X0041445Y013756
X00410207Y01371357
X00413282Y01361338
X0040725Y0134375
X0039725Y01375001
X00406504Y013943
X0042355Y013907
X00399Y01445
X0040094Y01473752
X00407783Y01477001
X00422783
X00415283Y01484501
Y01469501
X004426Y01473752
X004425Y0148025
X0042825Y0149075
X0042775Y0150725
Y01516252
X004188Y0151405
X0041015Y015139
X0041035Y01528855
X0045251Y0152482
X0047596Y0154397
X00480981Y01504245
X0048719Y0150316
X004955Y0147775
X0051221Y0148725
X0051675Y014931
X00531Y0149675
X0053725
X0054375Y014696
X0054975Y014697
X0054526Y01443649
X00547Y0142625
X00520512Y01419737
X00514261
X00516Y014081
X00514261Y01436718
X00520512
X0051221Y01458
X0051675Y0146275
X004955Y01425249
X005555Y0138875
X00470537Y0134642
X004565Y0120575
X0045261Y011965
X0050725Y011945
X0052065Y011953
X0052895Y011936
X0053675Y0119278
X0053655Y012007
X00535244Y01215
X0052875Y012137
X0052245
X0051255Y012136
X0050615Y012105
X0049675Y012171
X0055375Y012168
Y012236
X00556471Y0120272
X0039075Y012514
Y012582
X00388029Y0127228
X00259499Y01292501
X00254499Y01300001
Y01310001
X00254937Y0131978
X00248937
X00242936Y013196
X00228022Y01320678
X00235509Y01341321
X00234783Y01347321
X002375Y01353101
X00234398Y01362632
X00225072Y01356984
X00219072Y01362491
X00203857
Y01377705
X00187787
Y01362491
X00172572
X0016657Y01371755
X0016657Y01377939
X0016354Y0138581
Y0139181
Y014059
X001538Y014093
X001586Y01418
X001395Y014175
X00143882Y01427917
X001438Y014408
X0016381Y0143625
X0017734Y0146275
X0018217Y0146735
X00187Y0146275
X0019075Y014575
X0019676Y01449239
X0018862Y0142028
X001803Y014036
X00191Y013972
X0023325Y013902
X0024Y0139075
Y013845
X00247
Y0139075
X00254Y0139075
Y013845
X002564Y0136633
X002605Y0135925
X00260571Y01338429
X002541Y01339374
X00265379Y01333994
X00270003Y0132937
X00259993Y01323534
X00266709Y01344039
X00219072Y0134642
X00203857
Y01331205
X00187787
X00187677Y01324955
X001862Y013123
X00176014Y01311819
X00170009Y0131395
X001692Y013044
X00174Y013008
X0018Y013012
X00193Y013
X001995Y0129825
Y013045
X002047Y012899
X002135Y012835
X002195Y01282501
X00229499
X002245Y01290001
X00234499Y01295001
X00244499
X002245Y01275001
Y01265001
Y01255001
Y01245001
X0020925Y0125325
X002005Y012436
X0020068Y0122772
X0019237Y0122719
X0018961Y0122177
X0019825Y01214
X0019835Y0120724
X0019115Y012007
X0018533Y0120229
X00183195Y0119668
X0019025Y0119125
X001655Y011915
X001595Y01192499
X001495
X001545Y01199999
Y01209999
Y01219999
Y01229999
X0016975Y0122175
X001785Y012314
X0017832Y0124728
X0018663Y0124781
X0018939Y0125323
X0018075Y01261
X0018065Y0126776
X0018785Y012743
X0019367Y0127271
X00195805Y0127832
X0018875Y0128375
X00209139Y012785
X0020525Y0126925
X00165Y012579
X001556Y012645
X001492Y012614
X001393Y012613
X00133
X00126506Y0126
X001252Y012743
X00125Y0128222
X001328Y012814
X001411Y012797
X0014793Y0128607
X001545Y012805
X0015519Y0129285
X001516Y01317801
X001465Y01324722
X0015494Y01328401
X001609Y0132203
X0016657Y01331956
X00172572Y0134642
X00166572Y01352936
X00156559Y01347666
X0015039Y0134666
X00145Y013551
X00154836Y0135765
X0015585Y0136924
X0015119Y0137309
X001317Y013756
X00127457Y01371357
X00130532Y01361338
X001245Y0134375
X001145Y01375001
X00123754Y013943
X001408Y013907
X0011625Y01445
X001075
X0010599Y01467251
X0011819Y01473752
X00125033Y01477001
X00140033
X00132533Y01484501
Y01469501
X0015985Y01473752
X0015975Y0148025
X001455Y0149075
X00145Y0150725
Y01516252
X0013605Y0151405
X001274Y015139
X001276Y01528855
X0016976Y0152482
X0019321Y0154397
X00198231Y01504245
X0020444Y0150316
X0021275Y0147775
X0022946Y0148725
X00234Y014931
X0024825Y0149675
X002545
X00261Y014696
X00267Y014697
X0026251Y01443649
X0026425Y0142625
X00237762Y01419737
X00231511
X0023325Y014081
X00231511Y01436718
X00237762
X0022946Y01458
X00234Y0146275
X0021275Y01425249
X0027275Y0138875
X00187787Y0134642
X0017375Y0120575
X0016986Y011965
X002245Y011945
X002379Y011953
X002462Y011936
X00254Y0119278
X002538Y012007
X00252493Y01215
X00246Y012137
X002397
X002298Y012136
X002234Y012105
X00214Y012171
X00271Y012168
Y012236
X0027372Y0120272
X00108Y012514
Y012582
X00105279Y0127228
X0039025Y01445
X0038874Y01467251
X0039075Y016464
Y016532
X00388029Y0166728
X00259499Y01687501
X00254499Y01695001
Y01705001
X00254937Y0171478
X00248937
X00242936Y017146
X00228022Y01715678
X00235509Y01736321
X00234783Y01742321
X002375Y01748101
X00234398Y01757632
X00225072Y01751984
X00219072Y01757491
X00203857
Y01772705
X00187787
Y01757491
X00172572
X0016657Y01766755
X0016657Y01772939
X0016354Y0178081
Y0178681
Y018009
X001538Y018043
X001586Y01813
X001395Y018125
X00143882Y01822917
X001438Y018358
X0016381Y0183125
X0017734Y0185775
X0018217Y0186235
X00187Y0185775
X0019075Y018525
X0019676Y01844239
X0018862Y0181528
X001803Y017986
X00191Y017922
X0023325Y017852
X0024Y0178575
Y017795
X00247
Y0178575
X00254Y0178575
Y017795
X002564Y0176133
X002605Y0175425
X00260571Y01733429
X002541Y01734374
X00265379Y01728994
X00270003Y0172437
X00259993Y01718534
X00266709Y01739039
X00219072Y0174142
X00203857
Y01726205
X00187787
X00187677Y01719955
X001862Y017073
X00176014Y01706819
X00170009Y0170895
X001692Y016994
X00174Y016958
X0018Y016962
X00193Y01695
X001995Y0169325
Y016995
X002047Y016849
X002135Y016785
X002195Y01677501
X00229499
X002245Y01685001
X00234499Y01690001
X00244499
X002245Y01670001
Y01660001
Y01650001
Y01640001
X0020925Y0164825
X002005Y016386
X0018663Y0164281
X0018939Y0164823
X0018075Y01656
X0018065Y0166276
X0018785Y016693
X0019367Y0166771
X00195805Y0167332
X0018875Y0167875
X00209139Y016735
X0020525Y0166425
X0017832Y0164228
X00165Y016529
X001556Y016595
X001492Y016564
X001393Y016563
X00133
X00126506Y01655
X001252Y016693
X00125Y0167722
X001328Y016764
X001411Y016747
X0014793Y0168107
X001545Y016755
X0015519Y0168785
X001516Y01712801
X001465Y01719722
X0015494Y01723401
X001609Y0171703
X0016657Y01726955
X00172572Y0174142
X00166572Y01747936
X00156559Y01742666
X0015039Y0174166
X00145Y017501
X00154836Y0175265
X0015585Y0176424
X0015119Y0176809
X001317Y017706
X00127457Y01766357
X00130532Y01756338
X001245Y0173875
X001145Y01770001
X00123754Y017893
X001408Y017857
X0011625Y0184
X001075
X0010599Y01862251
X0011819Y01868752
X00125033Y01872001
X00140033
X00132533Y01879501
Y01864501
X0015985Y01868752
X0015975Y0187525
X001455Y0188575
X00145Y0190225
Y01911252
X0013605Y0190905
X001274Y019089
X001276Y01923855
X0016976Y0191982
X0019321Y0193897
X00198231Y01899245
X0020444Y0189816
X0021275Y0187275
X0022946Y0188225
X00234Y018881
X0024825Y0189175
X002545
X00261Y018646
X00267Y018647
X0026251Y01838649
X0026425Y0182125
X00237762Y01814737
X00231511
X0023325Y018031
X00231511Y01831718
X00237762
X0022946Y01853
X00234Y0185775
X0021275Y01820249
X0027275Y0178375
X00187787Y0174142
X00105279Y0166728
X00108Y016532
Y016464
X0039025Y0184
X0038874Y01862251
X0040094Y01868752
X00407783Y01872001
X00422783
X00415283Y01879501
Y01864501
X004426Y01868752
X004425Y0187525
X0042825Y0188575
X0042775Y0190225
Y01911252
X004188Y0190905
X0041015Y019089
X0041035Y01923855
X0045251Y0191982
X0047596Y0193897
X00480981Y01899245
X0048719Y0189816
X004955Y0187275
X0051221Y0188225
X0051675Y018881
X00531Y0189175
X0053725
X0054375Y018646
X0054975Y018647
X0054526Y01838649
X00547Y0182125
X00520512Y01814737
X00514261
X00516Y018031
Y017852
X0052275Y0178575
Y017795
X0052975
Y0178575
X0053675Y0178575
Y017795
X0053915Y0176133
X0054325Y0175425
X00543322Y01733429
X0053685Y01734374
X00548129Y01728994
X00552753Y0172437
X00542743Y01718534
X00537687Y0171478
X00531687
X00525687Y017146
X00510772Y01715678
X00518259Y01736321
X00517533Y01742321
X0052025Y01748101
X00517148Y01757632
X00507822Y01751984
X00501822Y01757491
X00486607
Y01772705
X00470537
Y01757491
X00455322
X0044932Y01766755
X0044932Y01772939
X0044629Y0178081
Y0178681
Y018009
X0043655Y018043
X0044135Y01813
X0042225Y018125
X00426632Y01822917
X0042655Y018358
X0044656Y0183125
X0046009Y0185775
X0046492Y0186235
X0046975Y0185775
X004735Y018525
X0047951Y01844239
X0047137Y0181528
X0046305Y017986
X0047375Y017922
X004955Y01820249
X00514261Y01831718
X00520512
X0051221Y01853
X0051675Y0185775
X005555Y0178375
X00549459Y01739039
X0053725Y01705001
Y01695001
X0054225Y01687501
X0052725Y01690001
X0051725
X0050725Y01685001
X0051225Y01677501
X0050225
X0049625Y016785
X0049189Y016735
X00488Y0166425
X0047642Y0166771
X004706Y016693
X004715Y0167875
X00478555Y0167332
X0048745Y016849
X0048225Y0169325
Y016995
X0047575Y01695
X0046275Y016962
X0045675Y016958
X0045195Y016994
X0045276Y0170895
X00458764Y01706819
X0046895Y017073
X00470427Y01719955
X00470537Y01726205
Y0174142
X00455322
X00449322Y01747936
X00439309Y01742666
X0043314Y0174166
X0042775Y017501
X00437586Y0175265
X004386Y0176424
X0043394Y0176809
X0041445Y017706
X00410207Y01766357
X00413282Y01756338
X0040725Y0173875
X0042925Y01719722
X0043435Y01712801
X0044365Y0171703
X0043769Y01723401
X0044932Y01726955
X00486607Y01726205
Y0174142
X00501822
X0050725Y01670001
Y01660001
Y01650001
Y01640001
X00492Y0164825
X0048325Y016386
X0046938Y0164281
X0047214Y0164823
X004635Y01656
X004634Y0166276
X0046107Y0164228
X0044775Y016529
X0043835Y016595
X0043195Y016564
X0042205Y016563
X0041575
X00409256Y01655
X0040795Y016693
X0040775Y0167722
X0041555Y016764
X0042385Y016747
X0043068Y0168107
X0043725Y016755
X0043794Y0168785
X0042355Y017857
X00406504Y017893
X0039725Y01770001
X00399Y0184
X00673
X0068175
X0068369Y01868752
X00690533Y01872001
X00705533
X00698033Y01879501
Y01864501
X0067149Y01862251
X0072535Y01868752
X0072525Y0187525
X00711Y0188575
X007105Y0190225
Y01911252
X0070155Y0190905
X006929Y019089
X006931Y01923855
X0073526Y0191982
X0075871Y0193897
X00763731Y01899245
X0076994Y0189816
X0077825Y0187275
X007525Y0185775
X0075625Y018525
X0076226Y01844239
X0074767Y0186235
X0074284Y0185775
X0072931Y0183125
X007241Y01813
X007193Y018043
X0072904Y018009
Y0178681
Y0178081
X0073207Y01772939
X0073207Y01766755
X0072135Y0176424
X0071669Y0176809
X00720336Y0175265
X00722059Y01742666
X0071589Y0174166
X007105Y017501
X00696032Y01756338
X00692958Y01766357
X006972Y017706
X0068Y01770001
X00689255Y017893
X007063Y017857
X00705Y018125
X00709383Y01822917
X007093Y018358
X0075412Y0181528
X007458Y017986
X007565Y017922
X00753287Y01772705
Y01757491
X00738072
X00732072Y01747936
X00738072Y0174142
X00753287
Y01726205
X00753177Y01719955
X007517Y017073
X00741514Y01706819
X0073551Y0170895
X007347Y016994
X007395Y016958
X007455Y016962
X007585Y01695
X00765Y0169325
Y016995
X007702Y016849
X00779Y016785
X00785Y01677501
X0079Y01685001
Y01670001
Y01660001
Y01650001
Y01640001
X0077475Y0164825
X00766Y016386
X0075213Y0164281
X0075489Y0164823
X0074625Y01656
X0074615Y0166276
X0075335Y016693
X0075917Y0166771
X00761305Y0167332
X0075425Y0167875
X0077464Y016735
X0077075Y0166425
X0074382Y0164228
X007305Y016529
X007211Y016595
X007147Y016564
X007048Y016563
X006985
X00692006Y01655
X006907Y016693
X006905Y0167722
X006983Y016764
X007066Y016747
X0071343Y0168107
X0072Y016755
X0072069Y0168785
X007171Y01712801
X00712Y01719722
X0072044Y01723401
X007264Y0171703
X0073207Y01726955
X00769357Y01726205
Y0174142
X00784572
Y01757491
X00790573Y01751984
X00769357Y01757491
Y01772705
X0077825Y01820249
X00793522Y01715678
X0069Y0173875
X00670779Y0166728
X006735Y016532
Y016464
X00795Y01677501
X008Y01690001
X0081
X0082Y01695001
Y01705001
X00820437Y0171478
X00814437
X00808437Y017146
X00825493Y01718534
X00826072Y01733429
X008196Y01734374
X00830879Y01728994
X00835503Y0172437
X00832209Y01739039
X00826Y0175425
X008219Y0176133
X008195Y017795
Y0178575
X008125Y0178575
Y017795
X008055
Y0178575
X0079875Y017852
Y018031
X00797011Y01814737
X00803262
Y01831718
X00797011
X0079496Y01853
X007995Y0185775
X0079496Y0188225
X007995Y018881
X0081375Y0189175
X0082
X008265Y018646
X008325Y018647
X0082801Y01838649
X0082975Y0182125
X0083825Y0178375
X00799898Y01757632
X00803Y01748101
X00800283Y01742321
X00801009Y01736321
X00825Y01687501
X00953529Y0166728
X0095625Y016532
Y016464
X00974756Y01655
X0098125Y016563
X0098755
X0099745Y016564
X0100385Y016595
X0101325Y016529
X01029Y01656
X010289Y0166276
X010361Y016693
X0104192Y0166771
X01044055Y0167332
X01037Y0167875
X0104125Y01695
X0104775Y0169325
Y016995
X0105295Y016849
X0106175Y016785
X0106775Y01677501
X0107775
X0107275Y01685001
X0108275Y01690001
X0109275
X0110275Y01695001
Y01705001
X01103187Y0171478
X01097187
X01091187Y017146
X01076272Y01715678
X0108376Y01736321
X01083033Y01742321
X0108575Y01748101
X01082648Y01757632
X01073323Y01751984
X01067322Y01757491
X01052107
Y01772705
X01036037
Y01757491
X01020822
X0101482Y01766755
X0101482Y01772939
X0101179Y0178081
Y0178681
Y018009
X0100205Y018043
X0100685Y01813
X0098775Y018125
X00992133Y01822917
X0099205Y018358
X0101206Y0183125
X0102559Y0185775
X0103042Y0186235
X0103525Y0185775
X01039Y018525
X0104501Y01844239
X0103687Y0181528
X0102855Y017986
X0103925Y017922
X010815Y017852
X0108825Y0178575
Y017795
X0109525
Y0178575
X0110225Y0178575
Y017795
X0110465Y0176133
X0110875Y0175425
X01108822Y01733429
X0110235Y01734374
X01113629Y01728994
X01118253Y0172437
X01108244Y01718534
X01114959Y01739039
X01067322Y0174142
X01052107
Y01726205
X01036037
X01035927Y01719955
X0103445Y017073
X01024264Y01706819
X0101826Y0170895
X0101745Y016994
X0102225Y016958
X0102825Y016962
X0100344Y0168785
X0100275Y016755
X0099618Y0168107
X0098935Y016747
X0098105Y016764
X0097325Y0167722
X0097345Y016693
X0099985Y01712801
X0099475Y01719722
X0100319Y01723401
X0100915Y0171703
X0101482Y01726955
X01020822Y0174142
X01014822Y01747936
X01004809Y01742666
X0099864Y0174166
X0099325Y017501
X01003086Y0175265
X010041Y0176424
X0099944Y0176809
X0097995Y017706
X00975708Y01766357
X00978782Y01756338
X0097275Y0173875
X0096275Y01770001
X00972005Y017893
X0098905Y017857
X009645Y0184
X0095575
X0095424Y01862251
X0096644Y01868752
X00973283Y01872001
X00988283
X00980783Y01879501
Y01864501
X010081Y01868752
X01008Y0187525
X0099375Y0188575
X0099325Y0190225
Y01911252
X009843Y0190905
X0097565Y019089
X0097585Y01923855
X0101801Y0191982
X0104146Y0193897
X01046481Y01899245
X0105269Y0189816
X01061Y0187275
X0107771Y0188225
X0108225Y018881
X010965Y0189175
X0110275
X0110925Y018646
X0111525Y018647
X0111076Y01838649
X011125Y0182125
X01086012Y01814737
X01079762
X010815Y018031
X01079762Y01831718
X01086012
X0107771Y01853
X0108225Y0185775
X01061Y01820249
X01121Y0178375
X0110775Y01687501
X0107275Y01670001
Y01660001
Y01650001
Y01640001
X010575Y0164825
X0104875Y016386
X0103488Y0164281
X0103764Y0164823
X0102657Y0164228
X010535Y0166425
X0105739Y016735
X01036037Y0174142
X012555Y0173875
X01261532Y01756338
X01258458Y01766357
X012627Y017706
X012455Y01770001
X01254755Y017893
X012718Y017857
X0129454Y0178681
Y0178081
X0129757Y01772939
X0129757Y01766755
X0128685Y0176424
X0128219Y0176809
X01285836Y0175265
X0128756Y01742666
X0128139Y0174166
X01276Y017501
X01297572Y01747936
X01303573Y0174142
X01318788
Y01726205
X01318677Y01719955
X013172Y017073
X01307014Y01706819
X0130101Y0170895
X013002Y016994
X01305Y016958
X01311Y016962
X01324Y01695
X013305Y0169325
Y016995
X013357Y016849
X013445Y016785
X013505Y01677501
X013605
X013555Y01685001
X013655Y01690001
X013755
X013855Y01695001
Y01705001
X01385937Y0171478
X01379937
X01373937Y017146
X01359022Y01715678
X0136651Y01736321
X01365783Y01742321
X013685Y01748101
X01365398Y01757632
X01356073Y01751984
X01350072Y01757491
X01334857
Y01772705
X01318788
Y01757491
X01303573
X0129757Y01726955
X0128594Y01723401
X012775Y01719722
X012826Y01712801
X012919Y0171703
X0128619Y0168785
X012855Y016755
X0127893Y0168107
X012721Y016747
X012638Y016764
X01256Y0167722
X012562Y016693
X01257506Y01655
X01264Y016563
X012703
X012802Y016564
X012866Y016595
X01296Y016529
X0131175Y01656
X0131165Y0166276
X0131885Y016693
X0132467Y0166771
X01326805Y0167332
X0131975Y0167875
X0134014Y016735
X0133625Y0166425
X0134025Y0164825
X013555Y01650001
Y01640001
Y01660001
Y01670001
X013905Y01687501
X01390994Y01718534
X01391572Y01733429
X01385101Y01734374
X01396379Y01728994
X01401003Y0172437
X01397709Y01739039
X013915Y0175425
X013874Y0176133
X01385Y017795
Y0178575
X01378Y0178575
Y017795
X01371
Y0178575
X0136425Y017852
Y018031
X01362512Y01814737
X01368762
Y01831718
X01362512
X0136046Y01853
X01365Y0185775
X0136046Y0188225
X01365Y018881
X0137925Y0189175
X013855
X01392Y018646
X01398Y018647
X0139351Y01838649
X0139525Y0182125
X0140375Y0178375
X01322Y017922
X013113Y017986
X0129454Y018009
X012848Y018043
X012896Y01813
X012705Y018125
X01274883Y01822917
X012748Y018358
X0129481Y0183125
X0130834Y0185775
X0131317Y0186235
X01318Y0185775
X0132175Y018525
X0132776Y01844239
X0131962Y0181528
X0134375Y01820249
Y0187275
X0133544Y0189816
X01329231Y01899245
X0132421Y0193897
X0130076Y0191982
X01276Y01911252
Y0190225
X0126705Y0190905
X012584Y019089
X012586Y01923855
X01263533Y01879501
X01256033Y01872001
X0124919Y01868752
X01263533Y01864501
X01271033Y01872001
X012765Y0188575
X0129075Y0187525
X0129085Y01868752
X0123699Y01862251
X012385Y0184
X0124725
X0123628Y0166728
X01239Y016532
Y016464
X0130932Y0164228
X0131763Y0164281
X0132039Y0164823
X013315Y016386
X01334857Y01726205
Y0174142
X01350072
X013555Y02035001
Y02045001
Y02055001
Y02065001
X013605Y02072501
X013505
X013445Y020735
X0134014Y020685
X0133625Y0205925
X0132467Y0206271
X0131885Y020643
X0131975Y0207375
X01326805Y0206832
X013357Y020799
X013305Y0208825
Y020945
X01324Y0209
X01311Y020912
X01305Y020908
X013002Y020944
X0130101Y0210395
X01307014Y02101819
X013172Y021023
X01318677Y02114955
X01318788Y02121205
Y0213642
X01303573
X01297572Y02142936
X0128756Y02137666
X0128139Y0213666
X01276Y021451
X01285836Y0214765
X0128685Y0215924
X0128219Y0216309
X0129757Y02161755
X0129757Y02167939
X0129454Y0217581
Y0218181
Y021959
X012848Y021993
X012896Y02208
X012705Y022075
X01274883Y02217917
X012748Y022308
X0129481Y0222625
X0130834Y0225275
X0131317Y0225735
X01318Y0225275
X0132175Y022475
X0132776Y02239239
X0131962Y0221028
X013113Y021936
X01322Y021872
X01318788Y02167705
Y02152491
X01303573
X01334857
Y02167705
X01350072Y02152491
X01356073Y02146984
X01365398Y02152632
X013685Y02143101
X01365783Y02137321
X0136651Y02131321
X01385101Y02129374
X01391572Y02128429
X01396379Y02123994
X01401003Y0211937
X01390994Y02113534
X01385937Y0210978
X01379937
X01373937Y021096
X01359022Y02110678
X013655Y02085001
X013755
X013855Y02090001
Y02100001
X013905Y02082501
X013555Y02080001
X0134025Y0204325
X013315Y020336
X0131763Y0203781
X0132039Y0204323
X0131175Y02051
X0131165Y0205776
X0130932Y0203728
X01296Y020479
X012866Y020545
X012802Y020514
X012703Y020513
X01264
X01257506Y0205
X012562Y020643
X01256Y0207222
X012638Y020714
X012721Y020697
X0127893Y0207607
X012855Y020705
X0128619Y0208285
X012826Y02107801
X012775Y02114722
X0128594Y02118401
X012919Y0211203
X0129757Y02121955
X01334857Y02121205
Y0213642
X01350072
X01397709Y02134039
X013915Y0214925
X013874Y0215633
X01385Y021745
Y0218075
X01378Y0218075
Y021745
X01371
Y0218075
X0136425Y021802
Y021981
X01362512Y02209737
X01368762
Y02226718
X01362512
X0136046Y02248
X01365Y0225275
X0136046Y0227725
X01365Y022831
X0137925Y0228675
X013855
X01392Y022596
X01398Y022597
X0139351Y02233649
X0139525Y0221625
X0140375Y0217875
X0134375Y02215249
Y0226775
X0133544Y0229316
X01329231Y02294245
X0132421Y0233397
X0130076Y0231482
X01276Y02306252
Y0229725
X0126705Y0230405
X012584Y023039
X012586Y02318855
X01263533Y02274501
X01256033Y02267001
X0124919Y02263752
X01263533Y02259501
X01271033Y02267001
X012765Y0228075
X0129075Y0227025
X0129085Y02263752
X0123699Y02257251
X012385Y02235
X0124725
X01254755Y021843
X012718Y021807
X012627Y021656
X01258458Y02161357
X01261532Y02151338
X012555Y0213375
X012455Y02165001
X0123628Y0206228
X01239Y020482
Y020414
X0107275Y02045001
Y02035001
Y02055001
Y02065001
X0107775Y02072501
X0106775
X0106175Y020735
X0105739Y020685
X010535Y0205925
X0104192Y0206271
X010361Y020643
X01037Y0207375
X01044055Y0206832
X0105295Y020799
X0104775Y0208825
Y020945
X0104125Y0209
X0102825Y020912
X0102225Y020908
X0101745Y020944
X0101826Y0210395
X01024264Y02101819
X0103445Y021023
X01035927Y02114955
X01036037Y02121205
Y0213642
X01020822
X01014822Y02142936
X01004809Y02137666
X0099864Y0213666
X0099325Y021451
X01003086Y0214765
X010041Y0215924
X0099944Y0216309
X0101482Y02161755
X0101482Y02167939
X0101179Y0217581
Y0218181
Y021959
X0100205Y021993
X0100685Y02208
X0098775Y022075
X00992133Y02217917
X0099205Y022308
X0101206Y0222625
X0102559Y0225275
X0103042Y0225735
X0103525Y0225275
X01039Y022475
X0104501Y02239239
X0103687Y0221028
X0102855Y021936
X0103925Y021872
X01036037Y02167705
Y02152491
X01020822
X01052107
Y02167705
X01067322Y02152491
X01073323Y02146984
X01082648Y02152632
X0108575Y02143101
X01083033Y02137321
X0108376Y02131321
X0110235Y02129374
X01108822Y02128429
X01113629Y02123994
X01118253Y0211937
X01108244Y02113534
X01103187Y0210978
X01097187
X01091187Y021096
X01076272Y02110678
X0108275Y02085001
X0109275
X0110275Y02090001
Y02100001
X0110775Y02082501
X0107275Y02080001
X010575Y0204325
X0104875Y020336
X0103488Y0203781
X0103764Y0204323
X01029Y02051
X010289Y0205776
X0102657Y0203728
X0101325Y020479
X0100385Y020545
X0099745Y020514
X0098755Y020513
X0098125
X00974756Y0205
X0097345Y020643
X0097325Y0207222
X0098105Y020714
X0098935Y020697
X0099618Y0207607
X0100275Y020705
X0100344Y0208285
X0099985Y02107801
X0099475Y02114722
X0100319Y02118401
X0100915Y0211203
X0101482Y02121955
X01052107Y02121205
Y0213642
X01067322
X01114959Y02134039
X0110875Y0214925
X0110465Y0215633
X0110225Y021745
Y0218075
X0109525Y0218075
Y021745
X0108825
Y0218075
X010815Y021802
Y021981
X01079762Y02209737
X01086012
Y02226718
X01079762
X0107771Y02248
X0108225Y0225275
X0107771Y0227725
X0108225Y022831
X010965Y0228675
X0110275
X0110925Y022596
X0111525Y022597
X0111076Y02233649
X011125Y0221625
X01121Y0217875
X01061Y02215249
Y0226775
X0105269Y0229316
X01046481Y02294245
X0104146Y0233397
X0101801Y0231482
X0099325Y02306252
Y0229725
X009843Y0230405
X0097565Y023039
X0097585Y02318855
X00980783Y02274501
X00973283Y02267001
X0096644Y02263752
X00980783Y02259501
X00988283Y02267001
X0099375Y0228075
X01008Y0227025
X010081Y02263752
X0095424Y02257251
X0095575Y02235
X009645
X00972005Y021843
X0098905Y021807
X0097995Y021656
X00975708Y02161357
X00978782Y02151338
X0097275Y0213375
X0096275Y02165001
X00953529Y0206228
X0095625Y020482
Y020414
X00825Y02082501
X0082Y02090001
Y02100001
X00820437Y0210978
X00814437
X00808437Y021096
X00825493Y02113534
X00826072Y02128429
X008196Y02129374
X00830879Y02123994
X00835503Y0211937
X00832209Y02134039
X00826Y0214925
X008219Y0215633
X008195Y021745
Y0218075
X008125Y0218075
Y021745
X008055
Y0218075
X0079875Y021802
Y021981
X00797011Y02209737
X00803262
Y02226718
X00797011
X0079496Y02248
X007995Y0225275
X0079496Y0227725
X007995Y022831
X0081375Y0228675
X0082
X008265Y022596
X008325Y022597
X0082801Y02233649
X0082975Y0221625
X0083825Y0217875
X00799898Y02152632
X00803Y02143101
X00800283Y02137321
X00801009Y02131321
X008Y02085001
X0081
X00795Y02072501
X00785
X00779Y020735
X0077464Y020685
X0077075Y0205925
X0075917Y0206271
X0075335Y020643
X0075425Y0207375
X00761305Y0206832
X007702Y020799
X00765Y0208825
Y020945
X007585Y0209
X007455Y020912
X007395Y020908
X007347Y020944
X0073551Y0210395
X00741514Y02101819
X007517Y021023
X00753177Y02114955
X00753287Y02121205
Y0213642
X00738072
X00732072Y02142936
X00722059Y02137666
X0071589Y0213666
X007105Y021451
X00720336Y0214765
X0072135Y0215924
X0071669Y0216309
X0073207Y02161755
X0073207Y02167939
X0072904Y0217581
Y0218181
Y021959
X007193Y021993
X007241Y02208
X00705Y022075
X00709383Y02217917
X007093Y022308
X0072931Y0222625
X0074284Y0225275
X0074767Y0225735
X007525Y0225275
X0075625Y022475
X0076226Y02239239
X0075412Y0221028
X007458Y021936
X007565Y021872
X00753287Y02167705
Y02152491
X00738072
X00769357
Y02167705
X00784572Y02152491
X00790573Y02146984
X00784572Y0213642
X00769357
Y02121205
X00793522Y02110678
X0079Y02080001
Y02065001
Y02055001
Y02045001
Y02035001
X0077475Y0204325
X00766Y020336
X0075213Y0203781
X0075489Y0204323
X0074625Y02051
X0074615Y0205776
X0074382Y0203728
X007305Y020479
X007211Y020545
X007147Y020514
X007048Y020513
X006985
X00692006Y0205
X006907Y020643
X006905Y0207222
X006983Y020714
X007066Y020697
X0071343Y0207607
X0072Y020705
X0072069Y0208285
X007171Y02107801
X00712Y02114722
X0072044Y02118401
X007264Y0211203
X0073207Y02121955
X0069Y0213375
X00696032Y02151338
X00692958Y02161357
X006972Y021656
X0068Y02165001
X00689255Y021843
X007063Y021807
X0068175Y02235
X00673
X0067149Y02257251
X0068369Y02263752
X00690533Y02267001
X00705533
X00698033Y02274501
Y02259501
X0072535Y02263752
X0072525Y0227025
X00711Y0228075
X007105Y0229725
Y02306252
X0070155Y0230405
X006929Y023039
X006931Y02318855
X0073526Y0231482
X0075871Y0233397
X00763731Y02294245
X0076994Y0229316
X0077825Y0226775
Y02215249
X00547Y0221625
X0054526Y02233649
X0054375Y022596
X0054975Y022597
X0053725Y0228675
X00531
X0051675Y022831
X0051221Y0227725
X004955Y0226775
X0048719Y0229316
X00480981Y02294245
X0047596Y0233397
X0045251Y0231482
X0042775Y02306252
Y0229725
X004188Y0230405
X0041015Y023039
X0041035Y02318855
X00415283Y02274501
X00407783Y02267001
X0040094Y02263752
X00415283Y02259501
X00422783Y02267001
X0042825Y0228075
X004425Y0227025
X004426Y02263752
X0046009Y0225275
X0046492Y0225735
X0046975Y0225275
X004735Y022475
X0047951Y02239239
X0047137Y0221028
X0046305Y021936
X0047375Y021872
X00470537Y02167705
Y02152491
X00455322
X0044932Y02161755
X0044932Y02167939
X0044629Y0217581
Y0218181
Y021959
X0043655Y021993
X0044135Y02208
X0042225Y022075
X00426632Y02217917
X0042655Y022308
X0044656Y0222625
X00399Y02235
X00406504Y021843
X0042355Y021807
X0041445Y021656
X00410207Y02161357
X00413282Y02151338
X0042775Y021451
X00437586Y0214765
X00439309Y02137666
X0043314Y0213666
X00455322Y0213642
X00449322Y02142936
X0044932Y02121955
X0043769Y02118401
X0042925Y02114722
X0043435Y02107801
X0044365Y0211203
X0045276Y0210395
X00458764Y02101819
X0046895Y021023
X00470427Y02114955
X00470537Y02121205
Y0213642
X00486607
X00501822
Y02152491
X00507822Y02146984
X00517148Y02152632
X0052025Y02143101
X00517533Y02137321
X00518259Y02131321
X0053685Y02129374
X00543322Y02128429
X00548129Y02123994
X00552753Y0211937
X00542743Y02113534
X00537687Y0210978
X00531687
X00525687Y021096
X00510772Y02110678
X0051725Y02085001
X0052725
X0053725Y02090001
Y02100001
X0054225Y02082501
X0050725Y02080001
X0051225Y02072501
X0050225
X0049625Y020735
X0049189Y020685
X00488Y0205925
X0047642Y0206271
X004706Y020643
X004715Y0207375
X00478555Y0206832
X0048745Y020799
X0048225Y0208825
Y020945
X0047575Y0209
X0046275Y020912
X0045675Y020908
X0045195Y020944
X0043794Y0208285
X0043725Y020705
X0043068Y0207607
X0042385Y020697
X0041555Y020714
X0040775Y0207222
X0040795Y020643
X00409256Y0205
X0041575Y020513
X0042205
X0043195Y020514
X0043835Y020545
X0044775Y020479
X004635Y02051
X004634Y0205776
X0046107Y0203728
X0046938Y0203781
X0047214Y0204323
X00492Y0204325
X0050725Y02045001
Y02035001
Y02055001
Y02065001
X0048325Y020336
X00486607Y02121205
Y02152491
Y02167705
X00516Y021802
X0052275Y0218075
Y021745
X0052975
Y0218075
X0053675Y0218075
Y021745
X0053915Y0215633
X0054325Y0214925
X00549459Y02134039
X005555Y0217875
X00516Y021981
X00514261Y02209737
X00520512
Y02226718
X00514261
X0051221Y02248
X0051675Y0225275
X004955Y02215249
X004386Y0215924
X0043394Y0216309
X0039725Y02165001
X0040725Y0213375
X00670779Y0206228
X006735Y020482
Y020414
X0039075
Y020482
X00388029Y0206228
X00259499Y02082501
X00254499Y02090001
Y02100001
X00254937Y0210978
X00248937
X00242936Y021096
X00228022Y02110678
X00235509Y02131321
X00234783Y02137321
X002375Y02143101
X00234398Y02152632
X00225072Y02146984
X00219072Y02152491
X00203857
Y02167705
X00187787
Y02152491
X00172572
X0016657Y02161755
X0016657Y02167939
X0016354Y0217581
Y0218181
Y021959
X001538Y021993
X001586Y02208
X001395Y022075
X00143882Y02217917
X001438Y022308
X0016381Y0222625
X0017734Y0225275
X0018217Y0225735
X00187Y0225275
X0019075Y022475
X0019676Y02239239
X0018862Y0221028
X001803Y021936
X00191Y021872
X0023325Y021802
X0024Y0218075
Y021745
X00247
Y0218075
X00254Y0218075
Y021745
X002564Y0215633
X002605Y0214925
X00260571Y02128429
X002541Y02129374
X00265379Y02123994
X00270003Y0211937
X00259993Y02113534
X00266709Y02134039
X00219072Y0213642
X00203857
Y02121205
X00187787
X00187677Y02114955
X001862Y021023
X00176014Y02101819
X00170009Y0210395
X001692Y020944
X00174Y020908
X0018Y020912
X00193Y0209
X001995Y0208825
Y020945
X002047Y020799
X002135Y020735
X002195Y02072501
X00229499
X002245Y02080001
X00234499Y02085001
X00244499
X002245Y02065001
Y02055001
Y02045001
Y02035001
X0020925Y0204325
X002005Y020336
X0018663Y0203781
X0018939Y0204323
X0018075Y02051
X0018065Y0205776
X0018785Y020643
X0019367Y0206271
X00195805Y0206832
X0018875Y0207375
X00209139Y020685
X0020525Y0205925
X0017832Y0203728
X00165Y020479
X001556Y020545
X001492Y020514
X001393Y020513
X00133
X00126506Y0205
X001252Y020643
X00125Y0207222
X001328Y020714
X001411Y020697
X0014793Y0207607
X001545Y020705
X0015519Y0208285
X001516Y02107801
X001465Y02114722
X0015494Y02118401
X001609Y0211203
X0016657Y02121955
X00172572Y0213642
X00166572Y02142936
X00156559Y02137666
X0015039Y0213666
X00145Y021451
X00154836Y0214765
X0015585Y0215924
X0015119Y0216309
X001317Y021656
X00127457Y02161357
X00130532Y02151338
X001245Y0213375
X001145Y02165001
X00123754Y021843
X001408Y021807
X0011625Y02235
X001075
X0010599Y02257251
X0011819Y02263752
X00125033Y02267001
X00140033
X00132533Y02274501
Y02259501
X0015985Y02263752
X0015975Y0227025
X001455Y0228075
X00145Y0229725
Y02306252
X0013605Y0230405
X001274Y023039
X001276Y02318855
X0016976Y0231482
X0019321Y0233397
X00198231Y02294245
X0020444Y0229316
X0021275Y0226775
X0022946Y0227725
X00234Y022831
X0024825Y0228675
X002545
X00261Y022596
X00267Y022597
X0026251Y02233649
X0026425Y0221625
X00237762Y02209737
X00231511
X0023325Y021981
X00231511Y02226718
X00237762
X0022946Y02248
X00234Y0225275
X0021275Y02215249
X0027275Y0217875
X00187787Y0213642
X00105279Y0206228
X00108Y020482
Y020414
X0039025Y02235
X0038874Y02257251
T02
X00155Y002783
Y002883
X00165
Y002783
X00175
Y002883
X0043775
Y002783
X0044775
Y002883
X0045775
Y002783
X007205
Y002883
X007305
Y002783
X007405
Y002883
X0100325
Y002783
X0101325
Y002883
X0102325
Y002783
X01286
Y002883
X01296
Y002783
X01306
Y002883
Y006733
Y006833
X01296
Y006733
X01286
Y006833
X0102325
Y006733
X0101325
Y006833
X0100325
Y006733
X007405
Y006833
X007305
Y006733
X007205
Y006833
X0045775
Y006733
X0044775
Y006833
X0043775
Y006733
X00175
Y006833
X00165
Y006733
X00155
Y006833
Y010683
Y010783
X00165
Y010683
X00175
Y010783
X0043775
Y010683
X0044775
Y010783
X0045775
Y010683
X007205
Y010783
X007305
Y010683
X007405
Y010783
X0100325
Y010683
X0101325
Y010783
X0102325
Y010683
X01286
Y010783
X01296
Y010683
X01306
Y010783
X01335Y013967
Y014067
X01345
Y013967
X01355
Y014067
X0107225
Y013967
X0106225
Y014067
X0105225
Y013967
X007895
Y014067
X007795
Y013967
X007695
Y014067
X0050675
Y013967
X0049675
Y014067
X0048675
Y013967
X00224
Y014067
X00214
Y013967
X00204
Y014067
Y017917
Y018017
X00214
Y017917
X00224
Y018017
X0048675
Y017917
X0049675
Y018017
X0050675
Y017917
X007695
Y018017
X007795
Y017917
X007895
Y018017
X0105225
Y017917
X0106225
Y018017
X0107225
Y017917
X01335
Y018017
X01345
Y017917
X01355
Y018017
Y021867
Y021967
X01345
Y021867
X01335
Y021967
X0107225
Y021867
X0106225
Y021967
X0105225
Y021867
X007895
Y021967
X007795
Y021867
X007695
Y021967
X0050675
Y021867
X0049675
Y021967
X0048675
Y021867
X00224
Y021967
X00214
Y021867
X00204
Y021967
T03
X001895Y001129
Y002761
X0047225
Y001129
X00755
Y002761
X0103775
Y001129
X013205
Y002761
Y005079
Y006711
X0103775
Y005079
X00755
Y006711
X0047225
Y005079
X001895
Y006711
Y009029
Y010661
X0047225
Y009029
X00755
Y010661
X0103775
Y009029
X013205
Y010661
X013205Y014089
Y015721
X0103775
Y014089
X00755
Y015721
X0047225
Y014089
X001895
Y015721
Y018039
Y019671
X0047225
Y018039
X00755
Y019671
X0103775
Y018039
X013205
Y019671
Y021989
Y023621
X0103775
Y021989
X00755
Y023621
X0047225
Y021989
X001895
Y023621
M30
