M48
;Layer_Color=9474304
;FILE_FORMAT=4:4
METRIC,LZ
;TYPE=NON_PLATED
T4F00S00C0.9000
T5F00S00C3.2000
%
T04
X00116102Y002806
Y003106
X00398852
Y002806
X00681602
Y003106
X00964352
Y002806
X01247102
Y003106
Y006756
Y007056
X00964352
Y006756
X00681602
Y007056
X00398852
Y006756
X00116102
Y007056
Y010706
Y011006
X00398852
Y010706
X00681602
Y011006
X00964352
Y010706
X01247102
Y011006
X01393898Y013744
Y014044
X01111148
Y013744
X00828398
Y014044
X00545648
Y013744
X00262898
Y014044
Y017694
Y017994
X00545648
Y017694
X00828398
Y017994
X01111148
Y017694
X01393898
Y017994
Y021644
Y021944
X01111148
Y021644
X00828398
Y021944
X00545648
Y021644
X00262898
Y021944
T05
X000375Y000375
X014725
Y012
Y01275
X000375
Y012
Y024375
X014725
M30
