G04*
G04 #@! TF.GenerationSoftware,Altium Limited,Altium Designer,23.6.0 (18)*
G04*
G04 Layer_Color=16711935*
%FSLAX44Y44*%
%MOMM*%
G71*
G04*
G04 #@! TF.SameCoordinates,542A25E6-394C-4203-B619-F464005C6F94*
G04*
G04*
G04 #@! TF.FilePolarity,Positive*
G04*
G01*
G75*
%ADD98C,0.1000*%
D98*
X1391500Y334362D02*
G03*
X1396500Y329362I5000J0D01*
G01*
Y339362D02*
G03*
X1391500Y334362I0J-5000D01*
G01*
X1396500Y291962D02*
G03*
X1391500Y286962I0J-5000D01*
G01*
D02*
G03*
X1396500Y281962I5000J0D01*
G01*
X1230500Y192500D02*
G03*
X1410500Y192500I90000J0D01*
G01*
Y329362D02*
X1396500D01*
Y339362D02*
X1410500Y339362D01*
Y291962D02*
X1396500D01*
X1410500D02*
Y310662D01*
Y281962D02*
X1396500D01*
X1410500Y339362D02*
Y370662D01*
Y310662D02*
Y329362D01*
Y250662D02*
Y281962D01*
Y447500D02*
X1230500D01*
X1410500Y370662D02*
Y447500D01*
Y192500D02*
Y250662D01*
X1230500Y192500D02*
X1230500Y447500D01*
X1391500Y729362D02*
G03*
X1396500Y724362I5000J0D01*
G01*
Y734362D02*
G03*
X1391500Y729362I0J-5000D01*
G01*
X1396500Y686962D02*
G03*
X1391500Y681962I0J-5000D01*
G01*
D02*
G03*
X1396500Y676962I5000J0D01*
G01*
X1230500Y587500D02*
G03*
X1410500Y587500I90000J0D01*
G01*
Y724362D02*
X1396500D01*
Y734362D02*
X1410500Y734362D01*
Y686962D02*
X1396500D01*
X1410500D02*
Y705662D01*
Y676962D02*
X1396500D01*
X1410500Y734362D02*
Y765662D01*
Y705662D02*
Y724362D01*
Y645662D02*
Y676962D01*
Y842500D02*
X1230500D01*
X1410500Y765662D02*
Y842500D01*
Y587500D02*
Y645662D01*
X1230500Y587500D02*
X1230500Y842500D01*
X1391500Y1124362D02*
G03*
X1396500Y1119362I5000J0D01*
G01*
Y1129362D02*
G03*
X1391500Y1124362I0J-5000D01*
G01*
X1396500Y1081962D02*
G03*
X1391500Y1076962I0J-5000D01*
G01*
D02*
G03*
X1396500Y1071962I5000J0D01*
G01*
X1230500Y982500D02*
G03*
X1410500Y982500I90000J0D01*
G01*
Y1119362D02*
X1396500D01*
Y1129362D02*
X1410500Y1129362D01*
Y1081962D02*
X1396500D01*
X1410500D02*
Y1100662D01*
Y1071962D02*
X1396500D01*
X1410500Y1129362D02*
Y1160662D01*
Y1100662D02*
Y1119362D01*
Y1040662D02*
Y1071962D01*
Y1237500D02*
X1230500D01*
X1410500Y1160662D02*
Y1237500D01*
Y982500D02*
Y1040662D01*
X1230500Y982500D02*
X1230500Y1237500D01*
X1108750Y334362D02*
G03*
X1113750Y329362I5000J0D01*
G01*
Y339362D02*
G03*
X1108750Y334362I0J-5000D01*
G01*
X1113750Y291962D02*
G03*
X1108750Y286962I0J-5000D01*
G01*
D02*
G03*
X1113750Y281962I5000J0D01*
G01*
X947750Y192500D02*
G03*
X1127750Y192500I90000J0D01*
G01*
Y329362D02*
X1113750D01*
Y339362D02*
X1127750Y339362D01*
Y291962D02*
X1113750D01*
X1127750D02*
Y310662D01*
Y281962D02*
X1113750D01*
X1127750Y339362D02*
Y370662D01*
Y310662D02*
Y329362D01*
Y250662D02*
Y281962D01*
Y447500D02*
X947750D01*
X1127750Y370662D02*
Y447500D01*
Y192500D02*
Y250662D01*
X947750Y192500D02*
X947750Y447500D01*
X1108750Y729362D02*
G03*
X1113750Y724362I5000J0D01*
G01*
Y734362D02*
G03*
X1108750Y729362I0J-5000D01*
G01*
X1113750Y686962D02*
G03*
X1108750Y681962I0J-5000D01*
G01*
D02*
G03*
X1113750Y676962I5000J0D01*
G01*
X947750Y587500D02*
G03*
X1127750Y587500I90000J0D01*
G01*
Y724362D02*
X1113750D01*
Y734362D02*
X1127750Y734362D01*
Y686962D02*
X1113750D01*
X1127750D02*
Y705662D01*
Y676962D02*
X1113750D01*
X1127750Y734362D02*
Y765662D01*
Y705662D02*
Y724362D01*
Y645662D02*
Y676962D01*
Y842500D02*
X947750D01*
X1127750Y765662D02*
Y842500D01*
Y587500D02*
Y645662D01*
X947750Y587500D02*
X947750Y842500D01*
X1108750Y1124362D02*
G03*
X1113750Y1119362I5000J0D01*
G01*
Y1129362D02*
G03*
X1108750Y1124362I0J-5000D01*
G01*
X1113750Y1081962D02*
G03*
X1108750Y1076962I0J-5000D01*
G01*
D02*
G03*
X1113750Y1071962I5000J0D01*
G01*
X947750Y982500D02*
G03*
X1127750Y982500I90000J0D01*
G01*
Y1119362D02*
X1113750D01*
Y1129362D02*
X1127750Y1129362D01*
Y1081962D02*
X1113750D01*
X1127750D02*
Y1100662D01*
Y1071962D02*
X1113750D01*
X1127750Y1129362D02*
Y1160662D01*
Y1100662D02*
Y1119362D01*
Y1040662D02*
Y1071962D01*
Y1237500D02*
X947750D01*
X1127750Y1160662D02*
Y1237500D01*
Y982500D02*
Y1040662D01*
X947750Y982500D02*
X947750Y1237500D01*
X826000Y334362D02*
G03*
X831000Y329362I5000J0D01*
G01*
Y339362D02*
G03*
X826000Y334362I0J-5000D01*
G01*
X831000Y291962D02*
G03*
X826000Y286962I0J-5000D01*
G01*
D02*
G03*
X831000Y281962I5000J0D01*
G01*
X665000Y192500D02*
G03*
X845000Y192500I90000J0D01*
G01*
Y329362D02*
X831000D01*
Y339362D02*
X845000Y339362D01*
Y291962D02*
X831000D01*
X845000D02*
Y310662D01*
Y281962D02*
X831000D01*
X845000Y339362D02*
Y370662D01*
Y310662D02*
Y329362D01*
Y250662D02*
Y281962D01*
Y447500D02*
X665000D01*
X845000Y370662D02*
Y447500D01*
Y192500D02*
Y250662D01*
X665000Y192500D02*
X665000Y447500D01*
X826000Y729362D02*
G03*
X831000Y724362I5000J0D01*
G01*
Y734362D02*
G03*
X826000Y729362I0J-5000D01*
G01*
X831000Y686962D02*
G03*
X826000Y681962I0J-5000D01*
G01*
D02*
G03*
X831000Y676962I5000J0D01*
G01*
X665000Y587500D02*
G03*
X845000Y587500I90000J0D01*
G01*
Y724362D02*
X831000D01*
Y734362D02*
X845000Y734362D01*
Y686962D02*
X831000D01*
X845000D02*
Y705662D01*
Y676962D02*
X831000D01*
X845000Y734362D02*
Y765662D01*
Y705662D02*
Y724362D01*
Y645662D02*
Y676962D01*
Y842500D02*
X665000D01*
X845000Y765662D02*
Y842500D01*
Y587500D02*
Y645662D01*
X665000Y587500D02*
X665000Y842500D01*
X826000Y1124362D02*
G03*
X831000Y1119362I5000J0D01*
G01*
Y1129362D02*
G03*
X826000Y1124362I0J-5000D01*
G01*
X831000Y1081962D02*
G03*
X826000Y1076962I0J-5000D01*
G01*
D02*
G03*
X831000Y1071962I5000J0D01*
G01*
X665000Y982500D02*
G03*
X845000Y982500I90000J0D01*
G01*
Y1119362D02*
X831000D01*
Y1129362D02*
X845000Y1129362D01*
Y1081962D02*
X831000D01*
X845000D02*
Y1100662D01*
Y1071962D02*
X831000D01*
X845000Y1129362D02*
Y1160662D01*
Y1100662D02*
Y1119362D01*
Y1040662D02*
Y1071962D01*
Y1237500D02*
X665000D01*
X845000Y1160662D02*
Y1237500D01*
Y982500D02*
Y1040662D01*
X665000Y982500D02*
X665000Y1237500D01*
X543250Y334362D02*
G03*
X548250Y329362I5000J0D01*
G01*
Y339362D02*
G03*
X543250Y334362I0J-5000D01*
G01*
X548250Y291962D02*
G03*
X543250Y286962I0J-5000D01*
G01*
D02*
G03*
X548250Y281962I5000J0D01*
G01*
X382250Y192500D02*
G03*
X562250Y192500I90000J0D01*
G01*
Y329362D02*
X548250D01*
Y339362D02*
X562250Y339362D01*
Y291962D02*
X548250D01*
X562250D02*
Y310662D01*
Y281962D02*
X548250D01*
X562250Y339362D02*
Y370662D01*
Y310662D02*
Y329362D01*
Y250662D02*
Y281962D01*
Y447500D02*
X382250D01*
X562250Y370662D02*
Y447500D01*
Y192500D02*
Y250662D01*
X382250Y192500D02*
X382250Y447500D01*
X543250Y729362D02*
G03*
X548250Y724362I5000J0D01*
G01*
Y734362D02*
G03*
X543250Y729362I0J-5000D01*
G01*
X548250Y686962D02*
G03*
X543250Y681962I0J-5000D01*
G01*
D02*
G03*
X548250Y676962I5000J0D01*
G01*
X382250Y587500D02*
G03*
X562250Y587500I90000J0D01*
G01*
Y724362D02*
X548250D01*
Y734362D02*
X562250Y734362D01*
Y686962D02*
X548250D01*
X562250D02*
Y705662D01*
Y676962D02*
X548250D01*
X562250Y734362D02*
Y765662D01*
Y705662D02*
Y724362D01*
Y645662D02*
Y676962D01*
Y842500D02*
X382250D01*
X562250Y765662D02*
Y842500D01*
Y587500D02*
Y645662D01*
X382250Y587500D02*
X382250Y842500D01*
X543250Y1124362D02*
G03*
X548250Y1119362I5000J0D01*
G01*
Y1129362D02*
G03*
X543250Y1124362I0J-5000D01*
G01*
X548250Y1081962D02*
G03*
X543250Y1076962I0J-5000D01*
G01*
D02*
G03*
X548250Y1071962I5000J0D01*
G01*
X382250Y982500D02*
G03*
X562250Y982500I90000J0D01*
G01*
Y1119362D02*
X548250D01*
Y1129362D02*
X562250Y1129362D01*
Y1081962D02*
X548250D01*
X562250D02*
Y1100662D01*
Y1071962D02*
X548250D01*
X562250Y1129362D02*
Y1160662D01*
Y1100662D02*
Y1119362D01*
Y1040662D02*
Y1071962D01*
Y1237500D02*
X382250D01*
X562250Y1160662D02*
Y1237500D01*
Y982500D02*
Y1040662D01*
X382250Y982500D02*
X382250Y1237500D01*
X260500Y334362D02*
G03*
X265500Y329362I5000J0D01*
G01*
Y339362D02*
G03*
X260500Y334362I0J-5000D01*
G01*
X265500Y291962D02*
G03*
X260500Y286962I0J-5000D01*
G01*
D02*
G03*
X265500Y281962I5000J0D01*
G01*
X99500Y192500D02*
G03*
X279500Y192500I90000J0D01*
G01*
Y329362D02*
X265500D01*
Y339362D02*
X279500Y339362D01*
Y291962D02*
X265500D01*
X279500D02*
Y310662D01*
Y281962D02*
X265500D01*
X279500Y339362D02*
Y370662D01*
Y310662D02*
Y329362D01*
Y250662D02*
Y281962D01*
Y447500D02*
X99500D01*
X279500Y370662D02*
Y447500D01*
Y192500D02*
Y250662D01*
X99500Y192500D02*
X99500Y447500D01*
X260500Y729362D02*
G03*
X265500Y724362I5000J0D01*
G01*
Y734362D02*
G03*
X260500Y729362I0J-5000D01*
G01*
X265500Y686962D02*
G03*
X260500Y681962I0J-5000D01*
G01*
D02*
G03*
X265500Y676962I5000J0D01*
G01*
X99500Y587500D02*
G03*
X279500Y587500I90000J0D01*
G01*
Y724362D02*
X265500D01*
Y734362D02*
X279500Y734362D01*
Y686962D02*
X265500D01*
X279500D02*
Y705662D01*
Y676962D02*
X265500D01*
X279500Y734362D02*
Y765662D01*
Y705662D02*
Y724362D01*
Y645662D02*
Y676962D01*
Y842500D02*
X99500D01*
X279500Y765662D02*
Y842500D01*
Y587500D02*
Y645662D01*
X99500Y587500D02*
X99500Y842500D01*
X260500Y1124362D02*
G03*
X265500Y1119362I5000J0D01*
G01*
Y1129362D02*
G03*
X260500Y1124362I0J-5000D01*
G01*
X265500Y1081962D02*
G03*
X260500Y1076962I0J-5000D01*
G01*
D02*
G03*
X265500Y1071962I5000J0D01*
G01*
X99500Y982500D02*
G03*
X279500Y982500I90000J0D01*
G01*
Y1119362D02*
X265500D01*
Y1129362D02*
X279500Y1129362D01*
Y1081962D02*
X265500D01*
X279500D02*
Y1100662D01*
Y1071962D02*
X265500D01*
X279500Y1129362D02*
Y1160662D01*
Y1100662D02*
Y1119362D01*
Y1040662D02*
Y1071962D01*
Y1237500D02*
X99500D01*
X279500Y1160662D02*
Y1237500D01*
Y982500D02*
Y1040662D01*
X99500Y982500D02*
X99500Y1237500D01*
X118500Y2140638D02*
G03*
X113500Y2145638I-5000J0D01*
G01*
Y2135638D02*
G03*
X118500Y2140638I0J5000D01*
G01*
X113500Y2183038D02*
G03*
X118500Y2188038I0J5000D01*
G01*
D02*
G03*
X113500Y2193038I-5000J0D01*
G01*
X279500Y2282500D02*
G03*
X99500Y2282500I-90000J0D01*
G01*
Y2145638D02*
X113500D01*
Y2135638D02*
X99500Y2135638D01*
Y2183038D02*
X113500D01*
X99500D02*
Y2164338D01*
Y2193038D02*
X113500D01*
X99500Y2135638D02*
Y2104338D01*
Y2164338D02*
Y2145638D01*
Y2224338D02*
Y2193038D01*
Y2027500D02*
X279500D01*
X99500Y2104338D02*
Y2027500D01*
Y2282500D02*
Y2224338D01*
X279500Y2282500D02*
X279500Y2027500D01*
X118500Y1745638D02*
G03*
X113500Y1750638I-5000J0D01*
G01*
Y1740638D02*
G03*
X118500Y1745638I0J5000D01*
G01*
X113500Y1788038D02*
G03*
X118500Y1793038I0J5000D01*
G01*
D02*
G03*
X113500Y1798038I-5000J0D01*
G01*
X279500Y1887500D02*
G03*
X99500Y1887500I-90000J0D01*
G01*
Y1750638D02*
X113500D01*
Y1740638D02*
X99500Y1740638D01*
Y1788038D02*
X113500D01*
X99500D02*
Y1769338D01*
Y1798038D02*
X113500D01*
X99500Y1740638D02*
Y1709338D01*
Y1769338D02*
Y1750638D01*
Y1829338D02*
Y1798038D01*
Y1632500D02*
X279500D01*
X99500Y1709338D02*
Y1632500D01*
Y1887500D02*
Y1829338D01*
X279500Y1887500D02*
X279500Y1632500D01*
X118500Y1350638D02*
G03*
X113500Y1355638I-5000J0D01*
G01*
Y1345638D02*
G03*
X118500Y1350638I0J5000D01*
G01*
X113500Y1393038D02*
G03*
X118500Y1398038I0J5000D01*
G01*
D02*
G03*
X113500Y1403038I-5000J0D01*
G01*
X279500Y1492500D02*
G03*
X99500Y1492500I-90000J0D01*
G01*
Y1355638D02*
X113500D01*
Y1345638D02*
X99500Y1345638D01*
Y1393038D02*
X113500D01*
X99500D02*
Y1374338D01*
Y1403038D02*
X113500D01*
X99500Y1345638D02*
Y1314338D01*
Y1374338D02*
Y1355638D01*
Y1434338D02*
Y1403038D01*
Y1237500D02*
X279500D01*
X99500Y1314338D02*
Y1237500D01*
Y1492500D02*
Y1434338D01*
X279500Y1492500D02*
X279500Y1237500D01*
X401250Y2140638D02*
G03*
X396250Y2145638I-5000J0D01*
G01*
Y2135638D02*
G03*
X401250Y2140638I0J5000D01*
G01*
X396250Y2183038D02*
G03*
X401250Y2188038I0J5000D01*
G01*
D02*
G03*
X396250Y2193038I-5000J0D01*
G01*
X562250Y2282500D02*
G03*
X382250Y2282500I-90000J0D01*
G01*
Y2145638D02*
X396250D01*
Y2135638D02*
X382250Y2135638D01*
Y2183038D02*
X396250D01*
X382250D02*
Y2164338D01*
Y2193038D02*
X396250D01*
X382250Y2135638D02*
Y2104338D01*
Y2164338D02*
Y2145638D01*
Y2224338D02*
Y2193038D01*
Y2027500D02*
X562250D01*
X382250Y2104338D02*
Y2027500D01*
Y2282500D02*
Y2224338D01*
X562250Y2282500D02*
X562250Y2027500D01*
X401250Y1745638D02*
G03*
X396250Y1750638I-5000J0D01*
G01*
Y1740638D02*
G03*
X401250Y1745638I0J5000D01*
G01*
X396250Y1788038D02*
G03*
X401250Y1793038I0J5000D01*
G01*
D02*
G03*
X396250Y1798038I-5000J0D01*
G01*
X562250Y1887500D02*
G03*
X382250Y1887500I-90000J0D01*
G01*
Y1750638D02*
X396250D01*
Y1740638D02*
X382250Y1740638D01*
Y1788038D02*
X396250D01*
X382250D02*
Y1769338D01*
Y1798038D02*
X396250D01*
X382250Y1740638D02*
Y1709338D01*
Y1769338D02*
Y1750638D01*
Y1829338D02*
Y1798038D01*
Y1632500D02*
X562250D01*
X382250Y1709338D02*
Y1632500D01*
Y1887500D02*
Y1829338D01*
X562250Y1887500D02*
X562250Y1632500D01*
X401250Y1350638D02*
G03*
X396250Y1355638I-5000J0D01*
G01*
Y1345638D02*
G03*
X401250Y1350638I0J5000D01*
G01*
X396250Y1393038D02*
G03*
X401250Y1398038I0J5000D01*
G01*
D02*
G03*
X396250Y1403038I-5000J0D01*
G01*
X562250Y1492500D02*
G03*
X382250Y1492500I-90000J0D01*
G01*
Y1355638D02*
X396250D01*
Y1345638D02*
X382250Y1345638D01*
Y1393038D02*
X396250D01*
X382250D02*
Y1374338D01*
Y1403038D02*
X396250D01*
X382250Y1345638D02*
Y1314338D01*
Y1374338D02*
Y1355638D01*
Y1434338D02*
Y1403038D01*
Y1237500D02*
X562250D01*
X382250Y1314338D02*
Y1237500D01*
Y1492500D02*
Y1434338D01*
X562250Y1492500D02*
X562250Y1237500D01*
X684000Y2140638D02*
G03*
X679000Y2145638I-5000J0D01*
G01*
Y2135638D02*
G03*
X684000Y2140638I0J5000D01*
G01*
X679000Y2183038D02*
G03*
X684000Y2188038I0J5000D01*
G01*
D02*
G03*
X679000Y2193038I-5000J0D01*
G01*
X845000Y2282500D02*
G03*
X665000Y2282500I-90000J0D01*
G01*
Y2145638D02*
X679000D01*
Y2135638D02*
X665000Y2135638D01*
Y2183038D02*
X679000D01*
X665000D02*
Y2164338D01*
Y2193038D02*
X679000D01*
X665000Y2135638D02*
Y2104338D01*
Y2164338D02*
Y2145638D01*
Y2224338D02*
Y2193038D01*
Y2027500D02*
X845000D01*
X665000Y2104338D02*
Y2027500D01*
Y2282500D02*
Y2224338D01*
X845000Y2282500D02*
X845000Y2027500D01*
X684000Y1745638D02*
G03*
X679000Y1750638I-5000J0D01*
G01*
Y1740638D02*
G03*
X684000Y1745638I0J5000D01*
G01*
X679000Y1788038D02*
G03*
X684000Y1793038I0J5000D01*
G01*
D02*
G03*
X679000Y1798038I-5000J0D01*
G01*
X845000Y1887500D02*
G03*
X665000Y1887500I-90000J0D01*
G01*
Y1750638D02*
X679000D01*
Y1740638D02*
X665000Y1740638D01*
Y1788038D02*
X679000D01*
X665000D02*
Y1769338D01*
Y1798038D02*
X679000D01*
X665000Y1740638D02*
Y1709338D01*
Y1769338D02*
Y1750638D01*
Y1829338D02*
Y1798038D01*
Y1632500D02*
X845000D01*
X665000Y1709338D02*
Y1632500D01*
Y1887500D02*
Y1829338D01*
X845000Y1887500D02*
X845000Y1632500D01*
X684000Y1350638D02*
G03*
X679000Y1355638I-5000J0D01*
G01*
Y1345638D02*
G03*
X684000Y1350638I0J5000D01*
G01*
X679000Y1393038D02*
G03*
X684000Y1398038I0J5000D01*
G01*
D02*
G03*
X679000Y1403038I-5000J0D01*
G01*
X845000Y1492500D02*
G03*
X665000Y1492500I-90000J0D01*
G01*
Y1355638D02*
X679000D01*
Y1345638D02*
X665000Y1345638D01*
Y1393038D02*
X679000D01*
X665000D02*
Y1374338D01*
Y1403038D02*
X679000D01*
X665000Y1345638D02*
Y1314338D01*
Y1374338D02*
Y1355638D01*
Y1434338D02*
Y1403038D01*
Y1237500D02*
X845000D01*
X665000Y1314338D02*
Y1237500D01*
Y1492500D02*
Y1434338D01*
X845000Y1492500D02*
X845000Y1237500D01*
X966750Y2140638D02*
G03*
X961750Y2145638I-5000J0D01*
G01*
Y2135638D02*
G03*
X966750Y2140638I0J5000D01*
G01*
X961750Y2183038D02*
G03*
X966750Y2188038I0J5000D01*
G01*
D02*
G03*
X961750Y2193038I-5000J0D01*
G01*
X1127750Y2282500D02*
G03*
X947750Y2282500I-90000J0D01*
G01*
Y2145638D02*
X961750D01*
Y2135638D02*
X947750Y2135638D01*
Y2183038D02*
X961750D01*
X947750D02*
Y2164338D01*
Y2193038D02*
X961750D01*
X947750Y2135638D02*
Y2104338D01*
Y2164338D02*
Y2145638D01*
Y2224338D02*
Y2193038D01*
Y2027500D02*
X1127750D01*
X947750Y2104338D02*
Y2027500D01*
Y2282500D02*
Y2224338D01*
X1127750Y2282500D02*
X1127750Y2027500D01*
X966750Y1745638D02*
G03*
X961750Y1750638I-5000J0D01*
G01*
Y1740638D02*
G03*
X966750Y1745638I0J5000D01*
G01*
X961750Y1788038D02*
G03*
X966750Y1793038I0J5000D01*
G01*
D02*
G03*
X961750Y1798038I-5000J0D01*
G01*
X1127750Y1887500D02*
G03*
X947750Y1887500I-90000J0D01*
G01*
Y1750638D02*
X961750D01*
Y1740638D02*
X947750Y1740638D01*
Y1788038D02*
X961750D01*
X947750D02*
Y1769338D01*
Y1798038D02*
X961750D01*
X947750Y1740638D02*
Y1709338D01*
Y1769338D02*
Y1750638D01*
Y1829338D02*
Y1798038D01*
Y1632500D02*
X1127750D01*
X947750Y1709338D02*
Y1632500D01*
Y1887500D02*
Y1829338D01*
X1127750Y1887500D02*
X1127750Y1632500D01*
X966750Y1350638D02*
G03*
X961750Y1355638I-5000J0D01*
G01*
Y1345638D02*
G03*
X966750Y1350638I0J5000D01*
G01*
X961750Y1393038D02*
G03*
X966750Y1398038I0J5000D01*
G01*
D02*
G03*
X961750Y1403038I-5000J0D01*
G01*
X1127750Y1492500D02*
G03*
X947750Y1492500I-90000J0D01*
G01*
Y1355638D02*
X961750D01*
Y1345638D02*
X947750Y1345638D01*
Y1393038D02*
X961750D01*
X947750D02*
Y1374338D01*
Y1403038D02*
X961750D01*
X947750Y1345638D02*
Y1314338D01*
Y1374338D02*
Y1355638D01*
Y1434338D02*
Y1403038D01*
Y1237500D02*
X1127750D01*
X947750Y1314338D02*
Y1237500D01*
Y1492500D02*
Y1434338D01*
X1127750Y1492500D02*
X1127750Y1237500D01*
X1249500Y2140638D02*
G03*
X1244500Y2145638I-5000J0D01*
G01*
Y2135638D02*
G03*
X1249500Y2140638I0J5000D01*
G01*
X1244500Y2183038D02*
G03*
X1249500Y2188038I0J5000D01*
G01*
D02*
G03*
X1244500Y2193038I-5000J0D01*
G01*
X1410500Y2282500D02*
G03*
X1230500Y2282500I-90000J0D01*
G01*
Y2145638D02*
X1244500D01*
Y2135638D02*
X1230500Y2135638D01*
Y2183038D02*
X1244500D01*
X1230500D02*
Y2164338D01*
Y2193038D02*
X1244500D01*
X1230500Y2135638D02*
Y2104338D01*
Y2164338D02*
Y2145638D01*
Y2224338D02*
Y2193038D01*
Y2027500D02*
X1410500D01*
X1230500Y2104338D02*
Y2027500D01*
Y2282500D02*
Y2224338D01*
X1410500Y2282500D02*
X1410500Y2027500D01*
X1249500Y1745638D02*
G03*
X1244500Y1750638I-5000J0D01*
G01*
Y1740638D02*
G03*
X1249500Y1745638I0J5000D01*
G01*
X1244500Y1788038D02*
G03*
X1249500Y1793038I0J5000D01*
G01*
D02*
G03*
X1244500Y1798038I-5000J0D01*
G01*
X1410500Y1887500D02*
G03*
X1230500Y1887500I-90000J0D01*
G01*
Y1750638D02*
X1244500D01*
Y1740638D02*
X1230500Y1740638D01*
Y1788038D02*
X1244500D01*
X1230500D02*
Y1769338D01*
Y1798038D02*
X1244500D01*
X1230500Y1740638D02*
Y1709338D01*
Y1769338D02*
Y1750638D01*
Y1829338D02*
Y1798038D01*
Y1632500D02*
X1410500D01*
X1230500Y1709338D02*
Y1632500D01*
Y1887500D02*
Y1829338D01*
X1410500Y1887500D02*
X1410500Y1632500D01*
X1249500Y1350638D02*
G03*
X1244500Y1355638I-5000J0D01*
G01*
Y1345638D02*
G03*
X1249500Y1350638I0J5000D01*
G01*
X1244500Y1393038D02*
G03*
X1249500Y1398038I0J5000D01*
G01*
D02*
G03*
X1244500Y1403038I-5000J0D01*
G01*
X1410500Y1492500D02*
G03*
X1230500Y1492500I-90000J0D01*
G01*
Y1355638D02*
X1244500D01*
Y1345638D02*
X1230500Y1345638D01*
Y1393038D02*
X1244500D01*
X1230500D02*
Y1374338D01*
Y1403038D02*
X1244500D01*
X1230500Y1345638D02*
Y1314338D01*
Y1374338D02*
Y1355638D01*
Y1434338D02*
Y1403038D01*
Y1237500D02*
X1410500D01*
X1230500Y1314338D02*
Y1237500D01*
Y1492500D02*
Y1434338D01*
X1410500Y1492500D02*
X1410500Y1237500D01*
M02*
