G04*
G04 #@! TF.GenerationSoftware,Altium Limited,Altium Designer,23.6.0 (18)*
G04*
G04 Layer_Color=8388736*
%FSLAX44Y44*%
%MOMM*%
G71*
G04*
G04 #@! TF.SameCoordinates,542A25E6-394C-4203-B619-F464005C6F94*
G04*
G04*
G04 #@! TF.FilePolarity,Positive*
G04*
G01*
G75*
%ADD42C,0.2540*%
%ADD114C,0.3810*%
%ADD115C,0.0254*%
D42*
X19685Y3303000D02*
Y3287765D01*
X29842D01*
X37459Y3297922D02*
X42538D01*
X45077Y3295382D01*
Y3287765D01*
X37459D01*
X34920Y3290304D01*
X37459Y3292843D01*
X45077D01*
X50155Y3297922D02*
Y3290304D01*
X52694Y3287765D01*
X60312D01*
Y3285226D01*
X57773Y3282687D01*
X55233D01*
X60312Y3287765D02*
Y3297922D01*
X73008Y3287765D02*
X67929D01*
X65390Y3290304D01*
Y3295382D01*
X67929Y3297922D01*
X73008D01*
X75547Y3295382D01*
Y3292843D01*
X65390D01*
X80625Y3297922D02*
Y3287765D01*
Y3292843D01*
X83165Y3295382D01*
X85704Y3297922D01*
X88243D01*
X27302Y2952485D02*
Y2967720D01*
X19685Y2960103D01*
X29842D01*
X19685Y3056621D02*
X22224Y3059160D01*
X27302D01*
X29842Y3056621D01*
Y3054082D01*
X27302Y3051542D01*
X24763D01*
X27302D01*
X29842Y3049003D01*
Y3046464D01*
X27302Y3043925D01*
X22224D01*
X19685Y3046464D01*
X29842Y3104885D02*
X19685D01*
X29842Y3115042D01*
Y3117581D01*
X27302Y3120120D01*
X22224D01*
X19685Y3117581D01*
Y3196325D02*
X24763D01*
X22224D01*
Y3211560D01*
X19685Y3209021D01*
X123803Y3287765D02*
Y3303000D01*
X133960Y3287765D01*
Y3303000D01*
X141577Y3297922D02*
X146655D01*
X149195Y3295382D01*
Y3287765D01*
X141577D01*
X139038Y3290304D01*
X141577Y3292843D01*
X149195D01*
X154273Y3287765D02*
Y3297922D01*
X156812D01*
X159351Y3295382D01*
Y3287765D01*
Y3295382D01*
X161891Y3297922D01*
X164430Y3295382D01*
Y3287765D01*
X177126D02*
X172047D01*
X169508Y3290304D01*
Y3295382D01*
X172047Y3297922D01*
X177126D01*
X179665Y3295382D01*
Y3292843D01*
X169508D01*
X123803Y2906760D02*
Y2891525D01*
X131420D01*
X133960Y2894064D01*
Y2896603D01*
X131420Y2899142D01*
X123803D01*
X131420D01*
X133960Y2901682D01*
Y2904221D01*
X131420Y2906760D01*
X123803D01*
X141577Y2891525D02*
X146655D01*
X149195Y2894064D01*
Y2899142D01*
X146655Y2901682D01*
X141577D01*
X139038Y2899142D01*
Y2894064D01*
X141577Y2891525D01*
X156812Y2904221D02*
Y2901682D01*
X154273D01*
X159351D01*
X156812D01*
Y2894064D01*
X159351Y2891525D01*
X169508Y2904221D02*
Y2901682D01*
X166969D01*
X172047D01*
X169508D01*
Y2894064D01*
X172047Y2891525D01*
X182204D02*
X187282D01*
X189821Y2894064D01*
Y2899142D01*
X187282Y2901682D01*
X182204D01*
X179665Y2899142D01*
Y2894064D01*
X182204Y2891525D01*
X194900D02*
Y2901682D01*
X197439D01*
X199978Y2899142D01*
Y2891525D01*
Y2899142D01*
X202517Y2901682D01*
X205056Y2899142D01*
Y2891525D01*
X232987Y2906760D02*
X227909D01*
X225370Y2904221D01*
Y2894064D01*
X227909Y2891525D01*
X232987D01*
X235527Y2894064D01*
Y2904221D01*
X232987Y2906760D01*
X240605Y2901682D02*
X245683Y2891525D01*
X250762Y2901682D01*
X263458Y2891525D02*
X258379D01*
X255840Y2894064D01*
Y2899142D01*
X258379Y2901682D01*
X263458D01*
X265997Y2899142D01*
Y2896603D01*
X255840D01*
X271075Y2901682D02*
Y2891525D01*
Y2896603D01*
X273614Y2899142D01*
X276154Y2901682D01*
X278693D01*
X286310Y2891525D02*
X291389D01*
X288849D01*
Y2906760D01*
X286310D01*
X301545Y2901682D02*
X306624D01*
X309163Y2899142D01*
Y2891525D01*
X301545D01*
X299006Y2894064D01*
X301545Y2896603D01*
X309163D01*
X314241Y2901682D02*
Y2894064D01*
X316780Y2891525D01*
X324398D01*
Y2888986D01*
X321859Y2886447D01*
X319320D01*
X324398Y2891525D02*
Y2901682D01*
X123803Y2937240D02*
Y2922005D01*
X131420D01*
X133960Y2924544D01*
Y2927083D01*
X131420Y2929622D01*
X123803D01*
X131420D01*
X133960Y2932162D01*
Y2934701D01*
X131420Y2937240D01*
X123803D01*
X141577Y2922005D02*
X146655D01*
X149195Y2924544D01*
Y2929622D01*
X146655Y2932162D01*
X141577D01*
X139038Y2929622D01*
Y2924544D01*
X141577Y2922005D01*
X156812Y2934701D02*
Y2932162D01*
X154273D01*
X159351D01*
X156812D01*
Y2924544D01*
X159351Y2922005D01*
X169508Y2934701D02*
Y2932162D01*
X166969D01*
X172047D01*
X169508D01*
Y2924544D01*
X172047Y2922005D01*
X182204D02*
X187282D01*
X189821Y2924544D01*
Y2929622D01*
X187282Y2932162D01*
X182204D01*
X179665Y2929622D01*
Y2924544D01*
X182204Y2922005D01*
X194900D02*
Y2932162D01*
X197439D01*
X199978Y2929622D01*
Y2922005D01*
Y2929622D01*
X202517Y2932162D01*
X205056Y2929622D01*
Y2922005D01*
X235527Y2934701D02*
X232987Y2937240D01*
X227909D01*
X225370Y2934701D01*
Y2932162D01*
X227909Y2929622D01*
X232987D01*
X235527Y2927083D01*
Y2924544D01*
X232987Y2922005D01*
X227909D01*
X225370Y2924544D01*
X243144Y2922005D02*
X248223D01*
X250762Y2924544D01*
Y2929622D01*
X248223Y2932162D01*
X243144D01*
X240605Y2929622D01*
Y2924544D01*
X243144Y2922005D01*
X255840D02*
X260919D01*
X258379D01*
Y2937240D01*
X255840D01*
X278693D02*
Y2922005D01*
X271075D01*
X268536Y2924544D01*
Y2929622D01*
X271075Y2932162D01*
X278693D01*
X291389Y2922005D02*
X286310D01*
X283771Y2924544D01*
Y2929622D01*
X286310Y2932162D01*
X291389D01*
X293928Y2929622D01*
Y2927083D01*
X283771D01*
X299006Y2932162D02*
Y2922005D01*
Y2927083D01*
X301545Y2929622D01*
X304084Y2932162D01*
X306624D01*
X123803Y2967720D02*
Y2952485D01*
X131420D01*
X133960Y2955024D01*
Y2957563D01*
X131420Y2960103D01*
X123803D01*
X131420D01*
X133960Y2962642D01*
Y2965181D01*
X131420Y2967720D01*
X123803D01*
X141577Y2952485D02*
X146655D01*
X149195Y2955024D01*
Y2960103D01*
X146655Y2962642D01*
X141577D01*
X139038Y2960103D01*
Y2955024D01*
X141577Y2952485D01*
X156812Y2965181D02*
Y2962642D01*
X154273D01*
X159351D01*
X156812D01*
Y2955024D01*
X159351Y2952485D01*
X169508Y2965181D02*
Y2962642D01*
X166969D01*
X172047D01*
X169508D01*
Y2955024D01*
X172047Y2952485D01*
X182204D02*
X187282D01*
X189821Y2955024D01*
Y2960103D01*
X187282Y2962642D01*
X182204D01*
X179665Y2960103D01*
Y2955024D01*
X182204Y2952485D01*
X194900D02*
Y2962642D01*
X197439D01*
X199978Y2960103D01*
Y2952485D01*
Y2960103D01*
X202517Y2962642D01*
X205056Y2960103D01*
Y2952485D01*
X225370Y2967720D02*
Y2952485D01*
X235527D01*
X243144Y2962642D02*
X248223D01*
X250762Y2960103D01*
Y2952485D01*
X243144D01*
X240605Y2955024D01*
X243144Y2957563D01*
X250762D01*
X255840Y2962642D02*
Y2955024D01*
X258379Y2952485D01*
X265997D01*
Y2949946D01*
X263458Y2947407D01*
X260919D01*
X265997Y2952485D02*
Y2962642D01*
X278693Y2952485D02*
X273614D01*
X271075Y2955024D01*
Y2960103D01*
X273614Y2962642D01*
X278693D01*
X281232Y2960103D01*
Y2957563D01*
X271075D01*
X286310Y2962642D02*
Y2952485D01*
Y2957563D01*
X288849Y2960103D01*
X291389Y2962642D01*
X293928D01*
X123803Y2998200D02*
Y2982965D01*
X131420D01*
X133960Y2985504D01*
Y2995661D01*
X131420Y2998200D01*
X123803D01*
X139038Y2982965D02*
X144116D01*
X141577D01*
Y2993122D01*
X139038D01*
X159351Y2982965D02*
X154273D01*
X151734Y2985504D01*
Y2990583D01*
X154273Y2993122D01*
X159351D01*
X161891Y2990583D01*
Y2988044D01*
X151734D01*
X166969Y2982965D02*
X172047D01*
X169508D01*
Y2998200D01*
X166969D01*
X187282Y2982965D02*
X182204D01*
X179665Y2985504D01*
Y2990583D01*
X182204Y2993122D01*
X187282D01*
X189821Y2990583D01*
Y2988044D01*
X179665D01*
X205056Y2993122D02*
X197439D01*
X194900Y2990583D01*
Y2985504D01*
X197439Y2982965D01*
X205056D01*
X212674Y2995661D02*
Y2993122D01*
X210135D01*
X215213D01*
X212674D01*
Y2985504D01*
X215213Y2982965D01*
X222831Y2993122D02*
Y2982965D01*
Y2988044D01*
X225370Y2990583D01*
X227909Y2993122D01*
X230448D01*
X238066Y2982965D02*
X243144D01*
X240605D01*
Y2993122D01*
X238066D01*
X260919D02*
X253301D01*
X250762Y2990583D01*
Y2985504D01*
X253301Y2982965D01*
X260919D01*
X291389Y2998200D02*
X281232D01*
Y2990583D01*
X286310Y2993122D01*
X288849D01*
X291389Y2990583D01*
Y2985504D01*
X288849Y2982965D01*
X283771D01*
X281232Y2985504D01*
X123803Y3028680D02*
Y3013445D01*
X131420D01*
X133960Y3015984D01*
Y3026141D01*
X131420Y3028680D01*
X123803D01*
X139038Y3013445D02*
X144116D01*
X141577D01*
Y3023602D01*
X139038D01*
X159351Y3013445D02*
X154273D01*
X151734Y3015984D01*
Y3021063D01*
X154273Y3023602D01*
X159351D01*
X161891Y3021063D01*
Y3018523D01*
X151734D01*
X166969Y3013445D02*
X172047D01*
X169508D01*
Y3028680D01*
X166969D01*
X187282Y3013445D02*
X182204D01*
X179665Y3015984D01*
Y3021063D01*
X182204Y3023602D01*
X187282D01*
X189821Y3021063D01*
Y3018523D01*
X179665D01*
X205056Y3023602D02*
X197439D01*
X194900Y3021063D01*
Y3015984D01*
X197439Y3013445D01*
X205056D01*
X212674Y3026141D02*
Y3023602D01*
X210135D01*
X215213D01*
X212674D01*
Y3015984D01*
X215213Y3013445D01*
X222831Y3023602D02*
Y3013445D01*
Y3018523D01*
X225370Y3021063D01*
X227909Y3023602D01*
X230448D01*
X238066Y3013445D02*
X243144D01*
X240605D01*
Y3023602D01*
X238066D01*
X260919D02*
X253301D01*
X250762Y3021063D01*
Y3015984D01*
X253301Y3013445D01*
X260919D01*
X288849D02*
Y3028680D01*
X281232Y3021063D01*
X291389D01*
X123803Y3059160D02*
Y3043925D01*
X133960D01*
X139038Y3056621D02*
X141577Y3059160D01*
X146655D01*
X149195Y3056621D01*
Y3054082D01*
X146655Y3051542D01*
X144116D01*
X146655D01*
X149195Y3049003D01*
Y3046464D01*
X146655Y3043925D01*
X141577D01*
X139038Y3046464D01*
X123803Y3089640D02*
Y3074405D01*
X131420D01*
X133960Y3076944D01*
Y3087101D01*
X131420Y3089640D01*
X123803D01*
X139038Y3074405D02*
X144116D01*
X141577D01*
Y3084562D01*
X139038D01*
X159351Y3074405D02*
X154273D01*
X151734Y3076944D01*
Y3082022D01*
X154273Y3084562D01*
X159351D01*
X161891Y3082022D01*
Y3079483D01*
X151734D01*
X166969Y3074405D02*
X172047D01*
X169508D01*
Y3089640D01*
X166969D01*
X187282Y3074405D02*
X182204D01*
X179665Y3076944D01*
Y3082022D01*
X182204Y3084562D01*
X187282D01*
X189821Y3082022D01*
Y3079483D01*
X179665D01*
X205056Y3084562D02*
X197439D01*
X194900Y3082022D01*
Y3076944D01*
X197439Y3074405D01*
X205056D01*
X212674Y3087101D02*
Y3084562D01*
X210135D01*
X215213D01*
X212674D01*
Y3076944D01*
X215213Y3074405D01*
X222831Y3084562D02*
Y3074405D01*
Y3079483D01*
X225370Y3082022D01*
X227909Y3084562D01*
X230448D01*
X238066Y3074405D02*
X243144D01*
X240605D01*
Y3084562D01*
X238066D01*
X260919D02*
X253301D01*
X250762Y3082022D01*
Y3076944D01*
X253301Y3074405D01*
X260919D01*
X281232Y3087101D02*
X283771Y3089640D01*
X288849D01*
X291389Y3087101D01*
Y3084562D01*
X288849Y3082022D01*
X286310D01*
X288849D01*
X291389Y3079483D01*
Y3076944D01*
X288849Y3074405D01*
X283771D01*
X281232Y3076944D01*
X123803Y3120120D02*
Y3104885D01*
X133960D01*
X149195D02*
X139038D01*
X149195Y3115042D01*
Y3117581D01*
X146655Y3120120D01*
X141577D01*
X139038Y3117581D01*
X123803Y3150600D02*
Y3135365D01*
X131420D01*
X133960Y3137904D01*
Y3148061D01*
X131420Y3150600D01*
X123803D01*
X139038Y3135365D02*
X144116D01*
X141577D01*
Y3145522D01*
X139038D01*
X159351Y3135365D02*
X154273D01*
X151734Y3137904D01*
Y3142982D01*
X154273Y3145522D01*
X159351D01*
X161891Y3142982D01*
Y3140443D01*
X151734D01*
X166969Y3135365D02*
X172047D01*
X169508D01*
Y3150600D01*
X166969D01*
X187282Y3135365D02*
X182204D01*
X179665Y3137904D01*
Y3142982D01*
X182204Y3145522D01*
X187282D01*
X189821Y3142982D01*
Y3140443D01*
X179665D01*
X205056Y3145522D02*
X197439D01*
X194900Y3142982D01*
Y3137904D01*
X197439Y3135365D01*
X205056D01*
X212674Y3148061D02*
Y3145522D01*
X210135D01*
X215213D01*
X212674D01*
Y3137904D01*
X215213Y3135365D01*
X222831Y3145522D02*
Y3135365D01*
Y3140443D01*
X225370Y3142982D01*
X227909Y3145522D01*
X230448D01*
X238066Y3135365D02*
X243144D01*
X240605D01*
Y3145522D01*
X238066D01*
X260919D02*
X253301D01*
X250762Y3142982D01*
Y3137904D01*
X253301Y3135365D01*
X260919D01*
X291389D02*
X281232D01*
X291389Y3145522D01*
Y3148061D01*
X288849Y3150600D01*
X283771D01*
X281232Y3148061D01*
X123803Y3181080D02*
Y3165845D01*
X131420D01*
X133960Y3168384D01*
Y3178541D01*
X131420Y3181080D01*
X123803D01*
X139038Y3165845D02*
X144116D01*
X141577D01*
Y3176002D01*
X139038D01*
X159351Y3165845D02*
X154273D01*
X151734Y3168384D01*
Y3173463D01*
X154273Y3176002D01*
X159351D01*
X161891Y3173463D01*
Y3170923D01*
X151734D01*
X166969Y3165845D02*
X172047D01*
X169508D01*
Y3181080D01*
X166969D01*
X187282Y3165845D02*
X182204D01*
X179665Y3168384D01*
Y3173463D01*
X182204Y3176002D01*
X187282D01*
X189821Y3173463D01*
Y3170923D01*
X179665D01*
X205056Y3176002D02*
X197439D01*
X194900Y3173463D01*
Y3168384D01*
X197439Y3165845D01*
X205056D01*
X212674Y3178541D02*
Y3176002D01*
X210135D01*
X215213D01*
X212674D01*
Y3168384D01*
X215213Y3165845D01*
X222831Y3176002D02*
Y3165845D01*
Y3170923D01*
X225370Y3173463D01*
X227909Y3176002D01*
X230448D01*
X238066Y3165845D02*
X243144D01*
X240605D01*
Y3176002D01*
X238066D01*
X260919D02*
X253301D01*
X250762Y3173463D01*
Y3168384D01*
X253301Y3165845D01*
X260919D01*
X281232D02*
X286310D01*
X283771D01*
Y3181080D01*
X281232Y3178541D01*
X123803Y3211560D02*
X133960D01*
X128881D01*
Y3196325D01*
X141577D02*
X146655D01*
X149195Y3198864D01*
Y3203943D01*
X146655Y3206482D01*
X141577D01*
X139038Y3203943D01*
Y3198864D01*
X141577Y3196325D01*
X154273Y3191247D02*
Y3206482D01*
X161891D01*
X164430Y3203943D01*
Y3198864D01*
X161891Y3196325D01*
X154273D01*
X184743Y3211560D02*
Y3196325D01*
X194900D01*
X202517Y3206482D02*
X207596D01*
X210135Y3203943D01*
Y3196325D01*
X202517D01*
X199978Y3198864D01*
X202517Y3201404D01*
X210135D01*
X215213Y3206482D02*
Y3198864D01*
X217752Y3196325D01*
X225370D01*
Y3193786D01*
X222831Y3191247D01*
X220292D01*
X225370Y3196325D02*
Y3206482D01*
X238066Y3196325D02*
X232987D01*
X230448Y3198864D01*
Y3203943D01*
X232987Y3206482D01*
X238066D01*
X240605Y3203943D01*
Y3201404D01*
X230448D01*
X245683Y3206482D02*
Y3196325D01*
Y3201404D01*
X248223Y3203943D01*
X250762Y3206482D01*
X253301D01*
X123803Y3242040D02*
X133960D01*
X128881D01*
Y3226805D01*
X141577D02*
X146655D01*
X149195Y3229344D01*
Y3234423D01*
X146655Y3236962D01*
X141577D01*
X139038Y3234423D01*
Y3229344D01*
X141577Y3226805D01*
X154273Y3221727D02*
Y3236962D01*
X161891D01*
X164430Y3234423D01*
Y3229344D01*
X161891Y3226805D01*
X154273D01*
X194900Y3239501D02*
X192361Y3242040D01*
X187282D01*
X184743Y3239501D01*
Y3236962D01*
X187282Y3234423D01*
X192361D01*
X194900Y3231884D01*
Y3229344D01*
X192361Y3226805D01*
X187282D01*
X184743Y3229344D01*
X202517Y3226805D02*
X207596D01*
X210135Y3229344D01*
Y3234423D01*
X207596Y3236962D01*
X202517D01*
X199978Y3234423D01*
Y3229344D01*
X202517Y3226805D01*
X215213D02*
X220292D01*
X217752D01*
Y3242040D01*
X215213D01*
X238066D02*
Y3226805D01*
X230448D01*
X227909Y3229344D01*
Y3234423D01*
X230448Y3236962D01*
X238066D01*
X250762Y3226805D02*
X245683D01*
X243144Y3229344D01*
Y3234423D01*
X245683Y3236962D01*
X250762D01*
X253301Y3234423D01*
Y3231884D01*
X243144D01*
X258379Y3236962D02*
Y3226805D01*
Y3231884D01*
X260919Y3234423D01*
X263458Y3236962D01*
X265997D01*
X123803Y3272520D02*
X133960D01*
X128881D01*
Y3257285D01*
X141577D02*
X146655D01*
X149195Y3259824D01*
Y3264903D01*
X146655Y3267442D01*
X141577D01*
X139038Y3264903D01*
Y3259824D01*
X141577Y3257285D01*
X154273Y3252207D02*
Y3267442D01*
X161891D01*
X164430Y3264903D01*
Y3259824D01*
X161891Y3257285D01*
X154273D01*
X192361Y3272520D02*
X187282D01*
X184743Y3269981D01*
Y3259824D01*
X187282Y3257285D01*
X192361D01*
X194900Y3259824D01*
Y3269981D01*
X192361Y3272520D01*
X199978Y3267442D02*
X205056Y3257285D01*
X210135Y3267442D01*
X222831Y3257285D02*
X217752D01*
X215213Y3259824D01*
Y3264903D01*
X217752Y3267442D01*
X222831D01*
X225370Y3264903D01*
Y3262363D01*
X215213D01*
X230448Y3267442D02*
Y3257285D01*
Y3262363D01*
X232987Y3264903D01*
X235527Y3267442D01*
X238066D01*
X245683Y3257285D02*
X250762D01*
X248223D01*
Y3272520D01*
X245683D01*
X260919Y3267442D02*
X265997D01*
X268536Y3264903D01*
Y3257285D01*
X260919D01*
X258379Y3259824D01*
X260919Y3262363D01*
X268536D01*
X273614Y3267442D02*
Y3259824D01*
X276154Y3257285D01*
X283771D01*
Y3254746D01*
X281232Y3252207D01*
X278693D01*
X283771Y3257285D02*
Y3267442D01*
X359958Y3287765D02*
Y3303000D01*
X365036Y3297922D01*
X370115Y3303000D01*
Y3287765D01*
X377732Y3297922D02*
X382811D01*
X385350Y3295382D01*
Y3287765D01*
X377732D01*
X375193Y3290304D01*
X377732Y3292843D01*
X385350D01*
X392967Y3300461D02*
Y3297922D01*
X390428D01*
X395506D01*
X392967D01*
Y3290304D01*
X395506Y3287765D01*
X410742D02*
X405663D01*
X403124Y3290304D01*
Y3295382D01*
X405663Y3297922D01*
X410742D01*
X413281Y3295382D01*
Y3292843D01*
X403124D01*
X418359Y3297922D02*
Y3287765D01*
Y3292843D01*
X420898Y3295382D01*
X423437Y3297922D01*
X425977D01*
X433594Y3287765D02*
X438672D01*
X436133D01*
Y3297922D01*
X433594D01*
X448829D02*
X453908D01*
X456447Y3295382D01*
Y3287765D01*
X448829D01*
X446290Y3290304D01*
X448829Y3292843D01*
X456447D01*
X461525Y3287765D02*
X466603D01*
X464064D01*
Y3303000D01*
X461525D01*
X370115Y2934701D02*
X367575Y2937240D01*
X362497D01*
X359958Y2934701D01*
Y2932162D01*
X362497Y2929622D01*
X367575D01*
X370115Y2927083D01*
Y2924544D01*
X367575Y2922005D01*
X362497D01*
X359958Y2924544D01*
X377732Y2922005D02*
X382811D01*
X385350Y2924544D01*
Y2929622D01*
X382811Y2932162D01*
X377732D01*
X375193Y2929622D01*
Y2924544D01*
X377732Y2922005D01*
X390428D02*
X395506D01*
X392967D01*
Y2937240D01*
X390428D01*
X413281D02*
Y2922005D01*
X405663D01*
X403124Y2924544D01*
Y2929622D01*
X405663Y2932162D01*
X413281D01*
X425977Y2922005D02*
X420898D01*
X418359Y2924544D01*
Y2929622D01*
X420898Y2932162D01*
X425977D01*
X428516Y2929622D01*
Y2927083D01*
X418359D01*
X433594Y2932162D02*
Y2922005D01*
Y2927083D01*
X436133Y2929622D01*
X438672Y2932162D01*
X441212D01*
X464064Y2922005D02*
Y2937240D01*
X471682D01*
X474221Y2934701D01*
Y2929622D01*
X471682Y2927083D01*
X464064D01*
X469143D02*
X474221Y2922005D01*
X486917D02*
X481838D01*
X479299Y2924544D01*
Y2929622D01*
X481838Y2932162D01*
X486917D01*
X489456Y2929622D01*
Y2927083D01*
X479299D01*
X494534Y2922005D02*
X502152D01*
X504691Y2924544D01*
X502152Y2927083D01*
X497074D01*
X494534Y2929622D01*
X497074Y2932162D01*
X504691D01*
X509770Y2922005D02*
X514848D01*
X512309D01*
Y2932162D01*
X509770D01*
X522465Y2922005D02*
X530083D01*
X532622Y2924544D01*
X530083Y2927083D01*
X525005D01*
X522465Y2929622D01*
X525005Y2932162D01*
X532622D01*
X540240Y2934701D02*
Y2932162D01*
X537700D01*
X542779D01*
X540240D01*
Y2924544D01*
X542779Y2922005D01*
X359958Y2982965D02*
Y2998200D01*
X367575D01*
X370115Y2995661D01*
Y2990583D01*
X367575Y2988044D01*
X359958D01*
X375193Y2982965D02*
Y2998200D01*
X382811D01*
X385350Y2995661D01*
Y2990583D01*
X382811Y2988044D01*
X375193D01*
X390428Y2990583D02*
X400585D01*
X405663Y2995661D02*
X408202Y2998200D01*
X413281D01*
X415820Y2995661D01*
Y2985504D01*
X413281Y2982965D01*
X408202D01*
X405663Y2985504D01*
Y2995661D01*
X420898Y2982965D02*
X425977D01*
X423437D01*
Y2998200D01*
X420898Y2995661D01*
X443751Y2998200D02*
X438672Y2995661D01*
X433594Y2990583D01*
Y2985504D01*
X436133Y2982965D01*
X441212D01*
X443751Y2985504D01*
Y2988044D01*
X441212Y2990583D01*
X433594D01*
X359958Y3013445D02*
Y3028680D01*
X367575D01*
X370115Y3026141D01*
Y3021063D01*
X367575Y3018523D01*
X359958D01*
X375193Y3013445D02*
Y3028680D01*
X382811D01*
X385350Y3026141D01*
Y3021063D01*
X382811Y3018523D01*
X375193D01*
X390428Y3021063D02*
X400585D01*
X405663Y3026141D02*
X408202Y3028680D01*
X413281D01*
X415820Y3026141D01*
Y3015984D01*
X413281Y3013445D01*
X408202D01*
X405663Y3015984D01*
Y3026141D01*
X420898Y3013445D02*
X425977D01*
X423437D01*
Y3028680D01*
X420898Y3026141D01*
X443751Y3028680D02*
X438672Y3026141D01*
X433594Y3021063D01*
Y3015984D01*
X436133Y3013445D01*
X441212D01*
X443751Y3015984D01*
Y3018523D01*
X441212Y3021063D01*
X433594D01*
X370115Y3087101D02*
X367575Y3089640D01*
X362497D01*
X359958Y3087101D01*
Y3076944D01*
X362497Y3074405D01*
X367575D01*
X370115Y3076944D01*
X377732Y3074405D02*
X382811D01*
X385350Y3076944D01*
Y3082022D01*
X382811Y3084562D01*
X377732D01*
X375193Y3082022D01*
Y3076944D01*
X377732Y3074405D01*
X390428Y3084562D02*
Y3074405D01*
Y3079483D01*
X392967Y3082022D01*
X395506Y3084562D01*
X398046D01*
X413281Y3074405D02*
X408202D01*
X405663Y3076944D01*
Y3082022D01*
X408202Y3084562D01*
X413281D01*
X415820Y3082022D01*
Y3079483D01*
X405663D01*
X420898Y3082022D02*
X431055D01*
X436133Y3087101D02*
X438672Y3089640D01*
X443751D01*
X446290Y3087101D01*
Y3076944D01*
X443751Y3074405D01*
X438672D01*
X436133Y3076944D01*
Y3087101D01*
X451368D02*
X453908Y3089640D01*
X458986D01*
X461525Y3087101D01*
Y3084562D01*
X458986Y3082022D01*
X456447D01*
X458986D01*
X461525Y3079483D01*
Y3076944D01*
X458986Y3074405D01*
X453908D01*
X451368Y3076944D01*
X476760Y3074405D02*
X466603D01*
X476760Y3084562D01*
Y3087101D01*
X474221Y3089640D01*
X469143D01*
X466603Y3087101D01*
X359958Y3135365D02*
Y3150600D01*
X367575D01*
X370115Y3148061D01*
Y3142982D01*
X367575Y3140443D01*
X359958D01*
X375193Y3135365D02*
Y3150600D01*
X382811D01*
X385350Y3148061D01*
Y3142982D01*
X382811Y3140443D01*
X375193D01*
X390428Y3142982D02*
X400585D01*
X405663Y3148061D02*
X408202Y3150600D01*
X413281D01*
X415820Y3148061D01*
Y3137904D01*
X413281Y3135365D01*
X408202D01*
X405663Y3137904D01*
Y3148061D01*
X420898Y3135365D02*
X425977D01*
X423437D01*
Y3150600D01*
X420898Y3148061D01*
X443751Y3150600D02*
X438672Y3148061D01*
X433594Y3142982D01*
Y3137904D01*
X436133Y3135365D01*
X441212D01*
X443751Y3137904D01*
Y3140443D01*
X441212Y3142982D01*
X433594D01*
X359958Y3165845D02*
Y3181080D01*
X367575D01*
X370115Y3178541D01*
Y3173463D01*
X367575Y3170923D01*
X359958D01*
X375193Y3165845D02*
Y3181080D01*
X382811D01*
X385350Y3178541D01*
Y3173463D01*
X382811Y3170923D01*
X375193D01*
X390428Y3173463D02*
X400585D01*
X405663Y3178541D02*
X408202Y3181080D01*
X413281D01*
X415820Y3178541D01*
Y3168384D01*
X413281Y3165845D01*
X408202D01*
X405663Y3168384D01*
Y3178541D01*
X420898Y3165845D02*
X425977D01*
X423437D01*
Y3181080D01*
X420898Y3178541D01*
X443751Y3181080D02*
X438672Y3178541D01*
X433594Y3173463D01*
Y3168384D01*
X436133Y3165845D01*
X441212D01*
X443751Y3168384D01*
Y3170923D01*
X441212Y3173463D01*
X433594D01*
X370115Y3239501D02*
X367575Y3242040D01*
X362497D01*
X359958Y3239501D01*
Y3236962D01*
X362497Y3234423D01*
X367575D01*
X370115Y3231884D01*
Y3229344D01*
X367575Y3226805D01*
X362497D01*
X359958Y3229344D01*
X377732Y3226805D02*
X382811D01*
X385350Y3229344D01*
Y3234423D01*
X382811Y3236962D01*
X377732D01*
X375193Y3234423D01*
Y3229344D01*
X377732Y3226805D01*
X390428D02*
X395506D01*
X392967D01*
Y3242040D01*
X390428D01*
X413281D02*
Y3226805D01*
X405663D01*
X403124Y3229344D01*
Y3234423D01*
X405663Y3236962D01*
X413281D01*
X425977Y3226805D02*
X420898D01*
X418359Y3229344D01*
Y3234423D01*
X420898Y3236962D01*
X425977D01*
X428516Y3234423D01*
Y3231884D01*
X418359D01*
X433594Y3236962D02*
Y3226805D01*
Y3231884D01*
X436133Y3234423D01*
X438672Y3236962D01*
X441212D01*
X464064Y3226805D02*
Y3242040D01*
X471682D01*
X474221Y3239501D01*
Y3234423D01*
X471682Y3231884D01*
X464064D01*
X469143D02*
X474221Y3226805D01*
X486917D02*
X481838D01*
X479299Y3229344D01*
Y3234423D01*
X481838Y3236962D01*
X486917D01*
X489456Y3234423D01*
Y3231884D01*
X479299D01*
X494534Y3226805D02*
X502152D01*
X504691Y3229344D01*
X502152Y3231884D01*
X497074D01*
X494534Y3234423D01*
X497074Y3236962D01*
X504691D01*
X509770Y3226805D02*
X514848D01*
X512309D01*
Y3236962D01*
X509770D01*
X522465Y3226805D02*
X530083D01*
X532622Y3229344D01*
X530083Y3231884D01*
X525005D01*
X522465Y3234423D01*
X525005Y3236962D01*
X532622D01*
X540240Y3239501D02*
Y3236962D01*
X537700D01*
X542779D01*
X540240D01*
Y3229344D01*
X542779Y3226805D01*
X578339Y3303000D02*
X588495D01*
X583417D01*
Y3287765D01*
X593574Y3303000D02*
Y3287765D01*
Y3295382D01*
X596113Y3297922D01*
X601191D01*
X603731Y3295382D01*
Y3287765D01*
X608809D02*
X613887D01*
X611348D01*
Y3297922D01*
X608809D01*
X631661D02*
X624044D01*
X621505Y3295382D01*
Y3290304D01*
X624044Y3287765D01*
X631661D01*
X636740D02*
Y3303000D01*
Y3292843D02*
X644357Y3297922D01*
X636740Y3292843D02*
X644357Y3287765D01*
X651975D02*
Y3297922D01*
X659593D01*
X662132Y3295382D01*
Y3287765D01*
X674828D02*
X669749D01*
X667210Y3290304D01*
Y3295382D01*
X669749Y3297922D01*
X674828D01*
X677367Y3295382D01*
Y3292843D01*
X667210D01*
X682445Y3287765D02*
X690063D01*
X692602Y3290304D01*
X690063Y3292843D01*
X684984D01*
X682445Y3295382D01*
X684984Y3297922D01*
X692602D01*
X697680Y3287765D02*
X705298D01*
X707837Y3290304D01*
X705298Y3292843D01*
X700219D01*
X697680Y3295382D01*
X700219Y3297922D01*
X707837D01*
X578339Y2934701D02*
X580878Y2937240D01*
X585956D01*
X588495Y2934701D01*
Y2924544D01*
X585956Y2922005D01*
X580878D01*
X578339Y2924544D01*
Y2934701D01*
X593574Y2922005D02*
Y2924544D01*
X596113D01*
Y2922005D01*
X593574D01*
X606270Y2934701D02*
X608809Y2937240D01*
X613887D01*
X616427Y2934701D01*
Y2924544D01*
X613887Y2922005D01*
X608809D01*
X606270Y2924544D01*
Y2934701D01*
X621505Y2922005D02*
X626583D01*
X624044D01*
Y2937240D01*
X621505Y2934701D01*
X634201D02*
X636740Y2937240D01*
X641818D01*
X644357Y2934701D01*
Y2924544D01*
X641818Y2922005D01*
X636740D01*
X634201Y2924544D01*
Y2934701D01*
X649436Y2922005D02*
Y2932162D01*
X651975D01*
X654514Y2929622D01*
Y2922005D01*
Y2929622D01*
X657053Y2932162D01*
X659593Y2929622D01*
Y2922005D01*
X664671D02*
Y2932162D01*
X667210D01*
X669749Y2929622D01*
Y2922005D01*
Y2929622D01*
X672288Y2932162D01*
X674828Y2929622D01*
Y2922005D01*
X578339Y2965181D02*
X580878Y2967720D01*
X585956D01*
X588495Y2965181D01*
Y2955024D01*
X585956Y2952485D01*
X580878D01*
X578339Y2955024D01*
Y2965181D01*
X593574Y2952485D02*
Y2955024D01*
X596113D01*
Y2952485D01*
X593574D01*
X606270Y2965181D02*
X608809Y2967720D01*
X613887D01*
X616427Y2965181D01*
Y2955024D01*
X613887Y2952485D01*
X608809D01*
X606270Y2955024D01*
Y2965181D01*
X621505D02*
X624044Y2967720D01*
X629122D01*
X631661Y2965181D01*
Y2962642D01*
X629122Y2960103D01*
X626583D01*
X629122D01*
X631661Y2957563D01*
Y2955024D01*
X629122Y2952485D01*
X624044D01*
X621505Y2955024D01*
X646897Y2967720D02*
X636740D01*
Y2960103D01*
X641818Y2962642D01*
X644357D01*
X646897Y2960103D01*
Y2955024D01*
X644357Y2952485D01*
X639279D01*
X636740Y2955024D01*
X651975Y2952485D02*
Y2962642D01*
X654514D01*
X657053Y2960103D01*
Y2952485D01*
Y2960103D01*
X659593Y2962642D01*
X662132Y2960103D01*
Y2952485D01*
X667210D02*
Y2962642D01*
X669749D01*
X672288Y2960103D01*
Y2952485D01*
Y2960103D01*
X674828Y2962642D01*
X677367Y2960103D01*
Y2952485D01*
X578339Y2995661D02*
X580878Y2998200D01*
X585956D01*
X588495Y2995661D01*
Y2985504D01*
X585956Y2982965D01*
X580878D01*
X578339Y2985504D01*
Y2995661D01*
X593574Y2982965D02*
Y2985504D01*
X596113D01*
Y2982965D01*
X593574D01*
X606270D02*
X611348D01*
X608809D01*
Y2998200D01*
X606270Y2995661D01*
X618966Y2982965D02*
X624044D01*
X621505D01*
Y2998200D01*
X618966Y2995661D01*
X641818Y2998200D02*
X631661D01*
Y2990583D01*
X636740Y2993122D01*
X639279D01*
X641818Y2990583D01*
Y2985504D01*
X639279Y2982965D01*
X634201D01*
X631661Y2985504D01*
X646897Y2982965D02*
Y2993122D01*
X649436D01*
X651975Y2990583D01*
Y2982965D01*
Y2990583D01*
X654514Y2993122D01*
X657053Y2990583D01*
Y2982965D01*
X662132D02*
Y2993122D01*
X664671D01*
X667210Y2990583D01*
Y2982965D01*
Y2990583D01*
X669749Y2993122D01*
X672288Y2990583D01*
Y2982965D01*
X578339Y3026141D02*
X580878Y3028680D01*
X585956D01*
X588495Y3026141D01*
Y3015984D01*
X585956Y3013445D01*
X580878D01*
X578339Y3015984D01*
Y3026141D01*
X593574Y3013445D02*
Y3015984D01*
X596113D01*
Y3013445D01*
X593574D01*
X606270D02*
X611348D01*
X608809D01*
Y3028680D01*
X606270Y3026141D01*
X618966Y3013445D02*
X624044D01*
X621505D01*
Y3028680D01*
X618966Y3026141D01*
X641818Y3028680D02*
X631661D01*
Y3021063D01*
X636740Y3023602D01*
X639279D01*
X641818Y3021063D01*
Y3015984D01*
X639279Y3013445D01*
X634201D01*
X631661Y3015984D01*
X646897Y3013445D02*
Y3023602D01*
X649436D01*
X651975Y3021063D01*
Y3013445D01*
Y3021063D01*
X654514Y3023602D01*
X657053Y3021063D01*
Y3013445D01*
X662132D02*
Y3023602D01*
X664671D01*
X667210Y3021063D01*
Y3013445D01*
Y3021063D01*
X669749Y3023602D01*
X672288Y3021063D01*
Y3013445D01*
X578339Y3056621D02*
X580878Y3059160D01*
X585956D01*
X588495Y3056621D01*
Y3046464D01*
X585956Y3043925D01*
X580878D01*
X578339Y3046464D01*
Y3056621D01*
X593574Y3043925D02*
Y3046464D01*
X596113D01*
Y3043925D01*
X593574D01*
X606270Y3056621D02*
X608809Y3059160D01*
X613887D01*
X616427Y3056621D01*
Y3046464D01*
X613887Y3043925D01*
X608809D01*
X606270Y3046464D01*
Y3056621D01*
X621505D02*
X624044Y3059160D01*
X629122D01*
X631661Y3056621D01*
Y3054082D01*
X629122Y3051542D01*
X626583D01*
X629122D01*
X631661Y3049003D01*
Y3046464D01*
X629122Y3043925D01*
X624044D01*
X621505Y3046464D01*
X646897Y3059160D02*
X636740D01*
Y3051542D01*
X641818Y3054082D01*
X644357D01*
X646897Y3051542D01*
Y3046464D01*
X644357Y3043925D01*
X639279D01*
X636740Y3046464D01*
X651975Y3043925D02*
Y3054082D01*
X654514D01*
X657053Y3051542D01*
Y3043925D01*
Y3051542D01*
X659593Y3054082D01*
X662132Y3051542D01*
Y3043925D01*
X667210D02*
Y3054082D01*
X669749D01*
X672288Y3051542D01*
Y3043925D01*
Y3051542D01*
X674828Y3054082D01*
X677367Y3051542D01*
Y3043925D01*
X578339Y3087101D02*
X580878Y3089640D01*
X585956D01*
X588495Y3087101D01*
Y3076944D01*
X585956Y3074405D01*
X580878D01*
X578339Y3076944D01*
Y3087101D01*
X593574Y3074405D02*
Y3076944D01*
X596113D01*
Y3074405D01*
X593574D01*
X606270Y3087101D02*
X608809Y3089640D01*
X613887D01*
X616427Y3087101D01*
Y3084562D01*
X613887Y3082022D01*
X611348D01*
X613887D01*
X616427Y3079483D01*
Y3076944D01*
X613887Y3074405D01*
X608809D01*
X606270Y3076944D01*
X631661Y3089640D02*
X621505D01*
Y3082022D01*
X626583Y3084562D01*
X629122D01*
X631661Y3082022D01*
Y3076944D01*
X629122Y3074405D01*
X624044D01*
X621505Y3076944D01*
X646897Y3089640D02*
X641818Y3087101D01*
X636740Y3082022D01*
Y3076944D01*
X639279Y3074405D01*
X644357D01*
X646897Y3076944D01*
Y3079483D01*
X644357Y3082022D01*
X636740D01*
X651975Y3074405D02*
Y3084562D01*
X654514D01*
X657053Y3082022D01*
Y3074405D01*
Y3082022D01*
X659593Y3084562D01*
X662132Y3082022D01*
Y3074405D01*
X667210D02*
Y3084562D01*
X669749D01*
X672288Y3082022D01*
Y3074405D01*
Y3082022D01*
X674828Y3084562D01*
X677367Y3082022D01*
Y3074405D01*
X578339Y3117581D02*
X580878Y3120120D01*
X585956D01*
X588495Y3117581D01*
Y3107424D01*
X585956Y3104885D01*
X580878D01*
X578339Y3107424D01*
Y3117581D01*
X593574Y3104885D02*
Y3107424D01*
X596113D01*
Y3104885D01*
X593574D01*
X606270Y3117581D02*
X608809Y3120120D01*
X613887D01*
X616427Y3117581D01*
Y3107424D01*
X613887Y3104885D01*
X608809D01*
X606270Y3107424D01*
Y3117581D01*
X621505D02*
X624044Y3120120D01*
X629122D01*
X631661Y3117581D01*
Y3115042D01*
X629122Y3112502D01*
X626583D01*
X629122D01*
X631661Y3109963D01*
Y3107424D01*
X629122Y3104885D01*
X624044D01*
X621505Y3107424D01*
X646897Y3120120D02*
X636740D01*
Y3112502D01*
X641818Y3115042D01*
X644357D01*
X646897Y3112502D01*
Y3107424D01*
X644357Y3104885D01*
X639279D01*
X636740Y3107424D01*
X651975Y3104885D02*
Y3115042D01*
X654514D01*
X657053Y3112502D01*
Y3104885D01*
Y3112502D01*
X659593Y3115042D01*
X662132Y3112502D01*
Y3104885D01*
X667210D02*
Y3115042D01*
X669749D01*
X672288Y3112502D01*
Y3104885D01*
Y3112502D01*
X674828Y3115042D01*
X677367Y3112502D01*
Y3104885D01*
X578339Y3148061D02*
X580878Y3150600D01*
X585956D01*
X588495Y3148061D01*
Y3137904D01*
X585956Y3135365D01*
X580878D01*
X578339Y3137904D01*
Y3148061D01*
X593574Y3135365D02*
Y3137904D01*
X596113D01*
Y3135365D01*
X593574D01*
X606270D02*
X611348D01*
X608809D01*
Y3150600D01*
X606270Y3148061D01*
X618966Y3135365D02*
X624044D01*
X621505D01*
Y3150600D01*
X618966Y3148061D01*
X641818Y3150600D02*
X631661D01*
Y3142982D01*
X636740Y3145522D01*
X639279D01*
X641818Y3142982D01*
Y3137904D01*
X639279Y3135365D01*
X634201D01*
X631661Y3137904D01*
X646897Y3135365D02*
Y3145522D01*
X649436D01*
X651975Y3142982D01*
Y3135365D01*
Y3142982D01*
X654514Y3145522D01*
X657053Y3142982D01*
Y3135365D01*
X662132D02*
Y3145522D01*
X664671D01*
X667210Y3142982D01*
Y3135365D01*
Y3142982D01*
X669749Y3145522D01*
X672288Y3142982D01*
Y3135365D01*
X578339Y3178541D02*
X580878Y3181080D01*
X585956D01*
X588495Y3178541D01*
Y3168384D01*
X585956Y3165845D01*
X580878D01*
X578339Y3168384D01*
Y3178541D01*
X593574Y3165845D02*
Y3168384D01*
X596113D01*
Y3165845D01*
X593574D01*
X606270D02*
X611348D01*
X608809D01*
Y3181080D01*
X606270Y3178541D01*
X618966Y3165845D02*
X624044D01*
X621505D01*
Y3181080D01*
X618966Y3178541D01*
X641818Y3181080D02*
X631661D01*
Y3173463D01*
X636740Y3176002D01*
X639279D01*
X641818Y3173463D01*
Y3168384D01*
X639279Y3165845D01*
X634201D01*
X631661Y3168384D01*
X646897Y3165845D02*
Y3176002D01*
X649436D01*
X651975Y3173463D01*
Y3165845D01*
Y3173463D01*
X654514Y3176002D01*
X657053Y3173463D01*
Y3165845D01*
X662132D02*
Y3176002D01*
X664671D01*
X667210Y3173463D01*
Y3165845D01*
Y3173463D01*
X669749Y3176002D01*
X672288Y3173463D01*
Y3165845D01*
X578339Y3209021D02*
X580878Y3211560D01*
X585956D01*
X588495Y3209021D01*
Y3198864D01*
X585956Y3196325D01*
X580878D01*
X578339Y3198864D01*
Y3209021D01*
X593574Y3196325D02*
Y3198864D01*
X596113D01*
Y3196325D01*
X593574D01*
X606270Y3209021D02*
X608809Y3211560D01*
X613887D01*
X616427Y3209021D01*
Y3198864D01*
X613887Y3196325D01*
X608809D01*
X606270Y3198864D01*
Y3209021D01*
X621505D02*
X624044Y3211560D01*
X629122D01*
X631661Y3209021D01*
Y3206482D01*
X629122Y3203943D01*
X626583D01*
X629122D01*
X631661Y3201404D01*
Y3198864D01*
X629122Y3196325D01*
X624044D01*
X621505Y3198864D01*
X646897Y3211560D02*
X636740D01*
Y3203943D01*
X641818Y3206482D01*
X644357D01*
X646897Y3203943D01*
Y3198864D01*
X644357Y3196325D01*
X639279D01*
X636740Y3198864D01*
X651975Y3196325D02*
Y3206482D01*
X654514D01*
X657053Y3203943D01*
Y3196325D01*
Y3203943D01*
X659593Y3206482D01*
X662132Y3203943D01*
Y3196325D01*
X667210D02*
Y3206482D01*
X669749D01*
X672288Y3203943D01*
Y3196325D01*
Y3203943D01*
X674828Y3206482D01*
X677367Y3203943D01*
Y3196325D01*
X578339Y3239501D02*
X580878Y3242040D01*
X585956D01*
X588495Y3239501D01*
Y3229344D01*
X585956Y3226805D01*
X580878D01*
X578339Y3229344D01*
Y3239501D01*
X593574Y3226805D02*
Y3229344D01*
X596113D01*
Y3226805D01*
X593574D01*
X606270Y3239501D02*
X608809Y3242040D01*
X613887D01*
X616427Y3239501D01*
Y3229344D01*
X613887Y3226805D01*
X608809D01*
X606270Y3229344D01*
Y3239501D01*
X621505Y3226805D02*
X626583D01*
X624044D01*
Y3242040D01*
X621505Y3239501D01*
X634201D02*
X636740Y3242040D01*
X641818D01*
X644357Y3239501D01*
Y3229344D01*
X641818Y3226805D01*
X636740D01*
X634201Y3229344D01*
Y3239501D01*
X649436Y3226805D02*
Y3236962D01*
X651975D01*
X654514Y3234423D01*
Y3226805D01*
Y3234423D01*
X657053Y3236962D01*
X659593Y3234423D01*
Y3226805D01*
X664671D02*
Y3236962D01*
X667210D01*
X669749Y3234423D01*
Y3226805D01*
Y3234423D01*
X672288Y3236962D01*
X674828Y3234423D01*
Y3226805D01*
X753554Y3300461D02*
X751014Y3303000D01*
X745936D01*
X743397Y3300461D01*
Y3290304D01*
X745936Y3287765D01*
X751014D01*
X753554Y3290304D01*
X761171Y3287765D02*
X766249D01*
X768789Y3290304D01*
Y3295382D01*
X766249Y3297922D01*
X761171D01*
X758632Y3295382D01*
Y3290304D01*
X761171Y3287765D01*
X773867D02*
Y3297922D01*
X781485D01*
X784024Y3295382D01*
Y3287765D01*
X789102D02*
X796720D01*
X799259Y3290304D01*
X796720Y3292843D01*
X791641D01*
X789102Y3295382D01*
X791641Y3297922D01*
X799259D01*
X806876Y3300461D02*
Y3297922D01*
X804337D01*
X809416D01*
X806876D01*
Y3290304D01*
X809416Y3287765D01*
X819572Y3297922D02*
X824651D01*
X827190Y3295382D01*
Y3287765D01*
X819572D01*
X817033Y3290304D01*
X819572Y3292843D01*
X827190D01*
X832268Y3287765D02*
Y3297922D01*
X839886D01*
X842425Y3295382D01*
Y3287765D01*
X850042Y3300461D02*
Y3297922D01*
X847503D01*
X852582D01*
X850042D01*
Y3290304D01*
X852582Y3287765D01*
X743397Y2934701D02*
X745936Y2937240D01*
X751014D01*
X753554Y2934701D01*
Y2932162D01*
X751014Y2929622D01*
X748475D01*
X751014D01*
X753554Y2927083D01*
Y2924544D01*
X751014Y2922005D01*
X745936D01*
X743397Y2924544D01*
X758632Y2922005D02*
Y2924544D01*
X761171D01*
Y2922005D01*
X758632D01*
X781485Y2937240D02*
X771328D01*
Y2929622D01*
X776406Y2932162D01*
X778945D01*
X781485Y2929622D01*
Y2924544D01*
X778945Y2922005D01*
X773867D01*
X771328Y2924544D01*
X751014Y2982965D02*
Y2998200D01*
X743397Y2990583D01*
X753554D01*
X758632Y2982965D02*
Y2985504D01*
X761171D01*
Y2982965D01*
X758632D01*
X778945D02*
Y2998200D01*
X771328Y2990583D01*
X781485D01*
X751014Y3013445D02*
Y3028680D01*
X743397Y3021063D01*
X753554D01*
X758632Y3013445D02*
Y3015984D01*
X761171D01*
Y3013445D01*
X758632D01*
X778945D02*
Y3028680D01*
X771328Y3021063D01*
X781485D01*
X751014Y3074405D02*
Y3089640D01*
X743397Y3082022D01*
X753554D01*
X758632Y3074405D02*
Y3076944D01*
X761171D01*
Y3074405D01*
X758632D01*
X771328Y3089640D02*
X781485D01*
Y3087101D01*
X771328Y3076944D01*
Y3074405D01*
X751014Y3135365D02*
Y3150600D01*
X743397Y3142982D01*
X753554D01*
X758632Y3135365D02*
Y3137904D01*
X761171D01*
Y3135365D01*
X758632D01*
X778945D02*
Y3150600D01*
X771328Y3142982D01*
X781485D01*
X751014Y3165845D02*
Y3181080D01*
X743397Y3173463D01*
X753554D01*
X758632Y3165845D02*
Y3168384D01*
X761171D01*
Y3165845D01*
X758632D01*
X778945D02*
Y3181080D01*
X771328Y3173463D01*
X781485D01*
X743397Y3239501D02*
X745936Y3242040D01*
X751014D01*
X753554Y3239501D01*
Y3236962D01*
X751014Y3234423D01*
X748475D01*
X751014D01*
X753554Y3231884D01*
Y3229344D01*
X751014Y3226805D01*
X745936D01*
X743397Y3229344D01*
X758632Y3226805D02*
Y3229344D01*
X761171D01*
Y3226805D01*
X758632D01*
X781485Y3242040D02*
X771328D01*
Y3234423D01*
X776406Y3236962D01*
X778945D01*
X781485Y3234423D01*
Y3229344D01*
X778945Y3226805D01*
X773867D01*
X771328Y3229344D01*
X888142Y3303000D02*
Y3287765D01*
X895759D01*
X898298Y3290304D01*
Y3292843D01*
X895759Y3295382D01*
X888142D01*
X895759D01*
X898298Y3297922D01*
Y3300461D01*
X895759Y3303000D01*
X888142D01*
X905916Y3287765D02*
X910994D01*
X913533Y3290304D01*
Y3295382D01*
X910994Y3297922D01*
X905916D01*
X903377Y3295382D01*
Y3290304D01*
X905916Y3287765D01*
X921151Y3297922D02*
X926229D01*
X928768Y3295382D01*
Y3287765D01*
X921151D01*
X918612Y3290304D01*
X921151Y3292843D01*
X928768D01*
X933847Y3297922D02*
Y3287765D01*
Y3292843D01*
X936386Y3295382D01*
X938925Y3297922D01*
X941464D01*
X959239Y3303000D02*
Y3287765D01*
X951621D01*
X949082Y3290304D01*
Y3295382D01*
X951621Y3297922D01*
X959239D01*
X979552Y3303000D02*
Y3287765D01*
X989709D01*
X997326Y3297922D02*
X1002405D01*
X1004944Y3295382D01*
Y3287765D01*
X997326D01*
X994787Y3290304D01*
X997326Y3292843D01*
X1004944D01*
X1010022Y3297922D02*
Y3290304D01*
X1012561Y3287765D01*
X1020179D01*
Y3285226D01*
X1017640Y3282687D01*
X1015100D01*
X1020179Y3287765D02*
Y3297922D01*
X1032875Y3287765D02*
X1027796D01*
X1025257Y3290304D01*
Y3295382D01*
X1027796Y3297922D01*
X1032875D01*
X1035414Y3295382D01*
Y3292843D01*
X1025257D01*
X1040492Y3297922D02*
Y3287765D01*
Y3292843D01*
X1043031Y3295382D01*
X1045571Y3297922D01*
X1048110D01*
X1081119Y3300461D02*
X1078580Y3303000D01*
X1073502D01*
X1070962Y3300461D01*
Y3297922D01*
X1073502Y3295382D01*
X1078580D01*
X1081119Y3292843D01*
Y3290304D01*
X1078580Y3287765D01*
X1073502D01*
X1070962Y3290304D01*
X1088737Y3300461D02*
Y3297922D01*
X1086198D01*
X1091276D01*
X1088737D01*
Y3290304D01*
X1091276Y3287765D01*
X1101433Y3297922D02*
X1106511D01*
X1109050Y3295382D01*
Y3287765D01*
X1101433D01*
X1098893Y3290304D01*
X1101433Y3292843D01*
X1109050D01*
X1124285Y3297922D02*
X1116668D01*
X1114128Y3295382D01*
Y3290304D01*
X1116668Y3287765D01*
X1124285D01*
X1129363D02*
Y3303000D01*
Y3292843D02*
X1136981Y3297922D01*
X1129363Y3292843D02*
X1136981Y3287765D01*
D114*
X1905Y3280145D02*
X1154761D01*
X1905Y3310625D02*
X1154761D01*
X1905Y2883905D02*
Y3310625D01*
Y2883905D02*
X106023D01*
X1905Y2914385D02*
X106023D01*
X1905Y2944865D02*
X106023D01*
X1905Y2975345D02*
X106023D01*
X1905Y3005825D02*
X106023D01*
X1905Y3036305D02*
X106023D01*
X1905Y3066785D02*
X106023D01*
X1905Y3097265D02*
X106023D01*
X1905Y3127745D02*
X106023D01*
X1905Y3158225D02*
X106023D01*
X1905Y3188705D02*
X106023D01*
X1905Y3219185D02*
X106023D01*
X1905Y3249665D02*
X106023D01*
Y2883905D02*
Y3310625D01*
Y2883905D02*
X342178D01*
X106023Y2914385D02*
X342178D01*
X106023Y2944865D02*
X342178D01*
X106023Y2975345D02*
X342178D01*
X106023Y3005825D02*
X342178D01*
X106023Y3036305D02*
X342178D01*
X106023Y3066785D02*
X342178D01*
X106023Y3097265D02*
X342178D01*
X106023Y3127745D02*
X342178D01*
X106023Y3158225D02*
X342178D01*
X106023Y3188705D02*
X342178D01*
X106023Y3219185D02*
X342178D01*
X106023Y3249665D02*
X342178D01*
Y2883905D02*
Y3310625D01*
Y2883905D02*
X560559D01*
X342178Y2914385D02*
X560559D01*
X342178Y2944865D02*
X560559D01*
X342178Y2975345D02*
X560559D01*
X342178Y3005825D02*
X560559D01*
X342178Y3036305D02*
X560559D01*
X342178Y3066785D02*
X560559D01*
X342178Y3097265D02*
X560559D01*
X342178Y3127745D02*
X560559D01*
X342178Y3158225D02*
X560559D01*
X342178Y3188705D02*
X560559D01*
X342178Y3219185D02*
X560559D01*
X342178Y3249665D02*
X560559D01*
Y2883905D02*
Y3310625D01*
Y2883905D02*
X725617D01*
X560559Y2914385D02*
X725617D01*
X560559Y2944865D02*
X725617D01*
X560559Y2975345D02*
X725617D01*
X560559Y3005825D02*
X725617D01*
X560559Y3036305D02*
X725617D01*
X560559Y3066785D02*
X725617D01*
X560559Y3097265D02*
X725617D01*
X560559Y3127745D02*
X725617D01*
X560559Y3158225D02*
X725617D01*
X560559Y3188705D02*
X725617D01*
X560559Y3219185D02*
X725617D01*
X560559Y3249665D02*
X725617D01*
Y2883905D02*
Y3310625D01*
Y2883905D02*
X870362D01*
X725617Y2914385D02*
X870362D01*
X725617Y2944865D02*
X870362D01*
X725617Y2975345D02*
X870362D01*
X725617Y3005825D02*
X870362D01*
X725617Y3036305D02*
X870362D01*
X725617Y3066785D02*
X870362D01*
X725617Y3097265D02*
X870362D01*
X725617Y3127745D02*
X870362D01*
X725617Y3158225D02*
X870362D01*
X725617Y3188705D02*
X870362D01*
X725617Y3219185D02*
X870362D01*
X725617Y3249665D02*
X870362D01*
Y2883905D02*
Y3310625D01*
Y2883905D02*
X1154761D01*
X870362Y2914385D02*
X1154761D01*
X870362Y2944865D02*
X1154761D01*
X870362Y2975345D02*
X1154761D01*
X870362Y3005825D02*
X1154761D01*
X870362Y3036305D02*
X1154761D01*
X870362Y3066785D02*
X1154761D01*
X870362Y3097265D02*
X1154761D01*
X870362Y3127745D02*
X1154761D01*
X870362Y3158225D02*
X1154761D01*
X870362Y3188705D02*
X1154761D01*
X870362Y3219185D02*
X1154761D01*
X870362Y3249665D02*
X1154761D01*
Y2883905D02*
Y3310625D01*
D115*
X1139521Y2883905D02*
X1154761Y2899145D01*
X1124281Y2883905D02*
X1154761Y2914385D01*
X1109041Y2883905D02*
X1139521Y2914385D01*
X1093801Y2883905D02*
X1124281Y2914385D01*
X1078561Y2883905D02*
X1109041Y2914385D01*
X1063321Y2883905D02*
X1093801Y2914385D01*
X1048081Y2883905D02*
X1078561Y2914385D01*
X1032841Y2883905D02*
X1063321Y2914385D01*
X1017601Y2883905D02*
X1048081Y2914385D01*
X1002361Y2883905D02*
X1032841Y2914385D01*
X987121Y2883905D02*
X1017601Y2914385D01*
X971881Y2883905D02*
X1002361Y2914385D01*
X956641Y2883905D02*
X987121Y2914385D01*
X941401Y2883905D02*
X971881Y2914385D01*
X926161Y2883905D02*
X956641Y2914385D01*
X910921Y2883905D02*
X941401Y2914385D01*
X895681Y2883905D02*
X926161Y2914385D01*
X880441Y2883905D02*
X910921Y2914385D01*
X870362Y2889066D02*
X895681Y2914385D01*
X870362Y2904305D02*
X880441Y2914385D01*
X1139521D02*
X1154761Y2929625D01*
X1124281Y2914385D02*
X1154761Y2944865D01*
X1109041Y2914385D02*
X1139521Y2944865D01*
X1093801Y2914385D02*
X1124281Y2944865D01*
X1078561Y2914385D02*
X1109041Y2944865D01*
X1063321Y2914385D02*
X1093801Y2944865D01*
X1048081Y2914385D02*
X1078561Y2944865D01*
X1032841Y2914385D02*
X1063321Y2944865D01*
X1017601Y2914385D02*
X1048081Y2944865D01*
X1002361Y2914385D02*
X1032841Y2944865D01*
X987121Y2914385D02*
X1017601Y2944865D01*
X971881Y2914385D02*
X1002361Y2944865D01*
X956641Y2914385D02*
X987121Y2944865D01*
X941401Y2914385D02*
X971881Y2944865D01*
X926161Y2914385D02*
X956641Y2944865D01*
X910921Y2914385D02*
X941401Y2944865D01*
X895681Y2914385D02*
X926161Y2944865D01*
X880441Y2914385D02*
X910921Y2944865D01*
X870362Y2919546D02*
X895681Y2944865D01*
X870362Y2934785D02*
X880441Y2944865D01*
X1139521D02*
X1154761Y2960105D01*
X1124281Y2944865D02*
X1154761Y2975345D01*
X1109041Y2944865D02*
X1139521Y2975345D01*
X1093801Y2944865D02*
X1124281Y2975345D01*
X1078561Y2944865D02*
X1109041Y2975345D01*
X1063321Y2944865D02*
X1093801Y2975345D01*
X1048081Y2944865D02*
X1078561Y2975345D01*
X1032841Y2944865D02*
X1063321Y2975345D01*
X1017601Y2944865D02*
X1048081Y2975345D01*
X1002361Y2944865D02*
X1032841Y2975345D01*
X987121Y2944865D02*
X1017601Y2975345D01*
X971881Y2944865D02*
X1002361Y2975345D01*
X956641Y2944865D02*
X987121Y2975345D01*
X941401Y2944865D02*
X971881Y2975345D01*
X926161Y2944865D02*
X956641Y2975345D01*
X910921Y2944865D02*
X941401Y2975345D01*
X895681Y2944865D02*
X926161Y2975345D01*
X880441Y2944865D02*
X910921Y2975345D01*
X870362Y2950026D02*
X895681Y2975345D01*
X870362Y2965266D02*
X880441Y2975345D01*
X1139521D02*
X1154761Y2990585D01*
X1124281Y2975345D02*
X1154761Y3005825D01*
X1109041Y2975345D02*
X1139521Y3005825D01*
X1093801Y2975345D02*
X1124281Y3005825D01*
X1078561Y2975345D02*
X1109041Y3005825D01*
X1063321Y2975345D02*
X1093801Y3005825D01*
X1048081Y2975345D02*
X1078561Y3005825D01*
X1032841Y2975345D02*
X1063321Y3005825D01*
X1017601Y2975345D02*
X1048081Y3005825D01*
X1002361Y2975345D02*
X1032841Y3005825D01*
X987121Y2975345D02*
X1017601Y3005825D01*
X971881Y2975345D02*
X1002361Y3005825D01*
X956641Y2975345D02*
X987121Y3005825D01*
X941401Y2975345D02*
X971881Y3005825D01*
X926161Y2975345D02*
X956641Y3005825D01*
X910921Y2975345D02*
X941401Y3005825D01*
X895681Y2975345D02*
X926161Y3005825D01*
X880441Y2975345D02*
X910921Y3005825D01*
X870362Y2980505D02*
X895681Y3005825D01*
X870362Y2995746D02*
X880441Y3005825D01*
X1139521D02*
X1154761Y3021065D01*
X1124281Y3005825D02*
X1154761Y3036305D01*
X1109041Y3005825D02*
X1139521Y3036305D01*
X1093801Y3005825D02*
X1124281Y3036305D01*
X1078561Y3005825D02*
X1109041Y3036305D01*
X1063321Y3005825D02*
X1093801Y3036305D01*
X1048081Y3005825D02*
X1078561Y3036305D01*
X1032841Y3005825D02*
X1063321Y3036305D01*
X1017601Y3005825D02*
X1048081Y3036305D01*
X1002361Y3005825D02*
X1032841Y3036305D01*
X987121Y3005825D02*
X1017601Y3036305D01*
X971881Y3005825D02*
X1002361Y3036305D01*
X956641Y3005825D02*
X987121Y3036305D01*
X941401Y3005825D02*
X971881Y3036305D01*
X926161Y3005825D02*
X956641Y3036305D01*
X910921Y3005825D02*
X941401Y3036305D01*
X895681Y3005825D02*
X926161Y3036305D01*
X880441Y3005825D02*
X910921Y3036305D01*
X870362Y3010985D02*
X895681Y3036305D01*
X870362Y3026226D02*
X880441Y3036305D01*
X1139521D02*
X1154761Y3051545D01*
X1124281Y3036305D02*
X1154761Y3066785D01*
X1109041Y3036305D02*
X1139521Y3066785D01*
X1093801Y3036305D02*
X1124281Y3066785D01*
X1078561Y3036305D02*
X1109041Y3066785D01*
X1063321Y3036305D02*
X1093801Y3066785D01*
X1048081Y3036305D02*
X1078561Y3066785D01*
X1032841Y3036305D02*
X1063321Y3066785D01*
X1017601Y3036305D02*
X1048081Y3066785D01*
X1002361Y3036305D02*
X1032841Y3066785D01*
X987121Y3036305D02*
X1017601Y3066785D01*
X971881Y3036305D02*
X1002361Y3066785D01*
X956641Y3036305D02*
X987121Y3066785D01*
X941401Y3036305D02*
X971881Y3066785D01*
X926161Y3036305D02*
X956641Y3066785D01*
X910921Y3036305D02*
X941401Y3066785D01*
X895681Y3036305D02*
X926161Y3066785D01*
X880441Y3036305D02*
X910921Y3066785D01*
X870362Y3041465D02*
X895681Y3066785D01*
X870362Y3056706D02*
X880441Y3066785D01*
X1139521D02*
X1154761Y3082025D01*
X1124281Y3066785D02*
X1154761Y3097265D01*
X1109041Y3066785D02*
X1139521Y3097265D01*
X1093801Y3066785D02*
X1124281Y3097265D01*
X1078561Y3066785D02*
X1109041Y3097265D01*
X1063321Y3066785D02*
X1093801Y3097265D01*
X1048081Y3066785D02*
X1078561Y3097265D01*
X1032841Y3066785D02*
X1063321Y3097265D01*
X1017601Y3066785D02*
X1048081Y3097265D01*
X1002361Y3066785D02*
X1032841Y3097265D01*
X987121Y3066785D02*
X1017601Y3097265D01*
X971881Y3066785D02*
X1002361Y3097265D01*
X956641Y3066785D02*
X987121Y3097265D01*
X941401Y3066785D02*
X971881Y3097265D01*
X926161Y3066785D02*
X956641Y3097265D01*
X910921Y3066785D02*
X941401Y3097265D01*
X895681Y3066785D02*
X926161Y3097265D01*
X880441Y3066785D02*
X910921Y3097265D01*
X870362Y3071945D02*
X895681Y3097265D01*
X870362Y3087185D02*
X880441Y3097265D01*
X1139521D02*
X1154761Y3112505D01*
X1124281Y3097265D02*
X1154761Y3127745D01*
X1109041Y3097265D02*
X1139521Y3127745D01*
X1093801Y3097265D02*
X1124281Y3127745D01*
X1078561Y3097265D02*
X1109041Y3127745D01*
X1063321Y3097265D02*
X1093801Y3127745D01*
X1048081Y3097265D02*
X1078561Y3127745D01*
X1032841Y3097265D02*
X1063321Y3127745D01*
X1017601Y3097265D02*
X1048081Y3127745D01*
X1002361Y3097265D02*
X1032841Y3127745D01*
X987121Y3097265D02*
X1017601Y3127745D01*
X971881Y3097265D02*
X1002361Y3127745D01*
X956641Y3097265D02*
X987121Y3127745D01*
X941401Y3097265D02*
X971881Y3127745D01*
X926161Y3097265D02*
X956641Y3127745D01*
X910921Y3097265D02*
X941401Y3127745D01*
X895681Y3097265D02*
X926161Y3127745D01*
X880441Y3097265D02*
X910921Y3127745D01*
X870362Y3102426D02*
X895681Y3127745D01*
X870362Y3117665D02*
X880441Y3127745D01*
X1139521D02*
X1154761Y3142985D01*
X1124281Y3127745D02*
X1154761Y3158225D01*
X1109041Y3127745D02*
X1139521Y3158225D01*
X1093801Y3127745D02*
X1124281Y3158225D01*
X1078561Y3127745D02*
X1109041Y3158225D01*
X1063321Y3127745D02*
X1093801Y3158225D01*
X1048081Y3127745D02*
X1078561Y3158225D01*
X1032841Y3127745D02*
X1063321Y3158225D01*
X1017601Y3127745D02*
X1048081Y3158225D01*
X1002361Y3127745D02*
X1032841Y3158225D01*
X987121Y3127745D02*
X1017601Y3158225D01*
X971881Y3127745D02*
X1002361Y3158225D01*
X956641Y3127745D02*
X987121Y3158225D01*
X941401Y3127745D02*
X971881Y3158225D01*
X926161Y3127745D02*
X956641Y3158225D01*
X910921Y3127745D02*
X941401Y3158225D01*
X895681Y3127745D02*
X926161Y3158225D01*
X880441Y3127745D02*
X910921Y3158225D01*
X870362Y3132906D02*
X895681Y3158225D01*
X870362Y3148145D02*
X880441Y3158225D01*
X1139521D02*
X1154761Y3173465D01*
X1124281Y3158225D02*
X1154761Y3188705D01*
X1109041Y3158225D02*
X1139521Y3188705D01*
X1093801Y3158225D02*
X1124281Y3188705D01*
X1078561Y3158225D02*
X1109041Y3188705D01*
X1063321Y3158225D02*
X1093801Y3188705D01*
X1048081Y3158225D02*
X1078561Y3188705D01*
X1032841Y3158225D02*
X1063321Y3188705D01*
X1017601Y3158225D02*
X1048081Y3188705D01*
X1002361Y3158225D02*
X1032841Y3188705D01*
X987121Y3158225D02*
X1017601Y3188705D01*
X971881Y3158225D02*
X1002361Y3188705D01*
X956641Y3158225D02*
X987121Y3188705D01*
X941401Y3158225D02*
X971881Y3188705D01*
X926161Y3158225D02*
X956641Y3188705D01*
X910921Y3158225D02*
X941401Y3188705D01*
X895681Y3158225D02*
X926161Y3188705D01*
X880441Y3158225D02*
X910921Y3188705D01*
X870362Y3163386D02*
X895681Y3188705D01*
X870362Y3178625D02*
X880441Y3188705D01*
X1139521D02*
X1154761Y3203945D01*
X1124281Y3188705D02*
X1154761Y3219185D01*
X1109041Y3188705D02*
X1139521Y3219185D01*
X1093801Y3188705D02*
X1124281Y3219185D01*
X1078561Y3188705D02*
X1109041Y3219185D01*
X1063321Y3188705D02*
X1093801Y3219185D01*
X1048081Y3188705D02*
X1078561Y3219185D01*
X1032841Y3188705D02*
X1063321Y3219185D01*
X1017601Y3188705D02*
X1048081Y3219185D01*
X1002361Y3188705D02*
X1032841Y3219185D01*
X987121Y3188705D02*
X1017601Y3219185D01*
X971881Y3188705D02*
X1002361Y3219185D01*
X956641Y3188705D02*
X987121Y3219185D01*
X941401Y3188705D02*
X971881Y3219185D01*
X926161Y3188705D02*
X956641Y3219185D01*
X910921Y3188705D02*
X941401Y3219185D01*
X895681Y3188705D02*
X926161Y3219185D01*
X880441Y3188705D02*
X910921Y3219185D01*
X870362Y3193865D02*
X895681Y3219185D01*
X870362Y3209106D02*
X880441Y3219185D01*
X1139521D02*
X1154761Y3234425D01*
X1124281Y3219185D02*
X1154761Y3249665D01*
X1109041Y3219185D02*
X1139521Y3249665D01*
X1093801Y3219185D02*
X1124281Y3249665D01*
X1078561Y3219185D02*
X1109041Y3249665D01*
X1063321Y3219185D02*
X1093801Y3249665D01*
X1048081Y3219185D02*
X1078561Y3249665D01*
X1032841Y3219185D02*
X1063321Y3249665D01*
X1017601Y3219185D02*
X1048081Y3249665D01*
X1002361Y3219185D02*
X1032841Y3249665D01*
X987121Y3219185D02*
X1017601Y3249665D01*
X971881Y3219185D02*
X1002361Y3249665D01*
X956641Y3219185D02*
X987121Y3249665D01*
X941401Y3219185D02*
X971881Y3249665D01*
X926161Y3219185D02*
X956641Y3249665D01*
X910921Y3219185D02*
X941401Y3249665D01*
X895681Y3219185D02*
X926161Y3249665D01*
X880441Y3219185D02*
X910921Y3249665D01*
X870362Y3224345D02*
X895681Y3249665D01*
X870362Y3239586D02*
X880441Y3249665D01*
X1139521D02*
X1154761Y3264905D01*
X1124281Y3249665D02*
X1154761Y3280145D01*
X1109041Y3249665D02*
X1139521Y3280145D01*
X1093801Y3249665D02*
X1124281Y3280145D01*
X1078561Y3249665D02*
X1109041Y3280145D01*
X1063321Y3249665D02*
X1093801Y3280145D01*
X1048081Y3249665D02*
X1078561Y3280145D01*
X1032841Y3249665D02*
X1063321Y3280145D01*
X1017601Y3249665D02*
X1048081Y3280145D01*
X1002361Y3249665D02*
X1032841Y3280145D01*
X987121Y3249665D02*
X1017601Y3280145D01*
X971881Y3249665D02*
X1002361Y3280145D01*
X956641Y3249665D02*
X987121Y3280145D01*
X941401Y3249665D02*
X971881Y3280145D01*
X926161Y3249665D02*
X956641Y3280145D01*
X910921Y3249665D02*
X941401Y3280145D01*
X895681Y3249665D02*
X926161Y3280145D01*
X880441Y3249665D02*
X910921Y3280145D01*
X870362Y3254825D02*
X895681Y3280145D01*
X870362Y3270066D02*
X880441Y3280145D01*
M02*
