G04*
G04 #@! TF.GenerationSoftware,Altium Limited,Altium Designer,23.6.0 (18)*
G04*
G04 Layer_Color=255*
%FSLAX44Y44*%
%MOMM*%
G71*
G04*
G04 #@! TF.SameCoordinates,542A25E6-394C-4203-B619-F464005C6F94*
G04*
G04*
G04 #@! TF.FilePolarity,Positive*
G04*
G01*
G75*
%ADD10R,4.2000X4.2000*%
%ADD18R,0.5200X0.5200*%
%ADD19R,0.5200X0.5200*%
%ADD20R,0.7200X0.4500*%
%ADD21R,0.5500X0.4500*%
%ADD40R,0.6200X0.6200*%
%ADD41R,0.5000X0.6000*%
%ADD47C,1.0000*%
%ADD48C,1.3500*%
%ADD49C,0.6500*%
%ADD71R,0.9000X0.7000*%
%ADD72R,0.3000X0.8500*%
%ADD73R,0.4500X0.5500*%
%ADD74O,0.3000X0.8500*%
%ADD75R,0.7000X0.9000*%
%ADD76R,4.0000X1.5000*%
%ADD77R,0.4200X0.4200*%
%ADD78R,0.8000X1.0000*%
%ADD79R,0.8500X0.2800*%
%ADD80R,0.7500X0.2800*%
%ADD81R,0.6500X0.5500*%
%ADD82O,0.3000X0.6500*%
%ADD83O,0.6500X0.3000*%
%ADD84R,2.1000X2.1000*%
%ADD85R,1.6000X1.0000*%
%ADD86R,0.3000X0.4500*%
%ADD87R,0.3000X0.3000*%
%ADD88R,0.6000X1.6000*%
%ADD89R,1.4000X1.3000*%
%ADD90R,0.2000X0.6500*%
%ADD91R,1.4200X0.6100*%
%ADD92R,0.2500X0.7000*%
%ADD93R,1.0000X1.8000*%
%ADD94R,0.2500X0.2750*%
%ADD95R,0.2500X0.2750*%
D10*
X330875Y2243000D02*
D03*
X47630D02*
D03*
X613270D02*
D03*
X896020D02*
D03*
X1179130D02*
D03*
Y1848000D02*
D03*
X896020D02*
D03*
X613270D02*
D03*
X47630D02*
D03*
X330875D02*
D03*
Y1453000D02*
D03*
X47630D02*
D03*
X613270D02*
D03*
X896020D02*
D03*
X1179130D02*
D03*
X330870Y232000D02*
D03*
X613980D02*
D03*
X896730D02*
D03*
X1462370D02*
D03*
X1179125D02*
D03*
Y627000D02*
D03*
X1462370D02*
D03*
X896730D02*
D03*
X613980D02*
D03*
X330870D02*
D03*
Y1022000D02*
D03*
X613980D02*
D03*
X896730D02*
D03*
X1462370D02*
D03*
X1179125D02*
D03*
D18*
X1258000Y312000D02*
D03*
X1266000D02*
D03*
X1328500Y353745D02*
D03*
X1336500D02*
D03*
X1251250Y179750D02*
D03*
X1259250D02*
D03*
X1261000Y141600D02*
D03*
X1269000D02*
D03*
X1254800Y206500D02*
D03*
X1262800D02*
D03*
X1397000Y425000D02*
D03*
X1389000D02*
D03*
X1315950Y419000D02*
D03*
X1323950D02*
D03*
X1308500Y400300D02*
D03*
X1316500D02*
D03*
X1353551Y376600D02*
D03*
X1345551D02*
D03*
X1329500Y389645D02*
D03*
X1337500D02*
D03*
X1349300Y420500D02*
D03*
X1341300D02*
D03*
X1368900Y418719D02*
D03*
X1360900D02*
D03*
X1326875Y182110D02*
D03*
X1318875D02*
D03*
X1327250Y173568D02*
D03*
X1319250D02*
D03*
X1368900Y410149D02*
D03*
X1360900D02*
D03*
X1380818Y251000D02*
D03*
X1388818D02*
D03*
X1374118D02*
D03*
X1366118D02*
D03*
X1269546Y242176D02*
D03*
X1277546D02*
D03*
X1269500Y207350D02*
D03*
X1277500D02*
D03*
X1314750Y441400D02*
D03*
X1322750D02*
D03*
X1306625Y431750D02*
D03*
X1314625D02*
D03*
X1397000Y433600D02*
D03*
X1389000D02*
D03*
X1349300Y411250D02*
D03*
X1341300D02*
D03*
X1258000Y707000D02*
D03*
X1266000D02*
D03*
X1328500Y748745D02*
D03*
X1336500D02*
D03*
X1251250Y574750D02*
D03*
X1259250D02*
D03*
X1261000Y536600D02*
D03*
X1269000D02*
D03*
X1254800Y601500D02*
D03*
X1262800D02*
D03*
X1397000Y820000D02*
D03*
X1389000D02*
D03*
X1315950Y814000D02*
D03*
X1323950D02*
D03*
X1308500Y795300D02*
D03*
X1316500D02*
D03*
X1353551Y771600D02*
D03*
X1345551D02*
D03*
X1329500Y784645D02*
D03*
X1337500D02*
D03*
X1349300Y815500D02*
D03*
X1341300D02*
D03*
X1368900Y813719D02*
D03*
X1360900D02*
D03*
X1326875Y577109D02*
D03*
X1318875D02*
D03*
X1327250Y568568D02*
D03*
X1319250D02*
D03*
X1368900Y805149D02*
D03*
X1360900D02*
D03*
X1380818Y646000D02*
D03*
X1388818D02*
D03*
X1374118D02*
D03*
X1366118D02*
D03*
X1269546Y637176D02*
D03*
X1277546D02*
D03*
X1269500Y602350D02*
D03*
X1277500D02*
D03*
X1314750Y836400D02*
D03*
X1322750D02*
D03*
X1306625Y826750D02*
D03*
X1314625D02*
D03*
X1397000Y828600D02*
D03*
X1389000D02*
D03*
X1349300Y806250D02*
D03*
X1341300D02*
D03*
X1258000Y1102000D02*
D03*
X1266000D02*
D03*
X1328500Y1143745D02*
D03*
X1336500D02*
D03*
X1251250Y969750D02*
D03*
X1259250D02*
D03*
X1261000Y931600D02*
D03*
X1269000D02*
D03*
X1254800Y996500D02*
D03*
X1262800D02*
D03*
X1397000Y1215000D02*
D03*
X1389000D02*
D03*
X1315950Y1209000D02*
D03*
X1323950D02*
D03*
X1308500Y1190300D02*
D03*
X1316500D02*
D03*
X1353551Y1166600D02*
D03*
X1345551D02*
D03*
X1329500Y1179645D02*
D03*
X1337500D02*
D03*
X1349300Y1210500D02*
D03*
X1341300D02*
D03*
X1368900Y1208719D02*
D03*
X1360900D02*
D03*
X1326875Y972110D02*
D03*
X1318875D02*
D03*
X1327250Y963568D02*
D03*
X1319250D02*
D03*
X1368900Y1200149D02*
D03*
X1360900D02*
D03*
X1380818Y1041000D02*
D03*
X1388818D02*
D03*
X1374118D02*
D03*
X1366118D02*
D03*
X1269546Y1032176D02*
D03*
X1277546D02*
D03*
X1269500Y997350D02*
D03*
X1277500D02*
D03*
X1314750Y1231400D02*
D03*
X1322750D02*
D03*
X1306625Y1221750D02*
D03*
X1314625D02*
D03*
X1397000Y1223600D02*
D03*
X1389000D02*
D03*
X1349300Y1201250D02*
D03*
X1341300D02*
D03*
X975250Y312000D02*
D03*
X983250D02*
D03*
X1045750Y353745D02*
D03*
X1053750D02*
D03*
X968500Y179750D02*
D03*
X976500D02*
D03*
X978250Y141600D02*
D03*
X986250D02*
D03*
X972050Y206500D02*
D03*
X980050D02*
D03*
X1114250Y425000D02*
D03*
X1106250D02*
D03*
X1033200Y419000D02*
D03*
X1041200D02*
D03*
X1025750Y400300D02*
D03*
X1033750D02*
D03*
X1070800Y376600D02*
D03*
X1062801D02*
D03*
X1046750Y389645D02*
D03*
X1054750D02*
D03*
X1066550Y420500D02*
D03*
X1058550D02*
D03*
X1086150Y418719D02*
D03*
X1078150D02*
D03*
X1044125Y182110D02*
D03*
X1036125D02*
D03*
X1044500Y173568D02*
D03*
X1036500D02*
D03*
X1086150Y410149D02*
D03*
X1078150D02*
D03*
X1098068Y251000D02*
D03*
X1106068D02*
D03*
X1091367D02*
D03*
X1083367D02*
D03*
X986796Y242176D02*
D03*
X994796D02*
D03*
X986750Y207350D02*
D03*
X994750D02*
D03*
X1032000Y441400D02*
D03*
X1040000D02*
D03*
X1023875Y431750D02*
D03*
X1031875D02*
D03*
X1114250Y433600D02*
D03*
X1106250D02*
D03*
X1066550Y411250D02*
D03*
X1058550D02*
D03*
X975250Y707000D02*
D03*
X983250D02*
D03*
X1045750Y748745D02*
D03*
X1053750D02*
D03*
X968500Y574750D02*
D03*
X976500D02*
D03*
X978250Y536600D02*
D03*
X986250D02*
D03*
X972050Y601500D02*
D03*
X980050D02*
D03*
X1114250Y820000D02*
D03*
X1106250D02*
D03*
X1033200Y814000D02*
D03*
X1041200D02*
D03*
X1025750Y795300D02*
D03*
X1033750D02*
D03*
X1070800Y771600D02*
D03*
X1062801D02*
D03*
X1046750Y784645D02*
D03*
X1054750D02*
D03*
X1066550Y815500D02*
D03*
X1058550D02*
D03*
X1086150Y813719D02*
D03*
X1078150D02*
D03*
X1044125Y577109D02*
D03*
X1036125D02*
D03*
X1044500Y568568D02*
D03*
X1036500D02*
D03*
X1086150Y805149D02*
D03*
X1078150D02*
D03*
X1098068Y646000D02*
D03*
X1106068D02*
D03*
X1091367D02*
D03*
X1083367D02*
D03*
X986796Y637176D02*
D03*
X994796D02*
D03*
X986750Y602350D02*
D03*
X994750D02*
D03*
X1032000Y836400D02*
D03*
X1040000D02*
D03*
X1023875Y826750D02*
D03*
X1031875D02*
D03*
X1114250Y828600D02*
D03*
X1106250D02*
D03*
X1066550Y806250D02*
D03*
X1058550D02*
D03*
X975250Y1102000D02*
D03*
X983250D02*
D03*
X1045750Y1143745D02*
D03*
X1053750D02*
D03*
X968500Y969750D02*
D03*
X976500D02*
D03*
X978250Y931600D02*
D03*
X986250D02*
D03*
X972050Y996500D02*
D03*
X980050D02*
D03*
X1114250Y1215000D02*
D03*
X1106250D02*
D03*
X1033200Y1209000D02*
D03*
X1041200D02*
D03*
X1025750Y1190300D02*
D03*
X1033750D02*
D03*
X1070800Y1166600D02*
D03*
X1062801D02*
D03*
X1046750Y1179645D02*
D03*
X1054750D02*
D03*
X1066550Y1210500D02*
D03*
X1058550D02*
D03*
X1086150Y1208719D02*
D03*
X1078150D02*
D03*
X1044125Y972110D02*
D03*
X1036125D02*
D03*
X1044500Y963568D02*
D03*
X1036500D02*
D03*
X1086150Y1200149D02*
D03*
X1078150D02*
D03*
X1098068Y1041000D02*
D03*
X1106068D02*
D03*
X1091367D02*
D03*
X1083367D02*
D03*
X986796Y1032176D02*
D03*
X994796D02*
D03*
X986750Y997350D02*
D03*
X994750D02*
D03*
X1032000Y1231400D02*
D03*
X1040000D02*
D03*
X1023875Y1221750D02*
D03*
X1031875D02*
D03*
X1114250Y1223600D02*
D03*
X1106250D02*
D03*
X1066550Y1201250D02*
D03*
X1058550D02*
D03*
X692500Y312000D02*
D03*
X700500D02*
D03*
X763000Y353745D02*
D03*
X771000D02*
D03*
X685750Y179750D02*
D03*
X693750D02*
D03*
X695500Y141600D02*
D03*
X703500D02*
D03*
X689300Y206500D02*
D03*
X697300D02*
D03*
X831500Y425000D02*
D03*
X823500D02*
D03*
X750450Y419000D02*
D03*
X758450D02*
D03*
X743000Y400300D02*
D03*
X751000D02*
D03*
X788050Y376600D02*
D03*
X780050D02*
D03*
X764000Y389645D02*
D03*
X772000D02*
D03*
X783800Y420500D02*
D03*
X775800D02*
D03*
X803400Y418719D02*
D03*
X795400D02*
D03*
X761375Y182110D02*
D03*
X753375D02*
D03*
X761750Y173568D02*
D03*
X753750D02*
D03*
X803400Y410149D02*
D03*
X795400D02*
D03*
X815318Y251000D02*
D03*
X823318D02*
D03*
X808617D02*
D03*
X800617D02*
D03*
X704046Y242176D02*
D03*
X712046D02*
D03*
X704000Y207350D02*
D03*
X712000D02*
D03*
X749250Y441400D02*
D03*
X757250D02*
D03*
X741125Y431750D02*
D03*
X749125D02*
D03*
X831500Y433600D02*
D03*
X823500D02*
D03*
X783800Y411250D02*
D03*
X775800D02*
D03*
X692500Y707000D02*
D03*
X700500D02*
D03*
X763000Y748745D02*
D03*
X771000D02*
D03*
X685750Y574750D02*
D03*
X693750D02*
D03*
X695500Y536600D02*
D03*
X703500D02*
D03*
X689300Y601500D02*
D03*
X697300D02*
D03*
X831500Y820000D02*
D03*
X823500D02*
D03*
X750450Y814000D02*
D03*
X758450D02*
D03*
X743000Y795300D02*
D03*
X751000D02*
D03*
X788050Y771600D02*
D03*
X780050D02*
D03*
X764000Y784645D02*
D03*
X772000D02*
D03*
X783800Y815500D02*
D03*
X775800D02*
D03*
X803400Y813719D02*
D03*
X795400D02*
D03*
X761375Y577109D02*
D03*
X753375D02*
D03*
X761750Y568568D02*
D03*
X753750D02*
D03*
X803400Y805149D02*
D03*
X795400D02*
D03*
X815318Y646000D02*
D03*
X823318D02*
D03*
X808617D02*
D03*
X800617D02*
D03*
X704046Y637176D02*
D03*
X712046D02*
D03*
X704000Y602350D02*
D03*
X712000D02*
D03*
X749250Y836400D02*
D03*
X757250D02*
D03*
X741125Y826750D02*
D03*
X749125D02*
D03*
X831500Y828600D02*
D03*
X823500D02*
D03*
X783800Y806250D02*
D03*
X775800D02*
D03*
X692500Y1102000D02*
D03*
X700500D02*
D03*
X763000Y1143745D02*
D03*
X771000D02*
D03*
X685750Y969750D02*
D03*
X693750D02*
D03*
X695500Y931600D02*
D03*
X703500D02*
D03*
X689300Y996500D02*
D03*
X697300D02*
D03*
X831500Y1215000D02*
D03*
X823500D02*
D03*
X750450Y1209000D02*
D03*
X758450D02*
D03*
X743000Y1190300D02*
D03*
X751000D02*
D03*
X788050Y1166600D02*
D03*
X780050D02*
D03*
X764000Y1179645D02*
D03*
X772000D02*
D03*
X783800Y1210500D02*
D03*
X775800D02*
D03*
X803400Y1208719D02*
D03*
X795400D02*
D03*
X761375Y972110D02*
D03*
X753375D02*
D03*
X761750Y963568D02*
D03*
X753750D02*
D03*
X803400Y1200149D02*
D03*
X795400D02*
D03*
X815318Y1041000D02*
D03*
X823318D02*
D03*
X808617D02*
D03*
X800617D02*
D03*
X704046Y1032176D02*
D03*
X712046D02*
D03*
X704000Y997350D02*
D03*
X712000D02*
D03*
X749250Y1231400D02*
D03*
X757250D02*
D03*
X741125Y1221750D02*
D03*
X749125D02*
D03*
X831500Y1223600D02*
D03*
X823500D02*
D03*
X783800Y1201250D02*
D03*
X775800D02*
D03*
X409750Y312000D02*
D03*
X417750D02*
D03*
X480250Y353745D02*
D03*
X488250D02*
D03*
X403000Y179750D02*
D03*
X411000D02*
D03*
X412750Y141600D02*
D03*
X420750D02*
D03*
X406550Y206500D02*
D03*
X414550D02*
D03*
X548750Y425000D02*
D03*
X540750D02*
D03*
X467700Y419000D02*
D03*
X475700D02*
D03*
X460250Y400300D02*
D03*
X468250D02*
D03*
X505300Y376600D02*
D03*
X497300D02*
D03*
X481250Y389645D02*
D03*
X489250D02*
D03*
X501050Y420500D02*
D03*
X493050D02*
D03*
X520650Y418719D02*
D03*
X512650D02*
D03*
X478625Y182110D02*
D03*
X470625D02*
D03*
X479000Y173568D02*
D03*
X471000D02*
D03*
X520650Y410149D02*
D03*
X512650D02*
D03*
X532567Y251000D02*
D03*
X540568D02*
D03*
X525867D02*
D03*
X517867D02*
D03*
X421296Y242176D02*
D03*
X429296D02*
D03*
X421250Y207350D02*
D03*
X429250D02*
D03*
X466500Y441400D02*
D03*
X474500D02*
D03*
X458374Y431750D02*
D03*
X466375D02*
D03*
X548750Y433600D02*
D03*
X540750D02*
D03*
X501050Y411250D02*
D03*
X493050D02*
D03*
X409750Y707000D02*
D03*
X417750D02*
D03*
X480250Y748745D02*
D03*
X488250D02*
D03*
X403000Y574750D02*
D03*
X411000D02*
D03*
X412750Y536600D02*
D03*
X420750D02*
D03*
X406550Y601500D02*
D03*
X414550D02*
D03*
X548750Y820000D02*
D03*
X540750D02*
D03*
X467700Y814000D02*
D03*
X475700D02*
D03*
X460250Y795300D02*
D03*
X468250D02*
D03*
X505300Y771600D02*
D03*
X497300D02*
D03*
X481250Y784645D02*
D03*
X489250D02*
D03*
X501050Y815500D02*
D03*
X493050D02*
D03*
X520650Y813719D02*
D03*
X512650D02*
D03*
X478625Y577109D02*
D03*
X470625D02*
D03*
X479000Y568568D02*
D03*
X471000D02*
D03*
X520650Y805149D02*
D03*
X512650D02*
D03*
X532567Y646000D02*
D03*
X540568D02*
D03*
X525867D02*
D03*
X517867D02*
D03*
X421296Y637176D02*
D03*
X429296D02*
D03*
X421250Y602350D02*
D03*
X429250D02*
D03*
X466500Y836400D02*
D03*
X474500D02*
D03*
X458374Y826750D02*
D03*
X466375D02*
D03*
X548750Y828600D02*
D03*
X540750D02*
D03*
X501050Y806250D02*
D03*
X493050D02*
D03*
X409750Y1102000D02*
D03*
X417750D02*
D03*
X480250Y1143745D02*
D03*
X488250D02*
D03*
X403000Y969750D02*
D03*
X411000D02*
D03*
X412750Y931600D02*
D03*
X420750D02*
D03*
X406550Y996500D02*
D03*
X414550D02*
D03*
X548750Y1215000D02*
D03*
X540750D02*
D03*
X467700Y1209000D02*
D03*
X475700D02*
D03*
X460250Y1190300D02*
D03*
X468250D02*
D03*
X505300Y1166600D02*
D03*
X497300D02*
D03*
X481250Y1179645D02*
D03*
X489250D02*
D03*
X501050Y1210500D02*
D03*
X493050D02*
D03*
X520650Y1208719D02*
D03*
X512650D02*
D03*
X478625Y972110D02*
D03*
X470625D02*
D03*
X479000Y963568D02*
D03*
X471000D02*
D03*
X520650Y1200149D02*
D03*
X512650D02*
D03*
X532567Y1041000D02*
D03*
X540568D02*
D03*
X525867D02*
D03*
X517867D02*
D03*
X421296Y1032176D02*
D03*
X429296D02*
D03*
X421250Y997350D02*
D03*
X429250D02*
D03*
X466500Y1231400D02*
D03*
X474500D02*
D03*
X458374Y1221750D02*
D03*
X466375D02*
D03*
X548750Y1223600D02*
D03*
X540750D02*
D03*
X501050Y1201250D02*
D03*
X493050D02*
D03*
X127000Y312000D02*
D03*
X135000D02*
D03*
X197500Y353745D02*
D03*
X205500D02*
D03*
X120250Y179750D02*
D03*
X128250D02*
D03*
X130000Y141600D02*
D03*
X138000D02*
D03*
X123800Y206500D02*
D03*
X131800D02*
D03*
X266000Y425000D02*
D03*
X258000D02*
D03*
X184950Y419000D02*
D03*
X192950D02*
D03*
X177500Y400300D02*
D03*
X185500D02*
D03*
X222550Y376600D02*
D03*
X214550D02*
D03*
X198500Y389645D02*
D03*
X206500D02*
D03*
X218300Y420500D02*
D03*
X210300D02*
D03*
X237900Y418719D02*
D03*
X229900D02*
D03*
X195875Y182110D02*
D03*
X187875D02*
D03*
X196250Y173568D02*
D03*
X188250D02*
D03*
X237900Y410149D02*
D03*
X229900D02*
D03*
X249817Y251000D02*
D03*
X257817D02*
D03*
X243117D02*
D03*
X235117D02*
D03*
X138546Y242176D02*
D03*
X146546D02*
D03*
X138500Y207350D02*
D03*
X146500D02*
D03*
X183750Y441400D02*
D03*
X191750D02*
D03*
X175624Y431750D02*
D03*
X183624D02*
D03*
X266000Y433600D02*
D03*
X258000D02*
D03*
X218300Y411250D02*
D03*
X210300D02*
D03*
X127000Y707000D02*
D03*
X135000D02*
D03*
X197500Y748745D02*
D03*
X205500D02*
D03*
X120250Y574750D02*
D03*
X128250D02*
D03*
X130000Y536600D02*
D03*
X138000D02*
D03*
X123800Y601500D02*
D03*
X131800D02*
D03*
X266000Y820000D02*
D03*
X258000D02*
D03*
X184950Y814000D02*
D03*
X192950D02*
D03*
X177500Y795300D02*
D03*
X185500D02*
D03*
X222550Y771600D02*
D03*
X214550D02*
D03*
X198500Y784645D02*
D03*
X206500D02*
D03*
X218300Y815500D02*
D03*
X210300D02*
D03*
X237900Y813719D02*
D03*
X229900D02*
D03*
X195875Y577109D02*
D03*
X187875D02*
D03*
X196250Y568568D02*
D03*
X188250D02*
D03*
X237900Y805149D02*
D03*
X229900D02*
D03*
X249817Y646000D02*
D03*
X257817D02*
D03*
X243117D02*
D03*
X235117D02*
D03*
X138546Y637176D02*
D03*
X146546D02*
D03*
X138500Y602350D02*
D03*
X146500D02*
D03*
X183750Y836400D02*
D03*
X191750D02*
D03*
X175624Y826750D02*
D03*
X183624D02*
D03*
X266000Y828600D02*
D03*
X258000D02*
D03*
X218300Y806250D02*
D03*
X210300D02*
D03*
X127000Y1102000D02*
D03*
X135000D02*
D03*
X197500Y1143745D02*
D03*
X205500D02*
D03*
X120250Y969750D02*
D03*
X128250D02*
D03*
X130000Y931600D02*
D03*
X138000D02*
D03*
X123800Y996500D02*
D03*
X131800D02*
D03*
X266000Y1215000D02*
D03*
X258000D02*
D03*
X184950Y1209000D02*
D03*
X192950D02*
D03*
X177500Y1190300D02*
D03*
X185500D02*
D03*
X222550Y1166600D02*
D03*
X214550D02*
D03*
X198500Y1179645D02*
D03*
X206500D02*
D03*
X218300Y1210500D02*
D03*
X210300D02*
D03*
X237900Y1208719D02*
D03*
X229900D02*
D03*
X195875Y972110D02*
D03*
X187875D02*
D03*
X196250Y963568D02*
D03*
X188250D02*
D03*
X237900Y1200149D02*
D03*
X229900D02*
D03*
X249817Y1041000D02*
D03*
X257817D02*
D03*
X243117D02*
D03*
X235117D02*
D03*
X138546Y1032176D02*
D03*
X146546D02*
D03*
X138500Y997350D02*
D03*
X146500D02*
D03*
X183750Y1231400D02*
D03*
X191750D02*
D03*
X175624Y1221750D02*
D03*
X183624D02*
D03*
X266000Y1223600D02*
D03*
X258000D02*
D03*
X218300Y1201250D02*
D03*
X210300D02*
D03*
X252000Y2163000D02*
D03*
X244000D02*
D03*
X181500Y2121255D02*
D03*
X173500D02*
D03*
X258750Y2295250D02*
D03*
X250750D02*
D03*
X249000Y2333400D02*
D03*
X241000D02*
D03*
X255200Y2268500D02*
D03*
X247200D02*
D03*
X113000Y2050000D02*
D03*
X121000D02*
D03*
X194050Y2056000D02*
D03*
X186050D02*
D03*
X201500Y2074700D02*
D03*
X193500D02*
D03*
X156449Y2098400D02*
D03*
X164449D02*
D03*
X180500Y2085355D02*
D03*
X172500D02*
D03*
X160700Y2054500D02*
D03*
X168700D02*
D03*
X141100Y2056281D02*
D03*
X149100D02*
D03*
X183125Y2292890D02*
D03*
X191125D02*
D03*
X182750Y2301431D02*
D03*
X190750D02*
D03*
X141100Y2064851D02*
D03*
X149100D02*
D03*
X129182Y2224000D02*
D03*
X121182D02*
D03*
X135882D02*
D03*
X143882D02*
D03*
X240454Y2232824D02*
D03*
X232454D02*
D03*
X240500Y2267650D02*
D03*
X232500D02*
D03*
X195250Y2033600D02*
D03*
X187250D02*
D03*
X203375Y2043250D02*
D03*
X195375D02*
D03*
X113000Y2041400D02*
D03*
X121000D02*
D03*
X160700Y2063750D02*
D03*
X168700D02*
D03*
X252000Y1768000D02*
D03*
X244000D02*
D03*
X181500Y1726255D02*
D03*
X173500D02*
D03*
X258750Y1900250D02*
D03*
X250750D02*
D03*
X249000Y1938400D02*
D03*
X241000D02*
D03*
X255200Y1873500D02*
D03*
X247200D02*
D03*
X113000Y1655000D02*
D03*
X121000D02*
D03*
X194050Y1661000D02*
D03*
X186050D02*
D03*
X201500Y1679700D02*
D03*
X193500D02*
D03*
X156449Y1703400D02*
D03*
X164449D02*
D03*
X180500Y1690355D02*
D03*
X172500D02*
D03*
X160700Y1659500D02*
D03*
X168700D02*
D03*
X141100Y1661281D02*
D03*
X149100D02*
D03*
X183125Y1897890D02*
D03*
X191125D02*
D03*
X182750Y1906431D02*
D03*
X190750D02*
D03*
X141100Y1669851D02*
D03*
X149100D02*
D03*
X129182Y1829000D02*
D03*
X121182D02*
D03*
X135882D02*
D03*
X143882D02*
D03*
X240454Y1837824D02*
D03*
X232454D02*
D03*
X240500Y1872650D02*
D03*
X232500D02*
D03*
X195250Y1638600D02*
D03*
X187250D02*
D03*
X203375Y1648250D02*
D03*
X195375D02*
D03*
X113000Y1646400D02*
D03*
X121000D02*
D03*
X160700Y1668750D02*
D03*
X168700D02*
D03*
X252000Y1373000D02*
D03*
X244000D02*
D03*
X181500Y1331255D02*
D03*
X173500D02*
D03*
X258750Y1505250D02*
D03*
X250750D02*
D03*
X249000Y1543400D02*
D03*
X241000D02*
D03*
X255200Y1478500D02*
D03*
X247200D02*
D03*
X113000Y1260000D02*
D03*
X121000D02*
D03*
X194050Y1266000D02*
D03*
X186050D02*
D03*
X201500Y1284700D02*
D03*
X193500D02*
D03*
X156449Y1308400D02*
D03*
X164449D02*
D03*
X180500Y1295355D02*
D03*
X172500D02*
D03*
X160700Y1264500D02*
D03*
X168700D02*
D03*
X141100Y1266281D02*
D03*
X149100D02*
D03*
X183125Y1502890D02*
D03*
X191125D02*
D03*
X182750Y1511431D02*
D03*
X190750D02*
D03*
X141100Y1274851D02*
D03*
X149100D02*
D03*
X129182Y1434000D02*
D03*
X121182D02*
D03*
X135882D02*
D03*
X143882D02*
D03*
X240454Y1442824D02*
D03*
X232454D02*
D03*
X240500Y1477650D02*
D03*
X232500D02*
D03*
X195250Y1243600D02*
D03*
X187250D02*
D03*
X203375Y1253250D02*
D03*
X195375D02*
D03*
X113000Y1251400D02*
D03*
X121000D02*
D03*
X160700Y1273750D02*
D03*
X168700D02*
D03*
X534750Y2163000D02*
D03*
X526750D02*
D03*
X464250Y2121255D02*
D03*
X456250D02*
D03*
X541500Y2295250D02*
D03*
X533500D02*
D03*
X531750Y2333400D02*
D03*
X523750D02*
D03*
X537950Y2268500D02*
D03*
X529950D02*
D03*
X395750Y2050000D02*
D03*
X403750D02*
D03*
X476800Y2056000D02*
D03*
X468800D02*
D03*
X484250Y2074700D02*
D03*
X476250D02*
D03*
X439199Y2098400D02*
D03*
X447200D02*
D03*
X463250Y2085355D02*
D03*
X455250D02*
D03*
X443450Y2054500D02*
D03*
X451450D02*
D03*
X423850Y2056281D02*
D03*
X431850D02*
D03*
X465875Y2292890D02*
D03*
X473875D02*
D03*
X465500Y2301431D02*
D03*
X473500D02*
D03*
X423850Y2064851D02*
D03*
X431850D02*
D03*
X411932Y2224000D02*
D03*
X403932D02*
D03*
X418633D02*
D03*
X426632D02*
D03*
X523204Y2232824D02*
D03*
X515204D02*
D03*
X523250Y2267650D02*
D03*
X515250D02*
D03*
X478000Y2033600D02*
D03*
X470000D02*
D03*
X486125Y2043250D02*
D03*
X478125D02*
D03*
X395750Y2041400D02*
D03*
X403750D02*
D03*
X443450Y2063750D02*
D03*
X451450D02*
D03*
X534750Y1768000D02*
D03*
X526750D02*
D03*
X464250Y1726255D02*
D03*
X456250D02*
D03*
X541500Y1900250D02*
D03*
X533500D02*
D03*
X531750Y1938400D02*
D03*
X523750D02*
D03*
X537950Y1873500D02*
D03*
X529950D02*
D03*
X395750Y1655000D02*
D03*
X403750D02*
D03*
X476800Y1661000D02*
D03*
X468800D02*
D03*
X484250Y1679700D02*
D03*
X476250D02*
D03*
X439199Y1703400D02*
D03*
X447200D02*
D03*
X463250Y1690355D02*
D03*
X455250D02*
D03*
X443450Y1659500D02*
D03*
X451450D02*
D03*
X423850Y1661281D02*
D03*
X431850D02*
D03*
X465875Y1897890D02*
D03*
X473875D02*
D03*
X465500Y1906431D02*
D03*
X473500D02*
D03*
X423850Y1669851D02*
D03*
X431850D02*
D03*
X411932Y1829000D02*
D03*
X403932D02*
D03*
X418633D02*
D03*
X426632D02*
D03*
X523204Y1837824D02*
D03*
X515204D02*
D03*
X523250Y1872650D02*
D03*
X515250D02*
D03*
X478000Y1638600D02*
D03*
X470000D02*
D03*
X486125Y1648250D02*
D03*
X478125D02*
D03*
X395750Y1646400D02*
D03*
X403750D02*
D03*
X443450Y1668750D02*
D03*
X451450D02*
D03*
X534750Y1373000D02*
D03*
X526750D02*
D03*
X464250Y1331255D02*
D03*
X456250D02*
D03*
X541500Y1505250D02*
D03*
X533500D02*
D03*
X531750Y1543400D02*
D03*
X523750D02*
D03*
X537950Y1478500D02*
D03*
X529950D02*
D03*
X395750Y1260000D02*
D03*
X403750D02*
D03*
X476800Y1266000D02*
D03*
X468800D02*
D03*
X484250Y1284700D02*
D03*
X476250D02*
D03*
X439199Y1308400D02*
D03*
X447200D02*
D03*
X463250Y1295355D02*
D03*
X455250D02*
D03*
X443450Y1264500D02*
D03*
X451450D02*
D03*
X423850Y1266281D02*
D03*
X431850D02*
D03*
X465875Y1502890D02*
D03*
X473875D02*
D03*
X465500Y1511431D02*
D03*
X473500D02*
D03*
X423850Y1274851D02*
D03*
X431850D02*
D03*
X411932Y1434000D02*
D03*
X403932D02*
D03*
X418633D02*
D03*
X426632D02*
D03*
X523204Y1442824D02*
D03*
X515204D02*
D03*
X523250Y1477650D02*
D03*
X515250D02*
D03*
X478000Y1243600D02*
D03*
X470000D02*
D03*
X486125Y1253250D02*
D03*
X478125D02*
D03*
X395750Y1251400D02*
D03*
X403750D02*
D03*
X443450Y1273750D02*
D03*
X451450D02*
D03*
X817500Y2163000D02*
D03*
X809500D02*
D03*
X747000Y2121255D02*
D03*
X739000D02*
D03*
X824250Y2295250D02*
D03*
X816250D02*
D03*
X814500Y2333400D02*
D03*
X806500D02*
D03*
X820700Y2268500D02*
D03*
X812700D02*
D03*
X678500Y2050000D02*
D03*
X686500D02*
D03*
X759550Y2056000D02*
D03*
X751550D02*
D03*
X767000Y2074700D02*
D03*
X759000D02*
D03*
X721950Y2098400D02*
D03*
X729950D02*
D03*
X746000Y2085355D02*
D03*
X738000D02*
D03*
X726200Y2054500D02*
D03*
X734200D02*
D03*
X706600Y2056281D02*
D03*
X714600D02*
D03*
X748625Y2292890D02*
D03*
X756625D02*
D03*
X748250Y2301431D02*
D03*
X756250D02*
D03*
X706600Y2064851D02*
D03*
X714600D02*
D03*
X694682Y2224000D02*
D03*
X686682D02*
D03*
X701383D02*
D03*
X709383D02*
D03*
X805954Y2232824D02*
D03*
X797954D02*
D03*
X806000Y2267650D02*
D03*
X798000D02*
D03*
X760750Y2033600D02*
D03*
X752750D02*
D03*
X768875Y2043250D02*
D03*
X760875D02*
D03*
X678500Y2041400D02*
D03*
X686500D02*
D03*
X726200Y2063750D02*
D03*
X734200D02*
D03*
X817500Y1768000D02*
D03*
X809500D02*
D03*
X747000Y1726255D02*
D03*
X739000D02*
D03*
X824250Y1900250D02*
D03*
X816250D02*
D03*
X814500Y1938400D02*
D03*
X806500D02*
D03*
X820700Y1873500D02*
D03*
X812700D02*
D03*
X678500Y1655000D02*
D03*
X686500D02*
D03*
X759550Y1661000D02*
D03*
X751550D02*
D03*
X767000Y1679700D02*
D03*
X759000D02*
D03*
X721950Y1703400D02*
D03*
X729950D02*
D03*
X746000Y1690355D02*
D03*
X738000D02*
D03*
X726200Y1659500D02*
D03*
X734200D02*
D03*
X706600Y1661281D02*
D03*
X714600D02*
D03*
X748625Y1897890D02*
D03*
X756625D02*
D03*
X748250Y1906431D02*
D03*
X756250D02*
D03*
X706600Y1669851D02*
D03*
X714600D02*
D03*
X694682Y1829000D02*
D03*
X686682D02*
D03*
X701383D02*
D03*
X709383D02*
D03*
X805954Y1837824D02*
D03*
X797954D02*
D03*
X806000Y1872650D02*
D03*
X798000D02*
D03*
X760750Y1638600D02*
D03*
X752750D02*
D03*
X768875Y1648250D02*
D03*
X760875D02*
D03*
X678500Y1646400D02*
D03*
X686500D02*
D03*
X726200Y1668750D02*
D03*
X734200D02*
D03*
X817500Y1373000D02*
D03*
X809500D02*
D03*
X747000Y1331255D02*
D03*
X739000D02*
D03*
X824250Y1505250D02*
D03*
X816250D02*
D03*
X814500Y1543400D02*
D03*
X806500D02*
D03*
X820700Y1478500D02*
D03*
X812700D02*
D03*
X678500Y1260000D02*
D03*
X686500D02*
D03*
X759550Y1266000D02*
D03*
X751550D02*
D03*
X767000Y1284700D02*
D03*
X759000D02*
D03*
X721950Y1308400D02*
D03*
X729950D02*
D03*
X746000Y1295355D02*
D03*
X738000D02*
D03*
X726200Y1264500D02*
D03*
X734200D02*
D03*
X706600Y1266281D02*
D03*
X714600D02*
D03*
X748625Y1502890D02*
D03*
X756625D02*
D03*
X748250Y1511431D02*
D03*
X756250D02*
D03*
X706600Y1274851D02*
D03*
X714600D02*
D03*
X694682Y1434000D02*
D03*
X686682D02*
D03*
X701383D02*
D03*
X709383D02*
D03*
X805954Y1442824D02*
D03*
X797954D02*
D03*
X806000Y1477650D02*
D03*
X798000D02*
D03*
X760750Y1243600D02*
D03*
X752750D02*
D03*
X768875Y1253250D02*
D03*
X760875D02*
D03*
X678500Y1251400D02*
D03*
X686500D02*
D03*
X726200Y1273750D02*
D03*
X734200D02*
D03*
X1100250Y2163000D02*
D03*
X1092250D02*
D03*
X1029750Y2121255D02*
D03*
X1021750D02*
D03*
X1107000Y2295250D02*
D03*
X1099000D02*
D03*
X1097250Y2333400D02*
D03*
X1089250D02*
D03*
X1103450Y2268500D02*
D03*
X1095450D02*
D03*
X961250Y2050000D02*
D03*
X969250D02*
D03*
X1042300Y2056000D02*
D03*
X1034300D02*
D03*
X1049750Y2074700D02*
D03*
X1041750D02*
D03*
X1004700Y2098400D02*
D03*
X1012700D02*
D03*
X1028750Y2085355D02*
D03*
X1020750D02*
D03*
X1008950Y2054500D02*
D03*
X1016950D02*
D03*
X989350Y2056281D02*
D03*
X997350D02*
D03*
X1031375Y2292890D02*
D03*
X1039375D02*
D03*
X1031000Y2301431D02*
D03*
X1039000D02*
D03*
X989350Y2064851D02*
D03*
X997350D02*
D03*
X977432Y2224000D02*
D03*
X969433D02*
D03*
X984133D02*
D03*
X992133D02*
D03*
X1088704Y2232824D02*
D03*
X1080704D02*
D03*
X1088750Y2267650D02*
D03*
X1080750D02*
D03*
X1043500Y2033600D02*
D03*
X1035500D02*
D03*
X1051626Y2043250D02*
D03*
X1043625D02*
D03*
X961250Y2041400D02*
D03*
X969250D02*
D03*
X1008950Y2063750D02*
D03*
X1016950D02*
D03*
X1100250Y1768000D02*
D03*
X1092250D02*
D03*
X1029750Y1726255D02*
D03*
X1021750D02*
D03*
X1107000Y1900250D02*
D03*
X1099000D02*
D03*
X1097250Y1938400D02*
D03*
X1089250D02*
D03*
X1103450Y1873500D02*
D03*
X1095450D02*
D03*
X961250Y1655000D02*
D03*
X969250D02*
D03*
X1042300Y1661000D02*
D03*
X1034300D02*
D03*
X1049750Y1679700D02*
D03*
X1041750D02*
D03*
X1004700Y1703400D02*
D03*
X1012700D02*
D03*
X1028750Y1690355D02*
D03*
X1020750D02*
D03*
X1008950Y1659500D02*
D03*
X1016950D02*
D03*
X989350Y1661281D02*
D03*
X997350D02*
D03*
X1031375Y1897890D02*
D03*
X1039375D02*
D03*
X1031000Y1906431D02*
D03*
X1039000D02*
D03*
X989350Y1669851D02*
D03*
X997350D02*
D03*
X977432Y1829000D02*
D03*
X969433D02*
D03*
X984133D02*
D03*
X992133D02*
D03*
X1088704Y1837824D02*
D03*
X1080704D02*
D03*
X1088750Y1872650D02*
D03*
X1080750D02*
D03*
X1043500Y1638600D02*
D03*
X1035500D02*
D03*
X1051626Y1648250D02*
D03*
X1043625D02*
D03*
X961250Y1646400D02*
D03*
X969250D02*
D03*
X1008950Y1668750D02*
D03*
X1016950D02*
D03*
X1100250Y1373000D02*
D03*
X1092250D02*
D03*
X1029750Y1331255D02*
D03*
X1021750D02*
D03*
X1107000Y1505250D02*
D03*
X1099000D02*
D03*
X1097250Y1543400D02*
D03*
X1089250D02*
D03*
X1103450Y1478500D02*
D03*
X1095450D02*
D03*
X961250Y1260000D02*
D03*
X969250D02*
D03*
X1042300Y1266000D02*
D03*
X1034300D02*
D03*
X1049750Y1284700D02*
D03*
X1041750D02*
D03*
X1004700Y1308400D02*
D03*
X1012700D02*
D03*
X1028750Y1295355D02*
D03*
X1020750D02*
D03*
X1008950Y1264500D02*
D03*
X1016950D02*
D03*
X989350Y1266281D02*
D03*
X997350D02*
D03*
X1031375Y1502890D02*
D03*
X1039375D02*
D03*
X1031000Y1511431D02*
D03*
X1039000D02*
D03*
X989350Y1274851D02*
D03*
X997350D02*
D03*
X977432Y1434000D02*
D03*
X969433D02*
D03*
X984133D02*
D03*
X992133D02*
D03*
X1088704Y1442824D02*
D03*
X1080704D02*
D03*
X1088750Y1477650D02*
D03*
X1080750D02*
D03*
X1043500Y1243600D02*
D03*
X1035500D02*
D03*
X1051626Y1253250D02*
D03*
X1043625D02*
D03*
X961250Y1251400D02*
D03*
X969250D02*
D03*
X1008950Y1273750D02*
D03*
X1016950D02*
D03*
X1383000Y2163000D02*
D03*
X1375000D02*
D03*
X1312500Y2121255D02*
D03*
X1304500D02*
D03*
X1389750Y2295250D02*
D03*
X1381750D02*
D03*
X1380000Y2333400D02*
D03*
X1372000D02*
D03*
X1386200Y2268500D02*
D03*
X1378200D02*
D03*
X1244000Y2050000D02*
D03*
X1252000D02*
D03*
X1325050Y2056000D02*
D03*
X1317050D02*
D03*
X1332500Y2074700D02*
D03*
X1324500D02*
D03*
X1287450Y2098400D02*
D03*
X1295450D02*
D03*
X1311500Y2085355D02*
D03*
X1303500D02*
D03*
X1291700Y2054500D02*
D03*
X1299700D02*
D03*
X1272100Y2056281D02*
D03*
X1280100D02*
D03*
X1314125Y2292890D02*
D03*
X1322125D02*
D03*
X1313750Y2301431D02*
D03*
X1321750D02*
D03*
X1272100Y2064851D02*
D03*
X1280100D02*
D03*
X1260183Y2224000D02*
D03*
X1252183D02*
D03*
X1266883D02*
D03*
X1274883D02*
D03*
X1371454Y2232824D02*
D03*
X1363454D02*
D03*
X1371500Y2267650D02*
D03*
X1363500D02*
D03*
X1326250Y2033600D02*
D03*
X1318250D02*
D03*
X1334376Y2043250D02*
D03*
X1326376D02*
D03*
X1244000Y2041400D02*
D03*
X1252000D02*
D03*
X1291700Y2063750D02*
D03*
X1299700D02*
D03*
X1383000Y1768000D02*
D03*
X1375000D02*
D03*
X1312500Y1726255D02*
D03*
X1304500D02*
D03*
X1389750Y1900250D02*
D03*
X1381750D02*
D03*
X1380000Y1938400D02*
D03*
X1372000D02*
D03*
X1386200Y1873500D02*
D03*
X1378200D02*
D03*
X1244000Y1655000D02*
D03*
X1252000D02*
D03*
X1325050Y1661000D02*
D03*
X1317050D02*
D03*
X1332500Y1679700D02*
D03*
X1324500D02*
D03*
X1287450Y1703400D02*
D03*
X1295450D02*
D03*
X1311500Y1690355D02*
D03*
X1303500D02*
D03*
X1291700Y1659500D02*
D03*
X1299700D02*
D03*
X1272100Y1661281D02*
D03*
X1280100D02*
D03*
X1314125Y1897890D02*
D03*
X1322125D02*
D03*
X1313750Y1906431D02*
D03*
X1321750D02*
D03*
X1272100Y1669851D02*
D03*
X1280100D02*
D03*
X1260183Y1829000D02*
D03*
X1252183D02*
D03*
X1266883D02*
D03*
X1274883D02*
D03*
X1371454Y1837824D02*
D03*
X1363454D02*
D03*
X1371500Y1872650D02*
D03*
X1363500D02*
D03*
X1326250Y1638600D02*
D03*
X1318250D02*
D03*
X1334376Y1648250D02*
D03*
X1326376D02*
D03*
X1244000Y1646400D02*
D03*
X1252000D02*
D03*
X1291700Y1668750D02*
D03*
X1299700D02*
D03*
X1383000Y1373000D02*
D03*
X1375000D02*
D03*
X1312500Y1331255D02*
D03*
X1304500D02*
D03*
X1389750Y1505250D02*
D03*
X1381750D02*
D03*
X1380000Y1543400D02*
D03*
X1372000D02*
D03*
X1386200Y1478500D02*
D03*
X1378200D02*
D03*
X1244000Y1260000D02*
D03*
X1252000D02*
D03*
X1325050Y1266000D02*
D03*
X1317050D02*
D03*
X1332500Y1284700D02*
D03*
X1324500D02*
D03*
X1287450Y1308400D02*
D03*
X1295450D02*
D03*
X1311500Y1295355D02*
D03*
X1303500D02*
D03*
X1291700Y1264500D02*
D03*
X1299700D02*
D03*
X1272100Y1266281D02*
D03*
X1280100D02*
D03*
X1314125Y1502890D02*
D03*
X1322125D02*
D03*
X1313750Y1511431D02*
D03*
X1321750D02*
D03*
X1272100Y1274851D02*
D03*
X1280100D02*
D03*
X1260183Y1434000D02*
D03*
X1252183D02*
D03*
X1266883D02*
D03*
X1274883D02*
D03*
X1371454Y1442824D02*
D03*
X1363454D02*
D03*
X1371500Y1477650D02*
D03*
X1363500D02*
D03*
X1326250Y1243600D02*
D03*
X1318250D02*
D03*
X1334376Y1253250D02*
D03*
X1326376D02*
D03*
X1244000Y1251400D02*
D03*
X1252000D02*
D03*
X1291700Y1273750D02*
D03*
X1299700D02*
D03*
D19*
X1236950Y302250D02*
D03*
Y310250D02*
D03*
X1290251Y134500D02*
D03*
Y142500D02*
D03*
X1245750Y233250D02*
D03*
Y225250D02*
D03*
X1358900Y257083D02*
D03*
Y265083D02*
D03*
X1370750Y332162D02*
D03*
Y324162D02*
D03*
X1391500Y411376D02*
D03*
Y403376D02*
D03*
X1400050Y411376D02*
D03*
Y403376D02*
D03*
X1236950Y697250D02*
D03*
Y705250D02*
D03*
X1290251Y529500D02*
D03*
Y537500D02*
D03*
X1245750Y628250D02*
D03*
Y620250D02*
D03*
X1358900Y652083D02*
D03*
Y660083D02*
D03*
X1370750Y727162D02*
D03*
Y719162D02*
D03*
X1391500Y806376D02*
D03*
Y798375D02*
D03*
X1400050Y806376D02*
D03*
Y798375D02*
D03*
X1236950Y1092250D02*
D03*
Y1100250D02*
D03*
X1290251Y924500D02*
D03*
Y932500D02*
D03*
X1245750Y1023250D02*
D03*
Y1015250D02*
D03*
X1358900Y1047083D02*
D03*
Y1055083D02*
D03*
X1370750Y1122162D02*
D03*
Y1114162D02*
D03*
X1391500Y1201376D02*
D03*
Y1193375D02*
D03*
X1400050Y1201376D02*
D03*
Y1193375D02*
D03*
X954200Y302250D02*
D03*
Y310250D02*
D03*
X1007501Y134500D02*
D03*
Y142500D02*
D03*
X963000Y233250D02*
D03*
Y225250D02*
D03*
X1076150Y257083D02*
D03*
Y265083D02*
D03*
X1088000Y332162D02*
D03*
Y324162D02*
D03*
X1108750Y411376D02*
D03*
Y403376D02*
D03*
X1117300Y411376D02*
D03*
Y403376D02*
D03*
X954200Y697250D02*
D03*
Y705250D02*
D03*
X1007501Y529500D02*
D03*
Y537500D02*
D03*
X963000Y628250D02*
D03*
Y620250D02*
D03*
X1076150Y652083D02*
D03*
Y660083D02*
D03*
X1088000Y727162D02*
D03*
Y719162D02*
D03*
X1108750Y806376D02*
D03*
Y798375D02*
D03*
X1117300Y806376D02*
D03*
Y798375D02*
D03*
X954200Y1092250D02*
D03*
Y1100250D02*
D03*
X1007501Y924500D02*
D03*
Y932500D02*
D03*
X963000Y1023250D02*
D03*
Y1015250D02*
D03*
X1076150Y1047083D02*
D03*
Y1055083D02*
D03*
X1088000Y1122162D02*
D03*
Y1114162D02*
D03*
X1108750Y1201376D02*
D03*
Y1193375D02*
D03*
X1117300Y1201376D02*
D03*
Y1193375D02*
D03*
X671450Y302250D02*
D03*
Y310250D02*
D03*
X724751Y134500D02*
D03*
Y142500D02*
D03*
X680250Y233250D02*
D03*
Y225250D02*
D03*
X793400Y257083D02*
D03*
Y265083D02*
D03*
X805250Y332162D02*
D03*
Y324162D02*
D03*
X826000Y411376D02*
D03*
Y403376D02*
D03*
X834550Y411376D02*
D03*
Y403376D02*
D03*
X671450Y697250D02*
D03*
Y705250D02*
D03*
X724751Y529500D02*
D03*
Y537500D02*
D03*
X680250Y628250D02*
D03*
Y620250D02*
D03*
X793400Y652083D02*
D03*
Y660083D02*
D03*
X805250Y727162D02*
D03*
Y719162D02*
D03*
X826000Y806376D02*
D03*
Y798375D02*
D03*
X834550Y806376D02*
D03*
Y798375D02*
D03*
X671450Y1092250D02*
D03*
Y1100250D02*
D03*
X724751Y924500D02*
D03*
Y932500D02*
D03*
X680250Y1023250D02*
D03*
Y1015250D02*
D03*
X793400Y1047083D02*
D03*
Y1055083D02*
D03*
X805250Y1122162D02*
D03*
Y1114162D02*
D03*
X826000Y1201376D02*
D03*
Y1193375D02*
D03*
X834550Y1201376D02*
D03*
Y1193375D02*
D03*
X388700Y302250D02*
D03*
Y310250D02*
D03*
X442001Y134500D02*
D03*
Y142500D02*
D03*
X397500Y233250D02*
D03*
Y225250D02*
D03*
X510650Y257083D02*
D03*
Y265083D02*
D03*
X522500Y332162D02*
D03*
Y324162D02*
D03*
X543250Y411376D02*
D03*
Y403376D02*
D03*
X551800Y411376D02*
D03*
Y403376D02*
D03*
X388700Y697250D02*
D03*
Y705250D02*
D03*
X442001Y529500D02*
D03*
Y537500D02*
D03*
X397500Y628250D02*
D03*
Y620250D02*
D03*
X510650Y652083D02*
D03*
Y660083D02*
D03*
X522500Y727162D02*
D03*
Y719162D02*
D03*
X543250Y806376D02*
D03*
Y798375D02*
D03*
X551800Y806376D02*
D03*
Y798375D02*
D03*
X388700Y1092250D02*
D03*
Y1100250D02*
D03*
X442001Y924500D02*
D03*
Y932500D02*
D03*
X397500Y1023250D02*
D03*
Y1015250D02*
D03*
X510650Y1047083D02*
D03*
Y1055083D02*
D03*
X522500Y1122162D02*
D03*
Y1114162D02*
D03*
X543250Y1201376D02*
D03*
Y1193375D02*
D03*
X551800Y1201376D02*
D03*
Y1193375D02*
D03*
X105950Y302250D02*
D03*
Y310250D02*
D03*
X159250Y134500D02*
D03*
Y142500D02*
D03*
X114750Y233250D02*
D03*
Y225250D02*
D03*
X227900Y257083D02*
D03*
Y265083D02*
D03*
X239750Y332162D02*
D03*
Y324162D02*
D03*
X260500Y411376D02*
D03*
Y403376D02*
D03*
X269050Y411376D02*
D03*
Y403376D02*
D03*
X105950Y697250D02*
D03*
Y705250D02*
D03*
X159250Y529500D02*
D03*
Y537500D02*
D03*
X114750Y628250D02*
D03*
Y620250D02*
D03*
X227900Y652083D02*
D03*
Y660083D02*
D03*
X239750Y727162D02*
D03*
Y719162D02*
D03*
X260500Y806376D02*
D03*
Y798375D02*
D03*
X269050Y806376D02*
D03*
Y798375D02*
D03*
X105950Y1092250D02*
D03*
Y1100250D02*
D03*
X159250Y924500D02*
D03*
Y932500D02*
D03*
X114750Y1023250D02*
D03*
Y1015250D02*
D03*
X227900Y1047083D02*
D03*
Y1055083D02*
D03*
X239750Y1122162D02*
D03*
Y1114162D02*
D03*
X260500Y1201376D02*
D03*
Y1193375D02*
D03*
X269050Y1201376D02*
D03*
Y1193375D02*
D03*
X273050Y2172750D02*
D03*
Y2164750D02*
D03*
X219749Y2340500D02*
D03*
Y2332500D02*
D03*
X264250Y2241750D02*
D03*
Y2249750D02*
D03*
X151100Y2217917D02*
D03*
Y2209917D02*
D03*
X139250Y2142838D02*
D03*
Y2150838D02*
D03*
X118500Y2063625D02*
D03*
Y2071624D02*
D03*
X109950Y2063625D02*
D03*
Y2071624D02*
D03*
X273050Y1777750D02*
D03*
Y1769750D02*
D03*
X219749Y1945500D02*
D03*
Y1937500D02*
D03*
X264250Y1846750D02*
D03*
Y1854750D02*
D03*
X151100Y1822917D02*
D03*
Y1814917D02*
D03*
X139250Y1747838D02*
D03*
Y1755838D02*
D03*
X118500Y1668625D02*
D03*
Y1676624D02*
D03*
X109950Y1668625D02*
D03*
Y1676624D02*
D03*
X273050Y1382750D02*
D03*
Y1374750D02*
D03*
X219749Y1550500D02*
D03*
Y1542500D02*
D03*
X264250Y1451750D02*
D03*
Y1459750D02*
D03*
X151100Y1427917D02*
D03*
Y1419917D02*
D03*
X139250Y1352838D02*
D03*
Y1360838D02*
D03*
X118500Y1273624D02*
D03*
Y1281624D02*
D03*
X109950Y1273624D02*
D03*
Y1281624D02*
D03*
X555800Y2172750D02*
D03*
Y2164750D02*
D03*
X502499Y2340500D02*
D03*
Y2332500D02*
D03*
X547000Y2241750D02*
D03*
Y2249750D02*
D03*
X433850Y2217917D02*
D03*
Y2209917D02*
D03*
X422000Y2142838D02*
D03*
Y2150838D02*
D03*
X401250Y2063625D02*
D03*
Y2071624D02*
D03*
X392700Y2063625D02*
D03*
Y2071624D02*
D03*
X555800Y1777750D02*
D03*
Y1769750D02*
D03*
X502499Y1945500D02*
D03*
Y1937500D02*
D03*
X547000Y1846750D02*
D03*
Y1854750D02*
D03*
X433850Y1822917D02*
D03*
Y1814917D02*
D03*
X422000Y1747838D02*
D03*
Y1755838D02*
D03*
X401250Y1668625D02*
D03*
Y1676624D02*
D03*
X392700Y1668625D02*
D03*
Y1676624D02*
D03*
X555800Y1382750D02*
D03*
Y1374750D02*
D03*
X502499Y1550500D02*
D03*
Y1542500D02*
D03*
X547000Y1451750D02*
D03*
Y1459750D02*
D03*
X433850Y1427917D02*
D03*
Y1419917D02*
D03*
X422000Y1352838D02*
D03*
Y1360838D02*
D03*
X401250Y1273624D02*
D03*
Y1281624D02*
D03*
X392700Y1273624D02*
D03*
Y1281624D02*
D03*
X838550Y2172750D02*
D03*
Y2164750D02*
D03*
X785249Y2340500D02*
D03*
Y2332500D02*
D03*
X829750Y2241750D02*
D03*
Y2249750D02*
D03*
X716600Y2217917D02*
D03*
Y2209917D02*
D03*
X704750Y2142838D02*
D03*
Y2150838D02*
D03*
X684000Y2063625D02*
D03*
Y2071624D02*
D03*
X675450Y2063625D02*
D03*
Y2071624D02*
D03*
X838550Y1777750D02*
D03*
Y1769750D02*
D03*
X785249Y1945500D02*
D03*
Y1937500D02*
D03*
X829750Y1846750D02*
D03*
Y1854750D02*
D03*
X716600Y1822917D02*
D03*
Y1814917D02*
D03*
X704750Y1747838D02*
D03*
Y1755838D02*
D03*
X684000Y1668625D02*
D03*
Y1676624D02*
D03*
X675450Y1668625D02*
D03*
Y1676624D02*
D03*
X838550Y1382750D02*
D03*
Y1374750D02*
D03*
X785249Y1550500D02*
D03*
Y1542500D02*
D03*
X829750Y1451750D02*
D03*
Y1459750D02*
D03*
X716600Y1427917D02*
D03*
Y1419917D02*
D03*
X704750Y1352838D02*
D03*
Y1360838D02*
D03*
X684000Y1273624D02*
D03*
Y1281624D02*
D03*
X675450Y1273624D02*
D03*
Y1281624D02*
D03*
X1121300Y2172750D02*
D03*
Y2164750D02*
D03*
X1067999Y2340500D02*
D03*
Y2332500D02*
D03*
X1112500Y2241750D02*
D03*
Y2249750D02*
D03*
X999350Y2217917D02*
D03*
Y2209917D02*
D03*
X987500Y2142838D02*
D03*
Y2150838D02*
D03*
X966750Y2063625D02*
D03*
Y2071624D02*
D03*
X958200Y2063625D02*
D03*
Y2071624D02*
D03*
X1121300Y1777750D02*
D03*
Y1769750D02*
D03*
X1067999Y1945500D02*
D03*
Y1937500D02*
D03*
X1112500Y1846750D02*
D03*
Y1854750D02*
D03*
X999350Y1822917D02*
D03*
Y1814917D02*
D03*
X987500Y1747838D02*
D03*
Y1755838D02*
D03*
X966750Y1668625D02*
D03*
Y1676624D02*
D03*
X958200Y1668625D02*
D03*
Y1676624D02*
D03*
X1121300Y1382750D02*
D03*
Y1374750D02*
D03*
X1067999Y1550500D02*
D03*
Y1542500D02*
D03*
X1112500Y1451750D02*
D03*
Y1459750D02*
D03*
X999350Y1427917D02*
D03*
Y1419917D02*
D03*
X987500Y1352838D02*
D03*
Y1360838D02*
D03*
X966750Y1273624D02*
D03*
Y1281624D02*
D03*
X958200Y1273624D02*
D03*
Y1281624D02*
D03*
X1404050Y2172750D02*
D03*
Y2164750D02*
D03*
X1350750Y2340500D02*
D03*
Y2332500D02*
D03*
X1395250Y2241750D02*
D03*
Y2249750D02*
D03*
X1282100Y2217917D02*
D03*
Y2209917D02*
D03*
X1270250Y2142838D02*
D03*
Y2150838D02*
D03*
X1249500Y2063625D02*
D03*
Y2071624D02*
D03*
X1240950Y2063625D02*
D03*
Y2071624D02*
D03*
X1404050Y1777750D02*
D03*
Y1769750D02*
D03*
X1350750Y1945500D02*
D03*
Y1937500D02*
D03*
X1395250Y1846750D02*
D03*
Y1854750D02*
D03*
X1282100Y1822917D02*
D03*
Y1814917D02*
D03*
X1270250Y1747838D02*
D03*
Y1755838D02*
D03*
X1249500Y1668625D02*
D03*
Y1676624D02*
D03*
X1240950Y1668625D02*
D03*
Y1676624D02*
D03*
X1404050Y1382750D02*
D03*
Y1374750D02*
D03*
X1350750Y1550500D02*
D03*
Y1542500D02*
D03*
X1395250Y1451750D02*
D03*
Y1459750D02*
D03*
X1282100Y1427917D02*
D03*
Y1419917D02*
D03*
X1270250Y1352838D02*
D03*
Y1360838D02*
D03*
X1249500Y1273624D02*
D03*
Y1281624D02*
D03*
X1240950Y1273624D02*
D03*
Y1281624D02*
D03*
D20*
X1379468Y337800D02*
D03*
Y331000D02*
D03*
Y732800D02*
D03*
Y726000D02*
D03*
Y1127800D02*
D03*
Y1121000D02*
D03*
X1096718Y337800D02*
D03*
Y331000D02*
D03*
Y732800D02*
D03*
Y726000D02*
D03*
Y1127800D02*
D03*
Y1121000D02*
D03*
X813968Y337800D02*
D03*
Y331000D02*
D03*
Y732800D02*
D03*
Y726000D02*
D03*
Y1127800D02*
D03*
Y1121000D02*
D03*
X531218Y337800D02*
D03*
Y331000D02*
D03*
Y732800D02*
D03*
Y726000D02*
D03*
Y1127800D02*
D03*
Y1121000D02*
D03*
X248468Y337800D02*
D03*
Y331000D02*
D03*
Y732800D02*
D03*
Y726000D02*
D03*
Y1127800D02*
D03*
Y1121000D02*
D03*
X130532Y2137200D02*
D03*
Y2144000D02*
D03*
Y1742200D02*
D03*
Y1749000D02*
D03*
Y1347200D02*
D03*
Y1354000D02*
D03*
X413282Y2137200D02*
D03*
Y2144000D02*
D03*
Y1742200D02*
D03*
Y1749000D02*
D03*
Y1347200D02*
D03*
Y1354000D02*
D03*
X696032Y2137200D02*
D03*
Y2144000D02*
D03*
Y1742200D02*
D03*
Y1749000D02*
D03*
Y1347200D02*
D03*
Y1354000D02*
D03*
X978782Y2137200D02*
D03*
Y2144000D02*
D03*
Y1742200D02*
D03*
Y1749000D02*
D03*
Y1347200D02*
D03*
Y1354000D02*
D03*
X1261532Y2137200D02*
D03*
Y2144000D02*
D03*
Y1742200D02*
D03*
Y1749000D02*
D03*
Y1347200D02*
D03*
Y1354000D02*
D03*
D21*
X1291250Y345250D02*
D03*
Y354250D02*
D03*
X1299300Y331899D02*
D03*
Y322899D02*
D03*
X1330100Y327300D02*
D03*
Y318300D02*
D03*
X1290250Y154000D02*
D03*
Y163000D02*
D03*
X1373518Y244250D02*
D03*
Y235250D02*
D03*
X1381718Y244250D02*
D03*
Y235250D02*
D03*
X1360750Y235500D02*
D03*
Y244500D02*
D03*
X1297250Y254254D02*
D03*
Y245254D02*
D03*
Y222408D02*
D03*
Y213408D02*
D03*
X1291250Y740250D02*
D03*
Y749250D02*
D03*
X1299300Y726899D02*
D03*
Y717899D02*
D03*
X1330100Y722300D02*
D03*
Y713300D02*
D03*
X1290250Y549000D02*
D03*
Y558000D02*
D03*
X1373518Y639250D02*
D03*
Y630250D02*
D03*
X1381718Y639250D02*
D03*
Y630250D02*
D03*
X1360750Y630500D02*
D03*
Y639500D02*
D03*
X1297250Y649254D02*
D03*
Y640254D02*
D03*
Y617408D02*
D03*
Y608408D02*
D03*
X1291250Y1135250D02*
D03*
Y1144250D02*
D03*
X1299300Y1121899D02*
D03*
Y1112899D02*
D03*
X1330100Y1117300D02*
D03*
Y1108300D02*
D03*
X1290250Y944000D02*
D03*
Y953000D02*
D03*
X1373518Y1034250D02*
D03*
Y1025250D02*
D03*
X1381718Y1034250D02*
D03*
Y1025250D02*
D03*
X1360750Y1025500D02*
D03*
Y1034500D02*
D03*
X1297250Y1044254D02*
D03*
Y1035254D02*
D03*
Y1012408D02*
D03*
Y1003408D02*
D03*
X1008500Y345250D02*
D03*
Y354250D02*
D03*
X1016550Y331899D02*
D03*
Y322899D02*
D03*
X1047350Y327300D02*
D03*
Y318300D02*
D03*
X1007500Y154000D02*
D03*
Y163000D02*
D03*
X1090768Y244250D02*
D03*
Y235250D02*
D03*
X1098968Y244250D02*
D03*
Y235250D02*
D03*
X1078000Y235500D02*
D03*
Y244500D02*
D03*
X1014500Y254254D02*
D03*
Y245254D02*
D03*
Y222408D02*
D03*
Y213408D02*
D03*
X1008500Y740250D02*
D03*
Y749250D02*
D03*
X1016550Y726899D02*
D03*
Y717899D02*
D03*
X1047350Y722300D02*
D03*
Y713300D02*
D03*
X1007500Y549000D02*
D03*
Y558000D02*
D03*
X1090768Y639250D02*
D03*
Y630250D02*
D03*
X1098968Y639250D02*
D03*
Y630250D02*
D03*
X1078000Y630500D02*
D03*
Y639500D02*
D03*
X1014500Y649254D02*
D03*
Y640254D02*
D03*
Y617408D02*
D03*
Y608408D02*
D03*
X1008500Y1135250D02*
D03*
Y1144250D02*
D03*
X1016550Y1121899D02*
D03*
Y1112899D02*
D03*
X1047350Y1117300D02*
D03*
Y1108300D02*
D03*
X1007500Y944000D02*
D03*
Y953000D02*
D03*
X1090768Y1034250D02*
D03*
Y1025250D02*
D03*
X1098968Y1034250D02*
D03*
Y1025250D02*
D03*
X1078000Y1025500D02*
D03*
Y1034500D02*
D03*
X1014500Y1044254D02*
D03*
Y1035254D02*
D03*
Y1012408D02*
D03*
Y1003408D02*
D03*
X725750Y345250D02*
D03*
Y354250D02*
D03*
X733800Y331899D02*
D03*
Y322899D02*
D03*
X764600Y327300D02*
D03*
Y318300D02*
D03*
X724750Y154000D02*
D03*
Y163000D02*
D03*
X808018Y244250D02*
D03*
Y235250D02*
D03*
X816217Y244250D02*
D03*
Y235250D02*
D03*
X795250Y235500D02*
D03*
Y244500D02*
D03*
X731750Y254254D02*
D03*
Y245254D02*
D03*
Y222408D02*
D03*
Y213408D02*
D03*
X725750Y740250D02*
D03*
Y749250D02*
D03*
X733800Y726899D02*
D03*
Y717899D02*
D03*
X764600Y722300D02*
D03*
Y713300D02*
D03*
X724750Y549000D02*
D03*
Y558000D02*
D03*
X808018Y639250D02*
D03*
Y630250D02*
D03*
X816217Y639250D02*
D03*
Y630250D02*
D03*
X795250Y630500D02*
D03*
Y639500D02*
D03*
X731750Y649254D02*
D03*
Y640254D02*
D03*
Y617408D02*
D03*
Y608408D02*
D03*
X725750Y1135250D02*
D03*
Y1144250D02*
D03*
X733800Y1121899D02*
D03*
Y1112899D02*
D03*
X764600Y1117300D02*
D03*
Y1108300D02*
D03*
X724750Y944000D02*
D03*
Y953000D02*
D03*
X808018Y1034250D02*
D03*
Y1025250D02*
D03*
X816217Y1034250D02*
D03*
Y1025250D02*
D03*
X795250Y1025500D02*
D03*
Y1034500D02*
D03*
X731750Y1044254D02*
D03*
Y1035254D02*
D03*
Y1012408D02*
D03*
Y1003408D02*
D03*
X443000Y345250D02*
D03*
Y354250D02*
D03*
X451050Y331899D02*
D03*
Y322899D02*
D03*
X481850Y327300D02*
D03*
Y318300D02*
D03*
X442000Y154000D02*
D03*
Y163000D02*
D03*
X525267Y244250D02*
D03*
Y235250D02*
D03*
X533467Y244250D02*
D03*
Y235250D02*
D03*
X512500Y235500D02*
D03*
Y244500D02*
D03*
X449000Y254254D02*
D03*
Y245254D02*
D03*
Y222408D02*
D03*
Y213408D02*
D03*
X443000Y740250D02*
D03*
Y749250D02*
D03*
X451050Y726899D02*
D03*
Y717899D02*
D03*
X481850Y722300D02*
D03*
Y713300D02*
D03*
X442000Y549000D02*
D03*
Y558000D02*
D03*
X525267Y639250D02*
D03*
Y630250D02*
D03*
X533467Y639250D02*
D03*
Y630250D02*
D03*
X512500Y630500D02*
D03*
Y639500D02*
D03*
X449000Y649254D02*
D03*
Y640254D02*
D03*
Y617408D02*
D03*
Y608408D02*
D03*
X443000Y1135250D02*
D03*
Y1144250D02*
D03*
X451050Y1121899D02*
D03*
Y1112899D02*
D03*
X481850Y1117300D02*
D03*
Y1108300D02*
D03*
X442000Y944000D02*
D03*
Y953000D02*
D03*
X525267Y1034250D02*
D03*
Y1025250D02*
D03*
X533467Y1034250D02*
D03*
Y1025250D02*
D03*
X512500Y1025500D02*
D03*
Y1034500D02*
D03*
X449000Y1044254D02*
D03*
Y1035254D02*
D03*
Y1012408D02*
D03*
Y1003408D02*
D03*
X160250Y345250D02*
D03*
Y354250D02*
D03*
X168300Y331899D02*
D03*
Y322899D02*
D03*
X199100Y327300D02*
D03*
Y318300D02*
D03*
X159250Y154000D02*
D03*
Y163000D02*
D03*
X242517Y244250D02*
D03*
Y235250D02*
D03*
X250717Y244250D02*
D03*
Y235250D02*
D03*
X229749Y235500D02*
D03*
Y244500D02*
D03*
X166250Y254254D02*
D03*
Y245254D02*
D03*
Y222408D02*
D03*
Y213408D02*
D03*
X160250Y740250D02*
D03*
Y749250D02*
D03*
X168300Y726899D02*
D03*
Y717899D02*
D03*
X199100Y722300D02*
D03*
Y713300D02*
D03*
X159250Y549000D02*
D03*
Y558000D02*
D03*
X242517Y639250D02*
D03*
Y630250D02*
D03*
X250717Y639250D02*
D03*
Y630250D02*
D03*
X229749Y630500D02*
D03*
Y639500D02*
D03*
X166250Y649254D02*
D03*
Y640254D02*
D03*
Y617408D02*
D03*
Y608408D02*
D03*
X160250Y1135250D02*
D03*
Y1144250D02*
D03*
X168300Y1121899D02*
D03*
Y1112899D02*
D03*
X199100Y1117300D02*
D03*
Y1108300D02*
D03*
X159250Y944000D02*
D03*
Y953000D02*
D03*
X242517Y1034250D02*
D03*
Y1025250D02*
D03*
X250717Y1034250D02*
D03*
Y1025250D02*
D03*
X229749Y1025500D02*
D03*
Y1034500D02*
D03*
X166250Y1044254D02*
D03*
Y1035254D02*
D03*
Y1012408D02*
D03*
Y1003408D02*
D03*
X218750Y2129750D02*
D03*
Y2120750D02*
D03*
X210700Y2143101D02*
D03*
Y2152101D02*
D03*
X179900Y2147700D02*
D03*
Y2156700D02*
D03*
X219750Y2321000D02*
D03*
Y2312000D02*
D03*
X136482Y2230750D02*
D03*
Y2239750D02*
D03*
X128282Y2230750D02*
D03*
Y2239750D02*
D03*
X149250Y2239500D02*
D03*
Y2230500D02*
D03*
X212750Y2220746D02*
D03*
Y2229746D02*
D03*
Y2252592D02*
D03*
Y2261592D02*
D03*
X218750Y1734750D02*
D03*
Y1725750D02*
D03*
X210700Y1748101D02*
D03*
Y1757101D02*
D03*
X179900Y1752700D02*
D03*
Y1761700D02*
D03*
X219750Y1926000D02*
D03*
Y1917000D02*
D03*
X136482Y1835750D02*
D03*
Y1844750D02*
D03*
X128282Y1835750D02*
D03*
Y1844750D02*
D03*
X149250Y1844500D02*
D03*
Y1835500D02*
D03*
X212750Y1825746D02*
D03*
Y1834746D02*
D03*
Y1857592D02*
D03*
Y1866592D02*
D03*
X218750Y1339750D02*
D03*
Y1330750D02*
D03*
X210700Y1353101D02*
D03*
Y1362101D02*
D03*
X179900Y1357700D02*
D03*
Y1366700D02*
D03*
X219750Y1531000D02*
D03*
Y1522000D02*
D03*
X136482Y1440750D02*
D03*
Y1449750D02*
D03*
X128282Y1440750D02*
D03*
Y1449750D02*
D03*
X149250Y1449500D02*
D03*
Y1440500D02*
D03*
X212750Y1430746D02*
D03*
Y1439746D02*
D03*
Y1462592D02*
D03*
Y1471592D02*
D03*
X501500Y2129750D02*
D03*
Y2120750D02*
D03*
X493450Y2143101D02*
D03*
Y2152101D02*
D03*
X462650Y2147700D02*
D03*
Y2156700D02*
D03*
X502500Y2321000D02*
D03*
Y2312000D02*
D03*
X419232Y2230750D02*
D03*
Y2239750D02*
D03*
X411032Y2230750D02*
D03*
Y2239750D02*
D03*
X432000Y2239500D02*
D03*
Y2230500D02*
D03*
X495500Y2220746D02*
D03*
Y2229746D02*
D03*
Y2252592D02*
D03*
Y2261592D02*
D03*
X501500Y1734750D02*
D03*
Y1725750D02*
D03*
X493450Y1748101D02*
D03*
Y1757101D02*
D03*
X462650Y1752700D02*
D03*
Y1761700D02*
D03*
X502500Y1926000D02*
D03*
Y1917000D02*
D03*
X419232Y1835750D02*
D03*
Y1844750D02*
D03*
X411032Y1835750D02*
D03*
Y1844750D02*
D03*
X432000Y1844500D02*
D03*
Y1835500D02*
D03*
X495500Y1825746D02*
D03*
Y1834746D02*
D03*
Y1857592D02*
D03*
Y1866592D02*
D03*
X501500Y1339750D02*
D03*
Y1330750D02*
D03*
X493450Y1353101D02*
D03*
Y1362101D02*
D03*
X462650Y1357700D02*
D03*
Y1366700D02*
D03*
X502500Y1531000D02*
D03*
Y1522000D02*
D03*
X419232Y1440750D02*
D03*
Y1449750D02*
D03*
X411032Y1440750D02*
D03*
Y1449750D02*
D03*
X432000Y1449500D02*
D03*
Y1440500D02*
D03*
X495500Y1430746D02*
D03*
Y1439746D02*
D03*
Y1462592D02*
D03*
Y1471592D02*
D03*
X784250Y2129750D02*
D03*
Y2120750D02*
D03*
X776200Y2143101D02*
D03*
Y2152101D02*
D03*
X745400Y2147700D02*
D03*
Y2156700D02*
D03*
X785250Y2321000D02*
D03*
Y2312000D02*
D03*
X701982Y2230750D02*
D03*
Y2239750D02*
D03*
X693783Y2230750D02*
D03*
Y2239750D02*
D03*
X714750Y2239500D02*
D03*
Y2230500D02*
D03*
X778250Y2220746D02*
D03*
Y2229746D02*
D03*
Y2252592D02*
D03*
Y2261592D02*
D03*
X784250Y1734750D02*
D03*
Y1725750D02*
D03*
X776200Y1748101D02*
D03*
Y1757101D02*
D03*
X745400Y1752700D02*
D03*
Y1761700D02*
D03*
X785250Y1926000D02*
D03*
Y1917000D02*
D03*
X701982Y1835750D02*
D03*
Y1844750D02*
D03*
X693783Y1835750D02*
D03*
Y1844750D02*
D03*
X714750Y1844500D02*
D03*
Y1835500D02*
D03*
X778250Y1825746D02*
D03*
Y1834746D02*
D03*
Y1857592D02*
D03*
Y1866592D02*
D03*
X784250Y1339750D02*
D03*
Y1330750D02*
D03*
X776200Y1353101D02*
D03*
Y1362101D02*
D03*
X745400Y1357700D02*
D03*
Y1366700D02*
D03*
X785250Y1531000D02*
D03*
Y1522000D02*
D03*
X701982Y1440750D02*
D03*
Y1449750D02*
D03*
X693783Y1440750D02*
D03*
Y1449750D02*
D03*
X714750Y1449500D02*
D03*
Y1440500D02*
D03*
X778250Y1430746D02*
D03*
Y1439746D02*
D03*
Y1462592D02*
D03*
Y1471592D02*
D03*
X1067000Y2129750D02*
D03*
Y2120750D02*
D03*
X1058950Y2143101D02*
D03*
Y2152101D02*
D03*
X1028150Y2147700D02*
D03*
Y2156700D02*
D03*
X1068000Y2321000D02*
D03*
Y2312000D02*
D03*
X984733Y2230750D02*
D03*
Y2239750D02*
D03*
X976533Y2230750D02*
D03*
Y2239750D02*
D03*
X997501Y2239500D02*
D03*
Y2230500D02*
D03*
X1061000Y2220746D02*
D03*
Y2229746D02*
D03*
Y2252592D02*
D03*
Y2261592D02*
D03*
X1067000Y1734750D02*
D03*
Y1725750D02*
D03*
X1058950Y1748101D02*
D03*
Y1757101D02*
D03*
X1028150Y1752700D02*
D03*
Y1761700D02*
D03*
X1068000Y1926000D02*
D03*
Y1917000D02*
D03*
X984733Y1835750D02*
D03*
Y1844750D02*
D03*
X976533Y1835750D02*
D03*
Y1844750D02*
D03*
X997501Y1844500D02*
D03*
Y1835500D02*
D03*
X1061000Y1825746D02*
D03*
Y1834746D02*
D03*
Y1857592D02*
D03*
Y1866592D02*
D03*
X1067000Y1339750D02*
D03*
Y1330750D02*
D03*
X1058950Y1353101D02*
D03*
Y1362101D02*
D03*
X1028150Y1357700D02*
D03*
Y1366700D02*
D03*
X1068000Y1531000D02*
D03*
Y1522000D02*
D03*
X984733Y1440750D02*
D03*
Y1449750D02*
D03*
X976533Y1440750D02*
D03*
Y1449750D02*
D03*
X997501Y1449500D02*
D03*
Y1440500D02*
D03*
X1061000Y1430746D02*
D03*
Y1439746D02*
D03*
Y1462592D02*
D03*
Y1471592D02*
D03*
X1349750Y2129750D02*
D03*
Y2120750D02*
D03*
X1341700Y2143101D02*
D03*
Y2152101D02*
D03*
X1310900Y2147700D02*
D03*
Y2156700D02*
D03*
X1350750Y2321000D02*
D03*
Y2312000D02*
D03*
X1267483Y2230750D02*
D03*
Y2239750D02*
D03*
X1259283Y2230750D02*
D03*
Y2239750D02*
D03*
X1280251Y2239500D02*
D03*
Y2230500D02*
D03*
X1343750Y2220746D02*
D03*
Y2229746D02*
D03*
Y2252592D02*
D03*
Y2261592D02*
D03*
X1349750Y1734750D02*
D03*
Y1725750D02*
D03*
X1341700Y1748101D02*
D03*
Y1757101D02*
D03*
X1310900Y1752700D02*
D03*
Y1761700D02*
D03*
X1350750Y1926000D02*
D03*
Y1917000D02*
D03*
X1267483Y1835750D02*
D03*
Y1844750D02*
D03*
X1259283Y1835750D02*
D03*
Y1844750D02*
D03*
X1280251Y1844500D02*
D03*
Y1835500D02*
D03*
X1343750Y1825746D02*
D03*
Y1834746D02*
D03*
Y1857592D02*
D03*
Y1866592D02*
D03*
X1349750Y1339750D02*
D03*
Y1330750D02*
D03*
X1341700Y1353101D02*
D03*
Y1362101D02*
D03*
X1310900Y1357700D02*
D03*
Y1366700D02*
D03*
X1350750Y1531000D02*
D03*
Y1522000D02*
D03*
X1267483Y1440750D02*
D03*
Y1449750D02*
D03*
X1259283Y1440750D02*
D03*
Y1449750D02*
D03*
X1280251Y1449500D02*
D03*
Y1440500D02*
D03*
X1343750Y1430746D02*
D03*
Y1439746D02*
D03*
Y1462592D02*
D03*
Y1471592D02*
D03*
D40*
X1357718Y177749D02*
D03*
Y168748D02*
D03*
Y572748D02*
D03*
Y563749D02*
D03*
Y967748D02*
D03*
Y958748D02*
D03*
X1074968Y177749D02*
D03*
Y168748D02*
D03*
Y572748D02*
D03*
Y563749D02*
D03*
Y967748D02*
D03*
Y958748D02*
D03*
X792217Y177749D02*
D03*
Y168748D02*
D03*
Y572748D02*
D03*
Y563749D02*
D03*
Y967748D02*
D03*
Y958748D02*
D03*
X509467Y177749D02*
D03*
Y168748D02*
D03*
Y572748D02*
D03*
Y563749D02*
D03*
Y967748D02*
D03*
Y958748D02*
D03*
X226717Y177749D02*
D03*
Y168748D02*
D03*
Y572748D02*
D03*
Y563749D02*
D03*
Y967748D02*
D03*
Y958748D02*
D03*
X152282Y2297251D02*
D03*
Y2306252D02*
D03*
Y1902251D02*
D03*
Y1911252D02*
D03*
Y1507251D02*
D03*
Y1516252D02*
D03*
X435032Y2297251D02*
D03*
Y2306252D02*
D03*
Y1902251D02*
D03*
Y1911252D02*
D03*
Y1507251D02*
D03*
Y1516252D02*
D03*
X717783Y2297251D02*
D03*
Y2306252D02*
D03*
Y1902251D02*
D03*
Y1911252D02*
D03*
Y1507251D02*
D03*
Y1516252D02*
D03*
X1000533Y2297251D02*
D03*
Y2306252D02*
D03*
Y1902251D02*
D03*
Y1911252D02*
D03*
Y1507251D02*
D03*
Y1516252D02*
D03*
X1283283Y2297251D02*
D03*
Y2306252D02*
D03*
Y1902251D02*
D03*
Y1911252D02*
D03*
Y1507251D02*
D03*
Y1516252D02*
D03*
D41*
X1382300Y149500D02*
D03*
X1373300D02*
D03*
X1380250Y178000D02*
D03*
X1371250D02*
D03*
X1382300Y544500D02*
D03*
X1373300D02*
D03*
X1380250Y573000D02*
D03*
X1371250D02*
D03*
X1382300Y939500D02*
D03*
X1373300D02*
D03*
X1380250Y968000D02*
D03*
X1371250D02*
D03*
X1099550Y149500D02*
D03*
X1090550D02*
D03*
X1097500Y178000D02*
D03*
X1088500D02*
D03*
X1099550Y544500D02*
D03*
X1090550D02*
D03*
X1097500Y573000D02*
D03*
X1088500D02*
D03*
X1099550Y939500D02*
D03*
X1090550D02*
D03*
X1097500Y968000D02*
D03*
X1088500D02*
D03*
X816800Y149500D02*
D03*
X807800D02*
D03*
X814750Y178000D02*
D03*
X805750D02*
D03*
X816800Y544500D02*
D03*
X807800D02*
D03*
X814750Y573000D02*
D03*
X805750D02*
D03*
X816800Y939500D02*
D03*
X807800D02*
D03*
X814750Y968000D02*
D03*
X805750D02*
D03*
X534050Y149500D02*
D03*
X525050D02*
D03*
X532000Y178000D02*
D03*
X523000D02*
D03*
X534050Y544500D02*
D03*
X525050D02*
D03*
X532000Y573000D02*
D03*
X523000D02*
D03*
X534050Y939500D02*
D03*
X525050D02*
D03*
X532000Y968000D02*
D03*
X523000D02*
D03*
X251300Y149500D02*
D03*
X242300D02*
D03*
X249250Y178000D02*
D03*
X240250D02*
D03*
X251300Y544500D02*
D03*
X242300D02*
D03*
X249250Y573000D02*
D03*
X240250D02*
D03*
X251300Y939500D02*
D03*
X242300D02*
D03*
X249250Y968000D02*
D03*
X240250D02*
D03*
X127700Y2325500D02*
D03*
X136700D02*
D03*
X129750Y2297000D02*
D03*
X138750D02*
D03*
X127700Y1930500D02*
D03*
X136700D02*
D03*
X129750Y1902000D02*
D03*
X138750D02*
D03*
X127700Y1535500D02*
D03*
X136700D02*
D03*
X129750Y1507000D02*
D03*
X138750D02*
D03*
X410450Y2325500D02*
D03*
X419450D02*
D03*
X412500Y2297000D02*
D03*
X421500D02*
D03*
X410450Y1930500D02*
D03*
X419450D02*
D03*
X412500Y1902000D02*
D03*
X421500D02*
D03*
X410450Y1535500D02*
D03*
X419450D02*
D03*
X412500Y1507000D02*
D03*
X421500D02*
D03*
X693200Y2325500D02*
D03*
X702200D02*
D03*
X695250Y2297000D02*
D03*
X704250D02*
D03*
X693200Y1930500D02*
D03*
X702200D02*
D03*
X695250Y1902000D02*
D03*
X704250D02*
D03*
X693200Y1535500D02*
D03*
X702200D02*
D03*
X695250Y1507000D02*
D03*
X704250D02*
D03*
X975950Y2325500D02*
D03*
X984950D02*
D03*
X978000Y2297000D02*
D03*
X987000D02*
D03*
X975950Y1930500D02*
D03*
X984950D02*
D03*
X978000Y1902000D02*
D03*
X987000D02*
D03*
X975950Y1535500D02*
D03*
X984950D02*
D03*
X978000Y1507000D02*
D03*
X987000D02*
D03*
X1258700Y2325500D02*
D03*
X1267700D02*
D03*
X1260750Y2297000D02*
D03*
X1269750D02*
D03*
X1258700Y1930500D02*
D03*
X1267700D02*
D03*
X1260750Y1902000D02*
D03*
X1269750D02*
D03*
X1258700Y1535500D02*
D03*
X1267700D02*
D03*
X1260750Y1507000D02*
D03*
X1269750D02*
D03*
D47*
X37500Y150000D02*
D03*
X1472500Y2325000D02*
D03*
X37500D02*
D03*
D48*
X1320500Y112900D02*
D03*
Y276100D02*
D03*
Y507900D02*
D03*
Y671100D02*
D03*
Y902900D02*
D03*
Y1066100D02*
D03*
X1037750Y112900D02*
D03*
Y276100D02*
D03*
Y507900D02*
D03*
Y671100D02*
D03*
Y902900D02*
D03*
Y1066100D02*
D03*
X755000Y112900D02*
D03*
Y276100D02*
D03*
Y507900D02*
D03*
Y671100D02*
D03*
Y902900D02*
D03*
Y1066100D02*
D03*
X472250Y112900D02*
D03*
Y276100D02*
D03*
Y507900D02*
D03*
Y671100D02*
D03*
Y902900D02*
D03*
Y1066100D02*
D03*
X189500Y112900D02*
D03*
Y276100D02*
D03*
Y507900D02*
D03*
Y671100D02*
D03*
Y902900D02*
D03*
Y1066100D02*
D03*
X189500Y2362100D02*
D03*
Y2198900D02*
D03*
Y1967100D02*
D03*
Y1803900D02*
D03*
Y1572100D02*
D03*
Y1408900D02*
D03*
X472250Y2362100D02*
D03*
Y2198900D02*
D03*
Y1967100D02*
D03*
Y1803900D02*
D03*
Y1572100D02*
D03*
Y1408900D02*
D03*
X755000Y2362100D02*
D03*
Y2198900D02*
D03*
Y1967100D02*
D03*
Y1803900D02*
D03*
Y1572100D02*
D03*
Y1408900D02*
D03*
X1037750Y2362100D02*
D03*
Y2198900D02*
D03*
Y1967100D02*
D03*
Y1803900D02*
D03*
Y1572100D02*
D03*
Y1408900D02*
D03*
X1320500Y2362100D02*
D03*
Y2198900D02*
D03*
Y1967100D02*
D03*
Y1803900D02*
D03*
Y1572100D02*
D03*
Y1408900D02*
D03*
D49*
X1306000Y278300D02*
D03*
X1286000D02*
D03*
X1296000D02*
D03*
Y288300D02*
D03*
X1286000D02*
D03*
X1306000D02*
D03*
Y673300D02*
D03*
X1286000D02*
D03*
X1296000D02*
D03*
Y683300D02*
D03*
X1286000D02*
D03*
X1306000D02*
D03*
Y1068300D02*
D03*
X1286000D02*
D03*
X1296000D02*
D03*
Y1078300D02*
D03*
X1286000D02*
D03*
X1306000D02*
D03*
X1023250Y278300D02*
D03*
X1003250D02*
D03*
X1013250D02*
D03*
Y288300D02*
D03*
X1003250D02*
D03*
X1023250D02*
D03*
Y673300D02*
D03*
X1003250D02*
D03*
X1013250D02*
D03*
Y683300D02*
D03*
X1003250D02*
D03*
X1023250D02*
D03*
Y1068300D02*
D03*
X1003250D02*
D03*
X1013250D02*
D03*
Y1078300D02*
D03*
X1003250D02*
D03*
X1023250D02*
D03*
X740500Y278300D02*
D03*
X720500D02*
D03*
X730500D02*
D03*
Y288300D02*
D03*
X720500D02*
D03*
X740500D02*
D03*
Y673300D02*
D03*
X720500D02*
D03*
X730500D02*
D03*
Y683300D02*
D03*
X720500D02*
D03*
X740500D02*
D03*
Y1068300D02*
D03*
X720500D02*
D03*
X730500D02*
D03*
Y1078300D02*
D03*
X720500D02*
D03*
X740500D02*
D03*
X457750Y278300D02*
D03*
X437750D02*
D03*
X447750D02*
D03*
Y288300D02*
D03*
X437750D02*
D03*
X457750D02*
D03*
Y673300D02*
D03*
X437750D02*
D03*
X447750D02*
D03*
Y683300D02*
D03*
X437750D02*
D03*
X457750D02*
D03*
Y1068300D02*
D03*
X437750D02*
D03*
X447750D02*
D03*
Y1078300D02*
D03*
X437750D02*
D03*
X457750D02*
D03*
X175000Y278300D02*
D03*
X155000D02*
D03*
X165000D02*
D03*
Y288300D02*
D03*
X155000D02*
D03*
X175000D02*
D03*
Y673300D02*
D03*
X155000D02*
D03*
X165000D02*
D03*
Y683300D02*
D03*
X155000D02*
D03*
X175000D02*
D03*
Y1068300D02*
D03*
X155000D02*
D03*
X165000D02*
D03*
Y1078300D02*
D03*
X155000D02*
D03*
X175000D02*
D03*
X204000Y2196700D02*
D03*
X224000D02*
D03*
X214000D02*
D03*
Y2186700D02*
D03*
X224000D02*
D03*
X204000D02*
D03*
Y1801700D02*
D03*
X224000D02*
D03*
X214000D02*
D03*
Y1791700D02*
D03*
X224000D02*
D03*
X204000D02*
D03*
Y1406700D02*
D03*
X224000D02*
D03*
X214000D02*
D03*
Y1396700D02*
D03*
X224000D02*
D03*
X204000D02*
D03*
X486750Y2196700D02*
D03*
X506750D02*
D03*
X496750D02*
D03*
Y2186700D02*
D03*
X506750D02*
D03*
X486750D02*
D03*
Y1801700D02*
D03*
X506750D02*
D03*
X496750D02*
D03*
Y1791700D02*
D03*
X506750D02*
D03*
X486750D02*
D03*
Y1406700D02*
D03*
X506750D02*
D03*
X496750D02*
D03*
Y1396700D02*
D03*
X506750D02*
D03*
X486750D02*
D03*
X769500Y2196700D02*
D03*
X789500D02*
D03*
X779500D02*
D03*
Y2186700D02*
D03*
X789500D02*
D03*
X769500D02*
D03*
Y1801700D02*
D03*
X789500D02*
D03*
X779500D02*
D03*
Y1791700D02*
D03*
X789500D02*
D03*
X769500D02*
D03*
Y1406700D02*
D03*
X789500D02*
D03*
X779500D02*
D03*
Y1396700D02*
D03*
X789500D02*
D03*
X769500D02*
D03*
X1052250Y2196700D02*
D03*
X1072250D02*
D03*
X1062250D02*
D03*
Y2186700D02*
D03*
X1072250D02*
D03*
X1052250D02*
D03*
Y1801700D02*
D03*
X1072250D02*
D03*
X1062250D02*
D03*
Y1791700D02*
D03*
X1072250D02*
D03*
X1052250D02*
D03*
Y1406700D02*
D03*
X1072250D02*
D03*
X1062250D02*
D03*
Y1396700D02*
D03*
X1072250D02*
D03*
X1052250D02*
D03*
X1335000Y2196700D02*
D03*
X1355000D02*
D03*
X1345000D02*
D03*
Y2186700D02*
D03*
X1355000D02*
D03*
X1335000D02*
D03*
Y1801700D02*
D03*
X1355000D02*
D03*
X1345000D02*
D03*
Y1791700D02*
D03*
X1355000D02*
D03*
X1335000D02*
D03*
Y1406700D02*
D03*
X1355000D02*
D03*
X1345000D02*
D03*
Y1396700D02*
D03*
X1355000D02*
D03*
X1335000D02*
D03*
D71*
X1366600Y301300D02*
D03*
Y287300D02*
D03*
X1354550Y296700D02*
D03*
Y282700D02*
D03*
X1307750Y244754D02*
D03*
Y258754D02*
D03*
X1343950Y241750D02*
D03*
Y255750D02*
D03*
X1366600Y696300D02*
D03*
Y682300D02*
D03*
X1354550Y691700D02*
D03*
Y677700D02*
D03*
X1307750Y639754D02*
D03*
Y653754D02*
D03*
X1343950Y636750D02*
D03*
Y650750D02*
D03*
X1366600Y1091300D02*
D03*
Y1077300D02*
D03*
X1354550Y1086700D02*
D03*
Y1072700D02*
D03*
X1307750Y1034754D02*
D03*
Y1048754D02*
D03*
X1343950Y1031750D02*
D03*
Y1045750D02*
D03*
X1083850Y301300D02*
D03*
Y287300D02*
D03*
X1071800Y296700D02*
D03*
Y282700D02*
D03*
X1025000Y244754D02*
D03*
Y258754D02*
D03*
X1061200Y241750D02*
D03*
Y255750D02*
D03*
X1083850Y696300D02*
D03*
Y682300D02*
D03*
X1071800Y691700D02*
D03*
Y677700D02*
D03*
X1025000Y639754D02*
D03*
Y653754D02*
D03*
X1061200Y636750D02*
D03*
Y650750D02*
D03*
X1083850Y1091300D02*
D03*
Y1077300D02*
D03*
X1071800Y1086700D02*
D03*
Y1072700D02*
D03*
X1025000Y1034754D02*
D03*
Y1048754D02*
D03*
X1061200Y1031750D02*
D03*
Y1045750D02*
D03*
X801100Y301300D02*
D03*
Y287300D02*
D03*
X789050Y296700D02*
D03*
Y282700D02*
D03*
X742250Y244754D02*
D03*
Y258754D02*
D03*
X778450Y241750D02*
D03*
Y255750D02*
D03*
X801100Y696300D02*
D03*
Y682300D02*
D03*
X789050Y691700D02*
D03*
Y677700D02*
D03*
X742250Y639754D02*
D03*
Y653754D02*
D03*
X778450Y636750D02*
D03*
Y650750D02*
D03*
X801100Y1091300D02*
D03*
Y1077300D02*
D03*
X789050Y1086700D02*
D03*
Y1072700D02*
D03*
X742250Y1034754D02*
D03*
Y1048754D02*
D03*
X778450Y1031750D02*
D03*
Y1045750D02*
D03*
X518350Y301300D02*
D03*
Y287300D02*
D03*
X506300Y296700D02*
D03*
Y282700D02*
D03*
X459500Y244754D02*
D03*
Y258754D02*
D03*
X495700Y241750D02*
D03*
Y255750D02*
D03*
X518350Y696300D02*
D03*
Y682300D02*
D03*
X506300Y691700D02*
D03*
Y677700D02*
D03*
X459500Y639754D02*
D03*
Y653754D02*
D03*
X495700Y636750D02*
D03*
Y650750D02*
D03*
X518350Y1091300D02*
D03*
Y1077300D02*
D03*
X506300Y1086700D02*
D03*
Y1072700D02*
D03*
X459500Y1034754D02*
D03*
Y1048754D02*
D03*
X495700Y1031750D02*
D03*
Y1045750D02*
D03*
X235600Y301300D02*
D03*
Y287300D02*
D03*
X223550Y296700D02*
D03*
Y282700D02*
D03*
X176750Y244754D02*
D03*
Y258754D02*
D03*
X212950Y241750D02*
D03*
Y255750D02*
D03*
X235600Y696300D02*
D03*
Y682300D02*
D03*
X223550Y691700D02*
D03*
Y677700D02*
D03*
X176750Y639754D02*
D03*
Y653754D02*
D03*
X212950Y636750D02*
D03*
Y650750D02*
D03*
X235600Y1091300D02*
D03*
Y1077300D02*
D03*
X223550Y1086700D02*
D03*
Y1072700D02*
D03*
X176750Y1034754D02*
D03*
Y1048754D02*
D03*
X212950Y1031750D02*
D03*
Y1045750D02*
D03*
X143400Y2173700D02*
D03*
Y2187700D02*
D03*
X155450Y2178300D02*
D03*
Y2192300D02*
D03*
X202250Y2230246D02*
D03*
Y2216246D02*
D03*
X166050Y2233250D02*
D03*
Y2219250D02*
D03*
X143400Y1778700D02*
D03*
Y1792700D02*
D03*
X155450Y1783300D02*
D03*
Y1797300D02*
D03*
X202250Y1835246D02*
D03*
Y1821246D02*
D03*
X166050Y1838250D02*
D03*
Y1824250D02*
D03*
X143400Y1383700D02*
D03*
Y1397700D02*
D03*
X155450Y1388300D02*
D03*
Y1402300D02*
D03*
X202250Y1440246D02*
D03*
Y1426246D02*
D03*
X166050Y1443250D02*
D03*
Y1429250D02*
D03*
X426150Y2173700D02*
D03*
Y2187700D02*
D03*
X438200Y2178300D02*
D03*
Y2192300D02*
D03*
X485000Y2230246D02*
D03*
Y2216246D02*
D03*
X448800Y2233250D02*
D03*
Y2219250D02*
D03*
X426150Y1778700D02*
D03*
Y1792700D02*
D03*
X438200Y1783300D02*
D03*
Y1797300D02*
D03*
X485000Y1835246D02*
D03*
Y1821246D02*
D03*
X448800Y1838250D02*
D03*
Y1824250D02*
D03*
X426150Y1383700D02*
D03*
Y1397700D02*
D03*
X438200Y1388300D02*
D03*
Y1402300D02*
D03*
X485000Y1440246D02*
D03*
Y1426246D02*
D03*
X448800Y1443250D02*
D03*
Y1429250D02*
D03*
X708900Y2173700D02*
D03*
Y2187700D02*
D03*
X720950Y2178300D02*
D03*
Y2192300D02*
D03*
X767750Y2230246D02*
D03*
Y2216246D02*
D03*
X731550Y2233250D02*
D03*
Y2219250D02*
D03*
X708900Y1778700D02*
D03*
Y1792700D02*
D03*
X720950Y1783300D02*
D03*
Y1797300D02*
D03*
X767750Y1835246D02*
D03*
Y1821246D02*
D03*
X731550Y1838250D02*
D03*
Y1824250D02*
D03*
X708900Y1383700D02*
D03*
Y1397700D02*
D03*
X720950Y1388300D02*
D03*
Y1402300D02*
D03*
X767750Y1440246D02*
D03*
Y1426246D02*
D03*
X731550Y1443250D02*
D03*
Y1429250D02*
D03*
X991650Y2173700D02*
D03*
Y2187700D02*
D03*
X1003700Y2178300D02*
D03*
Y2192300D02*
D03*
X1050500Y2230246D02*
D03*
Y2216246D02*
D03*
X1014300Y2233250D02*
D03*
Y2219250D02*
D03*
X991650Y1778700D02*
D03*
Y1792700D02*
D03*
X1003700Y1783300D02*
D03*
Y1797300D02*
D03*
X1050500Y1835246D02*
D03*
Y1821246D02*
D03*
X1014300Y1838250D02*
D03*
Y1824250D02*
D03*
X991650Y1383700D02*
D03*
Y1397700D02*
D03*
X1003700Y1388300D02*
D03*
Y1402300D02*
D03*
X1050500Y1440246D02*
D03*
Y1426246D02*
D03*
X1014300Y1443250D02*
D03*
Y1429250D02*
D03*
X1274400Y2173700D02*
D03*
Y2187700D02*
D03*
X1286450Y2178300D02*
D03*
Y2192300D02*
D03*
X1333250Y2230246D02*
D03*
Y2216246D02*
D03*
X1297050Y2233250D02*
D03*
Y2219250D02*
D03*
X1274400Y1778700D02*
D03*
Y1792700D02*
D03*
X1286450Y1783300D02*
D03*
Y1797300D02*
D03*
X1333250Y1835246D02*
D03*
Y1821246D02*
D03*
X1297050Y1838250D02*
D03*
Y1824250D02*
D03*
X1274400Y1383700D02*
D03*
Y1397700D02*
D03*
X1286450Y1388300D02*
D03*
Y1402300D02*
D03*
X1333250Y1440246D02*
D03*
Y1426246D02*
D03*
X1297050Y1443250D02*
D03*
Y1429250D02*
D03*
D72*
X1381700Y280300D02*
D03*
X1376700D02*
D03*
X1386700D02*
D03*
X1381700Y675300D02*
D03*
X1376700D02*
D03*
X1386700D02*
D03*
X1381700Y1070300D02*
D03*
X1376700D02*
D03*
X1386700D02*
D03*
X1098950Y280300D02*
D03*
X1093950D02*
D03*
X1103950D02*
D03*
X1098950Y675300D02*
D03*
X1093950D02*
D03*
X1103950D02*
D03*
X1098950Y1070300D02*
D03*
X1093950D02*
D03*
X1103950D02*
D03*
X816200Y280300D02*
D03*
X811200D02*
D03*
X821200D02*
D03*
X816200Y675300D02*
D03*
X811200D02*
D03*
X821200D02*
D03*
X816200Y1070300D02*
D03*
X811200D02*
D03*
X821200D02*
D03*
X533450Y280300D02*
D03*
X528450D02*
D03*
X538450D02*
D03*
X533450Y675300D02*
D03*
X528450D02*
D03*
X538450D02*
D03*
X533450Y1070300D02*
D03*
X528450D02*
D03*
X538450D02*
D03*
X250700Y280300D02*
D03*
X245700D02*
D03*
X255700D02*
D03*
X250700Y675300D02*
D03*
X245700D02*
D03*
X255700D02*
D03*
X250700Y1070300D02*
D03*
X245700D02*
D03*
X255700D02*
D03*
X128300Y2194700D02*
D03*
X133300D02*
D03*
X123300D02*
D03*
X128300Y1799700D02*
D03*
X133300D02*
D03*
X123300D02*
D03*
X128300Y1404700D02*
D03*
X133300D02*
D03*
X123300D02*
D03*
X411050Y2194700D02*
D03*
X416050D02*
D03*
X406050D02*
D03*
X411050Y1799700D02*
D03*
X416050D02*
D03*
X406050D02*
D03*
X411050Y1404700D02*
D03*
X416050D02*
D03*
X406050D02*
D03*
X693800Y2194700D02*
D03*
X698800D02*
D03*
X688800D02*
D03*
X693800Y1799700D02*
D03*
X698800D02*
D03*
X688800D02*
D03*
X693800Y1404700D02*
D03*
X698800D02*
D03*
X688800D02*
D03*
X976550Y2194700D02*
D03*
X981550D02*
D03*
X971550D02*
D03*
X976550Y1799700D02*
D03*
X981550D02*
D03*
X971550D02*
D03*
X976550Y1404700D02*
D03*
X981550D02*
D03*
X971550D02*
D03*
X1259300Y2194700D02*
D03*
X1264300D02*
D03*
X1254300D02*
D03*
X1259300Y1799700D02*
D03*
X1264300D02*
D03*
X1254300D02*
D03*
X1259300Y1404700D02*
D03*
X1264300D02*
D03*
X1254300D02*
D03*
D73*
X1349750Y321300D02*
D03*
X1358750D02*
D03*
X1349750Y332050D02*
D03*
X1358750D02*
D03*
X1332500Y345426D02*
D03*
X1323500D02*
D03*
X1340251Y121500D02*
D03*
X1331251D02*
D03*
X1324251Y160250D02*
D03*
X1333251D02*
D03*
X1308251Y154750D02*
D03*
X1299251D02*
D03*
X1390300Y165200D02*
D03*
X1381300D02*
D03*
X1397941Y178000D02*
D03*
X1388941D02*
D03*
X1317850Y360767D02*
D03*
X1308850D02*
D03*
X1334760Y366160D02*
D03*
X1325760D02*
D03*
X1264250Y198200D02*
D03*
X1273250D02*
D03*
X1247500D02*
D03*
X1256500D02*
D03*
X1325660Y235756D02*
D03*
X1334660D02*
D03*
X1349750Y716300D02*
D03*
X1358750D02*
D03*
X1349750Y727050D02*
D03*
X1358750D02*
D03*
X1332500Y740426D02*
D03*
X1323500D02*
D03*
X1340251Y516500D02*
D03*
X1331251D02*
D03*
X1324251Y555250D02*
D03*
X1333251D02*
D03*
X1308251Y549750D02*
D03*
X1299251D02*
D03*
X1390300Y560200D02*
D03*
X1381300D02*
D03*
X1397941Y573000D02*
D03*
X1388941D02*
D03*
X1317850Y755767D02*
D03*
X1308850D02*
D03*
X1334760Y761160D02*
D03*
X1325760D02*
D03*
X1264250Y593200D02*
D03*
X1273250D02*
D03*
X1247500D02*
D03*
X1256500D02*
D03*
X1325660Y630756D02*
D03*
X1334660D02*
D03*
X1349750Y1111300D02*
D03*
X1358750D02*
D03*
X1349750Y1122050D02*
D03*
X1358750D02*
D03*
X1332500Y1135426D02*
D03*
X1323500D02*
D03*
X1340251Y911500D02*
D03*
X1331251D02*
D03*
X1324251Y950250D02*
D03*
X1333251D02*
D03*
X1308251Y944750D02*
D03*
X1299251D02*
D03*
X1390300Y955200D02*
D03*
X1381300D02*
D03*
X1397941Y968000D02*
D03*
X1388941D02*
D03*
X1317850Y1150767D02*
D03*
X1308850D02*
D03*
X1334760Y1156160D02*
D03*
X1325760D02*
D03*
X1264250Y988200D02*
D03*
X1273250D02*
D03*
X1247500D02*
D03*
X1256500D02*
D03*
X1325660Y1025756D02*
D03*
X1334660D02*
D03*
X1067000Y321300D02*
D03*
X1076000D02*
D03*
X1067000Y332050D02*
D03*
X1076000D02*
D03*
X1049750Y345426D02*
D03*
X1040750D02*
D03*
X1057501Y121500D02*
D03*
X1048501D02*
D03*
X1041501Y160250D02*
D03*
X1050501D02*
D03*
X1025501Y154750D02*
D03*
X1016501D02*
D03*
X1107550Y165200D02*
D03*
X1098550D02*
D03*
X1115191Y178000D02*
D03*
X1106191D02*
D03*
X1035100Y360767D02*
D03*
X1026100D02*
D03*
X1052010Y366160D02*
D03*
X1043010D02*
D03*
X981500Y198200D02*
D03*
X990500D02*
D03*
X964750D02*
D03*
X973750D02*
D03*
X1042910Y235756D02*
D03*
X1051910D02*
D03*
X1067000Y716300D02*
D03*
X1076000D02*
D03*
X1067000Y727050D02*
D03*
X1076000D02*
D03*
X1049750Y740426D02*
D03*
X1040750D02*
D03*
X1057501Y516500D02*
D03*
X1048501D02*
D03*
X1041501Y555250D02*
D03*
X1050501D02*
D03*
X1025501Y549750D02*
D03*
X1016501D02*
D03*
X1107550Y560200D02*
D03*
X1098550D02*
D03*
X1115191Y573000D02*
D03*
X1106191D02*
D03*
X1035100Y755767D02*
D03*
X1026100D02*
D03*
X1052010Y761160D02*
D03*
X1043010D02*
D03*
X981500Y593200D02*
D03*
X990500D02*
D03*
X964750D02*
D03*
X973750D02*
D03*
X1042910Y630756D02*
D03*
X1051910D02*
D03*
X1067000Y1111300D02*
D03*
X1076000D02*
D03*
X1067000Y1122050D02*
D03*
X1076000D02*
D03*
X1049750Y1135426D02*
D03*
X1040750D02*
D03*
X1057501Y911500D02*
D03*
X1048501D02*
D03*
X1041501Y950250D02*
D03*
X1050501D02*
D03*
X1025501Y944750D02*
D03*
X1016501D02*
D03*
X1107550Y955200D02*
D03*
X1098550D02*
D03*
X1115191Y968000D02*
D03*
X1106191D02*
D03*
X1035100Y1150767D02*
D03*
X1026100D02*
D03*
X1052010Y1156160D02*
D03*
X1043010D02*
D03*
X981500Y988200D02*
D03*
X990500D02*
D03*
X964750D02*
D03*
X973750D02*
D03*
X1042910Y1025756D02*
D03*
X1051910D02*
D03*
X784250Y321300D02*
D03*
X793250D02*
D03*
X784250Y332050D02*
D03*
X793250D02*
D03*
X767000Y345426D02*
D03*
X758000D02*
D03*
X774751Y121500D02*
D03*
X765751D02*
D03*
X758751Y160250D02*
D03*
X767750D02*
D03*
X742751Y154750D02*
D03*
X733751D02*
D03*
X824800Y165200D02*
D03*
X815800D02*
D03*
X832441Y178000D02*
D03*
X823441D02*
D03*
X752350Y360767D02*
D03*
X743350D02*
D03*
X769260Y366160D02*
D03*
X760260D02*
D03*
X698750Y198200D02*
D03*
X707750D02*
D03*
X682000D02*
D03*
X691000D02*
D03*
X760160Y235756D02*
D03*
X769160D02*
D03*
X784250Y716300D02*
D03*
X793250D02*
D03*
X784250Y727050D02*
D03*
X793250D02*
D03*
X767000Y740426D02*
D03*
X758000D02*
D03*
X774751Y516500D02*
D03*
X765751D02*
D03*
X758751Y555250D02*
D03*
X767750D02*
D03*
X742751Y549750D02*
D03*
X733751D02*
D03*
X824800Y560200D02*
D03*
X815800D02*
D03*
X832441Y573000D02*
D03*
X823441D02*
D03*
X752350Y755767D02*
D03*
X743350D02*
D03*
X769260Y761160D02*
D03*
X760260D02*
D03*
X698750Y593200D02*
D03*
X707750D02*
D03*
X682000D02*
D03*
X691000D02*
D03*
X760160Y630756D02*
D03*
X769160D02*
D03*
X784250Y1111300D02*
D03*
X793250D02*
D03*
X784250Y1122050D02*
D03*
X793250D02*
D03*
X767000Y1135426D02*
D03*
X758000D02*
D03*
X774751Y911500D02*
D03*
X765751D02*
D03*
X758751Y950250D02*
D03*
X767750D02*
D03*
X742751Y944750D02*
D03*
X733751D02*
D03*
X824800Y955200D02*
D03*
X815800D02*
D03*
X832441Y968000D02*
D03*
X823441D02*
D03*
X752350Y1150767D02*
D03*
X743350D02*
D03*
X769260Y1156160D02*
D03*
X760260D02*
D03*
X698750Y988200D02*
D03*
X707750D02*
D03*
X682000D02*
D03*
X691000D02*
D03*
X760160Y1025756D02*
D03*
X769160D02*
D03*
X501500Y321300D02*
D03*
X510500D02*
D03*
X501500Y332050D02*
D03*
X510500D02*
D03*
X484250Y345426D02*
D03*
X475250D02*
D03*
X492001Y121500D02*
D03*
X483000D02*
D03*
X476000Y160250D02*
D03*
X485000D02*
D03*
X460000Y154750D02*
D03*
X451001D02*
D03*
X542050Y165200D02*
D03*
X533050D02*
D03*
X549691Y178000D02*
D03*
X540691D02*
D03*
X469600Y360767D02*
D03*
X460600D02*
D03*
X486510Y366160D02*
D03*
X477510D02*
D03*
X416000Y198200D02*
D03*
X425000D02*
D03*
X399250D02*
D03*
X408250D02*
D03*
X477410Y235756D02*
D03*
X486410D02*
D03*
X501500Y716300D02*
D03*
X510500D02*
D03*
X501500Y727050D02*
D03*
X510500D02*
D03*
X484250Y740426D02*
D03*
X475250D02*
D03*
X492001Y516500D02*
D03*
X483000D02*
D03*
X476000Y555250D02*
D03*
X485000D02*
D03*
X460000Y549750D02*
D03*
X451001D02*
D03*
X542050Y560200D02*
D03*
X533050D02*
D03*
X549691Y573000D02*
D03*
X540691D02*
D03*
X469600Y755767D02*
D03*
X460600D02*
D03*
X486510Y761160D02*
D03*
X477510D02*
D03*
X416000Y593200D02*
D03*
X425000D02*
D03*
X399250D02*
D03*
X408250D02*
D03*
X477410Y630756D02*
D03*
X486410D02*
D03*
X501500Y1111300D02*
D03*
X510500D02*
D03*
X501500Y1122050D02*
D03*
X510500D02*
D03*
X484250Y1135426D02*
D03*
X475250D02*
D03*
X492001Y911500D02*
D03*
X483000D02*
D03*
X476000Y950250D02*
D03*
X485000D02*
D03*
X460000Y944750D02*
D03*
X451001D02*
D03*
X542050Y955200D02*
D03*
X533050D02*
D03*
X549691Y968000D02*
D03*
X540691D02*
D03*
X469600Y1150767D02*
D03*
X460600D02*
D03*
X486510Y1156160D02*
D03*
X477510D02*
D03*
X416000Y988200D02*
D03*
X425000D02*
D03*
X399250D02*
D03*
X408250D02*
D03*
X477410Y1025756D02*
D03*
X486410D02*
D03*
X218750Y321300D02*
D03*
X227750D02*
D03*
X218750Y332050D02*
D03*
X227750D02*
D03*
X201500Y345426D02*
D03*
X192500D02*
D03*
X209250Y121500D02*
D03*
X200250D02*
D03*
X193250Y160250D02*
D03*
X202250D02*
D03*
X177250Y154750D02*
D03*
X168250D02*
D03*
X259300Y165200D02*
D03*
X250300D02*
D03*
X266941Y178000D02*
D03*
X257941D02*
D03*
X186850Y360767D02*
D03*
X177850D02*
D03*
X203760Y366160D02*
D03*
X194760D02*
D03*
X133250Y198200D02*
D03*
X142250D02*
D03*
X116500D02*
D03*
X125500D02*
D03*
X194660Y235756D02*
D03*
X203660D02*
D03*
X218750Y716300D02*
D03*
X227750D02*
D03*
X218750Y727050D02*
D03*
X227750D02*
D03*
X201500Y740426D02*
D03*
X192500D02*
D03*
X209250Y516500D02*
D03*
X200250D02*
D03*
X193250Y555250D02*
D03*
X202250D02*
D03*
X177250Y549750D02*
D03*
X168250D02*
D03*
X259300Y560200D02*
D03*
X250300D02*
D03*
X266941Y573000D02*
D03*
X257941D02*
D03*
X186850Y755767D02*
D03*
X177850D02*
D03*
X203760Y761160D02*
D03*
X194760D02*
D03*
X133250Y593200D02*
D03*
X142250D02*
D03*
X116500D02*
D03*
X125500D02*
D03*
X194660Y630756D02*
D03*
X203660D02*
D03*
X218750Y1111300D02*
D03*
X227750D02*
D03*
X218750Y1122050D02*
D03*
X227750D02*
D03*
X201500Y1135426D02*
D03*
X192500D02*
D03*
X209250Y911500D02*
D03*
X200250D02*
D03*
X193250Y950250D02*
D03*
X202250D02*
D03*
X177250Y944750D02*
D03*
X168250D02*
D03*
X259300Y955200D02*
D03*
X250300D02*
D03*
X266941Y968000D02*
D03*
X257941D02*
D03*
X186850Y1150767D02*
D03*
X177850D02*
D03*
X203760Y1156160D02*
D03*
X194760D02*
D03*
X133250Y988200D02*
D03*
X142250D02*
D03*
X116500D02*
D03*
X125500D02*
D03*
X194660Y1025756D02*
D03*
X203660D02*
D03*
X160250Y2153700D02*
D03*
X151250D02*
D03*
X160250Y2142950D02*
D03*
X151250D02*
D03*
X177500Y2129574D02*
D03*
X186500D02*
D03*
X169749Y2353500D02*
D03*
X178749D02*
D03*
X185749Y2314750D02*
D03*
X176749D02*
D03*
X201749Y2320250D02*
D03*
X210749D02*
D03*
X119700Y2309800D02*
D03*
X128700D02*
D03*
X112059Y2297000D02*
D03*
X121059D02*
D03*
X192150Y2114233D02*
D03*
X201150D02*
D03*
X175240Y2108840D02*
D03*
X184240D02*
D03*
X245750Y2276800D02*
D03*
X236750D02*
D03*
X262500D02*
D03*
X253500D02*
D03*
X184340Y2239244D02*
D03*
X175340D02*
D03*
X160250Y1758700D02*
D03*
X151250D02*
D03*
X160250Y1747950D02*
D03*
X151250D02*
D03*
X177500Y1734574D02*
D03*
X186500D02*
D03*
X169749Y1958500D02*
D03*
X178749D02*
D03*
X185749Y1919750D02*
D03*
X176749D02*
D03*
X201749Y1925250D02*
D03*
X210749D02*
D03*
X119700Y1914800D02*
D03*
X128700D02*
D03*
X112059Y1902000D02*
D03*
X121059D02*
D03*
X192150Y1719233D02*
D03*
X201150D02*
D03*
X175240Y1713840D02*
D03*
X184240D02*
D03*
X245750Y1881800D02*
D03*
X236750D02*
D03*
X262500D02*
D03*
X253500D02*
D03*
X184340Y1844244D02*
D03*
X175340D02*
D03*
X160250Y1363700D02*
D03*
X151250D02*
D03*
X160250Y1352950D02*
D03*
X151250D02*
D03*
X177500Y1339574D02*
D03*
X186500D02*
D03*
X169749Y1563500D02*
D03*
X178749D02*
D03*
X185749Y1524750D02*
D03*
X176749D02*
D03*
X201749Y1530250D02*
D03*
X210749D02*
D03*
X119700Y1519800D02*
D03*
X128700D02*
D03*
X112059Y1507000D02*
D03*
X121059D02*
D03*
X192150Y1324233D02*
D03*
X201150D02*
D03*
X175240Y1318840D02*
D03*
X184240D02*
D03*
X245750Y1486800D02*
D03*
X236750D02*
D03*
X262500D02*
D03*
X253500D02*
D03*
X184340Y1449244D02*
D03*
X175340D02*
D03*
X443000Y2153700D02*
D03*
X434000D02*
D03*
X443000Y2142950D02*
D03*
X434000D02*
D03*
X460250Y2129574D02*
D03*
X469250D02*
D03*
X452499Y2353500D02*
D03*
X461499D02*
D03*
X468499Y2314750D02*
D03*
X459499D02*
D03*
X484499Y2320250D02*
D03*
X493499D02*
D03*
X402450Y2309800D02*
D03*
X411450D02*
D03*
X394809Y2297000D02*
D03*
X403809D02*
D03*
X474900Y2114233D02*
D03*
X483900D02*
D03*
X457990Y2108840D02*
D03*
X466990D02*
D03*
X528500Y2276800D02*
D03*
X519500D02*
D03*
X545250D02*
D03*
X536250D02*
D03*
X467090Y2239244D02*
D03*
X458090D02*
D03*
X443000Y1758700D02*
D03*
X434000D02*
D03*
X443000Y1747950D02*
D03*
X434000D02*
D03*
X460250Y1734574D02*
D03*
X469250D02*
D03*
X452499Y1958500D02*
D03*
X461499D02*
D03*
X468499Y1919750D02*
D03*
X459499D02*
D03*
X484499Y1925250D02*
D03*
X493499D02*
D03*
X402450Y1914800D02*
D03*
X411450D02*
D03*
X394809Y1902000D02*
D03*
X403809D02*
D03*
X474900Y1719233D02*
D03*
X483900D02*
D03*
X457990Y1713840D02*
D03*
X466990D02*
D03*
X528500Y1881800D02*
D03*
X519500D02*
D03*
X545250D02*
D03*
X536250D02*
D03*
X467090Y1844244D02*
D03*
X458090D02*
D03*
X443000Y1363700D02*
D03*
X434000D02*
D03*
X443000Y1352950D02*
D03*
X434000D02*
D03*
X460250Y1339574D02*
D03*
X469250D02*
D03*
X452499Y1563500D02*
D03*
X461499D02*
D03*
X468499Y1524750D02*
D03*
X459499D02*
D03*
X484499Y1530250D02*
D03*
X493499D02*
D03*
X402450Y1519800D02*
D03*
X411450D02*
D03*
X394809Y1507000D02*
D03*
X403809D02*
D03*
X474900Y1324233D02*
D03*
X483900D02*
D03*
X457990Y1318840D02*
D03*
X466990D02*
D03*
X528500Y1486800D02*
D03*
X519500D02*
D03*
X545250D02*
D03*
X536250D02*
D03*
X467090Y1449244D02*
D03*
X458090D02*
D03*
X725750Y2153700D02*
D03*
X716750D02*
D03*
X725750Y2142950D02*
D03*
X716750D02*
D03*
X743000Y2129574D02*
D03*
X752000D02*
D03*
X735249Y2353500D02*
D03*
X744249D02*
D03*
X751249Y2314750D02*
D03*
X742250D02*
D03*
X767249Y2320250D02*
D03*
X776249D02*
D03*
X685200Y2309800D02*
D03*
X694200D02*
D03*
X677559Y2297000D02*
D03*
X686559D02*
D03*
X757650Y2114233D02*
D03*
X766650D02*
D03*
X740740Y2108840D02*
D03*
X749740D02*
D03*
X811250Y2276800D02*
D03*
X802250D02*
D03*
X828000D02*
D03*
X819000D02*
D03*
X749840Y2239244D02*
D03*
X740840D02*
D03*
X725750Y1758700D02*
D03*
X716750D02*
D03*
X725750Y1747950D02*
D03*
X716750D02*
D03*
X743000Y1734574D02*
D03*
X752000D02*
D03*
X735249Y1958500D02*
D03*
X744249D02*
D03*
X751249Y1919750D02*
D03*
X742250D02*
D03*
X767249Y1925250D02*
D03*
X776249D02*
D03*
X685200Y1914800D02*
D03*
X694200D02*
D03*
X677559Y1902000D02*
D03*
X686559D02*
D03*
X757650Y1719233D02*
D03*
X766650D02*
D03*
X740740Y1713840D02*
D03*
X749740D02*
D03*
X811250Y1881800D02*
D03*
X802250D02*
D03*
X828000D02*
D03*
X819000D02*
D03*
X749840Y1844244D02*
D03*
X740840D02*
D03*
X725750Y1363700D02*
D03*
X716750D02*
D03*
X725750Y1352950D02*
D03*
X716750D02*
D03*
X743000Y1339574D02*
D03*
X752000D02*
D03*
X735249Y1563500D02*
D03*
X744249D02*
D03*
X751249Y1524750D02*
D03*
X742250D02*
D03*
X767249Y1530250D02*
D03*
X776249D02*
D03*
X685200Y1519800D02*
D03*
X694200D02*
D03*
X677559Y1507000D02*
D03*
X686559D02*
D03*
X757650Y1324233D02*
D03*
X766650D02*
D03*
X740740Y1318840D02*
D03*
X749740D02*
D03*
X811250Y1486800D02*
D03*
X802250D02*
D03*
X828000D02*
D03*
X819000D02*
D03*
X749840Y1449244D02*
D03*
X740840D02*
D03*
X1008500Y2153700D02*
D03*
X999500D02*
D03*
X1008500Y2142950D02*
D03*
X999500D02*
D03*
X1025750Y2129574D02*
D03*
X1034750D02*
D03*
X1017999Y2353500D02*
D03*
X1027000D02*
D03*
X1034000Y2314750D02*
D03*
X1025000D02*
D03*
X1049999Y2320250D02*
D03*
X1058999D02*
D03*
X967950Y2309800D02*
D03*
X976950D02*
D03*
X960309Y2297000D02*
D03*
X969309D02*
D03*
X1040400Y2114233D02*
D03*
X1049400D02*
D03*
X1023490Y2108840D02*
D03*
X1032490D02*
D03*
X1094000Y2276800D02*
D03*
X1085000D02*
D03*
X1110750D02*
D03*
X1101750D02*
D03*
X1032590Y2239244D02*
D03*
X1023590D02*
D03*
X1008500Y1758700D02*
D03*
X999500D02*
D03*
X1008500Y1747950D02*
D03*
X999500D02*
D03*
X1025750Y1734574D02*
D03*
X1034750D02*
D03*
X1017999Y1958500D02*
D03*
X1027000D02*
D03*
X1034000Y1919750D02*
D03*
X1025000D02*
D03*
X1049999Y1925250D02*
D03*
X1058999D02*
D03*
X967950Y1914800D02*
D03*
X976950D02*
D03*
X960309Y1902000D02*
D03*
X969309D02*
D03*
X1040400Y1719233D02*
D03*
X1049400D02*
D03*
X1023490Y1713840D02*
D03*
X1032490D02*
D03*
X1094000Y1881800D02*
D03*
X1085000D02*
D03*
X1110750D02*
D03*
X1101750D02*
D03*
X1032590Y1844244D02*
D03*
X1023590D02*
D03*
X1008500Y1363700D02*
D03*
X999500D02*
D03*
X1008500Y1352950D02*
D03*
X999500D02*
D03*
X1025750Y1339574D02*
D03*
X1034750D02*
D03*
X1017999Y1563500D02*
D03*
X1027000D02*
D03*
X1034000Y1524750D02*
D03*
X1025000D02*
D03*
X1049999Y1530250D02*
D03*
X1058999D02*
D03*
X967950Y1519800D02*
D03*
X976950D02*
D03*
X960309Y1507000D02*
D03*
X969309D02*
D03*
X1040400Y1324233D02*
D03*
X1049400D02*
D03*
X1023490Y1318840D02*
D03*
X1032490D02*
D03*
X1094000Y1486800D02*
D03*
X1085000D02*
D03*
X1110750D02*
D03*
X1101750D02*
D03*
X1032590Y1449244D02*
D03*
X1023590D02*
D03*
X1291250Y2153700D02*
D03*
X1282250D02*
D03*
X1291250Y2142950D02*
D03*
X1282250D02*
D03*
X1308500Y2129574D02*
D03*
X1317500D02*
D03*
X1300750Y2353500D02*
D03*
X1309750D02*
D03*
X1316750Y2314750D02*
D03*
X1307750D02*
D03*
X1332750Y2320250D02*
D03*
X1341750D02*
D03*
X1250700Y2309800D02*
D03*
X1259700D02*
D03*
X1243059Y2297000D02*
D03*
X1252059D02*
D03*
X1323150Y2114233D02*
D03*
X1332150D02*
D03*
X1306240Y2108840D02*
D03*
X1315240D02*
D03*
X1376750Y2276800D02*
D03*
X1367750D02*
D03*
X1393500D02*
D03*
X1384500D02*
D03*
X1315340Y2239244D02*
D03*
X1306340D02*
D03*
X1291250Y1758700D02*
D03*
X1282250D02*
D03*
X1291250Y1747950D02*
D03*
X1282250D02*
D03*
X1308500Y1734574D02*
D03*
X1317500D02*
D03*
X1300750Y1958500D02*
D03*
X1309750D02*
D03*
X1316750Y1919750D02*
D03*
X1307750D02*
D03*
X1332750Y1925250D02*
D03*
X1341750D02*
D03*
X1250700Y1914800D02*
D03*
X1259700D02*
D03*
X1243059Y1902000D02*
D03*
X1252059D02*
D03*
X1323150Y1719233D02*
D03*
X1332150D02*
D03*
X1306240Y1713840D02*
D03*
X1315240D02*
D03*
X1376750Y1881800D02*
D03*
X1367750D02*
D03*
X1393500D02*
D03*
X1384500D02*
D03*
X1315340Y1844244D02*
D03*
X1306340D02*
D03*
X1291250Y1363700D02*
D03*
X1282250D02*
D03*
X1291250Y1352950D02*
D03*
X1282250D02*
D03*
X1308500Y1339574D02*
D03*
X1317500D02*
D03*
X1300750Y1563500D02*
D03*
X1309750D02*
D03*
X1316750Y1524750D02*
D03*
X1307750D02*
D03*
X1332750Y1530250D02*
D03*
X1341750D02*
D03*
X1250700Y1519800D02*
D03*
X1259700D02*
D03*
X1243059Y1507000D02*
D03*
X1252059D02*
D03*
X1323150Y1324233D02*
D03*
X1332150D02*
D03*
X1306240Y1318840D02*
D03*
X1315240D02*
D03*
X1376750Y1486800D02*
D03*
X1367750D02*
D03*
X1393500D02*
D03*
X1384500D02*
D03*
X1315340Y1449244D02*
D03*
X1306340D02*
D03*
D74*
X1376700Y266300D02*
D03*
X1381700D02*
D03*
X1386700D02*
D03*
X1376700Y661300D02*
D03*
X1381700D02*
D03*
X1386700D02*
D03*
X1376700Y1056300D02*
D03*
X1381700D02*
D03*
X1386700D02*
D03*
X1093950Y266300D02*
D03*
X1098950D02*
D03*
X1103950D02*
D03*
X1093950Y661300D02*
D03*
X1098950D02*
D03*
X1103950D02*
D03*
X1093950Y1056300D02*
D03*
X1098950D02*
D03*
X1103950D02*
D03*
X811200Y266300D02*
D03*
X816200D02*
D03*
X821200D02*
D03*
X811200Y661300D02*
D03*
X816200D02*
D03*
X821200D02*
D03*
X811200Y1056300D02*
D03*
X816200D02*
D03*
X821200D02*
D03*
X528450Y266300D02*
D03*
X533450D02*
D03*
X538450D02*
D03*
X528450Y661300D02*
D03*
X533450D02*
D03*
X538450D02*
D03*
X528450Y1056300D02*
D03*
X533450D02*
D03*
X538450D02*
D03*
X245700Y266300D02*
D03*
X250700D02*
D03*
X255700D02*
D03*
X245700Y661300D02*
D03*
X250700D02*
D03*
X255700D02*
D03*
X245700Y1056300D02*
D03*
X250700D02*
D03*
X255700D02*
D03*
X133300Y2208700D02*
D03*
X128300D02*
D03*
X123300D02*
D03*
X133300Y1813700D02*
D03*
X128300D02*
D03*
X123300D02*
D03*
X133300Y1418700D02*
D03*
X128300D02*
D03*
X123300D02*
D03*
X416050Y2208700D02*
D03*
X411050D02*
D03*
X406050D02*
D03*
X416050Y1813700D02*
D03*
X411050D02*
D03*
X406050D02*
D03*
X416050Y1418700D02*
D03*
X411050D02*
D03*
X406050D02*
D03*
X698800Y2208700D02*
D03*
X693800D02*
D03*
X688800D02*
D03*
X698800Y1813700D02*
D03*
X693800D02*
D03*
X688800D02*
D03*
X698800Y1418700D02*
D03*
X693800D02*
D03*
X688800D02*
D03*
X981550Y2208700D02*
D03*
X976550D02*
D03*
X971550D02*
D03*
X981550Y1813700D02*
D03*
X976550D02*
D03*
X971550D02*
D03*
X981550Y1418700D02*
D03*
X976550D02*
D03*
X971550D02*
D03*
X1264300Y2208700D02*
D03*
X1259300D02*
D03*
X1254300D02*
D03*
X1264300Y1813700D02*
D03*
X1259300D02*
D03*
X1254300D02*
D03*
X1264300Y1418700D02*
D03*
X1259300D02*
D03*
X1254300D02*
D03*
D75*
X1353600Y437720D02*
D03*
X1339600D02*
D03*
X1283284Y180500D02*
D03*
X1269284D02*
D03*
X1353600Y832720D02*
D03*
X1339600D02*
D03*
X1283284Y575500D02*
D03*
X1269284D02*
D03*
X1353600Y1227720D02*
D03*
X1339600D02*
D03*
X1283284Y970500D02*
D03*
X1269284D02*
D03*
X1070850Y437720D02*
D03*
X1056850D02*
D03*
X1000534Y180500D02*
D03*
X986534D02*
D03*
X1070850Y832720D02*
D03*
X1056850D02*
D03*
X1000534Y575500D02*
D03*
X986534D02*
D03*
X1070850Y1227720D02*
D03*
X1056850D02*
D03*
X1000534Y970500D02*
D03*
X986534D02*
D03*
X788100Y437720D02*
D03*
X774100D02*
D03*
X717784Y180500D02*
D03*
X703783D02*
D03*
X788100Y832720D02*
D03*
X774100D02*
D03*
X717784Y575500D02*
D03*
X703783D02*
D03*
X788100Y1227720D02*
D03*
X774100D02*
D03*
X717784Y970500D02*
D03*
X703783D02*
D03*
X505350Y437720D02*
D03*
X491350D02*
D03*
X435033Y180500D02*
D03*
X421033D02*
D03*
X505350Y832720D02*
D03*
X491350D02*
D03*
X435033Y575500D02*
D03*
X421033D02*
D03*
X505350Y1227720D02*
D03*
X491350D02*
D03*
X435033Y970500D02*
D03*
X421033D02*
D03*
X222600Y437720D02*
D03*
X208600D02*
D03*
X152283Y180500D02*
D03*
X138283D02*
D03*
X222600Y832720D02*
D03*
X208600D02*
D03*
X152283Y575500D02*
D03*
X138283D02*
D03*
X222600Y1227720D02*
D03*
X208600D02*
D03*
X152283Y970500D02*
D03*
X138283D02*
D03*
X156400Y2037280D02*
D03*
X170400D02*
D03*
X226716Y2294500D02*
D03*
X240716D02*
D03*
X156400Y1642280D02*
D03*
X170400D02*
D03*
X226716Y1899500D02*
D03*
X240716D02*
D03*
X156400Y1247280D02*
D03*
X170400D02*
D03*
X226716Y1504500D02*
D03*
X240716D02*
D03*
X439150Y2037280D02*
D03*
X453150D02*
D03*
X509466Y2294500D02*
D03*
X523466D02*
D03*
X439150Y1642280D02*
D03*
X453150D02*
D03*
X509466Y1899500D02*
D03*
X523466D02*
D03*
X439150Y1247280D02*
D03*
X453150D02*
D03*
X509466Y1504500D02*
D03*
X523466D02*
D03*
X721900Y2037280D02*
D03*
X735900D02*
D03*
X792216Y2294500D02*
D03*
X806217D02*
D03*
X721900Y1642280D02*
D03*
X735900D02*
D03*
X792216Y1899500D02*
D03*
X806217D02*
D03*
X721900Y1247280D02*
D03*
X735900D02*
D03*
X792216Y1504500D02*
D03*
X806217D02*
D03*
X1004650Y2037280D02*
D03*
X1018650D02*
D03*
X1074967Y2294500D02*
D03*
X1088967D02*
D03*
X1004650Y1642280D02*
D03*
X1018650D02*
D03*
X1074967Y1899500D02*
D03*
X1088967D02*
D03*
X1004650Y1247280D02*
D03*
X1018650D02*
D03*
X1074967Y1504500D02*
D03*
X1088967D02*
D03*
X1287400Y2037280D02*
D03*
X1301400D02*
D03*
X1357717Y2294500D02*
D03*
X1371717D02*
D03*
X1287400Y1642280D02*
D03*
X1301400D02*
D03*
X1357717Y1899500D02*
D03*
X1371717D02*
D03*
X1287400Y1247280D02*
D03*
X1301400D02*
D03*
X1357717Y1504500D02*
D03*
X1371717D02*
D03*
D76*
X1387000Y371750D02*
D03*
Y351750D02*
D03*
Y391750D02*
D03*
Y766750D02*
D03*
Y746750D02*
D03*
Y786750D02*
D03*
Y1161750D02*
D03*
Y1141750D02*
D03*
Y1181750D02*
D03*
X1104250Y371750D02*
D03*
Y351750D02*
D03*
Y391750D02*
D03*
Y766750D02*
D03*
Y746750D02*
D03*
Y786750D02*
D03*
Y1161750D02*
D03*
Y1141750D02*
D03*
Y1181750D02*
D03*
X821500Y371750D02*
D03*
Y351750D02*
D03*
Y391750D02*
D03*
Y766750D02*
D03*
Y746750D02*
D03*
Y786750D02*
D03*
Y1161750D02*
D03*
Y1141750D02*
D03*
Y1181750D02*
D03*
X538750Y371750D02*
D03*
Y351750D02*
D03*
Y391750D02*
D03*
Y766750D02*
D03*
Y746750D02*
D03*
Y786750D02*
D03*
Y1161750D02*
D03*
Y1141750D02*
D03*
Y1181750D02*
D03*
X256000Y371750D02*
D03*
Y351750D02*
D03*
Y391750D02*
D03*
Y766750D02*
D03*
Y746750D02*
D03*
Y786750D02*
D03*
Y1161750D02*
D03*
Y1141750D02*
D03*
Y1181750D02*
D03*
X123000Y2103250D02*
D03*
Y2123250D02*
D03*
Y2083250D02*
D03*
Y1708250D02*
D03*
Y1728250D02*
D03*
Y1688250D02*
D03*
Y1313250D02*
D03*
Y1333250D02*
D03*
Y1293250D02*
D03*
X405750Y2103250D02*
D03*
Y2123250D02*
D03*
Y2083250D02*
D03*
Y1708250D02*
D03*
Y1728250D02*
D03*
Y1688250D02*
D03*
Y1313250D02*
D03*
Y1333250D02*
D03*
Y1293250D02*
D03*
X688500Y2103250D02*
D03*
Y2123250D02*
D03*
Y2083250D02*
D03*
Y1708250D02*
D03*
Y1728250D02*
D03*
Y1688250D02*
D03*
Y1313250D02*
D03*
Y1333250D02*
D03*
Y1293250D02*
D03*
X971250Y2103250D02*
D03*
Y2123250D02*
D03*
Y2083250D02*
D03*
Y1708250D02*
D03*
Y1728250D02*
D03*
Y1688250D02*
D03*
Y1313250D02*
D03*
Y1333250D02*
D03*
Y1293250D02*
D03*
X1254000Y2103250D02*
D03*
Y2123250D02*
D03*
Y2083250D02*
D03*
Y1708250D02*
D03*
Y1728250D02*
D03*
Y1688250D02*
D03*
Y1313250D02*
D03*
Y1333250D02*
D03*
Y1293250D02*
D03*
D77*
X1330750Y152250D02*
D03*
X1337250D02*
D03*
X1324250D02*
D03*
Y129750D02*
D03*
X1337250D02*
D03*
X1330750D02*
D03*
Y547250D02*
D03*
X1337250D02*
D03*
X1324250D02*
D03*
Y524750D02*
D03*
X1337250D02*
D03*
X1330750D02*
D03*
Y942250D02*
D03*
X1337250D02*
D03*
X1324250D02*
D03*
Y919750D02*
D03*
X1337250D02*
D03*
X1330750D02*
D03*
X1048000Y152250D02*
D03*
X1054500D02*
D03*
X1041500D02*
D03*
Y129750D02*
D03*
X1054500D02*
D03*
X1048000D02*
D03*
Y547250D02*
D03*
X1054500D02*
D03*
X1041500D02*
D03*
Y524750D02*
D03*
X1054500D02*
D03*
X1048000D02*
D03*
Y942250D02*
D03*
X1054500D02*
D03*
X1041500D02*
D03*
Y919750D02*
D03*
X1054500D02*
D03*
X1048000D02*
D03*
X765250Y152250D02*
D03*
X771750D02*
D03*
X758750D02*
D03*
Y129750D02*
D03*
X771750D02*
D03*
X765250D02*
D03*
Y547250D02*
D03*
X771750D02*
D03*
X758750D02*
D03*
Y524750D02*
D03*
X771750D02*
D03*
X765250D02*
D03*
Y942250D02*
D03*
X771750D02*
D03*
X758750D02*
D03*
Y919750D02*
D03*
X771750D02*
D03*
X765250D02*
D03*
X482500Y152250D02*
D03*
X489000D02*
D03*
X476000D02*
D03*
Y129750D02*
D03*
X489000D02*
D03*
X482500D02*
D03*
Y547250D02*
D03*
X489000D02*
D03*
X476000D02*
D03*
Y524750D02*
D03*
X489000D02*
D03*
X482500D02*
D03*
Y942250D02*
D03*
X489000D02*
D03*
X476000D02*
D03*
Y919750D02*
D03*
X489000D02*
D03*
X482500D02*
D03*
X199750Y152250D02*
D03*
X206250D02*
D03*
X193250D02*
D03*
Y129750D02*
D03*
X206250D02*
D03*
X199750D02*
D03*
Y547250D02*
D03*
X206250D02*
D03*
X193250D02*
D03*
Y524750D02*
D03*
X206250D02*
D03*
X199750D02*
D03*
Y942250D02*
D03*
X206250D02*
D03*
X193250D02*
D03*
Y919750D02*
D03*
X206250D02*
D03*
X199750D02*
D03*
X179250Y2322750D02*
D03*
X172750D02*
D03*
X185750D02*
D03*
Y2345250D02*
D03*
X172750D02*
D03*
X179250D02*
D03*
Y1927750D02*
D03*
X172750D02*
D03*
X185750D02*
D03*
Y1950250D02*
D03*
X172750D02*
D03*
X179250D02*
D03*
Y1532750D02*
D03*
X172750D02*
D03*
X185750D02*
D03*
Y1555250D02*
D03*
X172750D02*
D03*
X179250D02*
D03*
X462000Y2322750D02*
D03*
X455500D02*
D03*
X468500D02*
D03*
Y2345250D02*
D03*
X455500D02*
D03*
X462000D02*
D03*
Y1927750D02*
D03*
X455500D02*
D03*
X468500D02*
D03*
Y1950250D02*
D03*
X455500D02*
D03*
X462000D02*
D03*
Y1532750D02*
D03*
X455500D02*
D03*
X468500D02*
D03*
Y1555250D02*
D03*
X455500D02*
D03*
X462000D02*
D03*
X744750Y2322750D02*
D03*
X738250D02*
D03*
X751250D02*
D03*
Y2345250D02*
D03*
X738250D02*
D03*
X744750D02*
D03*
Y1927750D02*
D03*
X738250D02*
D03*
X751250D02*
D03*
Y1950250D02*
D03*
X738250D02*
D03*
X744750D02*
D03*
Y1532750D02*
D03*
X738250D02*
D03*
X751250D02*
D03*
Y1555250D02*
D03*
X738250D02*
D03*
X744750D02*
D03*
X1027500Y2322750D02*
D03*
X1021000D02*
D03*
X1034000D02*
D03*
Y2345250D02*
D03*
X1021000D02*
D03*
X1027500D02*
D03*
Y1927750D02*
D03*
X1021000D02*
D03*
X1034000D02*
D03*
Y1950250D02*
D03*
X1021000D02*
D03*
X1027500D02*
D03*
Y1532750D02*
D03*
X1021000D02*
D03*
X1034000D02*
D03*
Y1555250D02*
D03*
X1021000D02*
D03*
X1027500D02*
D03*
X1310250Y2322750D02*
D03*
X1303750D02*
D03*
X1316750D02*
D03*
Y2345250D02*
D03*
X1303750D02*
D03*
X1310250D02*
D03*
Y1927750D02*
D03*
X1303750D02*
D03*
X1316750D02*
D03*
Y1950250D02*
D03*
X1303750D02*
D03*
X1310250D02*
D03*
Y1532750D02*
D03*
X1303750D02*
D03*
X1316750D02*
D03*
Y1555250D02*
D03*
X1303750D02*
D03*
X1310250D02*
D03*
D78*
X1335750Y141000D02*
D03*
X1325750D02*
D03*
X1335750Y536000D02*
D03*
X1325750D02*
D03*
X1335750Y931000D02*
D03*
X1325750D02*
D03*
X1053000Y141000D02*
D03*
X1043000D02*
D03*
X1053000Y536000D02*
D03*
X1043000D02*
D03*
X1053000Y931000D02*
D03*
X1043000D02*
D03*
X770250Y141000D02*
D03*
X760250D02*
D03*
X770250Y536000D02*
D03*
X760250D02*
D03*
X770250Y931000D02*
D03*
X760250D02*
D03*
X487500Y141000D02*
D03*
X477500D02*
D03*
X487500Y536000D02*
D03*
X477500D02*
D03*
X487500Y931000D02*
D03*
X477500D02*
D03*
X204750Y141000D02*
D03*
X194750D02*
D03*
X204750Y536000D02*
D03*
X194750D02*
D03*
X204750Y931000D02*
D03*
X194750D02*
D03*
X174250Y2334000D02*
D03*
X184250D02*
D03*
X174250Y1939000D02*
D03*
X184250D02*
D03*
X174250Y1544000D02*
D03*
X184250D02*
D03*
X457000Y2334000D02*
D03*
X467000D02*
D03*
X457000Y1939000D02*
D03*
X467000D02*
D03*
X457000Y1544000D02*
D03*
X467000D02*
D03*
X739750Y2334000D02*
D03*
X749750D02*
D03*
X739750Y1939000D02*
D03*
X749750D02*
D03*
X739750Y1544000D02*
D03*
X749750D02*
D03*
X1022500Y2334000D02*
D03*
X1032500D02*
D03*
X1022500Y1939000D02*
D03*
X1032500D02*
D03*
X1022500Y1544000D02*
D03*
X1032500D02*
D03*
X1305250Y2334000D02*
D03*
X1315250D02*
D03*
X1305250Y1939000D02*
D03*
X1315250D02*
D03*
X1305250Y1544000D02*
D03*
X1315250D02*
D03*
D79*
X1308751Y146000D02*
D03*
Y541000D02*
D03*
Y936000D02*
D03*
X1026001Y146000D02*
D03*
Y541000D02*
D03*
Y936000D02*
D03*
X743251Y146000D02*
D03*
Y541000D02*
D03*
Y936000D02*
D03*
X460500Y146000D02*
D03*
Y541000D02*
D03*
Y936000D02*
D03*
X177750Y146000D02*
D03*
Y541000D02*
D03*
Y936000D02*
D03*
X201249Y2329000D02*
D03*
Y1934000D02*
D03*
Y1539000D02*
D03*
X483999Y2329000D02*
D03*
Y1934000D02*
D03*
Y1539000D02*
D03*
X766749Y2329000D02*
D03*
Y1934000D02*
D03*
Y1539000D02*
D03*
X1049500Y2329000D02*
D03*
Y1934000D02*
D03*
Y1539000D02*
D03*
X1332250Y2329000D02*
D03*
Y1934000D02*
D03*
Y1539000D02*
D03*
D80*
X1309251Y141000D02*
D03*
Y136000D02*
D03*
X1298751Y146000D02*
D03*
Y141000D02*
D03*
Y136000D02*
D03*
X1309251Y536000D02*
D03*
Y531000D02*
D03*
X1298751Y541000D02*
D03*
Y536000D02*
D03*
Y531000D02*
D03*
X1309251Y931000D02*
D03*
Y926000D02*
D03*
X1298751Y936000D02*
D03*
Y931000D02*
D03*
Y926000D02*
D03*
X1026501Y141000D02*
D03*
Y136000D02*
D03*
X1016001Y146000D02*
D03*
Y141000D02*
D03*
Y136000D02*
D03*
X1026501Y536000D02*
D03*
Y531000D02*
D03*
X1016001Y541000D02*
D03*
Y536000D02*
D03*
Y531000D02*
D03*
X1026501Y931000D02*
D03*
Y926000D02*
D03*
X1016001Y936000D02*
D03*
Y931000D02*
D03*
Y926000D02*
D03*
X743751Y141000D02*
D03*
Y136000D02*
D03*
X733251Y146000D02*
D03*
Y141000D02*
D03*
Y136000D02*
D03*
X743751Y536000D02*
D03*
Y531000D02*
D03*
X733251Y541000D02*
D03*
Y536000D02*
D03*
Y531000D02*
D03*
X743751Y931000D02*
D03*
Y926000D02*
D03*
X733251Y936000D02*
D03*
Y931000D02*
D03*
Y926000D02*
D03*
X461001Y141000D02*
D03*
Y136000D02*
D03*
X450500Y146000D02*
D03*
Y141000D02*
D03*
Y136000D02*
D03*
X461001Y536000D02*
D03*
Y531000D02*
D03*
X450500Y541000D02*
D03*
Y536000D02*
D03*
Y531000D02*
D03*
X461001Y931000D02*
D03*
Y926000D02*
D03*
X450500Y936000D02*
D03*
Y931000D02*
D03*
Y926000D02*
D03*
X178250Y141000D02*
D03*
Y136000D02*
D03*
X167750Y146000D02*
D03*
Y141000D02*
D03*
Y136000D02*
D03*
X178250Y536000D02*
D03*
Y531000D02*
D03*
X167750Y541000D02*
D03*
Y536000D02*
D03*
Y531000D02*
D03*
X178250Y931000D02*
D03*
Y926000D02*
D03*
X167750Y936000D02*
D03*
Y931000D02*
D03*
Y926000D02*
D03*
X200749Y2334000D02*
D03*
Y2339000D02*
D03*
X211249Y2329000D02*
D03*
Y2334000D02*
D03*
Y2339000D02*
D03*
X200749Y1939000D02*
D03*
Y1944000D02*
D03*
X211249Y1934000D02*
D03*
Y1939000D02*
D03*
Y1944000D02*
D03*
X200749Y1544000D02*
D03*
Y1549000D02*
D03*
X211249Y1539000D02*
D03*
Y1544000D02*
D03*
Y1549000D02*
D03*
X483499Y2334000D02*
D03*
Y2339000D02*
D03*
X493999Y2329000D02*
D03*
Y2334000D02*
D03*
Y2339000D02*
D03*
X483499Y1939000D02*
D03*
Y1944000D02*
D03*
X493999Y1934000D02*
D03*
Y1939000D02*
D03*
Y1944000D02*
D03*
X483499Y1544000D02*
D03*
Y1549000D02*
D03*
X493999Y1539000D02*
D03*
Y1544000D02*
D03*
Y1549000D02*
D03*
X766249Y2334000D02*
D03*
Y2339000D02*
D03*
X776749Y2329000D02*
D03*
Y2334000D02*
D03*
Y2339000D02*
D03*
X766249Y1939000D02*
D03*
Y1944000D02*
D03*
X776749Y1934000D02*
D03*
Y1939000D02*
D03*
Y1944000D02*
D03*
X766249Y1544000D02*
D03*
Y1549000D02*
D03*
X776749Y1539000D02*
D03*
Y1544000D02*
D03*
Y1549000D02*
D03*
X1048999Y2334000D02*
D03*
Y2339000D02*
D03*
X1059500Y2329000D02*
D03*
Y2334000D02*
D03*
Y2339000D02*
D03*
X1048999Y1939000D02*
D03*
Y1944000D02*
D03*
X1059500Y1934000D02*
D03*
Y1939000D02*
D03*
Y1944000D02*
D03*
X1048999Y1544000D02*
D03*
Y1549000D02*
D03*
X1059500Y1539000D02*
D03*
Y1544000D02*
D03*
Y1549000D02*
D03*
X1331750Y2334000D02*
D03*
Y2339000D02*
D03*
X1342250Y2329000D02*
D03*
Y2334000D02*
D03*
Y2339000D02*
D03*
X1331750Y1939000D02*
D03*
Y1944000D02*
D03*
X1342250Y1934000D02*
D03*
Y1939000D02*
D03*
Y1944000D02*
D03*
X1331750Y1544000D02*
D03*
Y1549000D02*
D03*
X1342250Y1539000D02*
D03*
Y1544000D02*
D03*
Y1549000D02*
D03*
D81*
X1329950Y207750D02*
D03*
Y197750D02*
D03*
Y602750D02*
D03*
Y592750D02*
D03*
Y997750D02*
D03*
Y987750D02*
D03*
X1047200Y207750D02*
D03*
Y197750D02*
D03*
Y602750D02*
D03*
Y592750D02*
D03*
Y997750D02*
D03*
Y987750D02*
D03*
X764450Y207750D02*
D03*
Y197750D02*
D03*
Y602750D02*
D03*
Y592750D02*
D03*
Y997750D02*
D03*
Y987750D02*
D03*
X481700Y207750D02*
D03*
Y197750D02*
D03*
Y602750D02*
D03*
Y592750D02*
D03*
Y997750D02*
D03*
Y987750D02*
D03*
X198950Y207750D02*
D03*
Y197750D02*
D03*
Y602750D02*
D03*
Y592750D02*
D03*
Y997750D02*
D03*
Y987750D02*
D03*
X180050Y2267250D02*
D03*
Y2277250D02*
D03*
Y1872250D02*
D03*
Y1882250D02*
D03*
Y1477250D02*
D03*
Y1487250D02*
D03*
X462800Y2267250D02*
D03*
Y2277250D02*
D03*
Y1872250D02*
D03*
Y1882250D02*
D03*
Y1477250D02*
D03*
Y1487250D02*
D03*
X745550Y2267250D02*
D03*
Y2277250D02*
D03*
Y1872250D02*
D03*
Y1882250D02*
D03*
Y1477250D02*
D03*
Y1487250D02*
D03*
X1028300Y2267250D02*
D03*
Y2277250D02*
D03*
Y1872250D02*
D03*
Y1882250D02*
D03*
Y1477250D02*
D03*
Y1487250D02*
D03*
X1311050Y2267250D02*
D03*
Y2277250D02*
D03*
Y1872250D02*
D03*
Y1882250D02*
D03*
Y1477250D02*
D03*
Y1487250D02*
D03*
D82*
X1367718Y188249D02*
D03*
X1374218D02*
D03*
X1380718D02*
D03*
X1387218D02*
D03*
Y227749D02*
D03*
X1380718D02*
D03*
X1374218D02*
D03*
X1367718D02*
D03*
Y583248D02*
D03*
X1374218D02*
D03*
X1380718D02*
D03*
X1387218D02*
D03*
Y622748D02*
D03*
X1380718D02*
D03*
X1374218D02*
D03*
X1367718D02*
D03*
Y978249D02*
D03*
X1374218D02*
D03*
X1380718D02*
D03*
X1387218D02*
D03*
Y1017748D02*
D03*
X1380718D02*
D03*
X1374218D02*
D03*
X1367718D02*
D03*
X1084968Y188249D02*
D03*
X1091468D02*
D03*
X1097968D02*
D03*
X1104468D02*
D03*
Y227749D02*
D03*
X1097968D02*
D03*
X1091468D02*
D03*
X1084968D02*
D03*
Y583248D02*
D03*
X1091468D02*
D03*
X1097968D02*
D03*
X1104468D02*
D03*
Y622748D02*
D03*
X1097968D02*
D03*
X1091468D02*
D03*
X1084968D02*
D03*
Y978249D02*
D03*
X1091468D02*
D03*
X1097968D02*
D03*
X1104468D02*
D03*
Y1017748D02*
D03*
X1097968D02*
D03*
X1091468D02*
D03*
X1084968D02*
D03*
X802217Y188249D02*
D03*
X808717D02*
D03*
X815218D02*
D03*
X821718D02*
D03*
Y227749D02*
D03*
X815218D02*
D03*
X808717D02*
D03*
X802217D02*
D03*
Y583248D02*
D03*
X808717D02*
D03*
X815218D02*
D03*
X821718D02*
D03*
Y622748D02*
D03*
X815218D02*
D03*
X808717D02*
D03*
X802217D02*
D03*
Y978249D02*
D03*
X808717D02*
D03*
X815218D02*
D03*
X821718D02*
D03*
Y1017748D02*
D03*
X815218D02*
D03*
X808717D02*
D03*
X802217D02*
D03*
X519467Y188249D02*
D03*
X525967D02*
D03*
X532467D02*
D03*
X538967D02*
D03*
Y227749D02*
D03*
X532467D02*
D03*
X525967D02*
D03*
X519467D02*
D03*
Y583248D02*
D03*
X525967D02*
D03*
X532467D02*
D03*
X538967D02*
D03*
Y622748D02*
D03*
X532467D02*
D03*
X525967D02*
D03*
X519467D02*
D03*
Y978249D02*
D03*
X525967D02*
D03*
X532467D02*
D03*
X538967D02*
D03*
Y1017748D02*
D03*
X532467D02*
D03*
X525967D02*
D03*
X519467D02*
D03*
X236717Y188249D02*
D03*
X243217D02*
D03*
X249717D02*
D03*
X256217D02*
D03*
Y227749D02*
D03*
X249717D02*
D03*
X243217D02*
D03*
X236717D02*
D03*
Y583248D02*
D03*
X243217D02*
D03*
X249717D02*
D03*
X256217D02*
D03*
Y622748D02*
D03*
X249717D02*
D03*
X243217D02*
D03*
X236717D02*
D03*
Y978249D02*
D03*
X243217D02*
D03*
X249717D02*
D03*
X256217D02*
D03*
Y1017748D02*
D03*
X249717D02*
D03*
X243217D02*
D03*
X236717D02*
D03*
X142282Y2286752D02*
D03*
X135782D02*
D03*
X129282D02*
D03*
X122782D02*
D03*
Y2247251D02*
D03*
X129282D02*
D03*
X135782D02*
D03*
X142282D02*
D03*
Y1891752D02*
D03*
X135782D02*
D03*
X129282D02*
D03*
X122782D02*
D03*
Y1852251D02*
D03*
X129282D02*
D03*
X135782D02*
D03*
X142282D02*
D03*
Y1496752D02*
D03*
X135782D02*
D03*
X129282D02*
D03*
X122782D02*
D03*
Y1457251D02*
D03*
X129282D02*
D03*
X135782D02*
D03*
X142282D02*
D03*
X425032Y2286752D02*
D03*
X418532D02*
D03*
X412032D02*
D03*
X405532D02*
D03*
Y2247251D02*
D03*
X412032D02*
D03*
X418532D02*
D03*
X425032D02*
D03*
Y1891752D02*
D03*
X418532D02*
D03*
X412032D02*
D03*
X405532D02*
D03*
Y1852251D02*
D03*
X412032D02*
D03*
X418532D02*
D03*
X425032D02*
D03*
Y1496752D02*
D03*
X418532D02*
D03*
X412032D02*
D03*
X405532D02*
D03*
Y1457251D02*
D03*
X412032D02*
D03*
X418532D02*
D03*
X425032D02*
D03*
X707783Y2286752D02*
D03*
X701283D02*
D03*
X694782D02*
D03*
X688282D02*
D03*
Y2247251D02*
D03*
X694782D02*
D03*
X701283D02*
D03*
X707783D02*
D03*
Y1891752D02*
D03*
X701283D02*
D03*
X694782D02*
D03*
X688282D02*
D03*
Y1852251D02*
D03*
X694782D02*
D03*
X701283D02*
D03*
X707783D02*
D03*
Y1496752D02*
D03*
X701283D02*
D03*
X694782D02*
D03*
X688282D02*
D03*
Y1457251D02*
D03*
X694782D02*
D03*
X701283D02*
D03*
X707783D02*
D03*
X990533Y2286752D02*
D03*
X984033D02*
D03*
X977533D02*
D03*
X971033D02*
D03*
Y2247251D02*
D03*
X977533D02*
D03*
X984033D02*
D03*
X990533D02*
D03*
Y1891752D02*
D03*
X984033D02*
D03*
X977533D02*
D03*
X971033D02*
D03*
Y1852251D02*
D03*
X977533D02*
D03*
X984033D02*
D03*
X990533D02*
D03*
Y1496752D02*
D03*
X984033D02*
D03*
X977533D02*
D03*
X971033D02*
D03*
Y1457251D02*
D03*
X977533D02*
D03*
X984033D02*
D03*
X990533D02*
D03*
X1273283Y2286752D02*
D03*
X1266783D02*
D03*
X1260283D02*
D03*
X1253783D02*
D03*
Y2247251D02*
D03*
X1260283D02*
D03*
X1266783D02*
D03*
X1273283D02*
D03*
Y1891752D02*
D03*
X1266783D02*
D03*
X1260283D02*
D03*
X1253783D02*
D03*
Y1852251D02*
D03*
X1260283D02*
D03*
X1266783D02*
D03*
X1273283D02*
D03*
Y1496752D02*
D03*
X1266783D02*
D03*
X1260283D02*
D03*
X1253783D02*
D03*
Y1457251D02*
D03*
X1260283D02*
D03*
X1266783D02*
D03*
X1273283D02*
D03*
D83*
X1397218Y198249D02*
D03*
Y204748D02*
D03*
Y211248D02*
D03*
Y217749D02*
D03*
X1357718D02*
D03*
Y211248D02*
D03*
Y204748D02*
D03*
Y198249D02*
D03*
X1397218Y593248D02*
D03*
Y599748D02*
D03*
Y606249D02*
D03*
Y612748D02*
D03*
X1357718D02*
D03*
Y606249D02*
D03*
Y599748D02*
D03*
Y593248D02*
D03*
X1397218Y988249D02*
D03*
Y994749D02*
D03*
Y1001248D02*
D03*
Y1007748D02*
D03*
X1357718D02*
D03*
Y1001248D02*
D03*
Y994749D02*
D03*
Y988249D02*
D03*
X1114468Y198249D02*
D03*
Y204748D02*
D03*
Y211248D02*
D03*
Y217749D02*
D03*
X1074968D02*
D03*
Y211248D02*
D03*
Y204748D02*
D03*
Y198249D02*
D03*
X1114468Y593248D02*
D03*
Y599748D02*
D03*
Y606249D02*
D03*
Y612748D02*
D03*
X1074968D02*
D03*
Y606249D02*
D03*
Y599748D02*
D03*
Y593248D02*
D03*
X1114468Y988249D02*
D03*
Y994749D02*
D03*
Y1001248D02*
D03*
Y1007748D02*
D03*
X1074968D02*
D03*
Y1001248D02*
D03*
Y994749D02*
D03*
Y988249D02*
D03*
X831718Y198249D02*
D03*
Y204748D02*
D03*
Y211248D02*
D03*
Y217749D02*
D03*
X792217D02*
D03*
Y211248D02*
D03*
Y204748D02*
D03*
Y198249D02*
D03*
X831718Y593248D02*
D03*
Y599748D02*
D03*
Y606249D02*
D03*
Y612748D02*
D03*
X792217D02*
D03*
Y606249D02*
D03*
Y599748D02*
D03*
Y593248D02*
D03*
X831718Y988249D02*
D03*
Y994749D02*
D03*
Y1001248D02*
D03*
Y1007748D02*
D03*
X792217D02*
D03*
Y1001248D02*
D03*
Y994749D02*
D03*
Y988249D02*
D03*
X548967Y198249D02*
D03*
Y204748D02*
D03*
Y211248D02*
D03*
Y217749D02*
D03*
X509467D02*
D03*
Y211248D02*
D03*
Y204748D02*
D03*
Y198249D02*
D03*
X548967Y593248D02*
D03*
Y599748D02*
D03*
Y606249D02*
D03*
Y612748D02*
D03*
X509467D02*
D03*
Y606249D02*
D03*
Y599748D02*
D03*
Y593248D02*
D03*
X548967Y988249D02*
D03*
Y994749D02*
D03*
Y1001248D02*
D03*
Y1007748D02*
D03*
X509467D02*
D03*
Y1001248D02*
D03*
Y994749D02*
D03*
Y988249D02*
D03*
X266217Y198249D02*
D03*
Y204748D02*
D03*
Y211248D02*
D03*
Y217749D02*
D03*
X226717D02*
D03*
Y211248D02*
D03*
Y204748D02*
D03*
Y198249D02*
D03*
X266217Y593248D02*
D03*
Y599748D02*
D03*
Y606249D02*
D03*
Y612748D02*
D03*
X226717D02*
D03*
Y606249D02*
D03*
Y599748D02*
D03*
Y593248D02*
D03*
X266217Y988249D02*
D03*
Y994749D02*
D03*
Y1001248D02*
D03*
Y1007748D02*
D03*
X226717D02*
D03*
Y1001248D02*
D03*
Y994749D02*
D03*
Y988249D02*
D03*
X112782Y2276752D02*
D03*
Y2270251D02*
D03*
Y2263752D02*
D03*
Y2257251D02*
D03*
X152282D02*
D03*
Y2263752D02*
D03*
Y2270251D02*
D03*
Y2276752D02*
D03*
X112782Y1881752D02*
D03*
Y1875251D02*
D03*
Y1868752D02*
D03*
Y1862251D02*
D03*
X152282D02*
D03*
Y1868752D02*
D03*
Y1875251D02*
D03*
Y1881752D02*
D03*
X112782Y1486752D02*
D03*
Y1480251D02*
D03*
Y1473752D02*
D03*
Y1467251D02*
D03*
X152282D02*
D03*
Y1473752D02*
D03*
Y1480251D02*
D03*
Y1486752D02*
D03*
X395532Y2276752D02*
D03*
Y2270251D02*
D03*
Y2263752D02*
D03*
Y2257251D02*
D03*
X435032D02*
D03*
Y2263752D02*
D03*
Y2270251D02*
D03*
Y2276752D02*
D03*
X395532Y1881752D02*
D03*
Y1875251D02*
D03*
Y1868752D02*
D03*
Y1862251D02*
D03*
X435032D02*
D03*
Y1868752D02*
D03*
Y1875251D02*
D03*
Y1881752D02*
D03*
X395532Y1486752D02*
D03*
Y1480251D02*
D03*
Y1473752D02*
D03*
Y1467251D02*
D03*
X435032D02*
D03*
Y1473752D02*
D03*
Y1480251D02*
D03*
Y1486752D02*
D03*
X678282Y2276752D02*
D03*
Y2270251D02*
D03*
Y2263752D02*
D03*
Y2257251D02*
D03*
X717783D02*
D03*
Y2263752D02*
D03*
Y2270251D02*
D03*
Y2276752D02*
D03*
X678282Y1881752D02*
D03*
Y1875251D02*
D03*
Y1868752D02*
D03*
Y1862251D02*
D03*
X717783D02*
D03*
Y1868752D02*
D03*
Y1875251D02*
D03*
Y1881752D02*
D03*
X678282Y1486752D02*
D03*
Y1480251D02*
D03*
Y1473752D02*
D03*
Y1467251D02*
D03*
X717783D02*
D03*
Y1473752D02*
D03*
Y1480251D02*
D03*
Y1486752D02*
D03*
X961033Y2276752D02*
D03*
Y2270251D02*
D03*
Y2263752D02*
D03*
Y2257251D02*
D03*
X1000533D02*
D03*
Y2263752D02*
D03*
Y2270251D02*
D03*
Y2276752D02*
D03*
X961033Y1881752D02*
D03*
Y1875251D02*
D03*
Y1868752D02*
D03*
Y1862251D02*
D03*
X1000533D02*
D03*
Y1868752D02*
D03*
Y1875251D02*
D03*
Y1881752D02*
D03*
X961033Y1486752D02*
D03*
Y1480251D02*
D03*
Y1473752D02*
D03*
Y1467251D02*
D03*
X1000533D02*
D03*
Y1473752D02*
D03*
Y1480251D02*
D03*
Y1486752D02*
D03*
X1243783Y2276752D02*
D03*
Y2270251D02*
D03*
Y2263752D02*
D03*
Y2257251D02*
D03*
X1283283D02*
D03*
Y2263752D02*
D03*
Y2270251D02*
D03*
Y2276752D02*
D03*
X1243783Y1881752D02*
D03*
Y1875251D02*
D03*
Y1868752D02*
D03*
Y1862251D02*
D03*
X1283283D02*
D03*
Y1868752D02*
D03*
Y1875251D02*
D03*
Y1881752D02*
D03*
X1243783Y1486752D02*
D03*
Y1480251D02*
D03*
Y1473752D02*
D03*
Y1467251D02*
D03*
X1283283D02*
D03*
Y1473752D02*
D03*
Y1480251D02*
D03*
Y1486752D02*
D03*
D84*
X1377468Y207999D02*
D03*
Y602999D02*
D03*
Y997999D02*
D03*
X1094718Y207999D02*
D03*
Y602999D02*
D03*
Y997999D02*
D03*
X811967Y207999D02*
D03*
Y602999D02*
D03*
Y997999D02*
D03*
X529217Y207999D02*
D03*
Y602999D02*
D03*
Y997999D02*
D03*
X246467Y207999D02*
D03*
Y602999D02*
D03*
Y997999D02*
D03*
X132532Y2267001D02*
D03*
Y1872001D02*
D03*
Y1477001D02*
D03*
X415282Y2267001D02*
D03*
Y1872001D02*
D03*
Y1477001D02*
D03*
X698033Y2267001D02*
D03*
Y1872001D02*
D03*
Y1477001D02*
D03*
X980783Y2267001D02*
D03*
Y1872001D02*
D03*
Y1477001D02*
D03*
X1263533Y2267001D02*
D03*
Y1872001D02*
D03*
Y1477001D02*
D03*
D85*
X1263046Y224552D02*
D03*
Y619552D02*
D03*
Y1014552D02*
D03*
X980296Y224552D02*
D03*
Y619552D02*
D03*
Y1014552D02*
D03*
X697546Y224552D02*
D03*
Y619552D02*
D03*
Y1014552D02*
D03*
X414796Y224552D02*
D03*
Y619552D02*
D03*
Y1014552D02*
D03*
X132046Y224552D02*
D03*
Y619552D02*
D03*
Y1014552D02*
D03*
X246954Y2250448D02*
D03*
Y1855448D02*
D03*
Y1460448D02*
D03*
X529704Y2250448D02*
D03*
Y1855448D02*
D03*
Y1460448D02*
D03*
X812454Y2250448D02*
D03*
Y1855448D02*
D03*
Y1460448D02*
D03*
X1095204Y2250448D02*
D03*
Y1855448D02*
D03*
Y1460448D02*
D03*
X1377954Y2250448D02*
D03*
Y1855448D02*
D03*
Y1460448D02*
D03*
D86*
X1256546Y234302D02*
D03*
X1263046D02*
D03*
X1269546D02*
D03*
X1256546Y214802D02*
D03*
X1263046D02*
D03*
X1269546D02*
D03*
X1256546Y629302D02*
D03*
X1263046D02*
D03*
X1269546D02*
D03*
X1256546Y609802D02*
D03*
X1263046D02*
D03*
X1269546D02*
D03*
X1256546Y1024302D02*
D03*
X1263046D02*
D03*
X1269546D02*
D03*
X1256546Y1004802D02*
D03*
X1263046D02*
D03*
X1269546D02*
D03*
X973796Y234302D02*
D03*
X980296D02*
D03*
X986796D02*
D03*
X973796Y214802D02*
D03*
X980296D02*
D03*
X986796D02*
D03*
X973796Y629302D02*
D03*
X980296D02*
D03*
X986796D02*
D03*
X973796Y609802D02*
D03*
X980296D02*
D03*
X986796D02*
D03*
X973796Y1024302D02*
D03*
X980296D02*
D03*
X986796D02*
D03*
X973796Y1004802D02*
D03*
X980296D02*
D03*
X986796D02*
D03*
X691046Y234302D02*
D03*
X697546D02*
D03*
X704046D02*
D03*
X691046Y214802D02*
D03*
X697546D02*
D03*
X704046D02*
D03*
X691046Y629302D02*
D03*
X697546D02*
D03*
X704046D02*
D03*
X691046Y609802D02*
D03*
X697546D02*
D03*
X704046D02*
D03*
X691046Y1024302D02*
D03*
X697546D02*
D03*
X704046D02*
D03*
X691046Y1004802D02*
D03*
X697546D02*
D03*
X704046D02*
D03*
X408296Y234302D02*
D03*
X414796D02*
D03*
X421296D02*
D03*
X408296Y214802D02*
D03*
X414796D02*
D03*
X421296D02*
D03*
X408296Y629302D02*
D03*
X414796D02*
D03*
X421296D02*
D03*
X408296Y609802D02*
D03*
X414796D02*
D03*
X421296D02*
D03*
X408296Y1024302D02*
D03*
X414796D02*
D03*
X421296D02*
D03*
X408296Y1004802D02*
D03*
X414796D02*
D03*
X421296D02*
D03*
X125546Y234302D02*
D03*
X132046D02*
D03*
X138546D02*
D03*
X125546Y214802D02*
D03*
X132046D02*
D03*
X138546D02*
D03*
X125546Y629302D02*
D03*
X132046D02*
D03*
X138546D02*
D03*
X125546Y609802D02*
D03*
X132046D02*
D03*
X138546D02*
D03*
X125546Y1024302D02*
D03*
X132046D02*
D03*
X138546D02*
D03*
X125546Y1004802D02*
D03*
X132046D02*
D03*
X138546D02*
D03*
X253454Y2240698D02*
D03*
X246954D02*
D03*
X240454D02*
D03*
X253454Y2260198D02*
D03*
X246954D02*
D03*
X240454D02*
D03*
X253454Y1845698D02*
D03*
X246954D02*
D03*
X240454D02*
D03*
X253454Y1865198D02*
D03*
X246954D02*
D03*
X240454D02*
D03*
X253454Y1450698D02*
D03*
X246954D02*
D03*
X240454D02*
D03*
X253454Y1470198D02*
D03*
X246954D02*
D03*
X240454D02*
D03*
X536204Y2240698D02*
D03*
X529704D02*
D03*
X523204D02*
D03*
X536204Y2260198D02*
D03*
X529704D02*
D03*
X523204D02*
D03*
X536204Y1845698D02*
D03*
X529704D02*
D03*
X523204D02*
D03*
X536204Y1865198D02*
D03*
X529704D02*
D03*
X523204D02*
D03*
X536204Y1450698D02*
D03*
X529704D02*
D03*
X523204D02*
D03*
X536204Y1470198D02*
D03*
X529704D02*
D03*
X523204D02*
D03*
X818954Y2240698D02*
D03*
X812454D02*
D03*
X805954D02*
D03*
X818954Y2260198D02*
D03*
X812454D02*
D03*
X805954D02*
D03*
X818954Y1845698D02*
D03*
X812454D02*
D03*
X805954D02*
D03*
X818954Y1865198D02*
D03*
X812454D02*
D03*
X805954D02*
D03*
X818954Y1450698D02*
D03*
X812454D02*
D03*
X805954D02*
D03*
X818954Y1470198D02*
D03*
X812454D02*
D03*
X805954D02*
D03*
X1101704Y2240698D02*
D03*
X1095204D02*
D03*
X1088704D02*
D03*
X1101704Y2260198D02*
D03*
X1095204D02*
D03*
X1088704D02*
D03*
X1101704Y1845698D02*
D03*
X1095204D02*
D03*
X1088704D02*
D03*
X1101704Y1865198D02*
D03*
X1095204D02*
D03*
X1088704D02*
D03*
X1101704Y1450698D02*
D03*
X1095204D02*
D03*
X1088704D02*
D03*
X1101704Y1470198D02*
D03*
X1095204D02*
D03*
X1088704D02*
D03*
X1384454Y2240698D02*
D03*
X1377954D02*
D03*
X1371454D02*
D03*
X1384454Y2260198D02*
D03*
X1377954D02*
D03*
X1371454D02*
D03*
X1384454Y1845698D02*
D03*
X1377954D02*
D03*
X1371454D02*
D03*
X1384454Y1865198D02*
D03*
X1377954D02*
D03*
X1371454D02*
D03*
X1384454Y1450698D02*
D03*
X1377954D02*
D03*
X1371454D02*
D03*
X1384454Y1470198D02*
D03*
X1377954D02*
D03*
X1371454D02*
D03*
D87*
X1317128Y246754D02*
D03*
Y251754D02*
D03*
Y256754D02*
D03*
X1334728Y246754D02*
D03*
Y251754D02*
D03*
Y256754D02*
D03*
X1317128Y641754D02*
D03*
Y646754D02*
D03*
Y651754D02*
D03*
X1334728Y641754D02*
D03*
Y646754D02*
D03*
Y651754D02*
D03*
X1317128Y1036754D02*
D03*
Y1041754D02*
D03*
Y1046754D02*
D03*
X1334728Y1036754D02*
D03*
Y1041754D02*
D03*
Y1046754D02*
D03*
X1034378Y246754D02*
D03*
Y251754D02*
D03*
Y256754D02*
D03*
X1051978Y246754D02*
D03*
Y251754D02*
D03*
Y256754D02*
D03*
X1034378Y641754D02*
D03*
Y646754D02*
D03*
Y651754D02*
D03*
X1051978Y641754D02*
D03*
Y646754D02*
D03*
Y651754D02*
D03*
X1034378Y1036754D02*
D03*
Y1041754D02*
D03*
Y1046754D02*
D03*
X1051978Y1036754D02*
D03*
Y1041754D02*
D03*
Y1046754D02*
D03*
X751628Y246754D02*
D03*
Y251754D02*
D03*
Y256754D02*
D03*
X769228Y246754D02*
D03*
Y251754D02*
D03*
Y256754D02*
D03*
X751628Y641754D02*
D03*
Y646754D02*
D03*
Y651754D02*
D03*
X769228Y641754D02*
D03*
Y646754D02*
D03*
Y651754D02*
D03*
X751628Y1036754D02*
D03*
Y1041754D02*
D03*
Y1046754D02*
D03*
X769228Y1036754D02*
D03*
Y1041754D02*
D03*
Y1046754D02*
D03*
X468878Y246754D02*
D03*
Y251754D02*
D03*
Y256754D02*
D03*
X486478Y246754D02*
D03*
Y251754D02*
D03*
Y256754D02*
D03*
X468878Y641754D02*
D03*
Y646754D02*
D03*
Y651754D02*
D03*
X486478Y641754D02*
D03*
Y646754D02*
D03*
Y651754D02*
D03*
X468878Y1036754D02*
D03*
Y1041754D02*
D03*
Y1046754D02*
D03*
X486478Y1036754D02*
D03*
Y1041754D02*
D03*
Y1046754D02*
D03*
X186128Y246754D02*
D03*
Y251754D02*
D03*
Y256754D02*
D03*
X203728Y246754D02*
D03*
Y251754D02*
D03*
Y256754D02*
D03*
X186128Y641754D02*
D03*
Y646754D02*
D03*
Y651754D02*
D03*
X203728Y641754D02*
D03*
Y646754D02*
D03*
Y651754D02*
D03*
X186128Y1036754D02*
D03*
Y1041754D02*
D03*
Y1046754D02*
D03*
X203728Y1036754D02*
D03*
Y1041754D02*
D03*
Y1046754D02*
D03*
X192872Y2228246D02*
D03*
Y2223246D02*
D03*
Y2218246D02*
D03*
X175272Y2228246D02*
D03*
Y2223246D02*
D03*
Y2218246D02*
D03*
X192872Y1833246D02*
D03*
Y1828246D02*
D03*
Y1823246D02*
D03*
X175272Y1833246D02*
D03*
Y1828246D02*
D03*
Y1823246D02*
D03*
X192872Y1438246D02*
D03*
Y1433246D02*
D03*
Y1428246D02*
D03*
X175272Y1438246D02*
D03*
Y1433246D02*
D03*
Y1428246D02*
D03*
X475622Y2228246D02*
D03*
Y2223246D02*
D03*
Y2218246D02*
D03*
X458022Y2228246D02*
D03*
Y2223246D02*
D03*
Y2218246D02*
D03*
X475622Y1833246D02*
D03*
Y1828246D02*
D03*
Y1823246D02*
D03*
X458022Y1833246D02*
D03*
Y1828246D02*
D03*
Y1823246D02*
D03*
X475622Y1438246D02*
D03*
Y1433246D02*
D03*
Y1428246D02*
D03*
X458022Y1438246D02*
D03*
Y1433246D02*
D03*
Y1428246D02*
D03*
X758372Y2228246D02*
D03*
Y2223246D02*
D03*
Y2218246D02*
D03*
X740772Y2228246D02*
D03*
Y2223246D02*
D03*
Y2218246D02*
D03*
X758372Y1833246D02*
D03*
Y1828246D02*
D03*
Y1823246D02*
D03*
X740772Y1833246D02*
D03*
Y1828246D02*
D03*
Y1823246D02*
D03*
X758372Y1438246D02*
D03*
Y1433246D02*
D03*
Y1428246D02*
D03*
X740772Y1438246D02*
D03*
Y1433246D02*
D03*
Y1428246D02*
D03*
X1041122Y2228246D02*
D03*
Y2223246D02*
D03*
Y2218246D02*
D03*
X1023522Y2228246D02*
D03*
Y2223246D02*
D03*
Y2218246D02*
D03*
X1041122Y1833246D02*
D03*
Y1828246D02*
D03*
Y1823246D02*
D03*
X1023522Y1833246D02*
D03*
Y1828246D02*
D03*
Y1823246D02*
D03*
X1041122Y1438246D02*
D03*
Y1433246D02*
D03*
Y1428246D02*
D03*
X1023522Y1438246D02*
D03*
Y1433246D02*
D03*
Y1428246D02*
D03*
X1323872Y2228246D02*
D03*
Y2223246D02*
D03*
Y2218246D02*
D03*
X1306272Y2228246D02*
D03*
Y2223246D02*
D03*
Y2218246D02*
D03*
X1323872Y1833246D02*
D03*
Y1828246D02*
D03*
Y1823246D02*
D03*
X1306272Y1833246D02*
D03*
Y1828246D02*
D03*
Y1823246D02*
D03*
X1323872Y1438246D02*
D03*
Y1433246D02*
D03*
Y1428246D02*
D03*
X1306272Y1438246D02*
D03*
Y1433246D02*
D03*
Y1428246D02*
D03*
D88*
X1325928Y251754D02*
D03*
Y646754D02*
D03*
Y1041754D02*
D03*
X1043178Y251754D02*
D03*
Y646754D02*
D03*
Y1041754D02*
D03*
X760428Y251754D02*
D03*
Y646754D02*
D03*
Y1041754D02*
D03*
X477678Y251754D02*
D03*
Y646754D02*
D03*
Y1041754D02*
D03*
X194928Y251754D02*
D03*
Y646754D02*
D03*
Y1041754D02*
D03*
X184072Y2223246D02*
D03*
Y1828246D02*
D03*
Y1433246D02*
D03*
X466822Y2223246D02*
D03*
Y1828246D02*
D03*
Y1433246D02*
D03*
X749572Y2223246D02*
D03*
Y1828246D02*
D03*
Y1433246D02*
D03*
X1032322Y2223246D02*
D03*
Y1828246D02*
D03*
Y1433246D02*
D03*
X1315072Y2223246D02*
D03*
Y1828246D02*
D03*
Y1433246D02*
D03*
D89*
X1313250Y202750D02*
D03*
Y597750D02*
D03*
Y992750D02*
D03*
X1030500Y202750D02*
D03*
Y597750D02*
D03*
Y992750D02*
D03*
X747750Y202750D02*
D03*
Y597750D02*
D03*
Y992750D02*
D03*
X465000Y202750D02*
D03*
Y597750D02*
D03*
Y992750D02*
D03*
X182250Y202750D02*
D03*
Y597750D02*
D03*
Y992750D02*
D03*
X196750Y2272250D02*
D03*
Y1877250D02*
D03*
Y1482250D02*
D03*
X479500Y2272250D02*
D03*
Y1877250D02*
D03*
Y1482250D02*
D03*
X762250Y2272250D02*
D03*
Y1877250D02*
D03*
Y1482250D02*
D03*
X1045000Y2272250D02*
D03*
Y1877250D02*
D03*
Y1482250D02*
D03*
X1327750Y2272250D02*
D03*
Y1877250D02*
D03*
Y1482250D02*
D03*
D90*
X1321250Y190500D02*
D03*
X1317250D02*
D03*
X1313250D02*
D03*
X1309250D02*
D03*
X1305250D02*
D03*
X1321250Y215000D02*
D03*
X1317250D02*
D03*
X1313250D02*
D03*
X1309250D02*
D03*
X1305250D02*
D03*
X1321250Y585500D02*
D03*
X1317250D02*
D03*
X1313250D02*
D03*
X1309250D02*
D03*
X1305250D02*
D03*
X1321250Y610000D02*
D03*
X1317250D02*
D03*
X1313250D02*
D03*
X1309250D02*
D03*
X1305250D02*
D03*
X1321250Y980500D02*
D03*
X1317250D02*
D03*
X1313250D02*
D03*
X1309250D02*
D03*
X1305250D02*
D03*
X1321250Y1005000D02*
D03*
X1317250D02*
D03*
X1313250D02*
D03*
X1309250D02*
D03*
X1305250D02*
D03*
X1038500Y190500D02*
D03*
X1034500D02*
D03*
X1030500D02*
D03*
X1026500D02*
D03*
X1022500D02*
D03*
X1038500Y215000D02*
D03*
X1034500D02*
D03*
X1030500D02*
D03*
X1026500D02*
D03*
X1022500D02*
D03*
X1038500Y585500D02*
D03*
X1034500D02*
D03*
X1030500D02*
D03*
X1026500D02*
D03*
X1022500D02*
D03*
X1038500Y610000D02*
D03*
X1034500D02*
D03*
X1030500D02*
D03*
X1026500D02*
D03*
X1022500D02*
D03*
X1038500Y980500D02*
D03*
X1034500D02*
D03*
X1030500D02*
D03*
X1026500D02*
D03*
X1022500D02*
D03*
X1038500Y1005000D02*
D03*
X1034500D02*
D03*
X1030500D02*
D03*
X1026500D02*
D03*
X1022500D02*
D03*
X755750Y190500D02*
D03*
X751750D02*
D03*
X747750D02*
D03*
X743750D02*
D03*
X739750D02*
D03*
X755750Y215000D02*
D03*
X751750D02*
D03*
X747750D02*
D03*
X743750D02*
D03*
X739750D02*
D03*
X755750Y585500D02*
D03*
X751750D02*
D03*
X747750D02*
D03*
X743750D02*
D03*
X739750D02*
D03*
X755750Y610000D02*
D03*
X751750D02*
D03*
X747750D02*
D03*
X743750D02*
D03*
X739750D02*
D03*
X755750Y980500D02*
D03*
X751750D02*
D03*
X747750D02*
D03*
X743750D02*
D03*
X739750D02*
D03*
X755750Y1005000D02*
D03*
X751750D02*
D03*
X747750D02*
D03*
X743750D02*
D03*
X739750D02*
D03*
X473000Y190500D02*
D03*
X469000D02*
D03*
X465000D02*
D03*
X461000D02*
D03*
X457000D02*
D03*
X473000Y215000D02*
D03*
X469000D02*
D03*
X465000D02*
D03*
X461000D02*
D03*
X457000D02*
D03*
X473000Y585500D02*
D03*
X469000D02*
D03*
X465000D02*
D03*
X461000D02*
D03*
X457000D02*
D03*
X473000Y610000D02*
D03*
X469000D02*
D03*
X465000D02*
D03*
X461000D02*
D03*
X457000D02*
D03*
X473000Y980500D02*
D03*
X469000D02*
D03*
X465000D02*
D03*
X461000D02*
D03*
X457000D02*
D03*
X473000Y1005000D02*
D03*
X469000D02*
D03*
X465000D02*
D03*
X461000D02*
D03*
X457000D02*
D03*
X190250Y190500D02*
D03*
X186250D02*
D03*
X182250D02*
D03*
X178250D02*
D03*
X174250D02*
D03*
X190250Y215000D02*
D03*
X186250D02*
D03*
X182250D02*
D03*
X178250D02*
D03*
X174250D02*
D03*
X190250Y585500D02*
D03*
X186250D02*
D03*
X182250D02*
D03*
X178250D02*
D03*
X174250D02*
D03*
X190250Y610000D02*
D03*
X186250D02*
D03*
X182250D02*
D03*
X178250D02*
D03*
X174250D02*
D03*
X190250Y980500D02*
D03*
X186250D02*
D03*
X182250D02*
D03*
X178250D02*
D03*
X174250D02*
D03*
X190250Y1005000D02*
D03*
X186250D02*
D03*
X182250D02*
D03*
X178250D02*
D03*
X174250D02*
D03*
X188750Y2284500D02*
D03*
X192750D02*
D03*
X196750D02*
D03*
X200750D02*
D03*
X204750D02*
D03*
X188750Y2260000D02*
D03*
X192750D02*
D03*
X196750D02*
D03*
X200750D02*
D03*
X204750D02*
D03*
X188750Y1889500D02*
D03*
X192750D02*
D03*
X196750D02*
D03*
X200750D02*
D03*
X204750D02*
D03*
X188750Y1865000D02*
D03*
X192750D02*
D03*
X196750D02*
D03*
X200750D02*
D03*
X204750D02*
D03*
X188750Y1494500D02*
D03*
X192750D02*
D03*
X196750D02*
D03*
X200750D02*
D03*
X204750D02*
D03*
X188750Y1470000D02*
D03*
X192750D02*
D03*
X196750D02*
D03*
X200750D02*
D03*
X204750D02*
D03*
X471500Y2284500D02*
D03*
X475500D02*
D03*
X479500D02*
D03*
X483500D02*
D03*
X487500D02*
D03*
X471500Y2260000D02*
D03*
X475500D02*
D03*
X479500D02*
D03*
X483500D02*
D03*
X487500D02*
D03*
X471500Y1889500D02*
D03*
X475500D02*
D03*
X479500D02*
D03*
X483500D02*
D03*
X487500D02*
D03*
X471500Y1865000D02*
D03*
X475500D02*
D03*
X479500D02*
D03*
X483500D02*
D03*
X487500D02*
D03*
X471500Y1494500D02*
D03*
X475500D02*
D03*
X479500D02*
D03*
X483500D02*
D03*
X487500D02*
D03*
X471500Y1470000D02*
D03*
X475500D02*
D03*
X479500D02*
D03*
X483500D02*
D03*
X487500D02*
D03*
X754250Y2284500D02*
D03*
X758250D02*
D03*
X762250D02*
D03*
X766250D02*
D03*
X770250D02*
D03*
X754250Y2260000D02*
D03*
X758250D02*
D03*
X762250D02*
D03*
X766250D02*
D03*
X770250D02*
D03*
X754250Y1889500D02*
D03*
X758250D02*
D03*
X762250D02*
D03*
X766250D02*
D03*
X770250D02*
D03*
X754250Y1865000D02*
D03*
X758250D02*
D03*
X762250D02*
D03*
X766250D02*
D03*
X770250D02*
D03*
X754250Y1494500D02*
D03*
X758250D02*
D03*
X762250D02*
D03*
X766250D02*
D03*
X770250D02*
D03*
X754250Y1470000D02*
D03*
X758250D02*
D03*
X762250D02*
D03*
X766250D02*
D03*
X770250D02*
D03*
X1037000Y2284500D02*
D03*
X1041000D02*
D03*
X1045000D02*
D03*
X1049000D02*
D03*
X1053000D02*
D03*
X1037000Y2260000D02*
D03*
X1041000D02*
D03*
X1045000D02*
D03*
X1049000D02*
D03*
X1053000D02*
D03*
X1037000Y1889500D02*
D03*
X1041000D02*
D03*
X1045000D02*
D03*
X1049000D02*
D03*
X1053000D02*
D03*
X1037000Y1865000D02*
D03*
X1041000D02*
D03*
X1045000D02*
D03*
X1049000D02*
D03*
X1053000D02*
D03*
X1037000Y1494500D02*
D03*
X1041000D02*
D03*
X1045000D02*
D03*
X1049000D02*
D03*
X1053000D02*
D03*
X1037000Y1470000D02*
D03*
X1041000D02*
D03*
X1045000D02*
D03*
X1049000D02*
D03*
X1053000D02*
D03*
X1319750Y2284500D02*
D03*
X1323750D02*
D03*
X1327750D02*
D03*
X1331750D02*
D03*
X1335750D02*
D03*
X1319750Y2260000D02*
D03*
X1323750D02*
D03*
X1327750D02*
D03*
X1331750D02*
D03*
X1335750D02*
D03*
X1319750Y1889500D02*
D03*
X1323750D02*
D03*
X1327750D02*
D03*
X1331750D02*
D03*
X1335750D02*
D03*
X1319750Y1865000D02*
D03*
X1323750D02*
D03*
X1327750D02*
D03*
X1331750D02*
D03*
X1335750D02*
D03*
X1319750Y1494500D02*
D03*
X1323750D02*
D03*
X1327750D02*
D03*
X1331750D02*
D03*
X1335750D02*
D03*
X1319750Y1470000D02*
D03*
X1323750D02*
D03*
X1327750D02*
D03*
X1331750D02*
D03*
X1335750D02*
D03*
D91*
X1262500Y161800D02*
D03*
Y556800D02*
D03*
Y951800D02*
D03*
X979750Y161800D02*
D03*
Y556800D02*
D03*
Y951800D02*
D03*
X697000Y161800D02*
D03*
Y556800D02*
D03*
Y951800D02*
D03*
X414250Y161800D02*
D03*
Y556800D02*
D03*
Y951800D02*
D03*
X131500Y161800D02*
D03*
Y556800D02*
D03*
Y951800D02*
D03*
X247500Y2313200D02*
D03*
Y1918200D02*
D03*
Y1523200D02*
D03*
X530250Y2313200D02*
D03*
Y1918200D02*
D03*
Y1523200D02*
D03*
X813000Y2313200D02*
D03*
Y1918200D02*
D03*
Y1523200D02*
D03*
X1095750Y2313200D02*
D03*
Y1918200D02*
D03*
Y1523200D02*
D03*
X1378500Y2313200D02*
D03*
Y1918200D02*
D03*
Y1523200D02*
D03*
D92*
X1257500Y171050D02*
D03*
X1262500D02*
D03*
X1267500D02*
D03*
X1257500Y152550D02*
D03*
X1262500D02*
D03*
X1267500D02*
D03*
X1257500Y566050D02*
D03*
X1262500D02*
D03*
X1267500D02*
D03*
X1257500Y547550D02*
D03*
X1262500D02*
D03*
X1267500D02*
D03*
X1257500Y961050D02*
D03*
X1262500D02*
D03*
X1267500D02*
D03*
X1257500Y942550D02*
D03*
X1262500D02*
D03*
X1267500D02*
D03*
X974750Y171050D02*
D03*
X979750D02*
D03*
X984750D02*
D03*
X974750Y152550D02*
D03*
X979750D02*
D03*
X984750D02*
D03*
X974750Y566050D02*
D03*
X979750D02*
D03*
X984750D02*
D03*
X974750Y547550D02*
D03*
X979750D02*
D03*
X984750D02*
D03*
X974750Y961050D02*
D03*
X979750D02*
D03*
X984750D02*
D03*
X974750Y942550D02*
D03*
X979750D02*
D03*
X984750D02*
D03*
X692000Y171050D02*
D03*
X697000D02*
D03*
X702000D02*
D03*
X692000Y152550D02*
D03*
X697000D02*
D03*
X702000D02*
D03*
X692000Y566050D02*
D03*
X697000D02*
D03*
X702000D02*
D03*
X692000Y547550D02*
D03*
X697000D02*
D03*
X702000D02*
D03*
X692000Y961050D02*
D03*
X697000D02*
D03*
X702000D02*
D03*
X692000Y942550D02*
D03*
X697000D02*
D03*
X702000D02*
D03*
X409250Y171050D02*
D03*
X414250D02*
D03*
X419250D02*
D03*
X409250Y152550D02*
D03*
X414250D02*
D03*
X419250D02*
D03*
X409250Y566050D02*
D03*
X414250D02*
D03*
X419250D02*
D03*
X409250Y547550D02*
D03*
X414250D02*
D03*
X419250D02*
D03*
X409250Y961050D02*
D03*
X414250D02*
D03*
X419250D02*
D03*
X409250Y942550D02*
D03*
X414250D02*
D03*
X419250D02*
D03*
X126500Y171050D02*
D03*
X131500D02*
D03*
X136500D02*
D03*
X126500Y152550D02*
D03*
X131500D02*
D03*
X136500D02*
D03*
X126500Y566050D02*
D03*
X131500D02*
D03*
X136500D02*
D03*
X126500Y547550D02*
D03*
X131500D02*
D03*
X136500D02*
D03*
X126500Y961050D02*
D03*
X131500D02*
D03*
X136500D02*
D03*
X126500Y942550D02*
D03*
X131500D02*
D03*
X136500D02*
D03*
X252500Y2303950D02*
D03*
X247500D02*
D03*
X242500D02*
D03*
X252500Y2322450D02*
D03*
X247500D02*
D03*
X242500D02*
D03*
X252500Y1908950D02*
D03*
X247500D02*
D03*
X242500D02*
D03*
X252500Y1927450D02*
D03*
X247500D02*
D03*
X242500D02*
D03*
X252500Y1513950D02*
D03*
X247500D02*
D03*
X242500D02*
D03*
X252500Y1532450D02*
D03*
X247500D02*
D03*
X242500D02*
D03*
X535250Y2303950D02*
D03*
X530250D02*
D03*
X525250D02*
D03*
X535250Y2322450D02*
D03*
X530250D02*
D03*
X525250D02*
D03*
X535250Y1908950D02*
D03*
X530250D02*
D03*
X525250D02*
D03*
X535250Y1927450D02*
D03*
X530250D02*
D03*
X525250D02*
D03*
X535250Y1513950D02*
D03*
X530250D02*
D03*
X525250D02*
D03*
X535250Y1532450D02*
D03*
X530250D02*
D03*
X525250D02*
D03*
X818000Y2303950D02*
D03*
X813000D02*
D03*
X808000D02*
D03*
X818000Y2322450D02*
D03*
X813000D02*
D03*
X808000D02*
D03*
X818000Y1908950D02*
D03*
X813000D02*
D03*
X808000D02*
D03*
X818000Y1927450D02*
D03*
X813000D02*
D03*
X808000D02*
D03*
X818000Y1513950D02*
D03*
X813000D02*
D03*
X808000D02*
D03*
X818000Y1532450D02*
D03*
X813000D02*
D03*
X808000D02*
D03*
X1100750Y2303950D02*
D03*
X1095750D02*
D03*
X1090750D02*
D03*
X1100750Y2322450D02*
D03*
X1095750D02*
D03*
X1090750D02*
D03*
X1100750Y1908950D02*
D03*
X1095750D02*
D03*
X1090750D02*
D03*
X1100750Y1927450D02*
D03*
X1095750D02*
D03*
X1090750D02*
D03*
X1100750Y1513950D02*
D03*
X1095750D02*
D03*
X1090750D02*
D03*
X1100750Y1532450D02*
D03*
X1095750D02*
D03*
X1090750D02*
D03*
X1383500Y2303950D02*
D03*
X1378500D02*
D03*
X1373500D02*
D03*
X1383500Y2322450D02*
D03*
X1378500D02*
D03*
X1373500D02*
D03*
X1383500Y1908950D02*
D03*
X1378500D02*
D03*
X1373500D02*
D03*
X1383500Y1927450D02*
D03*
X1378500D02*
D03*
X1373500D02*
D03*
X1383500Y1513950D02*
D03*
X1378500D02*
D03*
X1373500D02*
D03*
X1383500Y1532450D02*
D03*
X1378500D02*
D03*
X1373500D02*
D03*
D93*
X1239000Y326500D02*
D03*
X1264000D02*
D03*
X1239000Y721500D02*
D03*
X1264000D02*
D03*
X1239000Y1116500D02*
D03*
X1264000D02*
D03*
X956250Y326500D02*
D03*
X981250D02*
D03*
X956250Y721500D02*
D03*
X981250D02*
D03*
X956250Y1116500D02*
D03*
X981250D02*
D03*
X673500Y326500D02*
D03*
X698500D02*
D03*
X673500Y721500D02*
D03*
X698500D02*
D03*
X673500Y1116500D02*
D03*
X698500D02*
D03*
X390750Y326500D02*
D03*
X415750D02*
D03*
X390750Y721500D02*
D03*
X415750D02*
D03*
X390750Y1116500D02*
D03*
X415750D02*
D03*
X108000Y326500D02*
D03*
X133000D02*
D03*
X108000Y721500D02*
D03*
X133000D02*
D03*
X108000Y1116500D02*
D03*
X133000D02*
D03*
X271000Y2148500D02*
D03*
X246000D02*
D03*
X271000Y1753500D02*
D03*
X246000D02*
D03*
X271000Y1358500D02*
D03*
X246000D02*
D03*
X553750Y2148500D02*
D03*
X528750D02*
D03*
X553750Y1753500D02*
D03*
X528750D02*
D03*
X553750Y1358500D02*
D03*
X528750D02*
D03*
X836500Y2148500D02*
D03*
X811500D02*
D03*
X836500Y1753500D02*
D03*
X811500D02*
D03*
X836500Y1358500D02*
D03*
X811500D02*
D03*
X1119250Y2148500D02*
D03*
X1094250D02*
D03*
X1119250Y1753500D02*
D03*
X1094250D02*
D03*
X1119250Y1358500D02*
D03*
X1094250D02*
D03*
X1402000Y2148500D02*
D03*
X1377000D02*
D03*
X1402000Y1753500D02*
D03*
X1377000D02*
D03*
X1402000Y1358500D02*
D03*
X1377000D02*
D03*
D94*
X1344121Y389645D02*
D03*
Y394645D02*
D03*
X1359376D02*
D03*
Y389645D02*
D03*
X1344121Y784645D02*
D03*
Y789645D02*
D03*
X1359376D02*
D03*
Y784645D02*
D03*
X1344121Y1179645D02*
D03*
Y1184645D02*
D03*
X1359376D02*
D03*
Y1179645D02*
D03*
X1061370Y389645D02*
D03*
Y394645D02*
D03*
X1076626D02*
D03*
Y389645D02*
D03*
X1061370Y784645D02*
D03*
Y789645D02*
D03*
X1076626D02*
D03*
Y784645D02*
D03*
X1061370Y1179645D02*
D03*
Y1184645D02*
D03*
X1076626D02*
D03*
Y1179645D02*
D03*
X778620Y389645D02*
D03*
Y394645D02*
D03*
X793875D02*
D03*
Y389645D02*
D03*
X778620Y784645D02*
D03*
Y789645D02*
D03*
X793875D02*
D03*
Y784645D02*
D03*
X778620Y1179645D02*
D03*
Y1184645D02*
D03*
X793875D02*
D03*
Y1179645D02*
D03*
X495870Y389645D02*
D03*
Y394645D02*
D03*
X511125D02*
D03*
Y389645D02*
D03*
X495870Y784645D02*
D03*
Y789645D02*
D03*
X511125D02*
D03*
Y784645D02*
D03*
X495870Y1179645D02*
D03*
Y1184645D02*
D03*
X511125D02*
D03*
Y1179645D02*
D03*
X213120Y389645D02*
D03*
Y394645D02*
D03*
X228375D02*
D03*
Y389645D02*
D03*
X213120Y784645D02*
D03*
Y789645D02*
D03*
X228375D02*
D03*
Y784645D02*
D03*
X213120Y1179645D02*
D03*
Y1184645D02*
D03*
X228375D02*
D03*
Y1179645D02*
D03*
X165879Y2085355D02*
D03*
Y2080355D02*
D03*
X150624D02*
D03*
Y2085355D02*
D03*
X165879Y1690355D02*
D03*
Y1685355D02*
D03*
X150624D02*
D03*
Y1690355D02*
D03*
X165879Y1295355D02*
D03*
Y1290355D02*
D03*
X150624D02*
D03*
Y1295355D02*
D03*
X448629Y2085355D02*
D03*
Y2080355D02*
D03*
X433374D02*
D03*
Y2085355D02*
D03*
X448629Y1690355D02*
D03*
Y1685355D02*
D03*
X433374D02*
D03*
Y1690355D02*
D03*
X448629Y1295355D02*
D03*
Y1290355D02*
D03*
X433374D02*
D03*
Y1295355D02*
D03*
X731380Y2085355D02*
D03*
Y2080355D02*
D03*
X716125D02*
D03*
Y2085355D02*
D03*
X731380Y1690355D02*
D03*
Y1685355D02*
D03*
X716125D02*
D03*
Y1690355D02*
D03*
X731380Y1295355D02*
D03*
Y1290355D02*
D03*
X716125D02*
D03*
Y1295355D02*
D03*
X1014130Y2085355D02*
D03*
Y2080355D02*
D03*
X998875D02*
D03*
Y2085355D02*
D03*
X1014130Y1690355D02*
D03*
Y1685355D02*
D03*
X998875D02*
D03*
Y1690355D02*
D03*
X1014130Y1295355D02*
D03*
Y1290355D02*
D03*
X998875D02*
D03*
Y1295355D02*
D03*
X1296880Y2085355D02*
D03*
Y2080355D02*
D03*
X1281625D02*
D03*
Y2085355D02*
D03*
X1296880Y1690355D02*
D03*
Y1685355D02*
D03*
X1281625D02*
D03*
Y1690355D02*
D03*
X1296880Y1295355D02*
D03*
Y1290355D02*
D03*
X1281625D02*
D03*
Y1295355D02*
D03*
D95*
X1346751Y399775D02*
D03*
X1351751D02*
D03*
X1356751D02*
D03*
Y384520D02*
D03*
X1351751D02*
D03*
X1346751D02*
D03*
Y794775D02*
D03*
X1351751D02*
D03*
X1356751D02*
D03*
Y779520D02*
D03*
X1351751D02*
D03*
X1346751D02*
D03*
Y1189775D02*
D03*
X1351751D02*
D03*
X1356751D02*
D03*
Y1174520D02*
D03*
X1351751D02*
D03*
X1346751D02*
D03*
X1064000Y399775D02*
D03*
X1069000D02*
D03*
X1074000D02*
D03*
Y384520D02*
D03*
X1069000D02*
D03*
X1064000D02*
D03*
Y794775D02*
D03*
X1069000D02*
D03*
X1074000D02*
D03*
Y779520D02*
D03*
X1069000D02*
D03*
X1064000D02*
D03*
Y1189775D02*
D03*
X1069000D02*
D03*
X1074000D02*
D03*
Y1174520D02*
D03*
X1069000D02*
D03*
X1064000D02*
D03*
X781250Y399775D02*
D03*
X786250D02*
D03*
X791250D02*
D03*
Y384520D02*
D03*
X786250D02*
D03*
X781250D02*
D03*
Y794775D02*
D03*
X786250D02*
D03*
X791250D02*
D03*
Y779520D02*
D03*
X786250D02*
D03*
X781250D02*
D03*
Y1189775D02*
D03*
X786250D02*
D03*
X791250D02*
D03*
Y1174520D02*
D03*
X786250D02*
D03*
X781250D02*
D03*
X498500Y399775D02*
D03*
X503500D02*
D03*
X508500D02*
D03*
Y384520D02*
D03*
X503500D02*
D03*
X498500D02*
D03*
Y794775D02*
D03*
X503500D02*
D03*
X508500D02*
D03*
Y779520D02*
D03*
X503500D02*
D03*
X498500D02*
D03*
Y1189775D02*
D03*
X503500D02*
D03*
X508500D02*
D03*
Y1174520D02*
D03*
X503500D02*
D03*
X498500D02*
D03*
X215750Y399775D02*
D03*
X220750D02*
D03*
X225750D02*
D03*
Y384520D02*
D03*
X220750D02*
D03*
X215750D02*
D03*
Y794775D02*
D03*
X220750D02*
D03*
X225750D02*
D03*
Y779520D02*
D03*
X220750D02*
D03*
X215750D02*
D03*
Y1189775D02*
D03*
X220750D02*
D03*
X225750D02*
D03*
Y1174520D02*
D03*
X220750D02*
D03*
X215750D02*
D03*
X163249Y2075225D02*
D03*
X158249D02*
D03*
X153249D02*
D03*
Y2090480D02*
D03*
X158249D02*
D03*
X163249D02*
D03*
Y1680225D02*
D03*
X158249D02*
D03*
X153249D02*
D03*
Y1695480D02*
D03*
X158249D02*
D03*
X163249D02*
D03*
Y1285225D02*
D03*
X158249D02*
D03*
X153249D02*
D03*
Y1300480D02*
D03*
X158249D02*
D03*
X163249D02*
D03*
X445999Y2075225D02*
D03*
X440999D02*
D03*
X435999D02*
D03*
Y2090480D02*
D03*
X440999D02*
D03*
X445999D02*
D03*
Y1680225D02*
D03*
X440999D02*
D03*
X435999D02*
D03*
Y1695480D02*
D03*
X440999D02*
D03*
X445999D02*
D03*
Y1285225D02*
D03*
X440999D02*
D03*
X435999D02*
D03*
Y1300480D02*
D03*
X440999D02*
D03*
X445999D02*
D03*
X728750Y2075225D02*
D03*
X723750D02*
D03*
X718750D02*
D03*
Y2090480D02*
D03*
X723750D02*
D03*
X728750D02*
D03*
Y1680225D02*
D03*
X723750D02*
D03*
X718750D02*
D03*
Y1695480D02*
D03*
X723750D02*
D03*
X728750D02*
D03*
Y1285225D02*
D03*
X723750D02*
D03*
X718750D02*
D03*
Y1300480D02*
D03*
X723750D02*
D03*
X728750D02*
D03*
X1011500Y2075225D02*
D03*
X1006500D02*
D03*
X1001500D02*
D03*
Y2090480D02*
D03*
X1006500D02*
D03*
X1011500D02*
D03*
Y1680225D02*
D03*
X1006500D02*
D03*
X1001500D02*
D03*
Y1695480D02*
D03*
X1006500D02*
D03*
X1011500D02*
D03*
Y1285225D02*
D03*
X1006500D02*
D03*
X1001500D02*
D03*
Y1300480D02*
D03*
X1006500D02*
D03*
X1011500D02*
D03*
X1294250Y2075225D02*
D03*
X1289250D02*
D03*
X1284250D02*
D03*
Y2090480D02*
D03*
X1289250D02*
D03*
X1294250D02*
D03*
Y1680225D02*
D03*
X1289250D02*
D03*
X1284250D02*
D03*
Y1695480D02*
D03*
X1289250D02*
D03*
X1294250D02*
D03*
Y1285225D02*
D03*
X1289250D02*
D03*
X1284250D02*
D03*
Y1300480D02*
D03*
X1289250D02*
D03*
X1294250D02*
D03*
M02*
