G04*
G04 #@! TF.GenerationSoftware,Altium Limited,Altium Designer,23.6.0 (18)*
G04*
G04 Layer_Physical_Order=2*
G04 Layer_Color=32768*
%FSLAX44Y44*%
%MOMM*%
G71*
G04*
G04 #@! TF.SameCoordinates,542A25E6-394C-4203-B619-F464005C6F94*
G04*
G04*
G04 #@! TF.FilePolarity,Negative*
G04*
G01*
G75*
%ADD52C,1.0160*%
%ADD53R,2.3750X2.6250*%
%ADD54R,0.7283X2.1250*%
%ADD55R,2.1250X0.4197*%
%ADD56R,0.5768X2.1250*%
%ADD57R,2.1250X0.4270*%
%ADD58R,2.6250X0.1250*%
%ADD59R,0.1250X2.6250*%
%ADD60R,2.6250X0.1250*%
%ADD61R,0.1250X2.6250*%
%ADD62C,0.7000*%
%ADD63C,0.4000*%
%ADD64C,3.8000*%
%ADD65C,1.5000*%
%ADD66C,1.6000*%
%ADD67C,1.0000*%
%ADD68C,0.8000*%
G36*
X1379250Y2291750D02*
X1379250D01*
X1385500Y2291750D01*
X1386296D01*
X1387766Y2291141D01*
X1388891Y2290016D01*
X1389500Y2288546D01*
X1389500Y2287750D01*
X1389500Y2287750D01*
X1389500Y2280851D01*
X1389500Y2280035D01*
X1388876Y2278528D01*
X1387722Y2277374D01*
X1386215Y2276750D01*
X1385399Y2276750D01*
X1385400Y2276750D01*
X1379250Y2276750D01*
X1378454Y2276750D01*
X1376984Y2277359D01*
X1375859Y2278484D01*
X1375250Y2279955D01*
X1375250Y2280750D01*
Y2280750D01*
X1375250Y2287750D01*
X1375250Y2288546D01*
X1375859Y2290016D01*
X1376984Y2291141D01*
X1378455Y2291750D01*
X1379250Y2291750D01*
D02*
G37*
G36*
X1096500D02*
X1096500D01*
X1102750Y2291750D01*
X1103546D01*
X1105016Y2291141D01*
X1106141Y2290016D01*
X1106750Y2288546D01*
X1106750Y2287750D01*
X1106750Y2287750D01*
X1106750Y2280851D01*
X1106750Y2280035D01*
X1106126Y2278528D01*
X1104972Y2277374D01*
X1103465Y2276750D01*
X1102649Y2276750D01*
X1102650Y2276750D01*
X1096500Y2276750D01*
X1095704Y2276750D01*
X1094234Y2277359D01*
X1093109Y2278484D01*
X1092500Y2279955D01*
X1092500Y2280750D01*
Y2280750D01*
X1092500Y2287750D01*
X1092500Y2288546D01*
X1093109Y2290016D01*
X1094234Y2291141D01*
X1095705Y2291750D01*
X1096500Y2291750D01*
D02*
G37*
G36*
X813750D02*
X813750D01*
X820000Y2291750D01*
X820796D01*
X822266Y2291141D01*
X823391Y2290016D01*
X824000Y2288546D01*
X824000Y2287750D01*
X824000Y2287750D01*
X824000Y2280851D01*
X824000Y2280035D01*
X823376Y2278528D01*
X822222Y2277374D01*
X820715Y2276750D01*
X819899Y2276750D01*
X819900Y2276750D01*
X813750Y2276750D01*
X812954Y2276750D01*
X811484Y2277359D01*
X810359Y2278484D01*
X809750Y2279955D01*
X809750Y2280750D01*
Y2280750D01*
X809750Y2287750D01*
X809750Y2288546D01*
X810359Y2290016D01*
X811484Y2291141D01*
X812954Y2291750D01*
X813750Y2291750D01*
D02*
G37*
G36*
X531000D02*
X531000D01*
X537250Y2291750D01*
X538046D01*
X539516Y2291141D01*
X540641Y2290016D01*
X541250Y2288546D01*
X541250Y2287750D01*
X541250Y2287750D01*
X541250Y2280851D01*
X541250Y2280035D01*
X540626Y2278528D01*
X539472Y2277374D01*
X537965Y2276750D01*
X537149Y2276750D01*
X537150Y2276750D01*
X531000Y2276750D01*
X530204Y2276750D01*
X528734Y2277359D01*
X527609Y2278484D01*
X527000Y2279955D01*
X527000Y2280750D01*
Y2280750D01*
X527000Y2287750D01*
X527000Y2288546D01*
X527609Y2290016D01*
X528734Y2291141D01*
X530204Y2291750D01*
X531000Y2291750D01*
D02*
G37*
G36*
X248250D02*
X248250D01*
X254500Y2291750D01*
X255296D01*
X256766Y2291141D01*
X257891Y2290016D01*
X258500Y2288546D01*
X258500Y2287750D01*
X258500Y2287750D01*
X258500Y2280851D01*
X258500Y2280035D01*
X257876Y2278528D01*
X256722Y2277374D01*
X255215Y2276750D01*
X254399Y2276750D01*
X254399Y2276750D01*
X248250Y2276750D01*
X247454Y2276750D01*
X245984Y2277359D01*
X244859Y2278484D01*
X244250Y2279955D01*
X244250Y2280750D01*
Y2280750D01*
X244250Y2287750D01*
X244250Y2288546D01*
X244859Y2290016D01*
X245984Y2291141D01*
X247454Y2291750D01*
X248250Y2291750D01*
D02*
G37*
G36*
X1347650Y2200934D02*
X1349064Y2199519D01*
X1349830Y2197671D01*
X1349830Y2196670D01*
X1349830D01*
X1349926Y2195701D01*
X1350668Y2193909D01*
X1352039Y2192538D01*
X1353831Y2191796D01*
X1354800Y2191700D01*
Y2191700D01*
X1355799D01*
X1357644Y2190936D01*
X1359056Y2189524D01*
X1359820Y2187679D01*
Y2186680D01*
X1359820Y2185690D01*
X1359062Y2183859D01*
X1357661Y2182458D01*
X1355831Y2181700D01*
X1354840Y2181701D01*
X1354840Y2181701D01*
X1334890Y2181700D01*
X1333863Y2181700D01*
X1331965Y2182486D01*
X1330513Y2183939D01*
X1329726Y2185837D01*
X1329727Y2186864D01*
Y2186864D01*
X1329727Y2196526D01*
Y2197556D01*
X1330514Y2199457D01*
X1331970Y2200912D01*
X1333871Y2201700D01*
X1334901Y2201700D01*
X1334901D01*
X1344800Y2201700D01*
X1345801Y2201700D01*
X1347650Y2200934D01*
D02*
G37*
G36*
X1064899D02*
X1066314Y2199519D01*
X1067080Y2197671D01*
X1067080Y2196670D01*
X1067080D01*
X1067176Y2195701D01*
X1067918Y2193909D01*
X1069289Y2192538D01*
X1071080Y2191796D01*
X1072050Y2191700D01*
Y2191700D01*
X1073049D01*
X1074894Y2190936D01*
X1076306Y2189524D01*
X1077070Y2187679D01*
Y2186680D01*
X1077070Y2185690D01*
X1076312Y2183859D01*
X1074911Y2182458D01*
X1073081Y2181700D01*
X1072090Y2181701D01*
X1072090Y2181701D01*
X1052140Y2181700D01*
X1051113Y2181700D01*
X1049215Y2182486D01*
X1047762Y2183939D01*
X1046976Y2185837D01*
X1046976Y2186864D01*
Y2186864D01*
X1046976Y2196526D01*
Y2197556D01*
X1047764Y2199457D01*
X1049220Y2200912D01*
X1051121Y2201700D01*
X1052150Y2201700D01*
X1052150D01*
X1062050Y2201700D01*
X1063051Y2201700D01*
X1064899Y2200934D01*
D02*
G37*
G36*
X782149D02*
X783564Y2199519D01*
X784330Y2197671D01*
X784330Y2196670D01*
X784330D01*
X784426Y2195701D01*
X785168Y2193909D01*
X786539Y2192538D01*
X788331Y2191796D01*
X789300Y2191700D01*
Y2191700D01*
X790299D01*
X792144Y2190936D01*
X793556Y2189524D01*
X794320Y2187679D01*
Y2186680D01*
X794320Y2185690D01*
X793562Y2183859D01*
X792161Y2182458D01*
X790331Y2181700D01*
X789340Y2181701D01*
X789340Y2181701D01*
X769390Y2181700D01*
X768363Y2181700D01*
X766465Y2182486D01*
X765012Y2183939D01*
X764226Y2185837D01*
X764226Y2186864D01*
Y2186864D01*
X764226Y2196526D01*
Y2197556D01*
X765014Y2199457D01*
X766469Y2200912D01*
X768371Y2201700D01*
X769400Y2201700D01*
X769400D01*
X779300Y2201700D01*
X780301Y2201700D01*
X782149Y2200934D01*
D02*
G37*
G36*
X499399D02*
X500814Y2199519D01*
X501580Y2197671D01*
X501580Y2196670D01*
X501580D01*
X501676Y2195701D01*
X502418Y2193909D01*
X503789Y2192538D01*
X505580Y2191796D01*
X506550Y2191700D01*
Y2191700D01*
X507548D01*
X509394Y2190936D01*
X510806Y2189524D01*
X511570Y2187679D01*
Y2186680D01*
X511570Y2185690D01*
X510812Y2183859D01*
X509411Y2182458D01*
X507581Y2181700D01*
X506590Y2181701D01*
X506590Y2181701D01*
X486640Y2181700D01*
X485613Y2181700D01*
X483715Y2182486D01*
X482262Y2183939D01*
X481476Y2185837D01*
X481476Y2186864D01*
Y2186864D01*
X481476Y2196526D01*
Y2197556D01*
X482264Y2199457D01*
X483719Y2200912D01*
X485621Y2201700D01*
X486650Y2201700D01*
X486650D01*
X496550Y2201700D01*
X497551Y2201700D01*
X499399Y2200934D01*
D02*
G37*
G36*
X216649D02*
X218064Y2199519D01*
X218830Y2197671D01*
X218830Y2196670D01*
X218830D01*
X218925Y2195701D01*
X219668Y2193909D01*
X221039Y2192538D01*
X222830Y2191796D01*
X223800Y2191700D01*
Y2191700D01*
X224798D01*
X226644Y2190936D01*
X228056Y2189524D01*
X228820Y2187679D01*
Y2186680D01*
X228820Y2185690D01*
X228062Y2183859D01*
X226661Y2182458D01*
X224830Y2181700D01*
X223840Y2181701D01*
X223840Y2181701D01*
X203890Y2181700D01*
X202862Y2181700D01*
X200965Y2182486D01*
X199512Y2183939D01*
X198726Y2185837D01*
X198726Y2186864D01*
Y2186864D01*
X198726Y2196526D01*
Y2197556D01*
X199514Y2199457D01*
X200969Y2200912D01*
X202871Y2201700D01*
X203900Y2201700D01*
X203900D01*
X213800Y2201700D01*
X214800Y2201700D01*
X216649Y2200934D01*
D02*
G37*
G36*
X1370983Y2184750D02*
X1370983D01*
X1384969Y2184750D01*
X1385771D01*
X1387252Y2184136D01*
X1388387Y2183002D01*
X1389000Y2181520D01*
X1389000Y2180718D01*
X1389000Y2180718D01*
X1389000Y2174532D01*
X1389000Y2173730D01*
X1388386Y2172248D01*
X1387252Y2171114D01*
X1385770Y2170500D01*
X1384968Y2170500D01*
X1384968Y2170500D01*
X1371000Y2170500D01*
X1370205Y2170500D01*
X1368734Y2171109D01*
X1367609Y2172234D01*
X1367000Y2173704D01*
X1367000Y2174500D01*
X1367000D01*
Y2180768D01*
X1367000Y2181560D01*
X1367607Y2183024D01*
X1368727Y2184144D01*
X1370190Y2184750D01*
X1370983Y2184750D01*
D02*
G37*
G36*
X1088232D02*
X1088232D01*
X1102218Y2184750D01*
X1103020D01*
X1104502Y2184136D01*
X1105636Y2183002D01*
X1106250Y2181520D01*
X1106250Y2180718D01*
X1106250Y2180718D01*
X1106250Y2174532D01*
X1106250Y2173730D01*
X1105636Y2172248D01*
X1104502Y2171114D01*
X1103020Y2170500D01*
X1102218Y2170500D01*
X1102218Y2170500D01*
X1088250Y2170500D01*
X1087455Y2170500D01*
X1085984Y2171109D01*
X1084859Y2172234D01*
X1084250Y2173704D01*
X1084250Y2174500D01*
X1084250D01*
Y2180768D01*
X1084250Y2181560D01*
X1084856Y2183024D01*
X1085977Y2184144D01*
X1087440Y2184750D01*
X1088232Y2184750D01*
D02*
G37*
G36*
X805482D02*
X805482D01*
X819469Y2184750D01*
X820270D01*
X821752Y2184136D01*
X822886Y2183002D01*
X823500Y2181520D01*
X823500Y2180718D01*
X823500Y2180718D01*
X823500Y2174532D01*
X823500Y2173730D01*
X822886Y2172248D01*
X821752Y2171114D01*
X820270Y2170500D01*
X819468Y2170500D01*
X819468Y2170500D01*
X805500Y2170500D01*
X804705Y2170500D01*
X803234Y2171109D01*
X802109Y2172234D01*
X801500Y2173704D01*
X801500Y2174500D01*
X801500D01*
Y2180768D01*
X801500Y2181560D01*
X802106Y2183024D01*
X803227Y2184144D01*
X804690Y2184750D01*
X805482Y2184750D01*
D02*
G37*
G36*
X522732D02*
X522732D01*
X536718Y2184750D01*
X537520D01*
X539002Y2184136D01*
X540136Y2183002D01*
X540750Y2181520D01*
X540750Y2180718D01*
X540750Y2180718D01*
X540750Y2174532D01*
X540750Y2173730D01*
X540136Y2172248D01*
X539002Y2171114D01*
X537520Y2170500D01*
X536718Y2170500D01*
X536718Y2170500D01*
X522750Y2170500D01*
X521954Y2170500D01*
X520484Y2171109D01*
X519359Y2172234D01*
X518750Y2173704D01*
X518750Y2174500D01*
X518750D01*
Y2180768D01*
X518750Y2181560D01*
X519356Y2183024D01*
X520476Y2184144D01*
X521940Y2184750D01*
X522732Y2184750D01*
D02*
G37*
G36*
X239982D02*
X239982D01*
X253968Y2184750D01*
X254770D01*
X256252Y2184136D01*
X257386Y2183002D01*
X258000Y2181520D01*
X258000Y2180718D01*
X258000Y2180718D01*
X258000Y2174532D01*
X258000Y2173730D01*
X257386Y2172248D01*
X256252Y2171114D01*
X254770Y2170500D01*
X253968Y2170500D01*
X253968Y2170500D01*
X240000Y2170500D01*
X239204Y2170500D01*
X237734Y2171109D01*
X236609Y2172234D01*
X236000Y2173704D01*
X236000Y2174500D01*
X236000D01*
Y2180768D01*
X236000Y2181560D01*
X236606Y2183024D01*
X237726Y2184144D01*
X239190Y2184750D01*
X239982Y2184750D01*
D02*
G37*
G36*
X1379250Y1896750D02*
X1379250D01*
X1385500Y1896750D01*
X1386296D01*
X1387766Y1896141D01*
X1388891Y1895016D01*
X1389500Y1893546D01*
X1389500Y1892750D01*
X1389500Y1892750D01*
X1389500Y1885851D01*
X1389500Y1885035D01*
X1388876Y1883528D01*
X1387722Y1882374D01*
X1386215Y1881750D01*
X1385399Y1881750D01*
X1385400Y1881750D01*
X1379250Y1881750D01*
X1378454Y1881750D01*
X1376984Y1882359D01*
X1375859Y1883484D01*
X1375250Y1884955D01*
X1375250Y1885750D01*
Y1885750D01*
X1375250Y1892750D01*
X1375250Y1893546D01*
X1375859Y1895016D01*
X1376984Y1896141D01*
X1378455Y1896750D01*
X1379250Y1896750D01*
D02*
G37*
G36*
X1096500D02*
X1096500D01*
X1102750Y1896750D01*
X1103546D01*
X1105016Y1896141D01*
X1106141Y1895016D01*
X1106750Y1893546D01*
X1106750Y1892750D01*
X1106750Y1892750D01*
X1106750Y1885851D01*
X1106750Y1885035D01*
X1106126Y1883528D01*
X1104972Y1882374D01*
X1103465Y1881750D01*
X1102649Y1881750D01*
X1102650Y1881750D01*
X1096500Y1881750D01*
X1095704Y1881750D01*
X1094234Y1882359D01*
X1093109Y1883484D01*
X1092500Y1884955D01*
X1092500Y1885750D01*
Y1885750D01*
X1092500Y1892750D01*
X1092500Y1893546D01*
X1093109Y1895016D01*
X1094234Y1896141D01*
X1095705Y1896750D01*
X1096500Y1896750D01*
D02*
G37*
G36*
X813750D02*
X813750D01*
X820000Y1896750D01*
X820796D01*
X822266Y1896141D01*
X823391Y1895016D01*
X824000Y1893546D01*
X824000Y1892750D01*
X824000Y1892750D01*
X824000Y1885851D01*
X824000Y1885035D01*
X823376Y1883528D01*
X822222Y1882374D01*
X820715Y1881750D01*
X819899Y1881750D01*
X819900Y1881750D01*
X813750Y1881750D01*
X812954Y1881750D01*
X811484Y1882359D01*
X810359Y1883484D01*
X809750Y1884955D01*
X809750Y1885750D01*
Y1885750D01*
X809750Y1892750D01*
X809750Y1893546D01*
X810359Y1895016D01*
X811484Y1896141D01*
X812954Y1896750D01*
X813750Y1896750D01*
D02*
G37*
G36*
X531000D02*
X531000D01*
X537250Y1896750D01*
X538046D01*
X539516Y1896141D01*
X540641Y1895016D01*
X541250Y1893546D01*
X541250Y1892750D01*
X541250Y1892750D01*
X541250Y1885851D01*
X541250Y1885035D01*
X540626Y1883528D01*
X539472Y1882374D01*
X537965Y1881750D01*
X537149Y1881750D01*
X537150Y1881750D01*
X531000Y1881750D01*
X530204Y1881750D01*
X528734Y1882359D01*
X527609Y1883484D01*
X527000Y1884955D01*
X527000Y1885750D01*
Y1885750D01*
X527000Y1892750D01*
X527000Y1893546D01*
X527609Y1895016D01*
X528734Y1896141D01*
X530204Y1896750D01*
X531000Y1896750D01*
D02*
G37*
G36*
X248250D02*
X248250D01*
X254500Y1896750D01*
X255296D01*
X256766Y1896141D01*
X257891Y1895016D01*
X258500Y1893546D01*
X258500Y1892750D01*
X258500Y1892750D01*
X258500Y1885851D01*
X258500Y1885035D01*
X257876Y1883528D01*
X256722Y1882374D01*
X255215Y1881750D01*
X254399Y1881750D01*
X254399Y1881750D01*
X248250Y1881750D01*
X247454Y1881750D01*
X245984Y1882359D01*
X244859Y1883484D01*
X244250Y1884955D01*
X244250Y1885750D01*
Y1885750D01*
X244250Y1892750D01*
X244250Y1893546D01*
X244859Y1895016D01*
X245984Y1896141D01*
X247454Y1896750D01*
X248250Y1896750D01*
D02*
G37*
G36*
X1347650Y1805934D02*
X1349064Y1804519D01*
X1349830Y1802671D01*
X1349830Y1801670D01*
X1349830D01*
X1349926Y1800701D01*
X1350668Y1798909D01*
X1352039Y1797538D01*
X1353831Y1796796D01*
X1354800Y1796700D01*
Y1796700D01*
X1355799D01*
X1357644Y1795936D01*
X1359056Y1794524D01*
X1359820Y1792679D01*
Y1791680D01*
X1359820Y1790690D01*
X1359062Y1788859D01*
X1357661Y1787458D01*
X1355831Y1786700D01*
X1354840Y1786701D01*
X1354840Y1786701D01*
X1334890Y1786700D01*
X1333863Y1786700D01*
X1331965Y1787486D01*
X1330513Y1788939D01*
X1329726Y1790837D01*
X1329727Y1791864D01*
Y1791864D01*
X1329727Y1801526D01*
Y1802556D01*
X1330514Y1804457D01*
X1331970Y1805912D01*
X1333871Y1806700D01*
X1334901Y1806700D01*
X1334901D01*
X1344800Y1806700D01*
X1345801Y1806700D01*
X1347650Y1805934D01*
D02*
G37*
G36*
X1064899D02*
X1066314Y1804519D01*
X1067080Y1802671D01*
X1067080Y1801670D01*
X1067080D01*
X1067176Y1800701D01*
X1067918Y1798909D01*
X1069289Y1797538D01*
X1071080Y1796796D01*
X1072050Y1796700D01*
Y1796700D01*
X1073049D01*
X1074894Y1795936D01*
X1076306Y1794524D01*
X1077070Y1792679D01*
Y1791680D01*
X1077070Y1790690D01*
X1076312Y1788859D01*
X1074911Y1787458D01*
X1073081Y1786700D01*
X1072090Y1786701D01*
X1072090Y1786701D01*
X1052140Y1786700D01*
X1051113Y1786700D01*
X1049215Y1787486D01*
X1047762Y1788939D01*
X1046976Y1790837D01*
X1046976Y1791864D01*
Y1791864D01*
X1046976Y1801526D01*
Y1802556D01*
X1047764Y1804457D01*
X1049220Y1805912D01*
X1051121Y1806700D01*
X1052150Y1806700D01*
X1052150D01*
X1062050Y1806700D01*
X1063051Y1806700D01*
X1064899Y1805934D01*
D02*
G37*
G36*
X782149D02*
X783564Y1804519D01*
X784330Y1802671D01*
X784330Y1801670D01*
X784330D01*
X784426Y1800701D01*
X785168Y1798909D01*
X786539Y1797538D01*
X788331Y1796796D01*
X789300Y1796700D01*
Y1796700D01*
X790299D01*
X792144Y1795936D01*
X793556Y1794524D01*
X794320Y1792679D01*
Y1791680D01*
X794320Y1790690D01*
X793562Y1788859D01*
X792161Y1787458D01*
X790331Y1786700D01*
X789340Y1786701D01*
X789340Y1786701D01*
X769390Y1786700D01*
X768363Y1786700D01*
X766465Y1787486D01*
X765012Y1788939D01*
X764226Y1790837D01*
X764226Y1791864D01*
Y1791864D01*
X764226Y1801526D01*
Y1802556D01*
X765014Y1804457D01*
X766469Y1805912D01*
X768371Y1806700D01*
X769400Y1806700D01*
X769400D01*
X779300Y1806700D01*
X780301Y1806700D01*
X782149Y1805934D01*
D02*
G37*
G36*
X499399D02*
X500814Y1804519D01*
X501580Y1802671D01*
X501580Y1801670D01*
X501580D01*
X501676Y1800701D01*
X502418Y1798909D01*
X503789Y1797538D01*
X505580Y1796796D01*
X506550Y1796700D01*
Y1796700D01*
X507548D01*
X509394Y1795936D01*
X510806Y1794524D01*
X511570Y1792679D01*
Y1791680D01*
X511570Y1790690D01*
X510812Y1788859D01*
X509411Y1787458D01*
X507581Y1786700D01*
X506590Y1786701D01*
X506590Y1786701D01*
X486640Y1786700D01*
X485613Y1786700D01*
X483715Y1787486D01*
X482262Y1788939D01*
X481476Y1790837D01*
X481476Y1791864D01*
Y1791864D01*
X481476Y1801526D01*
Y1802556D01*
X482264Y1804457D01*
X483719Y1805912D01*
X485621Y1806700D01*
X486650Y1806700D01*
X486650D01*
X496550Y1806700D01*
X497551Y1806700D01*
X499399Y1805934D01*
D02*
G37*
G36*
X216649D02*
X218064Y1804519D01*
X218830Y1802671D01*
X218830Y1801670D01*
X218830D01*
X218925Y1800701D01*
X219668Y1798909D01*
X221039Y1797538D01*
X222830Y1796796D01*
X223800Y1796700D01*
Y1796700D01*
X224798D01*
X226644Y1795936D01*
X228056Y1794524D01*
X228820Y1792679D01*
Y1791680D01*
X228820Y1790690D01*
X228062Y1788859D01*
X226661Y1787458D01*
X224830Y1786700D01*
X223840Y1786701D01*
X223840Y1786701D01*
X203890Y1786700D01*
X202862Y1786700D01*
X200965Y1787486D01*
X199512Y1788939D01*
X198726Y1790837D01*
X198726Y1791864D01*
Y1791864D01*
X198726Y1801526D01*
Y1802556D01*
X199514Y1804457D01*
X200969Y1805912D01*
X202871Y1806700D01*
X203900Y1806700D01*
X203900D01*
X213800Y1806700D01*
X214800Y1806700D01*
X216649Y1805934D01*
D02*
G37*
G36*
X1370983Y1789750D02*
X1370983D01*
X1384969Y1789750D01*
X1385771D01*
X1387252Y1789136D01*
X1388387Y1788002D01*
X1389000Y1786520D01*
X1389000Y1785718D01*
X1389000Y1785718D01*
X1389000Y1779532D01*
X1389000Y1778730D01*
X1388386Y1777248D01*
X1387252Y1776114D01*
X1385770Y1775500D01*
X1384968Y1775500D01*
X1384968Y1775500D01*
X1371000Y1775500D01*
X1370205Y1775500D01*
X1368734Y1776109D01*
X1367609Y1777234D01*
X1367000Y1778704D01*
X1367000Y1779500D01*
X1367000D01*
Y1785768D01*
X1367000Y1786560D01*
X1367607Y1788024D01*
X1368727Y1789144D01*
X1370190Y1789750D01*
X1370983Y1789750D01*
D02*
G37*
G36*
X1088232D02*
X1088232D01*
X1102218Y1789750D01*
X1103020D01*
X1104502Y1789136D01*
X1105636Y1788002D01*
X1106250Y1786520D01*
X1106250Y1785718D01*
X1106250Y1785718D01*
X1106250Y1779532D01*
X1106250Y1778730D01*
X1105636Y1777248D01*
X1104502Y1776114D01*
X1103020Y1775500D01*
X1102218Y1775500D01*
X1102218Y1775500D01*
X1088250Y1775500D01*
X1087455Y1775500D01*
X1085984Y1776109D01*
X1084859Y1777234D01*
X1084250Y1778704D01*
X1084250Y1779500D01*
X1084250D01*
Y1785768D01*
X1084250Y1786560D01*
X1084856Y1788024D01*
X1085977Y1789144D01*
X1087440Y1789750D01*
X1088232Y1789750D01*
D02*
G37*
G36*
X805482D02*
X805482D01*
X819469Y1789750D01*
X820270D01*
X821752Y1789136D01*
X822886Y1788002D01*
X823500Y1786520D01*
X823500Y1785718D01*
X823500Y1785718D01*
X823500Y1779532D01*
X823500Y1778730D01*
X822886Y1777248D01*
X821752Y1776114D01*
X820270Y1775500D01*
X819468Y1775500D01*
X819468Y1775500D01*
X805500Y1775500D01*
X804705Y1775500D01*
X803234Y1776109D01*
X802109Y1777234D01*
X801500Y1778704D01*
X801500Y1779500D01*
X801500D01*
Y1785768D01*
X801500Y1786560D01*
X802106Y1788024D01*
X803227Y1789144D01*
X804690Y1789750D01*
X805482Y1789750D01*
D02*
G37*
G36*
X522732D02*
X522732D01*
X536718Y1789750D01*
X537520D01*
X539002Y1789136D01*
X540136Y1788002D01*
X540750Y1786520D01*
X540750Y1785718D01*
X540750Y1785718D01*
X540750Y1779532D01*
X540750Y1778730D01*
X540136Y1777248D01*
X539002Y1776114D01*
X537520Y1775500D01*
X536718Y1775500D01*
X536718Y1775500D01*
X522750Y1775500D01*
X521954Y1775500D01*
X520484Y1776109D01*
X519359Y1777234D01*
X518750Y1778704D01*
X518750Y1779500D01*
X518750D01*
Y1785768D01*
X518750Y1786560D01*
X519356Y1788024D01*
X520476Y1789144D01*
X521940Y1789750D01*
X522732Y1789750D01*
D02*
G37*
G36*
X239982D02*
X239982D01*
X253968Y1789750D01*
X254770D01*
X256252Y1789136D01*
X257386Y1788002D01*
X258000Y1786520D01*
X258000Y1785718D01*
X258000Y1785718D01*
X258000Y1779532D01*
X258000Y1778730D01*
X257386Y1777248D01*
X256252Y1776114D01*
X254770Y1775500D01*
X253968Y1775500D01*
X253968Y1775500D01*
X240000Y1775500D01*
X239204Y1775500D01*
X237734Y1776109D01*
X236609Y1777234D01*
X236000Y1778704D01*
X236000Y1779500D01*
X236000D01*
Y1785768D01*
X236000Y1786560D01*
X236606Y1788024D01*
X237726Y1789144D01*
X239190Y1789750D01*
X239982Y1789750D01*
D02*
G37*
G36*
X1379250Y1501750D02*
X1379250D01*
X1385500Y1501750D01*
X1386296D01*
X1387766Y1501141D01*
X1388891Y1500016D01*
X1389500Y1498546D01*
X1389500Y1497750D01*
X1389500Y1497750D01*
X1389500Y1490851D01*
X1389500Y1490035D01*
X1388876Y1488528D01*
X1387722Y1487374D01*
X1386215Y1486750D01*
X1385399Y1486750D01*
X1385400Y1486750D01*
X1379250Y1486750D01*
X1378454Y1486750D01*
X1376984Y1487359D01*
X1375859Y1488484D01*
X1375250Y1489955D01*
X1375250Y1490750D01*
Y1490750D01*
X1375250Y1497750D01*
X1375250Y1498546D01*
X1375859Y1500016D01*
X1376984Y1501141D01*
X1378455Y1501750D01*
X1379250Y1501750D01*
D02*
G37*
G36*
X1096500D02*
X1096500D01*
X1102750Y1501750D01*
X1103546D01*
X1105016Y1501141D01*
X1106141Y1500016D01*
X1106750Y1498546D01*
X1106750Y1497750D01*
X1106750Y1497750D01*
X1106750Y1490851D01*
X1106750Y1490035D01*
X1106126Y1488528D01*
X1104972Y1487374D01*
X1103465Y1486750D01*
X1102649Y1486750D01*
X1102650Y1486750D01*
X1096500Y1486750D01*
X1095704Y1486750D01*
X1094234Y1487359D01*
X1093109Y1488484D01*
X1092500Y1489955D01*
X1092500Y1490750D01*
Y1490750D01*
X1092500Y1497750D01*
X1092500Y1498546D01*
X1093109Y1500016D01*
X1094234Y1501141D01*
X1095705Y1501750D01*
X1096500Y1501750D01*
D02*
G37*
G36*
X813750D02*
X813750D01*
X820000Y1501750D01*
X820796D01*
X822266Y1501141D01*
X823391Y1500016D01*
X824000Y1498546D01*
X824000Y1497750D01*
X824000Y1497750D01*
X824000Y1490851D01*
X824000Y1490035D01*
X823376Y1488528D01*
X822222Y1487374D01*
X820715Y1486750D01*
X819899Y1486750D01*
X819900Y1486750D01*
X813750Y1486750D01*
X812954Y1486750D01*
X811484Y1487359D01*
X810359Y1488484D01*
X809750Y1489955D01*
X809750Y1490750D01*
Y1490750D01*
X809750Y1497750D01*
X809750Y1498546D01*
X810359Y1500016D01*
X811484Y1501141D01*
X812954Y1501750D01*
X813750Y1501750D01*
D02*
G37*
G36*
X531000D02*
X531000D01*
X537250Y1501750D01*
X538046D01*
X539516Y1501141D01*
X540641Y1500016D01*
X541250Y1498546D01*
X541250Y1497750D01*
X541250Y1497750D01*
X541250Y1490851D01*
X541250Y1490035D01*
X540626Y1488528D01*
X539472Y1487374D01*
X537965Y1486750D01*
X537149Y1486750D01*
X537150Y1486750D01*
X531000Y1486750D01*
X530204Y1486750D01*
X528734Y1487359D01*
X527609Y1488484D01*
X527000Y1489955D01*
X527000Y1490750D01*
Y1490750D01*
X527000Y1497750D01*
X527000Y1498546D01*
X527609Y1500016D01*
X528734Y1501141D01*
X530204Y1501750D01*
X531000Y1501750D01*
D02*
G37*
G36*
X248250D02*
X248250D01*
X254500Y1501750D01*
X255296D01*
X256766Y1501141D01*
X257891Y1500016D01*
X258500Y1498546D01*
X258500Y1497750D01*
X258500Y1497750D01*
X258500Y1490851D01*
X258500Y1490035D01*
X257876Y1488528D01*
X256722Y1487374D01*
X255215Y1486750D01*
X254399Y1486750D01*
X254399Y1486750D01*
X248250Y1486750D01*
X247454Y1486750D01*
X245984Y1487359D01*
X244859Y1488484D01*
X244250Y1489955D01*
X244250Y1490750D01*
Y1490750D01*
X244250Y1497750D01*
X244250Y1498546D01*
X244859Y1500016D01*
X245984Y1501141D01*
X247454Y1501750D01*
X248250Y1501750D01*
D02*
G37*
G36*
X1347650Y1410934D02*
X1349064Y1409519D01*
X1349830Y1407671D01*
X1349830Y1406670D01*
X1349830D01*
X1349926Y1405701D01*
X1350668Y1403909D01*
X1352039Y1402538D01*
X1353831Y1401796D01*
X1354800Y1401700D01*
Y1401700D01*
X1355799D01*
X1357644Y1400936D01*
X1359056Y1399524D01*
X1359820Y1397679D01*
Y1396680D01*
X1359820Y1395690D01*
X1359062Y1393859D01*
X1357661Y1392458D01*
X1355831Y1391700D01*
X1354840Y1391701D01*
X1354840Y1391701D01*
X1334890Y1391700D01*
X1333863Y1391700D01*
X1331965Y1392486D01*
X1330513Y1393939D01*
X1329726Y1395837D01*
X1329727Y1396864D01*
Y1396864D01*
X1329727Y1406526D01*
Y1407556D01*
X1330514Y1409457D01*
X1331970Y1410912D01*
X1333871Y1411700D01*
X1334901Y1411700D01*
X1334901D01*
X1344800Y1411700D01*
X1345801Y1411700D01*
X1347650Y1410934D01*
D02*
G37*
G36*
X1064899D02*
X1066314Y1409519D01*
X1067080Y1407671D01*
X1067080Y1406670D01*
X1067080D01*
X1067176Y1405701D01*
X1067918Y1403909D01*
X1069289Y1402538D01*
X1071080Y1401796D01*
X1072050Y1401700D01*
Y1401700D01*
X1073049D01*
X1074894Y1400936D01*
X1076306Y1399524D01*
X1077070Y1397679D01*
Y1396680D01*
X1077070Y1395690D01*
X1076312Y1393859D01*
X1074911Y1392458D01*
X1073081Y1391700D01*
X1072090Y1391701D01*
X1072090Y1391701D01*
X1052140Y1391700D01*
X1051113Y1391700D01*
X1049215Y1392486D01*
X1047762Y1393939D01*
X1046976Y1395837D01*
X1046976Y1396864D01*
Y1396864D01*
X1046976Y1406526D01*
Y1407556D01*
X1047764Y1409457D01*
X1049220Y1410912D01*
X1051121Y1411700D01*
X1052150Y1411700D01*
X1052150D01*
X1062050Y1411700D01*
X1063051Y1411700D01*
X1064899Y1410934D01*
D02*
G37*
G36*
X782149D02*
X783564Y1409519D01*
X784330Y1407671D01*
X784330Y1406670D01*
X784330D01*
X784426Y1405701D01*
X785168Y1403909D01*
X786539Y1402538D01*
X788331Y1401796D01*
X789300Y1401700D01*
Y1401700D01*
X790299D01*
X792144Y1400936D01*
X793556Y1399524D01*
X794320Y1397679D01*
Y1396680D01*
X794320Y1395690D01*
X793562Y1393859D01*
X792161Y1392458D01*
X790331Y1391700D01*
X789340Y1391701D01*
X789340Y1391701D01*
X769390Y1391700D01*
X768363Y1391700D01*
X766465Y1392486D01*
X765012Y1393939D01*
X764226Y1395837D01*
X764226Y1396864D01*
Y1396864D01*
X764226Y1406526D01*
Y1407556D01*
X765014Y1409457D01*
X766469Y1410912D01*
X768371Y1411700D01*
X769400Y1411700D01*
X769400D01*
X779300Y1411700D01*
X780301Y1411700D01*
X782149Y1410934D01*
D02*
G37*
G36*
X499399D02*
X500814Y1409519D01*
X501580Y1407671D01*
X501580Y1406670D01*
X501580D01*
X501676Y1405701D01*
X502418Y1403909D01*
X503789Y1402538D01*
X505580Y1401796D01*
X506550Y1401700D01*
Y1401700D01*
X507548D01*
X509394Y1400936D01*
X510806Y1399524D01*
X511570Y1397679D01*
Y1396680D01*
X511570Y1395690D01*
X510812Y1393859D01*
X509411Y1392458D01*
X507581Y1391700D01*
X506590Y1391701D01*
X506590Y1391701D01*
X486640Y1391700D01*
X485613Y1391700D01*
X483715Y1392486D01*
X482262Y1393939D01*
X481476Y1395837D01*
X481476Y1396864D01*
Y1396864D01*
X481476Y1406526D01*
Y1407556D01*
X482264Y1409457D01*
X483719Y1410912D01*
X485621Y1411700D01*
X486650Y1411700D01*
X486650D01*
X496550Y1411700D01*
X497551Y1411700D01*
X499399Y1410934D01*
D02*
G37*
G36*
X216649D02*
X218064Y1409519D01*
X218830Y1407671D01*
X218830Y1406670D01*
X218830D01*
X218925Y1405701D01*
X219668Y1403909D01*
X221039Y1402538D01*
X222830Y1401796D01*
X223800Y1401700D01*
Y1401700D01*
X224798D01*
X226644Y1400936D01*
X228056Y1399524D01*
X228820Y1397679D01*
Y1396680D01*
X228820Y1395690D01*
X228062Y1393859D01*
X226661Y1392458D01*
X224830Y1391700D01*
X223840Y1391701D01*
X223840Y1391701D01*
X203890Y1391700D01*
X202862Y1391700D01*
X200965Y1392486D01*
X199512Y1393939D01*
X198726Y1395837D01*
X198726Y1396864D01*
Y1396864D01*
X198726Y1406526D01*
Y1407556D01*
X199514Y1409457D01*
X200969Y1410912D01*
X202871Y1411700D01*
X203900Y1411700D01*
X203900D01*
X213800Y1411700D01*
X214800Y1411700D01*
X216649Y1410934D01*
D02*
G37*
G36*
X1370983Y1394750D02*
X1370983D01*
X1384969Y1394750D01*
X1385771D01*
X1387252Y1394136D01*
X1388387Y1393002D01*
X1389000Y1391520D01*
X1389000Y1390718D01*
X1389000Y1390718D01*
X1389000Y1384532D01*
X1389000Y1383730D01*
X1388386Y1382248D01*
X1387252Y1381114D01*
X1385770Y1380500D01*
X1384968Y1380500D01*
X1384968Y1380500D01*
X1371000Y1380500D01*
X1370205Y1380500D01*
X1368734Y1381109D01*
X1367609Y1382234D01*
X1367000Y1383704D01*
X1367000Y1384500D01*
X1367000D01*
Y1390768D01*
X1367000Y1391560D01*
X1367607Y1393024D01*
X1368727Y1394144D01*
X1370190Y1394750D01*
X1370983Y1394750D01*
D02*
G37*
G36*
X1088232D02*
X1088232D01*
X1102218Y1394750D01*
X1103020D01*
X1104502Y1394136D01*
X1105636Y1393002D01*
X1106250Y1391520D01*
X1106250Y1390718D01*
X1106250Y1390718D01*
X1106250Y1384532D01*
X1106250Y1383730D01*
X1105636Y1382248D01*
X1104502Y1381114D01*
X1103020Y1380500D01*
X1102218Y1380500D01*
X1102218Y1380500D01*
X1088250Y1380500D01*
X1087455Y1380500D01*
X1085984Y1381109D01*
X1084859Y1382234D01*
X1084250Y1383704D01*
X1084250Y1384500D01*
X1084250D01*
Y1390768D01*
X1084250Y1391560D01*
X1084856Y1393024D01*
X1085977Y1394144D01*
X1087440Y1394750D01*
X1088232Y1394750D01*
D02*
G37*
G36*
X805482D02*
X805482D01*
X819469Y1394750D01*
X820270D01*
X821752Y1394136D01*
X822886Y1393002D01*
X823500Y1391520D01*
X823500Y1390718D01*
X823500Y1390718D01*
X823500Y1384532D01*
X823500Y1383730D01*
X822886Y1382248D01*
X821752Y1381114D01*
X820270Y1380500D01*
X819468Y1380500D01*
X819468Y1380500D01*
X805500Y1380500D01*
X804705Y1380500D01*
X803234Y1381109D01*
X802109Y1382234D01*
X801500Y1383704D01*
X801500Y1384500D01*
X801500D01*
Y1390768D01*
X801500Y1391560D01*
X802106Y1393024D01*
X803227Y1394144D01*
X804690Y1394750D01*
X805482Y1394750D01*
D02*
G37*
G36*
X522732D02*
X522732D01*
X536718Y1394750D01*
X537520D01*
X539002Y1394136D01*
X540136Y1393002D01*
X540750Y1391520D01*
X540750Y1390718D01*
X540750Y1390718D01*
X540750Y1384532D01*
X540750Y1383730D01*
X540136Y1382248D01*
X539002Y1381114D01*
X537520Y1380500D01*
X536718Y1380500D01*
X536718Y1380500D01*
X522750Y1380500D01*
X521954Y1380500D01*
X520484Y1381109D01*
X519359Y1382234D01*
X518750Y1383704D01*
X518750Y1384500D01*
X518750D01*
Y1390768D01*
X518750Y1391560D01*
X519356Y1393024D01*
X520476Y1394144D01*
X521940Y1394750D01*
X522732Y1394750D01*
D02*
G37*
G36*
X239982D02*
X239982D01*
X253968Y1394750D01*
X254770D01*
X256252Y1394136D01*
X257386Y1393002D01*
X258000Y1391520D01*
X258000Y1390718D01*
X258000Y1390718D01*
X258000Y1384532D01*
X258000Y1383730D01*
X257386Y1382248D01*
X256252Y1381114D01*
X254770Y1380500D01*
X253968Y1380500D01*
X253968Y1380500D01*
X240000Y1380500D01*
X239204Y1380500D01*
X237734Y1381109D01*
X236609Y1382234D01*
X236000Y1383704D01*
X236000Y1384500D01*
X236000D01*
Y1390768D01*
X236000Y1391560D01*
X236606Y1393024D01*
X237726Y1394144D01*
X239190Y1394750D01*
X239982Y1394750D01*
D02*
G37*
G36*
X1272266Y1093891D02*
X1273391Y1092766D01*
X1274000Y1091296D01*
X1274000Y1090500D01*
X1274000D01*
Y1084232D01*
X1274000Y1083440D01*
X1273394Y1081976D01*
X1272274Y1080856D01*
X1270810Y1080250D01*
X1270018Y1080250D01*
X1270018D01*
X1256032Y1080250D01*
X1255230D01*
X1253748Y1080864D01*
X1252614Y1081998D01*
X1252000Y1083480D01*
X1252000Y1084282D01*
X1252000Y1084282D01*
X1252000Y1090468D01*
X1252000Y1091270D01*
X1252614Y1092752D01*
X1253748Y1093886D01*
X1255230Y1094500D01*
X1256032Y1094500D01*
X1256032Y1094500D01*
X1270000Y1094500D01*
X1270796Y1094500D01*
X1272266Y1093891D01*
D02*
G37*
G36*
X989516D02*
X990641Y1092766D01*
X991250Y1091296D01*
X991250Y1090500D01*
X991250D01*
Y1084232D01*
X991250Y1083440D01*
X990644Y1081976D01*
X989523Y1080856D01*
X988060Y1080250D01*
X987268Y1080250D01*
X987268D01*
X973282Y1080250D01*
X972480D01*
X970998Y1080864D01*
X969864Y1081998D01*
X969250Y1083480D01*
X969250Y1084282D01*
X969250Y1084282D01*
X969250Y1090468D01*
X969250Y1091270D01*
X969864Y1092752D01*
X970998Y1093886D01*
X972480Y1094500D01*
X973282Y1094500D01*
X973282Y1094500D01*
X987250Y1094500D01*
X988046Y1094500D01*
X989516Y1093891D01*
D02*
G37*
G36*
X706766D02*
X707891Y1092766D01*
X708500Y1091296D01*
X708500Y1090500D01*
X708500D01*
Y1084232D01*
X708500Y1083440D01*
X707894Y1081976D01*
X706773Y1080856D01*
X705310Y1080250D01*
X704518Y1080250D01*
X704518D01*
X690531Y1080250D01*
X689730D01*
X688248Y1080864D01*
X687114Y1081998D01*
X686500Y1083480D01*
X686500Y1084282D01*
X686500Y1084282D01*
X686500Y1090468D01*
X686500Y1091270D01*
X687114Y1092752D01*
X688248Y1093886D01*
X689730Y1094500D01*
X690532Y1094500D01*
X690532Y1094500D01*
X704500Y1094500D01*
X705295Y1094500D01*
X706766Y1093891D01*
D02*
G37*
G36*
X424016D02*
X425141Y1092766D01*
X425750Y1091296D01*
X425750Y1090500D01*
X425750D01*
Y1084232D01*
X425750Y1083440D01*
X425144Y1081976D01*
X424023Y1080856D01*
X422560Y1080250D01*
X421768Y1080250D01*
X421768D01*
X407781Y1080250D01*
X406979D01*
X405498Y1080864D01*
X404364Y1081998D01*
X403750Y1083480D01*
X403750Y1084282D01*
X403750Y1084282D01*
X403750Y1090468D01*
X403750Y1091270D01*
X404364Y1092752D01*
X405498Y1093886D01*
X406980Y1094500D01*
X407782Y1094500D01*
X407782Y1094500D01*
X421750Y1094500D01*
X422546Y1094500D01*
X424016Y1093891D01*
D02*
G37*
G36*
X141265D02*
X142391Y1092766D01*
X143000Y1091296D01*
X143000Y1090500D01*
X143000D01*
Y1084232D01*
X143000Y1083440D01*
X142394Y1081976D01*
X141273Y1080856D01*
X139810Y1080250D01*
X139017Y1080250D01*
X139017D01*
X125031Y1080250D01*
X124229D01*
X122748Y1080864D01*
X121614Y1081998D01*
X121000Y1083480D01*
X121000Y1084282D01*
X121000Y1084282D01*
X121000Y1090468D01*
X121000Y1091270D01*
X121614Y1092752D01*
X122748Y1093886D01*
X124230Y1094500D01*
X125032Y1094500D01*
X125032Y1094500D01*
X139000Y1094500D01*
X139795Y1094500D01*
X141265Y1093891D01*
D02*
G37*
G36*
X1309035Y1082514D02*
X1310488Y1081061D01*
X1311274Y1079163D01*
X1311274Y1078136D01*
Y1078136D01*
X1311274Y1068474D01*
Y1067445D01*
X1310486Y1065543D01*
X1309031Y1064088D01*
X1307129Y1063300D01*
X1306100Y1063300D01*
X1306100D01*
X1296200Y1063300D01*
X1295200Y1063300D01*
X1293351Y1064066D01*
X1291936Y1065481D01*
X1291170Y1067329D01*
X1291170Y1068330D01*
X1291170D01*
X1291075Y1069299D01*
X1290332Y1071091D01*
X1288961Y1072462D01*
X1287170Y1073204D01*
X1286200Y1073300D01*
Y1073300D01*
X1285202D01*
X1283356Y1074064D01*
X1281944Y1075476D01*
X1281180Y1077321D01*
Y1078320D01*
X1281180Y1079311D01*
X1281938Y1081141D01*
X1283339Y1082542D01*
X1285170Y1083299D01*
X1286160Y1083299D01*
X1286160Y1083299D01*
X1306110Y1083300D01*
X1307137Y1083300D01*
X1309035Y1082514D01*
D02*
G37*
G36*
X1026285D02*
X1027738Y1081061D01*
X1028524Y1079163D01*
X1028524Y1078136D01*
Y1078136D01*
X1028524Y1068474D01*
Y1067445D01*
X1027736Y1065543D01*
X1026281Y1064088D01*
X1024379Y1063300D01*
X1023350Y1063300D01*
X1023350D01*
X1013450Y1063300D01*
X1012449Y1063300D01*
X1010601Y1064066D01*
X1009186Y1065481D01*
X1008420Y1067329D01*
X1008420Y1068330D01*
X1008420D01*
X1008325Y1069299D01*
X1007582Y1071091D01*
X1006211Y1072462D01*
X1004420Y1073204D01*
X1003450Y1073300D01*
Y1073300D01*
X1002451D01*
X1000606Y1074064D01*
X999194Y1075476D01*
X998430Y1077321D01*
Y1078320D01*
X998430Y1079311D01*
X999188Y1081141D01*
X1000589Y1082542D01*
X1002419Y1083299D01*
X1003410Y1083299D01*
X1003410Y1083299D01*
X1023360Y1083300D01*
X1024387Y1083300D01*
X1026285Y1082514D01*
D02*
G37*
G36*
X743535D02*
X744988Y1081061D01*
X745774Y1079163D01*
X745774Y1078136D01*
Y1078136D01*
X745774Y1068474D01*
Y1067445D01*
X744986Y1065543D01*
X743531Y1064088D01*
X741629Y1063300D01*
X740600Y1063300D01*
X740600D01*
X730700Y1063300D01*
X729699Y1063300D01*
X727851Y1064066D01*
X726436Y1065481D01*
X725670Y1067329D01*
X725670Y1068330D01*
X725670D01*
X725574Y1069299D01*
X724832Y1071091D01*
X723461Y1072462D01*
X721669Y1073204D01*
X720700Y1073300D01*
Y1073300D01*
X719701D01*
X717856Y1074064D01*
X716444Y1075476D01*
X715680Y1077321D01*
Y1078320D01*
X715680Y1079311D01*
X716438Y1081141D01*
X717839Y1082542D01*
X719669Y1083299D01*
X720660Y1083299D01*
X720660Y1083299D01*
X740610Y1083300D01*
X741637Y1083300D01*
X743535Y1082514D01*
D02*
G37*
G36*
X460785D02*
X462238Y1081061D01*
X463024Y1079163D01*
X463023Y1078136D01*
Y1078136D01*
X463023Y1068474D01*
Y1067445D01*
X462236Y1065543D01*
X460780Y1064088D01*
X458879Y1063300D01*
X457850Y1063300D01*
X457850D01*
X447950Y1063300D01*
X446949Y1063300D01*
X445101Y1064066D01*
X443686Y1065481D01*
X442920Y1067329D01*
X442920Y1068330D01*
X442920D01*
X442824Y1069299D01*
X442082Y1071091D01*
X440711Y1072462D01*
X438919Y1073204D01*
X437950Y1073300D01*
Y1073300D01*
X436951D01*
X435106Y1074064D01*
X433694Y1075476D01*
X432930Y1077321D01*
Y1078320D01*
X432930Y1079311D01*
X433688Y1081141D01*
X435089Y1082542D01*
X436919Y1083299D01*
X437910Y1083299D01*
X437910Y1083299D01*
X457860Y1083300D01*
X458887Y1083300D01*
X460785Y1082514D01*
D02*
G37*
G36*
X178035D02*
X179488Y1081061D01*
X180274Y1079163D01*
X180273Y1078136D01*
Y1078136D01*
X180273Y1068474D01*
Y1067445D01*
X179486Y1065543D01*
X178030Y1064088D01*
X176129Y1063300D01*
X175100Y1063300D01*
X175100D01*
X165200Y1063300D01*
X164199Y1063300D01*
X162351Y1064066D01*
X160935Y1065481D01*
X160170Y1067329D01*
X160170Y1068330D01*
X160170D01*
X160074Y1069299D01*
X159332Y1071091D01*
X157961Y1072462D01*
X156169Y1073204D01*
X155200Y1073300D01*
Y1073300D01*
X154201D01*
X152356Y1074064D01*
X150944Y1075476D01*
X150180Y1077321D01*
Y1078320D01*
X150180Y1079311D01*
X150938Y1081141D01*
X152339Y1082542D01*
X154169Y1083299D01*
X155160Y1083299D01*
X155160Y1083299D01*
X175110Y1083300D01*
X176137Y1083300D01*
X178035Y1082514D01*
D02*
G37*
G36*
X1261750Y988250D02*
X1262546Y988250D01*
X1264016Y987641D01*
X1265141Y986516D01*
X1265750Y985045D01*
X1265750Y984250D01*
Y984250D01*
X1265750Y977250D01*
X1265750Y976454D01*
X1265141Y974984D01*
X1264016Y973859D01*
X1262546Y973250D01*
X1261750Y973250D01*
X1261750D01*
X1255500Y973250D01*
X1254705D01*
X1253234Y973859D01*
X1252109Y974984D01*
X1251500Y976454D01*
X1251500Y977250D01*
X1251500Y977250D01*
X1251500Y984149D01*
X1251500Y984965D01*
X1252124Y986472D01*
X1253278Y987626D01*
X1254785Y988250D01*
X1255601Y988250D01*
X1255601Y988250D01*
X1261750Y988250D01*
D02*
G37*
G36*
X979000D02*
X979796Y988250D01*
X981266Y987641D01*
X982391Y986516D01*
X983000Y985045D01*
X983000Y984250D01*
Y984250D01*
X983000Y977250D01*
X983000Y976454D01*
X982391Y974984D01*
X981266Y973859D01*
X979796Y973250D01*
X979000Y973250D01*
X979000D01*
X972750Y973250D01*
X971954D01*
X970484Y973859D01*
X969359Y974984D01*
X968750Y976454D01*
X968750Y977250D01*
X968750Y977250D01*
X968750Y984149D01*
X968750Y984965D01*
X969374Y986472D01*
X970528Y987626D01*
X972035Y988250D01*
X972851Y988250D01*
X972850Y988250D01*
X979000Y988250D01*
D02*
G37*
G36*
X696250D02*
X697046Y988250D01*
X698516Y987641D01*
X699641Y986516D01*
X700250Y985045D01*
X700250Y984250D01*
Y984250D01*
X700250Y977250D01*
X700250Y976454D01*
X699641Y974984D01*
X698516Y973859D01*
X697046Y973250D01*
X696250Y973250D01*
X696250D01*
X690000Y973250D01*
X689204D01*
X687734Y973859D01*
X686609Y974984D01*
X686000Y976454D01*
X686000Y977250D01*
X686000Y977250D01*
X686000Y984149D01*
X686000Y984965D01*
X686624Y986472D01*
X687778Y987626D01*
X689285Y988250D01*
X690101Y988250D01*
X690100Y988250D01*
X696250Y988250D01*
D02*
G37*
G36*
X413500D02*
X414296Y988250D01*
X415766Y987641D01*
X416891Y986516D01*
X417500Y985045D01*
X417500Y984250D01*
Y984250D01*
X417500Y977250D01*
X417500Y976454D01*
X416891Y974984D01*
X415766Y973859D01*
X414295Y973250D01*
X413500Y973250D01*
X413500D01*
X407250Y973250D01*
X406454D01*
X404984Y973859D01*
X403859Y974984D01*
X403250Y976454D01*
X403250Y977250D01*
X403250Y977250D01*
X403250Y984149D01*
X403250Y984965D01*
X403874Y986472D01*
X405028Y987626D01*
X406535Y988250D01*
X407351Y988250D01*
X407350Y988250D01*
X413500Y988250D01*
D02*
G37*
G36*
X130750D02*
X131545Y988250D01*
X133016Y987641D01*
X134141Y986516D01*
X134750Y985045D01*
X134750Y984250D01*
Y984250D01*
X134750Y977250D01*
X134750Y976454D01*
X134141Y974984D01*
X133016Y973859D01*
X131545Y973250D01*
X130750Y973250D01*
X130750D01*
X124500Y973250D01*
X123704D01*
X122234Y973859D01*
X121109Y974984D01*
X120500Y976454D01*
X120500Y977250D01*
X120500Y977250D01*
X120500Y984149D01*
X120500Y984965D01*
X121124Y986472D01*
X122278Y987626D01*
X123785Y988250D01*
X124601Y988250D01*
X124600Y988250D01*
X130750Y988250D01*
D02*
G37*
G36*
X1272266Y698891D02*
X1273391Y697766D01*
X1274000Y696296D01*
X1274000Y695500D01*
X1274000D01*
Y689232D01*
X1274000Y688440D01*
X1273394Y686976D01*
X1272274Y685856D01*
X1270810Y685250D01*
X1270018Y685250D01*
X1270018D01*
X1256032Y685250D01*
X1255230D01*
X1253748Y685864D01*
X1252614Y686998D01*
X1252000Y688480D01*
X1252000Y689282D01*
X1252000Y689282D01*
X1252000Y695468D01*
X1252000Y696270D01*
X1252614Y697752D01*
X1253748Y698886D01*
X1255230Y699500D01*
X1256032Y699500D01*
X1256032Y699500D01*
X1270000Y699500D01*
X1270796Y699500D01*
X1272266Y698891D01*
D02*
G37*
G36*
X989516D02*
X990641Y697766D01*
X991250Y696296D01*
X991250Y695500D01*
X991250D01*
Y689232D01*
X991250Y688440D01*
X990644Y686976D01*
X989523Y685856D01*
X988060Y685250D01*
X987268Y685250D01*
X987268D01*
X973282Y685250D01*
X972480D01*
X970998Y685864D01*
X969864Y686998D01*
X969250Y688480D01*
X969250Y689282D01*
X969250Y689282D01*
X969250Y695468D01*
X969250Y696270D01*
X969864Y697752D01*
X970998Y698886D01*
X972480Y699500D01*
X973282Y699500D01*
X973282Y699500D01*
X987250Y699500D01*
X988046Y699500D01*
X989516Y698891D01*
D02*
G37*
G36*
X706766D02*
X707891Y697766D01*
X708500Y696296D01*
X708500Y695500D01*
X708500D01*
Y689232D01*
X708500Y688440D01*
X707894Y686976D01*
X706773Y685856D01*
X705310Y685250D01*
X704518Y685250D01*
X704518D01*
X690531Y685250D01*
X689730D01*
X688248Y685864D01*
X687114Y686998D01*
X686500Y688480D01*
X686500Y689282D01*
X686500Y689282D01*
X686500Y695468D01*
X686500Y696270D01*
X687114Y697752D01*
X688248Y698886D01*
X689730Y699500D01*
X690532Y699500D01*
X690532Y699500D01*
X704500Y699500D01*
X705295Y699500D01*
X706766Y698891D01*
D02*
G37*
G36*
X424016D02*
X425141Y697766D01*
X425750Y696296D01*
X425750Y695500D01*
X425750D01*
Y689232D01*
X425750Y688440D01*
X425144Y686976D01*
X424023Y685856D01*
X422560Y685250D01*
X421768Y685250D01*
X421768D01*
X407781Y685250D01*
X406979D01*
X405498Y685864D01*
X404364Y686998D01*
X403750Y688480D01*
X403750Y689282D01*
X403750Y689282D01*
X403750Y695468D01*
X403750Y696270D01*
X404364Y697752D01*
X405498Y698886D01*
X406980Y699500D01*
X407782Y699500D01*
X407782Y699500D01*
X421750Y699500D01*
X422546Y699500D01*
X424016Y698891D01*
D02*
G37*
G36*
X141265D02*
X142391Y697766D01*
X143000Y696296D01*
X143000Y695500D01*
X143000D01*
Y689232D01*
X143000Y688440D01*
X142394Y686976D01*
X141273Y685856D01*
X139810Y685250D01*
X139017Y685250D01*
X139017D01*
X125031Y685250D01*
X124229D01*
X122748Y685864D01*
X121614Y686998D01*
X121000Y688480D01*
X121000Y689282D01*
X121000Y689282D01*
X121000Y695468D01*
X121000Y696270D01*
X121614Y697752D01*
X122748Y698886D01*
X124230Y699500D01*
X125032Y699500D01*
X125032Y699500D01*
X139000Y699500D01*
X139795Y699500D01*
X141265Y698891D01*
D02*
G37*
G36*
X1309035Y687514D02*
X1310488Y686061D01*
X1311274Y684163D01*
X1311274Y683136D01*
Y683136D01*
X1311274Y673474D01*
Y672445D01*
X1310486Y670543D01*
X1309031Y669088D01*
X1307129Y668300D01*
X1306100Y668300D01*
X1306100D01*
X1296200Y668300D01*
X1295200Y668300D01*
X1293351Y669066D01*
X1291936Y670481D01*
X1291170Y672329D01*
X1291170Y673330D01*
X1291170D01*
X1291075Y674299D01*
X1290332Y676091D01*
X1288961Y677462D01*
X1287170Y678204D01*
X1286200Y678300D01*
Y678300D01*
X1285202D01*
X1283356Y679064D01*
X1281944Y680476D01*
X1281180Y682321D01*
Y683320D01*
X1281180Y684311D01*
X1281938Y686141D01*
X1283339Y687542D01*
X1285170Y688299D01*
X1286160Y688299D01*
X1286160Y688299D01*
X1306110Y688300D01*
X1307137Y688300D01*
X1309035Y687514D01*
D02*
G37*
G36*
X1026285D02*
X1027738Y686061D01*
X1028524Y684163D01*
X1028524Y683136D01*
Y683136D01*
X1028524Y673474D01*
Y672445D01*
X1027736Y670543D01*
X1026281Y669088D01*
X1024379Y668300D01*
X1023350Y668300D01*
X1023350D01*
X1013450Y668300D01*
X1012449Y668300D01*
X1010601Y669066D01*
X1009186Y670481D01*
X1008420Y672329D01*
X1008420Y673330D01*
X1008420D01*
X1008325Y674299D01*
X1007582Y676091D01*
X1006211Y677462D01*
X1004420Y678204D01*
X1003450Y678300D01*
Y678300D01*
X1002451D01*
X1000606Y679064D01*
X999194Y680476D01*
X998430Y682321D01*
Y683320D01*
X998430Y684311D01*
X999188Y686141D01*
X1000589Y687542D01*
X1002419Y688299D01*
X1003410Y688299D01*
X1003410Y688299D01*
X1023360Y688300D01*
X1024387Y688300D01*
X1026285Y687514D01*
D02*
G37*
G36*
X743535D02*
X744988Y686061D01*
X745774Y684163D01*
X745774Y683136D01*
Y683136D01*
X745774Y673474D01*
Y672445D01*
X744986Y670543D01*
X743531Y669088D01*
X741629Y668300D01*
X740600Y668300D01*
X740600D01*
X730700Y668300D01*
X729699Y668300D01*
X727851Y669066D01*
X726436Y670481D01*
X725670Y672329D01*
X725670Y673330D01*
X725670D01*
X725574Y674299D01*
X724832Y676091D01*
X723461Y677462D01*
X721669Y678204D01*
X720700Y678300D01*
Y678300D01*
X719701D01*
X717856Y679064D01*
X716444Y680476D01*
X715680Y682321D01*
Y683320D01*
X715680Y684311D01*
X716438Y686141D01*
X717839Y687542D01*
X719669Y688299D01*
X720660Y688299D01*
X720660Y688299D01*
X740610Y688300D01*
X741637Y688300D01*
X743535Y687514D01*
D02*
G37*
G36*
X460785D02*
X462238Y686061D01*
X463024Y684163D01*
X463023Y683136D01*
Y683136D01*
X463023Y673474D01*
Y672445D01*
X462236Y670543D01*
X460780Y669088D01*
X458879Y668300D01*
X457850Y668300D01*
X457850D01*
X447950Y668300D01*
X446949Y668300D01*
X445101Y669066D01*
X443686Y670481D01*
X442920Y672329D01*
X442920Y673330D01*
X442920D01*
X442824Y674299D01*
X442082Y676091D01*
X440711Y677462D01*
X438919Y678204D01*
X437950Y678300D01*
Y678300D01*
X436951D01*
X435106Y679064D01*
X433694Y680476D01*
X432930Y682321D01*
Y683320D01*
X432930Y684311D01*
X433688Y686141D01*
X435089Y687542D01*
X436919Y688299D01*
X437910Y688299D01*
X437910Y688299D01*
X457860Y688300D01*
X458887Y688300D01*
X460785Y687514D01*
D02*
G37*
G36*
X178035D02*
X179488Y686061D01*
X180274Y684163D01*
X180273Y683136D01*
Y683136D01*
X180273Y673474D01*
Y672445D01*
X179486Y670543D01*
X178030Y669088D01*
X176129Y668300D01*
X175100Y668300D01*
X175100D01*
X165200Y668300D01*
X164199Y668300D01*
X162351Y669066D01*
X160935Y670481D01*
X160170Y672329D01*
X160170Y673330D01*
X160170D01*
X160074Y674299D01*
X159332Y676091D01*
X157961Y677462D01*
X156169Y678204D01*
X155200Y678300D01*
Y678300D01*
X154201D01*
X152356Y679064D01*
X150944Y680476D01*
X150180Y682321D01*
Y683320D01*
X150180Y684311D01*
X150938Y686141D01*
X152339Y687542D01*
X154169Y688299D01*
X155160Y688299D01*
X155160Y688299D01*
X175110Y688300D01*
X176137Y688300D01*
X178035Y687514D01*
D02*
G37*
G36*
X1261750Y593250D02*
X1262546Y593250D01*
X1264016Y592641D01*
X1265141Y591516D01*
X1265750Y590046D01*
X1265750Y589250D01*
Y589250D01*
X1265750Y582250D01*
X1265750Y581454D01*
X1265141Y579984D01*
X1264016Y578859D01*
X1262546Y578250D01*
X1261750Y578250D01*
X1261750D01*
X1255500Y578250D01*
X1254705D01*
X1253234Y578859D01*
X1252109Y579984D01*
X1251500Y581454D01*
X1251500Y582250D01*
X1251500Y582250D01*
X1251500Y589149D01*
X1251500Y589965D01*
X1252124Y591472D01*
X1253278Y592626D01*
X1254785Y593250D01*
X1255601Y593250D01*
X1255601Y593250D01*
X1261750Y593250D01*
D02*
G37*
G36*
X979000D02*
X979796Y593250D01*
X981266Y592641D01*
X982391Y591516D01*
X983000Y590046D01*
X983000Y589250D01*
Y589250D01*
X983000Y582250D01*
X983000Y581454D01*
X982391Y579984D01*
X981266Y578859D01*
X979796Y578250D01*
X979000Y578250D01*
X979000D01*
X972750Y578250D01*
X971954D01*
X970484Y578859D01*
X969359Y579984D01*
X968750Y581454D01*
X968750Y582250D01*
X968750Y582250D01*
X968750Y589149D01*
X968750Y589965D01*
X969374Y591472D01*
X970528Y592626D01*
X972035Y593250D01*
X972851Y593250D01*
X972850Y593250D01*
X979000Y593250D01*
D02*
G37*
G36*
X696250D02*
X697046Y593250D01*
X698516Y592641D01*
X699641Y591516D01*
X700250Y590046D01*
X700250Y589250D01*
Y589250D01*
X700250Y582250D01*
X700250Y581454D01*
X699641Y579984D01*
X698516Y578859D01*
X697046Y578250D01*
X696250Y578250D01*
X696250D01*
X690000Y578250D01*
X689204D01*
X687734Y578859D01*
X686609Y579984D01*
X686000Y581454D01*
X686000Y582250D01*
X686000Y582250D01*
X686000Y589149D01*
X686000Y589965D01*
X686624Y591472D01*
X687778Y592626D01*
X689285Y593250D01*
X690101Y593250D01*
X690100Y593250D01*
X696250Y593250D01*
D02*
G37*
G36*
X413500D02*
X414296Y593250D01*
X415766Y592641D01*
X416891Y591516D01*
X417500Y590046D01*
X417500Y589250D01*
Y589250D01*
X417500Y582250D01*
X417500Y581454D01*
X416891Y579984D01*
X415766Y578859D01*
X414295Y578250D01*
X413500Y578250D01*
X413500D01*
X407250Y578250D01*
X406454D01*
X404984Y578859D01*
X403859Y579984D01*
X403250Y581454D01*
X403250Y582250D01*
X403250Y582250D01*
X403250Y589149D01*
X403250Y589965D01*
X403874Y591472D01*
X405028Y592626D01*
X406535Y593250D01*
X407351Y593250D01*
X407350Y593250D01*
X413500Y593250D01*
D02*
G37*
G36*
X130750D02*
X131545Y593250D01*
X133016Y592641D01*
X134141Y591516D01*
X134750Y590046D01*
X134750Y589250D01*
Y589250D01*
X134750Y582250D01*
X134750Y581454D01*
X134141Y579984D01*
X133016Y578859D01*
X131545Y578250D01*
X130750Y578250D01*
X130750D01*
X124500Y578250D01*
X123704D01*
X122234Y578859D01*
X121109Y579984D01*
X120500Y581454D01*
X120500Y582250D01*
X120500Y582250D01*
X120500Y589149D01*
X120500Y589965D01*
X121124Y591472D01*
X122278Y592626D01*
X123785Y593250D01*
X124601Y593250D01*
X124600Y593250D01*
X130750Y593250D01*
D02*
G37*
G36*
X1272266Y303891D02*
X1273391Y302766D01*
X1274000Y301296D01*
X1274000Y300500D01*
X1274000D01*
Y294232D01*
X1274000Y293440D01*
X1273394Y291976D01*
X1272274Y290856D01*
X1270810Y290250D01*
X1270018Y290250D01*
X1270018D01*
X1256032Y290250D01*
X1255230D01*
X1253748Y290864D01*
X1252614Y291998D01*
X1252000Y293480D01*
X1252000Y294282D01*
X1252000Y294282D01*
X1252000Y300468D01*
X1252000Y301270D01*
X1252614Y302752D01*
X1253748Y303886D01*
X1255230Y304500D01*
X1256032Y304500D01*
X1256032Y304500D01*
X1270000Y304500D01*
X1270796Y304500D01*
X1272266Y303891D01*
D02*
G37*
G36*
X989516D02*
X990641Y302766D01*
X991250Y301296D01*
X991250Y300500D01*
X991250D01*
Y294232D01*
X991250Y293440D01*
X990644Y291976D01*
X989523Y290856D01*
X988060Y290250D01*
X987268Y290250D01*
X987268D01*
X973282Y290250D01*
X972480D01*
X970998Y290864D01*
X969864Y291998D01*
X969250Y293480D01*
X969250Y294282D01*
X969250Y294282D01*
X969250Y300468D01*
X969250Y301270D01*
X969864Y302752D01*
X970998Y303886D01*
X972480Y304500D01*
X973282Y304500D01*
X973282Y304500D01*
X987250Y304500D01*
X988046Y304500D01*
X989516Y303891D01*
D02*
G37*
G36*
X706766D02*
X707891Y302766D01*
X708500Y301296D01*
X708500Y300500D01*
X708500D01*
Y294232D01*
X708500Y293440D01*
X707894Y291976D01*
X706773Y290856D01*
X705310Y290250D01*
X704518Y290250D01*
X704518D01*
X690531Y290250D01*
X689730D01*
X688248Y290864D01*
X687114Y291998D01*
X686500Y293480D01*
X686500Y294282D01*
X686500Y294282D01*
X686500Y300468D01*
X686500Y301270D01*
X687114Y302752D01*
X688248Y303886D01*
X689730Y304500D01*
X690532Y304500D01*
X690532Y304500D01*
X704500Y304500D01*
X705295Y304500D01*
X706766Y303891D01*
D02*
G37*
G36*
X424016D02*
X425141Y302766D01*
X425750Y301296D01*
X425750Y300500D01*
X425750D01*
Y294232D01*
X425750Y293440D01*
X425144Y291976D01*
X424023Y290856D01*
X422560Y290250D01*
X421768Y290250D01*
X421768D01*
X407781Y290250D01*
X406979D01*
X405498Y290864D01*
X404364Y291998D01*
X403750Y293480D01*
X403750Y294282D01*
X403750Y294282D01*
X403750Y300468D01*
X403750Y301270D01*
X404364Y302752D01*
X405498Y303886D01*
X406980Y304500D01*
X407782Y304500D01*
X407782Y304500D01*
X421750Y304500D01*
X422546Y304500D01*
X424016Y303891D01*
D02*
G37*
G36*
X141265D02*
X142391Y302766D01*
X143000Y301296D01*
X143000Y300500D01*
X143000D01*
Y294232D01*
X143000Y293440D01*
X142394Y291976D01*
X141273Y290856D01*
X139810Y290250D01*
X139017Y290250D01*
X139017D01*
X125031Y290250D01*
X124229D01*
X122748Y290864D01*
X121614Y291998D01*
X121000Y293480D01*
X121000Y294282D01*
X121000Y294282D01*
X121000Y300468D01*
X121000Y301270D01*
X121614Y302752D01*
X122748Y303886D01*
X124230Y304500D01*
X125032Y304500D01*
X125032Y304500D01*
X139000Y304500D01*
X139795Y304500D01*
X141265Y303891D01*
D02*
G37*
G36*
X1309035Y292514D02*
X1310488Y291061D01*
X1311274Y289163D01*
X1311274Y288136D01*
Y288136D01*
X1311274Y278474D01*
Y277444D01*
X1310486Y275543D01*
X1309031Y274088D01*
X1307129Y273300D01*
X1306100Y273300D01*
X1306100D01*
X1296200Y273300D01*
X1295200Y273300D01*
X1293351Y274066D01*
X1291936Y275481D01*
X1291170Y277329D01*
X1291170Y278330D01*
X1291170D01*
X1291075Y279300D01*
X1290332Y281091D01*
X1288961Y282462D01*
X1287170Y283204D01*
X1286200Y283300D01*
Y283300D01*
X1285202D01*
X1283356Y284064D01*
X1281944Y285476D01*
X1281180Y287321D01*
Y288320D01*
X1281180Y289310D01*
X1281938Y291141D01*
X1283339Y292542D01*
X1285170Y293300D01*
X1286160Y293299D01*
X1286160Y293299D01*
X1306110Y293300D01*
X1307137Y293300D01*
X1309035Y292514D01*
D02*
G37*
G36*
X1026285D02*
X1027738Y291061D01*
X1028524Y289163D01*
X1028524Y288136D01*
Y288136D01*
X1028524Y278474D01*
Y277444D01*
X1027736Y275543D01*
X1026281Y274088D01*
X1024379Y273300D01*
X1023350Y273300D01*
X1023350D01*
X1013450Y273300D01*
X1012449Y273300D01*
X1010601Y274066D01*
X1009186Y275481D01*
X1008420Y277329D01*
X1008420Y278330D01*
X1008420D01*
X1008325Y279300D01*
X1007582Y281091D01*
X1006211Y282462D01*
X1004420Y283204D01*
X1003450Y283300D01*
Y283300D01*
X1002451D01*
X1000606Y284064D01*
X999194Y285476D01*
X998430Y287321D01*
Y288320D01*
X998430Y289310D01*
X999188Y291141D01*
X1000589Y292542D01*
X1002419Y293300D01*
X1003410Y293299D01*
X1003410Y293299D01*
X1023360Y293300D01*
X1024387Y293300D01*
X1026285Y292514D01*
D02*
G37*
G36*
X743535D02*
X744988Y291061D01*
X745774Y289163D01*
X745774Y288136D01*
Y288136D01*
X745774Y278474D01*
Y277444D01*
X744986Y275543D01*
X743531Y274088D01*
X741629Y273300D01*
X740600Y273300D01*
X740600D01*
X730700Y273300D01*
X729699Y273300D01*
X727851Y274066D01*
X726436Y275481D01*
X725670Y277329D01*
X725670Y278330D01*
X725670D01*
X725574Y279300D01*
X724832Y281091D01*
X723461Y282462D01*
X721669Y283204D01*
X720700Y283300D01*
Y283300D01*
X719701D01*
X717856Y284064D01*
X716444Y285476D01*
X715680Y287321D01*
Y288320D01*
X715680Y289310D01*
X716438Y291141D01*
X717839Y292542D01*
X719669Y293300D01*
X720660Y293299D01*
X720660Y293299D01*
X740610Y293300D01*
X741637Y293300D01*
X743535Y292514D01*
D02*
G37*
G36*
X460785D02*
X462238Y291061D01*
X463024Y289163D01*
X463023Y288136D01*
Y288136D01*
X463023Y278474D01*
Y277444D01*
X462236Y275543D01*
X460780Y274088D01*
X458879Y273300D01*
X457850Y273300D01*
X457850D01*
X447950Y273300D01*
X446949Y273300D01*
X445101Y274066D01*
X443686Y275481D01*
X442920Y277329D01*
X442920Y278330D01*
X442920D01*
X442824Y279300D01*
X442082Y281091D01*
X440711Y282462D01*
X438919Y283204D01*
X437950Y283300D01*
Y283300D01*
X436951D01*
X435106Y284064D01*
X433694Y285476D01*
X432930Y287321D01*
Y288320D01*
X432930Y289310D01*
X433688Y291141D01*
X435089Y292542D01*
X436919Y293300D01*
X437910Y293299D01*
X437910Y293299D01*
X457860Y293300D01*
X458887Y293300D01*
X460785Y292514D01*
D02*
G37*
G36*
X178035D02*
X179488Y291061D01*
X180274Y289163D01*
X180273Y288136D01*
Y288136D01*
X180273Y278474D01*
Y277444D01*
X179486Y275543D01*
X178030Y274088D01*
X176129Y273300D01*
X175100Y273300D01*
X175100D01*
X165200Y273300D01*
X164199Y273300D01*
X162351Y274066D01*
X160935Y275481D01*
X160170Y277329D01*
X160170Y278330D01*
X160170D01*
X160074Y279300D01*
X159332Y281091D01*
X157961Y282462D01*
X156169Y283204D01*
X155200Y283300D01*
Y283300D01*
X154201D01*
X152356Y284064D01*
X150944Y285476D01*
X150180Y287321D01*
Y288320D01*
X150180Y289310D01*
X150938Y291141D01*
X152339Y292542D01*
X154169Y293300D01*
X155160Y293299D01*
X155160Y293299D01*
X175110Y293300D01*
X176137Y293300D01*
X178035Y292514D01*
D02*
G37*
G36*
X1261750Y198250D02*
X1262546Y198250D01*
X1264016Y197641D01*
X1265141Y196516D01*
X1265750Y195046D01*
X1265750Y194250D01*
Y194250D01*
X1265750Y187250D01*
X1265750Y186454D01*
X1265141Y184984D01*
X1264016Y183859D01*
X1262546Y183250D01*
X1261750Y183250D01*
X1261750D01*
X1255500Y183250D01*
X1254705D01*
X1253234Y183859D01*
X1252109Y184984D01*
X1251500Y186454D01*
X1251500Y187250D01*
X1251500Y187250D01*
X1251500Y194149D01*
X1251500Y194965D01*
X1252124Y196472D01*
X1253278Y197626D01*
X1254785Y198250D01*
X1255601Y198249D01*
X1255601Y198250D01*
X1261750Y198250D01*
D02*
G37*
G36*
X979000D02*
X979796Y198250D01*
X981266Y197641D01*
X982391Y196516D01*
X983000Y195046D01*
X983000Y194250D01*
Y194250D01*
X983000Y187250D01*
X983000Y186454D01*
X982391Y184984D01*
X981266Y183859D01*
X979796Y183250D01*
X979000Y183250D01*
X979000D01*
X972750Y183250D01*
X971954D01*
X970484Y183859D01*
X969359Y184984D01*
X968750Y186454D01*
X968750Y187250D01*
X968750Y187250D01*
X968750Y194149D01*
X968750Y194965D01*
X969374Y196472D01*
X970528Y197626D01*
X972035Y198250D01*
X972851Y198249D01*
X972850Y198250D01*
X979000Y198250D01*
D02*
G37*
G36*
X696250D02*
X697046Y198250D01*
X698516Y197641D01*
X699641Y196516D01*
X700250Y195046D01*
X700250Y194250D01*
Y194250D01*
X700250Y187250D01*
X700250Y186454D01*
X699641Y184984D01*
X698516Y183859D01*
X697046Y183250D01*
X696250Y183250D01*
X696250D01*
X690000Y183250D01*
X689204D01*
X687734Y183859D01*
X686609Y184984D01*
X686000Y186454D01*
X686000Y187250D01*
X686000Y187250D01*
X686000Y194149D01*
X686000Y194965D01*
X686624Y196472D01*
X687778Y197626D01*
X689285Y198250D01*
X690101Y198249D01*
X690100Y198250D01*
X696250Y198250D01*
D02*
G37*
G36*
X413500D02*
X414296Y198250D01*
X415766Y197641D01*
X416891Y196516D01*
X417500Y195046D01*
X417500Y194250D01*
Y194250D01*
X417500Y187250D01*
X417500Y186454D01*
X416891Y184984D01*
X415766Y183859D01*
X414295Y183250D01*
X413500Y183250D01*
X413500D01*
X407250Y183250D01*
X406454D01*
X404984Y183859D01*
X403859Y184984D01*
X403250Y186454D01*
X403250Y187250D01*
X403250Y187250D01*
X403250Y194149D01*
X403250Y194965D01*
X403874Y196472D01*
X405028Y197626D01*
X406535Y198250D01*
X407351Y198249D01*
X407350Y198250D01*
X413500Y198250D01*
D02*
G37*
G36*
X130750D02*
X131545Y198250D01*
X133016Y197641D01*
X134141Y196516D01*
X134750Y195046D01*
X134750Y194250D01*
Y194250D01*
X134750Y187250D01*
X134750Y186454D01*
X134141Y184984D01*
X133016Y183859D01*
X131545Y183250D01*
X130750Y183250D01*
X130750D01*
X124500Y183250D01*
X123704D01*
X122234Y183859D01*
X121109Y184984D01*
X120500Y186454D01*
X120500Y187250D01*
X120500Y187250D01*
X120500Y194149D01*
X120500Y194965D01*
X121124Y196472D01*
X122278Y197626D01*
X123785Y198250D01*
X124601Y198249D01*
X124600Y198250D01*
X130750Y198250D01*
D02*
G37*
G36*
X212374Y23333D02*
X212059Y23305D01*
X211763Y23259D01*
X211486Y23194D01*
X211227Y23120D01*
X210987Y23037D01*
X210774Y22954D01*
X210571Y22871D01*
X210395Y22778D01*
X210238Y22695D01*
X210108Y22612D01*
X209997Y22538D01*
X209914Y22482D01*
X209849Y22427D01*
X209813Y22399D01*
X209803Y22390D01*
X209609Y22205D01*
X209443Y22002D01*
X209286Y21789D01*
X209156Y21567D01*
X209036Y21336D01*
X208934Y21105D01*
X208851Y20883D01*
X208777Y20661D01*
X208722Y20457D01*
X208675Y20263D01*
X208638Y20088D01*
X208611Y19940D01*
X208583Y19820D01*
X208574Y19727D01*
Y19690D01*
X208564Y19662D01*
Y19653D01*
Y19644D01*
X210182Y19477D01*
X210192Y19699D01*
X210210Y19903D01*
X210247Y20097D01*
X210284Y20282D01*
X210340Y20448D01*
X210395Y20596D01*
X210460Y20744D01*
X210524Y20864D01*
X210580Y20975D01*
X210645Y21077D01*
X210700Y21160D01*
X210756Y21234D01*
X210793Y21280D01*
X210830Y21327D01*
X210848Y21345D01*
X210857Y21354D01*
X210987Y21475D01*
X211135Y21576D01*
X211283Y21669D01*
X211430Y21752D01*
X211588Y21817D01*
X211736Y21872D01*
X211884Y21918D01*
X212022Y21955D01*
X212161Y21983D01*
X212281Y22002D01*
X212392Y22020D01*
X212494Y22029D01*
X212568Y22039D01*
X212679D01*
X212873Y22029D01*
X213058Y22011D01*
X213233Y21983D01*
X213400Y21937D01*
X213548Y21891D01*
X213696Y21835D01*
X213825Y21780D01*
X213945Y21715D01*
X214047Y21660D01*
X214139Y21595D01*
X214223Y21539D01*
X214287Y21493D01*
X214343Y21447D01*
X214380Y21419D01*
X214398Y21401D01*
X214408Y21391D01*
X214528Y21271D01*
X214629Y21142D01*
X214722Y21012D01*
X214796Y20874D01*
X214861Y20744D01*
X214916Y20615D01*
X214962Y20485D01*
X214999Y20365D01*
X215027Y20254D01*
X215046Y20152D01*
X215064Y20060D01*
X215073Y19977D01*
X215082Y19912D01*
Y19866D01*
Y19829D01*
Y19820D01*
X215073Y19653D01*
X215055Y19487D01*
X215018Y19320D01*
X214972Y19154D01*
X214851Y18830D01*
X214777Y18682D01*
X214713Y18544D01*
X214648Y18414D01*
X214574Y18294D01*
X214519Y18192D01*
X214463Y18100D01*
X214408Y18035D01*
X214371Y17980D01*
X214352Y17943D01*
X214343Y17933D01*
X214195Y17739D01*
X214010Y17527D01*
X213816Y17314D01*
X213594Y17092D01*
X213372Y16861D01*
X213132Y16639D01*
X212901Y16417D01*
X212660Y16205D01*
X212438Y16001D01*
X212226Y15816D01*
X212041Y15641D01*
X211865Y15502D01*
X211726Y15382D01*
X211671Y15336D01*
X211625Y15289D01*
X211588Y15261D01*
X211560Y15234D01*
X211541Y15224D01*
X211532Y15215D01*
X211292Y15012D01*
X211061Y14818D01*
X210848Y14633D01*
X210645Y14457D01*
X210460Y14282D01*
X210293Y14124D01*
X210145Y13976D01*
X210007Y13838D01*
X209877Y13717D01*
X209776Y13607D01*
X209683Y13514D01*
X209609Y13431D01*
X209554Y13366D01*
X209517Y13320D01*
X209489Y13292D01*
X209480Y13283D01*
X209230Y12969D01*
X209017Y12664D01*
X208842Y12377D01*
X208759Y12247D01*
X208694Y12118D01*
X208638Y12007D01*
X208583Y11905D01*
X208537Y11813D01*
X208509Y11730D01*
X208481Y11665D01*
X208463Y11619D01*
X208444Y11591D01*
Y11582D01*
X208379Y11388D01*
X208333Y11193D01*
X208305Y11008D01*
X208287Y10851D01*
X208278Y10703D01*
X208269Y10648D01*
Y23342D01*
X212706D01*
X212374Y23333D01*
D02*
G37*
G36*
X216719Y23342D02*
D01*
Y10500D01*
X208269D01*
D01*
X216719D01*
Y18035D01*
Y12007D01*
X210450D01*
X210552Y12164D01*
X210663Y12321D01*
X210774Y12460D01*
X210876Y12589D01*
X210968Y12691D01*
X211042Y12774D01*
X211088Y12830D01*
X211107Y12848D01*
X211190Y12941D01*
X211301Y13043D01*
X211421Y13154D01*
X211560Y13283D01*
X211708Y13412D01*
X211856Y13551D01*
X212170Y13819D01*
X212318Y13949D01*
X212457Y14069D01*
X212577Y14180D01*
X212697Y14272D01*
X212790Y14355D01*
X212854Y14411D01*
X212901Y14457D01*
X212919Y14466D01*
X213224Y14725D01*
X213511Y14975D01*
X213770Y15206D01*
X214010Y15419D01*
X214232Y15622D01*
X214426Y15807D01*
X214611Y15973D01*
X214768Y16121D01*
X214907Y16260D01*
X215018Y16380D01*
X215119Y16482D01*
X215203Y16565D01*
X215267Y16630D01*
X215304Y16676D01*
X215332Y16704D01*
X215341Y16713D01*
X215471Y16870D01*
X215600Y17018D01*
X215711Y17166D01*
X215813Y17305D01*
X215998Y17573D01*
X216072Y17693D01*
X216136Y17804D01*
X216201Y17906D01*
X216247Y17998D01*
X216294Y18081D01*
X216321Y18146D01*
X216349Y18202D01*
X216368Y18239D01*
X216386Y18266D01*
Y18276D01*
X216488Y18553D01*
X216571Y18821D01*
X216626Y19080D01*
X216663Y19311D01*
X216673Y19413D01*
X216682Y19505D01*
X216691Y19579D01*
X216700Y19653D01*
Y19709D01*
Y19746D01*
Y19773D01*
Y19783D01*
X216691Y20060D01*
X216654Y20328D01*
X216599Y20578D01*
X216534Y20818D01*
X216451Y21040D01*
X216358Y21253D01*
X216257Y21447D01*
X216164Y21623D01*
X216063Y21780D01*
X215961Y21918D01*
X215868Y22039D01*
X215785Y22131D01*
X215720Y22214D01*
X215665Y22270D01*
X215628Y22307D01*
X215619Y22316D01*
X215406Y22501D01*
X215184Y22658D01*
X214953Y22787D01*
X214713Y22908D01*
X214472Y23009D01*
X214223Y23093D01*
X213992Y23157D01*
X213760Y23213D01*
X213548Y23259D01*
X213344Y23287D01*
X213169Y23314D01*
X213011Y23324D01*
X212882Y23333D01*
X212790Y23342D01*
X216719D01*
D01*
D02*
G37*
D52*
X1510000Y0D02*
Y2475000D01*
X0D02*
X1510000D01*
X0Y0D02*
Y2475000D01*
Y0D02*
X1510000D01*
D53*
X188125Y16875D02*
D03*
D54*
X204891D02*
D03*
D03*
D55*
X211875Y25402D02*
D03*
D03*
D56*
X219616Y16875D02*
D03*
D03*
D57*
X211875Y8385D02*
D03*
D03*
D58*
Y4375D02*
D03*
D03*
D59*
X224375Y16875D02*
D03*
D60*
X211875Y29375D02*
D03*
D61*
X199375Y16875D02*
D03*
D62*
X1230500Y192500D02*
G03*
X1410500Y192500I90000J0D01*
G01*
X1396500Y339362D02*
G03*
X1391500Y334362I0J-5000D01*
G01*
Y334362D02*
G03*
X1396500Y329362I5000J0D01*
G01*
Y291962D02*
G03*
X1391500Y286962I0J-5000D01*
G01*
D02*
G03*
X1396500Y281962I5000J0D01*
G01*
X1410500Y192500D02*
Y250662D01*
X1230500Y192500D02*
X1230500D01*
X1230500Y447500D01*
X1410500D02*
X1230500D01*
X1410500Y339362D02*
Y447500D01*
X1396500Y339362D02*
X1410500Y339362D01*
X1391500Y334362D02*
Y334362D01*
X1396500Y329362D02*
Y329362D01*
X1410500Y329362D02*
X1396500D01*
X1410500Y291962D02*
Y329362D01*
Y291962D02*
X1396500D01*
Y291962D02*
Y291962D01*
X1410500Y281962D02*
X1396500D01*
X1410500Y250662D02*
Y281962D01*
X1230500Y587500D02*
G03*
X1410500Y587500I90000J0D01*
G01*
X1396500Y734362D02*
G03*
X1391500Y729362I0J-5000D01*
G01*
Y729362D02*
G03*
X1396500Y724362I5000J0D01*
G01*
Y686962D02*
G03*
X1391500Y681962I0J-5000D01*
G01*
D02*
G03*
X1396500Y676962I5000J0D01*
G01*
X1410500Y587500D02*
Y645662D01*
X1230500Y587500D02*
X1230500D01*
X1230500Y842500D01*
X1410500D02*
X1230500D01*
X1410500Y734362D02*
Y842500D01*
X1396500Y734362D02*
X1410500Y734362D01*
X1391500Y729362D02*
Y729362D01*
X1396500Y724362D02*
Y724362D01*
X1410500Y724362D02*
X1396500D01*
X1410500Y686962D02*
Y724362D01*
Y686962D02*
X1396500D01*
Y686962D02*
Y686962D01*
X1410500Y676962D02*
X1396500D01*
X1410500Y645662D02*
Y676962D01*
X1230500Y982500D02*
G03*
X1410500Y982500I90000J0D01*
G01*
X1396500Y1129362D02*
G03*
X1391500Y1124362I0J-5000D01*
G01*
Y1124362D02*
G03*
X1396500Y1119362I5000J0D01*
G01*
Y1081962D02*
G03*
X1391500Y1076962I0J-5000D01*
G01*
D02*
G03*
X1396500Y1071962I5000J0D01*
G01*
X1410500Y982500D02*
Y1040662D01*
X1230500Y982500D02*
X1230500D01*
X1230500Y1237500D01*
X1410500D02*
X1230500D01*
X1410500Y1129362D02*
Y1237500D01*
X1396500Y1129362D02*
X1410500Y1129362D01*
X1391500Y1124362D02*
Y1124362D01*
X1396500Y1119362D02*
Y1119362D01*
X1410500Y1119362D02*
X1396500D01*
X1410500Y1081962D02*
Y1119362D01*
Y1081962D02*
X1396500D01*
Y1081962D02*
Y1081962D01*
X1410500Y1071962D02*
X1396500D01*
X1410500Y1040662D02*
Y1071962D01*
X947750Y192500D02*
G03*
X1127750Y192500I90000J0D01*
G01*
X1113750Y339362D02*
G03*
X1108750Y334362I0J-5000D01*
G01*
Y334362D02*
G03*
X1113750Y329362I5000J0D01*
G01*
Y291962D02*
G03*
X1108750Y286962I0J-5000D01*
G01*
D02*
G03*
X1113750Y281962I5000J0D01*
G01*
X1127750Y192500D02*
Y250662D01*
X947750Y192500D02*
X947750D01*
X947750Y447500D01*
X1127750D02*
X947750D01*
X1127750Y339362D02*
Y447500D01*
X1113750Y339362D02*
X1127750Y339362D01*
X1108750Y334362D02*
Y334362D01*
X1113750Y329362D02*
Y329362D01*
X1127750Y329362D02*
X1113750D01*
X1127750Y291962D02*
Y329362D01*
Y291962D02*
X1113750D01*
Y291962D02*
Y291962D01*
X1127750Y281962D02*
X1113750D01*
X1127750Y250662D02*
Y281962D01*
X947750Y587500D02*
G03*
X1127750Y587500I90000J0D01*
G01*
X1113750Y734362D02*
G03*
X1108750Y729362I0J-5000D01*
G01*
Y729362D02*
G03*
X1113750Y724362I5000J0D01*
G01*
Y686962D02*
G03*
X1108750Y681962I0J-5000D01*
G01*
D02*
G03*
X1113750Y676962I5000J0D01*
G01*
X1127750Y587500D02*
Y645662D01*
X947750Y587500D02*
X947750D01*
X947750Y842500D01*
X1127750D02*
X947750D01*
X1127750Y734362D02*
Y842500D01*
X1113750Y734362D02*
X1127750Y734362D01*
X1108750Y729362D02*
Y729362D01*
X1113750Y724362D02*
Y724362D01*
X1127750Y724362D02*
X1113750D01*
X1127750Y686962D02*
Y724362D01*
Y686962D02*
X1113750D01*
Y686962D02*
Y686962D01*
X1127750Y676962D02*
X1113750D01*
X1127750Y645662D02*
Y676962D01*
X947750Y982500D02*
G03*
X1127750Y982500I90000J0D01*
G01*
X1113750Y1129362D02*
G03*
X1108750Y1124362I0J-5000D01*
G01*
Y1124362D02*
G03*
X1113750Y1119362I5000J0D01*
G01*
Y1081962D02*
G03*
X1108750Y1076962I0J-5000D01*
G01*
D02*
G03*
X1113750Y1071962I5000J0D01*
G01*
X1127750Y982500D02*
Y1040662D01*
X947750Y982500D02*
X947750D01*
X947750Y1237500D01*
X1127750D02*
X947750D01*
X1127750Y1129362D02*
Y1237500D01*
X1113750Y1129362D02*
X1127750Y1129362D01*
X1108750Y1124362D02*
Y1124362D01*
X1113750Y1119362D02*
Y1119362D01*
X1127750Y1119362D02*
X1113750D01*
X1127750Y1081962D02*
Y1119362D01*
Y1081962D02*
X1113750D01*
Y1081962D02*
Y1081962D01*
X1127750Y1071962D02*
X1113750D01*
X1127750Y1040662D02*
Y1071962D01*
X665000Y192500D02*
G03*
X845000Y192500I90000J0D01*
G01*
X831000Y339362D02*
G03*
X826000Y334362I0J-5000D01*
G01*
Y334362D02*
G03*
X831000Y329362I5000J0D01*
G01*
Y291962D02*
G03*
X826000Y286962I0J-5000D01*
G01*
D02*
G03*
X831000Y281962I5000J0D01*
G01*
X845000Y192500D02*
Y250662D01*
X665000Y192500D02*
X665000D01*
X665000Y447500D01*
X845000D02*
X665000D01*
X845000Y339362D02*
Y447500D01*
X831000Y339362D02*
X845000Y339362D01*
X826000Y334362D02*
Y334362D01*
X831000Y329362D02*
Y329362D01*
X845000Y329362D02*
X831000D01*
X845000Y291962D02*
Y329362D01*
Y291962D02*
X831000D01*
Y291962D02*
Y291962D01*
X845000Y281962D02*
X831000D01*
X845000Y250662D02*
Y281962D01*
X665000Y587500D02*
G03*
X845000Y587500I90000J0D01*
G01*
X831000Y734362D02*
G03*
X826000Y729362I0J-5000D01*
G01*
Y729362D02*
G03*
X831000Y724362I5000J0D01*
G01*
Y686962D02*
G03*
X826000Y681962I0J-5000D01*
G01*
D02*
G03*
X831000Y676962I5000J0D01*
G01*
X845000Y587500D02*
Y645662D01*
X665000Y587500D02*
X665000D01*
X665000Y842500D01*
X845000D02*
X665000D01*
X845000Y734362D02*
Y842500D01*
X831000Y734362D02*
X845000Y734362D01*
X826000Y729362D02*
Y729362D01*
X831000Y724362D02*
Y724362D01*
X845000Y724362D02*
X831000D01*
X845000Y686962D02*
Y724362D01*
Y686962D02*
X831000D01*
Y686962D02*
Y686962D01*
X845000Y676962D02*
X831000D01*
X845000Y645662D02*
Y676962D01*
X665000Y982500D02*
G03*
X845000Y982500I90000J0D01*
G01*
X831000Y1129362D02*
G03*
X826000Y1124362I0J-5000D01*
G01*
Y1124362D02*
G03*
X831000Y1119362I5000J0D01*
G01*
Y1081962D02*
G03*
X826000Y1076962I0J-5000D01*
G01*
D02*
G03*
X831000Y1071962I5000J0D01*
G01*
X845000Y982500D02*
Y1040662D01*
X665000Y982500D02*
X665000D01*
X665000Y1237500D01*
X845000D02*
X665000D01*
X845000Y1129362D02*
Y1237500D01*
X831000Y1129362D02*
X845000Y1129362D01*
X826000Y1124362D02*
Y1124362D01*
X831000Y1119362D02*
Y1119362D01*
X845000Y1119362D02*
X831000D01*
X845000Y1081962D02*
Y1119362D01*
Y1081962D02*
X831000D01*
Y1081962D02*
Y1081962D01*
X845000Y1071962D02*
X831000D01*
X845000Y1040662D02*
Y1071962D01*
X382250Y192500D02*
G03*
X562250Y192500I90000J0D01*
G01*
X548250Y339362D02*
G03*
X543250Y334362I0J-5000D01*
G01*
Y334362D02*
G03*
X548250Y329362I5000J0D01*
G01*
Y291962D02*
G03*
X543250Y286962I0J-5000D01*
G01*
D02*
G03*
X548250Y281962I5000J0D01*
G01*
X562250Y192500D02*
Y250662D01*
X382250Y192500D02*
X382250D01*
X382250Y447500D01*
X562250D02*
X382250D01*
X562250Y339362D02*
Y447500D01*
X548250Y339362D02*
X562250Y339362D01*
X543250Y334362D02*
Y334362D01*
X548250Y329362D02*
Y329362D01*
X562250Y329362D02*
X548250D01*
X562250Y291962D02*
Y329362D01*
Y291962D02*
X548250D01*
Y291962D02*
Y291962D01*
X562250Y281962D02*
X548250D01*
X562250Y250662D02*
Y281962D01*
X382250Y587500D02*
G03*
X562250Y587500I90000J0D01*
G01*
X548250Y734362D02*
G03*
X543250Y729362I0J-5000D01*
G01*
Y729362D02*
G03*
X548250Y724362I5000J0D01*
G01*
Y686962D02*
G03*
X543250Y681962I0J-5000D01*
G01*
D02*
G03*
X548250Y676962I5000J0D01*
G01*
X562250Y587500D02*
Y645662D01*
X382250Y587500D02*
X382250D01*
X382250Y842500D01*
X562250D02*
X382250D01*
X562250Y734362D02*
Y842500D01*
X548250Y734362D02*
X562250Y734362D01*
X543250Y729362D02*
Y729362D01*
X548250Y724362D02*
Y724362D01*
X562250Y724362D02*
X548250D01*
X562250Y686962D02*
Y724362D01*
Y686962D02*
X548250D01*
Y686962D02*
Y686962D01*
X562250Y676962D02*
X548250D01*
X562250Y645662D02*
Y676962D01*
X382250Y982500D02*
G03*
X562250Y982500I90000J0D01*
G01*
X548250Y1129362D02*
G03*
X543250Y1124362I0J-5000D01*
G01*
Y1124362D02*
G03*
X548250Y1119362I5000J0D01*
G01*
Y1081962D02*
G03*
X543250Y1076962I0J-5000D01*
G01*
D02*
G03*
X548250Y1071962I5000J0D01*
G01*
X562250Y982500D02*
Y1040662D01*
X382250Y982500D02*
X382250D01*
X382250Y1237500D01*
X562250D02*
X382250D01*
X562250Y1129362D02*
Y1237500D01*
X548250Y1129362D02*
X562250Y1129362D01*
X543250Y1124362D02*
Y1124362D01*
X548250Y1119362D02*
Y1119362D01*
X562250Y1119362D02*
X548250D01*
X562250Y1081962D02*
Y1119362D01*
Y1081962D02*
X548250D01*
Y1081962D02*
Y1081962D01*
X562250Y1071962D02*
X548250D01*
X562250Y1040662D02*
Y1071962D01*
X99500Y192500D02*
G03*
X279500Y192500I90000J0D01*
G01*
X265500Y339362D02*
G03*
X260500Y334362I0J-5000D01*
G01*
Y334362D02*
G03*
X265500Y329362I5000J0D01*
G01*
Y291962D02*
G03*
X260500Y286962I0J-5000D01*
G01*
D02*
G03*
X265500Y281962I5000J0D01*
G01*
X279500Y192500D02*
Y250662D01*
X99500Y192500D02*
X99500D01*
X99500Y447500D01*
X279500D02*
X99500D01*
X279500Y339362D02*
Y447500D01*
X265500Y339362D02*
X279500Y339362D01*
X260500Y334362D02*
Y334362D01*
X265500Y329362D02*
Y329362D01*
X279500Y329362D02*
X265500D01*
X279500Y291962D02*
Y329362D01*
Y291962D02*
X265500D01*
Y291962D02*
Y291962D01*
X279500Y281962D02*
X265500D01*
X279500Y250662D02*
Y281962D01*
X99500Y587500D02*
G03*
X279500Y587500I90000J0D01*
G01*
X265500Y734362D02*
G03*
X260500Y729362I0J-5000D01*
G01*
Y729362D02*
G03*
X265500Y724362I5000J0D01*
G01*
Y686962D02*
G03*
X260500Y681962I0J-5000D01*
G01*
D02*
G03*
X265500Y676962I5000J0D01*
G01*
X279500Y587500D02*
Y645662D01*
X99500Y587500D02*
X99500D01*
X99500Y842500D01*
X279500D02*
X99500D01*
X279500Y734362D02*
Y842500D01*
X265500Y734362D02*
X279500Y734362D01*
X260500Y729362D02*
Y729362D01*
X265500Y724362D02*
Y724362D01*
X279500Y724362D02*
X265500D01*
X279500Y686962D02*
Y724362D01*
Y686962D02*
X265500D01*
Y686962D02*
Y686962D01*
X279500Y676962D02*
X265500D01*
X279500Y645662D02*
Y676962D01*
X99500Y982500D02*
G03*
X279500Y982500I90000J0D01*
G01*
X265500Y1129362D02*
G03*
X260500Y1124362I0J-5000D01*
G01*
Y1124362D02*
G03*
X265500Y1119362I5000J0D01*
G01*
Y1081962D02*
G03*
X260500Y1076962I0J-5000D01*
G01*
D02*
G03*
X265500Y1071962I5000J0D01*
G01*
X279500Y982500D02*
Y1040662D01*
X99500Y982500D02*
X99500D01*
X99500Y1237500D01*
X279500D02*
X99500D01*
X279500Y1129362D02*
Y1237500D01*
X265500Y1129362D02*
X279500Y1129362D01*
X260500Y1124362D02*
Y1124362D01*
X265500Y1119362D02*
Y1119362D01*
X279500Y1119362D02*
X265500D01*
X279500Y1081962D02*
Y1119362D01*
Y1081962D02*
X265500D01*
Y1081962D02*
Y1081962D01*
X279500Y1071962D02*
X265500D01*
X279500Y1040662D02*
Y1071962D01*
X279500Y2282500D02*
G03*
X99500Y2282500I-90000J0D01*
G01*
X113500Y2135638D02*
G03*
X118500Y2140638I0J5000D01*
G01*
Y2140638D02*
G03*
X113500Y2145638I-5000J0D01*
G01*
Y2183038D02*
G03*
X118500Y2188038I0J5000D01*
G01*
D02*
G03*
X113500Y2193038I-5000J0D01*
G01*
X99500Y2282500D02*
Y2224338D01*
X279500Y2282500D02*
X279500D01*
X279500Y2027500D01*
X99500D02*
X279500D01*
X99500Y2135638D02*
Y2027500D01*
X113500Y2135638D02*
X99500Y2135638D01*
X118500Y2140638D02*
Y2140638D01*
X113500Y2145638D02*
Y2145638D01*
X99500Y2145638D02*
X113500D01*
X99500Y2183038D02*
Y2145638D01*
Y2183038D02*
X113500D01*
Y2183038D02*
Y2183038D01*
X99500Y2193038D02*
X113500D01*
X99500Y2224338D02*
Y2193038D01*
X279500Y1887500D02*
G03*
X99500Y1887500I-90000J0D01*
G01*
X113500Y1740638D02*
G03*
X118500Y1745638I0J5000D01*
G01*
Y1745638D02*
G03*
X113500Y1750638I-5000J0D01*
G01*
Y1788038D02*
G03*
X118500Y1793038I0J5000D01*
G01*
D02*
G03*
X113500Y1798038I-5000J0D01*
G01*
X99500Y1887500D02*
Y1829338D01*
X279500Y1887500D02*
X279500D01*
X279500Y1632500D01*
X99500D02*
X279500D01*
X99500Y1740638D02*
Y1632500D01*
X113500Y1740638D02*
X99500Y1740638D01*
X118500Y1745638D02*
Y1745638D01*
X113500Y1750638D02*
Y1750638D01*
X99500Y1750638D02*
X113500D01*
X99500Y1788038D02*
Y1750638D01*
Y1788038D02*
X113500D01*
Y1788038D02*
Y1788038D01*
X99500Y1798038D02*
X113500D01*
X99500Y1829338D02*
Y1798038D01*
X279500Y1492500D02*
G03*
X99500Y1492500I-90000J0D01*
G01*
X113500Y1345638D02*
G03*
X118500Y1350638I0J5000D01*
G01*
Y1350638D02*
G03*
X113500Y1355638I-5000J0D01*
G01*
Y1393038D02*
G03*
X118500Y1398038I0J5000D01*
G01*
D02*
G03*
X113500Y1403038I-5000J0D01*
G01*
X99500Y1492500D02*
Y1434338D01*
X279500Y1492500D02*
X279500D01*
X279500Y1237500D01*
X99500D02*
X279500D01*
X99500Y1345638D02*
Y1237500D01*
X113500Y1345638D02*
X99500Y1345638D01*
X118500Y1350638D02*
Y1350638D01*
X113500Y1355638D02*
Y1355638D01*
X99500Y1355638D02*
X113500D01*
X99500Y1393038D02*
Y1355638D01*
Y1393038D02*
X113500D01*
Y1393038D02*
Y1393038D01*
X99500Y1403038D02*
X113500D01*
X99500Y1434338D02*
Y1403038D01*
X562250Y2282500D02*
G03*
X382250Y2282500I-90000J0D01*
G01*
X396250Y2135638D02*
G03*
X401250Y2140638I0J5000D01*
G01*
Y2140638D02*
G03*
X396250Y2145638I-5000J0D01*
G01*
Y2183038D02*
G03*
X401250Y2188038I0J5000D01*
G01*
D02*
G03*
X396250Y2193038I-5000J0D01*
G01*
X382250Y2282500D02*
Y2224338D01*
X562250Y2282500D02*
X562250D01*
X562250Y2027500D01*
X382250D02*
X562250D01*
X382250Y2135638D02*
Y2027500D01*
X396250Y2135638D02*
X382250Y2135638D01*
X401250Y2140638D02*
Y2140638D01*
X396250Y2145638D02*
Y2145638D01*
X382250Y2145638D02*
X396250D01*
X382250Y2183038D02*
Y2145638D01*
Y2183038D02*
X396250D01*
Y2183038D02*
Y2183038D01*
X382250Y2193038D02*
X396250D01*
X382250Y2224338D02*
Y2193038D01*
X562250Y1887500D02*
G03*
X382250Y1887500I-90000J0D01*
G01*
X396250Y1740638D02*
G03*
X401250Y1745638I0J5000D01*
G01*
Y1745638D02*
G03*
X396250Y1750638I-5000J0D01*
G01*
Y1788038D02*
G03*
X401250Y1793038I0J5000D01*
G01*
D02*
G03*
X396250Y1798038I-5000J0D01*
G01*
X382250Y1887500D02*
Y1829338D01*
X562250Y1887500D02*
X562250D01*
X562250Y1632500D01*
X382250D02*
X562250D01*
X382250Y1740638D02*
Y1632500D01*
X396250Y1740638D02*
X382250Y1740638D01*
X401250Y1745638D02*
Y1745638D01*
X396250Y1750638D02*
Y1750638D01*
X382250Y1750638D02*
X396250D01*
X382250Y1788038D02*
Y1750638D01*
Y1788038D02*
X396250D01*
Y1788038D02*
Y1788038D01*
X382250Y1798038D02*
X396250D01*
X382250Y1829338D02*
Y1798038D01*
X562250Y1492500D02*
G03*
X382250Y1492500I-90000J0D01*
G01*
X396250Y1345638D02*
G03*
X401250Y1350638I0J5000D01*
G01*
Y1350638D02*
G03*
X396250Y1355638I-5000J0D01*
G01*
Y1393038D02*
G03*
X401250Y1398038I0J5000D01*
G01*
D02*
G03*
X396250Y1403038I-5000J0D01*
G01*
X382250Y1492500D02*
Y1434338D01*
X562250Y1492500D02*
X562250D01*
X562250Y1237500D01*
X382250D02*
X562250D01*
X382250Y1345638D02*
Y1237500D01*
X396250Y1345638D02*
X382250Y1345638D01*
X401250Y1350638D02*
Y1350638D01*
X396250Y1355638D02*
Y1355638D01*
X382250Y1355638D02*
X396250D01*
X382250Y1393038D02*
Y1355638D01*
Y1393038D02*
X396250D01*
Y1393038D02*
Y1393038D01*
X382250Y1403038D02*
X396250D01*
X382250Y1434338D02*
Y1403038D01*
X845000Y2282500D02*
G03*
X665000Y2282500I-90000J0D01*
G01*
X679000Y2135638D02*
G03*
X684000Y2140638I0J5000D01*
G01*
Y2140638D02*
G03*
X679000Y2145638I-5000J0D01*
G01*
Y2183038D02*
G03*
X684000Y2188038I0J5000D01*
G01*
D02*
G03*
X679000Y2193038I-5000J0D01*
G01*
X665000Y2282500D02*
Y2224338D01*
X845000Y2282500D02*
X845000D01*
X845000Y2027500D01*
X665000D02*
X845000D01*
X665000Y2135638D02*
Y2027500D01*
X679000Y2135638D02*
X665000Y2135638D01*
X684000Y2140638D02*
Y2140638D01*
X679000Y2145638D02*
Y2145638D01*
X665000Y2145638D02*
X679000D01*
X665000Y2183038D02*
Y2145638D01*
Y2183038D02*
X679000D01*
Y2183038D02*
Y2183038D01*
X665000Y2193038D02*
X679000D01*
X665000Y2224338D02*
Y2193038D01*
X845000Y1887500D02*
G03*
X665000Y1887500I-90000J0D01*
G01*
X679000Y1740638D02*
G03*
X684000Y1745638I0J5000D01*
G01*
Y1745638D02*
G03*
X679000Y1750638I-5000J0D01*
G01*
Y1788038D02*
G03*
X684000Y1793038I0J5000D01*
G01*
D02*
G03*
X679000Y1798038I-5000J0D01*
G01*
X665000Y1887500D02*
Y1829338D01*
X845000Y1887500D02*
X845000D01*
X845000Y1632500D01*
X665000D02*
X845000D01*
X665000Y1740638D02*
Y1632500D01*
X679000Y1740638D02*
X665000Y1740638D01*
X684000Y1745638D02*
Y1745638D01*
X679000Y1750638D02*
Y1750638D01*
X665000Y1750638D02*
X679000D01*
X665000Y1788038D02*
Y1750638D01*
Y1788038D02*
X679000D01*
Y1788038D02*
Y1788038D01*
X665000Y1798038D02*
X679000D01*
X665000Y1829338D02*
Y1798038D01*
X845000Y1492500D02*
G03*
X665000Y1492500I-90000J0D01*
G01*
X679000Y1345638D02*
G03*
X684000Y1350638I0J5000D01*
G01*
Y1350638D02*
G03*
X679000Y1355638I-5000J0D01*
G01*
Y1393038D02*
G03*
X684000Y1398038I0J5000D01*
G01*
D02*
G03*
X679000Y1403038I-5000J0D01*
G01*
X665000Y1492500D02*
Y1434338D01*
X845000Y1492500D02*
X845000D01*
X845000Y1237500D01*
X665000D02*
X845000D01*
X665000Y1345638D02*
Y1237500D01*
X679000Y1345638D02*
X665000Y1345638D01*
X684000Y1350638D02*
Y1350638D01*
X679000Y1355638D02*
Y1355638D01*
X665000Y1355638D02*
X679000D01*
X665000Y1393038D02*
Y1355638D01*
Y1393038D02*
X679000D01*
Y1393038D02*
Y1393038D01*
X665000Y1403038D02*
X679000D01*
X665000Y1434338D02*
Y1403038D01*
X1127750Y2282500D02*
G03*
X947750Y2282500I-90000J0D01*
G01*
X961750Y2135638D02*
G03*
X966750Y2140638I0J5000D01*
G01*
Y2140638D02*
G03*
X961750Y2145638I-5000J0D01*
G01*
Y2183038D02*
G03*
X966750Y2188038I0J5000D01*
G01*
D02*
G03*
X961750Y2193038I-5000J0D01*
G01*
X947750Y2282500D02*
Y2224338D01*
X1127750Y2282500D02*
X1127750D01*
X1127750Y2027500D01*
X947750D02*
X1127750D01*
X947750Y2135638D02*
Y2027500D01*
X961750Y2135638D02*
X947750Y2135638D01*
X966750Y2140638D02*
Y2140638D01*
X961750Y2145638D02*
Y2145638D01*
X947750Y2145638D02*
X961750D01*
X947750Y2183038D02*
Y2145638D01*
Y2183038D02*
X961750D01*
Y2183038D02*
Y2183038D01*
X947750Y2193038D02*
X961750D01*
X947750Y2224338D02*
Y2193038D01*
X1127750Y1887500D02*
G03*
X947750Y1887500I-90000J0D01*
G01*
X961750Y1740638D02*
G03*
X966750Y1745638I0J5000D01*
G01*
Y1745638D02*
G03*
X961750Y1750638I-5000J0D01*
G01*
Y1788038D02*
G03*
X966750Y1793038I0J5000D01*
G01*
D02*
G03*
X961750Y1798038I-5000J0D01*
G01*
X947750Y1887500D02*
Y1829338D01*
X1127750Y1887500D02*
X1127750D01*
X1127750Y1632500D01*
X947750D02*
X1127750D01*
X947750Y1740638D02*
Y1632500D01*
X961750Y1740638D02*
X947750Y1740638D01*
X966750Y1745638D02*
Y1745638D01*
X961750Y1750638D02*
Y1750638D01*
X947750Y1750638D02*
X961750D01*
X947750Y1788038D02*
Y1750638D01*
Y1788038D02*
X961750D01*
Y1788038D02*
Y1788038D01*
X947750Y1798038D02*
X961750D01*
X947750Y1829338D02*
Y1798038D01*
X1127750Y1492500D02*
G03*
X947750Y1492500I-90000J0D01*
G01*
X961750Y1345638D02*
G03*
X966750Y1350638I0J5000D01*
G01*
Y1350638D02*
G03*
X961750Y1355638I-5000J0D01*
G01*
Y1393038D02*
G03*
X966750Y1398038I0J5000D01*
G01*
D02*
G03*
X961750Y1403038I-5000J0D01*
G01*
X947750Y1492500D02*
Y1434338D01*
X1127750Y1492500D02*
X1127750D01*
X1127750Y1237500D01*
X947750D02*
X1127750D01*
X947750Y1345638D02*
Y1237500D01*
X961750Y1345638D02*
X947750Y1345638D01*
X966750Y1350638D02*
Y1350638D01*
X961750Y1355638D02*
Y1355638D01*
X947750Y1355638D02*
X961750D01*
X947750Y1393038D02*
Y1355638D01*
Y1393038D02*
X961750D01*
Y1393038D02*
Y1393038D01*
X947750Y1403038D02*
X961750D01*
X947750Y1434338D02*
Y1403038D01*
X1410500Y2282500D02*
G03*
X1230500Y2282500I-90000J0D01*
G01*
X1244500Y2135638D02*
G03*
X1249500Y2140638I0J5000D01*
G01*
Y2140638D02*
G03*
X1244500Y2145638I-5000J0D01*
G01*
Y2183038D02*
G03*
X1249500Y2188038I0J5000D01*
G01*
D02*
G03*
X1244500Y2193038I-5000J0D01*
G01*
X1230500Y2282500D02*
Y2224338D01*
X1410500Y2282500D02*
X1410500D01*
X1410500Y2027500D01*
X1230500D02*
X1410500D01*
X1230500Y2135638D02*
Y2027500D01*
X1244500Y2135638D02*
X1230500Y2135638D01*
X1249500Y2140638D02*
Y2140638D01*
X1244500Y2145638D02*
Y2145638D01*
X1230500Y2145638D02*
X1244500D01*
X1230500Y2183038D02*
Y2145638D01*
Y2183038D02*
X1244500D01*
Y2183038D02*
Y2183038D01*
X1230500Y2193038D02*
X1244500D01*
X1230500Y2224338D02*
Y2193038D01*
X1410500Y1887500D02*
G03*
X1230500Y1887500I-90000J0D01*
G01*
X1244500Y1740638D02*
G03*
X1249500Y1745638I0J5000D01*
G01*
Y1745638D02*
G03*
X1244500Y1750638I-5000J0D01*
G01*
Y1788038D02*
G03*
X1249500Y1793038I0J5000D01*
G01*
D02*
G03*
X1244500Y1798038I-5000J0D01*
G01*
X1230500Y1887500D02*
Y1829338D01*
X1410500Y1887500D02*
X1410500D01*
X1410500Y1632500D01*
X1230500D02*
X1410500D01*
X1230500Y1740638D02*
Y1632500D01*
X1244500Y1740638D02*
X1230500Y1740638D01*
X1249500Y1745638D02*
Y1745638D01*
X1244500Y1750638D02*
Y1750638D01*
X1230500Y1750638D02*
X1244500D01*
X1230500Y1788038D02*
Y1750638D01*
Y1788038D02*
X1244500D01*
Y1788038D02*
Y1788038D01*
X1230500Y1798038D02*
X1244500D01*
X1230500Y1829338D02*
Y1798038D01*
X1410500Y1492500D02*
G03*
X1230500Y1492500I-90000J0D01*
G01*
X1244500Y1345638D02*
G03*
X1249500Y1350638I0J5000D01*
G01*
Y1350638D02*
G03*
X1244500Y1355638I-5000J0D01*
G01*
Y1393038D02*
G03*
X1249500Y1398038I0J5000D01*
G01*
D02*
G03*
X1244500Y1403038I-5000J0D01*
G01*
X1230500Y1492500D02*
Y1434338D01*
X1410500Y1492500D02*
X1410500D01*
X1410500Y1237500D01*
X1230500D02*
X1410500D01*
X1230500Y1345638D02*
Y1237500D01*
X1244500Y1345638D02*
X1230500Y1345638D01*
X1249500Y1350638D02*
Y1350638D01*
X1244500Y1355638D02*
Y1355638D01*
X1230500Y1355638D02*
X1244500D01*
X1230500Y1393038D02*
Y1355638D01*
Y1393038D02*
X1244500D01*
Y1393038D02*
Y1393038D01*
X1230500Y1403038D02*
X1244500D01*
X1230500Y1434338D02*
Y1403038D01*
D63*
X1391500Y286962D02*
G03*
X1396500Y281962I5000J0D01*
G01*
Y291962D02*
G03*
X1391500Y286962I0J-5000D01*
G01*
Y334362D02*
G03*
X1396500Y329362I5000J0D01*
G01*
Y339362D02*
G03*
X1391500Y334362I0J-5000D01*
G01*
X1230500Y192500D02*
G03*
X1410500Y192500I90000J0D01*
G01*
Y250662D01*
Y339362D02*
Y447500D01*
X1396500Y339362D02*
X1410500Y339362D01*
X1391500Y334362D02*
Y334362D01*
X1396500Y329362D02*
Y329362D01*
X1410500Y329362D02*
X1396500D01*
X1410500Y291962D02*
Y329362D01*
Y291962D02*
X1396500D01*
Y291962D02*
Y291962D01*
X1410500Y281962D02*
X1396500D01*
X1410500Y250662D02*
Y281962D01*
Y447500D02*
X1230500D01*
X1230500Y192500D02*
X1230500D01*
X1230500Y447500D01*
X1391500Y681962D02*
G03*
X1396500Y676962I5000J0D01*
G01*
Y686962D02*
G03*
X1391500Y681962I0J-5000D01*
G01*
Y729362D02*
G03*
X1396500Y724362I5000J0D01*
G01*
Y734362D02*
G03*
X1391500Y729362I0J-5000D01*
G01*
X1230500Y587500D02*
G03*
X1410500Y587500I90000J0D01*
G01*
Y645662D01*
Y734362D02*
Y842500D01*
X1396500Y734362D02*
X1410500Y734362D01*
X1391500Y729362D02*
Y729362D01*
X1396500Y724362D02*
Y724362D01*
X1410500Y724362D02*
X1396500D01*
X1410500Y686962D02*
Y724362D01*
Y686962D02*
X1396500D01*
Y686962D02*
Y686962D01*
X1410500Y676962D02*
X1396500D01*
X1410500Y645662D02*
Y676962D01*
Y842500D02*
X1230500D01*
X1230500Y587500D02*
X1230500D01*
X1230500Y842500D01*
X1391500Y1076962D02*
G03*
X1396500Y1071962I5000J0D01*
G01*
Y1081962D02*
G03*
X1391500Y1076962I0J-5000D01*
G01*
Y1124362D02*
G03*
X1396500Y1119362I5000J0D01*
G01*
Y1129362D02*
G03*
X1391500Y1124362I0J-5000D01*
G01*
X1230500Y982500D02*
G03*
X1410500Y982500I90000J0D01*
G01*
Y1040662D01*
Y1129362D02*
Y1237500D01*
X1396500Y1129362D02*
X1410500Y1129362D01*
X1391500Y1124362D02*
Y1124362D01*
X1396500Y1119362D02*
Y1119362D01*
X1410500Y1119362D02*
X1396500D01*
X1410500Y1081962D02*
Y1119362D01*
Y1081962D02*
X1396500D01*
Y1081962D02*
Y1081962D01*
X1410500Y1071962D02*
X1396500D01*
X1410500Y1040662D02*
Y1071962D01*
Y1237500D02*
X1230500D01*
X1230500Y982500D02*
X1230500D01*
X1230500Y1237500D01*
X1108750Y286962D02*
G03*
X1113750Y281962I5000J0D01*
G01*
Y291962D02*
G03*
X1108750Y286962I0J-5000D01*
G01*
Y334362D02*
G03*
X1113750Y329362I5000J0D01*
G01*
Y339362D02*
G03*
X1108750Y334362I0J-5000D01*
G01*
X947750Y192500D02*
G03*
X1127750Y192500I90000J0D01*
G01*
Y250662D01*
Y339362D02*
Y447500D01*
X1113750Y339362D02*
X1127750Y339362D01*
X1108750Y334362D02*
Y334362D01*
X1113750Y329362D02*
Y329362D01*
X1127750Y329362D02*
X1113750D01*
X1127750Y291962D02*
Y329362D01*
Y291962D02*
X1113750D01*
Y291962D02*
Y291962D01*
X1127750Y281962D02*
X1113750D01*
X1127750Y250662D02*
Y281962D01*
Y447500D02*
X947750D01*
X947750Y192500D02*
X947750D01*
X947750Y447500D01*
X1108750Y681962D02*
G03*
X1113750Y676962I5000J0D01*
G01*
Y686962D02*
G03*
X1108750Y681962I0J-5000D01*
G01*
Y729362D02*
G03*
X1113750Y724362I5000J0D01*
G01*
Y734362D02*
G03*
X1108750Y729362I0J-5000D01*
G01*
X947750Y587500D02*
G03*
X1127750Y587500I90000J0D01*
G01*
Y645662D01*
Y734362D02*
Y842500D01*
X1113750Y734362D02*
X1127750Y734362D01*
X1108750Y729362D02*
Y729362D01*
X1113750Y724362D02*
Y724362D01*
X1127750Y724362D02*
X1113750D01*
X1127750Y686962D02*
Y724362D01*
Y686962D02*
X1113750D01*
Y686962D02*
Y686962D01*
X1127750Y676962D02*
X1113750D01*
X1127750Y645662D02*
Y676962D01*
Y842500D02*
X947750D01*
X947750Y587500D02*
X947750D01*
X947750Y842500D01*
X1108750Y1076962D02*
G03*
X1113750Y1071962I5000J0D01*
G01*
Y1081962D02*
G03*
X1108750Y1076962I0J-5000D01*
G01*
Y1124362D02*
G03*
X1113750Y1119362I5000J0D01*
G01*
Y1129362D02*
G03*
X1108750Y1124362I0J-5000D01*
G01*
X947750Y982500D02*
G03*
X1127750Y982500I90000J0D01*
G01*
Y1040662D01*
Y1129362D02*
Y1237500D01*
X1113750Y1129362D02*
X1127750Y1129362D01*
X1108750Y1124362D02*
Y1124362D01*
X1113750Y1119362D02*
Y1119362D01*
X1127750Y1119362D02*
X1113750D01*
X1127750Y1081962D02*
Y1119362D01*
Y1081962D02*
X1113750D01*
Y1081962D02*
Y1081962D01*
X1127750Y1071962D02*
X1113750D01*
X1127750Y1040662D02*
Y1071962D01*
Y1237500D02*
X947750D01*
X947750Y982500D02*
X947750D01*
X947750Y1237500D01*
X826000Y286962D02*
G03*
X831000Y281962I5000J0D01*
G01*
Y291962D02*
G03*
X826000Y286962I0J-5000D01*
G01*
Y334362D02*
G03*
X831000Y329362I5000J0D01*
G01*
Y339362D02*
G03*
X826000Y334362I0J-5000D01*
G01*
X665000Y192500D02*
G03*
X845000Y192500I90000J0D01*
G01*
Y250662D01*
Y339362D02*
Y447500D01*
X831000Y339362D02*
X845000Y339362D01*
X826000Y334362D02*
Y334362D01*
X831000Y329362D02*
Y329362D01*
X845000Y329362D02*
X831000D01*
X845000Y291962D02*
Y329362D01*
Y291962D02*
X831000D01*
Y291962D02*
Y291962D01*
X845000Y281962D02*
X831000D01*
X845000Y250662D02*
Y281962D01*
Y447500D02*
X665000D01*
X665000Y192500D02*
X665000D01*
X665000Y447500D01*
X826000Y681962D02*
G03*
X831000Y676962I5000J0D01*
G01*
Y686962D02*
G03*
X826000Y681962I0J-5000D01*
G01*
Y729362D02*
G03*
X831000Y724362I5000J0D01*
G01*
Y734362D02*
G03*
X826000Y729362I0J-5000D01*
G01*
X665000Y587500D02*
G03*
X845000Y587500I90000J0D01*
G01*
Y645662D01*
Y734362D02*
Y842500D01*
X831000Y734362D02*
X845000Y734362D01*
X826000Y729362D02*
Y729362D01*
X831000Y724362D02*
Y724362D01*
X845000Y724362D02*
X831000D01*
X845000Y686962D02*
Y724362D01*
Y686962D02*
X831000D01*
Y686962D02*
Y686962D01*
X845000Y676962D02*
X831000D01*
X845000Y645662D02*
Y676962D01*
Y842500D02*
X665000D01*
X665000Y587500D02*
X665000D01*
X665000Y842500D01*
X826000Y1076962D02*
G03*
X831000Y1071962I5000J0D01*
G01*
Y1081962D02*
G03*
X826000Y1076962I0J-5000D01*
G01*
Y1124362D02*
G03*
X831000Y1119362I5000J0D01*
G01*
Y1129362D02*
G03*
X826000Y1124362I0J-5000D01*
G01*
X665000Y982500D02*
G03*
X845000Y982500I90000J0D01*
G01*
Y1040662D01*
Y1129362D02*
Y1237500D01*
X831000Y1129362D02*
X845000Y1129362D01*
X826000Y1124362D02*
Y1124362D01*
X831000Y1119362D02*
Y1119362D01*
X845000Y1119362D02*
X831000D01*
X845000Y1081962D02*
Y1119362D01*
Y1081962D02*
X831000D01*
Y1081962D02*
Y1081962D01*
X845000Y1071962D02*
X831000D01*
X845000Y1040662D02*
Y1071962D01*
Y1237500D02*
X665000D01*
X665000Y982500D02*
X665000D01*
X665000Y1237500D01*
X543250Y286962D02*
G03*
X548250Y281962I5000J0D01*
G01*
Y291962D02*
G03*
X543250Y286962I0J-5000D01*
G01*
Y334362D02*
G03*
X548250Y329362I5000J0D01*
G01*
Y339362D02*
G03*
X543250Y334362I0J-5000D01*
G01*
X382250Y192500D02*
G03*
X562250Y192500I90000J0D01*
G01*
Y250662D01*
Y339362D02*
Y447500D01*
X548250Y339362D02*
X562250Y339362D01*
X543250Y334362D02*
Y334362D01*
X548250Y329362D02*
Y329362D01*
X562250Y329362D02*
X548250D01*
X562250Y291962D02*
Y329362D01*
Y291962D02*
X548250D01*
Y291962D02*
Y291962D01*
X562250Y281962D02*
X548250D01*
X562250Y250662D02*
Y281962D01*
Y447500D02*
X382250D01*
X382250Y192500D02*
X382250D01*
X382250Y447500D01*
X543250Y681962D02*
G03*
X548250Y676962I5000J0D01*
G01*
Y686962D02*
G03*
X543250Y681962I0J-5000D01*
G01*
Y729362D02*
G03*
X548250Y724362I5000J0D01*
G01*
Y734362D02*
G03*
X543250Y729362I0J-5000D01*
G01*
X382250Y587500D02*
G03*
X562250Y587500I90000J0D01*
G01*
Y645662D01*
Y734362D02*
Y842500D01*
X548250Y734362D02*
X562250Y734362D01*
X543250Y729362D02*
Y729362D01*
X548250Y724362D02*
Y724362D01*
X562250Y724362D02*
X548250D01*
X562250Y686962D02*
Y724362D01*
Y686962D02*
X548250D01*
Y686962D02*
Y686962D01*
X562250Y676962D02*
X548250D01*
X562250Y645662D02*
Y676962D01*
Y842500D02*
X382250D01*
X382250Y587500D02*
X382250D01*
X382250Y842500D01*
X543250Y1076962D02*
G03*
X548250Y1071962I5000J0D01*
G01*
Y1081962D02*
G03*
X543250Y1076962I0J-5000D01*
G01*
Y1124362D02*
G03*
X548250Y1119362I5000J0D01*
G01*
Y1129362D02*
G03*
X543250Y1124362I0J-5000D01*
G01*
X382250Y982500D02*
G03*
X562250Y982500I90000J0D01*
G01*
Y1040662D01*
Y1129362D02*
Y1237500D01*
X548250Y1129362D02*
X562250Y1129362D01*
X543250Y1124362D02*
Y1124362D01*
X548250Y1119362D02*
Y1119362D01*
X562250Y1119362D02*
X548250D01*
X562250Y1081962D02*
Y1119362D01*
Y1081962D02*
X548250D01*
Y1081962D02*
Y1081962D01*
X562250Y1071962D02*
X548250D01*
X562250Y1040662D02*
Y1071962D01*
Y1237500D02*
X382250D01*
X382250Y982500D02*
X382250D01*
X382250Y1237500D01*
X260500Y286962D02*
G03*
X265500Y281962I5000J0D01*
G01*
Y291962D02*
G03*
X260500Y286962I0J-5000D01*
G01*
Y334362D02*
G03*
X265500Y329362I5000J0D01*
G01*
Y339362D02*
G03*
X260500Y334362I0J-5000D01*
G01*
X99500Y192500D02*
G03*
X279500Y192500I90000J0D01*
G01*
Y250662D01*
Y339362D02*
Y447500D01*
X265500Y339362D02*
X279500Y339362D01*
X260500Y334362D02*
Y334362D01*
X265500Y329362D02*
Y329362D01*
X279500Y329362D02*
X265500D01*
X279500Y291962D02*
Y329362D01*
Y291962D02*
X265500D01*
Y291962D02*
Y291962D01*
X279500Y281962D02*
X265500D01*
X279500Y250662D02*
Y281962D01*
Y447500D02*
X99500D01*
X99500Y192500D02*
X99500D01*
X99500Y447500D01*
X260500Y681962D02*
G03*
X265500Y676962I5000J0D01*
G01*
Y686962D02*
G03*
X260500Y681962I0J-5000D01*
G01*
Y729362D02*
G03*
X265500Y724362I5000J0D01*
G01*
Y734362D02*
G03*
X260500Y729362I0J-5000D01*
G01*
X99500Y587500D02*
G03*
X279500Y587500I90000J0D01*
G01*
Y645662D01*
Y734362D02*
Y842500D01*
X265500Y734362D02*
X279500Y734362D01*
X260500Y729362D02*
Y729362D01*
X265500Y724362D02*
Y724362D01*
X279500Y724362D02*
X265500D01*
X279500Y686962D02*
Y724362D01*
Y686962D02*
X265500D01*
Y686962D02*
Y686962D01*
X279500Y676962D02*
X265500D01*
X279500Y645662D02*
Y676962D01*
Y842500D02*
X99500D01*
X99500Y587500D02*
X99500D01*
X99500Y842500D01*
X260500Y1076962D02*
G03*
X265500Y1071962I5000J0D01*
G01*
Y1081962D02*
G03*
X260500Y1076962I0J-5000D01*
G01*
Y1124362D02*
G03*
X265500Y1119362I5000J0D01*
G01*
Y1129362D02*
G03*
X260500Y1124362I0J-5000D01*
G01*
X99500Y982500D02*
G03*
X279500Y982500I90000J0D01*
G01*
Y1040662D01*
Y1129362D02*
Y1237500D01*
X265500Y1129362D02*
X279500Y1129362D01*
X260500Y1124362D02*
Y1124362D01*
X265500Y1119362D02*
Y1119362D01*
X279500Y1119362D02*
X265500D01*
X279500Y1081962D02*
Y1119362D01*
Y1081962D02*
X265500D01*
Y1081962D02*
Y1081962D01*
X279500Y1071962D02*
X265500D01*
X279500Y1040662D02*
Y1071962D01*
Y1237500D02*
X99500D01*
X99500Y982500D02*
X99500D01*
X99500Y1237500D01*
X118500Y2188038D02*
G03*
X113500Y2193038I-5000J0D01*
G01*
Y2183038D02*
G03*
X118500Y2188038I0J5000D01*
G01*
Y2140638D02*
G03*
X113500Y2145638I-5000J0D01*
G01*
Y2135638D02*
G03*
X118500Y2140638I0J5000D01*
G01*
X279500Y2282500D02*
G03*
X99500Y2282500I-90000J0D01*
G01*
Y2224338D01*
Y2135638D02*
Y2027500D01*
X113500Y2135638D02*
X99500Y2135638D01*
X118500Y2140638D02*
Y2140638D01*
X113500Y2145638D02*
Y2145638D01*
X99500Y2145638D02*
X113500D01*
X99500Y2183038D02*
Y2145638D01*
Y2183038D02*
X113500D01*
Y2183038D02*
Y2183038D01*
X99500Y2193038D02*
X113500D01*
X99500Y2224338D02*
Y2193038D01*
Y2027500D02*
X279500D01*
X279500Y2282500D02*
X279500D01*
X279500Y2027500D01*
X118500Y1793038D02*
G03*
X113500Y1798038I-5000J0D01*
G01*
Y1788038D02*
G03*
X118500Y1793038I0J5000D01*
G01*
Y1745638D02*
G03*
X113500Y1750638I-5000J0D01*
G01*
Y1740638D02*
G03*
X118500Y1745638I0J5000D01*
G01*
X279500Y1887500D02*
G03*
X99500Y1887500I-90000J0D01*
G01*
Y1829338D01*
Y1740638D02*
Y1632500D01*
X113500Y1740638D02*
X99500Y1740638D01*
X118500Y1745638D02*
Y1745638D01*
X113500Y1750638D02*
Y1750638D01*
X99500Y1750638D02*
X113500D01*
X99500Y1788038D02*
Y1750638D01*
Y1788038D02*
X113500D01*
Y1788038D02*
Y1788038D01*
X99500Y1798038D02*
X113500D01*
X99500Y1829338D02*
Y1798038D01*
Y1632500D02*
X279500D01*
X279500Y1887500D02*
X279500D01*
X279500Y1632500D01*
X118500Y1398038D02*
G03*
X113500Y1403038I-5000J0D01*
G01*
Y1393038D02*
G03*
X118500Y1398038I0J5000D01*
G01*
Y1350638D02*
G03*
X113500Y1355638I-5000J0D01*
G01*
Y1345638D02*
G03*
X118500Y1350638I0J5000D01*
G01*
X279500Y1492500D02*
G03*
X99500Y1492500I-90000J0D01*
G01*
Y1434338D01*
Y1345638D02*
Y1237500D01*
X113500Y1345638D02*
X99500Y1345638D01*
X118500Y1350638D02*
Y1350638D01*
X113500Y1355638D02*
Y1355638D01*
X99500Y1355638D02*
X113500D01*
X99500Y1393038D02*
Y1355638D01*
Y1393038D02*
X113500D01*
Y1393038D02*
Y1393038D01*
X99500Y1403038D02*
X113500D01*
X99500Y1434338D02*
Y1403038D01*
Y1237500D02*
X279500D01*
X279500Y1492500D02*
X279500D01*
X279500Y1237500D01*
X401250Y2188038D02*
G03*
X396250Y2193038I-5000J0D01*
G01*
Y2183038D02*
G03*
X401250Y2188038I0J5000D01*
G01*
Y2140638D02*
G03*
X396250Y2145638I-5000J0D01*
G01*
Y2135638D02*
G03*
X401250Y2140638I0J5000D01*
G01*
X562250Y2282500D02*
G03*
X382250Y2282500I-90000J0D01*
G01*
Y2224338D01*
Y2135638D02*
Y2027500D01*
X396250Y2135638D02*
X382250Y2135638D01*
X401250Y2140638D02*
Y2140638D01*
X396250Y2145638D02*
Y2145638D01*
X382250Y2145638D02*
X396250D01*
X382250Y2183038D02*
Y2145638D01*
Y2183038D02*
X396250D01*
Y2183038D02*
Y2183038D01*
X382250Y2193038D02*
X396250D01*
X382250Y2224338D02*
Y2193038D01*
Y2027500D02*
X562250D01*
X562250Y2282500D02*
X562250D01*
X562250Y2027500D01*
X401250Y1793038D02*
G03*
X396250Y1798038I-5000J0D01*
G01*
Y1788038D02*
G03*
X401250Y1793038I0J5000D01*
G01*
Y1745638D02*
G03*
X396250Y1750638I-5000J0D01*
G01*
Y1740638D02*
G03*
X401250Y1745638I0J5000D01*
G01*
X562250Y1887500D02*
G03*
X382250Y1887500I-90000J0D01*
G01*
Y1829338D01*
Y1740638D02*
Y1632500D01*
X396250Y1740638D02*
X382250Y1740638D01*
X401250Y1745638D02*
Y1745638D01*
X396250Y1750638D02*
Y1750638D01*
X382250Y1750638D02*
X396250D01*
X382250Y1788038D02*
Y1750638D01*
Y1788038D02*
X396250D01*
Y1788038D02*
Y1788038D01*
X382250Y1798038D02*
X396250D01*
X382250Y1829338D02*
Y1798038D01*
Y1632500D02*
X562250D01*
X562250Y1887500D02*
X562250D01*
X562250Y1632500D01*
X401250Y1398038D02*
G03*
X396250Y1403038I-5000J0D01*
G01*
Y1393038D02*
G03*
X401250Y1398038I0J5000D01*
G01*
Y1350638D02*
G03*
X396250Y1355638I-5000J0D01*
G01*
Y1345638D02*
G03*
X401250Y1350638I0J5000D01*
G01*
X562250Y1492500D02*
G03*
X382250Y1492500I-90000J0D01*
G01*
Y1434338D01*
Y1345638D02*
Y1237500D01*
X396250Y1345638D02*
X382250Y1345638D01*
X401250Y1350638D02*
Y1350638D01*
X396250Y1355638D02*
Y1355638D01*
X382250Y1355638D02*
X396250D01*
X382250Y1393038D02*
Y1355638D01*
Y1393038D02*
X396250D01*
Y1393038D02*
Y1393038D01*
X382250Y1403038D02*
X396250D01*
X382250Y1434338D02*
Y1403038D01*
Y1237500D02*
X562250D01*
X562250Y1492500D02*
X562250D01*
X562250Y1237500D01*
X684000Y2188038D02*
G03*
X679000Y2193038I-5000J0D01*
G01*
Y2183038D02*
G03*
X684000Y2188038I0J5000D01*
G01*
Y2140638D02*
G03*
X679000Y2145638I-5000J0D01*
G01*
Y2135638D02*
G03*
X684000Y2140638I0J5000D01*
G01*
X845000Y2282500D02*
G03*
X665000Y2282500I-90000J0D01*
G01*
Y2224338D01*
Y2135638D02*
Y2027500D01*
X679000Y2135638D02*
X665000Y2135638D01*
X684000Y2140638D02*
Y2140638D01*
X679000Y2145638D02*
Y2145638D01*
X665000Y2145638D02*
X679000D01*
X665000Y2183038D02*
Y2145638D01*
Y2183038D02*
X679000D01*
Y2183038D02*
Y2183038D01*
X665000Y2193038D02*
X679000D01*
X665000Y2224338D02*
Y2193038D01*
Y2027500D02*
X845000D01*
X845000Y2282500D02*
X845000D01*
X845000Y2027500D01*
X684000Y1793038D02*
G03*
X679000Y1798038I-5000J0D01*
G01*
Y1788038D02*
G03*
X684000Y1793038I0J5000D01*
G01*
Y1745638D02*
G03*
X679000Y1750638I-5000J0D01*
G01*
Y1740638D02*
G03*
X684000Y1745638I0J5000D01*
G01*
X845000Y1887500D02*
G03*
X665000Y1887500I-90000J0D01*
G01*
Y1829338D01*
Y1740638D02*
Y1632500D01*
X679000Y1740638D02*
X665000Y1740638D01*
X684000Y1745638D02*
Y1745638D01*
X679000Y1750638D02*
Y1750638D01*
X665000Y1750638D02*
X679000D01*
X665000Y1788038D02*
Y1750638D01*
Y1788038D02*
X679000D01*
Y1788038D02*
Y1788038D01*
X665000Y1798038D02*
X679000D01*
X665000Y1829338D02*
Y1798038D01*
Y1632500D02*
X845000D01*
X845000Y1887500D02*
X845000D01*
X845000Y1632500D01*
X684000Y1398038D02*
G03*
X679000Y1403038I-5000J0D01*
G01*
Y1393038D02*
G03*
X684000Y1398038I0J5000D01*
G01*
Y1350638D02*
G03*
X679000Y1355638I-5000J0D01*
G01*
Y1345638D02*
G03*
X684000Y1350638I0J5000D01*
G01*
X845000Y1492500D02*
G03*
X665000Y1492500I-90000J0D01*
G01*
Y1434338D01*
Y1345638D02*
Y1237500D01*
X679000Y1345638D02*
X665000Y1345638D01*
X684000Y1350638D02*
Y1350638D01*
X679000Y1355638D02*
Y1355638D01*
X665000Y1355638D02*
X679000D01*
X665000Y1393038D02*
Y1355638D01*
Y1393038D02*
X679000D01*
Y1393038D02*
Y1393038D01*
X665000Y1403038D02*
X679000D01*
X665000Y1434338D02*
Y1403038D01*
Y1237500D02*
X845000D01*
X845000Y1492500D02*
X845000D01*
X845000Y1237500D01*
X966750Y2188038D02*
G03*
X961750Y2193038I-5000J0D01*
G01*
Y2183038D02*
G03*
X966750Y2188038I0J5000D01*
G01*
Y2140638D02*
G03*
X961750Y2145638I-5000J0D01*
G01*
Y2135638D02*
G03*
X966750Y2140638I0J5000D01*
G01*
X1127750Y2282500D02*
G03*
X947750Y2282500I-90000J0D01*
G01*
Y2224338D01*
Y2135638D02*
Y2027500D01*
X961750Y2135638D02*
X947750Y2135638D01*
X966750Y2140638D02*
Y2140638D01*
X961750Y2145638D02*
Y2145638D01*
X947750Y2145638D02*
X961750D01*
X947750Y2183038D02*
Y2145638D01*
Y2183038D02*
X961750D01*
Y2183038D02*
Y2183038D01*
X947750Y2193038D02*
X961750D01*
X947750Y2224338D02*
Y2193038D01*
Y2027500D02*
X1127750D01*
X1127750Y2282500D02*
X1127750D01*
X1127750Y2027500D01*
X966750Y1793038D02*
G03*
X961750Y1798038I-5000J0D01*
G01*
Y1788038D02*
G03*
X966750Y1793038I0J5000D01*
G01*
Y1745638D02*
G03*
X961750Y1750638I-5000J0D01*
G01*
Y1740638D02*
G03*
X966750Y1745638I0J5000D01*
G01*
X1127750Y1887500D02*
G03*
X947750Y1887500I-90000J0D01*
G01*
Y1829338D01*
Y1740638D02*
Y1632500D01*
X961750Y1740638D02*
X947750Y1740638D01*
X966750Y1745638D02*
Y1745638D01*
X961750Y1750638D02*
Y1750638D01*
X947750Y1750638D02*
X961750D01*
X947750Y1788038D02*
Y1750638D01*
Y1788038D02*
X961750D01*
Y1788038D02*
Y1788038D01*
X947750Y1798038D02*
X961750D01*
X947750Y1829338D02*
Y1798038D01*
Y1632500D02*
X1127750D01*
X1127750Y1887500D02*
X1127750D01*
X1127750Y1632500D01*
X966750Y1398038D02*
G03*
X961750Y1403038I-5000J0D01*
G01*
Y1393038D02*
G03*
X966750Y1398038I0J5000D01*
G01*
Y1350638D02*
G03*
X961750Y1355638I-5000J0D01*
G01*
Y1345638D02*
G03*
X966750Y1350638I0J5000D01*
G01*
X1127750Y1492500D02*
G03*
X947750Y1492500I-90000J0D01*
G01*
Y1434338D01*
Y1345638D02*
Y1237500D01*
X961750Y1345638D02*
X947750Y1345638D01*
X966750Y1350638D02*
Y1350638D01*
X961750Y1355638D02*
Y1355638D01*
X947750Y1355638D02*
X961750D01*
X947750Y1393038D02*
Y1355638D01*
Y1393038D02*
X961750D01*
Y1393038D02*
Y1393038D01*
X947750Y1403038D02*
X961750D01*
X947750Y1434338D02*
Y1403038D01*
Y1237500D02*
X1127750D01*
X1127750Y1492500D02*
X1127750D01*
X1127750Y1237500D01*
X1249500Y2188038D02*
G03*
X1244500Y2193038I-5000J0D01*
G01*
Y2183038D02*
G03*
X1249500Y2188038I0J5000D01*
G01*
Y2140638D02*
G03*
X1244500Y2145638I-5000J0D01*
G01*
Y2135638D02*
G03*
X1249500Y2140638I0J5000D01*
G01*
X1410500Y2282500D02*
G03*
X1230500Y2282500I-90000J0D01*
G01*
Y2224338D01*
Y2135638D02*
Y2027500D01*
X1244500Y2135638D02*
X1230500Y2135638D01*
X1249500Y2140638D02*
Y2140638D01*
X1244500Y2145638D02*
Y2145638D01*
X1230500Y2145638D02*
X1244500D01*
X1230500Y2183038D02*
Y2145638D01*
Y2183038D02*
X1244500D01*
Y2183038D02*
Y2183038D01*
X1230500Y2193038D02*
X1244500D01*
X1230500Y2224338D02*
Y2193038D01*
Y2027500D02*
X1410500D01*
X1410500Y2282500D02*
X1410500D01*
X1410500Y2027500D01*
X1249500Y1793038D02*
G03*
X1244500Y1798038I-5000J0D01*
G01*
Y1788038D02*
G03*
X1249500Y1793038I0J5000D01*
G01*
Y1745638D02*
G03*
X1244500Y1750638I-5000J0D01*
G01*
Y1740638D02*
G03*
X1249500Y1745638I0J5000D01*
G01*
X1410500Y1887500D02*
G03*
X1230500Y1887500I-90000J0D01*
G01*
Y1829338D01*
Y1740638D02*
Y1632500D01*
X1244500Y1740638D02*
X1230500Y1740638D01*
X1249500Y1745638D02*
Y1745638D01*
X1244500Y1750638D02*
Y1750638D01*
X1230500Y1750638D02*
X1244500D01*
X1230500Y1788038D02*
Y1750638D01*
Y1788038D02*
X1244500D01*
Y1788038D02*
Y1788038D01*
X1230500Y1798038D02*
X1244500D01*
X1230500Y1829338D02*
Y1798038D01*
Y1632500D02*
X1410500D01*
X1410500Y1887500D02*
X1410500D01*
X1410500Y1632500D01*
X1249500Y1398038D02*
G03*
X1244500Y1403038I-5000J0D01*
G01*
Y1393038D02*
G03*
X1249500Y1398038I0J5000D01*
G01*
Y1350638D02*
G03*
X1244500Y1355638I-5000J0D01*
G01*
Y1345638D02*
G03*
X1249500Y1350638I0J5000D01*
G01*
X1410500Y1492500D02*
G03*
X1230500Y1492500I-90000J0D01*
G01*
Y1434338D01*
Y1345638D02*
Y1237500D01*
X1244500Y1345638D02*
X1230500Y1345638D01*
X1249500Y1350638D02*
Y1350638D01*
X1244500Y1355638D02*
Y1355638D01*
X1230500Y1355638D02*
X1244500D01*
X1230500Y1393038D02*
Y1355638D01*
Y1393038D02*
X1244500D01*
Y1393038D02*
Y1393038D01*
X1230500Y1403038D02*
X1244500D01*
X1230500Y1434338D02*
Y1403038D01*
Y1237500D02*
X1410500D01*
X1410500Y1492500D02*
X1410500D01*
X1410500Y1237500D01*
D64*
X37500Y37500D02*
D03*
Y1200000D02*
D03*
Y1275000D02*
D03*
Y2437500D02*
D03*
X1472500D02*
D03*
Y1275000D02*
D03*
Y1200000D02*
D03*
Y37500D02*
D03*
D65*
X1247102Y280600D02*
D03*
Y310600D02*
D03*
Y675600D02*
D03*
Y705600D02*
D03*
Y1070600D02*
D03*
Y1100600D02*
D03*
X964352Y280600D02*
D03*
Y310600D02*
D03*
Y675600D02*
D03*
Y705600D02*
D03*
Y1070600D02*
D03*
Y1100600D02*
D03*
X681602Y280600D02*
D03*
Y310600D02*
D03*
Y675600D02*
D03*
Y705600D02*
D03*
Y1070600D02*
D03*
Y1100600D02*
D03*
X398852Y280600D02*
D03*
Y310600D02*
D03*
Y675600D02*
D03*
Y705600D02*
D03*
Y1070600D02*
D03*
Y1100600D02*
D03*
X116102Y280600D02*
D03*
Y310600D02*
D03*
Y675600D02*
D03*
Y705600D02*
D03*
Y1070600D02*
D03*
Y1100600D02*
D03*
X262898Y2194400D02*
D03*
Y2164400D02*
D03*
Y1799400D02*
D03*
Y1769400D02*
D03*
Y1404400D02*
D03*
Y1374400D02*
D03*
X545648Y2194400D02*
D03*
Y2164400D02*
D03*
Y1799400D02*
D03*
Y1769400D02*
D03*
Y1404400D02*
D03*
Y1374400D02*
D03*
X828398Y2194400D02*
D03*
Y2164400D02*
D03*
Y1799400D02*
D03*
Y1769400D02*
D03*
Y1404400D02*
D03*
Y1374400D02*
D03*
X1111148Y2194400D02*
D03*
Y2164400D02*
D03*
Y1799400D02*
D03*
Y1769400D02*
D03*
Y1404400D02*
D03*
Y1374400D02*
D03*
X1393898Y2194400D02*
D03*
Y2164400D02*
D03*
Y1799400D02*
D03*
Y1769400D02*
D03*
Y1404400D02*
D03*
Y1374400D02*
D03*
D66*
X1320500Y112900D02*
D03*
Y276100D02*
D03*
Y507900D02*
D03*
Y671100D02*
D03*
Y902900D02*
D03*
Y1066100D02*
D03*
X1037750Y112900D02*
D03*
Y276100D02*
D03*
Y507900D02*
D03*
Y671100D02*
D03*
Y902900D02*
D03*
Y1066100D02*
D03*
X755000Y112900D02*
D03*
Y276100D02*
D03*
Y507900D02*
D03*
Y671100D02*
D03*
Y902900D02*
D03*
Y1066100D02*
D03*
X472250Y112900D02*
D03*
Y276100D02*
D03*
Y507900D02*
D03*
Y671100D02*
D03*
Y902900D02*
D03*
Y1066100D02*
D03*
X189500Y112900D02*
D03*
Y276100D02*
D03*
Y507900D02*
D03*
Y671100D02*
D03*
Y902900D02*
D03*
Y1066100D02*
D03*
X189500Y2362100D02*
D03*
Y2198900D02*
D03*
Y1967100D02*
D03*
Y1803900D02*
D03*
Y1572100D02*
D03*
Y1408900D02*
D03*
X472250Y2362100D02*
D03*
Y2198900D02*
D03*
Y1967100D02*
D03*
Y1803900D02*
D03*
Y1572100D02*
D03*
Y1408900D02*
D03*
X755000Y2362100D02*
D03*
Y2198900D02*
D03*
Y1967100D02*
D03*
Y1803900D02*
D03*
Y1572100D02*
D03*
Y1408900D02*
D03*
X1037750Y2362100D02*
D03*
Y2198900D02*
D03*
Y1967100D02*
D03*
Y1803900D02*
D03*
Y1572100D02*
D03*
Y1408900D02*
D03*
X1320500Y2362100D02*
D03*
Y2198900D02*
D03*
Y1967100D02*
D03*
Y1803900D02*
D03*
Y1572100D02*
D03*
Y1408900D02*
D03*
D67*
X1306000Y278300D02*
D03*
X1296000D02*
D03*
Y288300D02*
D03*
X1286000D02*
D03*
X1306000D02*
D03*
Y673300D02*
D03*
X1296000D02*
D03*
Y683300D02*
D03*
X1286000D02*
D03*
X1306000D02*
D03*
Y1068300D02*
D03*
X1296000D02*
D03*
Y1078300D02*
D03*
X1286000D02*
D03*
X1306000D02*
D03*
X1023250Y278300D02*
D03*
X1013250D02*
D03*
Y288300D02*
D03*
X1003250D02*
D03*
X1023250D02*
D03*
Y673300D02*
D03*
X1013250D02*
D03*
Y683300D02*
D03*
X1003250D02*
D03*
X1023250D02*
D03*
Y1068300D02*
D03*
X1013250D02*
D03*
Y1078300D02*
D03*
X1003250D02*
D03*
X1023250D02*
D03*
X740500Y278300D02*
D03*
X730500D02*
D03*
Y288300D02*
D03*
X720500D02*
D03*
X740500D02*
D03*
Y673300D02*
D03*
X730500D02*
D03*
Y683300D02*
D03*
X720500D02*
D03*
X740500D02*
D03*
Y1068300D02*
D03*
X730500D02*
D03*
Y1078300D02*
D03*
X720500D02*
D03*
X740500D02*
D03*
X457750Y278300D02*
D03*
X447750D02*
D03*
Y288300D02*
D03*
X437750D02*
D03*
X457750D02*
D03*
Y673300D02*
D03*
X447750D02*
D03*
Y683300D02*
D03*
X437750D02*
D03*
X457750D02*
D03*
Y1068300D02*
D03*
X447750D02*
D03*
Y1078300D02*
D03*
X437750D02*
D03*
X457750D02*
D03*
X175000Y278300D02*
D03*
X165000D02*
D03*
Y288300D02*
D03*
X155000D02*
D03*
X175000D02*
D03*
Y673300D02*
D03*
X165000D02*
D03*
Y683300D02*
D03*
X155000D02*
D03*
X175000D02*
D03*
Y1068300D02*
D03*
X165000D02*
D03*
Y1078300D02*
D03*
X155000D02*
D03*
X175000D02*
D03*
X204000Y2196700D02*
D03*
X214000D02*
D03*
Y2186700D02*
D03*
X224000D02*
D03*
X204000D02*
D03*
Y1801700D02*
D03*
X214000D02*
D03*
Y1791700D02*
D03*
X224000D02*
D03*
X204000D02*
D03*
Y1406700D02*
D03*
X214000D02*
D03*
Y1396700D02*
D03*
X224000D02*
D03*
X204000D02*
D03*
X486750Y2196700D02*
D03*
X496750D02*
D03*
Y2186700D02*
D03*
X506750D02*
D03*
X486750D02*
D03*
Y1801700D02*
D03*
X496750D02*
D03*
Y1791700D02*
D03*
X506750D02*
D03*
X486750D02*
D03*
Y1406700D02*
D03*
X496750D02*
D03*
Y1396700D02*
D03*
X506750D02*
D03*
X486750D02*
D03*
X769500Y2196700D02*
D03*
X779500D02*
D03*
Y2186700D02*
D03*
X789500D02*
D03*
X769500D02*
D03*
Y1801700D02*
D03*
X779500D02*
D03*
Y1791700D02*
D03*
X789500D02*
D03*
X769500D02*
D03*
Y1406700D02*
D03*
X779500D02*
D03*
Y1396700D02*
D03*
X789500D02*
D03*
X769500D02*
D03*
X1052250Y2196700D02*
D03*
X1062250D02*
D03*
Y2186700D02*
D03*
X1072250D02*
D03*
X1052250D02*
D03*
Y1801700D02*
D03*
X1062250D02*
D03*
Y1791700D02*
D03*
X1072250D02*
D03*
X1052250D02*
D03*
Y1406700D02*
D03*
X1062250D02*
D03*
Y1396700D02*
D03*
X1072250D02*
D03*
X1052250D02*
D03*
X1335000Y2196700D02*
D03*
X1345000D02*
D03*
Y2186700D02*
D03*
X1355000D02*
D03*
X1335000D02*
D03*
Y1801700D02*
D03*
X1345000D02*
D03*
Y1791700D02*
D03*
X1355000D02*
D03*
X1335000D02*
D03*
Y1406700D02*
D03*
X1345000D02*
D03*
Y1396700D02*
D03*
X1355000D02*
D03*
X1335000D02*
D03*
D68*
X1355164Y327350D02*
D03*
X1378300Y309400D02*
D03*
X1382543Y313643D02*
D03*
X1305560Y181840D02*
D03*
X1275217Y337679D02*
D03*
X1274491Y343679D02*
D03*
X1329700Y281400D02*
D03*
X1351400Y266999D02*
D03*
X1278489Y265263D02*
D03*
X1379468Y323662D02*
D03*
X1354150Y315760D02*
D03*
X1346460Y299190D02*
D03*
Y293190D02*
D03*
X1343430Y307061D02*
D03*
X1358810Y311910D02*
D03*
X1363500Y360278D02*
D03*
X1358400Y367199D02*
D03*
X1343430Y313245D02*
D03*
X1343428Y332064D02*
D03*
X1284928Y328016D02*
D03*
X1272501Y331899D02*
D03*
X1366200Y244200D02*
D03*
X1313240Y235761D02*
D03*
X1297250Y259751D02*
D03*
X1322323Y360045D02*
D03*
X1317000Y385000D02*
D03*
X1333986Y373181D02*
D03*
X1383494Y425000D02*
D03*
X1296500Y401500D02*
D03*
X1300860Y406500D02*
D03*
X1314196Y406680D02*
D03*
X1321250Y401250D02*
D03*
X1336000Y384200D02*
D03*
X1340800Y380600D02*
D03*
X1349100Y362970D02*
D03*
X1355060Y356599D02*
D03*
X1339991Y371050D02*
D03*
X1385000Y402780D02*
D03*
X1360800Y423600D02*
D03*
X1345000Y427100D02*
D03*
X1343430Y353045D02*
D03*
X1353441Y337334D02*
D03*
X1321380Y264720D02*
D03*
X1346190Y248750D02*
D03*
X1323370Y437190D02*
D03*
X1275602Y322368D02*
D03*
X1270000Y300500D02*
D03*
X1350250Y204750D02*
D03*
X1331680Y437720D02*
D03*
X1362070Y398930D02*
D03*
X1281978Y364322D02*
D03*
X1304750Y415750D02*
D03*
X1320610Y431770D02*
D03*
X1247490Y241351D02*
D03*
X1311769Y180755D02*
D03*
X1340240Y160180D02*
D03*
X1316790Y141030D02*
D03*
X1404010Y217749D02*
D03*
X1329350Y417240D02*
D03*
X1382600Y171100D02*
D03*
X1382400Y156145D02*
D03*
X1373950Y170950D02*
D03*
X1364500Y194250D02*
D03*
X1276750Y294800D02*
D03*
X1402500Y240000D02*
D03*
X1393750D02*
D03*
X1365000Y177750D02*
D03*
X1245750Y258750D02*
D03*
X1272238Y265263D02*
D03*
X1319250Y227500D02*
D03*
X1272238Y248282D02*
D03*
X1278489D02*
D03*
X1256000Y300500D02*
D03*
X1249500Y325750D02*
D03*
X1256000Y294250D02*
D03*
X1263000Y300500D02*
D03*
Y294250D02*
D03*
X1270000D02*
D03*
X1261750Y188250D02*
D03*
X1255500D02*
D03*
X1297250Y207250D02*
D03*
X1391810Y211248D02*
D03*
X1355164Y722350D02*
D03*
X1378300Y704400D02*
D03*
X1382543Y708643D02*
D03*
X1305560Y576840D02*
D03*
X1275217Y732679D02*
D03*
X1274491Y738679D02*
D03*
X1329700Y676400D02*
D03*
X1351400Y662000D02*
D03*
X1278489Y660263D02*
D03*
X1379468Y718662D02*
D03*
X1354150Y710760D02*
D03*
X1346460Y694190D02*
D03*
Y688190D02*
D03*
X1343430Y702060D02*
D03*
X1358810Y706910D02*
D03*
X1363500Y755278D02*
D03*
X1358400Y762199D02*
D03*
X1343430Y708245D02*
D03*
X1343428Y727064D02*
D03*
X1284928Y723016D02*
D03*
X1272501Y726899D02*
D03*
X1366200Y639200D02*
D03*
X1313240Y630761D02*
D03*
X1297250Y654751D02*
D03*
X1322323Y755044D02*
D03*
X1317000Y780000D02*
D03*
X1333986Y768182D02*
D03*
X1383494Y820000D02*
D03*
X1296500Y796500D02*
D03*
X1300860Y801500D02*
D03*
X1314196Y801680D02*
D03*
X1321250Y796250D02*
D03*
X1336000Y779200D02*
D03*
X1340800Y775600D02*
D03*
X1349100Y757970D02*
D03*
X1355060Y751599D02*
D03*
X1339991Y766050D02*
D03*
X1385000Y797780D02*
D03*
X1360800Y818600D02*
D03*
X1345000Y822100D02*
D03*
X1343430Y748045D02*
D03*
X1353441Y732334D02*
D03*
X1321380Y659720D02*
D03*
X1346190Y643750D02*
D03*
X1323370Y832190D02*
D03*
X1275602Y717368D02*
D03*
X1270000Y695500D02*
D03*
X1350250Y599750D02*
D03*
X1331680Y832720D02*
D03*
X1362070Y793930D02*
D03*
X1281978Y759322D02*
D03*
X1304750Y810750D02*
D03*
X1320610Y826770D02*
D03*
X1247490Y636351D02*
D03*
X1311769Y575755D02*
D03*
X1340240Y555180D02*
D03*
X1316790Y536030D02*
D03*
X1404010Y612748D02*
D03*
X1329350Y812240D02*
D03*
X1382600Y566100D02*
D03*
X1382400Y551146D02*
D03*
X1373950Y565950D02*
D03*
X1364500Y589250D02*
D03*
X1276750Y689800D02*
D03*
X1402500Y635000D02*
D03*
X1393750D02*
D03*
X1365000Y572750D02*
D03*
X1245750Y653750D02*
D03*
X1272238Y660263D02*
D03*
X1319250Y622500D02*
D03*
X1272238Y643282D02*
D03*
X1278489D02*
D03*
X1256000Y695500D02*
D03*
X1249500Y720750D02*
D03*
X1256000Y689250D02*
D03*
X1263000Y695500D02*
D03*
Y689250D02*
D03*
X1270000D02*
D03*
X1261750Y583250D02*
D03*
X1255500D02*
D03*
X1297250Y602250D02*
D03*
X1391810Y606249D02*
D03*
X1355164Y1117350D02*
D03*
X1378300Y1099400D02*
D03*
X1382543Y1103643D02*
D03*
X1305560Y971840D02*
D03*
X1275217Y1127679D02*
D03*
X1274491Y1133679D02*
D03*
X1329700Y1071400D02*
D03*
X1351400Y1057000D02*
D03*
X1278489Y1055263D02*
D03*
X1379468Y1113662D02*
D03*
X1354150Y1105760D02*
D03*
X1346460Y1089190D02*
D03*
Y1083190D02*
D03*
X1343430Y1097060D02*
D03*
X1358810Y1101910D02*
D03*
X1363500Y1150278D02*
D03*
X1358400Y1157199D02*
D03*
X1343430Y1103245D02*
D03*
X1343428Y1122064D02*
D03*
X1284928Y1118016D02*
D03*
X1272501Y1121899D02*
D03*
X1366200Y1034200D02*
D03*
X1313240Y1025761D02*
D03*
X1297250Y1049751D02*
D03*
X1322323Y1150044D02*
D03*
X1317000Y1175000D02*
D03*
X1333986Y1163182D02*
D03*
X1383494Y1215000D02*
D03*
X1296500Y1191500D02*
D03*
X1300860Y1196500D02*
D03*
X1314196Y1196680D02*
D03*
X1321250Y1191250D02*
D03*
X1336000Y1174200D02*
D03*
X1340800Y1170600D02*
D03*
X1349100Y1152970D02*
D03*
X1355060Y1146599D02*
D03*
X1339991Y1161050D02*
D03*
X1385000Y1192780D02*
D03*
X1360800Y1213600D02*
D03*
X1345000Y1217100D02*
D03*
X1343430Y1143045D02*
D03*
X1353441Y1127334D02*
D03*
X1321380Y1054720D02*
D03*
X1346190Y1038750D02*
D03*
X1323370Y1227190D02*
D03*
X1275602Y1112368D02*
D03*
X1270000Y1090500D02*
D03*
X1350250Y994750D02*
D03*
X1331680Y1227720D02*
D03*
X1362070Y1188930D02*
D03*
X1281978Y1154322D02*
D03*
X1304750Y1205750D02*
D03*
X1320610Y1221770D02*
D03*
X1247490Y1031351D02*
D03*
X1311769Y970755D02*
D03*
X1340240Y950180D02*
D03*
X1316790Y931030D02*
D03*
X1404010Y1007748D02*
D03*
X1329350Y1207240D02*
D03*
X1382600Y961100D02*
D03*
X1382400Y946145D02*
D03*
X1373950Y960950D02*
D03*
X1364500Y984250D02*
D03*
X1276750Y1084800D02*
D03*
X1402500Y1030000D02*
D03*
X1393750D02*
D03*
X1365000Y967750D02*
D03*
X1245750Y1048750D02*
D03*
X1272238Y1055263D02*
D03*
X1319250Y1017500D02*
D03*
X1272238Y1038282D02*
D03*
X1278489D02*
D03*
X1256000Y1090500D02*
D03*
X1249500Y1115750D02*
D03*
X1256000Y1084250D02*
D03*
X1263000Y1090500D02*
D03*
Y1084250D02*
D03*
X1270000D02*
D03*
X1261750Y978250D02*
D03*
X1255500D02*
D03*
X1297250Y997250D02*
D03*
X1391810Y1001248D02*
D03*
X1072414Y327350D02*
D03*
X1095550Y309400D02*
D03*
X1099793Y313643D02*
D03*
X1022810Y181840D02*
D03*
X992467Y337679D02*
D03*
X991741Y343679D02*
D03*
X1046950Y281400D02*
D03*
X1068650Y266999D02*
D03*
X995739Y265263D02*
D03*
X1096718Y323662D02*
D03*
X1071400Y315760D02*
D03*
X1063710Y299190D02*
D03*
Y293190D02*
D03*
X1060680Y307061D02*
D03*
X1076060Y311910D02*
D03*
X1080750Y360278D02*
D03*
X1075650Y367199D02*
D03*
X1060680Y313245D02*
D03*
X1060678Y332064D02*
D03*
X1002178Y328016D02*
D03*
X989750Y331899D02*
D03*
X1083450Y244200D02*
D03*
X1030490Y235761D02*
D03*
X1014500Y259751D02*
D03*
X1039573Y360045D02*
D03*
X1034250Y385000D02*
D03*
X1051236Y373181D02*
D03*
X1100744Y425000D02*
D03*
X1013750Y401500D02*
D03*
X1018110Y406500D02*
D03*
X1031445Y406680D02*
D03*
X1038500Y401250D02*
D03*
X1053250Y384200D02*
D03*
X1058050Y380600D02*
D03*
X1066350Y362970D02*
D03*
X1072310Y356599D02*
D03*
X1057240Y371050D02*
D03*
X1102250Y402780D02*
D03*
X1078050Y423600D02*
D03*
X1062250Y427100D02*
D03*
X1060680Y353045D02*
D03*
X1070691Y337334D02*
D03*
X1038630Y264720D02*
D03*
X1063440Y248750D02*
D03*
X1040620Y437190D02*
D03*
X992852Y322368D02*
D03*
X987250Y300500D02*
D03*
X1067500Y204750D02*
D03*
X1048930Y437720D02*
D03*
X1079320Y398930D02*
D03*
X999228Y364322D02*
D03*
X1022000Y415750D02*
D03*
X1037860Y431770D02*
D03*
X964740Y241351D02*
D03*
X1029019Y180755D02*
D03*
X1057490Y160180D02*
D03*
X1034040Y141030D02*
D03*
X1121260Y217749D02*
D03*
X1046600Y417240D02*
D03*
X1099850Y171100D02*
D03*
X1099650Y156145D02*
D03*
X1091200Y170950D02*
D03*
X1081750Y194250D02*
D03*
X994000Y294800D02*
D03*
X1119750Y240000D02*
D03*
X1111000D02*
D03*
X1082250Y177750D02*
D03*
X963000Y258750D02*
D03*
X989488Y265263D02*
D03*
X1036500Y227500D02*
D03*
X989488Y248282D02*
D03*
X995739D02*
D03*
X973250Y300500D02*
D03*
X966750Y325750D02*
D03*
X973250Y294250D02*
D03*
X980250Y300500D02*
D03*
Y294250D02*
D03*
X987250D02*
D03*
X979000Y188250D02*
D03*
X972750D02*
D03*
X1014500Y207250D02*
D03*
X1109060Y211248D02*
D03*
X1072414Y722350D02*
D03*
X1095550Y704400D02*
D03*
X1099793Y708643D02*
D03*
X1022810Y576840D02*
D03*
X992467Y732679D02*
D03*
X991741Y738679D02*
D03*
X1046950Y676400D02*
D03*
X1068650Y662000D02*
D03*
X995739Y660263D02*
D03*
X1096718Y718662D02*
D03*
X1071400Y710760D02*
D03*
X1063710Y694190D02*
D03*
Y688190D02*
D03*
X1060680Y702060D02*
D03*
X1076060Y706910D02*
D03*
X1080750Y755278D02*
D03*
X1075650Y762199D02*
D03*
X1060680Y708245D02*
D03*
X1060678Y727064D02*
D03*
X1002178Y723016D02*
D03*
X989750Y726899D02*
D03*
X1083450Y639200D02*
D03*
X1030490Y630761D02*
D03*
X1014500Y654751D02*
D03*
X1039573Y755044D02*
D03*
X1034250Y780000D02*
D03*
X1051236Y768182D02*
D03*
X1100744Y820000D02*
D03*
X1013750Y796500D02*
D03*
X1018110Y801500D02*
D03*
X1031445Y801680D02*
D03*
X1038500Y796250D02*
D03*
X1053250Y779200D02*
D03*
X1058050Y775600D02*
D03*
X1066350Y757970D02*
D03*
X1072310Y751599D02*
D03*
X1057240Y766050D02*
D03*
X1102250Y797780D02*
D03*
X1078050Y818600D02*
D03*
X1062250Y822100D02*
D03*
X1060680Y748045D02*
D03*
X1070691Y732334D02*
D03*
X1038630Y659720D02*
D03*
X1063440Y643750D02*
D03*
X1040620Y832190D02*
D03*
X992852Y717368D02*
D03*
X987250Y695500D02*
D03*
X1067500Y599750D02*
D03*
X1048930Y832720D02*
D03*
X1079320Y793930D02*
D03*
X999228Y759322D02*
D03*
X1022000Y810750D02*
D03*
X1037860Y826770D02*
D03*
X964740Y636351D02*
D03*
X1029019Y575755D02*
D03*
X1057490Y555180D02*
D03*
X1034040Y536030D02*
D03*
X1121260Y612748D02*
D03*
X1046600Y812240D02*
D03*
X1099850Y566100D02*
D03*
X1099650Y551146D02*
D03*
X1091200Y565950D02*
D03*
X1081750Y589250D02*
D03*
X994000Y689800D02*
D03*
X1119750Y635000D02*
D03*
X1111000D02*
D03*
X1082250Y572750D02*
D03*
X963000Y653750D02*
D03*
X989488Y660263D02*
D03*
X1036500Y622500D02*
D03*
X989488Y643282D02*
D03*
X995739D02*
D03*
X973250Y695500D02*
D03*
X966750Y720750D02*
D03*
X973250Y689250D02*
D03*
X980250Y695500D02*
D03*
Y689250D02*
D03*
X987250D02*
D03*
X979000Y583250D02*
D03*
X972750D02*
D03*
X1014500Y602250D02*
D03*
X1109060Y606249D02*
D03*
X1072414Y1117350D02*
D03*
X1095550Y1099400D02*
D03*
X1099793Y1103643D02*
D03*
X1022810Y971840D02*
D03*
X992467Y1127679D02*
D03*
X991741Y1133679D02*
D03*
X1046950Y1071400D02*
D03*
X1068650Y1057000D02*
D03*
X995739Y1055263D02*
D03*
X1096718Y1113662D02*
D03*
X1071400Y1105760D02*
D03*
X1063710Y1089190D02*
D03*
Y1083190D02*
D03*
X1060680Y1097060D02*
D03*
X1076060Y1101910D02*
D03*
X1080750Y1150278D02*
D03*
X1075650Y1157199D02*
D03*
X1060680Y1103245D02*
D03*
X1060678Y1122064D02*
D03*
X1002178Y1118016D02*
D03*
X989750Y1121899D02*
D03*
X1083450Y1034200D02*
D03*
X1030490Y1025761D02*
D03*
X1014500Y1049751D02*
D03*
X1039573Y1150044D02*
D03*
X1034250Y1175000D02*
D03*
X1051236Y1163182D02*
D03*
X1100744Y1215000D02*
D03*
X1013750Y1191500D02*
D03*
X1018110Y1196500D02*
D03*
X1031445Y1196680D02*
D03*
X1038500Y1191250D02*
D03*
X1053250Y1174200D02*
D03*
X1058050Y1170600D02*
D03*
X1066350Y1152970D02*
D03*
X1072310Y1146599D02*
D03*
X1057240Y1161050D02*
D03*
X1102250Y1192780D02*
D03*
X1078050Y1213600D02*
D03*
X1062250Y1217100D02*
D03*
X1060680Y1143045D02*
D03*
X1070691Y1127334D02*
D03*
X1038630Y1054720D02*
D03*
X1063440Y1038750D02*
D03*
X1040620Y1227190D02*
D03*
X992852Y1112368D02*
D03*
X987250Y1090500D02*
D03*
X1067500Y994750D02*
D03*
X1048930Y1227720D02*
D03*
X1079320Y1188930D02*
D03*
X999228Y1154322D02*
D03*
X1022000Y1205750D02*
D03*
X1037860Y1221770D02*
D03*
X964740Y1031351D02*
D03*
X1029019Y970755D02*
D03*
X1057490Y950180D02*
D03*
X1034040Y931030D02*
D03*
X1121260Y1007748D02*
D03*
X1046600Y1207240D02*
D03*
X1099850Y961100D02*
D03*
X1099650Y946145D02*
D03*
X1091200Y960950D02*
D03*
X1081750Y984250D02*
D03*
X994000Y1084800D02*
D03*
X1119750Y1030000D02*
D03*
X1111000D02*
D03*
X1082250Y967750D02*
D03*
X963000Y1048750D02*
D03*
X989488Y1055263D02*
D03*
X1036500Y1017500D02*
D03*
X989488Y1038282D02*
D03*
X995739D02*
D03*
X973250Y1090500D02*
D03*
X966750Y1115750D02*
D03*
X973250Y1084250D02*
D03*
X980250Y1090500D02*
D03*
Y1084250D02*
D03*
X987250D02*
D03*
X979000Y978250D02*
D03*
X972750D02*
D03*
X1014500Y997250D02*
D03*
X1109060Y1001248D02*
D03*
X789664Y327350D02*
D03*
X812800Y309400D02*
D03*
X817042Y313643D02*
D03*
X740060Y181840D02*
D03*
X709717Y337679D02*
D03*
X708991Y343679D02*
D03*
X764200Y281400D02*
D03*
X785900Y266999D02*
D03*
X712989Y265263D02*
D03*
X813968Y323662D02*
D03*
X788650Y315760D02*
D03*
X780960Y299190D02*
D03*
Y293190D02*
D03*
X777930Y307061D02*
D03*
X793310Y311910D02*
D03*
X798000Y360278D02*
D03*
X792900Y367199D02*
D03*
X777930Y313245D02*
D03*
X777928Y332064D02*
D03*
X719427Y328016D02*
D03*
X707000Y331899D02*
D03*
X800700Y244200D02*
D03*
X747740Y235761D02*
D03*
X731750Y259751D02*
D03*
X756823Y360045D02*
D03*
X751500Y385000D02*
D03*
X768486Y373181D02*
D03*
X817994Y425000D02*
D03*
X731000Y401500D02*
D03*
X735360Y406500D02*
D03*
X748695Y406680D02*
D03*
X755750Y401250D02*
D03*
X770500Y384200D02*
D03*
X775300Y380600D02*
D03*
X783600Y362970D02*
D03*
X789560Y356599D02*
D03*
X774490Y371050D02*
D03*
X819500Y402780D02*
D03*
X795300Y423600D02*
D03*
X779500Y427100D02*
D03*
X777930Y353045D02*
D03*
X787941Y337334D02*
D03*
X755880Y264720D02*
D03*
X780690Y248750D02*
D03*
X757870Y437190D02*
D03*
X710102Y322368D02*
D03*
X704500Y300500D02*
D03*
X784750Y204750D02*
D03*
X766180Y437720D02*
D03*
X796570Y398930D02*
D03*
X716478Y364322D02*
D03*
X739250Y415750D02*
D03*
X755110Y431770D02*
D03*
X681990Y241351D02*
D03*
X746269Y180755D02*
D03*
X774740Y160180D02*
D03*
X751290Y141030D02*
D03*
X838510Y217749D02*
D03*
X763850Y417240D02*
D03*
X817100Y171100D02*
D03*
X816900Y156145D02*
D03*
X808450Y170950D02*
D03*
X799000Y194250D02*
D03*
X711250Y294800D02*
D03*
X837000Y240000D02*
D03*
X828250D02*
D03*
X799500Y177750D02*
D03*
X680250Y258750D02*
D03*
X706738Y265263D02*
D03*
X753750Y227500D02*
D03*
X706738Y248282D02*
D03*
X712989D02*
D03*
X690500Y300500D02*
D03*
X684000Y325750D02*
D03*
X690500Y294250D02*
D03*
X697500Y300500D02*
D03*
Y294250D02*
D03*
X704500D02*
D03*
X696250Y188250D02*
D03*
X690000D02*
D03*
X731750Y207250D02*
D03*
X826310Y211248D02*
D03*
X789664Y722350D02*
D03*
X812800Y704400D02*
D03*
X817042Y708643D02*
D03*
X740060Y576840D02*
D03*
X709717Y732679D02*
D03*
X708991Y738679D02*
D03*
X764200Y676400D02*
D03*
X785900Y662000D02*
D03*
X712989Y660263D02*
D03*
X813968Y718662D02*
D03*
X788650Y710760D02*
D03*
X780960Y694190D02*
D03*
Y688190D02*
D03*
X777930Y702060D02*
D03*
X793310Y706910D02*
D03*
X798000Y755278D02*
D03*
X792900Y762199D02*
D03*
X777930Y708245D02*
D03*
X777928Y727064D02*
D03*
X719427Y723016D02*
D03*
X707000Y726899D02*
D03*
X800700Y639200D02*
D03*
X747740Y630761D02*
D03*
X731750Y654751D02*
D03*
X756823Y755044D02*
D03*
X751500Y780000D02*
D03*
X768486Y768182D02*
D03*
X817994Y820000D02*
D03*
X731000Y796500D02*
D03*
X735360Y801500D02*
D03*
X748695Y801680D02*
D03*
X755750Y796250D02*
D03*
X770500Y779200D02*
D03*
X775300Y775600D02*
D03*
X783600Y757970D02*
D03*
X789560Y751599D02*
D03*
X774490Y766050D02*
D03*
X819500Y797780D02*
D03*
X795300Y818600D02*
D03*
X779500Y822100D02*
D03*
X777930Y748045D02*
D03*
X787941Y732334D02*
D03*
X755880Y659720D02*
D03*
X780690Y643750D02*
D03*
X757870Y832190D02*
D03*
X710102Y717368D02*
D03*
X704500Y695500D02*
D03*
X784750Y599750D02*
D03*
X766180Y832720D02*
D03*
X796570Y793930D02*
D03*
X716478Y759322D02*
D03*
X739250Y810750D02*
D03*
X755110Y826770D02*
D03*
X681990Y636351D02*
D03*
X746269Y575755D02*
D03*
X774740Y555180D02*
D03*
X751290Y536030D02*
D03*
X838510Y612748D02*
D03*
X763850Y812240D02*
D03*
X817100Y566100D02*
D03*
X816900Y551146D02*
D03*
X808450Y565950D02*
D03*
X799000Y589250D02*
D03*
X711250Y689800D02*
D03*
X837000Y635000D02*
D03*
X828250D02*
D03*
X799500Y572750D02*
D03*
X680250Y653750D02*
D03*
X706738Y660263D02*
D03*
X753750Y622500D02*
D03*
X706738Y643282D02*
D03*
X712989D02*
D03*
X690500Y695500D02*
D03*
X684000Y720750D02*
D03*
X690500Y689250D02*
D03*
X697500Y695500D02*
D03*
Y689250D02*
D03*
X704500D02*
D03*
X696250Y583250D02*
D03*
X690000D02*
D03*
X731750Y602250D02*
D03*
X826310Y606249D02*
D03*
X789664Y1117350D02*
D03*
X812800Y1099400D02*
D03*
X817042Y1103643D02*
D03*
X740060Y971840D02*
D03*
X709717Y1127679D02*
D03*
X708991Y1133679D02*
D03*
X764200Y1071400D02*
D03*
X785900Y1057000D02*
D03*
X712989Y1055263D02*
D03*
X813968Y1113662D02*
D03*
X788650Y1105760D02*
D03*
X780960Y1089190D02*
D03*
Y1083190D02*
D03*
X777930Y1097060D02*
D03*
X793310Y1101910D02*
D03*
X798000Y1150278D02*
D03*
X792900Y1157199D02*
D03*
X777930Y1103245D02*
D03*
X777928Y1122064D02*
D03*
X719427Y1118016D02*
D03*
X707000Y1121899D02*
D03*
X800700Y1034200D02*
D03*
X747740Y1025761D02*
D03*
X731750Y1049751D02*
D03*
X756823Y1150044D02*
D03*
X751500Y1175000D02*
D03*
X768486Y1163182D02*
D03*
X817994Y1215000D02*
D03*
X731000Y1191500D02*
D03*
X735360Y1196500D02*
D03*
X748695Y1196680D02*
D03*
X755750Y1191250D02*
D03*
X770500Y1174200D02*
D03*
X775300Y1170600D02*
D03*
X783600Y1152970D02*
D03*
X789560Y1146599D02*
D03*
X774490Y1161050D02*
D03*
X819500Y1192780D02*
D03*
X795300Y1213600D02*
D03*
X779500Y1217100D02*
D03*
X777930Y1143045D02*
D03*
X787941Y1127334D02*
D03*
X755880Y1054720D02*
D03*
X780690Y1038750D02*
D03*
X757870Y1227190D02*
D03*
X710102Y1112368D02*
D03*
X704500Y1090500D02*
D03*
X784750Y994750D02*
D03*
X766180Y1227720D02*
D03*
X796570Y1188930D02*
D03*
X716478Y1154322D02*
D03*
X739250Y1205750D02*
D03*
X755110Y1221770D02*
D03*
X681990Y1031351D02*
D03*
X746269Y970755D02*
D03*
X774740Y950180D02*
D03*
X751290Y931030D02*
D03*
X838510Y1007748D02*
D03*
X763850Y1207240D02*
D03*
X817100Y961100D02*
D03*
X816900Y946145D02*
D03*
X808450Y960950D02*
D03*
X799000Y984250D02*
D03*
X711250Y1084800D02*
D03*
X837000Y1030000D02*
D03*
X828250D02*
D03*
X799500Y967750D02*
D03*
X680250Y1048750D02*
D03*
X706738Y1055263D02*
D03*
X753750Y1017500D02*
D03*
X706738Y1038282D02*
D03*
X712989D02*
D03*
X690500Y1090500D02*
D03*
X684000Y1115750D02*
D03*
X690500Y1084250D02*
D03*
X697500Y1090500D02*
D03*
Y1084250D02*
D03*
X704500D02*
D03*
X696250Y978250D02*
D03*
X690000D02*
D03*
X731750Y997250D02*
D03*
X826310Y1001248D02*
D03*
X506914Y327350D02*
D03*
X530050Y309400D02*
D03*
X534292Y313643D02*
D03*
X457310Y181840D02*
D03*
X426967Y337679D02*
D03*
X426241Y343679D02*
D03*
X481450Y281400D02*
D03*
X503150Y266999D02*
D03*
X430238Y265263D02*
D03*
X531218Y323662D02*
D03*
X505900Y315760D02*
D03*
X498210Y299190D02*
D03*
Y293190D02*
D03*
X495180Y307061D02*
D03*
X510560Y311910D02*
D03*
X515250Y360278D02*
D03*
X510150Y367199D02*
D03*
X495180Y313245D02*
D03*
X495178Y332064D02*
D03*
X436677Y328016D02*
D03*
X424250Y331899D02*
D03*
X517950Y244200D02*
D03*
X464990Y235761D02*
D03*
X449000Y259751D02*
D03*
X474073Y360045D02*
D03*
X468750Y385000D02*
D03*
X485736Y373181D02*
D03*
X535244Y425000D02*
D03*
X448250Y401500D02*
D03*
X452610Y406500D02*
D03*
X465945Y406680D02*
D03*
X473000Y401250D02*
D03*
X487750Y384200D02*
D03*
X492550Y380600D02*
D03*
X500850Y362970D02*
D03*
X506810Y356599D02*
D03*
X491740Y371050D02*
D03*
X536750Y402780D02*
D03*
X512550Y423600D02*
D03*
X496750Y427100D02*
D03*
X495180Y353045D02*
D03*
X505191Y337334D02*
D03*
X473130Y264720D02*
D03*
X497940Y248750D02*
D03*
X475120Y437190D02*
D03*
X427352Y322368D02*
D03*
X421750Y300500D02*
D03*
X502000Y204750D02*
D03*
X483430Y437720D02*
D03*
X513820Y398930D02*
D03*
X433728Y364322D02*
D03*
X456500Y415750D02*
D03*
X472360Y431770D02*
D03*
X399240Y241351D02*
D03*
X463519Y180755D02*
D03*
X491990Y160180D02*
D03*
X468540Y141030D02*
D03*
X555760Y217749D02*
D03*
X481100Y417240D02*
D03*
X534350Y171100D02*
D03*
X534150Y156145D02*
D03*
X525700Y170950D02*
D03*
X516250Y194250D02*
D03*
X428500Y294800D02*
D03*
X554250Y240000D02*
D03*
X545500D02*
D03*
X516750Y177750D02*
D03*
X397500Y258750D02*
D03*
X423988Y265263D02*
D03*
X471000Y227500D02*
D03*
X423988Y248282D02*
D03*
X430238D02*
D03*
X407750Y300500D02*
D03*
X401250Y325750D02*
D03*
X407750Y294250D02*
D03*
X414750Y300500D02*
D03*
Y294250D02*
D03*
X421750D02*
D03*
X413500Y188250D02*
D03*
X407250D02*
D03*
X449000Y207250D02*
D03*
X543560Y211248D02*
D03*
X506914Y722350D02*
D03*
X530050Y704400D02*
D03*
X534292Y708643D02*
D03*
X457310Y576840D02*
D03*
X426967Y732679D02*
D03*
X426241Y738679D02*
D03*
X481450Y676400D02*
D03*
X503150Y662000D02*
D03*
X430238Y660263D02*
D03*
X531218Y718662D02*
D03*
X505900Y710760D02*
D03*
X498210Y694190D02*
D03*
Y688190D02*
D03*
X495180Y702060D02*
D03*
X510560Y706910D02*
D03*
X515250Y755278D02*
D03*
X510150Y762199D02*
D03*
X495180Y708245D02*
D03*
X495178Y727064D02*
D03*
X436677Y723016D02*
D03*
X424250Y726899D02*
D03*
X517950Y639200D02*
D03*
X464990Y630761D02*
D03*
X449000Y654751D02*
D03*
X474073Y755044D02*
D03*
X468750Y780000D02*
D03*
X485736Y768182D02*
D03*
X535244Y820000D02*
D03*
X448250Y796500D02*
D03*
X452610Y801500D02*
D03*
X465945Y801680D02*
D03*
X473000Y796250D02*
D03*
X487750Y779200D02*
D03*
X492550Y775600D02*
D03*
X500850Y757970D02*
D03*
X506810Y751599D02*
D03*
X491740Y766050D02*
D03*
X536750Y797780D02*
D03*
X512550Y818600D02*
D03*
X496750Y822100D02*
D03*
X495180Y748045D02*
D03*
X505191Y732334D02*
D03*
X473130Y659720D02*
D03*
X497940Y643750D02*
D03*
X475120Y832190D02*
D03*
X427352Y717368D02*
D03*
X421750Y695500D02*
D03*
X502000Y599750D02*
D03*
X483430Y832720D02*
D03*
X513820Y793930D02*
D03*
X433728Y759322D02*
D03*
X456500Y810750D02*
D03*
X472360Y826770D02*
D03*
X399240Y636351D02*
D03*
X463519Y575755D02*
D03*
X491990Y555180D02*
D03*
X468540Y536030D02*
D03*
X555760Y612748D02*
D03*
X481100Y812240D02*
D03*
X534350Y566100D02*
D03*
X534150Y551146D02*
D03*
X525700Y565950D02*
D03*
X516250Y589250D02*
D03*
X428500Y689800D02*
D03*
X554250Y635000D02*
D03*
X545500D02*
D03*
X516750Y572750D02*
D03*
X397500Y653750D02*
D03*
X423988Y660263D02*
D03*
X471000Y622500D02*
D03*
X423988Y643282D02*
D03*
X430238D02*
D03*
X407750Y695500D02*
D03*
X401250Y720750D02*
D03*
X407750Y689250D02*
D03*
X414750Y695500D02*
D03*
Y689250D02*
D03*
X421750D02*
D03*
X413500Y583250D02*
D03*
X407250D02*
D03*
X449000Y602250D02*
D03*
X543560Y606249D02*
D03*
X506914Y1117350D02*
D03*
X530050Y1099400D02*
D03*
X534292Y1103643D02*
D03*
X457310Y971840D02*
D03*
X426967Y1127679D02*
D03*
X426241Y1133679D02*
D03*
X481450Y1071400D02*
D03*
X503150Y1057000D02*
D03*
X430238Y1055263D02*
D03*
X531218Y1113662D02*
D03*
X505900Y1105760D02*
D03*
X498210Y1089190D02*
D03*
Y1083190D02*
D03*
X495180Y1097060D02*
D03*
X510560Y1101910D02*
D03*
X515250Y1150278D02*
D03*
X510150Y1157199D02*
D03*
X495180Y1103245D02*
D03*
X495178Y1122064D02*
D03*
X436677Y1118016D02*
D03*
X424250Y1121899D02*
D03*
X517950Y1034200D02*
D03*
X464990Y1025761D02*
D03*
X449000Y1049751D02*
D03*
X474073Y1150044D02*
D03*
X468750Y1175000D02*
D03*
X485736Y1163182D02*
D03*
X535244Y1215000D02*
D03*
X448250Y1191500D02*
D03*
X452610Y1196500D02*
D03*
X465945Y1196680D02*
D03*
X473000Y1191250D02*
D03*
X487750Y1174200D02*
D03*
X492550Y1170600D02*
D03*
X500850Y1152970D02*
D03*
X506810Y1146599D02*
D03*
X491740Y1161050D02*
D03*
X536750Y1192780D02*
D03*
X512550Y1213600D02*
D03*
X496750Y1217100D02*
D03*
X495180Y1143045D02*
D03*
X505191Y1127334D02*
D03*
X473130Y1054720D02*
D03*
X497940Y1038750D02*
D03*
X475120Y1227190D02*
D03*
X427352Y1112368D02*
D03*
X421750Y1090500D02*
D03*
X502000Y994750D02*
D03*
X483430Y1227720D02*
D03*
X513820Y1188930D02*
D03*
X433728Y1154322D02*
D03*
X456500Y1205750D02*
D03*
X472360Y1221770D02*
D03*
X399240Y1031351D02*
D03*
X463519Y970755D02*
D03*
X491990Y950180D02*
D03*
X468540Y931030D02*
D03*
X555760Y1007748D02*
D03*
X481100Y1207240D02*
D03*
X534350Y961100D02*
D03*
X534150Y946145D02*
D03*
X525700Y960950D02*
D03*
X516250Y984250D02*
D03*
X428500Y1084800D02*
D03*
X554250Y1030000D02*
D03*
X545500D02*
D03*
X516750Y967750D02*
D03*
X397500Y1048750D02*
D03*
X423988Y1055263D02*
D03*
X471000Y1017500D02*
D03*
X423988Y1038282D02*
D03*
X430238D02*
D03*
X407750Y1090500D02*
D03*
X401250Y1115750D02*
D03*
X407750Y1084250D02*
D03*
X414750Y1090500D02*
D03*
Y1084250D02*
D03*
X421750D02*
D03*
X413500Y978250D02*
D03*
X407250D02*
D03*
X449000Y997250D02*
D03*
X543560Y1001248D02*
D03*
X224164Y327350D02*
D03*
X247300Y309400D02*
D03*
X251542Y313643D02*
D03*
X174560Y181840D02*
D03*
X144217Y337679D02*
D03*
X143490Y343679D02*
D03*
X198700Y281400D02*
D03*
X220400Y266999D02*
D03*
X147488Y265263D02*
D03*
X248468Y323662D02*
D03*
X223150Y315760D02*
D03*
X215460Y299190D02*
D03*
Y293190D02*
D03*
X212430Y307061D02*
D03*
X227810Y311910D02*
D03*
X232500Y360278D02*
D03*
X227400Y367199D02*
D03*
X212430Y313245D02*
D03*
X212428Y332064D02*
D03*
X153927Y328016D02*
D03*
X141500Y331899D02*
D03*
X235200Y244200D02*
D03*
X182240Y235761D02*
D03*
X166250Y259751D02*
D03*
X191323Y360045D02*
D03*
X186000Y385000D02*
D03*
X202986Y373181D02*
D03*
X252493Y425000D02*
D03*
X165500Y401500D02*
D03*
X169860Y406500D02*
D03*
X183195Y406680D02*
D03*
X190250Y401250D02*
D03*
X205000Y384200D02*
D03*
X209800Y380600D02*
D03*
X218100Y362970D02*
D03*
X224060Y356599D02*
D03*
X208990Y371050D02*
D03*
X254000Y402780D02*
D03*
X229800Y423600D02*
D03*
X214000Y427100D02*
D03*
X212430Y353045D02*
D03*
X222440Y337334D02*
D03*
X190380Y264720D02*
D03*
X215190Y248750D02*
D03*
X192370Y437190D02*
D03*
X144602Y322368D02*
D03*
X139000Y300500D02*
D03*
X219250Y204750D02*
D03*
X200680Y437720D02*
D03*
X231070Y398930D02*
D03*
X150978Y364322D02*
D03*
X173750Y415750D02*
D03*
X189610Y431770D02*
D03*
X116490Y241351D02*
D03*
X180769Y180755D02*
D03*
X209240Y160180D02*
D03*
X185790Y141030D02*
D03*
X273010Y217749D02*
D03*
X198350Y417240D02*
D03*
X251600Y171100D02*
D03*
X251400Y156145D02*
D03*
X242950Y170950D02*
D03*
X233500Y194250D02*
D03*
X145750Y294800D02*
D03*
X271500Y240000D02*
D03*
X262750D02*
D03*
X234000Y177750D02*
D03*
X114750Y258750D02*
D03*
X141238Y265263D02*
D03*
X188250Y227500D02*
D03*
X141238Y248282D02*
D03*
X147488D02*
D03*
X125000Y300500D02*
D03*
X118500Y325750D02*
D03*
X125000Y294250D02*
D03*
X132000Y300500D02*
D03*
Y294250D02*
D03*
X139000D02*
D03*
X130750Y188250D02*
D03*
X124500D02*
D03*
X166250Y207250D02*
D03*
X260810Y211248D02*
D03*
X224164Y722350D02*
D03*
X247300Y704400D02*
D03*
X251542Y708643D02*
D03*
X174560Y576840D02*
D03*
X144217Y732679D02*
D03*
X143490Y738679D02*
D03*
X198700Y676400D02*
D03*
X220400Y662000D02*
D03*
X147488Y660263D02*
D03*
X248468Y718662D02*
D03*
X223150Y710760D02*
D03*
X215460Y694190D02*
D03*
Y688190D02*
D03*
X212430Y702060D02*
D03*
X227810Y706910D02*
D03*
X232500Y755278D02*
D03*
X227400Y762199D02*
D03*
X212430Y708245D02*
D03*
X212428Y727064D02*
D03*
X153927Y723016D02*
D03*
X141500Y726899D02*
D03*
X235200Y639200D02*
D03*
X182240Y630761D02*
D03*
X166250Y654751D02*
D03*
X191323Y755044D02*
D03*
X186000Y780000D02*
D03*
X202986Y768182D02*
D03*
X252493Y820000D02*
D03*
X165500Y796500D02*
D03*
X169860Y801500D02*
D03*
X183195Y801680D02*
D03*
X190250Y796250D02*
D03*
X205000Y779200D02*
D03*
X209800Y775600D02*
D03*
X218100Y757970D02*
D03*
X224060Y751599D02*
D03*
X208990Y766050D02*
D03*
X254000Y797780D02*
D03*
X229800Y818600D02*
D03*
X214000Y822100D02*
D03*
X212430Y748045D02*
D03*
X222440Y732334D02*
D03*
X190380Y659720D02*
D03*
X215190Y643750D02*
D03*
X192370Y832190D02*
D03*
X144602Y717368D02*
D03*
X139000Y695500D02*
D03*
X219250Y599750D02*
D03*
X200680Y832720D02*
D03*
X231070Y793930D02*
D03*
X150978Y759322D02*
D03*
X173750Y810750D02*
D03*
X189610Y826770D02*
D03*
X116490Y636351D02*
D03*
X180769Y575755D02*
D03*
X209240Y555180D02*
D03*
X185790Y536030D02*
D03*
X273010Y612748D02*
D03*
X198350Y812240D02*
D03*
X251600Y566100D02*
D03*
X251400Y551146D02*
D03*
X242950Y565950D02*
D03*
X233500Y589250D02*
D03*
X145750Y689800D02*
D03*
X271500Y635000D02*
D03*
X262750D02*
D03*
X234000Y572750D02*
D03*
X114750Y653750D02*
D03*
X141238Y660263D02*
D03*
X188250Y622500D02*
D03*
X141238Y643282D02*
D03*
X147488D02*
D03*
X125000Y695500D02*
D03*
X118500Y720750D02*
D03*
X125000Y689250D02*
D03*
X132000Y695500D02*
D03*
Y689250D02*
D03*
X139000D02*
D03*
X130750Y583250D02*
D03*
X124500D02*
D03*
X166250Y602250D02*
D03*
X260810Y606249D02*
D03*
X224164Y1117350D02*
D03*
X247300Y1099400D02*
D03*
X251542Y1103643D02*
D03*
X174560Y971840D02*
D03*
X144217Y1127679D02*
D03*
X143490Y1133679D02*
D03*
X198700Y1071400D02*
D03*
X220400Y1057000D02*
D03*
X147488Y1055263D02*
D03*
X248468Y1113662D02*
D03*
X223150Y1105760D02*
D03*
X215460Y1089190D02*
D03*
Y1083190D02*
D03*
X212430Y1097060D02*
D03*
X227810Y1101910D02*
D03*
X232500Y1150278D02*
D03*
X227400Y1157199D02*
D03*
X212430Y1103245D02*
D03*
X212428Y1122064D02*
D03*
X153927Y1118016D02*
D03*
X141500Y1121899D02*
D03*
X235200Y1034200D02*
D03*
X182240Y1025761D02*
D03*
X166250Y1049751D02*
D03*
X191323Y1150044D02*
D03*
X186000Y1175000D02*
D03*
X202986Y1163182D02*
D03*
X252493Y1215000D02*
D03*
X165500Y1191500D02*
D03*
X169860Y1196500D02*
D03*
X183195Y1196680D02*
D03*
X190250Y1191250D02*
D03*
X205000Y1174200D02*
D03*
X209800Y1170600D02*
D03*
X218100Y1152970D02*
D03*
X224060Y1146599D02*
D03*
X208990Y1161050D02*
D03*
X254000Y1192780D02*
D03*
X229800Y1213600D02*
D03*
X214000Y1217100D02*
D03*
X212430Y1143045D02*
D03*
X222440Y1127334D02*
D03*
X190380Y1054720D02*
D03*
X215190Y1038750D02*
D03*
X192370Y1227190D02*
D03*
X144602Y1112368D02*
D03*
X139000Y1090500D02*
D03*
X219250Y994750D02*
D03*
X200680Y1227720D02*
D03*
X231070Y1188930D02*
D03*
X150978Y1154322D02*
D03*
X173750Y1205750D02*
D03*
X189610Y1221770D02*
D03*
X116490Y1031351D02*
D03*
X180769Y970755D02*
D03*
X209240Y950180D02*
D03*
X185790Y931030D02*
D03*
X273010Y1007748D02*
D03*
X198350Y1207240D02*
D03*
X251600Y961100D02*
D03*
X251400Y946145D02*
D03*
X242950Y960950D02*
D03*
X233500Y984250D02*
D03*
X145750Y1084800D02*
D03*
X271500Y1030000D02*
D03*
X262750D02*
D03*
X234000Y967750D02*
D03*
X114750Y1048750D02*
D03*
X141238Y1055263D02*
D03*
X188250Y1017500D02*
D03*
X141238Y1038282D02*
D03*
X147488D02*
D03*
X125000Y1090500D02*
D03*
X118500Y1115750D02*
D03*
X125000Y1084250D02*
D03*
X132000Y1090500D02*
D03*
Y1084250D02*
D03*
X139000D02*
D03*
X130750Y978250D02*
D03*
X124500D02*
D03*
X166250Y997250D02*
D03*
X260810Y1001248D02*
D03*
X154836Y2147650D02*
D03*
X131700Y2165600D02*
D03*
X127457Y2161357D02*
D03*
X204440Y2293160D02*
D03*
X234783Y2137321D02*
D03*
X235509Y2131321D02*
D03*
X180300Y2193600D02*
D03*
X158600Y2208000D02*
D03*
X231511Y2209737D02*
D03*
X130532Y2151338D02*
D03*
X155850Y2159240D02*
D03*
X163540Y2175810D02*
D03*
Y2181810D02*
D03*
X166570Y2167939D02*
D03*
X151190Y2163090D02*
D03*
X146500Y2114722D02*
D03*
X151600Y2107801D02*
D03*
X166570Y2161755D02*
D03*
X166572Y2142936D02*
D03*
X225072Y2146984D02*
D03*
X237500Y2143101D02*
D03*
X143800Y2230800D02*
D03*
X196760Y2239239D02*
D03*
X212750Y2215249D02*
D03*
X187677Y2114955D02*
D03*
X193000Y2090000D02*
D03*
X176014Y2101819D02*
D03*
X126506Y2050000D02*
D03*
X213500Y2073500D02*
D03*
X209139Y2068500D02*
D03*
X195805Y2068320D02*
D03*
X188750Y2073750D02*
D03*
X174000Y2090800D02*
D03*
X169200Y2094400D02*
D03*
X160900Y2112030D02*
D03*
X154940Y2118401D02*
D03*
X170009Y2103950D02*
D03*
X125000Y2072220D02*
D03*
X149200Y2051400D02*
D03*
X165000Y2047900D02*
D03*
X166570Y2121955D02*
D03*
X156559Y2137666D02*
D03*
X188620Y2210280D02*
D03*
X163810Y2226250D02*
D03*
X186630Y2037810D02*
D03*
X234398Y2152632D02*
D03*
X240000Y2174500D02*
D03*
X159750Y2270250D02*
D03*
X178320Y2037280D02*
D03*
X147930Y2076070D02*
D03*
X228022Y2110678D02*
D03*
X205250Y2059250D02*
D03*
X189390Y2043230D02*
D03*
X262510Y2233649D02*
D03*
X198231Y2294245D02*
D03*
X169760Y2314820D02*
D03*
X193210Y2333970D02*
D03*
X105990Y2257251D02*
D03*
X180650Y2057760D02*
D03*
X127400Y2303900D02*
D03*
X127600Y2318855D02*
D03*
X136050Y2304050D02*
D03*
X145500Y2280750D02*
D03*
X233250Y2180200D02*
D03*
X107500Y2235000D02*
D03*
X116250D02*
D03*
X145000Y2297250D02*
D03*
X264250Y2216250D02*
D03*
X237762Y2209737D02*
D03*
X190750Y2247500D02*
D03*
X237762Y2226718D02*
D03*
X231511D02*
D03*
X254000Y2174500D02*
D03*
X260500Y2149250D02*
D03*
X254000Y2180750D02*
D03*
X247000Y2174500D02*
D03*
Y2180750D02*
D03*
X240000D02*
D03*
X248250Y2286750D02*
D03*
X254500D02*
D03*
X212750Y2267750D02*
D03*
X118190Y2263752D02*
D03*
X154836Y1752650D02*
D03*
X131700Y1770600D02*
D03*
X127457Y1766357D02*
D03*
X204440Y1898160D02*
D03*
X234783Y1742321D02*
D03*
X235509Y1736321D02*
D03*
X180300Y1798600D02*
D03*
X158600Y1813000D02*
D03*
X231511Y1814737D02*
D03*
X130532Y1756338D02*
D03*
X155850Y1764240D02*
D03*
X163540Y1780810D02*
D03*
Y1786810D02*
D03*
X166570Y1772939D02*
D03*
X151190Y1768090D02*
D03*
X146500Y1719722D02*
D03*
X151600Y1712801D02*
D03*
X166570Y1766755D02*
D03*
X166572Y1747936D02*
D03*
X225072Y1751984D02*
D03*
X237500Y1748101D02*
D03*
X143800Y1835800D02*
D03*
X196760Y1844239D02*
D03*
X212750Y1820249D02*
D03*
X187677Y1719955D02*
D03*
X193000Y1695000D02*
D03*
X176014Y1706819D02*
D03*
X126506Y1655000D02*
D03*
X213500Y1678500D02*
D03*
X209139Y1673500D02*
D03*
X195805Y1673320D02*
D03*
X188750Y1678750D02*
D03*
X174000Y1695800D02*
D03*
X169200Y1699400D02*
D03*
X160900Y1717030D02*
D03*
X154940Y1723401D02*
D03*
X170009Y1708950D02*
D03*
X125000Y1677220D02*
D03*
X149200Y1656400D02*
D03*
X165000Y1652900D02*
D03*
X166570Y1726955D02*
D03*
X156559Y1742666D02*
D03*
X188620Y1815280D02*
D03*
X163810Y1831250D02*
D03*
X186630Y1642810D02*
D03*
X234398Y1757632D02*
D03*
X240000Y1779500D02*
D03*
X159750Y1875250D02*
D03*
X178320Y1642280D02*
D03*
X147930Y1681070D02*
D03*
X228022Y1715678D02*
D03*
X205250Y1664250D02*
D03*
X189390Y1648230D02*
D03*
X262510Y1838649D02*
D03*
X198231Y1899245D02*
D03*
X169760Y1919820D02*
D03*
X193210Y1938970D02*
D03*
X105990Y1862251D02*
D03*
X180650Y1662760D02*
D03*
X127400Y1908900D02*
D03*
X127600Y1923855D02*
D03*
X136050Y1909050D02*
D03*
X145500Y1885750D02*
D03*
X233250Y1785200D02*
D03*
X107500Y1840000D02*
D03*
X116250D02*
D03*
X145000Y1902250D02*
D03*
X264250Y1821250D02*
D03*
X237762Y1814737D02*
D03*
X190750Y1852500D02*
D03*
X237762Y1831718D02*
D03*
X231511D02*
D03*
X254000Y1779500D02*
D03*
X260500Y1754250D02*
D03*
X254000Y1785750D02*
D03*
X247000Y1779500D02*
D03*
Y1785750D02*
D03*
X240000D02*
D03*
X248250Y1891750D02*
D03*
X254500D02*
D03*
X212750Y1872750D02*
D03*
X118190Y1868752D02*
D03*
X154836Y1357650D02*
D03*
X131700Y1375600D02*
D03*
X127457Y1371357D02*
D03*
X204440Y1503160D02*
D03*
X234783Y1347321D02*
D03*
X235509Y1341321D02*
D03*
X180300Y1403600D02*
D03*
X158600Y1418000D02*
D03*
X231511Y1419737D02*
D03*
X130532Y1361338D02*
D03*
X155850Y1369240D02*
D03*
X163540Y1385810D02*
D03*
Y1391810D02*
D03*
X166570Y1377939D02*
D03*
X151190Y1373090D02*
D03*
X146500Y1324722D02*
D03*
X151600Y1317801D02*
D03*
X166570Y1371755D02*
D03*
X166572Y1352936D02*
D03*
X225072Y1356984D02*
D03*
X237500Y1353101D02*
D03*
X143800Y1440800D02*
D03*
X196760Y1449239D02*
D03*
X212750Y1425249D02*
D03*
X187677Y1324955D02*
D03*
X193000Y1300000D02*
D03*
X176014Y1311819D02*
D03*
X126506Y1260000D02*
D03*
X213500Y1283500D02*
D03*
X209139Y1278500D02*
D03*
X195805Y1278320D02*
D03*
X188750Y1283750D02*
D03*
X174000Y1300800D02*
D03*
X169200Y1304400D02*
D03*
X160900Y1322030D02*
D03*
X154940Y1328401D02*
D03*
X170009Y1313950D02*
D03*
X125000Y1282220D02*
D03*
X149200Y1261400D02*
D03*
X165000Y1257900D02*
D03*
X166570Y1331956D02*
D03*
X156559Y1347666D02*
D03*
X188620Y1420280D02*
D03*
X163810Y1436250D02*
D03*
X186630Y1247810D02*
D03*
X234398Y1362632D02*
D03*
X240000Y1384500D02*
D03*
X159750Y1480250D02*
D03*
X178320Y1247280D02*
D03*
X147930Y1286070D02*
D03*
X228022Y1320678D02*
D03*
X205250Y1269250D02*
D03*
X189390Y1253230D02*
D03*
X262510Y1443649D02*
D03*
X198231Y1504245D02*
D03*
X169760Y1524820D02*
D03*
X193210Y1543970D02*
D03*
X105990Y1467251D02*
D03*
X180650Y1267760D02*
D03*
X127400Y1513900D02*
D03*
X127600Y1528855D02*
D03*
X136050Y1514050D02*
D03*
X145500Y1490750D02*
D03*
X233250Y1390200D02*
D03*
X107500Y1445000D02*
D03*
X116250D02*
D03*
X145000Y1507250D02*
D03*
X264250Y1426250D02*
D03*
X237762Y1419737D02*
D03*
X190750Y1457500D02*
D03*
X237762Y1436718D02*
D03*
X231511D02*
D03*
X254000Y1384500D02*
D03*
X260500Y1359250D02*
D03*
X254000Y1390750D02*
D03*
X247000Y1384500D02*
D03*
Y1390750D02*
D03*
X240000D02*
D03*
X248250Y1496750D02*
D03*
X254500D02*
D03*
X212750Y1477750D02*
D03*
X118190Y1473752D02*
D03*
X437586Y2147650D02*
D03*
X414450Y2165600D02*
D03*
X410207Y2161357D02*
D03*
X487190Y2293160D02*
D03*
X517533Y2137321D02*
D03*
X518259Y2131321D02*
D03*
X463050Y2193600D02*
D03*
X441350Y2208000D02*
D03*
X514261Y2209737D02*
D03*
X413282Y2151338D02*
D03*
X438600Y2159240D02*
D03*
X446290Y2175810D02*
D03*
Y2181810D02*
D03*
X449320Y2167939D02*
D03*
X433940Y2163090D02*
D03*
X429250Y2114722D02*
D03*
X434350Y2107801D02*
D03*
X449320Y2161755D02*
D03*
X449322Y2142936D02*
D03*
X507822Y2146984D02*
D03*
X520250Y2143101D02*
D03*
X426550Y2230800D02*
D03*
X479510Y2239239D02*
D03*
X495500Y2215249D02*
D03*
X470427Y2114955D02*
D03*
X475750Y2090000D02*
D03*
X458764Y2101819D02*
D03*
X409256Y2050000D02*
D03*
X496250Y2073500D02*
D03*
X491890Y2068500D02*
D03*
X478555Y2068320D02*
D03*
X471500Y2073750D02*
D03*
X456750Y2090800D02*
D03*
X451950Y2094400D02*
D03*
X443650Y2112030D02*
D03*
X437690Y2118401D02*
D03*
X452760Y2103950D02*
D03*
X407750Y2072220D02*
D03*
X431950Y2051400D02*
D03*
X447750Y2047900D02*
D03*
X449320Y2121955D02*
D03*
X439309Y2137666D02*
D03*
X471370Y2210280D02*
D03*
X446560Y2226250D02*
D03*
X469380Y2037810D02*
D03*
X517148Y2152632D02*
D03*
X522750Y2174500D02*
D03*
X442500Y2270250D02*
D03*
X461070Y2037280D02*
D03*
X430680Y2076070D02*
D03*
X510772Y2110678D02*
D03*
X488000Y2059250D02*
D03*
X472140Y2043230D02*
D03*
X545260Y2233649D02*
D03*
X480981Y2294245D02*
D03*
X452510Y2314820D02*
D03*
X475960Y2333970D02*
D03*
X388740Y2257251D02*
D03*
X463400Y2057760D02*
D03*
X410150Y2303900D02*
D03*
X410350Y2318855D02*
D03*
X418800Y2304050D02*
D03*
X428250Y2280750D02*
D03*
X516000Y2180200D02*
D03*
X390250Y2235000D02*
D03*
X399000D02*
D03*
X427750Y2297250D02*
D03*
X547000Y2216250D02*
D03*
X520512Y2209737D02*
D03*
X473500Y2247500D02*
D03*
X520512Y2226718D02*
D03*
X514261D02*
D03*
X536750Y2174500D02*
D03*
X543250Y2149250D02*
D03*
X536750Y2180750D02*
D03*
X529750Y2174500D02*
D03*
Y2180750D02*
D03*
X522750D02*
D03*
X531000Y2286750D02*
D03*
X537250D02*
D03*
X495500Y2267750D02*
D03*
X400940Y2263752D02*
D03*
X437586Y1752650D02*
D03*
X414450Y1770600D02*
D03*
X410207Y1766357D02*
D03*
X487190Y1898160D02*
D03*
X517533Y1742321D02*
D03*
X518259Y1736321D02*
D03*
X463050Y1798600D02*
D03*
X441350Y1813000D02*
D03*
X514261Y1814737D02*
D03*
X413282Y1756338D02*
D03*
X438600Y1764240D02*
D03*
X446290Y1780810D02*
D03*
Y1786810D02*
D03*
X449320Y1772939D02*
D03*
X433940Y1768090D02*
D03*
X429250Y1719722D02*
D03*
X434350Y1712801D02*
D03*
X449320Y1766755D02*
D03*
X449322Y1747936D02*
D03*
X507822Y1751984D02*
D03*
X520250Y1748101D02*
D03*
X426550Y1835800D02*
D03*
X479510Y1844239D02*
D03*
X495500Y1820249D02*
D03*
X470427Y1719955D02*
D03*
X475750Y1695000D02*
D03*
X458764Y1706819D02*
D03*
X409256Y1655000D02*
D03*
X496250Y1678500D02*
D03*
X491890Y1673500D02*
D03*
X478555Y1673320D02*
D03*
X471500Y1678750D02*
D03*
X456750Y1695800D02*
D03*
X451950Y1699400D02*
D03*
X443650Y1717030D02*
D03*
X437690Y1723401D02*
D03*
X452760Y1708950D02*
D03*
X407750Y1677220D02*
D03*
X431950Y1656400D02*
D03*
X447750Y1652900D02*
D03*
X449320Y1726955D02*
D03*
X439309Y1742666D02*
D03*
X471370Y1815280D02*
D03*
X446560Y1831250D02*
D03*
X469380Y1642810D02*
D03*
X517148Y1757632D02*
D03*
X522750Y1779500D02*
D03*
X442500Y1875250D02*
D03*
X461070Y1642280D02*
D03*
X430680Y1681070D02*
D03*
X510772Y1715678D02*
D03*
X488000Y1664250D02*
D03*
X472140Y1648230D02*
D03*
X545260Y1838649D02*
D03*
X480981Y1899245D02*
D03*
X452510Y1919820D02*
D03*
X475960Y1938970D02*
D03*
X388740Y1862251D02*
D03*
X463400Y1662760D02*
D03*
X410150Y1908900D02*
D03*
X410350Y1923855D02*
D03*
X418800Y1909050D02*
D03*
X428250Y1885750D02*
D03*
X516000Y1785200D02*
D03*
X390250Y1840000D02*
D03*
X399000D02*
D03*
X427750Y1902250D02*
D03*
X547000Y1821250D02*
D03*
X520512Y1814737D02*
D03*
X473500Y1852500D02*
D03*
X520512Y1831718D02*
D03*
X514261D02*
D03*
X536750Y1779500D02*
D03*
X543250Y1754250D02*
D03*
X536750Y1785750D02*
D03*
X529750Y1779500D02*
D03*
Y1785750D02*
D03*
X522750D02*
D03*
X531000Y1891750D02*
D03*
X537250D02*
D03*
X495500Y1872750D02*
D03*
X400940Y1868752D02*
D03*
X437586Y1357650D02*
D03*
X414450Y1375600D02*
D03*
X410207Y1371357D02*
D03*
X487190Y1503160D02*
D03*
X517533Y1347321D02*
D03*
X518259Y1341321D02*
D03*
X463050Y1403600D02*
D03*
X441350Y1418000D02*
D03*
X514261Y1419737D02*
D03*
X413282Y1361338D02*
D03*
X438600Y1369240D02*
D03*
X446290Y1385810D02*
D03*
Y1391810D02*
D03*
X449320Y1377939D02*
D03*
X433940Y1373090D02*
D03*
X429250Y1324722D02*
D03*
X434350Y1317801D02*
D03*
X449320Y1371755D02*
D03*
X449322Y1352936D02*
D03*
X507822Y1356984D02*
D03*
X520250Y1353101D02*
D03*
X426550Y1440800D02*
D03*
X479510Y1449239D02*
D03*
X495500Y1425249D02*
D03*
X470427Y1324955D02*
D03*
X475750Y1300000D02*
D03*
X458764Y1311819D02*
D03*
X409256Y1260000D02*
D03*
X496250Y1283500D02*
D03*
X491890Y1278500D02*
D03*
X478555Y1278320D02*
D03*
X471500Y1283750D02*
D03*
X456750Y1300800D02*
D03*
X451950Y1304400D02*
D03*
X443650Y1322030D02*
D03*
X437690Y1328401D02*
D03*
X452760Y1313950D02*
D03*
X407750Y1282220D02*
D03*
X431950Y1261400D02*
D03*
X447750Y1257900D02*
D03*
X449320Y1331956D02*
D03*
X439309Y1347666D02*
D03*
X471370Y1420280D02*
D03*
X446560Y1436250D02*
D03*
X469380Y1247810D02*
D03*
X517148Y1362632D02*
D03*
X522750Y1384500D02*
D03*
X442500Y1480250D02*
D03*
X461070Y1247280D02*
D03*
X430680Y1286070D02*
D03*
X510772Y1320678D02*
D03*
X488000Y1269250D02*
D03*
X472140Y1253230D02*
D03*
X545260Y1443649D02*
D03*
X480981Y1504245D02*
D03*
X452510Y1524820D02*
D03*
X475960Y1543970D02*
D03*
X388740Y1467251D02*
D03*
X463400Y1267760D02*
D03*
X410150Y1513900D02*
D03*
X410350Y1528855D02*
D03*
X418800Y1514050D02*
D03*
X428250Y1490750D02*
D03*
X516000Y1390200D02*
D03*
X390250Y1445000D02*
D03*
X399000D02*
D03*
X427750Y1507250D02*
D03*
X547000Y1426250D02*
D03*
X520512Y1419737D02*
D03*
X473500Y1457500D02*
D03*
X520512Y1436718D02*
D03*
X514261D02*
D03*
X536750Y1384500D02*
D03*
X543250Y1359250D02*
D03*
X536750Y1390750D02*
D03*
X529750Y1384500D02*
D03*
Y1390750D02*
D03*
X522750D02*
D03*
X531000Y1496750D02*
D03*
X537250D02*
D03*
X495500Y1477750D02*
D03*
X400940Y1473752D02*
D03*
X720336Y2147650D02*
D03*
X697200Y2165600D02*
D03*
X692958Y2161357D02*
D03*
X769940Y2293160D02*
D03*
X800283Y2137321D02*
D03*
X801009Y2131321D02*
D03*
X745800Y2193600D02*
D03*
X724100Y2208000D02*
D03*
X797011Y2209737D02*
D03*
X696032Y2151338D02*
D03*
X721350Y2159240D02*
D03*
X729040Y2175810D02*
D03*
Y2181810D02*
D03*
X732070Y2167939D02*
D03*
X716690Y2163090D02*
D03*
X712000Y2114722D02*
D03*
X717100Y2107801D02*
D03*
X732070Y2161755D02*
D03*
X732072Y2142936D02*
D03*
X790573Y2146984D02*
D03*
X803000Y2143101D02*
D03*
X709300Y2230800D02*
D03*
X762260Y2239239D02*
D03*
X778250Y2215249D02*
D03*
X753177Y2114955D02*
D03*
X758500Y2090000D02*
D03*
X741514Y2101819D02*
D03*
X692006Y2050000D02*
D03*
X779000Y2073500D02*
D03*
X774640Y2068500D02*
D03*
X761305Y2068320D02*
D03*
X754250Y2073750D02*
D03*
X739500Y2090800D02*
D03*
X734700Y2094400D02*
D03*
X726400Y2112030D02*
D03*
X720440Y2118401D02*
D03*
X735510Y2103950D02*
D03*
X690500Y2072220D02*
D03*
X714700Y2051400D02*
D03*
X730500Y2047900D02*
D03*
X732070Y2121955D02*
D03*
X722059Y2137666D02*
D03*
X754120Y2210280D02*
D03*
X729310Y2226250D02*
D03*
X752130Y2037810D02*
D03*
X799898Y2152632D02*
D03*
X805500Y2174500D02*
D03*
X725250Y2270250D02*
D03*
X743820Y2037280D02*
D03*
X713430Y2076070D02*
D03*
X793522Y2110678D02*
D03*
X770750Y2059250D02*
D03*
X754890Y2043230D02*
D03*
X828010Y2233649D02*
D03*
X763731Y2294245D02*
D03*
X735260Y2314820D02*
D03*
X758710Y2333970D02*
D03*
X671490Y2257251D02*
D03*
X746150Y2057760D02*
D03*
X692900Y2303900D02*
D03*
X693100Y2318855D02*
D03*
X701550Y2304050D02*
D03*
X711000Y2280750D02*
D03*
X798750Y2180200D02*
D03*
X673000Y2235000D02*
D03*
X681750D02*
D03*
X710500Y2297250D02*
D03*
X829750Y2216250D02*
D03*
X803262Y2209737D02*
D03*
X756250Y2247500D02*
D03*
X803262Y2226718D02*
D03*
X797011D02*
D03*
X819500Y2174500D02*
D03*
X826000Y2149250D02*
D03*
X819500Y2180750D02*
D03*
X812500Y2174500D02*
D03*
Y2180750D02*
D03*
X805500D02*
D03*
X813750Y2286750D02*
D03*
X820000D02*
D03*
X778250Y2267750D02*
D03*
X683690Y2263752D02*
D03*
X720336Y1752650D02*
D03*
X697200Y1770600D02*
D03*
X692958Y1766357D02*
D03*
X769940Y1898160D02*
D03*
X800283Y1742321D02*
D03*
X801009Y1736321D02*
D03*
X745800Y1798600D02*
D03*
X724100Y1813000D02*
D03*
X797011Y1814737D02*
D03*
X696032Y1756338D02*
D03*
X721350Y1764240D02*
D03*
X729040Y1780810D02*
D03*
Y1786810D02*
D03*
X732070Y1772939D02*
D03*
X716690Y1768090D02*
D03*
X712000Y1719722D02*
D03*
X717100Y1712801D02*
D03*
X732070Y1766755D02*
D03*
X732072Y1747936D02*
D03*
X790573Y1751984D02*
D03*
X803000Y1748101D02*
D03*
X709300Y1835800D02*
D03*
X762260Y1844239D02*
D03*
X778250Y1820249D02*
D03*
X753177Y1719955D02*
D03*
X758500Y1695000D02*
D03*
X741514Y1706819D02*
D03*
X692006Y1655000D02*
D03*
X779000Y1678500D02*
D03*
X774640Y1673500D02*
D03*
X761305Y1673320D02*
D03*
X754250Y1678750D02*
D03*
X739500Y1695800D02*
D03*
X734700Y1699400D02*
D03*
X726400Y1717030D02*
D03*
X720440Y1723401D02*
D03*
X735510Y1708950D02*
D03*
X690500Y1677220D02*
D03*
X714700Y1656400D02*
D03*
X730500Y1652900D02*
D03*
X732070Y1726955D02*
D03*
X722059Y1742666D02*
D03*
X754120Y1815280D02*
D03*
X729310Y1831250D02*
D03*
X752130Y1642810D02*
D03*
X799898Y1757632D02*
D03*
X805500Y1779500D02*
D03*
X725250Y1875250D02*
D03*
X743820Y1642280D02*
D03*
X713430Y1681070D02*
D03*
X793522Y1715678D02*
D03*
X770750Y1664250D02*
D03*
X754890Y1648230D02*
D03*
X828010Y1838649D02*
D03*
X763731Y1899245D02*
D03*
X735260Y1919820D02*
D03*
X758710Y1938970D02*
D03*
X671490Y1862251D02*
D03*
X746150Y1662760D02*
D03*
X692900Y1908900D02*
D03*
X693100Y1923855D02*
D03*
X701550Y1909050D02*
D03*
X711000Y1885750D02*
D03*
X798750Y1785200D02*
D03*
X673000Y1840000D02*
D03*
X681750D02*
D03*
X710500Y1902250D02*
D03*
X829750Y1821250D02*
D03*
X803262Y1814737D02*
D03*
X756250Y1852500D02*
D03*
X803262Y1831718D02*
D03*
X797011D02*
D03*
X819500Y1779500D02*
D03*
X826000Y1754250D02*
D03*
X819500Y1785750D02*
D03*
X812500Y1779500D02*
D03*
Y1785750D02*
D03*
X805500D02*
D03*
X813750Y1891750D02*
D03*
X820000D02*
D03*
X778250Y1872750D02*
D03*
X683690Y1868752D02*
D03*
X720336Y1357650D02*
D03*
X697200Y1375600D02*
D03*
X692958Y1371357D02*
D03*
X769940Y1503160D02*
D03*
X800283Y1347321D02*
D03*
X801009Y1341321D02*
D03*
X745800Y1403600D02*
D03*
X724100Y1418000D02*
D03*
X797011Y1419737D02*
D03*
X696032Y1361338D02*
D03*
X721350Y1369240D02*
D03*
X729040Y1385810D02*
D03*
Y1391810D02*
D03*
X732070Y1377939D02*
D03*
X716690Y1373090D02*
D03*
X712000Y1324722D02*
D03*
X717100Y1317801D02*
D03*
X732070Y1371755D02*
D03*
X732072Y1352936D02*
D03*
X790573Y1356984D02*
D03*
X803000Y1353101D02*
D03*
X709300Y1440800D02*
D03*
X762260Y1449239D02*
D03*
X778250Y1425249D02*
D03*
X753177Y1324955D02*
D03*
X758500Y1300000D02*
D03*
X741514Y1311819D02*
D03*
X692006Y1260000D02*
D03*
X779000Y1283500D02*
D03*
X774640Y1278500D02*
D03*
X761305Y1278320D02*
D03*
X754250Y1283750D02*
D03*
X739500Y1300800D02*
D03*
X734700Y1304400D02*
D03*
X726400Y1322030D02*
D03*
X720440Y1328401D02*
D03*
X735510Y1313950D02*
D03*
X690500Y1282220D02*
D03*
X714700Y1261400D02*
D03*
X730500Y1257900D02*
D03*
X732070Y1331956D02*
D03*
X722059Y1347666D02*
D03*
X754120Y1420280D02*
D03*
X729310Y1436250D02*
D03*
X752130Y1247810D02*
D03*
X799898Y1362632D02*
D03*
X805500Y1384500D02*
D03*
X725250Y1480250D02*
D03*
X743820Y1247280D02*
D03*
X713430Y1286070D02*
D03*
X793522Y1320678D02*
D03*
X770750Y1269250D02*
D03*
X754890Y1253230D02*
D03*
X828010Y1443649D02*
D03*
X763731Y1504245D02*
D03*
X735260Y1524820D02*
D03*
X758710Y1543970D02*
D03*
X671490Y1467251D02*
D03*
X746150Y1267760D02*
D03*
X692900Y1513900D02*
D03*
X693100Y1528855D02*
D03*
X701550Y1514050D02*
D03*
X711000Y1490750D02*
D03*
X798750Y1390200D02*
D03*
X673000Y1445000D02*
D03*
X681750D02*
D03*
X710500Y1507250D02*
D03*
X829750Y1426250D02*
D03*
X803262Y1419737D02*
D03*
X756250Y1457500D02*
D03*
X803262Y1436718D02*
D03*
X797011D02*
D03*
X819500Y1384500D02*
D03*
X826000Y1359250D02*
D03*
X819500Y1390750D02*
D03*
X812500Y1384500D02*
D03*
Y1390750D02*
D03*
X805500D02*
D03*
X813750Y1496750D02*
D03*
X820000D02*
D03*
X778250Y1477750D02*
D03*
X683690Y1473752D02*
D03*
X1003086Y2147650D02*
D03*
X979950Y2165600D02*
D03*
X975708Y2161357D02*
D03*
X1052690Y2293160D02*
D03*
X1083033Y2137321D02*
D03*
X1083760Y2131321D02*
D03*
X1028550Y2193600D02*
D03*
X1006850Y2208000D02*
D03*
X1079762Y2209737D02*
D03*
X978782Y2151338D02*
D03*
X1004100Y2159240D02*
D03*
X1011790Y2175810D02*
D03*
Y2181810D02*
D03*
X1014820Y2167939D02*
D03*
X999440Y2163090D02*
D03*
X994750Y2114722D02*
D03*
X999850Y2107801D02*
D03*
X1014820Y2161755D02*
D03*
X1014822Y2142936D02*
D03*
X1073323Y2146984D02*
D03*
X1085750Y2143101D02*
D03*
X992050Y2230800D02*
D03*
X1045010Y2239239D02*
D03*
X1061000Y2215249D02*
D03*
X1035927Y2114955D02*
D03*
X1041250Y2090000D02*
D03*
X1024264Y2101819D02*
D03*
X974756Y2050000D02*
D03*
X1061750Y2073500D02*
D03*
X1057390Y2068500D02*
D03*
X1044055Y2068320D02*
D03*
X1037000Y2073750D02*
D03*
X1022250Y2090800D02*
D03*
X1017450Y2094400D02*
D03*
X1009150Y2112030D02*
D03*
X1003190Y2118401D02*
D03*
X1018260Y2103950D02*
D03*
X973250Y2072220D02*
D03*
X997450Y2051400D02*
D03*
X1013250Y2047900D02*
D03*
X1014820Y2121955D02*
D03*
X1004809Y2137666D02*
D03*
X1036870Y2210280D02*
D03*
X1012060Y2226250D02*
D03*
X1034880Y2037810D02*
D03*
X1082648Y2152632D02*
D03*
X1088250Y2174500D02*
D03*
X1008000Y2270250D02*
D03*
X1026570Y2037280D02*
D03*
X996180Y2076070D02*
D03*
X1076272Y2110678D02*
D03*
X1053500Y2059250D02*
D03*
X1037640Y2043230D02*
D03*
X1110760Y2233649D02*
D03*
X1046481Y2294245D02*
D03*
X1018010Y2314820D02*
D03*
X1041460Y2333970D02*
D03*
X954240Y2257251D02*
D03*
X1028900Y2057760D02*
D03*
X975650Y2303900D02*
D03*
X975850Y2318855D02*
D03*
X984300Y2304050D02*
D03*
X993750Y2280750D02*
D03*
X1081500Y2180200D02*
D03*
X955750Y2235000D02*
D03*
X964500D02*
D03*
X993250Y2297250D02*
D03*
X1112500Y2216250D02*
D03*
X1086012Y2209737D02*
D03*
X1039000Y2247500D02*
D03*
X1086012Y2226718D02*
D03*
X1079762D02*
D03*
X1102250Y2174500D02*
D03*
X1108750Y2149250D02*
D03*
X1102250Y2180750D02*
D03*
X1095250Y2174500D02*
D03*
Y2180750D02*
D03*
X1088250D02*
D03*
X1096500Y2286750D02*
D03*
X1102750D02*
D03*
X1061000Y2267750D02*
D03*
X966440Y2263752D02*
D03*
X1003086Y1752650D02*
D03*
X979950Y1770600D02*
D03*
X975708Y1766357D02*
D03*
X1052690Y1898160D02*
D03*
X1083033Y1742321D02*
D03*
X1083760Y1736321D02*
D03*
X1028550Y1798600D02*
D03*
X1006850Y1813000D02*
D03*
X1079762Y1814737D02*
D03*
X978782Y1756338D02*
D03*
X1004100Y1764240D02*
D03*
X1011790Y1780810D02*
D03*
Y1786810D02*
D03*
X1014820Y1772939D02*
D03*
X999440Y1768090D02*
D03*
X994750Y1719722D02*
D03*
X999850Y1712801D02*
D03*
X1014820Y1766755D02*
D03*
X1014822Y1747936D02*
D03*
X1073323Y1751984D02*
D03*
X1085750Y1748101D02*
D03*
X992050Y1835800D02*
D03*
X1045010Y1844239D02*
D03*
X1061000Y1820249D02*
D03*
X1035927Y1719955D02*
D03*
X1041250Y1695000D02*
D03*
X1024264Y1706819D02*
D03*
X974756Y1655000D02*
D03*
X1061750Y1678500D02*
D03*
X1057390Y1673500D02*
D03*
X1044055Y1673320D02*
D03*
X1037000Y1678750D02*
D03*
X1022250Y1695800D02*
D03*
X1017450Y1699400D02*
D03*
X1009150Y1717030D02*
D03*
X1003190Y1723401D02*
D03*
X1018260Y1708950D02*
D03*
X973250Y1677220D02*
D03*
X997450Y1656400D02*
D03*
X1013250Y1652900D02*
D03*
X1014820Y1726955D02*
D03*
X1004809Y1742666D02*
D03*
X1036870Y1815280D02*
D03*
X1012060Y1831250D02*
D03*
X1034880Y1642810D02*
D03*
X1082648Y1757632D02*
D03*
X1088250Y1779500D02*
D03*
X1008000Y1875250D02*
D03*
X1026570Y1642280D02*
D03*
X996180Y1681070D02*
D03*
X1076272Y1715678D02*
D03*
X1053500Y1664250D02*
D03*
X1037640Y1648230D02*
D03*
X1110760Y1838649D02*
D03*
X1046481Y1899245D02*
D03*
X1018010Y1919820D02*
D03*
X1041460Y1938970D02*
D03*
X954240Y1862251D02*
D03*
X1028900Y1662760D02*
D03*
X975650Y1908900D02*
D03*
X975850Y1923855D02*
D03*
X984300Y1909050D02*
D03*
X993750Y1885750D02*
D03*
X1081500Y1785200D02*
D03*
X955750Y1840000D02*
D03*
X964500D02*
D03*
X993250Y1902250D02*
D03*
X1112500Y1821250D02*
D03*
X1086012Y1814737D02*
D03*
X1039000Y1852500D02*
D03*
X1086012Y1831718D02*
D03*
X1079762D02*
D03*
X1102250Y1779500D02*
D03*
X1108750Y1754250D02*
D03*
X1102250Y1785750D02*
D03*
X1095250Y1779500D02*
D03*
Y1785750D02*
D03*
X1088250D02*
D03*
X1096500Y1891750D02*
D03*
X1102750D02*
D03*
X1061000Y1872750D02*
D03*
X966440Y1868752D02*
D03*
X1003086Y1357650D02*
D03*
X979950Y1375600D02*
D03*
X975708Y1371357D02*
D03*
X1052690Y1503160D02*
D03*
X1083033Y1347321D02*
D03*
X1083760Y1341321D02*
D03*
X1028550Y1403600D02*
D03*
X1006850Y1418000D02*
D03*
X1079762Y1419737D02*
D03*
X978782Y1361338D02*
D03*
X1004100Y1369240D02*
D03*
X1011790Y1385810D02*
D03*
Y1391810D02*
D03*
X1014820Y1377939D02*
D03*
X999440Y1373090D02*
D03*
X994750Y1324722D02*
D03*
X999850Y1317801D02*
D03*
X1014820Y1371755D02*
D03*
X1014822Y1352936D02*
D03*
X1073323Y1356984D02*
D03*
X1085750Y1353101D02*
D03*
X992050Y1440800D02*
D03*
X1045010Y1449239D02*
D03*
X1061000Y1425249D02*
D03*
X1035927Y1324955D02*
D03*
X1041250Y1300000D02*
D03*
X1024264Y1311819D02*
D03*
X974756Y1260000D02*
D03*
X1061750Y1283500D02*
D03*
X1057390Y1278500D02*
D03*
X1044055Y1278320D02*
D03*
X1037000Y1283750D02*
D03*
X1022250Y1300800D02*
D03*
X1017450Y1304400D02*
D03*
X1009150Y1322030D02*
D03*
X1003190Y1328401D02*
D03*
X1018260Y1313950D02*
D03*
X973250Y1282220D02*
D03*
X997450Y1261400D02*
D03*
X1013250Y1257900D02*
D03*
X1014820Y1331956D02*
D03*
X1004809Y1347666D02*
D03*
X1036870Y1420280D02*
D03*
X1012060Y1436250D02*
D03*
X1034880Y1247810D02*
D03*
X1082648Y1362632D02*
D03*
X1088250Y1384500D02*
D03*
X1008000Y1480250D02*
D03*
X1026570Y1247280D02*
D03*
X996180Y1286070D02*
D03*
X1076272Y1320678D02*
D03*
X1053500Y1269250D02*
D03*
X1037640Y1253230D02*
D03*
X1110760Y1443649D02*
D03*
X1046481Y1504245D02*
D03*
X1018010Y1524820D02*
D03*
X1041460Y1543970D02*
D03*
X954240Y1467251D02*
D03*
X1028900Y1267760D02*
D03*
X975650Y1513900D02*
D03*
X975850Y1528855D02*
D03*
X984300Y1514050D02*
D03*
X993750Y1490750D02*
D03*
X1081500Y1390200D02*
D03*
X955750Y1445000D02*
D03*
X964500D02*
D03*
X993250Y1507250D02*
D03*
X1112500Y1426250D02*
D03*
X1086012Y1419737D02*
D03*
X1039000Y1457500D02*
D03*
X1086012Y1436718D02*
D03*
X1079762D02*
D03*
X1102250Y1384500D02*
D03*
X1108750Y1359250D02*
D03*
X1102250Y1390750D02*
D03*
X1095250Y1384500D02*
D03*
Y1390750D02*
D03*
X1088250D02*
D03*
X1096500Y1496750D02*
D03*
X1102750D02*
D03*
X1061000Y1477750D02*
D03*
X966440Y1473752D02*
D03*
X1285836Y2147650D02*
D03*
X1262700Y2165600D02*
D03*
X1258458Y2161357D02*
D03*
X1335440Y2293160D02*
D03*
X1365783Y2137321D02*
D03*
X1366510Y2131321D02*
D03*
X1311300Y2193600D02*
D03*
X1289600Y2208000D02*
D03*
X1362512Y2209737D02*
D03*
X1261532Y2151338D02*
D03*
X1286850Y2159240D02*
D03*
X1294540Y2175810D02*
D03*
Y2181810D02*
D03*
X1297570Y2167939D02*
D03*
X1282190Y2163090D02*
D03*
X1277500Y2114722D02*
D03*
X1282600Y2107801D02*
D03*
X1297570Y2161755D02*
D03*
X1297572Y2142936D02*
D03*
X1356073Y2146984D02*
D03*
X1368500Y2143101D02*
D03*
X1274800Y2230800D02*
D03*
X1327760Y2239239D02*
D03*
X1343750Y2215249D02*
D03*
X1318677Y2114955D02*
D03*
X1324000Y2090000D02*
D03*
X1307014Y2101819D02*
D03*
X1257506Y2050000D02*
D03*
X1344500Y2073500D02*
D03*
X1340140Y2068500D02*
D03*
X1326805Y2068320D02*
D03*
X1319750Y2073750D02*
D03*
X1305000Y2090800D02*
D03*
X1300200Y2094400D02*
D03*
X1291900Y2112030D02*
D03*
X1285940Y2118401D02*
D03*
X1301010Y2103950D02*
D03*
X1256000Y2072220D02*
D03*
X1280200Y2051400D02*
D03*
X1296000Y2047900D02*
D03*
X1297570Y2121955D02*
D03*
X1287560Y2137666D02*
D03*
X1319620Y2210280D02*
D03*
X1294810Y2226250D02*
D03*
X1317630Y2037810D02*
D03*
X1365398Y2152632D02*
D03*
X1371000Y2174500D02*
D03*
X1290750Y2270250D02*
D03*
X1309320Y2037280D02*
D03*
X1278930Y2076070D02*
D03*
X1359022Y2110678D02*
D03*
X1336250Y2059250D02*
D03*
X1320390Y2043230D02*
D03*
X1393510Y2233649D02*
D03*
X1329231Y2294245D02*
D03*
X1300760Y2314820D02*
D03*
X1324210Y2333970D02*
D03*
X1236990Y2257251D02*
D03*
X1311650Y2057760D02*
D03*
X1258400Y2303900D02*
D03*
X1258600Y2318855D02*
D03*
X1267050Y2304050D02*
D03*
X1276500Y2280750D02*
D03*
X1364250Y2180200D02*
D03*
X1238500Y2235000D02*
D03*
X1247250D02*
D03*
X1276000Y2297250D02*
D03*
X1395250Y2216250D02*
D03*
X1368762Y2209737D02*
D03*
X1321750Y2247500D02*
D03*
X1368762Y2226718D02*
D03*
X1362512D02*
D03*
X1385000Y2174500D02*
D03*
X1391500Y2149250D02*
D03*
X1385000Y2180750D02*
D03*
X1378000Y2174500D02*
D03*
Y2180750D02*
D03*
X1371000D02*
D03*
X1379250Y2286750D02*
D03*
X1385500D02*
D03*
X1343750Y2267750D02*
D03*
X1249190Y2263752D02*
D03*
X1285836Y1752650D02*
D03*
X1262700Y1770600D02*
D03*
X1258458Y1766357D02*
D03*
X1335440Y1898160D02*
D03*
X1365783Y1742321D02*
D03*
X1366510Y1736321D02*
D03*
X1311300Y1798600D02*
D03*
X1289600Y1813000D02*
D03*
X1362512Y1814737D02*
D03*
X1261532Y1756338D02*
D03*
X1286850Y1764240D02*
D03*
X1294540Y1780810D02*
D03*
Y1786810D02*
D03*
X1297570Y1772939D02*
D03*
X1282190Y1768090D02*
D03*
X1277500Y1719722D02*
D03*
X1282600Y1712801D02*
D03*
X1297570Y1766755D02*
D03*
X1297572Y1747936D02*
D03*
X1356073Y1751984D02*
D03*
X1368500Y1748101D02*
D03*
X1274800Y1835800D02*
D03*
X1327760Y1844239D02*
D03*
X1343750Y1820249D02*
D03*
X1318677Y1719955D02*
D03*
X1324000Y1695000D02*
D03*
X1307014Y1706819D02*
D03*
X1257506Y1655000D02*
D03*
X1344500Y1678500D02*
D03*
X1340140Y1673500D02*
D03*
X1326805Y1673320D02*
D03*
X1319750Y1678750D02*
D03*
X1305000Y1695800D02*
D03*
X1300200Y1699400D02*
D03*
X1291900Y1717030D02*
D03*
X1285940Y1723401D02*
D03*
X1301010Y1708950D02*
D03*
X1256000Y1677220D02*
D03*
X1280200Y1656400D02*
D03*
X1296000Y1652900D02*
D03*
X1297570Y1726955D02*
D03*
X1287560Y1742666D02*
D03*
X1319620Y1815280D02*
D03*
X1294810Y1831250D02*
D03*
X1317630Y1642810D02*
D03*
X1365398Y1757632D02*
D03*
X1371000Y1779500D02*
D03*
X1290750Y1875250D02*
D03*
X1309320Y1642280D02*
D03*
X1278930Y1681070D02*
D03*
X1359022Y1715678D02*
D03*
X1336250Y1664250D02*
D03*
X1320390Y1648230D02*
D03*
X1393510Y1838649D02*
D03*
X1329231Y1899245D02*
D03*
X1300760Y1919820D02*
D03*
X1324210Y1938970D02*
D03*
X1236990Y1862251D02*
D03*
X1311650Y1662760D02*
D03*
X1258400Y1908900D02*
D03*
X1258600Y1923855D02*
D03*
X1267050Y1909050D02*
D03*
X1276500Y1885750D02*
D03*
X1364250Y1785200D02*
D03*
X1238500Y1840000D02*
D03*
X1247250D02*
D03*
X1276000Y1902250D02*
D03*
X1395250Y1821250D02*
D03*
X1368762Y1814737D02*
D03*
X1321750Y1852500D02*
D03*
X1368762Y1831718D02*
D03*
X1362512D02*
D03*
X1385000Y1779500D02*
D03*
X1391500Y1754250D02*
D03*
X1385000Y1785750D02*
D03*
X1378000Y1779500D02*
D03*
Y1785750D02*
D03*
X1371000D02*
D03*
X1379250Y1891750D02*
D03*
X1385500D02*
D03*
X1343750Y1872750D02*
D03*
X1249190Y1868752D02*
D03*
X1285836Y1357650D02*
D03*
X1262700Y1375600D02*
D03*
X1258458Y1371357D02*
D03*
X1335440Y1503160D02*
D03*
X1365783Y1347321D02*
D03*
X1366510Y1341321D02*
D03*
X1311300Y1403600D02*
D03*
X1289600Y1418000D02*
D03*
X1362512Y1419737D02*
D03*
X1261532Y1361338D02*
D03*
X1286850Y1369240D02*
D03*
X1294540Y1385810D02*
D03*
Y1391810D02*
D03*
X1297570Y1377939D02*
D03*
X1282190Y1373090D02*
D03*
X1277500Y1324722D02*
D03*
X1282600Y1317801D02*
D03*
X1297570Y1371755D02*
D03*
X1297572Y1352936D02*
D03*
X1356073Y1356984D02*
D03*
X1368500Y1353101D02*
D03*
X1274800Y1440800D02*
D03*
X1327760Y1449239D02*
D03*
X1343750Y1425249D02*
D03*
X1318677Y1324955D02*
D03*
X1324000Y1300000D02*
D03*
X1307014Y1311819D02*
D03*
X1257506Y1260000D02*
D03*
X1344500Y1283500D02*
D03*
X1340140Y1278500D02*
D03*
X1326805Y1278320D02*
D03*
X1319750Y1283750D02*
D03*
X1305000Y1300800D02*
D03*
X1300200Y1304400D02*
D03*
X1291900Y1322030D02*
D03*
X1285940Y1328401D02*
D03*
X1301010Y1313950D02*
D03*
X1256000Y1282220D02*
D03*
X1280200Y1261400D02*
D03*
X1296000Y1257900D02*
D03*
X1297570Y1331956D02*
D03*
X1287560Y1347666D02*
D03*
X1319620Y1420280D02*
D03*
X1294810Y1436250D02*
D03*
X1317630Y1247810D02*
D03*
X1365398Y1362632D02*
D03*
X1371000Y1384500D02*
D03*
X1290750Y1480250D02*
D03*
X1309320Y1247280D02*
D03*
X1278930Y1286070D02*
D03*
X1359022Y1320678D02*
D03*
X1336250Y1269250D02*
D03*
X1320390Y1253230D02*
D03*
X1393510Y1443649D02*
D03*
X1329231Y1504245D02*
D03*
X1300760Y1524820D02*
D03*
X1324210Y1543970D02*
D03*
X1236990Y1467251D02*
D03*
X1311650Y1267760D02*
D03*
X1258400Y1513900D02*
D03*
X1258600Y1528855D02*
D03*
X1267050Y1514050D02*
D03*
X1276500Y1490750D02*
D03*
X1364250Y1390200D02*
D03*
X1238500Y1445000D02*
D03*
X1247250D02*
D03*
X1276000Y1507250D02*
D03*
X1395250Y1426250D02*
D03*
X1368762Y1419737D02*
D03*
X1321750Y1457500D02*
D03*
X1368762Y1436718D02*
D03*
X1362512D02*
D03*
X1385000Y1384500D02*
D03*
X1391500Y1359250D02*
D03*
X1385000Y1390750D02*
D03*
X1378000Y1384500D02*
D03*
Y1390750D02*
D03*
X1371000D02*
D03*
X1379250Y1496750D02*
D03*
X1385500D02*
D03*
X1343750Y1477750D02*
D03*
X1249190Y1473752D02*
D03*
M02*
