G04*
G04 #@! TF.GenerationSoftware,Altium Limited,Altium Designer,23.6.0 (18)*
G04*
G04 Layer_Color=8421504*
%FSLAX44Y44*%
%MOMM*%
G71*
G04*
G04 #@! TF.SameCoordinates,542A25E6-394C-4203-B619-F464005C6F94*
G04*
G04*
G04 #@! TF.FilePolarity,Positive*
G04*
G01*
G75*
%ADD14R,1.5000X0.7000*%
%ADD15R,0.8000X1.0000*%
%ADD16R,0.6000X1.0000*%
%ADD17R,0.9500X1.3500*%
%ADD18R,0.5200X0.5200*%
%ADD19R,0.5200X0.5200*%
%ADD20R,0.7200X0.4500*%
%ADD21R,0.5500X0.4500*%
%ADD22R,1.3500X0.4000*%
%ADD23R,1.9000X1.2000*%
%ADD24R,1.9000X1.6000*%
%ADD25R,2.0000X2.1000*%
%ADD26C,0.2200*%
G04:AMPARAMS|DCode=27|XSize=0.24mm|YSize=0.6mm|CornerRadius=0.0504mm|HoleSize=0mm|Usage=FLASHONLY|Rotation=90.000|XOffset=0mm|YOffset=0mm|HoleType=Round|Shape=RoundedRectangle|*
%AMROUNDEDRECTD27*
21,1,0.2400,0.4992,0,0,90.0*
21,1,0.1392,0.6000,0,0,90.0*
1,1,0.1008,0.2496,0.0696*
1,1,0.1008,0.2496,-0.0696*
1,1,0.1008,-0.2496,-0.0696*
1,1,0.1008,-0.2496,0.0696*
%
%ADD27ROUNDEDRECTD27*%
%ADD28R,0.2500X0.4500*%
G04:AMPARAMS|DCode=30|XSize=0.24mm|YSize=0.6mm|CornerRadius=0.0504mm|HoleSize=0mm|Usage=FLASHONLY|Rotation=360.000|XOffset=0mm|YOffset=0mm|HoleType=Round|Shape=RoundedRectangle|*
%AMROUNDEDRECTD30*
21,1,0.2400,0.4992,0,0,360.0*
21,1,0.1392,0.6000,0,0,360.0*
1,1,0.1008,0.0696,-0.2496*
1,1,0.1008,-0.0696,-0.2496*
1,1,0.1008,-0.0696,0.2496*
1,1,0.1008,0.0696,0.2496*
%
%ADD30ROUNDEDRECTD30*%
%ADD31R,0.8700X0.8700*%
%ADD32R,0.6000X0.5000*%
%ADD33R,0.7400X0.7300*%
%ADD34R,0.8500X0.7500*%
%ADD35R,0.7200X0.7200*%
%ADD36R,0.2500X0.6750*%
%ADD37R,0.6750X0.2500*%
%ADD38R,0.6800X1.8000*%
%ADD39R,1.8000X0.6800*%
%ADD40R,0.6200X0.6200*%
%ADD41R,0.5000X0.6000*%
%ADD101R,1.4070X1.4070*%
D14*
X1264602Y318100D02*
D03*
Y288100D02*
D03*
Y273100D02*
D03*
Y713100D02*
D03*
Y683100D02*
D03*
Y668100D02*
D03*
Y1108100D02*
D03*
Y1078100D02*
D03*
Y1063100D02*
D03*
X981852Y318100D02*
D03*
Y288100D02*
D03*
Y273100D02*
D03*
Y713100D02*
D03*
Y683100D02*
D03*
Y668100D02*
D03*
Y1108100D02*
D03*
Y1078100D02*
D03*
Y1063100D02*
D03*
X699102Y318100D02*
D03*
Y288100D02*
D03*
Y273100D02*
D03*
Y713100D02*
D03*
Y683100D02*
D03*
Y668100D02*
D03*
Y1108100D02*
D03*
Y1078100D02*
D03*
Y1063100D02*
D03*
X416352Y318100D02*
D03*
Y288100D02*
D03*
Y273100D02*
D03*
Y713100D02*
D03*
Y683100D02*
D03*
Y668100D02*
D03*
Y1108100D02*
D03*
Y1078100D02*
D03*
Y1063100D02*
D03*
X133602Y318100D02*
D03*
Y288100D02*
D03*
Y273100D02*
D03*
Y713100D02*
D03*
Y683100D02*
D03*
Y668100D02*
D03*
Y1108100D02*
D03*
Y1078100D02*
D03*
Y1063100D02*
D03*
X245398Y2156900D02*
D03*
Y2186900D02*
D03*
Y2201900D02*
D03*
Y1761900D02*
D03*
Y1791900D02*
D03*
Y1806900D02*
D03*
Y1366900D02*
D03*
Y1396900D02*
D03*
Y1411900D02*
D03*
X528148Y2156900D02*
D03*
Y2186900D02*
D03*
Y2201900D02*
D03*
Y1761900D02*
D03*
Y1791900D02*
D03*
Y1806900D02*
D03*
Y1366900D02*
D03*
Y1396900D02*
D03*
Y1411900D02*
D03*
X810898Y2156900D02*
D03*
Y2186900D02*
D03*
Y2201900D02*
D03*
Y1761900D02*
D03*
Y1791900D02*
D03*
Y1806900D02*
D03*
Y1366900D02*
D03*
Y1396900D02*
D03*
Y1411900D02*
D03*
X1093648Y2156900D02*
D03*
Y2186900D02*
D03*
Y2201900D02*
D03*
Y1761900D02*
D03*
Y1791900D02*
D03*
Y1806900D02*
D03*
Y1366900D02*
D03*
Y1396900D02*
D03*
Y1411900D02*
D03*
X1376398Y2156900D02*
D03*
Y2186900D02*
D03*
Y2201900D02*
D03*
Y1761900D02*
D03*
Y1791900D02*
D03*
Y1806900D02*
D03*
Y1366900D02*
D03*
Y1396900D02*
D03*
Y1411900D02*
D03*
D15*
X1258102Y259100D02*
D03*
Y332100D02*
D03*
Y654100D02*
D03*
Y727100D02*
D03*
Y1049100D02*
D03*
Y1122100D02*
D03*
X975352Y259100D02*
D03*
Y332100D02*
D03*
Y654100D02*
D03*
Y727100D02*
D03*
Y1049100D02*
D03*
Y1122100D02*
D03*
X692602Y259100D02*
D03*
Y332100D02*
D03*
Y654100D02*
D03*
Y727100D02*
D03*
Y1049100D02*
D03*
Y1122100D02*
D03*
X409852Y259100D02*
D03*
Y332100D02*
D03*
Y654100D02*
D03*
Y727100D02*
D03*
Y1049100D02*
D03*
Y1122100D02*
D03*
X127102Y259100D02*
D03*
Y332100D02*
D03*
Y654100D02*
D03*
Y727100D02*
D03*
Y1049100D02*
D03*
Y1122100D02*
D03*
X251898Y2215900D02*
D03*
Y2142900D02*
D03*
Y1820900D02*
D03*
Y1747900D02*
D03*
Y1425900D02*
D03*
Y1352900D02*
D03*
X534648Y2215900D02*
D03*
Y2142900D02*
D03*
Y1820900D02*
D03*
Y1747900D02*
D03*
Y1425900D02*
D03*
Y1352900D02*
D03*
X817398Y2215900D02*
D03*
Y2142900D02*
D03*
Y1820900D02*
D03*
Y1747900D02*
D03*
Y1425900D02*
D03*
Y1352900D02*
D03*
X1100148Y2215900D02*
D03*
Y2142900D02*
D03*
Y1820900D02*
D03*
Y1747900D02*
D03*
Y1425900D02*
D03*
Y1352900D02*
D03*
X1382898Y2215900D02*
D03*
Y2142900D02*
D03*
Y1820900D02*
D03*
Y1747900D02*
D03*
Y1425900D02*
D03*
Y1352900D02*
D03*
D16*
X1237102Y259100D02*
D03*
Y332100D02*
D03*
Y654100D02*
D03*
Y727100D02*
D03*
Y1049100D02*
D03*
Y1122100D02*
D03*
X954352Y259100D02*
D03*
Y332100D02*
D03*
Y654100D02*
D03*
Y727100D02*
D03*
Y1049100D02*
D03*
Y1122100D02*
D03*
X671602Y259100D02*
D03*
Y332100D02*
D03*
Y654100D02*
D03*
Y727100D02*
D03*
Y1049100D02*
D03*
Y1122100D02*
D03*
X388852Y259100D02*
D03*
Y332100D02*
D03*
Y654100D02*
D03*
Y727100D02*
D03*
Y1049100D02*
D03*
Y1122100D02*
D03*
X106102Y259100D02*
D03*
Y332100D02*
D03*
Y654100D02*
D03*
Y727100D02*
D03*
Y1049100D02*
D03*
Y1122100D02*
D03*
X272898Y2215900D02*
D03*
Y2142900D02*
D03*
Y1820900D02*
D03*
Y1747900D02*
D03*
Y1425900D02*
D03*
Y1352900D02*
D03*
X555648Y2215900D02*
D03*
Y2142900D02*
D03*
Y1820900D02*
D03*
Y1747900D02*
D03*
Y1425900D02*
D03*
Y1352900D02*
D03*
X838398Y2215900D02*
D03*
Y2142900D02*
D03*
Y1820900D02*
D03*
Y1747900D02*
D03*
Y1425900D02*
D03*
Y1352900D02*
D03*
X1121148Y2215900D02*
D03*
Y2142900D02*
D03*
Y1820900D02*
D03*
Y1747900D02*
D03*
Y1425900D02*
D03*
Y1352900D02*
D03*
X1403898Y2215900D02*
D03*
Y2142900D02*
D03*
Y1820900D02*
D03*
Y1747900D02*
D03*
Y1425900D02*
D03*
Y1352900D02*
D03*
D17*
X1261750Y377500D02*
D03*
X1277750D02*
D03*
X1261750Y772500D02*
D03*
X1277750D02*
D03*
X1261750Y1167500D02*
D03*
X1277750D02*
D03*
X979000Y377500D02*
D03*
X995000D02*
D03*
X979000Y772500D02*
D03*
X995000D02*
D03*
X979000Y1167500D02*
D03*
X995000D02*
D03*
X696250Y377500D02*
D03*
X712250D02*
D03*
X696250Y772500D02*
D03*
X712250D02*
D03*
X696250Y1167500D02*
D03*
X712250D02*
D03*
X413500Y377500D02*
D03*
X429500D02*
D03*
X413500Y772500D02*
D03*
X429500D02*
D03*
X413500Y1167500D02*
D03*
X429500D02*
D03*
X130750Y377500D02*
D03*
X146750D02*
D03*
X130750Y772500D02*
D03*
X146750D02*
D03*
X130750Y1167500D02*
D03*
X146750D02*
D03*
X248250Y2097500D02*
D03*
X232250D02*
D03*
X248250Y1702500D02*
D03*
X232250D02*
D03*
X248250Y1307500D02*
D03*
X232250D02*
D03*
X531000Y2097500D02*
D03*
X515000D02*
D03*
X531000Y1702500D02*
D03*
X515000D02*
D03*
X531000Y1307500D02*
D03*
X515000D02*
D03*
X813750Y2097500D02*
D03*
X797750D02*
D03*
X813750Y1702500D02*
D03*
X797750D02*
D03*
X813750Y1307500D02*
D03*
X797750D02*
D03*
X1096500Y2097500D02*
D03*
X1080500D02*
D03*
X1096500Y1702500D02*
D03*
X1080500D02*
D03*
X1096500Y1307500D02*
D03*
X1080500D02*
D03*
X1379250Y2097500D02*
D03*
X1363250D02*
D03*
X1379250Y1702500D02*
D03*
X1363250D02*
D03*
X1379250Y1307500D02*
D03*
X1363250D02*
D03*
D18*
X1318650Y371850D02*
D03*
X1310650D02*
D03*
X1325000Y380400D02*
D03*
X1317000D02*
D03*
X1323678Y287800D02*
D03*
X1331678D02*
D03*
X1318650Y766850D02*
D03*
X1310650D02*
D03*
X1325000Y775400D02*
D03*
X1317000D02*
D03*
X1323678Y682800D02*
D03*
X1331678D02*
D03*
X1318650Y1161850D02*
D03*
X1310650D02*
D03*
X1325000Y1170400D02*
D03*
X1317000D02*
D03*
X1323678Y1077800D02*
D03*
X1331678D02*
D03*
X1035900Y371850D02*
D03*
X1027900D02*
D03*
X1042250Y380400D02*
D03*
X1034250D02*
D03*
X1040928Y287800D02*
D03*
X1048928D02*
D03*
X1035900Y766850D02*
D03*
X1027900D02*
D03*
X1042250Y775400D02*
D03*
X1034250D02*
D03*
X1040928Y682800D02*
D03*
X1048928D02*
D03*
X1035900Y1161850D02*
D03*
X1027900D02*
D03*
X1042250Y1170400D02*
D03*
X1034250D02*
D03*
X1040928Y1077800D02*
D03*
X1048928D02*
D03*
X753150Y371850D02*
D03*
X745150D02*
D03*
X759500Y380400D02*
D03*
X751500D02*
D03*
X758178Y287800D02*
D03*
X766178D02*
D03*
X753150Y766850D02*
D03*
X745150D02*
D03*
X759500Y775400D02*
D03*
X751500D02*
D03*
X758178Y682800D02*
D03*
X766178D02*
D03*
X753150Y1161850D02*
D03*
X745150D02*
D03*
X759500Y1170400D02*
D03*
X751500D02*
D03*
X758178Y1077800D02*
D03*
X766178D02*
D03*
X470400Y371850D02*
D03*
X462400D02*
D03*
X476750Y380400D02*
D03*
X468750D02*
D03*
X475428Y287800D02*
D03*
X483428D02*
D03*
X470400Y766850D02*
D03*
X462400D02*
D03*
X476750Y775400D02*
D03*
X468750D02*
D03*
X475428Y682800D02*
D03*
X483428D02*
D03*
X470400Y1161850D02*
D03*
X462400D02*
D03*
X476750Y1170400D02*
D03*
X468750D02*
D03*
X475428Y1077800D02*
D03*
X483428D02*
D03*
X187650Y371850D02*
D03*
X179650D02*
D03*
X194000Y380400D02*
D03*
X186000D02*
D03*
X192677Y287800D02*
D03*
X200678D02*
D03*
X187650Y766850D02*
D03*
X179650D02*
D03*
X194000Y775400D02*
D03*
X186000D02*
D03*
X192677Y682800D02*
D03*
X200678D02*
D03*
X187650Y1161850D02*
D03*
X179650D02*
D03*
X194000Y1170400D02*
D03*
X186000D02*
D03*
X192677Y1077800D02*
D03*
X200678D02*
D03*
X191350Y2103150D02*
D03*
X199350D02*
D03*
X185000Y2094600D02*
D03*
X193000D02*
D03*
X186322Y2187200D02*
D03*
X178322D02*
D03*
X191350Y1708150D02*
D03*
X199350D02*
D03*
X185000Y1699600D02*
D03*
X193000D02*
D03*
X186322Y1792200D02*
D03*
X178322D02*
D03*
X191350Y1313150D02*
D03*
X199350D02*
D03*
X185000Y1304600D02*
D03*
X193000D02*
D03*
X186322Y1397200D02*
D03*
X178322D02*
D03*
X474100Y2103150D02*
D03*
X482100D02*
D03*
X467750Y2094600D02*
D03*
X475750D02*
D03*
X469072Y2187200D02*
D03*
X461072D02*
D03*
X474100Y1708150D02*
D03*
X482100D02*
D03*
X467750Y1699600D02*
D03*
X475750D02*
D03*
X469072Y1792200D02*
D03*
X461072D02*
D03*
X474100Y1313150D02*
D03*
X482100D02*
D03*
X467750Y1304600D02*
D03*
X475750D02*
D03*
X469072Y1397200D02*
D03*
X461072D02*
D03*
X756850Y2103150D02*
D03*
X764850D02*
D03*
X750500Y2094600D02*
D03*
X758500D02*
D03*
X751822Y2187200D02*
D03*
X743822D02*
D03*
X756850Y1708150D02*
D03*
X764850D02*
D03*
X750500Y1699600D02*
D03*
X758500D02*
D03*
X751822Y1792200D02*
D03*
X743822D02*
D03*
X756850Y1313150D02*
D03*
X764850D02*
D03*
X750500Y1304600D02*
D03*
X758500D02*
D03*
X751822Y1397200D02*
D03*
X743822D02*
D03*
X1039600Y2103150D02*
D03*
X1047600D02*
D03*
X1033250Y2094600D02*
D03*
X1041250D02*
D03*
X1034572Y2187200D02*
D03*
X1026572D02*
D03*
X1039600Y1708150D02*
D03*
X1047600D02*
D03*
X1033250Y1699600D02*
D03*
X1041250D02*
D03*
X1034572Y1792200D02*
D03*
X1026572D02*
D03*
X1039600Y1313150D02*
D03*
X1047600D02*
D03*
X1033250Y1304600D02*
D03*
X1041250D02*
D03*
X1034572Y1397200D02*
D03*
X1026572D02*
D03*
X1322350Y2103150D02*
D03*
X1330350D02*
D03*
X1316000Y2094600D02*
D03*
X1324000D02*
D03*
X1317323Y2187200D02*
D03*
X1309323D02*
D03*
X1322350Y1708150D02*
D03*
X1330350D02*
D03*
X1316000Y1699600D02*
D03*
X1324000D02*
D03*
X1317323Y1792200D02*
D03*
X1309323D02*
D03*
X1322350Y1313150D02*
D03*
X1330350D02*
D03*
X1316000Y1304600D02*
D03*
X1324000D02*
D03*
X1317323Y1397200D02*
D03*
X1309323D02*
D03*
D19*
X1357080Y343276D02*
D03*
Y351276D02*
D03*
X1276750Y281550D02*
D03*
Y289550D02*
D03*
X1357080Y738276D02*
D03*
Y746276D02*
D03*
X1276750Y676550D02*
D03*
Y684550D02*
D03*
X1357080Y1133276D02*
D03*
Y1141276D02*
D03*
X1276750Y1071550D02*
D03*
Y1079550D02*
D03*
X1074330Y343276D02*
D03*
Y351276D02*
D03*
X994000Y281550D02*
D03*
Y289550D02*
D03*
X1074330Y738276D02*
D03*
Y746276D02*
D03*
X994000Y676550D02*
D03*
Y684550D02*
D03*
X1074330Y1133276D02*
D03*
Y1141276D02*
D03*
X994000Y1071550D02*
D03*
Y1079550D02*
D03*
X791580Y343276D02*
D03*
Y351276D02*
D03*
X711250Y281550D02*
D03*
Y289550D02*
D03*
X791580Y738276D02*
D03*
Y746276D02*
D03*
X711250Y676550D02*
D03*
Y684550D02*
D03*
X791580Y1133276D02*
D03*
Y1141276D02*
D03*
X711250Y1071550D02*
D03*
Y1079550D02*
D03*
X508830Y343276D02*
D03*
Y351276D02*
D03*
X428500Y281550D02*
D03*
Y289550D02*
D03*
X508830Y738276D02*
D03*
Y746276D02*
D03*
X428500Y676550D02*
D03*
Y684550D02*
D03*
X508830Y1133276D02*
D03*
Y1141276D02*
D03*
X428500Y1071550D02*
D03*
Y1079550D02*
D03*
X226080Y343276D02*
D03*
Y351276D02*
D03*
X145750Y281550D02*
D03*
Y289550D02*
D03*
X226080Y738276D02*
D03*
Y746276D02*
D03*
X145750Y676550D02*
D03*
Y684550D02*
D03*
X226080Y1133276D02*
D03*
Y1141276D02*
D03*
X145750Y1071550D02*
D03*
Y1079550D02*
D03*
X152920Y2131724D02*
D03*
Y2123724D02*
D03*
X233250Y2193450D02*
D03*
Y2185450D02*
D03*
X152920Y1736724D02*
D03*
Y1728724D02*
D03*
X233250Y1798450D02*
D03*
Y1790450D02*
D03*
X152920Y1341724D02*
D03*
Y1333724D02*
D03*
X233250Y1403450D02*
D03*
Y1395450D02*
D03*
X435670Y2131724D02*
D03*
Y2123724D02*
D03*
X516000Y2193450D02*
D03*
Y2185450D02*
D03*
X435670Y1736724D02*
D03*
Y1728724D02*
D03*
X516000Y1798450D02*
D03*
Y1790450D02*
D03*
X435670Y1341724D02*
D03*
Y1333724D02*
D03*
X516000Y1403450D02*
D03*
Y1395450D02*
D03*
X718420Y2131724D02*
D03*
Y2123724D02*
D03*
X798750Y2193450D02*
D03*
Y2185450D02*
D03*
X718420Y1736724D02*
D03*
Y1728724D02*
D03*
X798750Y1798450D02*
D03*
Y1790450D02*
D03*
X718420Y1341724D02*
D03*
Y1333724D02*
D03*
X798750Y1403450D02*
D03*
Y1395450D02*
D03*
X1001170Y2131724D02*
D03*
Y2123724D02*
D03*
X1081500Y2193450D02*
D03*
Y2185450D02*
D03*
X1001170Y1736724D02*
D03*
Y1728724D02*
D03*
X1081500Y1798450D02*
D03*
Y1790450D02*
D03*
X1001170Y1341724D02*
D03*
Y1333724D02*
D03*
X1081500Y1403450D02*
D03*
Y1395450D02*
D03*
X1283920Y2131724D02*
D03*
Y2123724D02*
D03*
X1364250Y2193450D02*
D03*
Y2185450D02*
D03*
X1283920Y1736724D02*
D03*
Y1728724D02*
D03*
X1364250Y1798450D02*
D03*
Y1790450D02*
D03*
X1283920Y1341724D02*
D03*
Y1333724D02*
D03*
X1364250Y1403450D02*
D03*
Y1395450D02*
D03*
D20*
X1356000Y281300D02*
D03*
Y288100D02*
D03*
Y676300D02*
D03*
Y683100D02*
D03*
Y1071300D02*
D03*
Y1078100D02*
D03*
X1073250Y281300D02*
D03*
Y288100D02*
D03*
Y676300D02*
D03*
Y683100D02*
D03*
Y1071300D02*
D03*
Y1078100D02*
D03*
X790500Y281300D02*
D03*
Y288100D02*
D03*
Y676300D02*
D03*
Y683100D02*
D03*
Y1071300D02*
D03*
Y1078100D02*
D03*
X507750Y281300D02*
D03*
Y288100D02*
D03*
Y676300D02*
D03*
Y683100D02*
D03*
Y1071300D02*
D03*
Y1078100D02*
D03*
X225000Y281300D02*
D03*
Y288100D02*
D03*
Y676300D02*
D03*
Y683100D02*
D03*
Y1071300D02*
D03*
Y1078100D02*
D03*
X154000Y2193700D02*
D03*
Y2186900D02*
D03*
Y1798700D02*
D03*
Y1791900D02*
D03*
Y1403700D02*
D03*
Y1396900D02*
D03*
X436750Y2193700D02*
D03*
Y2186900D02*
D03*
Y1798700D02*
D03*
Y1791900D02*
D03*
Y1403700D02*
D03*
Y1396900D02*
D03*
X719500Y2193700D02*
D03*
Y2186900D02*
D03*
Y1798700D02*
D03*
Y1791900D02*
D03*
Y1403700D02*
D03*
Y1396900D02*
D03*
X1002250Y2193700D02*
D03*
Y2186900D02*
D03*
Y1798700D02*
D03*
Y1791900D02*
D03*
Y1403700D02*
D03*
Y1396900D02*
D03*
X1285000Y2193700D02*
D03*
Y2186900D02*
D03*
Y1798700D02*
D03*
Y1791900D02*
D03*
Y1403700D02*
D03*
Y1396900D02*
D03*
D21*
X1356000Y296500D02*
D03*
Y305500D02*
D03*
Y691500D02*
D03*
Y700500D02*
D03*
Y1086500D02*
D03*
Y1095500D02*
D03*
X1073250Y296500D02*
D03*
Y305500D02*
D03*
Y691500D02*
D03*
Y700500D02*
D03*
Y1086500D02*
D03*
Y1095500D02*
D03*
X790500Y296500D02*
D03*
Y305500D02*
D03*
Y691500D02*
D03*
Y700500D02*
D03*
Y1086500D02*
D03*
Y1095500D02*
D03*
X507750Y296500D02*
D03*
Y305500D02*
D03*
Y691500D02*
D03*
Y700500D02*
D03*
Y1086500D02*
D03*
Y1095500D02*
D03*
X225000Y296500D02*
D03*
Y305500D02*
D03*
Y691500D02*
D03*
Y700500D02*
D03*
Y1086500D02*
D03*
Y1095500D02*
D03*
X154000Y2178500D02*
D03*
Y2169500D02*
D03*
Y1783500D02*
D03*
Y1774500D02*
D03*
Y1388500D02*
D03*
Y1379500D02*
D03*
X436750Y2178500D02*
D03*
Y2169500D02*
D03*
Y1783500D02*
D03*
Y1774500D02*
D03*
Y1388500D02*
D03*
Y1379500D02*
D03*
X719500Y2178500D02*
D03*
Y2169500D02*
D03*
Y1783500D02*
D03*
Y1774500D02*
D03*
Y1388500D02*
D03*
Y1379500D02*
D03*
X1002250Y2178500D02*
D03*
Y2169500D02*
D03*
Y1783500D02*
D03*
Y1774500D02*
D03*
Y1388500D02*
D03*
Y1379500D02*
D03*
X1285000Y2178500D02*
D03*
Y2169500D02*
D03*
Y1783500D02*
D03*
Y1774500D02*
D03*
Y1388500D02*
D03*
Y1379500D02*
D03*
D22*
X1369125Y310662D02*
D03*
Y317162D02*
D03*
Y297662D02*
D03*
Y304162D02*
D03*
Y323662D02*
D03*
Y705662D02*
D03*
Y712162D02*
D03*
Y692662D02*
D03*
Y699162D02*
D03*
Y718662D02*
D03*
Y1100662D02*
D03*
Y1107162D02*
D03*
Y1087662D02*
D03*
Y1094162D02*
D03*
Y1113662D02*
D03*
X1086375Y310662D02*
D03*
Y317162D02*
D03*
Y297662D02*
D03*
Y304162D02*
D03*
Y323662D02*
D03*
Y705662D02*
D03*
Y712162D02*
D03*
Y692662D02*
D03*
Y699162D02*
D03*
Y718662D02*
D03*
Y1100662D02*
D03*
Y1107162D02*
D03*
Y1087662D02*
D03*
Y1094162D02*
D03*
Y1113662D02*
D03*
X803625Y310662D02*
D03*
Y317162D02*
D03*
Y297662D02*
D03*
Y304162D02*
D03*
Y323662D02*
D03*
Y705662D02*
D03*
Y712162D02*
D03*
Y692662D02*
D03*
Y699162D02*
D03*
Y718662D02*
D03*
Y1100662D02*
D03*
Y1107162D02*
D03*
Y1087662D02*
D03*
Y1094162D02*
D03*
Y1113662D02*
D03*
X520875Y310662D02*
D03*
Y317162D02*
D03*
Y297662D02*
D03*
Y304162D02*
D03*
Y323662D02*
D03*
Y705662D02*
D03*
Y712162D02*
D03*
Y692662D02*
D03*
Y699162D02*
D03*
Y718662D02*
D03*
Y1100662D02*
D03*
Y1107162D02*
D03*
Y1087662D02*
D03*
Y1094162D02*
D03*
Y1113662D02*
D03*
X238125Y310662D02*
D03*
Y317162D02*
D03*
Y297662D02*
D03*
Y304162D02*
D03*
Y323662D02*
D03*
Y705662D02*
D03*
Y712162D02*
D03*
Y692662D02*
D03*
Y699162D02*
D03*
Y718662D02*
D03*
Y1100662D02*
D03*
Y1107162D02*
D03*
Y1087662D02*
D03*
Y1094162D02*
D03*
Y1113662D02*
D03*
X140875Y2164338D02*
D03*
Y2157838D02*
D03*
Y2177338D02*
D03*
Y2170838D02*
D03*
Y2151338D02*
D03*
Y1769338D02*
D03*
Y1762838D02*
D03*
Y1782338D02*
D03*
Y1775838D02*
D03*
Y1756338D02*
D03*
Y1374338D02*
D03*
Y1367838D02*
D03*
Y1387338D02*
D03*
Y1380838D02*
D03*
Y1361338D02*
D03*
X423625Y2164338D02*
D03*
Y2157838D02*
D03*
Y2177338D02*
D03*
Y2170838D02*
D03*
Y2151338D02*
D03*
Y1769338D02*
D03*
Y1762838D02*
D03*
Y1782338D02*
D03*
Y1775838D02*
D03*
Y1756338D02*
D03*
Y1374338D02*
D03*
Y1367838D02*
D03*
Y1387338D02*
D03*
Y1380838D02*
D03*
Y1361338D02*
D03*
X706375Y2164338D02*
D03*
Y2157838D02*
D03*
Y2177338D02*
D03*
Y2170838D02*
D03*
Y2151338D02*
D03*
Y1769338D02*
D03*
Y1762838D02*
D03*
Y1782338D02*
D03*
Y1775838D02*
D03*
Y1756338D02*
D03*
Y1374338D02*
D03*
Y1367838D02*
D03*
Y1387338D02*
D03*
Y1380838D02*
D03*
Y1361338D02*
D03*
X989125Y2164338D02*
D03*
Y2157838D02*
D03*
Y2177338D02*
D03*
Y2170838D02*
D03*
Y2151338D02*
D03*
Y1769338D02*
D03*
Y1762838D02*
D03*
Y1782338D02*
D03*
Y1775838D02*
D03*
Y1756338D02*
D03*
Y1374338D02*
D03*
Y1367838D02*
D03*
Y1387338D02*
D03*
Y1380838D02*
D03*
Y1361338D02*
D03*
X1271875Y2164338D02*
D03*
Y2157838D02*
D03*
Y2177338D02*
D03*
Y2170838D02*
D03*
Y2151338D02*
D03*
Y1769338D02*
D03*
Y1762838D02*
D03*
Y1782338D02*
D03*
Y1775838D02*
D03*
Y1756338D02*
D03*
Y1374338D02*
D03*
Y1367838D02*
D03*
Y1387338D02*
D03*
Y1380838D02*
D03*
Y1361338D02*
D03*
D23*
X1395875Y302162D02*
D03*
Y319162D02*
D03*
Y697162D02*
D03*
Y714162D02*
D03*
Y1092162D02*
D03*
Y1109162D02*
D03*
X1113125Y302162D02*
D03*
Y319162D02*
D03*
Y697162D02*
D03*
Y714162D02*
D03*
Y1092162D02*
D03*
Y1109162D02*
D03*
X830375Y302162D02*
D03*
Y319162D02*
D03*
Y697162D02*
D03*
Y714162D02*
D03*
Y1092162D02*
D03*
Y1109162D02*
D03*
X547625Y302162D02*
D03*
Y319162D02*
D03*
Y697162D02*
D03*
Y714162D02*
D03*
Y1092162D02*
D03*
Y1109162D02*
D03*
X264875Y302162D02*
D03*
Y319162D02*
D03*
Y697162D02*
D03*
Y714162D02*
D03*
Y1092162D02*
D03*
Y1109162D02*
D03*
X114125Y2172838D02*
D03*
Y2155838D02*
D03*
Y1777838D02*
D03*
Y1760838D02*
D03*
Y1382838D02*
D03*
Y1365838D02*
D03*
X396875Y2172838D02*
D03*
Y2155838D02*
D03*
Y1777838D02*
D03*
Y1760838D02*
D03*
Y1382838D02*
D03*
Y1365838D02*
D03*
X679625Y2172838D02*
D03*
Y2155838D02*
D03*
Y1777838D02*
D03*
Y1760838D02*
D03*
Y1382838D02*
D03*
Y1365838D02*
D03*
X962375Y2172838D02*
D03*
Y2155838D02*
D03*
Y1777838D02*
D03*
Y1760838D02*
D03*
Y1382838D02*
D03*
Y1365838D02*
D03*
X1245125Y2172838D02*
D03*
Y2155838D02*
D03*
Y1777838D02*
D03*
Y1760838D02*
D03*
Y1382838D02*
D03*
Y1365838D02*
D03*
D24*
X1395875Y269662D02*
D03*
Y351662D02*
D03*
Y664662D02*
D03*
Y746662D02*
D03*
Y1059662D02*
D03*
Y1141662D02*
D03*
X1113125Y269662D02*
D03*
Y351662D02*
D03*
Y664662D02*
D03*
Y746662D02*
D03*
Y1059662D02*
D03*
Y1141662D02*
D03*
X830375Y269662D02*
D03*
Y351662D02*
D03*
Y664662D02*
D03*
Y746662D02*
D03*
Y1059662D02*
D03*
Y1141662D02*
D03*
X547625Y269662D02*
D03*
Y351662D02*
D03*
Y664662D02*
D03*
Y746662D02*
D03*
Y1059662D02*
D03*
Y1141662D02*
D03*
X264875Y269662D02*
D03*
Y351662D02*
D03*
Y664662D02*
D03*
Y746662D02*
D03*
Y1059662D02*
D03*
Y1141662D02*
D03*
X114125Y2205338D02*
D03*
Y2123338D02*
D03*
Y1810338D02*
D03*
Y1728338D02*
D03*
Y1415338D02*
D03*
Y1333338D02*
D03*
X396875Y2205338D02*
D03*
Y2123338D02*
D03*
Y1810338D02*
D03*
Y1728338D02*
D03*
Y1415338D02*
D03*
Y1333338D02*
D03*
X679625Y2205338D02*
D03*
Y2123338D02*
D03*
Y1810338D02*
D03*
Y1728338D02*
D03*
Y1415338D02*
D03*
Y1333338D02*
D03*
X962375Y2205338D02*
D03*
Y2123338D02*
D03*
Y1810338D02*
D03*
Y1728338D02*
D03*
Y1415338D02*
D03*
Y1333338D02*
D03*
X1245125Y2205338D02*
D03*
Y2123338D02*
D03*
Y1810338D02*
D03*
Y1728338D02*
D03*
Y1415338D02*
D03*
Y1333338D02*
D03*
D25*
X1372375Y279662D02*
D03*
Y341662D02*
D03*
Y674662D02*
D03*
Y736662D02*
D03*
Y1069662D02*
D03*
Y1131662D02*
D03*
X1089625Y279662D02*
D03*
Y341662D02*
D03*
Y674662D02*
D03*
Y736662D02*
D03*
Y1069662D02*
D03*
Y1131662D02*
D03*
X806875Y279662D02*
D03*
Y341662D02*
D03*
Y674662D02*
D03*
Y736662D02*
D03*
Y1069662D02*
D03*
Y1131662D02*
D03*
X524125Y279662D02*
D03*
Y341662D02*
D03*
Y674662D02*
D03*
Y736662D02*
D03*
Y1069662D02*
D03*
Y1131662D02*
D03*
X241375Y279662D02*
D03*
Y341662D02*
D03*
Y674662D02*
D03*
Y736662D02*
D03*
Y1069662D02*
D03*
Y1131662D02*
D03*
X137625Y2195338D02*
D03*
Y2133338D02*
D03*
Y1800338D02*
D03*
Y1738338D02*
D03*
Y1405338D02*
D03*
Y1343338D02*
D03*
X420375Y2195338D02*
D03*
Y2133338D02*
D03*
Y1800338D02*
D03*
Y1738338D02*
D03*
Y1405338D02*
D03*
Y1343338D02*
D03*
X703125Y2195338D02*
D03*
Y2133338D02*
D03*
Y1800338D02*
D03*
Y1738338D02*
D03*
Y1405338D02*
D03*
Y1343338D02*
D03*
X985875Y2195338D02*
D03*
Y2133338D02*
D03*
Y1800338D02*
D03*
Y1738338D02*
D03*
Y1405338D02*
D03*
Y1343338D02*
D03*
X1268625Y2195338D02*
D03*
Y2133338D02*
D03*
Y1800338D02*
D03*
Y1738338D02*
D03*
Y1405338D02*
D03*
Y1343338D02*
D03*
D26*
X1316000Y428500D02*
D03*
Y432500D02*
D03*
Y436500D02*
D03*
Y440500D02*
D03*
X1320000Y428500D02*
D03*
Y440500D02*
D03*
X1324000Y428500D02*
D03*
Y440500D02*
D03*
X1328000Y428500D02*
D03*
Y432500D02*
D03*
Y436500D02*
D03*
Y440500D02*
D03*
X1316000Y823500D02*
D03*
Y827500D02*
D03*
Y831500D02*
D03*
Y835500D02*
D03*
X1320000Y823500D02*
D03*
Y835500D02*
D03*
X1324000Y823500D02*
D03*
Y835500D02*
D03*
X1328000Y823500D02*
D03*
Y827500D02*
D03*
Y831500D02*
D03*
Y835500D02*
D03*
X1316000Y1218500D02*
D03*
Y1222500D02*
D03*
Y1226500D02*
D03*
Y1230500D02*
D03*
X1320000Y1218500D02*
D03*
Y1230500D02*
D03*
X1324000Y1218500D02*
D03*
Y1230500D02*
D03*
X1328000Y1218500D02*
D03*
Y1222500D02*
D03*
Y1226500D02*
D03*
Y1230500D02*
D03*
X1033250Y428500D02*
D03*
Y432500D02*
D03*
Y436500D02*
D03*
Y440500D02*
D03*
X1037250Y428500D02*
D03*
Y440500D02*
D03*
X1041250Y428500D02*
D03*
Y440500D02*
D03*
X1045250Y428500D02*
D03*
Y432500D02*
D03*
Y436500D02*
D03*
Y440500D02*
D03*
X1033250Y823500D02*
D03*
Y827500D02*
D03*
Y831500D02*
D03*
Y835500D02*
D03*
X1037250Y823500D02*
D03*
Y835500D02*
D03*
X1041250Y823500D02*
D03*
Y835500D02*
D03*
X1045250Y823500D02*
D03*
Y827500D02*
D03*
Y831500D02*
D03*
Y835500D02*
D03*
X1033250Y1218500D02*
D03*
Y1222500D02*
D03*
Y1226500D02*
D03*
Y1230500D02*
D03*
X1037250Y1218500D02*
D03*
Y1230500D02*
D03*
X1041250Y1218500D02*
D03*
Y1230500D02*
D03*
X1045250Y1218500D02*
D03*
Y1222500D02*
D03*
Y1226500D02*
D03*
Y1230500D02*
D03*
X750500Y428500D02*
D03*
Y432500D02*
D03*
Y436500D02*
D03*
Y440500D02*
D03*
X754500Y428500D02*
D03*
Y440500D02*
D03*
X758500Y428500D02*
D03*
Y440500D02*
D03*
X762500Y428500D02*
D03*
Y432500D02*
D03*
Y436500D02*
D03*
Y440500D02*
D03*
X750500Y823500D02*
D03*
Y827500D02*
D03*
Y831500D02*
D03*
Y835500D02*
D03*
X754500Y823500D02*
D03*
Y835500D02*
D03*
X758500Y823500D02*
D03*
Y835500D02*
D03*
X762500Y823500D02*
D03*
Y827500D02*
D03*
Y831500D02*
D03*
Y835500D02*
D03*
X750500Y1218500D02*
D03*
Y1222500D02*
D03*
Y1226500D02*
D03*
Y1230500D02*
D03*
X754500Y1218500D02*
D03*
Y1230500D02*
D03*
X758500Y1218500D02*
D03*
Y1230500D02*
D03*
X762500Y1218500D02*
D03*
Y1222500D02*
D03*
Y1226500D02*
D03*
Y1230500D02*
D03*
X467750Y428500D02*
D03*
Y432500D02*
D03*
Y436500D02*
D03*
Y440500D02*
D03*
X471750Y428500D02*
D03*
Y440500D02*
D03*
X475750Y428500D02*
D03*
Y440500D02*
D03*
X479750Y428500D02*
D03*
Y432500D02*
D03*
Y436500D02*
D03*
Y440500D02*
D03*
X467750Y823500D02*
D03*
Y827500D02*
D03*
Y831500D02*
D03*
Y835500D02*
D03*
X471750Y823500D02*
D03*
Y835500D02*
D03*
X475750Y823500D02*
D03*
Y835500D02*
D03*
X479750Y823500D02*
D03*
Y827500D02*
D03*
Y831500D02*
D03*
Y835500D02*
D03*
X467750Y1218500D02*
D03*
Y1222500D02*
D03*
Y1226500D02*
D03*
Y1230500D02*
D03*
X471750Y1218500D02*
D03*
Y1230500D02*
D03*
X475750Y1218500D02*
D03*
Y1230500D02*
D03*
X479750Y1218500D02*
D03*
Y1222500D02*
D03*
Y1226500D02*
D03*
Y1230500D02*
D03*
X185000Y428500D02*
D03*
Y432500D02*
D03*
Y436500D02*
D03*
Y440500D02*
D03*
X189000Y428500D02*
D03*
Y440500D02*
D03*
X193000Y428500D02*
D03*
Y440500D02*
D03*
X197000Y428500D02*
D03*
Y432500D02*
D03*
Y436500D02*
D03*
Y440500D02*
D03*
X185000Y823500D02*
D03*
Y827500D02*
D03*
Y831500D02*
D03*
Y835500D02*
D03*
X189000Y823500D02*
D03*
Y835500D02*
D03*
X193000Y823500D02*
D03*
Y835500D02*
D03*
X197000Y823500D02*
D03*
Y827500D02*
D03*
Y831500D02*
D03*
Y835500D02*
D03*
X185000Y1218500D02*
D03*
Y1222500D02*
D03*
Y1226500D02*
D03*
Y1230500D02*
D03*
X189000Y1218500D02*
D03*
Y1230500D02*
D03*
X193000Y1218500D02*
D03*
Y1230500D02*
D03*
X197000Y1218500D02*
D03*
Y1222500D02*
D03*
Y1226500D02*
D03*
Y1230500D02*
D03*
X194000Y2046500D02*
D03*
Y2042500D02*
D03*
Y2038500D02*
D03*
Y2034500D02*
D03*
X190000Y2046500D02*
D03*
Y2034500D02*
D03*
X186000Y2046500D02*
D03*
Y2034500D02*
D03*
X182000Y2046500D02*
D03*
Y2042500D02*
D03*
Y2038500D02*
D03*
Y2034500D02*
D03*
X194000Y1651500D02*
D03*
Y1647500D02*
D03*
Y1643500D02*
D03*
Y1639500D02*
D03*
X190000Y1651500D02*
D03*
Y1639500D02*
D03*
X186000Y1651500D02*
D03*
Y1639500D02*
D03*
X182000Y1651500D02*
D03*
Y1647500D02*
D03*
Y1643500D02*
D03*
Y1639500D02*
D03*
X194000Y1256500D02*
D03*
Y1252500D02*
D03*
Y1248500D02*
D03*
Y1244500D02*
D03*
X190000Y1256500D02*
D03*
Y1244500D02*
D03*
X186000Y1256500D02*
D03*
Y1244500D02*
D03*
X182000Y1256500D02*
D03*
Y1252500D02*
D03*
Y1248500D02*
D03*
Y1244500D02*
D03*
X476750Y2046500D02*
D03*
Y2042500D02*
D03*
Y2038500D02*
D03*
Y2034500D02*
D03*
X472750Y2046500D02*
D03*
Y2034500D02*
D03*
X468750Y2046500D02*
D03*
Y2034500D02*
D03*
X464750Y2046500D02*
D03*
Y2042500D02*
D03*
Y2038500D02*
D03*
Y2034500D02*
D03*
X476750Y1651500D02*
D03*
Y1647500D02*
D03*
Y1643500D02*
D03*
Y1639500D02*
D03*
X472750Y1651500D02*
D03*
Y1639500D02*
D03*
X468750Y1651500D02*
D03*
Y1639500D02*
D03*
X464750Y1651500D02*
D03*
Y1647500D02*
D03*
Y1643500D02*
D03*
Y1639500D02*
D03*
X476750Y1256500D02*
D03*
Y1252500D02*
D03*
Y1248500D02*
D03*
Y1244500D02*
D03*
X472750Y1256500D02*
D03*
Y1244500D02*
D03*
X468750Y1256500D02*
D03*
Y1244500D02*
D03*
X464750Y1256500D02*
D03*
Y1252500D02*
D03*
Y1248500D02*
D03*
Y1244500D02*
D03*
X759500Y2046500D02*
D03*
Y2042500D02*
D03*
Y2038500D02*
D03*
Y2034500D02*
D03*
X755500Y2046500D02*
D03*
Y2034500D02*
D03*
X751500Y2046500D02*
D03*
Y2034500D02*
D03*
X747500Y2046500D02*
D03*
Y2042500D02*
D03*
Y2038500D02*
D03*
Y2034500D02*
D03*
X759500Y1651500D02*
D03*
Y1647500D02*
D03*
Y1643500D02*
D03*
Y1639500D02*
D03*
X755500Y1651500D02*
D03*
Y1639500D02*
D03*
X751500Y1651500D02*
D03*
Y1639500D02*
D03*
X747500Y1651500D02*
D03*
Y1647500D02*
D03*
Y1643500D02*
D03*
Y1639500D02*
D03*
X759500Y1256500D02*
D03*
Y1252500D02*
D03*
Y1248500D02*
D03*
Y1244500D02*
D03*
X755500Y1256500D02*
D03*
Y1244500D02*
D03*
X751500Y1256500D02*
D03*
Y1244500D02*
D03*
X747500Y1256500D02*
D03*
Y1252500D02*
D03*
Y1248500D02*
D03*
Y1244500D02*
D03*
X1042250Y2046500D02*
D03*
Y2042500D02*
D03*
Y2038500D02*
D03*
Y2034500D02*
D03*
X1038250Y2046500D02*
D03*
Y2034500D02*
D03*
X1034250Y2046500D02*
D03*
Y2034500D02*
D03*
X1030250Y2046500D02*
D03*
Y2042500D02*
D03*
Y2038500D02*
D03*
Y2034500D02*
D03*
X1042250Y1651500D02*
D03*
Y1647500D02*
D03*
Y1643500D02*
D03*
Y1639500D02*
D03*
X1038250Y1651500D02*
D03*
Y1639500D02*
D03*
X1034250Y1651500D02*
D03*
Y1639500D02*
D03*
X1030250Y1651500D02*
D03*
Y1647500D02*
D03*
Y1643500D02*
D03*
Y1639500D02*
D03*
X1042250Y1256500D02*
D03*
Y1252500D02*
D03*
Y1248500D02*
D03*
Y1244500D02*
D03*
X1038250Y1256500D02*
D03*
Y1244500D02*
D03*
X1034250Y1256500D02*
D03*
Y1244500D02*
D03*
X1030250Y1256500D02*
D03*
Y1252500D02*
D03*
Y1248500D02*
D03*
Y1244500D02*
D03*
X1325000Y2046500D02*
D03*
Y2042500D02*
D03*
Y2038500D02*
D03*
Y2034500D02*
D03*
X1321000Y2046500D02*
D03*
Y2034500D02*
D03*
X1317000Y2046500D02*
D03*
Y2034500D02*
D03*
X1313000Y2046500D02*
D03*
Y2042500D02*
D03*
Y2038500D02*
D03*
Y2034500D02*
D03*
X1325000Y1651500D02*
D03*
Y1647500D02*
D03*
Y1643500D02*
D03*
Y1639500D02*
D03*
X1321000Y1651500D02*
D03*
Y1639500D02*
D03*
X1317000Y1651500D02*
D03*
Y1639500D02*
D03*
X1313000Y1651500D02*
D03*
Y1647500D02*
D03*
Y1643500D02*
D03*
Y1639500D02*
D03*
X1325000Y1256500D02*
D03*
Y1252500D02*
D03*
Y1248500D02*
D03*
Y1244500D02*
D03*
X1321000Y1256500D02*
D03*
Y1244500D02*
D03*
X1317000Y1256500D02*
D03*
Y1244500D02*
D03*
X1313000Y1256500D02*
D03*
Y1252500D02*
D03*
Y1248500D02*
D03*
Y1244500D02*
D03*
D27*
X1280178Y353045D02*
D03*
X1348178Y358045D02*
D03*
Y353045D02*
D03*
Y348045D02*
D03*
Y343045D02*
D03*
Y338045D02*
D03*
Y333045D02*
D03*
Y328045D02*
D03*
Y323045D02*
D03*
Y318045D02*
D03*
Y313045D02*
D03*
Y308044D02*
D03*
Y303045D02*
D03*
X1280178D02*
D03*
Y308044D02*
D03*
Y313045D02*
D03*
Y318045D02*
D03*
Y323045D02*
D03*
Y328045D02*
D03*
Y333045D02*
D03*
Y338045D02*
D03*
Y343045D02*
D03*
Y348045D02*
D03*
Y358045D02*
D03*
Y748045D02*
D03*
X1348178Y753045D02*
D03*
Y748045D02*
D03*
Y743045D02*
D03*
Y738045D02*
D03*
Y733045D02*
D03*
Y728045D02*
D03*
Y723045D02*
D03*
Y718045D02*
D03*
Y713045D02*
D03*
Y708045D02*
D03*
Y703045D02*
D03*
Y698045D02*
D03*
X1280178D02*
D03*
Y703045D02*
D03*
Y708045D02*
D03*
Y713045D02*
D03*
Y718045D02*
D03*
Y723045D02*
D03*
Y728045D02*
D03*
Y733045D02*
D03*
Y738045D02*
D03*
Y743045D02*
D03*
Y753045D02*
D03*
Y1143045D02*
D03*
X1348178Y1148045D02*
D03*
Y1143045D02*
D03*
Y1138045D02*
D03*
Y1133045D02*
D03*
Y1128045D02*
D03*
Y1123045D02*
D03*
Y1118045D02*
D03*
Y1113045D02*
D03*
Y1108045D02*
D03*
Y1103045D02*
D03*
Y1098045D02*
D03*
Y1093045D02*
D03*
X1280178D02*
D03*
Y1098045D02*
D03*
Y1103045D02*
D03*
Y1108045D02*
D03*
Y1113045D02*
D03*
Y1118045D02*
D03*
Y1123045D02*
D03*
Y1128045D02*
D03*
Y1133045D02*
D03*
Y1138045D02*
D03*
Y1148045D02*
D03*
X997428Y353045D02*
D03*
X1065428Y358045D02*
D03*
Y353045D02*
D03*
Y348045D02*
D03*
Y343045D02*
D03*
Y338045D02*
D03*
Y333045D02*
D03*
Y328045D02*
D03*
Y323045D02*
D03*
Y318045D02*
D03*
Y313045D02*
D03*
Y308044D02*
D03*
Y303045D02*
D03*
X997428D02*
D03*
Y308044D02*
D03*
Y313045D02*
D03*
Y318045D02*
D03*
Y323045D02*
D03*
Y328045D02*
D03*
Y333045D02*
D03*
Y338045D02*
D03*
Y343045D02*
D03*
Y348045D02*
D03*
Y358045D02*
D03*
Y748045D02*
D03*
X1065428Y753045D02*
D03*
Y748045D02*
D03*
Y743045D02*
D03*
Y738045D02*
D03*
Y733045D02*
D03*
Y728045D02*
D03*
Y723045D02*
D03*
Y718045D02*
D03*
Y713045D02*
D03*
Y708045D02*
D03*
Y703045D02*
D03*
Y698045D02*
D03*
X997428D02*
D03*
Y703045D02*
D03*
Y708045D02*
D03*
Y713045D02*
D03*
Y718045D02*
D03*
Y723045D02*
D03*
Y728045D02*
D03*
Y733045D02*
D03*
Y738045D02*
D03*
Y743045D02*
D03*
Y753045D02*
D03*
Y1143045D02*
D03*
X1065428Y1148045D02*
D03*
Y1143045D02*
D03*
Y1138045D02*
D03*
Y1133045D02*
D03*
Y1128045D02*
D03*
Y1123045D02*
D03*
Y1118045D02*
D03*
Y1113045D02*
D03*
Y1108045D02*
D03*
Y1103045D02*
D03*
Y1098045D02*
D03*
Y1093045D02*
D03*
X997428D02*
D03*
Y1098045D02*
D03*
Y1103045D02*
D03*
Y1108045D02*
D03*
Y1113045D02*
D03*
Y1118045D02*
D03*
Y1123045D02*
D03*
Y1128045D02*
D03*
Y1133045D02*
D03*
Y1138045D02*
D03*
Y1148045D02*
D03*
X714678Y353045D02*
D03*
X782678Y358045D02*
D03*
Y353045D02*
D03*
Y348045D02*
D03*
Y343045D02*
D03*
Y338045D02*
D03*
Y333045D02*
D03*
Y328045D02*
D03*
Y323045D02*
D03*
Y318045D02*
D03*
Y313045D02*
D03*
Y308044D02*
D03*
Y303045D02*
D03*
X714678D02*
D03*
Y308044D02*
D03*
Y313045D02*
D03*
Y318045D02*
D03*
Y323045D02*
D03*
Y328045D02*
D03*
Y333045D02*
D03*
Y338045D02*
D03*
Y343045D02*
D03*
Y348045D02*
D03*
Y358045D02*
D03*
Y748045D02*
D03*
X782678Y753045D02*
D03*
Y748045D02*
D03*
Y743045D02*
D03*
Y738045D02*
D03*
Y733045D02*
D03*
Y728045D02*
D03*
Y723045D02*
D03*
Y718045D02*
D03*
Y713045D02*
D03*
Y708045D02*
D03*
Y703045D02*
D03*
Y698045D02*
D03*
X714678D02*
D03*
Y703045D02*
D03*
Y708045D02*
D03*
Y713045D02*
D03*
Y718045D02*
D03*
Y723045D02*
D03*
Y728045D02*
D03*
Y733045D02*
D03*
Y738045D02*
D03*
Y743045D02*
D03*
Y753045D02*
D03*
Y1143045D02*
D03*
X782678Y1148045D02*
D03*
Y1143045D02*
D03*
Y1138045D02*
D03*
Y1133045D02*
D03*
Y1128045D02*
D03*
Y1123045D02*
D03*
Y1118045D02*
D03*
Y1113045D02*
D03*
Y1108045D02*
D03*
Y1103045D02*
D03*
Y1098045D02*
D03*
Y1093045D02*
D03*
X714678D02*
D03*
Y1098045D02*
D03*
Y1103045D02*
D03*
Y1108045D02*
D03*
Y1113045D02*
D03*
Y1118045D02*
D03*
Y1123045D02*
D03*
Y1128045D02*
D03*
Y1133045D02*
D03*
Y1138045D02*
D03*
Y1148045D02*
D03*
X431928Y353045D02*
D03*
X499928Y358045D02*
D03*
Y353045D02*
D03*
Y348045D02*
D03*
Y343045D02*
D03*
Y338045D02*
D03*
Y333045D02*
D03*
Y328045D02*
D03*
Y323045D02*
D03*
Y318045D02*
D03*
Y313045D02*
D03*
Y308044D02*
D03*
Y303045D02*
D03*
X431928D02*
D03*
Y308044D02*
D03*
Y313045D02*
D03*
Y318045D02*
D03*
Y323045D02*
D03*
Y328045D02*
D03*
Y333045D02*
D03*
Y338045D02*
D03*
Y343045D02*
D03*
Y348045D02*
D03*
Y358045D02*
D03*
Y748045D02*
D03*
X499928Y753045D02*
D03*
Y748045D02*
D03*
Y743045D02*
D03*
Y738045D02*
D03*
Y733045D02*
D03*
Y728045D02*
D03*
Y723045D02*
D03*
Y718045D02*
D03*
Y713045D02*
D03*
Y708045D02*
D03*
Y703045D02*
D03*
Y698045D02*
D03*
X431928D02*
D03*
Y703045D02*
D03*
Y708045D02*
D03*
Y713045D02*
D03*
Y718045D02*
D03*
Y723045D02*
D03*
Y728045D02*
D03*
Y733045D02*
D03*
Y738045D02*
D03*
Y743045D02*
D03*
Y753045D02*
D03*
Y1143045D02*
D03*
X499928Y1148045D02*
D03*
Y1143045D02*
D03*
Y1138045D02*
D03*
Y1133045D02*
D03*
Y1128045D02*
D03*
Y1123045D02*
D03*
Y1118045D02*
D03*
Y1113045D02*
D03*
Y1108045D02*
D03*
Y1103045D02*
D03*
Y1098045D02*
D03*
Y1093045D02*
D03*
X431928D02*
D03*
Y1098045D02*
D03*
Y1103045D02*
D03*
Y1108045D02*
D03*
Y1113045D02*
D03*
Y1118045D02*
D03*
Y1123045D02*
D03*
Y1128045D02*
D03*
Y1133045D02*
D03*
Y1138045D02*
D03*
Y1148045D02*
D03*
X149178Y353045D02*
D03*
X217178Y358045D02*
D03*
Y353045D02*
D03*
Y348045D02*
D03*
Y343045D02*
D03*
Y338045D02*
D03*
Y333045D02*
D03*
Y328045D02*
D03*
Y323045D02*
D03*
Y318045D02*
D03*
Y313045D02*
D03*
Y308044D02*
D03*
Y303045D02*
D03*
X149178D02*
D03*
Y308044D02*
D03*
Y313045D02*
D03*
Y318045D02*
D03*
Y323045D02*
D03*
Y328045D02*
D03*
Y333045D02*
D03*
Y338045D02*
D03*
Y343045D02*
D03*
Y348045D02*
D03*
Y358045D02*
D03*
Y748045D02*
D03*
X217178Y753045D02*
D03*
Y748045D02*
D03*
Y743045D02*
D03*
Y738045D02*
D03*
Y733045D02*
D03*
Y728045D02*
D03*
Y723045D02*
D03*
Y718045D02*
D03*
Y713045D02*
D03*
Y708045D02*
D03*
Y703045D02*
D03*
Y698045D02*
D03*
X149178D02*
D03*
Y703045D02*
D03*
Y708045D02*
D03*
Y713045D02*
D03*
Y718045D02*
D03*
Y723045D02*
D03*
Y728045D02*
D03*
Y733045D02*
D03*
Y738045D02*
D03*
Y743045D02*
D03*
Y753045D02*
D03*
Y1143045D02*
D03*
X217178Y1148045D02*
D03*
Y1143045D02*
D03*
Y1138045D02*
D03*
Y1133045D02*
D03*
Y1128045D02*
D03*
Y1123045D02*
D03*
Y1118045D02*
D03*
Y1113045D02*
D03*
Y1108045D02*
D03*
Y1103045D02*
D03*
Y1098045D02*
D03*
Y1093045D02*
D03*
X149178D02*
D03*
Y1098045D02*
D03*
Y1103045D02*
D03*
Y1108045D02*
D03*
Y1113045D02*
D03*
Y1118045D02*
D03*
Y1123045D02*
D03*
Y1128045D02*
D03*
Y1133045D02*
D03*
Y1138045D02*
D03*
Y1148045D02*
D03*
X229822Y2121955D02*
D03*
X161822Y2116956D02*
D03*
Y2121955D02*
D03*
Y2126955D02*
D03*
Y2131956D02*
D03*
Y2136955D02*
D03*
Y2141956D02*
D03*
Y2146955D02*
D03*
Y2151955D02*
D03*
Y2156956D02*
D03*
Y2161955D02*
D03*
Y2166956D02*
D03*
Y2171955D02*
D03*
X229822D02*
D03*
Y2166956D02*
D03*
Y2161955D02*
D03*
Y2156956D02*
D03*
Y2151955D02*
D03*
Y2146955D02*
D03*
Y2141956D02*
D03*
Y2136955D02*
D03*
Y2131956D02*
D03*
Y2126955D02*
D03*
Y2116956D02*
D03*
Y1726955D02*
D03*
X161822Y1721956D02*
D03*
Y1726955D02*
D03*
Y1731955D02*
D03*
Y1736956D02*
D03*
Y1741955D02*
D03*
Y1746956D02*
D03*
Y1751955D02*
D03*
Y1756955D02*
D03*
Y1761956D02*
D03*
Y1766955D02*
D03*
Y1771956D02*
D03*
Y1776956D02*
D03*
X229822D02*
D03*
Y1771956D02*
D03*
Y1766955D02*
D03*
Y1761956D02*
D03*
Y1756955D02*
D03*
Y1751955D02*
D03*
Y1746956D02*
D03*
Y1741955D02*
D03*
Y1736956D02*
D03*
Y1731955D02*
D03*
Y1721956D02*
D03*
Y1331956D02*
D03*
X161822Y1326956D02*
D03*
Y1331956D02*
D03*
Y1336955D02*
D03*
Y1341956D02*
D03*
Y1346955D02*
D03*
Y1351956D02*
D03*
Y1356956D02*
D03*
Y1361955D02*
D03*
Y1366956D02*
D03*
Y1371955D02*
D03*
Y1376956D02*
D03*
Y1381956D02*
D03*
X229822D02*
D03*
Y1376956D02*
D03*
Y1371955D02*
D03*
Y1366956D02*
D03*
Y1361955D02*
D03*
Y1356956D02*
D03*
Y1351956D02*
D03*
Y1346955D02*
D03*
Y1341956D02*
D03*
Y1336955D02*
D03*
Y1326956D02*
D03*
X512572Y2121955D02*
D03*
X444572Y2116956D02*
D03*
Y2121955D02*
D03*
Y2126955D02*
D03*
Y2131956D02*
D03*
Y2136955D02*
D03*
Y2141956D02*
D03*
Y2146955D02*
D03*
Y2151955D02*
D03*
Y2156956D02*
D03*
Y2161955D02*
D03*
Y2166956D02*
D03*
Y2171955D02*
D03*
X512572D02*
D03*
Y2166956D02*
D03*
Y2161955D02*
D03*
Y2156956D02*
D03*
Y2151955D02*
D03*
Y2146955D02*
D03*
Y2141956D02*
D03*
Y2136955D02*
D03*
Y2131956D02*
D03*
Y2126955D02*
D03*
Y2116956D02*
D03*
Y1726955D02*
D03*
X444572Y1721956D02*
D03*
Y1726955D02*
D03*
Y1731955D02*
D03*
Y1736956D02*
D03*
Y1741955D02*
D03*
Y1746956D02*
D03*
Y1751955D02*
D03*
Y1756955D02*
D03*
Y1761956D02*
D03*
Y1766955D02*
D03*
Y1771956D02*
D03*
Y1776956D02*
D03*
X512572D02*
D03*
Y1771956D02*
D03*
Y1766955D02*
D03*
Y1761956D02*
D03*
Y1756955D02*
D03*
Y1751955D02*
D03*
Y1746956D02*
D03*
Y1741955D02*
D03*
Y1736956D02*
D03*
Y1731955D02*
D03*
Y1721956D02*
D03*
Y1331956D02*
D03*
X444572Y1326956D02*
D03*
Y1331956D02*
D03*
Y1336955D02*
D03*
Y1341956D02*
D03*
Y1346955D02*
D03*
Y1351956D02*
D03*
Y1356956D02*
D03*
Y1361955D02*
D03*
Y1366956D02*
D03*
Y1371955D02*
D03*
Y1376956D02*
D03*
Y1381956D02*
D03*
X512572D02*
D03*
Y1376956D02*
D03*
Y1371955D02*
D03*
Y1366956D02*
D03*
Y1361955D02*
D03*
Y1356956D02*
D03*
Y1351956D02*
D03*
Y1346955D02*
D03*
Y1341956D02*
D03*
Y1336955D02*
D03*
Y1326956D02*
D03*
X795322Y2121955D02*
D03*
X727322Y2116956D02*
D03*
Y2121955D02*
D03*
Y2126955D02*
D03*
Y2131956D02*
D03*
Y2136955D02*
D03*
Y2141956D02*
D03*
Y2146955D02*
D03*
Y2151955D02*
D03*
Y2156956D02*
D03*
Y2161955D02*
D03*
Y2166956D02*
D03*
Y2171955D02*
D03*
X795322D02*
D03*
Y2166956D02*
D03*
Y2161955D02*
D03*
Y2156956D02*
D03*
Y2151955D02*
D03*
Y2146955D02*
D03*
Y2141956D02*
D03*
Y2136955D02*
D03*
Y2131956D02*
D03*
Y2126955D02*
D03*
Y2116956D02*
D03*
Y1726955D02*
D03*
X727322Y1721956D02*
D03*
Y1726955D02*
D03*
Y1731955D02*
D03*
Y1736956D02*
D03*
Y1741955D02*
D03*
Y1746956D02*
D03*
Y1751955D02*
D03*
Y1756955D02*
D03*
Y1761956D02*
D03*
Y1766955D02*
D03*
Y1771956D02*
D03*
Y1776956D02*
D03*
X795322D02*
D03*
Y1771956D02*
D03*
Y1766955D02*
D03*
Y1761956D02*
D03*
Y1756955D02*
D03*
Y1751955D02*
D03*
Y1746956D02*
D03*
Y1741955D02*
D03*
Y1736956D02*
D03*
Y1731955D02*
D03*
Y1721956D02*
D03*
Y1331956D02*
D03*
X727322Y1326956D02*
D03*
Y1331956D02*
D03*
Y1336955D02*
D03*
Y1341956D02*
D03*
Y1346955D02*
D03*
Y1351956D02*
D03*
Y1356956D02*
D03*
Y1361955D02*
D03*
Y1366956D02*
D03*
Y1371955D02*
D03*
Y1376956D02*
D03*
Y1381956D02*
D03*
X795322D02*
D03*
Y1376956D02*
D03*
Y1371955D02*
D03*
Y1366956D02*
D03*
Y1361955D02*
D03*
Y1356956D02*
D03*
Y1351956D02*
D03*
Y1346955D02*
D03*
Y1341956D02*
D03*
Y1336955D02*
D03*
Y1326956D02*
D03*
X1078072Y2121955D02*
D03*
X1010072Y2116956D02*
D03*
Y2121955D02*
D03*
Y2126955D02*
D03*
Y2131956D02*
D03*
Y2136955D02*
D03*
Y2141956D02*
D03*
Y2146955D02*
D03*
Y2151955D02*
D03*
Y2156956D02*
D03*
Y2161955D02*
D03*
Y2166956D02*
D03*
Y2171955D02*
D03*
X1078072D02*
D03*
Y2166956D02*
D03*
Y2161955D02*
D03*
Y2156956D02*
D03*
Y2151955D02*
D03*
Y2146955D02*
D03*
Y2141956D02*
D03*
Y2136955D02*
D03*
Y2131956D02*
D03*
Y2126955D02*
D03*
Y2116956D02*
D03*
Y1726955D02*
D03*
X1010072Y1721956D02*
D03*
Y1726955D02*
D03*
Y1731955D02*
D03*
Y1736956D02*
D03*
Y1741955D02*
D03*
Y1746956D02*
D03*
Y1751955D02*
D03*
Y1756955D02*
D03*
Y1761956D02*
D03*
Y1766955D02*
D03*
Y1771956D02*
D03*
Y1776956D02*
D03*
X1078072D02*
D03*
Y1771956D02*
D03*
Y1766955D02*
D03*
Y1761956D02*
D03*
Y1756955D02*
D03*
Y1751955D02*
D03*
Y1746956D02*
D03*
Y1741955D02*
D03*
Y1736956D02*
D03*
Y1731955D02*
D03*
Y1721956D02*
D03*
Y1331956D02*
D03*
X1010072Y1326956D02*
D03*
Y1331956D02*
D03*
Y1336955D02*
D03*
Y1341956D02*
D03*
Y1346955D02*
D03*
Y1351956D02*
D03*
Y1356956D02*
D03*
Y1361955D02*
D03*
Y1366956D02*
D03*
Y1371955D02*
D03*
Y1376956D02*
D03*
Y1381956D02*
D03*
X1078072D02*
D03*
Y1376956D02*
D03*
Y1371955D02*
D03*
Y1366956D02*
D03*
Y1361955D02*
D03*
Y1356956D02*
D03*
Y1351956D02*
D03*
Y1346955D02*
D03*
Y1341956D02*
D03*
Y1336955D02*
D03*
Y1326956D02*
D03*
X1360822Y2121955D02*
D03*
X1292823Y2116956D02*
D03*
Y2121955D02*
D03*
Y2126955D02*
D03*
Y2131956D02*
D03*
Y2136955D02*
D03*
Y2141956D02*
D03*
Y2146955D02*
D03*
Y2151955D02*
D03*
Y2156956D02*
D03*
Y2161955D02*
D03*
Y2166956D02*
D03*
Y2171955D02*
D03*
X1360822D02*
D03*
Y2166956D02*
D03*
Y2161955D02*
D03*
Y2156956D02*
D03*
Y2151955D02*
D03*
Y2146955D02*
D03*
Y2141956D02*
D03*
Y2136955D02*
D03*
Y2131956D02*
D03*
Y2126955D02*
D03*
Y2116956D02*
D03*
Y1726955D02*
D03*
X1292823Y1721956D02*
D03*
Y1726955D02*
D03*
Y1731955D02*
D03*
Y1736956D02*
D03*
Y1741955D02*
D03*
Y1746956D02*
D03*
Y1751955D02*
D03*
Y1756955D02*
D03*
Y1761956D02*
D03*
Y1766955D02*
D03*
Y1771956D02*
D03*
Y1776956D02*
D03*
X1360822D02*
D03*
Y1771956D02*
D03*
Y1766955D02*
D03*
Y1761956D02*
D03*
Y1756955D02*
D03*
Y1751955D02*
D03*
Y1746956D02*
D03*
Y1741955D02*
D03*
Y1736956D02*
D03*
Y1731955D02*
D03*
Y1721956D02*
D03*
Y1331956D02*
D03*
X1292823Y1326956D02*
D03*
Y1331956D02*
D03*
Y1336955D02*
D03*
Y1341956D02*
D03*
Y1346955D02*
D03*
Y1351956D02*
D03*
Y1356956D02*
D03*
Y1361955D02*
D03*
Y1366956D02*
D03*
Y1371955D02*
D03*
Y1376956D02*
D03*
Y1381956D02*
D03*
X1360822D02*
D03*
Y1376956D02*
D03*
Y1371955D02*
D03*
Y1366956D02*
D03*
Y1361955D02*
D03*
Y1356956D02*
D03*
Y1351956D02*
D03*
Y1346955D02*
D03*
Y1341956D02*
D03*
Y1336955D02*
D03*
Y1326956D02*
D03*
D28*
X1266064Y359645D02*
D03*
X1261064D02*
D03*
X1256064D02*
D03*
X1266064Y351445D02*
D03*
X1261064D02*
D03*
X1256064D02*
D03*
X1266064Y754645D02*
D03*
X1261064D02*
D03*
X1256064D02*
D03*
X1266064Y746445D02*
D03*
X1261064D02*
D03*
X1256064D02*
D03*
X1266064Y1149645D02*
D03*
X1261064D02*
D03*
X1256064D02*
D03*
X1266064Y1141445D02*
D03*
X1261064D02*
D03*
X1256064D02*
D03*
X983313Y359645D02*
D03*
X978313D02*
D03*
X973313D02*
D03*
X983313Y351445D02*
D03*
X978313D02*
D03*
X973313D02*
D03*
X983313Y754645D02*
D03*
X978313D02*
D03*
X973313D02*
D03*
X983313Y746445D02*
D03*
X978313D02*
D03*
X973313D02*
D03*
X983313Y1149645D02*
D03*
X978313D02*
D03*
X973313D02*
D03*
X983313Y1141445D02*
D03*
X978313D02*
D03*
X973313D02*
D03*
X700563Y359645D02*
D03*
X695563D02*
D03*
X690563D02*
D03*
X700563Y351445D02*
D03*
X695563D02*
D03*
X690563D02*
D03*
X700563Y754645D02*
D03*
X695563D02*
D03*
X690563D02*
D03*
X700563Y746445D02*
D03*
X695563D02*
D03*
X690563D02*
D03*
X700563Y1149645D02*
D03*
X695563D02*
D03*
X690563D02*
D03*
X700563Y1141445D02*
D03*
X695563D02*
D03*
X690563D02*
D03*
X417813Y359645D02*
D03*
X412813D02*
D03*
X407813D02*
D03*
X417813Y351445D02*
D03*
X412813D02*
D03*
X407813D02*
D03*
X417813Y754645D02*
D03*
X412813D02*
D03*
X407813D02*
D03*
X417813Y746445D02*
D03*
X412813D02*
D03*
X407813D02*
D03*
X417813Y1149645D02*
D03*
X412813D02*
D03*
X407813D02*
D03*
X417813Y1141445D02*
D03*
X412813D02*
D03*
X407813D02*
D03*
X135063Y359645D02*
D03*
X130063D02*
D03*
X125063D02*
D03*
X135063Y351445D02*
D03*
X130063D02*
D03*
X125063D02*
D03*
X135063Y754645D02*
D03*
X130063D02*
D03*
X125063D02*
D03*
X135063Y746445D02*
D03*
X130063D02*
D03*
X125063D02*
D03*
X135063Y1149645D02*
D03*
X130063D02*
D03*
X125063D02*
D03*
X135063Y1141445D02*
D03*
X130063D02*
D03*
X125063D02*
D03*
X243937Y2115355D02*
D03*
X248937D02*
D03*
X253937D02*
D03*
X243937Y2123555D02*
D03*
X248937D02*
D03*
X253937D02*
D03*
X243937Y1720355D02*
D03*
X248937D02*
D03*
X253937D02*
D03*
X243937Y1728555D02*
D03*
X248937D02*
D03*
X253937D02*
D03*
X243937Y1325355D02*
D03*
X248937D02*
D03*
X253937D02*
D03*
X243937Y1333555D02*
D03*
X248937D02*
D03*
X253937D02*
D03*
X526687Y2115355D02*
D03*
X531687D02*
D03*
X536687D02*
D03*
X526687Y2123555D02*
D03*
X531687D02*
D03*
X536687D02*
D03*
X526687Y1720355D02*
D03*
X531687D02*
D03*
X536687D02*
D03*
X526687Y1728555D02*
D03*
X531687D02*
D03*
X536687D02*
D03*
X526687Y1325355D02*
D03*
X531687D02*
D03*
X536687D02*
D03*
X526687Y1333555D02*
D03*
X531687D02*
D03*
X536687D02*
D03*
X809437Y2115355D02*
D03*
X814437D02*
D03*
X819437D02*
D03*
X809437Y2123555D02*
D03*
X814437D02*
D03*
X819437D02*
D03*
X809437Y1720355D02*
D03*
X814437D02*
D03*
X819437D02*
D03*
X809437Y1728555D02*
D03*
X814437D02*
D03*
X819437D02*
D03*
X809437Y1325355D02*
D03*
X814437D02*
D03*
X819437D02*
D03*
X809437Y1333555D02*
D03*
X814437D02*
D03*
X819437D02*
D03*
X1092187Y2115355D02*
D03*
X1097187D02*
D03*
X1102187D02*
D03*
X1092187Y2123555D02*
D03*
X1097187D02*
D03*
X1102187D02*
D03*
X1092187Y1720355D02*
D03*
X1097187D02*
D03*
X1102187D02*
D03*
X1092187Y1728555D02*
D03*
X1097187D02*
D03*
X1102187D02*
D03*
X1092187Y1325355D02*
D03*
X1097187D02*
D03*
X1102187D02*
D03*
X1092187Y1333555D02*
D03*
X1097187D02*
D03*
X1102187D02*
D03*
X1374937Y2115355D02*
D03*
X1379937D02*
D03*
X1384937D02*
D03*
X1374937Y2123555D02*
D03*
X1379937D02*
D03*
X1384937D02*
D03*
X1374937Y1720355D02*
D03*
X1379937D02*
D03*
X1384937D02*
D03*
X1374937Y1728555D02*
D03*
X1379937D02*
D03*
X1384937D02*
D03*
X1374937Y1325355D02*
D03*
X1379937D02*
D03*
X1384937D02*
D03*
X1374937Y1333555D02*
D03*
X1379937D02*
D03*
X1384937D02*
D03*
D30*
X1286678Y364545D02*
D03*
X1291678D02*
D03*
X1296678D02*
D03*
X1301678D02*
D03*
X1306678D02*
D03*
X1311678D02*
D03*
X1316678D02*
D03*
X1321678D02*
D03*
X1326678D02*
D03*
X1331678D02*
D03*
X1336678D02*
D03*
X1341678D02*
D03*
Y296544D02*
D03*
X1336678D02*
D03*
X1331678D02*
D03*
X1326678D02*
D03*
X1321678D02*
D03*
X1316678D02*
D03*
X1311678D02*
D03*
X1306678D02*
D03*
X1301678D02*
D03*
X1296678D02*
D03*
X1291678D02*
D03*
X1286678D02*
D03*
Y759545D02*
D03*
X1291678D02*
D03*
X1296678D02*
D03*
X1301678D02*
D03*
X1306678D02*
D03*
X1311678D02*
D03*
X1316678D02*
D03*
X1321678D02*
D03*
X1326678D02*
D03*
X1331678D02*
D03*
X1336678D02*
D03*
X1341678D02*
D03*
Y691544D02*
D03*
X1336678D02*
D03*
X1331678D02*
D03*
X1326678D02*
D03*
X1321678D02*
D03*
X1316678D02*
D03*
X1311678D02*
D03*
X1306678D02*
D03*
X1301678D02*
D03*
X1296678D02*
D03*
X1291678D02*
D03*
X1286678D02*
D03*
Y1154545D02*
D03*
X1291678D02*
D03*
X1296678D02*
D03*
X1301678D02*
D03*
X1306678D02*
D03*
X1311678D02*
D03*
X1316678D02*
D03*
X1321678D02*
D03*
X1326678D02*
D03*
X1331678D02*
D03*
X1336678D02*
D03*
X1341678D02*
D03*
Y1086544D02*
D03*
X1336678D02*
D03*
X1331678D02*
D03*
X1326678D02*
D03*
X1321678D02*
D03*
X1316678D02*
D03*
X1311678D02*
D03*
X1306678D02*
D03*
X1301678D02*
D03*
X1296678D02*
D03*
X1291678D02*
D03*
X1286678D02*
D03*
X1003928Y364545D02*
D03*
X1008928D02*
D03*
X1013928D02*
D03*
X1018928D02*
D03*
X1023928D02*
D03*
X1028928D02*
D03*
X1033928D02*
D03*
X1038928D02*
D03*
X1043928D02*
D03*
X1048928D02*
D03*
X1053928D02*
D03*
X1058928D02*
D03*
Y296544D02*
D03*
X1053928D02*
D03*
X1048928D02*
D03*
X1043928D02*
D03*
X1038928D02*
D03*
X1033928D02*
D03*
X1028928D02*
D03*
X1023928D02*
D03*
X1018928D02*
D03*
X1013928D02*
D03*
X1008928D02*
D03*
X1003928D02*
D03*
Y759545D02*
D03*
X1008928D02*
D03*
X1013928D02*
D03*
X1018928D02*
D03*
X1023928D02*
D03*
X1028928D02*
D03*
X1033928D02*
D03*
X1038928D02*
D03*
X1043928D02*
D03*
X1048928D02*
D03*
X1053928D02*
D03*
X1058928D02*
D03*
Y691544D02*
D03*
X1053928D02*
D03*
X1048928D02*
D03*
X1043928D02*
D03*
X1038928D02*
D03*
X1033928D02*
D03*
X1028928D02*
D03*
X1023928D02*
D03*
X1018928D02*
D03*
X1013928D02*
D03*
X1008928D02*
D03*
X1003928D02*
D03*
Y1154545D02*
D03*
X1008928D02*
D03*
X1013928D02*
D03*
X1018928D02*
D03*
X1023928D02*
D03*
X1028928D02*
D03*
X1033928D02*
D03*
X1038928D02*
D03*
X1043928D02*
D03*
X1048928D02*
D03*
X1053928D02*
D03*
X1058928D02*
D03*
Y1086544D02*
D03*
X1053928D02*
D03*
X1048928D02*
D03*
X1043928D02*
D03*
X1038928D02*
D03*
X1033928D02*
D03*
X1028928D02*
D03*
X1023928D02*
D03*
X1018928D02*
D03*
X1013928D02*
D03*
X1008928D02*
D03*
X1003928D02*
D03*
X721178Y364545D02*
D03*
X726178D02*
D03*
X731178D02*
D03*
X736178D02*
D03*
X741178D02*
D03*
X746178D02*
D03*
X751178D02*
D03*
X756178D02*
D03*
X761178D02*
D03*
X766178D02*
D03*
X771178D02*
D03*
X776178D02*
D03*
Y296544D02*
D03*
X771178D02*
D03*
X766178D02*
D03*
X761178D02*
D03*
X756178D02*
D03*
X751178D02*
D03*
X746178D02*
D03*
X741178D02*
D03*
X736178D02*
D03*
X731178D02*
D03*
X726178D02*
D03*
X721178D02*
D03*
Y759545D02*
D03*
X726178D02*
D03*
X731178D02*
D03*
X736178D02*
D03*
X741178D02*
D03*
X746178D02*
D03*
X751178D02*
D03*
X756178D02*
D03*
X761178D02*
D03*
X766178D02*
D03*
X771178D02*
D03*
X776178D02*
D03*
Y691544D02*
D03*
X771178D02*
D03*
X766178D02*
D03*
X761178D02*
D03*
X756178D02*
D03*
X751178D02*
D03*
X746178D02*
D03*
X741178D02*
D03*
X736178D02*
D03*
X731178D02*
D03*
X726178D02*
D03*
X721178D02*
D03*
Y1154545D02*
D03*
X726178D02*
D03*
X731178D02*
D03*
X736178D02*
D03*
X741178D02*
D03*
X746178D02*
D03*
X751178D02*
D03*
X756178D02*
D03*
X761178D02*
D03*
X766178D02*
D03*
X771178D02*
D03*
X776178D02*
D03*
Y1086544D02*
D03*
X771178D02*
D03*
X766178D02*
D03*
X761178D02*
D03*
X756178D02*
D03*
X751178D02*
D03*
X746178D02*
D03*
X741178D02*
D03*
X736178D02*
D03*
X731178D02*
D03*
X726178D02*
D03*
X721178D02*
D03*
X438428Y364545D02*
D03*
X443428D02*
D03*
X448428D02*
D03*
X453428D02*
D03*
X458428D02*
D03*
X463428D02*
D03*
X468428D02*
D03*
X473428D02*
D03*
X478428D02*
D03*
X483428D02*
D03*
X488428D02*
D03*
X493428D02*
D03*
Y296544D02*
D03*
X488428D02*
D03*
X483428D02*
D03*
X478428D02*
D03*
X473428D02*
D03*
X468428D02*
D03*
X463428D02*
D03*
X458428D02*
D03*
X453428D02*
D03*
X448428D02*
D03*
X443428D02*
D03*
X438428D02*
D03*
Y759545D02*
D03*
X443428D02*
D03*
X448428D02*
D03*
X453428D02*
D03*
X458428D02*
D03*
X463428D02*
D03*
X468428D02*
D03*
X473428D02*
D03*
X478428D02*
D03*
X483428D02*
D03*
X488428D02*
D03*
X493428D02*
D03*
Y691544D02*
D03*
X488428D02*
D03*
X483428D02*
D03*
X478428D02*
D03*
X473428D02*
D03*
X468428D02*
D03*
X463428D02*
D03*
X458428D02*
D03*
X453428D02*
D03*
X448428D02*
D03*
X443428D02*
D03*
X438428D02*
D03*
Y1154545D02*
D03*
X443428D02*
D03*
X448428D02*
D03*
X453428D02*
D03*
X458428D02*
D03*
X463428D02*
D03*
X468428D02*
D03*
X473428D02*
D03*
X478428D02*
D03*
X483428D02*
D03*
X488428D02*
D03*
X493428D02*
D03*
Y1086544D02*
D03*
X488428D02*
D03*
X483428D02*
D03*
X478428D02*
D03*
X473428D02*
D03*
X468428D02*
D03*
X463428D02*
D03*
X458428D02*
D03*
X453428D02*
D03*
X448428D02*
D03*
X443428D02*
D03*
X438428D02*
D03*
X155677Y364545D02*
D03*
X160678D02*
D03*
X165678D02*
D03*
X170678D02*
D03*
X175678D02*
D03*
X180678D02*
D03*
X185678D02*
D03*
X190678D02*
D03*
X195678D02*
D03*
X200678D02*
D03*
X205678D02*
D03*
X210678D02*
D03*
Y296544D02*
D03*
X205678D02*
D03*
X200678D02*
D03*
X195678D02*
D03*
X190678D02*
D03*
X185678D02*
D03*
X180678D02*
D03*
X175678D02*
D03*
X170678D02*
D03*
X165678D02*
D03*
X160678D02*
D03*
X155677D02*
D03*
Y759545D02*
D03*
X160678D02*
D03*
X165678D02*
D03*
X170678D02*
D03*
X175678D02*
D03*
X180678D02*
D03*
X185678D02*
D03*
X190678D02*
D03*
X195678D02*
D03*
X200678D02*
D03*
X205678D02*
D03*
X210678D02*
D03*
Y691544D02*
D03*
X205678D02*
D03*
X200678D02*
D03*
X195678D02*
D03*
X190678D02*
D03*
X185678D02*
D03*
X180678D02*
D03*
X175678D02*
D03*
X170678D02*
D03*
X165678D02*
D03*
X160678D02*
D03*
X155677D02*
D03*
Y1154545D02*
D03*
X160678D02*
D03*
X165678D02*
D03*
X170678D02*
D03*
X175678D02*
D03*
X180678D02*
D03*
X185678D02*
D03*
X190678D02*
D03*
X195678D02*
D03*
X200678D02*
D03*
X205678D02*
D03*
X210678D02*
D03*
Y1086544D02*
D03*
X205678D02*
D03*
X200678D02*
D03*
X195678D02*
D03*
X190678D02*
D03*
X185678D02*
D03*
X180678D02*
D03*
X175678D02*
D03*
X170678D02*
D03*
X165678D02*
D03*
X160678D02*
D03*
X155677D02*
D03*
X223322Y2110455D02*
D03*
X218322D02*
D03*
X213322D02*
D03*
X208322D02*
D03*
X203322D02*
D03*
X198322D02*
D03*
X193322D02*
D03*
X188322D02*
D03*
X183322D02*
D03*
X178322D02*
D03*
X173322D02*
D03*
X168322D02*
D03*
Y2178456D02*
D03*
X173322D02*
D03*
X178322D02*
D03*
X183322D02*
D03*
X188322D02*
D03*
X193322D02*
D03*
X198322D02*
D03*
X203322D02*
D03*
X208322D02*
D03*
X213322D02*
D03*
X218322D02*
D03*
X223322D02*
D03*
Y1715455D02*
D03*
X218322D02*
D03*
X213322D02*
D03*
X208322D02*
D03*
X203322D02*
D03*
X198322D02*
D03*
X193322D02*
D03*
X188322D02*
D03*
X183322D02*
D03*
X178322D02*
D03*
X173322D02*
D03*
X168322D02*
D03*
Y1783456D02*
D03*
X173322D02*
D03*
X178322D02*
D03*
X183322D02*
D03*
X188322D02*
D03*
X193322D02*
D03*
X198322D02*
D03*
X203322D02*
D03*
X208322D02*
D03*
X213322D02*
D03*
X218322D02*
D03*
X223322D02*
D03*
Y1320455D02*
D03*
X218322D02*
D03*
X213322D02*
D03*
X208322D02*
D03*
X203322D02*
D03*
X198322D02*
D03*
X193322D02*
D03*
X188322D02*
D03*
X183322D02*
D03*
X178322D02*
D03*
X173322D02*
D03*
X168322D02*
D03*
Y1388456D02*
D03*
X173322D02*
D03*
X178322D02*
D03*
X183322D02*
D03*
X188322D02*
D03*
X193322D02*
D03*
X198322D02*
D03*
X203322D02*
D03*
X208322D02*
D03*
X213322D02*
D03*
X218322D02*
D03*
X223322D02*
D03*
X506072Y2110455D02*
D03*
X501072D02*
D03*
X496072D02*
D03*
X491072D02*
D03*
X486072D02*
D03*
X481072D02*
D03*
X476072D02*
D03*
X471072D02*
D03*
X466072D02*
D03*
X461072D02*
D03*
X456072D02*
D03*
X451072D02*
D03*
Y2178456D02*
D03*
X456072D02*
D03*
X461072D02*
D03*
X466072D02*
D03*
X471072D02*
D03*
X476072D02*
D03*
X481072D02*
D03*
X486072D02*
D03*
X491072D02*
D03*
X496072D02*
D03*
X501072D02*
D03*
X506072D02*
D03*
Y1715455D02*
D03*
X501072D02*
D03*
X496072D02*
D03*
X491072D02*
D03*
X486072D02*
D03*
X481072D02*
D03*
X476072D02*
D03*
X471072D02*
D03*
X466072D02*
D03*
X461072D02*
D03*
X456072D02*
D03*
X451072D02*
D03*
Y1783456D02*
D03*
X456072D02*
D03*
X461072D02*
D03*
X466072D02*
D03*
X471072D02*
D03*
X476072D02*
D03*
X481072D02*
D03*
X486072D02*
D03*
X491072D02*
D03*
X496072D02*
D03*
X501072D02*
D03*
X506072D02*
D03*
Y1320455D02*
D03*
X501072D02*
D03*
X496072D02*
D03*
X491072D02*
D03*
X486072D02*
D03*
X481072D02*
D03*
X476072D02*
D03*
X471072D02*
D03*
X466072D02*
D03*
X461072D02*
D03*
X456072D02*
D03*
X451072D02*
D03*
Y1388456D02*
D03*
X456072D02*
D03*
X461072D02*
D03*
X466072D02*
D03*
X471072D02*
D03*
X476072D02*
D03*
X481072D02*
D03*
X486072D02*
D03*
X491072D02*
D03*
X496072D02*
D03*
X501072D02*
D03*
X506072D02*
D03*
X788822Y2110455D02*
D03*
X783822D02*
D03*
X778822D02*
D03*
X773822D02*
D03*
X768822D02*
D03*
X763822D02*
D03*
X758822D02*
D03*
X753822D02*
D03*
X748822D02*
D03*
X743822D02*
D03*
X738822D02*
D03*
X733822D02*
D03*
Y2178456D02*
D03*
X738822D02*
D03*
X743822D02*
D03*
X748822D02*
D03*
X753822D02*
D03*
X758822D02*
D03*
X763822D02*
D03*
X768822D02*
D03*
X773822D02*
D03*
X778822D02*
D03*
X783822D02*
D03*
X788822D02*
D03*
Y1715455D02*
D03*
X783822D02*
D03*
X778822D02*
D03*
X773822D02*
D03*
X768822D02*
D03*
X763822D02*
D03*
X758822D02*
D03*
X753822D02*
D03*
X748822D02*
D03*
X743822D02*
D03*
X738822D02*
D03*
X733822D02*
D03*
Y1783456D02*
D03*
X738822D02*
D03*
X743822D02*
D03*
X748822D02*
D03*
X753822D02*
D03*
X758822D02*
D03*
X763822D02*
D03*
X768822D02*
D03*
X773822D02*
D03*
X778822D02*
D03*
X783822D02*
D03*
X788822D02*
D03*
Y1320455D02*
D03*
X783822D02*
D03*
X778822D02*
D03*
X773822D02*
D03*
X768822D02*
D03*
X763822D02*
D03*
X758822D02*
D03*
X753822D02*
D03*
X748822D02*
D03*
X743822D02*
D03*
X738822D02*
D03*
X733822D02*
D03*
Y1388456D02*
D03*
X738822D02*
D03*
X743822D02*
D03*
X748822D02*
D03*
X753822D02*
D03*
X758822D02*
D03*
X763822D02*
D03*
X768822D02*
D03*
X773822D02*
D03*
X778822D02*
D03*
X783822D02*
D03*
X788822D02*
D03*
X1071572Y2110455D02*
D03*
X1066572D02*
D03*
X1061572D02*
D03*
X1056572D02*
D03*
X1051572D02*
D03*
X1046572D02*
D03*
X1041572D02*
D03*
X1036572D02*
D03*
X1031572D02*
D03*
X1026572D02*
D03*
X1021572D02*
D03*
X1016572D02*
D03*
Y2178456D02*
D03*
X1021572D02*
D03*
X1026572D02*
D03*
X1031572D02*
D03*
X1036572D02*
D03*
X1041572D02*
D03*
X1046572D02*
D03*
X1051572D02*
D03*
X1056572D02*
D03*
X1061572D02*
D03*
X1066572D02*
D03*
X1071572D02*
D03*
Y1715455D02*
D03*
X1066572D02*
D03*
X1061572D02*
D03*
X1056572D02*
D03*
X1051572D02*
D03*
X1046572D02*
D03*
X1041572D02*
D03*
X1036572D02*
D03*
X1031572D02*
D03*
X1026572D02*
D03*
X1021572D02*
D03*
X1016572D02*
D03*
Y1783456D02*
D03*
X1021572D02*
D03*
X1026572D02*
D03*
X1031572D02*
D03*
X1036572D02*
D03*
X1041572D02*
D03*
X1046572D02*
D03*
X1051572D02*
D03*
X1056572D02*
D03*
X1061572D02*
D03*
X1066572D02*
D03*
X1071572D02*
D03*
Y1320455D02*
D03*
X1066572D02*
D03*
X1061572D02*
D03*
X1056572D02*
D03*
X1051572D02*
D03*
X1046572D02*
D03*
X1041572D02*
D03*
X1036572D02*
D03*
X1031572D02*
D03*
X1026572D02*
D03*
X1021572D02*
D03*
X1016572D02*
D03*
Y1388456D02*
D03*
X1021572D02*
D03*
X1026572D02*
D03*
X1031572D02*
D03*
X1036572D02*
D03*
X1041572D02*
D03*
X1046572D02*
D03*
X1051572D02*
D03*
X1056572D02*
D03*
X1061572D02*
D03*
X1066572D02*
D03*
X1071572D02*
D03*
X1354323Y2110455D02*
D03*
X1349323D02*
D03*
X1344323D02*
D03*
X1339323D02*
D03*
X1334323D02*
D03*
X1329323D02*
D03*
X1324323D02*
D03*
X1319323D02*
D03*
X1314323D02*
D03*
X1309323D02*
D03*
X1304323D02*
D03*
X1299323D02*
D03*
Y2178456D02*
D03*
X1304323D02*
D03*
X1309323D02*
D03*
X1314323D02*
D03*
X1319323D02*
D03*
X1324323D02*
D03*
X1329323D02*
D03*
X1334323D02*
D03*
X1339323D02*
D03*
X1344323D02*
D03*
X1349323D02*
D03*
X1354323D02*
D03*
Y1715455D02*
D03*
X1349323D02*
D03*
X1344323D02*
D03*
X1339323D02*
D03*
X1334323D02*
D03*
X1329323D02*
D03*
X1324323D02*
D03*
X1319323D02*
D03*
X1314323D02*
D03*
X1309323D02*
D03*
X1304323D02*
D03*
X1299323D02*
D03*
Y1783456D02*
D03*
X1304323D02*
D03*
X1309323D02*
D03*
X1314323D02*
D03*
X1319323D02*
D03*
X1324323D02*
D03*
X1329323D02*
D03*
X1334323D02*
D03*
X1339323D02*
D03*
X1344323D02*
D03*
X1349323D02*
D03*
X1354323D02*
D03*
Y1320455D02*
D03*
X1349323D02*
D03*
X1344323D02*
D03*
X1339323D02*
D03*
X1334323D02*
D03*
X1329323D02*
D03*
X1324323D02*
D03*
X1319323D02*
D03*
X1314323D02*
D03*
X1309323D02*
D03*
X1304323D02*
D03*
X1299323D02*
D03*
Y1388456D02*
D03*
X1304323D02*
D03*
X1309323D02*
D03*
X1314323D02*
D03*
X1319323D02*
D03*
X1324323D02*
D03*
X1329323D02*
D03*
X1334323D02*
D03*
X1339323D02*
D03*
X1344323D02*
D03*
X1349323D02*
D03*
X1354323D02*
D03*
D31*
X1240600Y411350D02*
D03*
X1259900Y411096D02*
D03*
Y430650D02*
D03*
X1240600D02*
D03*
Y806350D02*
D03*
X1259900Y806096D02*
D03*
Y825650D02*
D03*
X1240600D02*
D03*
Y1201350D02*
D03*
X1259900Y1201096D02*
D03*
Y1220650D02*
D03*
X1240600D02*
D03*
X957850Y411350D02*
D03*
X977150Y411096D02*
D03*
Y430650D02*
D03*
X957850D02*
D03*
Y806350D02*
D03*
X977150Y806096D02*
D03*
Y825650D02*
D03*
X957850D02*
D03*
Y1201350D02*
D03*
X977150Y1201096D02*
D03*
Y1220650D02*
D03*
X957850D02*
D03*
X675100Y411350D02*
D03*
X694400Y411096D02*
D03*
Y430650D02*
D03*
X675100D02*
D03*
Y806350D02*
D03*
X694400Y806096D02*
D03*
Y825650D02*
D03*
X675100D02*
D03*
Y1201350D02*
D03*
X694400Y1201096D02*
D03*
Y1220650D02*
D03*
X675100D02*
D03*
X392350Y411350D02*
D03*
X411650Y411096D02*
D03*
Y430650D02*
D03*
X392350D02*
D03*
Y806350D02*
D03*
X411650Y806096D02*
D03*
Y825650D02*
D03*
X392350D02*
D03*
Y1201350D02*
D03*
X411650Y1201096D02*
D03*
Y1220650D02*
D03*
X392350D02*
D03*
X109600Y411350D02*
D03*
X128900Y411096D02*
D03*
Y430650D02*
D03*
X109600D02*
D03*
Y806350D02*
D03*
X128900Y806096D02*
D03*
Y825650D02*
D03*
X109600D02*
D03*
Y1201350D02*
D03*
X128900Y1201096D02*
D03*
Y1220650D02*
D03*
X109600D02*
D03*
X269400Y2063650D02*
D03*
X250100Y2063904D02*
D03*
Y2044350D02*
D03*
X269400D02*
D03*
Y1668650D02*
D03*
X250100Y1668904D02*
D03*
Y1649350D02*
D03*
X269400D02*
D03*
Y1273650D02*
D03*
X250100Y1273904D02*
D03*
Y1254350D02*
D03*
X269400D02*
D03*
X552150Y2063650D02*
D03*
X532850Y2063904D02*
D03*
Y2044350D02*
D03*
X552150D02*
D03*
Y1668650D02*
D03*
X532850Y1668904D02*
D03*
Y1649350D02*
D03*
X552150D02*
D03*
Y1273650D02*
D03*
X532850Y1273904D02*
D03*
Y1254350D02*
D03*
X552150D02*
D03*
X834900Y2063650D02*
D03*
X815600Y2063904D02*
D03*
Y2044350D02*
D03*
X834900D02*
D03*
Y1668650D02*
D03*
X815600Y1668904D02*
D03*
Y1649350D02*
D03*
X834900D02*
D03*
Y1273650D02*
D03*
X815600Y1273904D02*
D03*
Y1254350D02*
D03*
X834900D02*
D03*
X1117650Y2063650D02*
D03*
X1098350Y2063904D02*
D03*
Y2044350D02*
D03*
X1117650D02*
D03*
Y1668650D02*
D03*
X1098350Y1668904D02*
D03*
Y1649350D02*
D03*
X1117650D02*
D03*
Y1273650D02*
D03*
X1098350Y1273904D02*
D03*
Y1254350D02*
D03*
X1117650D02*
D03*
X1400400Y2063650D02*
D03*
X1381100Y2063904D02*
D03*
Y2044350D02*
D03*
X1400400D02*
D03*
Y1668650D02*
D03*
X1381100Y1668904D02*
D03*
Y1649350D02*
D03*
X1400400D02*
D03*
Y1273650D02*
D03*
X1381100Y1273904D02*
D03*
Y1254350D02*
D03*
X1400400D02*
D03*
D32*
X1402500Y246000D02*
D03*
Y255000D02*
D03*
X1393750Y246000D02*
D03*
Y255000D02*
D03*
X1402500Y641000D02*
D03*
Y650000D02*
D03*
X1393750Y641000D02*
D03*
Y650000D02*
D03*
X1402500Y1036000D02*
D03*
Y1045000D02*
D03*
X1393750Y1036000D02*
D03*
Y1045000D02*
D03*
X1119750Y246000D02*
D03*
Y255000D02*
D03*
X1111000Y246000D02*
D03*
Y255000D02*
D03*
X1119750Y641000D02*
D03*
Y650000D02*
D03*
X1111000Y641000D02*
D03*
Y650000D02*
D03*
X1119750Y1036000D02*
D03*
Y1045000D02*
D03*
X1111000Y1036000D02*
D03*
Y1045000D02*
D03*
X837000Y246000D02*
D03*
Y255000D02*
D03*
X828250Y246000D02*
D03*
Y255000D02*
D03*
X837000Y641000D02*
D03*
Y650000D02*
D03*
X828250Y641000D02*
D03*
Y650000D02*
D03*
X837000Y1036000D02*
D03*
Y1045000D02*
D03*
X828250Y1036000D02*
D03*
Y1045000D02*
D03*
X554250Y246000D02*
D03*
Y255000D02*
D03*
X545500Y246000D02*
D03*
Y255000D02*
D03*
X554250Y641000D02*
D03*
Y650000D02*
D03*
X545500Y641000D02*
D03*
Y650000D02*
D03*
X554250Y1036000D02*
D03*
Y1045000D02*
D03*
X545500Y1036000D02*
D03*
Y1045000D02*
D03*
X271500Y246000D02*
D03*
Y255000D02*
D03*
X262750Y246000D02*
D03*
Y255000D02*
D03*
X271500Y641000D02*
D03*
Y650000D02*
D03*
X262750Y641000D02*
D03*
Y650000D02*
D03*
X271500Y1036000D02*
D03*
Y1045000D02*
D03*
X262750Y1036000D02*
D03*
Y1045000D02*
D03*
X107500Y2229000D02*
D03*
Y2220000D02*
D03*
X116250Y2229000D02*
D03*
Y2220000D02*
D03*
X107500Y1834000D02*
D03*
Y1825000D02*
D03*
X116250Y1834000D02*
D03*
Y1825000D02*
D03*
X107500Y1439000D02*
D03*
Y1430000D02*
D03*
X116250Y1439000D02*
D03*
Y1430000D02*
D03*
X390250Y2229000D02*
D03*
Y2220000D02*
D03*
X399000Y2229000D02*
D03*
Y2220000D02*
D03*
X390250Y1834000D02*
D03*
Y1825000D02*
D03*
X399000Y1834000D02*
D03*
Y1825000D02*
D03*
X390250Y1439000D02*
D03*
Y1430000D02*
D03*
X399000Y1439000D02*
D03*
Y1430000D02*
D03*
X673000Y2229000D02*
D03*
Y2220000D02*
D03*
X681750Y2229000D02*
D03*
Y2220000D02*
D03*
X673000Y1834000D02*
D03*
Y1825000D02*
D03*
X681750Y1834000D02*
D03*
Y1825000D02*
D03*
X673000Y1439000D02*
D03*
Y1430000D02*
D03*
X681750Y1439000D02*
D03*
Y1430000D02*
D03*
X955750Y2229000D02*
D03*
Y2220000D02*
D03*
X964500Y2229000D02*
D03*
Y2220000D02*
D03*
X955750Y1834000D02*
D03*
Y1825000D02*
D03*
X964500Y1834000D02*
D03*
Y1825000D02*
D03*
X955750Y1439000D02*
D03*
Y1430000D02*
D03*
X964500Y1439000D02*
D03*
Y1430000D02*
D03*
X1238500Y2229000D02*
D03*
Y2220000D02*
D03*
X1247250Y2229000D02*
D03*
Y2220000D02*
D03*
X1238500Y1834000D02*
D03*
Y1825000D02*
D03*
X1247250Y1834000D02*
D03*
Y1825000D02*
D03*
X1238500Y1439000D02*
D03*
Y1430000D02*
D03*
X1247250Y1439000D02*
D03*
Y1430000D02*
D03*
D33*
X1240600Y393150D02*
D03*
Y382850D02*
D03*
Y788150D02*
D03*
Y777850D02*
D03*
Y1183150D02*
D03*
Y1172850D02*
D03*
X957850Y393150D02*
D03*
Y382850D02*
D03*
Y788150D02*
D03*
Y777850D02*
D03*
Y1183150D02*
D03*
Y1172850D02*
D03*
X675100Y393150D02*
D03*
Y382850D02*
D03*
Y788150D02*
D03*
Y777850D02*
D03*
Y1183150D02*
D03*
Y1172850D02*
D03*
X392350Y393150D02*
D03*
Y382850D02*
D03*
Y788150D02*
D03*
Y777850D02*
D03*
Y1183150D02*
D03*
Y1172850D02*
D03*
X109600Y393150D02*
D03*
Y382850D02*
D03*
Y788150D02*
D03*
Y777850D02*
D03*
Y1183150D02*
D03*
Y1172850D02*
D03*
X269400Y2081850D02*
D03*
Y2092150D02*
D03*
Y1686850D02*
D03*
Y1697150D02*
D03*
Y1291850D02*
D03*
Y1302150D02*
D03*
X552150Y2081850D02*
D03*
Y2092150D02*
D03*
Y1686850D02*
D03*
Y1697150D02*
D03*
Y1291850D02*
D03*
Y1302150D02*
D03*
X834900Y2081850D02*
D03*
Y2092150D02*
D03*
Y1686850D02*
D03*
Y1697150D02*
D03*
Y1291850D02*
D03*
Y1302150D02*
D03*
X1117650Y2081850D02*
D03*
Y2092150D02*
D03*
Y1686850D02*
D03*
Y1697150D02*
D03*
Y1291850D02*
D03*
Y1302150D02*
D03*
X1400400Y2081850D02*
D03*
Y2092150D02*
D03*
Y1686850D02*
D03*
Y1697150D02*
D03*
Y1291850D02*
D03*
Y1302150D02*
D03*
D34*
X1302250Y386000D02*
D03*
Y375500D02*
D03*
X1288750D02*
D03*
Y386000D02*
D03*
X1302250Y781000D02*
D03*
Y770500D02*
D03*
X1288750D02*
D03*
Y781000D02*
D03*
X1302250Y1176000D02*
D03*
Y1165500D02*
D03*
X1288750D02*
D03*
Y1176000D02*
D03*
X1019500Y386000D02*
D03*
Y375500D02*
D03*
X1006000D02*
D03*
Y386000D02*
D03*
X1019500Y781000D02*
D03*
Y770500D02*
D03*
X1006000D02*
D03*
Y781000D02*
D03*
X1019500Y1176000D02*
D03*
Y1165500D02*
D03*
X1006000D02*
D03*
Y1176000D02*
D03*
X736750Y386000D02*
D03*
Y375500D02*
D03*
X723250D02*
D03*
Y386000D02*
D03*
X736750Y781000D02*
D03*
Y770500D02*
D03*
X723250D02*
D03*
Y781000D02*
D03*
X736750Y1176000D02*
D03*
Y1165500D02*
D03*
X723250D02*
D03*
Y1176000D02*
D03*
X454000Y386000D02*
D03*
Y375500D02*
D03*
X440500D02*
D03*
Y386000D02*
D03*
X454000Y781000D02*
D03*
Y770500D02*
D03*
X440500D02*
D03*
Y781000D02*
D03*
X454000Y1176000D02*
D03*
Y1165500D02*
D03*
X440500D02*
D03*
Y1176000D02*
D03*
X171250Y386000D02*
D03*
Y375500D02*
D03*
X157750D02*
D03*
Y386000D02*
D03*
X171250Y781000D02*
D03*
Y770500D02*
D03*
X157750D02*
D03*
Y781000D02*
D03*
X171250Y1176000D02*
D03*
Y1165500D02*
D03*
X157750D02*
D03*
Y1176000D02*
D03*
X207750Y2089000D02*
D03*
Y2099500D02*
D03*
X221250D02*
D03*
Y2089000D02*
D03*
X207750Y1694000D02*
D03*
Y1704500D02*
D03*
X221250D02*
D03*
Y1694000D02*
D03*
X207750Y1299000D02*
D03*
Y1309500D02*
D03*
X221250D02*
D03*
Y1299000D02*
D03*
X490500Y2089000D02*
D03*
Y2099500D02*
D03*
X504000D02*
D03*
Y2089000D02*
D03*
X490500Y1694000D02*
D03*
Y1704500D02*
D03*
X504000D02*
D03*
Y1694000D02*
D03*
X490500Y1299000D02*
D03*
Y1309500D02*
D03*
X504000D02*
D03*
Y1299000D02*
D03*
X773250Y2089000D02*
D03*
Y2099500D02*
D03*
X786750D02*
D03*
Y2089000D02*
D03*
X773250Y1694000D02*
D03*
Y1704500D02*
D03*
X786750D02*
D03*
Y1694000D02*
D03*
X773250Y1299000D02*
D03*
Y1309500D02*
D03*
X786750D02*
D03*
Y1299000D02*
D03*
X1056000Y2089000D02*
D03*
Y2099500D02*
D03*
X1069500D02*
D03*
Y2089000D02*
D03*
X1056000Y1694000D02*
D03*
Y1704500D02*
D03*
X1069500D02*
D03*
Y1694000D02*
D03*
X1056000Y1299000D02*
D03*
Y1309500D02*
D03*
X1069500D02*
D03*
Y1299000D02*
D03*
X1338750Y2089000D02*
D03*
Y2099500D02*
D03*
X1352250D02*
D03*
Y2089000D02*
D03*
X1338750Y1694000D02*
D03*
Y1704500D02*
D03*
X1352250D02*
D03*
Y1694000D02*
D03*
X1338750Y1299000D02*
D03*
Y1309500D02*
D03*
X1352250D02*
D03*
Y1299000D02*
D03*
D35*
X1240600Y370287D02*
D03*
X1250600D02*
D03*
X1240600Y765287D02*
D03*
X1250600D02*
D03*
X1240600Y1160287D02*
D03*
X1250600D02*
D03*
X957850Y370287D02*
D03*
X967850D02*
D03*
X957850Y765287D02*
D03*
X967850D02*
D03*
X957850Y1160287D02*
D03*
X967850D02*
D03*
X675100Y370287D02*
D03*
X685100D02*
D03*
X675100Y765287D02*
D03*
X685100D02*
D03*
X675100Y1160287D02*
D03*
X685100D02*
D03*
X392350Y370287D02*
D03*
X402350D02*
D03*
X392350Y765287D02*
D03*
X402350D02*
D03*
X392350Y1160287D02*
D03*
X402350D02*
D03*
X109600Y370287D02*
D03*
X119600D02*
D03*
X109600Y765287D02*
D03*
X119600D02*
D03*
X109600Y1160287D02*
D03*
X119600D02*
D03*
X269400Y2104713D02*
D03*
X259400D02*
D03*
X269400Y1709713D02*
D03*
X259400D02*
D03*
X269400Y1314713D02*
D03*
X259400D02*
D03*
X552150Y2104713D02*
D03*
X542150D02*
D03*
X552150Y1709713D02*
D03*
X542150D02*
D03*
X552150Y1314713D02*
D03*
X542150D02*
D03*
X834900Y2104713D02*
D03*
X824900D02*
D03*
X834900Y1709713D02*
D03*
X824900D02*
D03*
X834900Y1314713D02*
D03*
X824900D02*
D03*
X1117650Y2104713D02*
D03*
X1107650D02*
D03*
X1117650Y1709713D02*
D03*
X1107650D02*
D03*
X1117650Y1314713D02*
D03*
X1107650D02*
D03*
X1400400Y2104713D02*
D03*
X1390400D02*
D03*
X1400400Y1709713D02*
D03*
X1390400D02*
D03*
X1400400Y1314713D02*
D03*
X1390400D02*
D03*
D36*
X1309500Y393875D02*
D03*
X1314500D02*
D03*
X1319500D02*
D03*
X1324500D02*
D03*
Y419125D02*
D03*
X1319500D02*
D03*
X1314500D02*
D03*
X1309500D02*
D03*
Y788875D02*
D03*
X1314500D02*
D03*
X1319500D02*
D03*
X1324500D02*
D03*
Y814125D02*
D03*
X1319500D02*
D03*
X1314500D02*
D03*
X1309500D02*
D03*
Y1183875D02*
D03*
X1314500D02*
D03*
X1319500D02*
D03*
X1324500D02*
D03*
Y1209125D02*
D03*
X1319500D02*
D03*
X1314500D02*
D03*
X1309500D02*
D03*
X1026750Y393875D02*
D03*
X1031750D02*
D03*
X1036750D02*
D03*
X1041750D02*
D03*
Y419125D02*
D03*
X1036750D02*
D03*
X1031750D02*
D03*
X1026750D02*
D03*
Y788875D02*
D03*
X1031750D02*
D03*
X1036750D02*
D03*
X1041750D02*
D03*
Y814125D02*
D03*
X1036750D02*
D03*
X1031750D02*
D03*
X1026750D02*
D03*
Y1183875D02*
D03*
X1031750D02*
D03*
X1036750D02*
D03*
X1041750D02*
D03*
Y1209125D02*
D03*
X1036750D02*
D03*
X1031750D02*
D03*
X1026750D02*
D03*
X744000Y393875D02*
D03*
X749000D02*
D03*
X754000D02*
D03*
X759000D02*
D03*
Y419125D02*
D03*
X754000D02*
D03*
X749000D02*
D03*
X744000D02*
D03*
Y788875D02*
D03*
X749000D02*
D03*
X754000D02*
D03*
X759000D02*
D03*
Y814125D02*
D03*
X754000D02*
D03*
X749000D02*
D03*
X744000D02*
D03*
Y1183875D02*
D03*
X749000D02*
D03*
X754000D02*
D03*
X759000D02*
D03*
Y1209125D02*
D03*
X754000D02*
D03*
X749000D02*
D03*
X744000D02*
D03*
X461250Y393875D02*
D03*
X466250D02*
D03*
X471250D02*
D03*
X476250D02*
D03*
Y419125D02*
D03*
X471250D02*
D03*
X466250D02*
D03*
X461250D02*
D03*
Y788875D02*
D03*
X466250D02*
D03*
X471250D02*
D03*
X476250D02*
D03*
Y814125D02*
D03*
X471250D02*
D03*
X466250D02*
D03*
X461250D02*
D03*
Y1183875D02*
D03*
X466250D02*
D03*
X471250D02*
D03*
X476250D02*
D03*
Y1209125D02*
D03*
X471250D02*
D03*
X466250D02*
D03*
X461250D02*
D03*
X178500Y393875D02*
D03*
X183500D02*
D03*
X188500D02*
D03*
X193500D02*
D03*
Y419125D02*
D03*
X188500D02*
D03*
X183500D02*
D03*
X178500D02*
D03*
Y788875D02*
D03*
X183500D02*
D03*
X188500D02*
D03*
X193500D02*
D03*
Y814125D02*
D03*
X188500D02*
D03*
X183500D02*
D03*
X178500D02*
D03*
Y1183875D02*
D03*
X183500D02*
D03*
X188500D02*
D03*
X193500D02*
D03*
Y1209125D02*
D03*
X188500D02*
D03*
X183500D02*
D03*
X178500D02*
D03*
X200500Y2081125D02*
D03*
X195500D02*
D03*
X190500D02*
D03*
X185500D02*
D03*
Y2055875D02*
D03*
X190500D02*
D03*
X195500D02*
D03*
X200500D02*
D03*
Y1686125D02*
D03*
X195500D02*
D03*
X190500D02*
D03*
X185500D02*
D03*
Y1660875D02*
D03*
X190500D02*
D03*
X195500D02*
D03*
X200500D02*
D03*
Y1291125D02*
D03*
X195500D02*
D03*
X190500D02*
D03*
X185500D02*
D03*
Y1265875D02*
D03*
X190500D02*
D03*
X195500D02*
D03*
X200500D02*
D03*
X483250Y2081125D02*
D03*
X478250D02*
D03*
X473250D02*
D03*
X468250D02*
D03*
Y2055875D02*
D03*
X473250D02*
D03*
X478250D02*
D03*
X483250D02*
D03*
Y1686125D02*
D03*
X478250D02*
D03*
X473250D02*
D03*
X468250D02*
D03*
Y1660875D02*
D03*
X473250D02*
D03*
X478250D02*
D03*
X483250D02*
D03*
Y1291125D02*
D03*
X478250D02*
D03*
X473250D02*
D03*
X468250D02*
D03*
Y1265875D02*
D03*
X473250D02*
D03*
X478250D02*
D03*
X483250D02*
D03*
X766000Y2081125D02*
D03*
X761000D02*
D03*
X756000D02*
D03*
X751000D02*
D03*
Y2055875D02*
D03*
X756000D02*
D03*
X761000D02*
D03*
X766000D02*
D03*
Y1686125D02*
D03*
X761000D02*
D03*
X756000D02*
D03*
X751000D02*
D03*
Y1660875D02*
D03*
X756000D02*
D03*
X761000D02*
D03*
X766000D02*
D03*
Y1291125D02*
D03*
X761000D02*
D03*
X756000D02*
D03*
X751000D02*
D03*
Y1265875D02*
D03*
X756000D02*
D03*
X761000D02*
D03*
X766000D02*
D03*
X1048750Y2081125D02*
D03*
X1043750D02*
D03*
X1038750D02*
D03*
X1033750D02*
D03*
Y2055875D02*
D03*
X1038750D02*
D03*
X1043750D02*
D03*
X1048750D02*
D03*
Y1686125D02*
D03*
X1043750D02*
D03*
X1038750D02*
D03*
X1033750D02*
D03*
Y1660875D02*
D03*
X1038750D02*
D03*
X1043750D02*
D03*
X1048750D02*
D03*
Y1291125D02*
D03*
X1043750D02*
D03*
X1038750D02*
D03*
X1033750D02*
D03*
Y1265875D02*
D03*
X1038750D02*
D03*
X1043750D02*
D03*
X1048750D02*
D03*
X1331500Y2081125D02*
D03*
X1326500D02*
D03*
X1321500D02*
D03*
X1316500D02*
D03*
Y2055875D02*
D03*
X1321500D02*
D03*
X1326500D02*
D03*
X1331500D02*
D03*
Y1686125D02*
D03*
X1326500D02*
D03*
X1321500D02*
D03*
X1316500D02*
D03*
Y1660875D02*
D03*
X1321500D02*
D03*
X1326500D02*
D03*
X1331500D02*
D03*
Y1291125D02*
D03*
X1326500D02*
D03*
X1321500D02*
D03*
X1316500D02*
D03*
Y1265875D02*
D03*
X1321500D02*
D03*
X1326500D02*
D03*
X1331500D02*
D03*
D37*
X1327125Y401500D02*
D03*
Y406500D02*
D03*
Y411500D02*
D03*
X1306875D02*
D03*
Y406500D02*
D03*
Y401500D02*
D03*
X1327125Y796500D02*
D03*
Y801500D02*
D03*
Y806500D02*
D03*
X1306875D02*
D03*
Y801500D02*
D03*
Y796500D02*
D03*
X1327125Y1191500D02*
D03*
Y1196500D02*
D03*
Y1201500D02*
D03*
X1306875D02*
D03*
Y1196500D02*
D03*
Y1191500D02*
D03*
X1044375Y401500D02*
D03*
Y406500D02*
D03*
Y411500D02*
D03*
X1024125D02*
D03*
Y406500D02*
D03*
Y401500D02*
D03*
X1044375Y796500D02*
D03*
Y801500D02*
D03*
Y806500D02*
D03*
X1024125D02*
D03*
Y801500D02*
D03*
Y796500D02*
D03*
X1044375Y1191500D02*
D03*
Y1196500D02*
D03*
Y1201500D02*
D03*
X1024125D02*
D03*
Y1196500D02*
D03*
Y1191500D02*
D03*
X761625Y401500D02*
D03*
Y406500D02*
D03*
Y411500D02*
D03*
X741375D02*
D03*
Y406500D02*
D03*
Y401500D02*
D03*
X761625Y796500D02*
D03*
Y801500D02*
D03*
Y806500D02*
D03*
X741375D02*
D03*
Y801500D02*
D03*
Y796500D02*
D03*
X761625Y1191500D02*
D03*
Y1196500D02*
D03*
Y1201500D02*
D03*
X741375D02*
D03*
Y1196500D02*
D03*
Y1191500D02*
D03*
X478875Y401500D02*
D03*
Y406500D02*
D03*
Y411500D02*
D03*
X458625D02*
D03*
Y406500D02*
D03*
Y401500D02*
D03*
X478875Y796500D02*
D03*
Y801500D02*
D03*
Y806500D02*
D03*
X458625D02*
D03*
Y801500D02*
D03*
Y796500D02*
D03*
X478875Y1191500D02*
D03*
Y1196500D02*
D03*
Y1201500D02*
D03*
X458625D02*
D03*
Y1196500D02*
D03*
Y1191500D02*
D03*
X196125Y401500D02*
D03*
Y406500D02*
D03*
Y411500D02*
D03*
X175875D02*
D03*
Y406500D02*
D03*
Y401500D02*
D03*
X196125Y796500D02*
D03*
Y801500D02*
D03*
Y806500D02*
D03*
X175875D02*
D03*
Y801500D02*
D03*
Y796500D02*
D03*
X196125Y1191500D02*
D03*
Y1196500D02*
D03*
Y1201500D02*
D03*
X175875D02*
D03*
Y1196500D02*
D03*
Y1191500D02*
D03*
X182875Y2073500D02*
D03*
Y2068500D02*
D03*
Y2063500D02*
D03*
X203125D02*
D03*
Y2068500D02*
D03*
Y2073500D02*
D03*
X182875Y1678500D02*
D03*
Y1673500D02*
D03*
Y1668500D02*
D03*
X203125D02*
D03*
Y1673500D02*
D03*
Y1678500D02*
D03*
X182875Y1283500D02*
D03*
Y1278500D02*
D03*
Y1273500D02*
D03*
X203125D02*
D03*
Y1278500D02*
D03*
Y1283500D02*
D03*
X465625Y2073500D02*
D03*
Y2068500D02*
D03*
Y2063500D02*
D03*
X485875D02*
D03*
Y2068500D02*
D03*
Y2073500D02*
D03*
X465625Y1678500D02*
D03*
Y1673500D02*
D03*
Y1668500D02*
D03*
X485875D02*
D03*
Y1673500D02*
D03*
Y1678500D02*
D03*
X465625Y1283500D02*
D03*
Y1278500D02*
D03*
Y1273500D02*
D03*
X485875D02*
D03*
Y1278500D02*
D03*
Y1283500D02*
D03*
X748375Y2073500D02*
D03*
Y2068500D02*
D03*
Y2063500D02*
D03*
X768625D02*
D03*
Y2068500D02*
D03*
Y2073500D02*
D03*
X748375Y1678500D02*
D03*
Y1673500D02*
D03*
Y1668500D02*
D03*
X768625D02*
D03*
Y1673500D02*
D03*
Y1678500D02*
D03*
X748375Y1283500D02*
D03*
Y1278500D02*
D03*
Y1273500D02*
D03*
X768625D02*
D03*
Y1278500D02*
D03*
Y1283500D02*
D03*
X1031125Y2073500D02*
D03*
Y2068500D02*
D03*
Y2063500D02*
D03*
X1051375D02*
D03*
Y2068500D02*
D03*
Y2073500D02*
D03*
X1031125Y1678500D02*
D03*
Y1673500D02*
D03*
Y1668500D02*
D03*
X1051375D02*
D03*
Y1673500D02*
D03*
Y1678500D02*
D03*
X1031125Y1283500D02*
D03*
Y1278500D02*
D03*
Y1273500D02*
D03*
X1051375D02*
D03*
Y1278500D02*
D03*
Y1283500D02*
D03*
X1313875Y2073500D02*
D03*
Y2068500D02*
D03*
Y2063500D02*
D03*
X1334125D02*
D03*
Y2068500D02*
D03*
Y2073500D02*
D03*
X1313875Y1678500D02*
D03*
Y1673500D02*
D03*
Y1668500D02*
D03*
X1334125D02*
D03*
Y1673500D02*
D03*
Y1678500D02*
D03*
X1313875Y1283500D02*
D03*
Y1278500D02*
D03*
Y1273500D02*
D03*
X1334125D02*
D03*
Y1278500D02*
D03*
Y1283500D02*
D03*
D38*
X1350850Y379000D02*
D03*
X1363550D02*
D03*
X1376250D02*
D03*
X1388950D02*
D03*
Y435000D02*
D03*
X1376250D02*
D03*
X1363550D02*
D03*
X1350850D02*
D03*
Y774000D02*
D03*
X1363550D02*
D03*
X1376250D02*
D03*
X1388950D02*
D03*
Y830000D02*
D03*
X1376250D02*
D03*
X1363550D02*
D03*
X1350850D02*
D03*
Y1169000D02*
D03*
X1363550D02*
D03*
X1376250D02*
D03*
X1388950D02*
D03*
Y1225000D02*
D03*
X1376250D02*
D03*
X1363550D02*
D03*
X1350850D02*
D03*
X1068100Y379000D02*
D03*
X1080800D02*
D03*
X1093500D02*
D03*
X1106200D02*
D03*
Y435000D02*
D03*
X1093500D02*
D03*
X1080800D02*
D03*
X1068100D02*
D03*
Y774000D02*
D03*
X1080800D02*
D03*
X1093500D02*
D03*
X1106200D02*
D03*
Y830000D02*
D03*
X1093500D02*
D03*
X1080800D02*
D03*
X1068100D02*
D03*
Y1169000D02*
D03*
X1080800D02*
D03*
X1093500D02*
D03*
X1106200D02*
D03*
Y1225000D02*
D03*
X1093500D02*
D03*
X1080800D02*
D03*
X1068100D02*
D03*
X785350Y379000D02*
D03*
X798050D02*
D03*
X810750D02*
D03*
X823450D02*
D03*
Y435000D02*
D03*
X810750D02*
D03*
X798050D02*
D03*
X785350D02*
D03*
Y774000D02*
D03*
X798050D02*
D03*
X810750D02*
D03*
X823450D02*
D03*
Y830000D02*
D03*
X810750D02*
D03*
X798050D02*
D03*
X785350D02*
D03*
Y1169000D02*
D03*
X798050D02*
D03*
X810750D02*
D03*
X823450D02*
D03*
Y1225000D02*
D03*
X810750D02*
D03*
X798050D02*
D03*
X785350D02*
D03*
X502600Y379000D02*
D03*
X515300D02*
D03*
X528000D02*
D03*
X540700D02*
D03*
Y435000D02*
D03*
X528000D02*
D03*
X515300D02*
D03*
X502600D02*
D03*
Y774000D02*
D03*
X515300D02*
D03*
X528000D02*
D03*
X540700D02*
D03*
Y830000D02*
D03*
X528000D02*
D03*
X515300D02*
D03*
X502600D02*
D03*
Y1169000D02*
D03*
X515300D02*
D03*
X528000D02*
D03*
X540700D02*
D03*
Y1225000D02*
D03*
X528000D02*
D03*
X515300D02*
D03*
X502600D02*
D03*
X219850Y379000D02*
D03*
X232550D02*
D03*
X245250D02*
D03*
X257950D02*
D03*
Y435000D02*
D03*
X245250D02*
D03*
X232550D02*
D03*
X219850D02*
D03*
Y774000D02*
D03*
X232550D02*
D03*
X245250D02*
D03*
X257950D02*
D03*
Y830000D02*
D03*
X245250D02*
D03*
X232550D02*
D03*
X219850D02*
D03*
Y1169000D02*
D03*
X232550D02*
D03*
X245250D02*
D03*
X257950D02*
D03*
Y1225000D02*
D03*
X245250D02*
D03*
X232550D02*
D03*
X219850D02*
D03*
X159150Y2096000D02*
D03*
X146450D02*
D03*
X133750D02*
D03*
X121050D02*
D03*
Y2040000D02*
D03*
X133750D02*
D03*
X146450D02*
D03*
X159150D02*
D03*
Y1701000D02*
D03*
X146450D02*
D03*
X133750D02*
D03*
X121050D02*
D03*
Y1645000D02*
D03*
X133750D02*
D03*
X146450D02*
D03*
X159150D02*
D03*
Y1306000D02*
D03*
X146450D02*
D03*
X133750D02*
D03*
X121050D02*
D03*
Y1250000D02*
D03*
X133750D02*
D03*
X146450D02*
D03*
X159150D02*
D03*
X441900Y2096000D02*
D03*
X429200D02*
D03*
X416500D02*
D03*
X403800D02*
D03*
Y2040000D02*
D03*
X416500D02*
D03*
X429200D02*
D03*
X441900D02*
D03*
Y1701000D02*
D03*
X429200D02*
D03*
X416500D02*
D03*
X403800D02*
D03*
Y1645000D02*
D03*
X416500D02*
D03*
X429200D02*
D03*
X441900D02*
D03*
Y1306000D02*
D03*
X429200D02*
D03*
X416500D02*
D03*
X403800D02*
D03*
Y1250000D02*
D03*
X416500D02*
D03*
X429200D02*
D03*
X441900D02*
D03*
X724650Y2096000D02*
D03*
X711950D02*
D03*
X699250D02*
D03*
X686550D02*
D03*
Y2040000D02*
D03*
X699250D02*
D03*
X711950D02*
D03*
X724650D02*
D03*
Y1701000D02*
D03*
X711950D02*
D03*
X699250D02*
D03*
X686550D02*
D03*
Y1645000D02*
D03*
X699250D02*
D03*
X711950D02*
D03*
X724650D02*
D03*
Y1306000D02*
D03*
X711950D02*
D03*
X699250D02*
D03*
X686550D02*
D03*
Y1250000D02*
D03*
X699250D02*
D03*
X711950D02*
D03*
X724650D02*
D03*
X1007400Y2096000D02*
D03*
X994700D02*
D03*
X982000D02*
D03*
X969300D02*
D03*
Y2040000D02*
D03*
X982000D02*
D03*
X994700D02*
D03*
X1007400D02*
D03*
Y1701000D02*
D03*
X994700D02*
D03*
X982000D02*
D03*
X969300D02*
D03*
Y1645000D02*
D03*
X982000D02*
D03*
X994700D02*
D03*
X1007400D02*
D03*
Y1306000D02*
D03*
X994700D02*
D03*
X982000D02*
D03*
X969300D02*
D03*
Y1250000D02*
D03*
X982000D02*
D03*
X994700D02*
D03*
X1007400D02*
D03*
X1290150Y2096000D02*
D03*
X1277450D02*
D03*
X1264750D02*
D03*
X1252050D02*
D03*
Y2040000D02*
D03*
X1264750D02*
D03*
X1277450D02*
D03*
X1290150D02*
D03*
Y1701000D02*
D03*
X1277450D02*
D03*
X1264750D02*
D03*
X1252050D02*
D03*
Y1645000D02*
D03*
X1264750D02*
D03*
X1277450D02*
D03*
X1290150D02*
D03*
Y1306000D02*
D03*
X1277450D02*
D03*
X1264750D02*
D03*
X1252050D02*
D03*
Y1250000D02*
D03*
X1264750D02*
D03*
X1277450D02*
D03*
X1290150D02*
D03*
D39*
X1397900Y394300D02*
D03*
Y407000D02*
D03*
Y419700D02*
D03*
X1341900D02*
D03*
Y407000D02*
D03*
Y394300D02*
D03*
X1397900Y789300D02*
D03*
Y802000D02*
D03*
Y814700D02*
D03*
X1341900D02*
D03*
Y802000D02*
D03*
Y789300D02*
D03*
X1397900Y1184300D02*
D03*
Y1197000D02*
D03*
Y1209700D02*
D03*
X1341900D02*
D03*
Y1197000D02*
D03*
Y1184300D02*
D03*
X1115150Y394300D02*
D03*
Y407000D02*
D03*
Y419700D02*
D03*
X1059150D02*
D03*
Y407000D02*
D03*
Y394300D02*
D03*
X1115150Y789300D02*
D03*
Y802000D02*
D03*
Y814700D02*
D03*
X1059150D02*
D03*
Y802000D02*
D03*
Y789300D02*
D03*
X1115150Y1184300D02*
D03*
Y1197000D02*
D03*
Y1209700D02*
D03*
X1059150D02*
D03*
Y1197000D02*
D03*
Y1184300D02*
D03*
X832400Y394300D02*
D03*
Y407000D02*
D03*
Y419700D02*
D03*
X776400D02*
D03*
Y407000D02*
D03*
Y394300D02*
D03*
X832400Y789300D02*
D03*
Y802000D02*
D03*
Y814700D02*
D03*
X776400D02*
D03*
Y802000D02*
D03*
Y789300D02*
D03*
X832400Y1184300D02*
D03*
Y1197000D02*
D03*
Y1209700D02*
D03*
X776400D02*
D03*
Y1197000D02*
D03*
Y1184300D02*
D03*
X549650Y394300D02*
D03*
Y407000D02*
D03*
Y419700D02*
D03*
X493650D02*
D03*
Y407000D02*
D03*
Y394300D02*
D03*
X549650Y789300D02*
D03*
Y802000D02*
D03*
Y814700D02*
D03*
X493650D02*
D03*
Y802000D02*
D03*
Y789300D02*
D03*
X549650Y1184300D02*
D03*
Y1197000D02*
D03*
Y1209700D02*
D03*
X493650D02*
D03*
Y1197000D02*
D03*
Y1184300D02*
D03*
X266900Y394300D02*
D03*
Y407000D02*
D03*
Y419700D02*
D03*
X210900D02*
D03*
Y407000D02*
D03*
Y394300D02*
D03*
X266900Y789300D02*
D03*
Y802000D02*
D03*
Y814700D02*
D03*
X210900D02*
D03*
Y802000D02*
D03*
Y789300D02*
D03*
X266900Y1184300D02*
D03*
Y1197000D02*
D03*
Y1209700D02*
D03*
X210900D02*
D03*
Y1197000D02*
D03*
Y1184300D02*
D03*
X112100Y2080700D02*
D03*
Y2068000D02*
D03*
Y2055300D02*
D03*
X168100D02*
D03*
Y2068000D02*
D03*
Y2080700D02*
D03*
X112100Y1685700D02*
D03*
Y1673000D02*
D03*
Y1660300D02*
D03*
X168100D02*
D03*
Y1673000D02*
D03*
Y1685700D02*
D03*
X112100Y1290700D02*
D03*
Y1278000D02*
D03*
Y1265300D02*
D03*
X168100D02*
D03*
Y1278000D02*
D03*
Y1290700D02*
D03*
X394850Y2080700D02*
D03*
Y2068000D02*
D03*
Y2055300D02*
D03*
X450850D02*
D03*
Y2068000D02*
D03*
Y2080700D02*
D03*
X394850Y1685700D02*
D03*
Y1673000D02*
D03*
Y1660300D02*
D03*
X450850D02*
D03*
Y1673000D02*
D03*
Y1685700D02*
D03*
X394850Y1290700D02*
D03*
Y1278000D02*
D03*
Y1265300D02*
D03*
X450850D02*
D03*
Y1278000D02*
D03*
Y1290700D02*
D03*
X677600Y2080700D02*
D03*
Y2068000D02*
D03*
Y2055300D02*
D03*
X733600D02*
D03*
Y2068000D02*
D03*
Y2080700D02*
D03*
X677600Y1685700D02*
D03*
Y1673000D02*
D03*
Y1660300D02*
D03*
X733600D02*
D03*
Y1673000D02*
D03*
Y1685700D02*
D03*
X677600Y1290700D02*
D03*
Y1278000D02*
D03*
Y1265300D02*
D03*
X733600D02*
D03*
Y1278000D02*
D03*
Y1290700D02*
D03*
X960350Y2080700D02*
D03*
Y2068000D02*
D03*
Y2055300D02*
D03*
X1016350D02*
D03*
Y2068000D02*
D03*
Y2080700D02*
D03*
X960350Y1685700D02*
D03*
Y1673000D02*
D03*
Y1660300D02*
D03*
X1016350D02*
D03*
Y1673000D02*
D03*
Y1685700D02*
D03*
X960350Y1290700D02*
D03*
Y1278000D02*
D03*
Y1265300D02*
D03*
X1016350D02*
D03*
Y1278000D02*
D03*
Y1290700D02*
D03*
X1243100Y2080700D02*
D03*
Y2068000D02*
D03*
Y2055300D02*
D03*
X1299100D02*
D03*
Y2068000D02*
D03*
Y2080700D02*
D03*
X1243100Y1685700D02*
D03*
Y1673000D02*
D03*
Y1660300D02*
D03*
X1299100D02*
D03*
Y1673000D02*
D03*
Y1685700D02*
D03*
X1243100Y1290700D02*
D03*
Y1278000D02*
D03*
Y1265300D02*
D03*
X1299100D02*
D03*
Y1278000D02*
D03*
Y1290700D02*
D03*
D40*
X1339400Y288000D02*
D03*
Y279000D02*
D03*
Y683000D02*
D03*
Y674000D02*
D03*
Y1078000D02*
D03*
Y1069000D02*
D03*
X1056650Y288000D02*
D03*
Y279000D02*
D03*
Y683000D02*
D03*
Y674000D02*
D03*
Y1078000D02*
D03*
Y1069000D02*
D03*
X773900Y288000D02*
D03*
Y279000D02*
D03*
Y683000D02*
D03*
Y674000D02*
D03*
Y1078000D02*
D03*
Y1069000D02*
D03*
X491150Y288000D02*
D03*
Y279000D02*
D03*
Y683000D02*
D03*
Y674000D02*
D03*
Y1078000D02*
D03*
Y1069000D02*
D03*
X208400Y288000D02*
D03*
Y279000D02*
D03*
Y683000D02*
D03*
Y674000D02*
D03*
Y1078000D02*
D03*
Y1069000D02*
D03*
X170600Y2187000D02*
D03*
Y2196000D02*
D03*
Y1792000D02*
D03*
Y1801000D02*
D03*
Y1397000D02*
D03*
Y1406000D02*
D03*
X453350Y2187000D02*
D03*
Y2196000D02*
D03*
Y1792000D02*
D03*
Y1801000D02*
D03*
Y1397000D02*
D03*
Y1406000D02*
D03*
X736100Y2187000D02*
D03*
Y2196000D02*
D03*
Y1792000D02*
D03*
Y1801000D02*
D03*
Y1397000D02*
D03*
Y1406000D02*
D03*
X1018850Y2187000D02*
D03*
Y2196000D02*
D03*
Y1792000D02*
D03*
Y1801000D02*
D03*
Y1397000D02*
D03*
Y1406000D02*
D03*
X1301600Y2187000D02*
D03*
Y2196000D02*
D03*
Y1792000D02*
D03*
Y1801000D02*
D03*
Y1397000D02*
D03*
Y1406000D02*
D03*
D41*
X1247500Y246500D02*
D03*
X1238500D02*
D03*
X1247500Y641500D02*
D03*
X1238500D02*
D03*
X1247500Y1036500D02*
D03*
X1238500D02*
D03*
X964750Y246500D02*
D03*
X955750D02*
D03*
X964750Y641500D02*
D03*
X955750D02*
D03*
X964750Y1036500D02*
D03*
X955750D02*
D03*
X682000Y246500D02*
D03*
X673000D02*
D03*
X682000Y641500D02*
D03*
X673000D02*
D03*
X682000Y1036500D02*
D03*
X673000D02*
D03*
X399250Y246500D02*
D03*
X390250D02*
D03*
X399250Y641500D02*
D03*
X390250D02*
D03*
X399250Y1036500D02*
D03*
X390250D02*
D03*
X116500Y246500D02*
D03*
X107500D02*
D03*
X116500Y641500D02*
D03*
X107500D02*
D03*
X116500Y1036500D02*
D03*
X107500D02*
D03*
X262500Y2228500D02*
D03*
X271500D02*
D03*
X262500Y1833500D02*
D03*
X271500D02*
D03*
X262500Y1438500D02*
D03*
X271500D02*
D03*
X545250Y2228500D02*
D03*
X554250D02*
D03*
X545250Y1833500D02*
D03*
X554250D02*
D03*
X545250Y1438500D02*
D03*
X554250D02*
D03*
X828000Y2228500D02*
D03*
X837000D02*
D03*
X828000Y1833500D02*
D03*
X837000D02*
D03*
X828000Y1438500D02*
D03*
X837000D02*
D03*
X1110750Y2228500D02*
D03*
X1119750D02*
D03*
X1110750Y1833500D02*
D03*
X1119750D02*
D03*
X1110750Y1438500D02*
D03*
X1119750D02*
D03*
X1393500Y2228500D02*
D03*
X1402500D02*
D03*
X1393500Y1833500D02*
D03*
X1402500D02*
D03*
X1393500Y1438500D02*
D03*
X1402500D02*
D03*
D101*
X1298108Y314475D02*
D03*
X1330248Y314475D02*
D03*
X1314178Y314475D02*
D03*
X1314178Y346614D02*
D03*
X1330248Y346614D02*
D03*
X1298108Y346614D02*
D03*
X1298108Y330545D02*
D03*
X1330248Y330545D02*
D03*
X1314178D02*
D03*
X1298108Y709475D02*
D03*
X1330248Y709475D02*
D03*
X1314178Y709475D02*
D03*
X1314178Y741615D02*
D03*
X1330248Y741614D02*
D03*
X1298108Y741614D02*
D03*
X1298108Y725545D02*
D03*
X1330248Y725545D02*
D03*
X1314178D02*
D03*
X1298108Y1104475D02*
D03*
X1330248Y1104475D02*
D03*
X1314178Y1104475D02*
D03*
X1314178Y1136615D02*
D03*
X1330248Y1136614D02*
D03*
X1298108Y1136614D02*
D03*
X1298108Y1120545D02*
D03*
X1330248Y1120545D02*
D03*
X1314178D02*
D03*
X1015358Y314475D02*
D03*
X1047498Y314475D02*
D03*
X1031428Y314475D02*
D03*
X1031428Y346614D02*
D03*
X1047498Y346614D02*
D03*
X1015358Y346614D02*
D03*
X1015358Y330545D02*
D03*
X1047498Y330545D02*
D03*
X1031428D02*
D03*
X1015358Y709475D02*
D03*
X1047498Y709475D02*
D03*
X1031428Y709475D02*
D03*
X1031428Y741615D02*
D03*
X1047498Y741614D02*
D03*
X1015358Y741614D02*
D03*
X1015358Y725545D02*
D03*
X1047498Y725545D02*
D03*
X1031428D02*
D03*
X1015358Y1104475D02*
D03*
X1047498Y1104475D02*
D03*
X1031428Y1104475D02*
D03*
X1031428Y1136615D02*
D03*
X1047498Y1136614D02*
D03*
X1015358Y1136614D02*
D03*
X1015358Y1120545D02*
D03*
X1047498Y1120545D02*
D03*
X1031428D02*
D03*
X732608Y314475D02*
D03*
X764748Y314475D02*
D03*
X748678Y314475D02*
D03*
X748678Y346614D02*
D03*
X764747Y346614D02*
D03*
X732608Y346614D02*
D03*
X732608Y330545D02*
D03*
X764748Y330545D02*
D03*
X748678D02*
D03*
X732608Y709475D02*
D03*
X764748Y709475D02*
D03*
X748678Y709475D02*
D03*
X748678Y741615D02*
D03*
X764747Y741614D02*
D03*
X732608Y741614D02*
D03*
X732608Y725545D02*
D03*
X764748Y725545D02*
D03*
X748678D02*
D03*
X732608Y1104475D02*
D03*
X764748Y1104475D02*
D03*
X748678Y1104475D02*
D03*
X748678Y1136615D02*
D03*
X764747Y1136614D02*
D03*
X732608Y1136614D02*
D03*
X732608Y1120545D02*
D03*
X764748Y1120545D02*
D03*
X748678D02*
D03*
X449858Y314475D02*
D03*
X481997Y314475D02*
D03*
X465928Y314475D02*
D03*
X465928Y346614D02*
D03*
X481997Y346614D02*
D03*
X449858Y346614D02*
D03*
X449858Y330545D02*
D03*
X481998Y330545D02*
D03*
X465928D02*
D03*
X449858Y709475D02*
D03*
X481997Y709475D02*
D03*
X465928Y709475D02*
D03*
X465928Y741615D02*
D03*
X481997Y741614D02*
D03*
X449858Y741614D02*
D03*
X449858Y725545D02*
D03*
X481998Y725545D02*
D03*
X465928D02*
D03*
X449858Y1104475D02*
D03*
X481997Y1104475D02*
D03*
X465928Y1104475D02*
D03*
X465928Y1136615D02*
D03*
X481997Y1136614D02*
D03*
X449858Y1136614D02*
D03*
X449858Y1120545D02*
D03*
X481998Y1120545D02*
D03*
X465928D02*
D03*
X167108Y314475D02*
D03*
X199247Y314475D02*
D03*
X183178Y314475D02*
D03*
X183178Y346614D02*
D03*
X199247Y346614D02*
D03*
X167108Y346614D02*
D03*
X167108Y330545D02*
D03*
X199247Y330545D02*
D03*
X183178D02*
D03*
X167108Y709475D02*
D03*
X199247Y709475D02*
D03*
X183178Y709475D02*
D03*
X183178Y741615D02*
D03*
X199247Y741614D02*
D03*
X167108Y741614D02*
D03*
X167108Y725545D02*
D03*
X199247Y725545D02*
D03*
X183178D02*
D03*
X167108Y1104475D02*
D03*
X199247Y1104475D02*
D03*
X183178Y1104475D02*
D03*
X183178Y1136615D02*
D03*
X199247Y1136614D02*
D03*
X167108Y1136614D02*
D03*
X167108Y1120545D02*
D03*
X199247Y1120545D02*
D03*
X183178D02*
D03*
X211892Y2160525D02*
D03*
X179752Y2160525D02*
D03*
X195822Y2160525D02*
D03*
X195822Y2128385D02*
D03*
X179752Y2128386D02*
D03*
X211892Y2128386D02*
D03*
X211892Y2144456D02*
D03*
X179752Y2144456D02*
D03*
X195822D02*
D03*
X211892Y1765525D02*
D03*
X179752Y1765525D02*
D03*
X195822Y1765525D02*
D03*
X195822Y1733385D02*
D03*
X179752Y1733386D02*
D03*
X211892Y1733386D02*
D03*
X211892Y1749456D02*
D03*
X179752Y1749456D02*
D03*
X195822D02*
D03*
X211892Y1370525D02*
D03*
X179752Y1370525D02*
D03*
X195822Y1370525D02*
D03*
X195822Y1338385D02*
D03*
X179752Y1338386D02*
D03*
X211892Y1338386D02*
D03*
X211892Y1354456D02*
D03*
X179752Y1354456D02*
D03*
X195822D02*
D03*
X494642Y2160525D02*
D03*
X462502Y2160525D02*
D03*
X478572Y2160525D02*
D03*
X478572Y2128385D02*
D03*
X462502Y2128386D02*
D03*
X494642Y2128386D02*
D03*
X494642Y2144456D02*
D03*
X462502Y2144456D02*
D03*
X478572D02*
D03*
X494642Y1765525D02*
D03*
X462502Y1765525D02*
D03*
X478572Y1765525D02*
D03*
X478572Y1733385D02*
D03*
X462502Y1733386D02*
D03*
X494642Y1733386D02*
D03*
X494642Y1749456D02*
D03*
X462502Y1749456D02*
D03*
X478572D02*
D03*
X494642Y1370525D02*
D03*
X462502Y1370525D02*
D03*
X478572Y1370525D02*
D03*
X478572Y1338385D02*
D03*
X462502Y1338386D02*
D03*
X494642Y1338386D02*
D03*
X494642Y1354456D02*
D03*
X462502Y1354456D02*
D03*
X478572D02*
D03*
X777392Y2160525D02*
D03*
X745252Y2160525D02*
D03*
X761322Y2160525D02*
D03*
X761322Y2128385D02*
D03*
X745253Y2128386D02*
D03*
X777392Y2128386D02*
D03*
X777392Y2144456D02*
D03*
X745252Y2144456D02*
D03*
X761322D02*
D03*
X777392Y1765525D02*
D03*
X745252Y1765525D02*
D03*
X761322Y1765525D02*
D03*
X761322Y1733385D02*
D03*
X745253Y1733386D02*
D03*
X777392Y1733386D02*
D03*
X777392Y1749456D02*
D03*
X745252Y1749456D02*
D03*
X761322D02*
D03*
X777392Y1370525D02*
D03*
X745252Y1370525D02*
D03*
X761322Y1370525D02*
D03*
X761322Y1338385D02*
D03*
X745253Y1338386D02*
D03*
X777392Y1338386D02*
D03*
X777392Y1354456D02*
D03*
X745252Y1354456D02*
D03*
X761322D02*
D03*
X1060142Y2160525D02*
D03*
X1028002Y2160525D02*
D03*
X1044072Y2160525D02*
D03*
X1044072Y2128385D02*
D03*
X1028002Y2128386D02*
D03*
X1060142Y2128386D02*
D03*
X1060142Y2144456D02*
D03*
X1028002Y2144456D02*
D03*
X1044072D02*
D03*
X1060142Y1765525D02*
D03*
X1028002Y1765525D02*
D03*
X1044072Y1765525D02*
D03*
X1044072Y1733385D02*
D03*
X1028002Y1733386D02*
D03*
X1060142Y1733386D02*
D03*
X1060142Y1749456D02*
D03*
X1028002Y1749456D02*
D03*
X1044072D02*
D03*
X1060142Y1370525D02*
D03*
X1028002Y1370525D02*
D03*
X1044072Y1370525D02*
D03*
X1044072Y1338385D02*
D03*
X1028002Y1338386D02*
D03*
X1060142Y1338386D02*
D03*
X1060142Y1354456D02*
D03*
X1028002Y1354456D02*
D03*
X1044072D02*
D03*
X1342892Y2160525D02*
D03*
X1310753Y2160525D02*
D03*
X1326822Y2160525D02*
D03*
X1326823Y2128385D02*
D03*
X1310753Y2128386D02*
D03*
X1342892Y2128386D02*
D03*
X1342892Y2144456D02*
D03*
X1310753Y2144456D02*
D03*
X1326823D02*
D03*
X1342892Y1765525D02*
D03*
X1310753Y1765525D02*
D03*
X1326822Y1765525D02*
D03*
X1326823Y1733385D02*
D03*
X1310753Y1733386D02*
D03*
X1342892Y1733386D02*
D03*
X1342892Y1749456D02*
D03*
X1310753Y1749456D02*
D03*
X1326823D02*
D03*
X1342892Y1370525D02*
D03*
X1310753Y1370525D02*
D03*
X1326822Y1370525D02*
D03*
X1326823Y1338385D02*
D03*
X1310753Y1338386D02*
D03*
X1342892Y1338386D02*
D03*
X1342892Y1354456D02*
D03*
X1310753Y1354456D02*
D03*
X1326823D02*
D03*
M02*
